<svg width="35" height="35" viewBox="0 0 35 35" fill="none" xmlns="http://www.w3.org/2000/svg">
<path d="M15.7397 0.996017C15.6307 1.00965 15.2422 1.05737 14.8877 1.09826C11.9226 1.43226 8.96437 2.67282 6.43553 4.62909C5.68574 5.20847 4.20661 6.6876 3.62723 7.43739C1.7323 9.87762 0.593987 12.5496 0.116848 15.6578C-0.039926 16.6803 -0.039926 19.3113 0.116848 20.3338C0.525824 22.9785 1.41194 25.3028 2.81609 27.4022C5.61758 31.6011 9.78913 34.1844 14.9218 34.9138C15.842 35.0433 18.3504 35.0228 19.3524 34.8797C21.8948 34.5048 24.3351 33.571 26.4072 32.1873C30.6128 29.3721 33.1962 25.2006 33.9187 20.0748C34.0346 19.2773 34.0346 16.7143 33.9187 15.9168C33.2984 11.5067 31.2536 7.73731 28.009 4.99717C25.5756 2.93866 22.5424 1.5754 19.3864 1.12553C18.6503 1.01646 16.2032 0.927853 15.7397 0.996017ZM18.364 7.15792C23.1081 7.6487 26.7957 10.9478 27.8113 15.6101C27.9136 16.0736 27.9409 16.4826 27.9409 17.655C27.9409 18.9433 27.9204 19.2091 27.7841 19.8294C27.3069 21.9424 26.4004 23.5988 24.8804 25.1256C23.3399 26.6593 21.554 27.6272 19.3592 28.0975C18.773 28.227 18.4526 28.2475 17.2393 28.2475C16.0124 28.2475 15.7125 28.227 15.1126 28.0975C14.2811 27.9135 13.2791 27.5863 12.5429 27.2455L12.0044 26.9933L9.05298 27.9271C7.42389 28.4383 6.08108 28.8405 6.06064 28.82C6.04019 28.8064 6.46279 27.5386 6.99446 26.0185L7.95556 23.2443L7.53977 22.3718C6.75589 20.7291 6.46961 19.4886 6.47643 17.7231C6.47643 16.3258 6.58549 15.6237 6.98083 14.4445C7.90784 11.6635 9.87775 9.44138 12.5361 8.17355C14.3492 7.30788 16.3941 6.95344 18.364 7.15792Z" fill="#43D854"/>
<path d="M15.7739 8.82187C12.7884 9.36036 10.4027 11.0985 9.08035 13.6887C7.68302 16.4356 7.83979 19.762 9.49615 22.3385C9.687 22.6385 9.84378 22.9179 9.84378 22.9588C9.84378 22.9997 9.61202 23.7427 9.32574 24.6084C9.04627 25.4808 8.82133 26.2034 8.83497 26.217C8.8486 26.2306 9.63247 25.9989 10.5663 25.7126L12.2772 25.1809L12.952 25.5422C13.7222 25.9512 14.7788 26.3192 15.6717 26.4896C16.5442 26.6601 18.1119 26.6464 19.0185 26.4624C22.6515 25.733 25.4871 22.9588 26.196 19.4416C26.3937 18.4737 26.4346 17.7171 26.3391 16.906C25.8825 12.9321 23.0946 9.82387 19.1821 8.9173C18.4186 8.7469 16.5169 8.69237 15.7739 8.82187ZM14.1994 13.0548C14.2335 13.0957 14.5129 13.7023 14.8197 14.418C15.2491 15.4268 15.3581 15.7404 15.3104 15.8495C15.2763 15.9244 15.031 16.238 14.7583 16.5515C14.4925 16.8583 14.2744 17.1377 14.2744 17.165C14.2744 17.2741 14.7583 18.0238 15.1128 18.4533C15.3036 18.6987 15.6853 19.0804 15.9443 19.3053C16.7146 19.9597 18.221 20.7844 18.4868 20.689C18.5482 20.6686 18.814 20.3755 19.0662 20.0346C19.7887 19.094 19.6456 19.1144 21.0702 19.7688C22.5834 20.4572 22.5902 20.4641 22.5902 20.7435C22.5834 21.6296 21.9836 22.5567 21.1588 22.9316C20.1091 23.4087 18.8617 23.2178 17.0349 22.3181C15.9852 21.7932 15.1264 21.1661 14.1721 20.2119C13.1701 19.2167 12.5362 18.3851 12.0931 17.4854C11.6501 16.5992 11.5274 16.1017 11.5615 15.311C11.5751 14.7861 11.616 14.6225 11.7932 14.2476C12.0113 13.7909 12.4749 13.2116 12.7339 13.0752C12.8089 13.0343 12.9656 12.9798 13.0747 12.9594C13.3337 12.9048 14.1176 12.973 14.1994 13.0548Z" fill="#43D854"/>
</svg>
