<svg width="32" height="32" viewBox="0 0 32 32" fill="none" xmlns="http://www.w3.org/2000/svg">
<path d="M17.9188 2.09421C17.6563 2.19421 17.3688 2.37546 17.1126 2.61296L16.9376 2.77546L16.7063 2.64421C16.3626 2.45671 16.1001 2.41921 15.7501 2.50046C15.4813 2.56296 15.2438 2.74421 13.8126 3.98171C12.6626 4.96921 12.1438 5.46296 12.0438 5.64421L11.9063 5.90671L11.8876 10.1567C11.8751 13.213 11.8876 14.5005 11.9376 14.7442C11.9876 14.9692 12.0813 15.1505 12.2376 15.3255C12.6688 15.8005 12.4938 15.7817 15.8438 15.8005C19.1813 15.8255 19.3313 15.813 19.7376 15.463C20.2126 15.063 20.1938 15.2755 20.1751 10.2442L20.1563 5.76921L19.9938 5.54421C19.9063 5.41921 19.6813 5.18171 19.4876 5.01296L19.1376 4.70671L19.2626 4.55671C19.6688 4.04421 19.8501 3.30046 19.6751 2.87546C19.3751 2.16296 18.6376 1.83171 17.9188 2.09421ZM16.8376 4.15046L17.5563 4.76921L17.2438 5.13796C17.0688 5.33796 16.9001 5.51921 16.8688 5.53796C16.8376 5.55671 16.7126 5.53796 16.5938 5.50046C15.6813 5.20046 14.6876 5.75046 14.5001 6.65671C14.2188 8.00046 15.5438 9.01296 16.7876 8.40671C17.4001 8.10671 17.6626 7.60671 17.6126 6.81921L17.5813 6.34421L17.9938 5.92546L18.4063 5.50046L18.7688 5.81921L19.1251 6.13796V10.3442C19.1251 14.088 19.1126 14.563 19.0251 14.6505C18.9376 14.738 18.5813 14.7505 16.0563 14.7505C13.2688 14.7505 13.1813 14.7442 13.0626 14.6255C12.9376 14.5005 12.9376 14.4192 12.9376 10.388C12.9376 6.77546 12.9501 6.26296 13.0376 6.13796C13.1626 5.95046 16.0063 3.49421 16.0688 3.51296C16.0938 3.52546 16.4376 3.81296 16.8376 4.15046ZM16.4376 6.67546C16.7813 7.10671 16.3563 7.68796 15.8501 7.47546C15.4313 7.30046 15.4126 6.74421 15.8188 6.54421C16.0626 6.43171 16.2813 6.47546 16.4376 6.67546Z" fill="url(#paint0_linear_2_179)"/>
<path d="M10.1688 11.9438C9.8875 12.0125 9.48125 12.2125 9.20625 12.4187C9.09375 12.5063 8.2625 13.4875 7.3625 14.6062C5.75625 16.5938 5.71875 16.6312 5.63125 16.4875C5.44375 16.2 4.975 15.7937 4.63125 15.6312C4.325 15.4875 4.1875 15.4688 3.5 15.45C2.76875 15.4312 2.70625 15.4375 2.5 15.575C2.38125 15.6562 2.21875 15.8187 2.14375 15.9312C2.0125 16.125 2 16.2188 2 16.8938C2 17.5375 2.01875 17.6687 2.125 17.8438C2.35 18.2063 2.51875 18.275 3.26875 18.3125L3.94375 18.3438L3.3875 18.8C2.95625 19.1438 2.78125 19.3313 2.6625 19.575L2.5 19.9V22.9625C2.5 24.9625 2.525 26.1187 2.56875 26.275C2.60625 26.4062 2.75625 26.65 2.90625 26.8062L3.18125 27.0938L3.2 28.0688C3.21875 29.025 3.21875 29.0437 3.40625 29.3438C3.54375 29.5687 3.6875 29.7 3.93125 29.825C4.2625 30 4.26875 30 5.4625 30C6.4875 30 6.69375 29.9812 6.90625 29.8813C7.4625 29.6312 7.74375 29.15 7.75 28.4812V28.0625H16H24.25V28.4812C24.2563 29.15 24.5375 29.6312 25.0938 29.8813C25.3063 29.9812 25.5125 30 26.5375 30C27.7313 30 27.7375 30 28.0688 29.825C28.3125 29.7 28.4563 29.5687 28.5938 29.3438C28.7813 29.0437 28.7813 29.025 28.8 28.0625L28.8188 27.0812L29.0375 26.875C29.4875 26.45 29.4688 26.6312 29.4875 23.1L29.5063 19.9187L29.3438 19.5875C29.2188 19.3313 29.0563 19.15 28.6188 18.8L28.0563 18.3438L28.7313 18.3125C29.4813 18.275 29.65 18.2063 29.875 17.8438C29.9813 17.6687 30 17.5375 30 16.8938C30 16.2188 29.9875 16.125 29.8563 15.9312C29.7813 15.8187 29.6188 15.6562 29.5 15.575C29.2938 15.4375 29.2313 15.4312 28.5 15.45C27.8125 15.4688 27.675 15.4875 27.3688 15.6312C27.0313 15.7937 26.5563 16.1937 26.375 16.4875C26.2813 16.625 26.2375 16.5687 24.7188 14.65C23.8625 13.5625 23.0313 12.5625 22.8813 12.4312C22.5625 12.1437 22.0438 11.9375 21.5438 11.8937C21.1063 11.85 20.9063 11.9375 20.8125 12.2188C20.6875 12.6062 20.95 12.9375 21.3813 12.9375C21.5125 12.9375 21.75 13.0125 21.9375 13.1062C22.2188 13.2625 22.4438 13.5125 23.8188 15.25L25.375 17.2188L21.8688 17.25L18.3625 17.2812L18.2063 17.4625C18.0813 17.6125 18.0563 17.6875 18.0875 17.8687C18.1563 18.3 17.9563 18.275 21.7 18.3125L25.0875 18.3438L24.5938 18.7437C22.8875 20.1187 21.2625 20.7562 18.5688 21.1062C17.3875 21.2562 14.8563 21.2562 13.7188 21.1C10.825 20.7063 9.25 20.0875 7.45625 18.6562L7.06875 18.3438L10.25 18.325L13.4313 18.3125L13.5563 18.15C13.7313 17.9312 13.7188 17.6687 13.5375 17.4563L13.3875 17.2812L10.0125 17.25L6.6375 17.2188L7.7 15.9062C10.0688 12.975 9.99375 13.05 10.6875 12.9438C11.1625 12.8687 11.3125 12.7312 11.3125 12.3813C11.3125 11.925 10.9 11.7687 10.1688 11.9438ZM4.14375 16.6C4.36875 16.7125 4.66875 16.975 4.75625 17.1375C4.8125 17.2437 4.75625 17.25 3.90625 17.25H3V16.9187C3 16.7312 3.01875 16.5625 3.04375 16.5437C3.125 16.4563 3.94375 16.5 4.14375 16.6ZM28.9875 16.8875L29.0063 17.25H28.0938C27.0875 17.25 27.075 17.2437 27.4813 16.8687C27.8 16.5687 27.9938 16.5 28.5 16.5188L28.9688 16.5312L28.9875 16.8875ZM6.325 19.1312C8.08125 20.575 9.375 21.2625 11.1813 21.7125C13.7188 22.35 16.675 22.475 19.3938 22.0625C22.1 21.65 23.6875 20.925 25.8188 19.125L26.5375 18.5125L27.3188 19.1312C27.7438 19.475 28.1688 19.8375 28.2688 19.9437L28.4375 20.125V21.2437V22.3625L27.9875 22.55C26.0438 23.3562 22.8688 23.9375 18.5563 24.2812C16.7 24.425 15.2063 24.4562 13.7188 24.3812C9.7125 24.1687 6.5125 23.575 4.175 22.6125L3.5625 22.3625V21.2125V20.0687L3.89375 19.7875C4.5 19.2688 5.46875 18.5 5.5125 18.5C5.5375 18.5 5.90625 18.7812 6.325 19.1312ZM4.4875 23.875C5.55 24.2438 6.54375 24.5187 7.6625 24.7438C8.1125 24.8312 8.48125 24.9313 8.4875 24.9688C8.49375 25 8.15 25.475 7.73125 26.0125L6.96875 27H6.275H5.5875L4.68125 26.5875C4.1875 26.3625 3.73125 26.125 3.675 26.05C3.575 25.9375 3.5625 25.775 3.5625 24.7438C3.5625 24.0938 3.56875 23.5625 3.58125 23.5625C3.5875 23.5625 3.99375 23.7062 4.4875 23.875ZM28.4375 24.7438C28.4375 25.775 28.425 25.9375 28.3313 26.05C28.2688 26.125 27.8125 26.3625 27.3188 26.5875L26.4125 27H25.75H25.0813L24.4125 25.9C24.0438 25.2937 23.7563 24.7875 23.7688 24.775C23.775 24.7625 24.0938 24.6937 24.475 24.625C25.5563 24.4187 26.9063 24.075 27.6563 23.8187C28.0375 23.6875 28.3625 23.575 28.3938 23.5687C28.4188 23.5687 28.4375 24.0938 28.4375 24.7438ZM23.15 25.9062C23.4625 26.4188 23.7438 26.8812 23.7688 26.9188C23.8125 26.9813 23.075 27 20.1625 27H16.5V26.25C16.5 25.375 16.3813 25.4625 17.5625 25.4062C18.625 25.3562 20.3438 25.2062 21.4375 25.0687C21.9375 25 22.3938 24.9562 22.4625 24.9625C22.5375 24.9688 22.7625 25.2687 23.15 25.9062ZM11.3438 25.2812C11.825 25.3312 12.9438 25.4062 13.8313 25.45L15.4375 25.525V26.2625V27H11.9063C8.9 27 8.375 26.9875 8.41875 26.9125C8.44375 26.8625 8.7625 26.4437 9.125 25.975L9.78125 25.125L10.125 25.1562C10.3125 25.175 10.8625 25.2312 11.3438 25.2812ZM6 28.0625H6.6875V28.3875C6.6875 28.925 6.65625 28.9375 5.48125 28.9375C4.21875 28.9375 4.25 28.9562 4.25 28.15V27.5687L4.78125 27.8187C5.3 28.0562 5.33125 28.0625 6 28.0625ZM27.65 28.8188C27.5563 28.925 27.4438 28.9375 26.5438 28.9375C25.35 28.9375 25.3125 28.9187 25.3125 28.3937V28.0625L26.0188 28.0562C26.6938 28.0562 26.7375 28.05 27.2188 27.8187L27.7188 27.5875L27.7375 28.1437C27.75 28.6 27.7375 28.725 27.65 28.8188Z" fill="url(#paint1_linear_2_179)"/>
<path d="M5.53125 19.5625C5.4625 19.5875 5.0875 19.9188 4.7 20.2938C4.09375 20.875 4 20.9937 4 21.1687C4 21.4375 4.225 21.6875 4.76875 22.025C5.60625 22.55 6.55 22.8125 7.56875 22.8125C8.0375 22.8125 8.14375 22.7937 8.25 22.6875C8.40625 22.5312 8.4625 22.3187 8.3875 22.125C8.31875 21.9437 6.11875 19.5938 5.9625 19.5375C5.83125 19.4875 5.6875 19.4937 5.53125 19.5625Z" fill="url(#paint2_linear_2_179)"/>
<path d="M25.3937 20.1999C23.5187 22.1437 23.4812 22.1874 23.5437 22.5124C23.6062 22.8499 23.7562 22.9062 24.5249 22.8999C25.6187 22.8812 26.5499 22.5812 27.4124 21.9624C27.8562 21.6499 27.9374 21.5374 27.9374 21.2374C27.9374 21.0624 27.8687 20.9687 27.4562 20.5749C26.2062 19.3937 26.1874 19.3874 25.3937 20.1999Z" fill="url(#paint3_linear_2_179)"/>
<path d="M14.8313 17.2813C14.6 17.3813 14.5 17.5438 14.5 17.8126C14.5 18.0938 14.6 18.2501 14.8563 18.3501C15.2563 18.5188 15.6875 18.2438 15.6875 17.8126C15.6875 17.6063 15.5125 17.3251 15.3625 17.2813C15.0625 17.1938 15.025 17.1938 14.8313 17.2813Z" fill="url(#paint4_linear_2_179)"/>
<path d="M16.7063 17.2564C16.4562 17.3314 16.3125 17.5252 16.3125 17.8002C16.3125 18.0939 16.4125 18.2439 16.6688 18.3502C17.0625 18.5189 17.5 18.2502 17.5 17.8439C17.5 17.5877 17.3313 17.3314 17.1188 17.2564C17.0063 17.2189 16.9187 17.1877 16.9125 17.1939C16.9062 17.1939 16.8188 17.2252 16.7063 17.2564Z" fill="url(#paint5_linear_2_179)"/>
<defs>
<linearGradient id="paint0_linear_2_179" x1="16.0327" y1="5.17655" x2="16.0327" y2="15.6006" gradientUnits="userSpaceOnUse">
<stop stop-color="#F53B00"/>
<stop offset="1" stop-color="#F59400"/>
</linearGradient>
<linearGradient id="paint1_linear_2_179" x1="15.9998" y1="16.0388" x2="15.9998" y2="29.7269" gradientUnits="userSpaceOnUse">
<stop stop-color="#F53B00"/>
<stop offset="1" stop-color="#F59400"/>
</linearGradient>
<linearGradient id="paint2_linear_2_179" x1="6.21018" y1="20.2648" x2="6.21018" y2="22.7627" gradientUnits="userSpaceOnUse">
<stop stop-color="#F53B00"/>
<stop offset="1" stop-color="#F59400"/>
</linearGradient>
<linearGradient id="paint3_linear_2_179" x1="25.7327" y1="20.3837" x2="25.7327" y2="22.8512" gradientUnits="userSpaceOnUse">
<stop stop-color="#F53B00"/>
<stop offset="1" stop-color="#F59400"/>
</linearGradient>
<linearGradient id="paint4_linear_2_179" x1="15.0937" y1="17.4879" x2="15.0937" y2="18.3825" gradientUnits="userSpaceOnUse">
<stop stop-color="#F53B00"/>
<stop offset="1" stop-color="#F59400"/>
</linearGradient>
<linearGradient id="paint5_linear_2_179" x1="16.9062" y1="17.4707" x2="16.9062" y2="18.3832" gradientUnits="userSpaceOnUse">
<stop stop-color="#F53B00"/>
<stop offset="1" stop-color="#F59400"/>
</linearGradient>
</defs>
</svg>
