<svg width="32" height="32" viewBox="0 0 32 32" fill="none" xmlns="http://www.w3.org/2000/svg">
<path d="M16.7938 3.9124L13.5563 5.9999L13.3688 5.86865C13.2625 5.79365 13.075 5.7249 12.95 5.70615C12.7375 5.68115 12.525 5.79365 10.3125 7.1249C8.98754 7.91865 7.85629 8.63115 7.80004 8.6999C7.66254 8.85615 7.65004 9.2999 7.78129 9.48115C7.89379 9.64365 8.30004 9.3749 4.34379 11.8061C2.76254 12.7811 1.40629 13.6499 1.33129 13.7311C1.15629 13.9186 1.13754 14.3436 1.30004 14.5374C1.35629 14.6124 3.66254 16.0811 6.41879 17.8061C10.85 20.5686 11.4688 20.9374 11.6875 20.9374C11.9 20.9374 12.2938 20.7124 14.8438 19.0936C16.4438 18.0811 17.7688 17.2499 17.7875 17.2499C17.8 17.2499 17.8063 17.5936 17.8 18.0124L17.7813 18.7749L14.75 20.6874C13.0813 21.7436 11.6938 22.5936 11.6563 22.5749C11.625 22.5561 9.45004 21.0686 6.83754 19.2686C2.26879 16.1311 2.06879 15.9999 1.79379 15.9999C1.55629 15.9999 1.48754 16.0311 1.35004 16.1936C1.11879 16.4624 1.12504 16.8249 1.36254 17.0561C1.55629 17.2436 11.2188 23.8999 11.4688 24.0124C11.5813 24.0624 11.6875 24.0624 11.8313 24.0186C11.9813 23.9749 16.2625 21.3124 17.65 20.4061L17.8125 20.2999V21.0686L17.8063 21.8436L15.425 23.3436C14.1188 24.1686 12.7438 25.0374 12.375 25.2686L11.7 25.6936L6.87504 22.3811C2.48754 19.3624 2.02504 19.0624 1.80004 19.0624C1.33129 19.0624 1.04379 19.5561 1.25004 20.0124C1.29379 20.0999 3.32504 21.5374 6.36254 23.6249C10.4375 26.4249 11.45 27.0936 11.6438 27.1124C11.8875 27.1374 11.65 27.2811 16.7688 24.0436L17.8125 23.3811V24.1436V24.9061L14.8 26.8124C13.1438 27.8624 11.7438 28.7186 11.6938 28.7124C11.6375 28.7124 9.45629 27.2436 6.85004 25.4499C4.24379 23.6499 2.03754 22.1686 1.96254 22.1499C1.75004 22.0936 1.51254 22.1686 1.33754 22.3436C1.13129 22.5499 1.12504 23.0061 1.33129 23.2061C1.40629 23.2811 3.70629 24.8874 6.45004 26.7686C10.9563 29.8624 11.45 30.1874 11.675 30.1874C11.9438 30.1874 11.85 30.2436 15.85 27.7061L17.9188 26.3936L18.0688 26.5061C18.3 26.6874 18.6125 26.6561 19.0063 26.4186C19.1938 26.3061 20.375 25.5436 21.6375 24.7249C23.8063 23.3249 23.9375 23.2311 24 23.0124C24.0313 22.8874 24.0688 22.7124 24.075 22.6311C24.0938 22.5061 24.6563 22.1311 27.3438 20.4249C29.1313 19.2999 30.6438 18.3124 30.7063 18.2436C30.7688 18.1624 30.8125 18.0061 30.8125 17.8436C30.8125 17.3999 30.3938 17.0811 30 17.2311C29.875 17.2811 25.8 19.8311 24.2063 20.8624L24.0625 20.9499V20.1811L24.0688 19.4061L25.8 18.3124C29.9688 15.6874 30.6813 15.2249 30.7438 15.0811C30.95 14.6249 30.675 14.1249 30.2063 14.1249C29.9563 14.1249 29.9063 14.1561 25.4563 16.9874L24.0625 17.8686V17.0999V16.3374L27.2688 14.3124C29.025 13.1936 30.5438 12.2061 30.6438 12.1186C30.875 11.8874 30.8813 11.5249 30.65 11.2561C30.5125 11.0936 30.4438 11.0624 30.2125 11.0624C29.9563 11.0624 29.7125 11.2061 27.025 12.9061C25.425 13.9186 24.1 14.7499 24.0875 14.7499C24.0688 14.7499 24.0688 14.4061 24.075 13.9936L24.0938 13.2311L27.3438 11.1811C29.1313 10.0499 30.6438 9.0624 30.7063 8.99365C30.8438 8.81865 30.8438 8.3874 30.7 8.2124C30.6438 8.1374 28.3375 6.66865 25.5813 4.94365C20.9375 2.0499 20.5438 1.8124 20.3 1.81865C20.0563 1.8249 19.7063 2.03115 16.7938 3.9124ZM24.5563 5.8499C26.8438 7.28115 28.7688 8.4874 28.8313 8.53115C28.9313 8.5999 28.6 8.8249 26.1563 10.3749L23.375 12.1374L23.1063 11.9811C22.5438 11.6436 22.4313 11.7686 24.3438 10.5624C25.2875 9.96865 26.0563 9.45615 26.05 9.43115C26.0375 9.3999 25.8375 9.25615 25.6 9.0999L25.1625 8.8249L25.6125 8.53115C25.8625 8.3749 26.0625 8.2249 26.0625 8.1999C26.0625 8.1749 24.9313 7.44365 23.55 6.5749L21.0375 4.99365L20.6625 5.18115C20.1813 5.4374 19.8813 5.4374 19.4125 5.18115L19.05 4.99365L17.3188 6.0874C16.3625 6.69365 15.55 7.1874 15.5188 7.1874C15.4875 7.1874 15.3125 7.09365 15.125 6.9749L14.7875 6.7624L15.2875 6.44365C15.5625 6.2749 16.7813 5.4874 18 4.69365C19.2188 3.90615 20.2563 3.25615 20.3063 3.25615C20.35 3.2499 22.2625 4.41865 24.5563 5.8499ZM19.6438 6.64365C19.925 6.69365 20.1063 6.69365 20.425 6.63115C20.6563 6.5874 20.8875 6.5499 20.9375 6.54365C20.9875 6.54365 21.6625 6.9374 22.4375 7.43115L23.8438 8.3249L23.8375 8.8249V9.33115L22.6188 10.0999C21.95 10.5249 21.3688 10.8624 21.325 10.8436C21.1438 10.7749 16.8125 8.03115 16.825 7.9874C16.8688 7.88115 19.1 6.5124 19.1875 6.5374C19.2375 6.55615 19.4438 6.60615 19.6438 6.64365ZM17.8125 10.2061L22.7188 13.2874V17.8749V22.4624L20.95 23.6061C19.975 24.2374 19.1688 24.7499 19.15 24.7499C19.1375 24.7499 19.125 22.7249 19.125 20.2561V15.7624L18.975 15.5811C18.8938 15.4874 16.7438 13.9999 14.2 12.2811C10.6438 9.88115 9.58754 9.1374 9.64379 9.08115C9.72504 9.00615 12.825 7.13115 12.875 7.13115C12.8938 7.13115 15.1125 8.5124 17.8125 10.2061ZM9.44379 10.6499L9.76254 10.8624L9.42504 11.0749C9.24379 11.1936 8.38129 11.7374 7.51879 12.2811C6.65004 12.8311 5.93754 13.2999 5.93754 13.3249C5.93754 13.3436 6.13129 13.4874 6.37504 13.6374C6.61254 13.7874 6.80629 13.9186 6.80629 13.9374C6.80629 13.9561 6.61254 14.0874 6.37504 14.2374C6.13129 14.3874 5.93754 14.5311 5.93754 14.5499C5.93754 14.5749 7.06879 15.3061 8.45004 16.1749L10.9563 17.7624L11.3313 17.5686C11.8188 17.3186 12.0938 17.3186 12.5625 17.5686C12.7813 17.6811 12.9625 17.7436 13.0125 17.7124C13.0563 17.6874 13.8438 17.1936 14.7625 16.6124C15.6813 16.0311 16.475 15.5436 16.5188 15.5249C16.5688 15.5061 16.7625 15.5999 16.9563 15.7374L17.3063 15.9811L14.55 17.7249C13.0375 18.6811 11.7563 19.4749 11.7125 19.4874C11.6313 19.5061 3.04379 14.1811 3.08754 14.1436C3.14379 14.0874 9.03754 10.4436 9.08129 10.4436C9.10629 10.4374 9.27504 10.5311 9.44379 10.6499ZM13.2063 13.1936C14.3813 13.9936 15.35 14.6499 15.3625 14.6561C15.375 14.6624 14.825 15.0249 14.1438 15.4561L12.9063 16.2374L12.475 16.1436C12.125 16.0624 11.9563 16.0561 11.6313 16.1124C11.4063 16.1436 11.175 16.1936 11.125 16.2124C11.0625 16.2374 10.4938 15.9124 9.59379 15.3436L8.16254 14.4374V13.9311V13.4311L9.53754 12.5624C10.2875 12.0811 10.9438 11.7061 10.9875 11.7186C11.0313 11.7374 12.0313 12.3999 13.2063 13.1936Z" fill="url(#paint0_linear_2_378)"/>
<path d="M19.6875 8.59375V9.25H20.3125H20.9375V8.59375V7.9375H20.3125H19.6875V8.59375Z" fill="url(#paint1_linear_2_378)"/>
<path d="M11.0625 14.1562V14.8125H11.6875H12.3125V14.1562V13.5H11.6875H11.0625V14.1562Z" fill="url(#paint2_linear_2_378)"/>
<defs>
<linearGradient id="paint0_linear_2_378" x1="15.9998" y1="8.33708" x2="15.9998" y2="29.7601" gradientUnits="userSpaceOnUse">
<stop stop-color="#F53B00"/>
<stop offset="1" stop-color="#F59400"/>
</linearGradient>
<linearGradient id="paint1_linear_2_378" x1="20.3125" y1="8.23908" x2="20.3125" y2="9.23023" gradientUnits="userSpaceOnUse">
<stop stop-color="#F53B00"/>
<stop offset="1" stop-color="#F59400"/>
</linearGradient>
<linearGradient id="paint2_linear_2_378" x1="11.6875" y1="13.8016" x2="11.6875" y2="14.7927" gradientUnits="userSpaceOnUse">
<stop stop-color="#F53B00"/>
<stop offset="1" stop-color="#F59400"/>
</linearGradient>
</defs>
</svg>
