<svg width="64" height="64" viewBox="0 0 64 64" fill="none" xmlns="http://www.w3.org/2000/svg">
<g clip-path="url(#clip0_2_323)">
<path opacity="0.937" fill-rule="evenodd" clip-rule="evenodd" d="M63.9375 52.5634C63.9375 55.355 63.9375 58.1468 63.9375 60.9384C63.6184 61.7359 63.035 62.2566 62.1875 62.5009C42.0209 62.5843 21.8541 62.5843 1.6875 62.5009C0.839997 62.2566 0.256665 61.7359 -0.0625 60.9384C-0.0625 58.605 -0.0625 56.2718 -0.0625 53.9384C0.97382 50.1116 3.47382 47.9866 7.4375 47.5634C7.41666 36.4383 7.4375 25.3133 7.5 14.1884C7.86269 12.7838 8.71685 11.8046 10.0625 11.2509C11.4283 10.7747 12.8033 10.3372 14.1875 9.93838C14.1337 7.7241 14.1962 5.51576 14.375 3.31338C15.3868 1.3461 16.9076 0.825271 18.9375 1.75088C19.5723 2.20606 20.0098 2.81023 20.25 3.56338C20.271 4.98188 20.3335 6.39854 20.4375 7.81338C25.5486 6.04718 30.6736 4.318 35.8125 2.62588C36.3166 2.49583 36.7749 2.57916 37.1875 2.87588C40.2949 5.8583 43.3574 8.87914 46.375 11.9384C46.7075 12.4776 46.9159 13.061 47 13.6884C47.0834 17.7718 47.0834 21.855 47 25.9384C46.5452 26.7158 45.9619 26.8408 45.25 26.3134C45.1232 22.0265 44.9982 17.7348 44.875 13.4384C44.7916 13.2718 44.7084 13.105 44.625 12.9384C42.2084 10.605 39.7916 8.27171 37.375 5.93838C37.3125 13.6466 37.2916 21.3549 37.3125 29.0634C42.9794 29.0425 48.646 29.0634 54.3125 29.1259C55.5251 29.3884 56.296 30.1175 56.625 31.3134C56.6875 36.7299 56.7084 42.1465 56.6875 47.5634C60.4196 47.3836 62.8364 49.0503 63.9375 52.5634ZM16.9375 3.31338C17.4984 3.27095 17.9359 3.47929 18.25 3.93838C18.3125 5.47948 18.3334 7.02115 18.3125 8.56338C17.6322 8.72064 16.9655 8.92898 16.3125 9.18838C16.1667 7.52328 16.1459 5.8566 16.25 4.18838C16.3673 3.80119 16.5965 3.50951 16.9375 3.31338ZM35.0625 4.93838C35.3101 6.55814 35.3935 8.2248 35.3125 9.93838C28.3356 12.1598 21.3981 14.4931 14.5 16.9384C14.0948 17.4535 14.1156 17.9535 14.5625 18.4384C14.8696 18.654 15.2029 18.7165 15.5625 18.6259C22.1456 16.4245 28.7289 14.237 35.3125 12.0634C35.3125 13.605 35.3125 15.1468 35.3125 16.6884C28.3356 18.9099 21.3981 21.2431 14.5 23.6884C14.0948 24.2035 14.1156 24.7035 14.5625 25.1884C14.8696 25.404 15.2029 25.4665 15.5625 25.3759C22.1456 23.1745 28.7289 20.987 35.3125 18.8134C35.3125 20.355 35.3125 21.8968 35.3125 23.4384C28.3356 25.6599 21.3981 27.9931 14.5 30.4384C14.0948 30.9535 14.1156 31.4535 14.5625 31.9384C14.8696 32.154 15.2029 32.2165 15.5625 32.1259C22.1456 29.9245 28.7289 27.737 35.3125 25.5634C35.3125 27.105 35.3125 28.6468 35.3125 30.1884C28.3356 32.4099 21.3981 34.7431 14.5 37.1884C14.0948 37.7035 14.1156 38.2035 14.5625 38.6884C14.8696 38.904 15.2029 38.9665 15.5625 38.8759C22.1456 36.6745 28.7289 34.487 35.3125 32.3134C35.3125 33.855 35.3125 35.3968 35.3125 36.9384C30.8636 38.3033 26.4678 39.8033 22.125 41.4384C21.7414 42.6386 22.1789 43.1594 23.4375 43.0009C27.3773 41.6251 31.3355 40.3126 35.3125 39.0634C35.3125 46.23 35.3125 53.3968 35.3125 60.5634C32.6459 60.5634 29.9791 60.5634 27.3125 60.5634C27.3334 57.1048 27.3125 53.6465 27.25 50.1884C26.888 49.2844 26.2213 48.826 25.25 48.8134C21.957 49.621 18.6863 50.5169 15.4375 51.5009C14.7339 51.9553 14.3381 52.601 14.25 53.4384C14.1875 55.813 14.1666 58.188 14.1875 60.5634C12.6041 60.5634 11.0208 60.5634 9.4375 60.5634C9.37569 45.098 9.43819 29.6396 9.625 14.1884C10.0643 13.4574 10.7102 13.0199 11.5625 12.8759C19.4326 10.2873 27.2659 7.64148 35.0625 4.93838ZM37.3125 31.0634C42.8544 31.0425 48.396 31.0634 53.9375 31.1259C54.2424 31.2226 54.4716 31.4101 54.625 31.6884C54.7291 37.1889 54.7084 42.6889 54.5625 48.1884C52.0239 49.5981 50.8571 51.7648 51.0625 54.6884C46.4791 54.6884 41.8959 54.6884 37.3125 54.6884C37.3125 46.8134 37.3125 38.9384 37.3125 31.0634ZM41.6875 35.1884C44.5209 35.1884 47.3541 35.1884 50.1875 35.1884C50.1875 35.73 50.1875 36.2718 50.1875 36.8134C47.3541 36.8134 44.5209 36.8134 41.6875 36.8134C41.6875 36.2718 41.6875 35.73 41.6875 35.1884ZM41.6875 42.4384C44.5209 42.4384 47.3541 42.4384 50.1875 42.4384C50.1875 42.9384 50.1875 43.4384 50.1875 43.9384C47.3541 43.9384 44.5209 43.9384 41.6875 43.9384C41.6875 43.4384 41.6875 42.9384 41.6875 42.4384ZM7.0625 49.5634C7.1875 49.5634 7.3125 49.5634 7.4375 49.5634C7.4375 51.2718 7.4375 52.98 7.4375 54.6884C5.60416 54.6884 3.77084 54.6884 1.9375 54.6884C2.52556 51.8503 4.23389 50.142 7.0625 49.5634ZM41.6875 49.5634C42.4791 49.5634 43.2709 49.5634 44.0625 49.5634C44.0625 50.105 44.0625 50.6468 44.0625 51.1884C43.2709 51.1884 42.4791 51.1884 41.6875 51.1884C41.6875 50.6468 41.6875 50.105 41.6875 49.5634ZM56.8125 49.5634C60.2921 49.5013 62.0421 51.2096 62.0625 54.6884C59.0625 54.6884 56.0625 54.6884 53.0625 54.6884C52.8839 51.9168 54.1339 50.2084 56.8125 49.5634ZM25.0625 50.8134C25.3114 54.019 25.3948 57.269 25.3125 60.5634C24.1459 60.5634 22.9791 60.5634 21.8125 60.5634C21.7916 57.6464 21.8125 54.7298 21.875 51.8134C22.9459 51.4683 24.0084 51.1349 25.0625 50.8134ZM19.6875 52.3134C19.8121 55.0418 19.8539 57.7918 19.8125 60.5634C18.6041 60.5634 17.3959 60.5634 16.1875 60.5634C16.1666 58.2296 16.1875 55.8964 16.25 53.5634C16.3125 53.4175 16.4166 53.3134 16.5625 53.2509C17.6246 52.9548 18.6664 52.6423 19.6875 52.3134ZM1.8125 56.6884C3.6875 56.6884 5.5625 56.6884 7.4375 56.6884C7.4375 57.98 7.4375 59.2718 7.4375 60.5634C5.64535 60.5843 3.85369 60.5634 2.0625 60.5009C1.97619 60.3675 1.91369 60.2216 1.875 60.0634C1.81253 58.9391 1.7917 57.8141 1.8125 56.6884ZM37.3125 56.6884C41.8959 56.6884 46.4791 56.6884 51.0625 56.6884C51.0625 57.98 51.0625 59.2718 51.0625 60.5634C46.4791 60.5634 41.8959 60.5634 37.3125 60.5634C37.3125 59.2718 37.3125 57.98 37.3125 56.6884ZM53.0625 56.6884C56.0625 56.6884 59.0625 56.6884 62.0625 56.6884C62.0832 57.8141 62.0625 58.9391 62 60.0634C61.9614 60.2216 61.8989 60.3675 61.8125 60.5009C58.8961 60.5634 55.9795 60.5843 53.0625 60.5634C53.0625 59.2718 53.0625 57.98 53.0625 56.6884Z" fill="url(#paint0_linear_2_323)"/>
<path opacity="0.955" fill-rule="evenodd" clip-rule="evenodd" d="M40.6875 33.3125C44.1877 33.2916 47.6877 33.3125 51.1875 33.375C51.6785 33.5741 51.991 33.9284 52.125 34.4375C52.2084 35.5209 52.2084 36.6041 52.125 37.6875C51.9253 38.2624 51.5294 38.6165 50.9375 38.75C47.4714 38.8718 44.0131 38.8301 40.5625 38.625C40.2024 38.4686 39.9733 38.1979 39.875 37.8125C39.625 36.6041 39.625 35.3959 39.875 34.1875C40.0868 33.8303 40.3576 33.5386 40.6875 33.3125ZM41.6875 35.1875C41.6875 35.7291 41.6875 36.2709 41.6875 36.8125C44.5209 36.8125 47.3541 36.8125 50.1875 36.8125C50.1875 36.2709 50.1875 35.7291 50.1875 35.1875C47.3541 35.1875 44.5209 35.1875 41.6875 35.1875Z" fill="url(#paint1_linear_2_323)"/>
<path opacity="0.936" fill-rule="evenodd" clip-rule="evenodd" d="M40.6876 40.4375C44.1878 40.4166 47.6878 40.4375 51.1876 40.5C51.6786 40.6991 51.9911 41.0534 52.1251 41.5625C52.2084 42.6459 52.2084 43.7291 52.1251 44.8125C51.9253 45.3874 51.5294 45.7415 50.9376 45.875C47.4714 45.9968 44.0132 45.9551 40.5626 45.75C40.2501 45.6041 40.0209 45.375 39.8751 45.0625C39.6286 43.8109 39.6286 42.5609 39.8751 41.3125C40.0868 40.9553 40.3577 40.6636 40.6876 40.4375ZM41.6876 42.4375C41.6876 42.9375 41.6876 43.4375 41.6876 43.9375C44.5209 43.9375 47.3542 43.9375 50.1876 43.9375C50.1876 43.4375 50.1876 42.9375 50.1876 42.4375C47.3542 42.4375 44.5209 42.4375 41.6876 42.4375Z" fill="url(#paint2_linear_2_323)"/>
<path opacity="0.911" fill-rule="evenodd" clip-rule="evenodd" d="M18.1875 42.5632C19.566 42.4258 19.9826 42.9883 19.4375 44.2507C18.068 44.8044 16.6721 45.2836 15.25 45.6882C14.2299 45.3773 14.0006 44.7731 14.5625 43.8757C15.7879 43.4467 16.9962 43.0092 18.1875 42.5632Z" fill="url(#paint3_linear_2_323)"/>
<path opacity="0.944" fill-rule="evenodd" clip-rule="evenodd" d="M40.9375 47.5625C42.2299 47.5417 43.5215 47.5625 44.8125 47.625C45.4584 47.7708 45.8542 48.1666 46 48.8125C46.0834 49.8541 46.0834 50.8958 46 51.9375C45.8674 52.3202 45.6383 52.6327 45.3125 52.875C43.7829 53.0782 42.2412 53.1198 40.6875 53C40.1888 52.7512 39.8763 52.3553 39.75 51.8125C39.6667 50.8541 39.6667 49.8958 39.75 48.9375C39.9534 48.2977 40.3492 47.8393 40.9375 47.5625ZM41.6875 49.5625C41.6875 50.1041 41.6875 50.6458 41.6875 51.1875C42.4792 51.1875 43.2709 51.1875 44.0625 51.1875C44.0625 50.6458 44.0625 50.1041 44.0625 49.5625C43.2709 49.5625 42.4792 49.5625 41.6875 49.5625Z" fill="url(#paint4_linear_2_323)"/>
</g>
<defs>
<linearGradient id="paint0_linear_2_323" x1="31.9371" y1="48.488" x2="31.9371" y2="2.22952" gradientUnits="userSpaceOnUse">
<stop stop-color="#F53B00"/>
<stop offset="1" stop-color="#F59400"/>
</linearGradient>
<linearGradient id="paint1_linear_2_323" x1="45.9374" y1="37.5512" x2="45.9374" y2="33.3878" gradientUnits="userSpaceOnUse">
<stop stop-color="#F53B00"/>
<stop offset="1" stop-color="#F59400"/>
</linearGradient>
<linearGradient id="paint2_linear_2_323" x1="45.9388" y1="44.6762" x2="45.9388" y2="40.5128" gradientUnits="userSpaceOnUse">
<stop stop-color="#F53B00"/>
<stop offset="1" stop-color="#F59400"/>
</linearGradient>
<linearGradient id="paint3_linear_2_323" x1="16.9662" y1="44.9655" x2="16.9662" y2="42.5904" gradientUnits="userSpaceOnUse">
<stop stop-color="#F53B00"/>
<stop offset="1" stop-color="#F59400"/>
</linearGradient>
<linearGradient id="paint4_linear_2_323" x1="42.875" y1="51.8002" x2="42.875" y2="47.6377" gradientUnits="userSpaceOnUse">
<stop stop-color="#F53B00"/>
<stop offset="1" stop-color="#F59400"/>
</linearGradient>
<clipPath id="clip0_2_323">
<rect width="64" height="64" fill="white"/>
</clipPath>
</defs>
</svg>
