<svg width="64" height="64" viewBox="0 0 64 64" fill="none" xmlns="http://www.w3.org/2000/svg">
<g clip-path="url(#clip0_2_338)">
<path opacity="0.938" fill-rule="evenodd" clip-rule="evenodd" d="M63.9375 29.3125C63.9375 35.1041 63.9375 40.8959 63.9375 46.6875C63.5786 48.3652 62.8911 49.9069 61.875 51.3125C61.8699 54.2354 61.7866 57.1521 61.625 60.0625C60.9557 61.7325 59.7265 62.6283 57.9375 62.75C56.2291 62.8334 54.5209 62.8334 52.8125 62.75C50.9344 62.4958 49.7051 61.475 49.125 59.6875C48.9543 57.9426 48.8918 56.1926 48.9375 54.4375C47.2704 54.4584 45.6036 54.4375 43.9375 54.375C42.8926 54.1653 42.0176 53.6653 41.3125 52.875C41.1141 52.7673 40.9058 52.6839 40.6875 52.625C34.5209 52.5416 28.3541 52.5416 22.1875 52.625C21.5796 52.8988 21.038 53.2738 20.5625 53.75C20.2022 53.951 19.8272 54.1176 19.4375 54.25C17.9452 54.4269 16.4452 54.4894 14.9375 54.4375C14.9832 56.1926 14.9207 57.9426 14.75 59.6875C14.1699 61.475 12.9406 62.4958 11.0625 62.75C9.3125 62.8334 7.5625 62.8334 5.8125 62.75C4.08997 62.5698 2.90247 61.674 2.25 60.0625C2.08842 57.1521 2.00509 54.2354 2 51.3125C0.983815 49.9069 0.296315 48.3652 -0.0625 46.6875C-0.0625 40.8959 -0.0625 35.1041 -0.0625 29.3125C0.183575 28.4294 0.496075 27.5544 0.875 26.6875C3.875 20.5209 6.875 14.3541 9.875 8.1875C11.1597 6.26328 12.9721 5.26328 15.3125 5.1875C15.2564 3.92436 15.3189 2.67436 15.5 1.4375C16.0274 0.952805 16.5481 0.952805 17.0625 1.4375C17.2184 1.66538 17.3018 1.91538 17.3125 2.1875C27.0625 2.1875 36.8125 2.1875 46.5625 2.1875C46.5856 1.53924 46.919 1.16424 47.5625 1.0625C47.8514 1.15169 48.1222 1.27669 48.375 1.4375C48.5561 2.67436 48.6186 3.92436 48.5625 5.1875C50.9029 5.26328 52.7154 6.26328 54 8.1875C57 14.3541 60 20.5209 63 26.6875C63.3789 27.5544 63.6914 28.4294 63.9375 29.3125ZM17.3125 4.1875C27.0625 4.1875 36.8125 4.1875 46.5625 4.1875C46.5625 4.52084 46.5625 4.85416 46.5625 5.1875C36.8125 5.1875 27.0625 5.1875 17.3125 5.1875C17.3125 4.85416 17.3125 4.52084 17.3125 4.1875ZM14.9375 7.1875C26.2709 7.16666 37.6042 7.1875 48.9375 7.25C50.221 7.41233 51.2626 7.99565 52.0625 9C40.7709 9.04166 29.4791 9.08334 18.1875 9.125C17.5581 9.50166 17.4123 10.0225 17.75 10.6875C17.8629 10.8377 18.0086 10.9419 18.1875 11C29.8541 11.0417 41.5209 11.0833 53.1875 11.125C55.8361 16.6515 58.5028 22.1724 61.1875 27.6875C41.6875 27.8541 22.1875 27.8541 2.6875 27.6875C5.35416 22.1875 8.02084 16.6875 10.6875 11.1875C11.9772 11.0835 13.2689 11.021 14.5625 11C15.2824 10.5135 15.3658 9.93018 14.8125 9.25C13.8254 9.09125 12.8254 9.00791 11.8125 9C12.6334 8.00653 13.675 7.40236 14.9375 7.1875ZM31.3125 16.4375C31.3125 16.4375 31.2892 17.3306 31.3125 19.5C31.255 21.6199 31.5 22.5 31.3125 22.0625C31.3125 20.1875 31.3125 18.3125 31.3125 16.4375ZM21.3125 17.9375C21.042 17.2065 21.6254 18.6233 21.3125 17.9375C20.7336 18.0828 20.5 20 20.4375 20.125C20.7472 19.4015 21.039 18.6724 21.3125 17.9375ZM1.9375 29.8125C2.85416 29.8125 3.77084 29.8125 4.6875 29.8125C4.68087 30.5245 4.72254 31.2328 4.8125 31.9375C3.85416 31.9375 2.89584 31.9375 1.9375 31.9375C1.9375 31.2291 1.9375 30.5209 1.9375 29.8125ZM6.6875 29.8125C23.5209 29.8125 40.3541 29.8125 57.1875 29.8125C56.9895 33.564 56.7604 37.314 56.5 41.0625C56.2821 41.7388 55.8446 42.218 55.1875 42.5C51.9375 42.5416 48.6875 42.5834 45.4375 42.625C44.8623 42.8798 44.633 43.3173 44.75 43.9375C44.8541 44.2084 45.0416 44.3959 45.3125 44.5C48.7291 44.5834 52.1459 44.5834 55.5625 44.5C56.8631 44.1205 57.7798 43.308 58.3125 42.0625C59.518 41.9378 60.7262 41.896 61.9375 41.9375C61.9906 43.6118 61.9281 45.2784 61.75 46.9375C60.9871 49.9508 59.0913 51.7633 56.0625 52.375C52.1041 52.4584 48.1459 52.4584 44.1875 52.375C43.5412 52.1556 42.9995 51.7806 42.5625 51.25C42.0594 50.9358 41.5176 50.7274 40.9375 50.625C34.6041 50.5416 28.2709 50.5416 21.9375 50.625C21.0415 50.7813 20.2915 51.198 19.6875 51.875C19.389 52.1076 19.0557 52.2743 18.6875 52.375C14.8083 52.4943 10.9332 52.4525 7.0625 52.25C4.2248 51.3281 2.5373 49.3906 2 46.4375C1.93751 44.9381 1.91669 43.4381 1.9375 41.9375C3.1487 41.896 4.35704 41.9378 5.5625 42.0625C6.09521 43.308 7.01189 44.1205 8.3125 44.5C19.4791 44.5834 30.6459 44.5834 41.8125 44.5C42.4308 43.9625 42.4724 43.3791 41.9375 42.75C41.8125 42.7084 41.6875 42.6666 41.5625 42.625C30.6041 42.5834 19.6459 42.5416 8.6875 42.5C8.03031 42.218 7.59281 41.7388 7.375 41.0625C7.11468 37.314 6.8855 33.564 6.6875 29.8125ZM59.1875 29.8125C60.1041 29.8125 61.0209 29.8125 61.9375 29.8125C61.9375 30.5209 61.9375 31.2291 61.9375 31.9375C60.9791 31.9375 60.0209 31.9375 59.0625 31.9375C59.1525 31.2328 59.1941 30.5245 59.1875 29.8125ZM1.9375 33.8125C2.9375 33.8125 3.9375 33.8125 4.9375 33.8125C5.01591 35.8589 5.14091 37.9005 5.3125 39.9375C4.1875 39.9375 3.0625 39.9375 1.9375 39.9375C1.9375 37.8959 1.9375 35.8541 1.9375 33.8125ZM58.9375 33.8125C59.9375 33.8125 60.9375 33.8125 61.9375 33.8125C61.9375 35.8541 61.9375 37.8959 61.9375 39.9375C60.8125 39.9375 59.6875 39.9375 58.5625 39.9375C58.7341 37.9005 58.8591 35.8589 58.9375 33.8125ZM27.3125 34.6875C30.3959 34.6875 33.4791 34.6875 36.5625 34.6875C35.5 34.5 34 33.0834 34 34C30.9166 34 30.0834 34.5 27 34.5C27 33.5834 27.3125 35.6041 27.3125 34.6875ZM4.0625 53.1875C5.18972 53.8201 6.39806 54.216 7.6875 54.375C9.437 54.4375 11.187 54.4584 12.9375 54.4375C12.9584 55.8964 12.9375 57.3548 12.875 58.8125C12.6459 59.875 12 60.5209 10.9375 60.75C9.27084 60.8334 7.60416 60.8334 5.9375 60.75C5.07579 60.5968 4.47162 60.1175 4.125 59.3125C4.06251 57.2713 4.04168 55.2296 4.0625 53.1875ZM59.6875 53.1875C59.8326 55.166 59.8535 57.166 59.75 59.1875C59.456 60.0646 58.8519 60.5855 57.9375 60.75C56.2709 60.8334 54.6041 60.8334 52.9375 60.75C51.875 60.5209 51.2291 59.875 51 58.8125C50.9375 57.3548 50.9166 55.8964 50.9375 54.4375C52.688 54.4584 54.438 54.4375 56.1875 54.375C57.4546 54.2374 58.6213 53.8416 59.6875 53.1875Z" fill="url(#paint0_linear_2_338)"/>
<path opacity="0.931" fill-rule="evenodd" clip-rule="evenodd" d="M20.9376 14.3121C21.4396 14.2371 21.8771 14.3621 22.2501 14.6871C23.3409 17.3759 24.3825 20.0842 25.3751 22.8121C25.521 23.833 25.0835 24.2705 24.0626 24.1246C23.8837 24.0665 23.738 23.9622 23.6251 23.8121C23.3652 23.293 23.1777 22.7514 23.0626 22.1871C21.9369 22.1664 20.8119 22.1871 19.6876 22.2496C19.5007 22.7267 19.3132 23.2059 19.1251 23.6871C18.3924 24.3989 17.7674 24.3155 17.2501 23.4371C17.2261 23.0062 17.3095 22.5896 17.5001 22.1871C18.4099 19.9092 19.2849 17.6176 20.1251 15.3121C20.2882 14.8795 20.559 14.5461 20.9376 14.3121ZM21.3126 17.9371C21.0391 18.672 20.7474 19.4011 20.4376 20.1246C21.0254 20.2281 21.6087 20.2074 22.1876 20.0621C21.9171 19.3311 21.6255 18.6229 21.3126 17.9371Z" fill="url(#paint1_linear_2_338)"/>
<path opacity="0.92" fill-rule="evenodd" clip-rule="evenodd" d="M42.4376 14.3127C43.7226 14.1964 44.8892 14.5089 45.9376 15.2502C46.6042 15.8336 46.6042 16.4169 45.9376 17.0002C45.5626 17.0836 45.1876 17.0836 44.8126 17.0002C44.0154 16.2911 43.1404 16.1661 42.1876 16.6252C41.9087 16.934 41.9087 17.2256 42.1876 17.5002C43.3481 17.9284 44.4731 18.4284 45.5626 19.0002C47.0817 20.6181 46.9983 22.1597 45.3126 23.6252C43.5109 24.4727 41.8027 24.3061 40.1876 23.1252C39.6293 22.7379 39.4418 22.2171 39.6251 21.5627C39.6876 21.3336 39.8334 21.1877 40.0626 21.1252C40.3959 21.0419 40.7292 21.0419 41.0626 21.1252C41.9434 22.106 42.9851 22.356 44.1876 21.8752C44.7588 21.4916 44.8006 21.075 44.3126 20.6252C43.1979 20.101 42.0729 19.601 40.9376 19.1252C39.8483 18.0114 39.7024 16.7821 40.5001 15.4377C41.0343 14.8484 41.6802 14.4734 42.4376 14.3127Z" fill="url(#paint2_linear_2_338)"/>
<path opacity="0.932" fill-rule="evenodd" clip-rule="evenodd" d="M29.9374 14.4373C34.8568 13.7941 37.0026 15.9191 36.3749 20.8123C35.6334 23.2048 34.0084 24.2881 31.4999 24.0623C30.9791 24.0414 30.4583 24.0206 29.9374 23.9998C29.7586 23.9416 29.6128 23.8374 29.4999 23.6873C29.2956 20.8201 29.2538 17.9451 29.3749 15.0623C29.5031 14.7889 29.6906 14.5805 29.9374 14.4373ZM31.3124 16.4373C31.3124 18.3123 31.3124 20.1873 31.3124 22.0623C33.4216 22.3071 34.5049 21.3696 34.5624 19.2498C34.5392 17.0804 33.4558 16.1429 31.3124 16.4373Z" fill="url(#paint3_linear_2_338)"/>
<path opacity="0.951" fill-rule="evenodd" clip-rule="evenodd" d="M22.0625 32.6875C28.646 32.6666 35.2292 32.6875 41.8125 32.75C42.5323 33.2365 42.6157 33.8199 42.0625 34.5C40.9092 34.6806 39.7425 34.7431 38.5625 34.6875C38.5832 35.8965 38.5625 37.1049 38.5 38.3125C38.3437 38.6464 38.1146 38.9171 37.8125 39.125C35.8652 39.269 33.907 39.3315 31.9375 39.3125C30.0625 39.2916 28.1875 39.2709 26.3125 39.25C25.8476 39.0921 25.5351 38.7796 25.375 38.3125C25.3125 37.1049 25.2917 35.8965 25.3125 34.6875C24.1325 34.7431 22.9657 34.6806 21.8125 34.5C21.266 33.801 21.3492 33.1969 22.0625 32.6875ZM27.3125 34.6875C27.3125 35.6041 27.3125 36.5209 27.3125 37.4375C30.3958 37.4375 33.4791 37.4375 36.5625 37.4375C36.5625 36.5209 36.5625 35.6041 36.5625 34.6875C33.4791 34.6875 30.3958 34.6875 27.3125 34.6875Z" fill="url(#paint4_linear_2_338)"/>
</g>
<defs>
<linearGradient id="paint0_linear_2_338" x1="31.9371" y1="48.6238" x2="31.9371" y2="1.99281" gradientUnits="userSpaceOnUse">
<stop stop-color="#F53B00"/>
<stop offset="1" stop-color="#F59400"/>
</linearGradient>
<linearGradient id="paint1_linear_2_338" x1="21.3242" y1="21.8961" x2="21.3242" y2="14.4398" gradientUnits="userSpaceOnUse">
<stop stop-color="#F53B00"/>
<stop offset="1" stop-color="#F59400"/>
</linearGradient>
<linearGradient id="paint2_linear_2_338" x1="43.0998" y1="21.8891" x2="43.0998" y2="14.4377" gradientUnits="userSpaceOnUse">
<stop stop-color="#F53B00"/>
<stop offset="1" stop-color="#F59400"/>
</linearGradient>
<linearGradient id="paint3_linear_2_338" x1="32.8944" y1="21.8474" x2="32.8944" y2="14.4723" gradientUnits="userSpaceOnUse">
<stop stop-color="#F53B00"/>
<stop offset="1" stop-color="#F59400"/>
</linearGradient>
<linearGradient id="paint4_linear_2_338" x1="31.9398" y1="37.791" x2="31.9398" y2="32.7797" gradientUnits="userSpaceOnUse">
<stop stop-color="#F53B00"/>
<stop offset="1" stop-color="#F59400"/>
</linearGradient>
<clipPath id="clip0_2_338">
<rect width="64" height="64" fill="white"/>
</clipPath>
</defs>
</svg>
