<svg width="64" height="64" viewBox="0 0 64 64" fill="none" xmlns="http://www.w3.org/2000/svg">
<g clip-path="url(#clip0_2_291)">
<path opacity="0.928" fill-rule="evenodd" clip-rule="evenodd" d="M63.9375 29.5625C63.9375 30.0625 63.9375 30.5625 63.9375 31.0625C63.718 31.5116 63.3846 31.8657 62.9375 32.125C61.114 32.8579 59.2806 33.5662 57.4375 34.25C56.6599 34.4441 55.9931 34.2566 55.4375 33.6875C54.2229 34.4189 53.0563 35.2106 51.9375 36.0625C52.6157 38.5185 51.7824 40.206 49.4375 41.125C48.8159 41.3195 48.1909 41.3612 47.5625 41.25C47.0344 43.6555 45.5552 44.7596 43.125 44.5625C42.6128 47.4289 40.9253 48.5956 38.0625 48.0625C37.3894 50.5665 35.7644 51.629 33.1875 51.25C32.2339 50.8568 31.3589 50.3359 30.5625 49.6875C29.1496 51.8045 27.3164 52.2836 25.0625 51.125C24.2264 50.4735 23.768 49.6194 23.6875 48.5625C21.4669 48.5798 20.2169 47.4964 19.9375 45.3125C17.7696 45.3517 16.5196 44.3101 16.1875 42.1875C13.863 42.1544 12.5714 40.9878 12.3125 38.6875C12.3336 38.0403 12.5002 37.4361 12.8125 36.875C11.3131 35.8334 9.77145 34.8542 8.1875 33.9375C7.37145 34.41 6.53813 34.4309 5.6875 34C4.02084 33.3334 2.35416 32.6666 0.6875 32C0.359903 31.7358 0.109903 31.4233 -0.0625 31.0625C-0.0625 30.5625 -0.0625 30.0625 -0.0625 29.5625C2.1458 24.2267 4.29164 18.8517 6.375 13.4375C6.7265 12.6151 7.3515 12.1567 8.25 12.0625C10.39 12.776 12.4942 13.5885 14.5625 14.5C15.1785 15.045 15.4701 15.7325 15.4375 16.5625C16.231 16.98 17.0643 17.2925 17.9375 17.5C20.5739 17.5056 23.1989 17.6722 25.8125 18C26.3245 18.1071 26.8245 18.253 27.3125 18.4375C27.9975 17.8985 28.6641 17.336 29.3125 16.75C30.3589 16.1245 31.4839 15.9162 32.6875 16.125C34.0397 16.2948 35.3731 16.5448 36.6875 16.875C36.9286 17.282 36.9911 17.7195 36.875 18.1875C36.7233 18.3811 36.5358 18.5269 36.3125 18.625C34.8329 18.4851 33.3536 18.2976 31.875 18.0625C31.3119 18.0557 30.791 18.2016 30.3125 18.5C27.303 21.4906 24.0947 24.2199 20.6875 26.6875C21.1861 27.4381 21.8944 27.8756 22.8125 28C24.3622 27.9762 25.779 27.5179 27.0625 26.625C27.8959 25.9584 28.7291 25.2916 29.5625 24.625C30.4422 24.3185 31.2755 24.4019 32.0625 24.875C35.0493 27.9401 38.6743 29.1901 42.9375 28.625C45.5033 30.545 48.0866 32.4408 50.6875 34.3125C51.9961 33.4829 53.2878 32.6287 54.5625 31.75C52.8314 27.2854 51.0397 22.8479 49.1875 18.4375C47.9342 18.9872 46.6426 19.4247 45.3125 19.75C43.4954 19.8709 41.7038 19.7042 39.9375 19.25C39.1589 18.7286 39.1172 18.1454 39.8125 17.5C39.9841 17.3906 40.1716 17.3281 40.375 17.3125C41.9189 17.682 43.4814 17.8278 45.0625 17.75C46.213 17.4247 47.338 17.0289 48.4375 16.5625C48.4049 15.7325 48.6965 15.045 49.3125 14.5C51.3809 13.5885 53.485 12.776 55.625 12.0625C56.5235 12.1567 57.1485 12.6151 57.5 13.4375C58.2916 15.4375 59.0834 17.4375 59.875 19.4375C60.1459 20.6666 59.6666 21.1459 58.4375 20.875C58.3334 20.7709 58.2291 20.6666 58.125 20.5625C57.2499 18.4575 56.4374 16.3325 55.6875 14.1875C53.943 14.7552 52.2346 15.4219 50.5625 16.1875C52.6973 21.5718 54.8431 26.9468 57 32.3125C58.5088 31.6844 60.0296 31.0802 61.5625 30.5C61.7388 30.454 61.8638 30.3499 61.9375 30.1875C61.1107 28.1591 60.3191 26.1175 59.5625 24.0625C59.6836 23.2521 60.1419 22.9396 60.9375 23.125C61.1608 23.2231 61.3483 23.3689 61.5 23.5625C62.2547 25.6 63.0672 27.6 63.9375 29.5625ZM8.1875 14.1875C9.935 14.7561 11.6433 15.4227 13.3125 16.1875C11.1778 21.5718 9.03193 26.9468 6.875 32.3125C5.3662 31.6844 3.84538 31.0802 2.3125 30.5C2.13625 30.454 2.01125 30.3499 1.9375 30.1875C4.0926 24.8781 6.17594 19.5448 8.1875 14.1875ZM14.5625 18.4375C15.599 18.9288 16.6823 19.283 17.8125 19.5C19.8559 19.5444 21.8975 19.6276 23.9375 19.75C24.5086 19.7832 25.0504 19.9082 25.5625 20.125C23.6339 21.8595 21.5921 23.4427 19.4375 24.875C18.2706 26.54 18.5206 27.9566 20.1875 29.125C21.7615 30.0679 23.4281 30.2763 25.1875 29.75C27.2269 28.9991 29.0394 27.895 30.625 26.4375C32.8581 28.6688 35.5456 30.0229 38.6875 30.5C39.7599 30.602 40.8224 30.5811 41.875 30.4375C44.6087 32.3463 47.2754 34.3463 49.875 36.4375C50.5257 37.9654 50.0466 38.9237 48.4375 39.3125C47.8901 39.1846 47.3901 38.9555 46.9375 38.625C45.6684 37.5947 44.3768 36.5947 43.0625 35.625C41.73 35.3943 41.2925 35.915 41.75 37.1875C42.9166 38.1041 44.0834 39.0209 45.25 39.9375C45.7981 41.2379 45.4024 42.1336 44.0625 42.625C43.6802 42.6822 43.3052 42.6405 42.9375 42.5C41.6519 41.5895 40.4019 40.6313 39.1875 39.625C37.9569 39.1235 37.3944 39.5193 37.5 40.8125C38.5412 41.7074 39.6037 42.5824 40.6875 43.4375C41.3529 44.9403 40.8736 45.8986 39.25 46.3125C38.6124 46.1916 38.0499 45.9207 37.5625 45.5C36.7291 44.8334 35.8959 44.1666 35.0625 43.5C33.79 43.0425 33.2692 43.48 33.5 44.8125C34.2269 45.4673 34.9769 46.0923 35.75 46.6875C36.2324 47.823 35.9199 48.6772 34.8125 49.25C34.3959 49.3334 33.9791 49.3334 33.5625 49.25C32.9717 48.9137 32.43 48.518 31.9375 48.0625C33.0884 46.6696 33.2342 45.1696 32.375 43.5625C31.5625 42.5416 30.5 42 29.1875 41.9375C28.711 39.8865 27.4193 38.8865 25.3125 38.9375C25.0368 36.7459 23.7868 35.6625 21.5625 35.6875C21.2507 33.73 20.1049 32.6467 18.125 32.4375C17.4369 32.4834 16.7911 32.6709 16.1875 33C15.45 33.7375 14.7209 34.4666 14 35.1875C12.3774 34.1681 10.7733 33.1265 9.1875 32.0625C11.0045 27.5278 12.7961 22.9861 14.5625 18.4375ZM17.9375 34.4375C19.1448 34.581 19.6655 35.2476 19.5 36.4375C18.6515 37.5779 17.7558 38.682 16.8125 39.75C15.8962 40.3892 15.1254 40.2435 14.5 39.3125C14.3438 38.9904 14.302 38.6571 14.375 38.3125C15.2199 37.0214 16.199 35.8339 17.3125 34.75C17.5394 34.6554 17.7476 34.5513 17.9375 34.4375ZM21.5625 37.6875C22.943 37.7111 23.5055 38.3778 23.25 39.6875C22.4015 40.8279 21.5058 41.932 20.5625 43C19.2726 43.6469 18.4394 43.2719 18.0625 41.875C18.125 41.6875 18.1875 41.5 18.25 41.3125C18.875 40.5209 19.5 39.7291 20.125 38.9375C20.5572 38.441 21.0365 38.0244 21.5625 37.6875ZM25.1875 40.9375C26.5395 40.7695 27.1854 41.3529 27.125 42.6875C26.2419 44.0292 25.221 45.2584 24.0625 46.375C22.5519 46.7129 21.8644 46.1087 22 44.5625C22.9635 43.2463 24.026 42.038 25.1875 40.9375ZM29.1875 44.0625C30.628 44.1888 31.1489 44.9388 30.75 46.3125C29.859 47.4121 28.9215 48.4746 27.9375 49.5C26.948 49.9652 26.2189 49.6944 25.75 48.6875C25.6666 48.3959 25.6666 48.1041 25.75 47.8125C26.5359 46.7347 27.3691 45.6931 28.25 44.6875C28.5532 44.4435 28.8657 44.2351 29.1875 44.0625Z" fill="url(#paint0_linear_2_291)"/>
</g>
<defs>
<linearGradient id="paint0_linear_2_291" x1="31.9371" y1="42.6228" x2="31.9371" y2="12.6603" gradientUnits="userSpaceOnUse">
<stop stop-color="#F53B00"/>
<stop offset="1" stop-color="#F59400"/>
</linearGradient>
<clipPath id="clip0_2_291">
<rect width="64" height="64" fill="white"/>
</clipPath>
</defs>
</svg>
