<svg width="64" height="64" viewBox="0 0 64 64" fill="none" xmlns="http://www.w3.org/2000/svg">
<g clip-path="url(#clip0_2_298)">
<path opacity="0.945" fill-rule="evenodd" clip-rule="evenodd" d="M63.9375 14.5622C63.9375 26.3955 63.9375 38.2288 63.9375 50.0622C63.1089 53.5784 60.9422 55.8077 57.4375 56.7497C48.9412 56.8943 40.4412 56.9568 31.9375 56.9372C23.4338 56.9568 14.9338 56.8943 6.4375 56.7497C2.93279 55.8077 0.766121 53.5784 -0.0625 50.0622C-0.0625 43.3955 -0.0625 36.7288 -0.0625 30.0622C0.416845 29.734 0.896011 29.734 1.375 30.0622C1.38064 36.648 1.46397 43.2314 1.625 49.8122C2.39371 52.8725 4.33121 54.685 7.4375 55.2497C24.0245 55.3734 40.6079 55.3317 57.1875 55.1247C59.9011 54.3278 61.5886 52.5569 62.25 49.8122C62.434 39.4813 62.4965 29.148 62.4375 18.8122C42.1041 18.8122 21.7709 18.8122 1.4375 18.8122C1.45833 20.7293 1.43749 22.6459 1.375 24.5622C0.896011 24.8903 0.416845 24.8903 -0.0625 24.5622C-0.0625 21.2288 -0.0625 17.8955 -0.0625 14.5622C0.412766 11.841 1.78776 9.69519 4.0625 8.12466C4.84074 7.65216 5.67408 7.31882 6.5625 7.12466C15.0164 6.97987 23.4748 6.91737 31.9375 6.93716C40.4002 6.91737 48.8586 6.97987 57.3125 7.12466C60.1439 7.87232 62.123 9.60149 63.25 12.3122C63.521 13.066 63.7501 13.816 63.9375 14.5622ZM7.4375 8.56216C23.7709 8.54132 40.1042 8.56216 56.4375 8.62466C59.2386 9.25861 61.0928 10.9461 62 13.6872C62.2619 14.8388 62.4077 16.0055 62.4375 17.1872C42.1041 17.1872 21.7709 17.1872 1.4375 17.1872C1.24377 13.8645 2.49377 11.2604 5.1875 9.37466C5.91232 8.98945 6.66232 8.71861 7.4375 8.56216ZM9.1875 12.0622C10.4518 11.8896 11.056 12.4313 11 13.6872C10.6588 14.5063 10.0546 14.7772 9.1875 14.4997C8.19435 13.6875 8.19435 12.875 9.1875 12.0622ZM15.4375 12.0622C16.7019 11.8896 17.306 12.4313 17.25 13.6872C16.9088 14.5063 16.3046 14.7772 15.4375 14.4997C14.4444 13.6875 14.4444 12.875 15.4375 12.0622ZM21.6875 12.0622C22.9519 11.8896 23.556 12.4313 23.5 13.6872C23.1588 14.5063 22.5546 14.7772 21.6875 14.4997C20.6944 13.6875 20.6944 12.875 21.6875 12.0622ZM32.8125 12.3122C40.1042 12.2913 47.396 12.3122 54.6875 12.3747C55.6875 12.9997 55.6875 13.6247 54.6875 14.2497C47.3959 14.333 40.1041 14.333 32.8125 14.2497C31.8226 13.6047 31.8226 12.9588 32.8125 12.3122ZM22.3125 30.3122C22.4373 33.9158 22.4789 37.5408 22.4375 41.1872C20.7202 40.8604 19.616 39.8604 19.125 38.1872C19.0416 36.5622 19.0416 34.9372 19.125 33.3122C19.6521 31.7219 20.7146 30.7219 22.3125 30.3122ZM21.3125 42.6872C21.6898 42.7127 22.0648 42.7543 22.4375 42.8122C22.4583 43.9795 22.4375 45.1463 22.375 46.3122C22.0416 46.8122 21.7084 46.8122 21.375 46.3122C21.3125 45.1045 21.2917 43.8962 21.3125 42.6872Z" fill="url(#paint0_linear_2_298)"/>
<path opacity="0.915" fill-rule="evenodd" clip-rule="evenodd" d="M8.93759 10.4383C10.8152 10.1572 12.0444 10.9072 12.6251 12.6883C12.8811 14.4062 12.1935 15.5521 10.5626 16.1258C8.68676 16.4697 7.45759 15.7405 6.87509 13.9383C6.63395 12.2109 7.32145 11.0442 8.93759 10.4383ZM9.18759 12.0633C8.19444 12.8762 8.19444 13.6887 9.18759 14.5008C10.0547 14.7783 10.6588 14.5075 11.0001 13.6883C11.0561 12.4325 10.4519 11.8908 9.18759 12.0633Z" fill="url(#paint1_linear_2_298)"/>
<path opacity="0.915" fill-rule="evenodd" clip-rule="evenodd" d="M15.1876 10.4383C17.0652 10.1572 18.2943 10.9072 18.8751 12.6883C19.1311 14.4062 18.4436 15.5521 16.8126 16.1258C14.9367 16.4697 13.7076 15.7405 13.1251 13.9383C12.884 12.2109 13.5715 11.0442 15.1876 10.4383ZM15.4376 12.0633C14.4445 12.8762 14.4445 13.6887 15.4376 14.5008C16.3047 14.7783 16.9088 14.5075 17.2501 13.6883C17.3061 12.4325 16.702 11.8908 15.4376 12.0633Z" fill="url(#paint2_linear_2_298)"/>
<path opacity="0.915" fill-rule="evenodd" clip-rule="evenodd" d="M21.4376 10.4383C23.3152 10.1572 24.5443 10.9072 25.1251 12.6883C25.3811 14.4062 24.6936 15.5521 23.0626 16.1258C21.1867 16.4697 19.9576 15.7405 19.3751 13.9383C19.134 12.2109 19.8215 11.0442 21.4376 10.4383ZM21.6876 12.0633C20.6945 12.8762 20.6945 13.6887 21.6876 14.5008C22.5547 14.7783 23.1588 14.5075 23.5001 13.6883C23.5561 12.4325 22.952 11.8908 21.6876 12.0633Z" fill="url(#paint3_linear_2_298)"/>
<path opacity="0.92" fill-rule="evenodd" clip-rule="evenodd" d="M32.4374 10.6875C39.9791 10.6667 47.5209 10.6875 55.0624 10.75C56.9849 11.5588 57.5058 12.9129 56.6249 14.8125C56.2384 15.366 55.7175 15.7201 55.0624 15.875C47.5208 15.9584 39.979 15.9584 32.4374 15.875C30.5149 15.0663 29.994 13.7121 30.8749 11.8125C31.2873 11.2647 31.8081 10.8897 32.4374 10.6875ZM32.8124 12.3125C31.8225 12.9591 31.8225 13.605 32.8124 14.25C40.104 14.3334 47.3958 14.3334 54.6874 14.25C55.6874 13.625 55.6874 13 54.6874 12.375C47.3959 12.3125 40.1041 12.2917 32.8124 12.3125Z" fill="url(#paint4_linear_2_298)"/>
<path opacity="0.924" fill-rule="evenodd" clip-rule="evenodd" d="M32.0625 25.8125C34.2727 25.8849 35.7102 26.9683 36.375 29.0625C36.4584 33.5209 36.4584 37.9791 36.375 42.4375C35.7617 44.5489 34.345 45.6321 32.125 45.6875C31.681 45.6699 31.2435 45.6074 30.8125 45.5C28.5995 44.7415 26.3912 43.9706 24.1875 43.1875C24.0835 44.352 24.021 45.5186 24 46.6875C23.2598 48.1984 22.1139 48.5941 20.5625 47.875C20.1959 47.592 19.925 47.2377 19.75 46.8125C19.7084 45.1459 19.6667 43.4791 19.625 41.8125C18.5084 40.9456 17.8 39.8206 17.5 38.4375C17.4167 36.6459 17.4167 34.8541 17.5 33.0625C18.356 30.1848 20.2935 28.7056 23.3125 28.625C25.8542 27.75 28.3959 26.875 30.9375 26C31.3369 25.9774 31.7119 25.9149 32.0625 25.8125ZM32.0625 27.4375C33.3645 27.4937 34.2604 28.1188 34.75 29.3125C34.8334 33.6459 34.8334 37.9791 34.75 42.3125C33.9519 43.802 32.7227 44.3229 31.0625 43.875C28.7709 43.0625 26.4792 42.25 24.1875 41.4375C24.0625 37.6467 24.0209 33.8551 24.0625 30.0625C26.7257 29.1331 29.3923 28.2581 32.0625 27.4375ZM22.3125 30.3125C20.7147 30.7222 19.6522 31.7222 19.125 33.3125C19.0417 34.9375 19.0417 36.5625 19.125 38.1875C19.616 39.8608 20.7203 40.8608 22.4375 41.1875C22.4789 37.5411 22.4373 33.9161 22.3125 30.3125ZM21.3125 42.6875C21.2918 43.8965 21.3125 45.1049 21.375 46.3125C21.7084 46.8125 22.0417 46.8125 22.375 46.3125C22.4375 45.1466 22.4583 43.9799 22.4375 42.8125C22.0648 42.7546 21.6898 42.713 21.3125 42.6875Z" fill="url(#paint5_linear_2_298)"/>
<path opacity="0.922" fill-rule="evenodd" clip-rule="evenodd" d="M-0.0625 28.4371C-0.0625 27.6871 -0.0625 26.9371 -0.0625 26.1871C1.13695 25.5932 1.63695 25.9682 1.4375 27.3121C1.63695 28.656 1.13695 29.031 -0.0625 28.4371Z" fill="url(#paint6_linear_2_298)"/>
<path opacity="0.901" fill-rule="evenodd" clip-rule="evenodd" d="M42.4374 29.6875C43.0446 29.6885 43.5862 29.876 44.0624 30.25C45.7272 31.7259 46.5188 33.58 46.4374 35.8125C46.5188 38.045 45.7272 39.8991 44.0624 41.375C43.6757 41.6777 43.2382 41.8652 42.7499 41.9375C41.9299 41.7185 41.7424 41.2394 42.1874 40.5C44.0489 39.5075 44.9239 37.945 44.8124 35.8125C44.9239 33.68 44.0489 32.1175 42.1874 31.125C41.8141 30.5549 41.8974 30.0757 42.4374 29.6875Z" fill="url(#paint7_linear_2_298)"/>
<path opacity="0.893" fill-rule="evenodd" clip-rule="evenodd" d="M39.9374 31.4375C41.4061 31.718 42.3436 32.593 42.7499 34.0625C43.3581 36.1818 42.9206 38.0359 41.4374 39.625C41.0816 39.8966 40.6859 40.0841 40.2499 40.1875C39.5568 40.0527 39.3068 39.6361 39.4999 38.9375C41.0713 38.0013 41.6545 36.6263 41.2499 34.8125C40.9854 33.8399 40.4021 33.1315 39.4999 32.6875C39.3444 32.1489 39.4903 31.7323 39.9374 31.4375Z" fill="url(#paint8_linear_2_298)"/>
<path opacity="0.882" fill-rule="evenodd" clip-rule="evenodd" d="M38.0626 33.1875C39.5322 33.41 40.2405 34.285 40.1876 35.8125C40.2537 37.1426 39.6704 38.0176 38.4376 38.4375C37.6136 38.2896 37.3845 37.8313 37.7501 37.0625C38.5925 36.5454 38.78 35.837 38.3126 34.9375C37.4306 34.4475 37.3472 33.8641 38.0626 33.1875Z" fill="url(#paint9_linear_2_298)"/>
</g>
<defs>
<linearGradient id="paint0_linear_2_298" x1="31.9371" y1="45.4502" x2="31.9371" y2="7.68699" gradientUnits="userSpaceOnUse">
<stop stop-color="#F53B00"/>
<stop offset="1" stop-color="#F59400"/>
</linearGradient>
<linearGradient id="paint1_linear_2_298" x1="9.75261" y1="14.8694" x2="9.75261" y2="10.4687" gradientUnits="userSpaceOnUse">
<stop stop-color="#F53B00"/>
<stop offset="1" stop-color="#F59400"/>
</linearGradient>
<linearGradient id="paint2_linear_2_298" x1="16.0026" y1="14.8694" x2="16.0026" y2="10.4687" gradientUnits="userSpaceOnUse">
<stop stop-color="#F53B00"/>
<stop offset="1" stop-color="#F59400"/>
</linearGradient>
<linearGradient id="paint3_linear_2_298" x1="22.2526" y1="14.8694" x2="22.2526" y2="10.4687" gradientUnits="userSpaceOnUse">
<stop stop-color="#F53B00"/>
<stop offset="1" stop-color="#F59400"/>
</linearGradient>
<linearGradient id="paint4_linear_2_298" x1="43.7497" y1="14.7294" x2="43.7497" y2="10.7589" gradientUnits="userSpaceOnUse">
<stop stop-color="#F53B00"/>
<stop offset="1" stop-color="#F59400"/>
</linearGradient>
<linearGradient id="paint5_linear_2_298" x1="26.9374" y1="43.0735" x2="26.9374" y2="26.1501" gradientUnits="userSpaceOnUse">
<stop stop-color="#F53B00"/>
<stop offset="1" stop-color="#F59400"/>
</linearGradient>
<linearGradient id="paint6_linear_2_298" x1="0.708817" y1="28.0676" x2="0.708817" y2="25.9562" gradientUnits="userSpaceOnUse">
<stop stop-color="#F53B00"/>
<stop offset="1" stop-color="#F59400"/>
</linearGradient>
<linearGradient id="paint7_linear_2_298" x1="44.1979" y1="39.1227" x2="44.1979" y2="29.8721" gradientUnits="userSpaceOnUse">
<stop stop-color="#F53B00"/>
<stop offset="1" stop-color="#F59400"/>
</linearGradient>
<linearGradient id="paint8_linear_2_298" x1="41.226" y1="38.1769" x2="41.226" y2="31.5693" gradientUnits="userSpaceOnUse">
<stop stop-color="#F53B00"/>
<stop offset="1" stop-color="#F59400"/>
</linearGradient>
<linearGradient id="paint9_linear_2_298" x1="38.8871" y1="37.2312" x2="38.8871" y2="33.2666" gradientUnits="userSpaceOnUse">
<stop stop-color="#F53B00"/>
<stop offset="1" stop-color="#F59400"/>
</linearGradient>
<clipPath id="clip0_2_298">
<rect width="64" height="64" fill="white"/>
</clipPath>
</defs>
</svg>
