<svg width="64" height="64" viewBox="0 0 64 64" fill="none" xmlns="http://www.w3.org/2000/svg">
<g clip-path="url(#clip0_2_352)">
<path opacity="0.938" fill-rule="evenodd" clip-rule="evenodd" d="M63.9375 6.5625C63.9375 12.9375 63.9375 19.3125 63.9375 25.6875C63.6152 26.4884 63.0319 27.0093 62.1875 27.25C59.9795 27.3125 57.7713 27.3334 55.5625 27.3125C55.5416 31.2294 55.5625 35.146 55.625 39.0625C57.1992 39.3108 58.7201 39.7483 60.1875 40.375C62.0592 41.5594 63.3092 43.2053 63.9375 45.3125C63.9375 47.5625 63.9375 49.8125 63.9375 52.0625C63.5631 53.125 62.8548 53.8959 61.8125 54.375C60.8214 54.5454 59.8214 54.6079 58.8125 54.5625C58.1562 56.8644 56.6562 58.3019 54.3125 58.875C51.16 59.33 48.8475 58.1425 47.375 55.3125C47.2734 55.0705 47.2109 54.8205 47.1875 54.5625C37.1039 54.5209 27.0205 54.5625 16.9375 54.6875C15.4279 58.2964 12.7612 59.6089 8.9375 58.625C6.83935 57.7358 5.50601 56.1941 4.9375 54C3.631 53.451 2.33934 52.8676 1.0625 52.25C0.561315 51.8549 0.186315 51.3758 -0.0625 50.8125C-0.0625 47.2709 -0.0625 43.7291 -0.0625 40.1875C0.382257 38.7625 1.29893 37.7418 2.6875 37.125C5.2844 36.7741 7.61774 35.8159 9.6875 34.25C12.1523 31.58 15.1939 29.9966 18.8125 29.5C23.5209 29.4166 28.2291 29.4166 32.9375 29.5C34.8825 29.7316 36.7159 30.315 38.4375 31.25C41.1041 33.0416 43.7709 34.8334 46.4375 36.625C47.7484 37.4268 49.165 37.9059 50.6875 38.0625C50.6875 34.4791 50.6875 30.8959 50.6875 27.3125C48.2705 27.3334 45.8537 27.3125 43.4375 27.25C42.4725 27.0768 41.8684 26.5143 41.625 25.5625C41.5416 23.5209 41.5416 21.4791 41.625 19.4375C42.2201 18.7735 42.8035 18.7735 43.375 19.4375C43.5159 21.3759 43.6201 23.3134 43.6875 25.25C49.7291 25.3334 55.7709 25.3334 61.8125 25.25C61.875 25.1875 61.9375 25.125 62 25.0625C62.0834 19.0625 62.0834 13.0625 62 7.0625C61.9375 7 61.875 6.9375 61.8125 6.875C55.7709 6.79167 49.7291 6.79167 43.6875 6.875C43.5841 9.26168 43.5216 11.6575 43.5 14.0625C43.2271 14.8553 42.7062 15.0844 41.9375 14.75C41.7874 14.6371 41.6831 14.4914 41.625 14.3125C41.5056 11.5978 41.5472 8.88949 41.75 6.1875C42.1836 5.35583 42.8711 4.91833 43.8125 4.875C49.7709 4.79167 55.7291 4.79167 61.6875 4.875C62.7972 4.98915 63.5472 5.55165 63.9375 6.5625ZM52.6875 27.3125C53.0209 27.3125 53.3541 27.3125 53.6875 27.3125C53.6875 31.1041 53.6875 34.8959 53.6875 38.6875C53.3541 38.6459 53.0209 38.6041 52.6875 38.5625C52.6875 34.8125 52.6875 31.0625 52.6875 27.3125ZM19.9375 31.3125C23.9377 31.2916 27.9377 31.3125 31.9375 31.375C34.0112 31.4558 35.9279 32.0391 37.6875 33.125C40.0209 34.7084 42.3541 36.2916 44.6875 37.875C45.9711 38.6921 47.3461 39.3171 48.8125 39.75C51.7291 40.3334 54.6459 40.9166 57.5625 41.5C59.6234 42.0606 61.0609 43.3315 61.875 45.3125C62.0134 46.4094 62.0759 47.5136 62.0625 48.625C62.0416 49.5625 62.0209 50.5 62 51.4375C61.8541 52.0834 61.4584 52.4791 60.8125 52.625C60.2306 52.6874 59.6474 52.7083 59.0625 52.6875C58.7131 49.0465 56.7131 47.0881 53.0625 46.8125C49.3652 47.0553 47.3235 49.0135 46.9375 52.6875C37.0209 52.6875 27.1041 52.6875 17.1875 52.6875C16.8757 49.5214 15.1674 47.5839 12.0625 46.875C8.3139 46.6243 5.95974 48.3118 5 51.9375C4.07194 51.484 3.13444 51.0465 2.1875 50.625C2.03732 50.5121 1.93315 50.3664 1.875 50.1875C1.79166 47.0209 1.79166 43.8541 1.875 40.6875C2.01487 40.0951 2.32737 39.616 2.8125 39.25C4.21681 38.8023 5.63347 38.3855 7.0625 38C9.19501 37.1841 11.0283 35.9341 12.5625 34.25C14.7099 32.4721 17.1683 31.4929 19.9375 31.3125ZM27 42C29.7086 41.9791 30.2295 41.9375 32.9375 42C34.2231 42.2617 35.369 40.8451 36.5 41.5C38.957 43.2288 41.5 42 43.9375 41C37.521 41.0625 31.1042 41.0834 24.6875 41.0625C26 41.5 27 44.1666 27 42ZM10.9375 48.6875C14.0094 49.0299 15.4051 50.7383 15.125 53.8125C14.5339 55.8405 13.1796 56.9238 11.0625 57.0625C8.53251 56.8034 7.15751 55.4075 6.9375 52.875C7.19502 50.4304 8.52836 49.0345 10.9375 48.6875ZM52.8125 48.6875C55.4196 48.9196 56.878 50.3363 57.1875 52.9375C57.0414 54.7086 56.1664 55.9794 54.5625 56.75C52.2453 57.4576 50.4744 56.7701 49.25 54.6875C48.431 52.5196 48.9519 50.7488 50.8125 49.375C51.4549 49.0283 52.1215 48.7991 52.8125 48.6875ZM10.6875 52.0625C11.7682 51.9764 12.1223 52.4348 11.75 53.4375C11.3799 53.8359 10.9841 53.8775 10.5625 53.5625C10.0608 53.0233 10.1024 52.5233 10.6875 52.0625ZM52.6875 52.0625C53.6302 52.0239 53.9845 52.4405 53.75 53.3125C53.25 53.9791 52.75 53.9791 52.25 53.3125C52.0945 52.7739 52.2404 52.3573 52.6875 52.0625Z" fill="url(#paint0_linear_2_352)"/>
<path opacity="0.919" fill-rule="evenodd" clip-rule="evenodd" d="M24.3124 9.4374C29.1712 9.21577 33.3169 10.7991 36.7499 14.1874C37.0459 15.2419 36.6502 15.721 35.5624 15.6249C31.1822 11.5237 26.1404 10.4404 20.4374 12.3749C19.5072 12.7358 18.6322 13.1942 17.8124 13.7499C17.0259 14.3278 16.2759 14.9528 15.5624 15.6249C14.3664 15.72 13.9706 15.1992 14.3749 14.0624C17.1462 11.3538 20.4587 9.81213 24.3124 9.4374Z" fill="url(#paint1_linear_2_352)"/>
<path opacity="0.916" fill-rule="evenodd" clip-rule="evenodd" d="M49.9375 10.0625C51.3548 10.0417 52.7715 10.0625 54.1875 10.125C56.1242 10.501 57.0825 11.6885 57.0625 13.6875C57.0815 15.6872 56.1233 16.8747 54.1875 17.25C53.3553 17.3125 52.5219 17.3332 51.6875 17.3125C51.7439 18.6172 51.6814 19.9089 51.5 21.1875C51.0828 21.5397 50.6037 21.6439 50.0625 21.5C49.7917 21.3959 49.6042 21.2084 49.5 20.9375C49.4167 17.5209 49.4167 14.1041 49.5 10.6875C49.5322 10.3867 49.678 10.1783 49.9375 10.0625ZM51.6875 11.9375C52.5864 11.8765 53.4614 11.9807 54.3125 12.25C55.1657 13.3322 55.1239 14.374 54.1875 15.375C53.3688 15.5525 52.5355 15.615 51.6875 15.5625C51.6875 14.3541 51.6875 13.1459 51.6875 11.9375Z" fill="url(#paint2_linear_2_352)"/>
<path opacity="0.92" fill-rule="evenodd" clip-rule="evenodd" d="M24.0625 14.8121C27.5489 14.4533 30.5281 15.4949 33 17.9371C33.2963 19.0704 32.8588 19.5495 31.6875 19.3746C27.5683 15.7923 23.4433 15.7923 19.3125 19.3746C18.2916 19.5205 17.8541 19.083 18 18.0621C19.6385 16.274 21.6594 15.1906 24.0625 14.8121Z" fill="url(#paint3_linear_2_352)"/>
<path opacity="0.911" fill-rule="evenodd" clip-rule="evenodd" d="M24.4375 20.0626C26.4148 19.7699 28.0607 20.3533 29.375 21.8126C29.5583 22.6132 29.2458 23.0716 28.4375 23.1876C27.8503 22.9547 27.3086 22.6422 26.8125 22.2501C25.9395 21.8433 25.0645 21.8433 24.1875 22.2501C23.7266 22.5456 23.2682 22.8373 22.8125 23.1251C21.8041 23.1291 21.4498 22.6498 21.75 21.6876C22.491 20.8701 23.3867 20.3283 24.4375 20.0626Z" fill="url(#paint4_linear_2_352)"/>
<path opacity="0.923" fill-rule="evenodd" clip-rule="evenodd" d="M19.1874 32.5625C23.5209 32.5416 27.8543 32.5625 32.1874 32.625C34.1328 32.7439 35.9244 33.3273 37.5624 34.375C40.0194 36.1038 42.5194 37.7704 45.0624 39.375C45.9935 40.0919 46.3476 41.0294 46.1249 42.1875C45.9164 42.6456 45.5623 42.9165 45.0624 43C36.5624 43.0834 28.0624 43.0834 19.5624 43C18.8011 42.5718 18.6761 42.0093 19.1874 41.3125C19.3124 41.25 19.4374 41.1875 19.5624 41.125C20.6449 41.0625 21.7283 41.0418 22.8124 41.0625C22.8124 38.8959 22.8124 36.7291 22.8124 34.5625C20.0736 34.181 17.532 34.7019 15.1874 36.125C13.6171 37.701 11.8672 39.0343 9.93739 40.125C9.51752 40.3793 9.47584 40.671 9.81239 41C11.2291 41.0416 12.6458 41.0834 14.0624 41.125C14.836 41.4708 15.0026 42.0125 14.5624 42.75C14.3958 42.8334 14.229 42.9166 14.0624 43C12.604 43.0834 11.1457 43.0834 9.68739 43C8.04032 42.5618 7.39448 41.4993 7.74989 39.8125C7.92982 39.4246 8.15899 39.0705 8.43739 38.75C10.1142 37.8655 11.6142 36.7405 12.9374 35.375C14.763 33.8579 16.8464 32.9204 19.1874 32.5625ZM24.6874 34.5625C24.6874 36.7291 24.6874 38.8959 24.6874 41.0625C31.1041 41.0834 37.5209 41.0625 43.9374 41C41.3944 39.3954 38.8944 37.7288 36.4374 36C35.3064 35.3451 34.098 34.8868 32.8124 34.625C30.1044 34.5625 27.396 34.5416 24.6874 34.5625Z" fill="url(#paint5_linear_2_352)"/>
<path opacity="0.933" fill-rule="evenodd" clip-rule="evenodd" d="M23.6874 44.3125C24.8964 44.2917 26.1048 44.3125 27.3124 44.375C28.0828 44.898 28.1244 45.4813 27.4374 46.125C26.1874 46.2083 24.9374 46.2083 23.6874 46.125C23.2234 45.8108 23.0777 45.3733 23.2499 44.8125C23.4219 44.6618 23.5677 44.4952 23.6874 44.3125Z" fill="url(#paint6_linear_2_352)"/>
<path opacity="0.924" fill-rule="evenodd" clip-rule="evenodd" d="M10.4374 50.0625C12.7648 49.9941 13.9106 51.1191 13.8749 53.4375C13.0534 55.6011 11.5742 56.2053 9.43739 55.25C8.27072 54.1793 7.99989 52.9084 8.62489 51.4375C9.10699 50.8085 9.71115 50.3501 10.4374 50.0625ZM10.6874 52.0625C10.1023 52.5233 10.0606 53.0233 10.5624 53.5625C10.984 53.8775 11.3798 53.8359 11.7499 53.4375C12.1222 52.4348 11.7681 51.9764 10.6874 52.0625Z" fill="url(#paint7_linear_2_352)"/>
<path opacity="0.922" fill-rule="evenodd" clip-rule="evenodd" d="M52.4376 50.0629C54.1088 49.9079 55.2129 50.6162 55.7501 52.1879C55.8556 54.9565 54.5431 56.0606 51.8126 55.5004C50.1772 54.468 49.7813 53.0721 50.6251 51.3129C51.0862 50.6604 51.6903 50.2437 52.4376 50.0629ZM52.6876 52.0629C52.2404 52.3576 52.0946 52.7742 52.2501 53.3129C52.7501 53.9795 53.2501 53.9795 53.7501 53.3129C53.9846 52.4409 53.6303 52.0242 52.6876 52.0629Z" fill="url(#paint8_linear_2_352)"/>
</g>
<defs>
<linearGradient id="paint0_linear_2_352" x1="31.9371" y1="46.5255" x2="31.9371" y2="5.62842" gradientUnits="userSpaceOnUse">
<stop stop-color="#F53B00"/>
<stop offset="1" stop-color="#F59400"/>
</linearGradient>
<linearGradient id="paint1_linear_2_352" x1="25.5332" y1="14.2077" x2="25.5332" y2="9.5107" gradientUnits="userSpaceOnUse">
<stop stop-color="#F53B00"/>
<stop offset="1" stop-color="#F59400"/>
</linearGradient>
<linearGradient id="paint2_linear_2_352" x1="53.2501" y1="18.9183" x2="53.2501" y2="10.2281" gradientUnits="userSpaceOnUse">
<stop stop-color="#F53B00"/>
<stop offset="1" stop-color="#F59400"/>
</linearGradient>
<linearGradient id="paint3_linear_2_352" x1="25.5311" y1="18.3374" x2="25.5311" y2="14.8135" gradientUnits="userSpaceOnUse">
<stop stop-color="#F53B00"/>
<stop offset="1" stop-color="#F59400"/>
</linearGradient>
<linearGradient id="paint4_linear_2_352" x1="25.5362" y1="22.4527" x2="25.5362" y2="20.0374" gradientUnits="userSpaceOnUse">
<stop stop-color="#F53B00"/>
<stop offset="1" stop-color="#F59400"/>
</linearGradient>
<linearGradient id="paint5_linear_2_352" x1="26.9221" y1="40.6481" x2="26.9221" y2="32.713" gradientUnits="userSpaceOnUse">
<stop stop-color="#F53B00"/>
<stop offset="1" stop-color="#F59400"/>
</linearGradient>
<linearGradient id="paint6_linear_2_352" x1="25.5515" y1="45.7549" x2="25.5515" y2="44.3331" gradientUnits="userSpaceOnUse">
<stop stop-color="#F53B00"/>
<stop offset="1" stop-color="#F59400"/>
</linearGradient>
<linearGradient id="paint7_linear_2_352" x1="11.0867" y1="54.3954" x2="11.0867" y2="50.1444" gradientUnits="userSpaceOnUse">
<stop stop-color="#F53B00"/>
<stop offset="1" stop-color="#F59400"/>
</linearGradient>
<linearGradient id="paint8_linear_2_352" x1="52.9751" y1="54.3551" x2="52.9751" y2="50.1264" gradientUnits="userSpaceOnUse">
<stop stop-color="#F53B00"/>
<stop offset="1" stop-color="#F59400"/>
</linearGradient>
<clipPath id="clip0_2_352">
<rect width="64" height="64" fill="white"/>
</clipPath>
</defs>
</svg>
