<svg width="11" height="7" viewBox="0 0 11 7" fill="none" xmlns="http://www.w3.org/2000/svg">
<path d="M10.4328 0.881608C10.3216 0.661491 10.0869 0.501986 9.86436 0.501986C9.61171 0.501986 9.6478 0.466895 7.52429 2.71592L5.50003 4.85648L3.47878 2.71592C1.35226 0.466894 1.38835 0.501985 1.13569 0.501985C0.910107 0.501985 0.675498 0.66149 0.564209 0.887988C0.489014 1.05068 0.489014 1.32503 0.564209 1.48454C0.597295 1.55153 1.62296 2.66169 2.90429 4.01429C5.29851 6.54723 5.25038 6.49938 5.50003 6.49938C5.74968 6.49938 5.70155 6.54723 8.09577 4.01429C9.3771 2.66169 10.4028 1.55153 10.4358 1.48454C10.511 1.32822 10.511 1.03792 10.4328 0.881608Z" fill="black"/>
</svg>
