<svg width="20" height="20" viewBox="0 0 20 20" fill="none" xmlns="http://www.w3.org/2000/svg">
<g clip-path="url(#clip0_2_8)">
<path d="M2.94934 0.0509491C2.8634 0.0821991 2.7384 0.13298 2.67199 0.168137C2.51965 0.246262 1.29309 1.41814 0.925901 1.82829C0.613401 2.18376 0.320432 2.72673 0.179807 3.2072C-0.538943 5.69157 0.941526 9.36735 4.19153 13.1642C4.75012 13.8127 6.44543 15.4806 7.12903 16.0509C10.7931 19.1017 14.2423 20.4689 16.7032 19.8439C16.8712 19.8009 17.2072 19.6681 17.4415 19.5549C17.9493 19.3049 18.1603 19.1252 19.1212 18.1252C19.9025 17.3127 19.9806 17.1838 19.9806 16.6994C19.9806 16.1603 20.0118 16.1994 17.9806 14.1759C16.3009 12.5041 16.1798 12.3869 15.9767 12.3205C15.6603 12.215 15.3009 12.2306 15.0197 12.3595C14.84 12.4416 14.6564 12.5939 14.1642 13.0822C13.3517 13.883 13.0822 14.0314 12.4181 14.0314C12.0157 14.0314 11.7462 13.9455 11.2697 13.6799C9.68371 12.7931 8.3009 11.5744 7.20715 10.1017C6.65637 9.35563 6.14465 8.48454 6.03137 8.10563C5.89465 7.62126 5.97668 7.01189 6.2384 6.59001C6.29309 6.50017 6.60559 6.15251 6.93762 5.82048C7.41028 5.34001 7.55871 5.16423 7.64074 4.98454C7.76965 4.69939 7.78528 4.34001 7.67981 4.0236C7.6134 3.82048 7.49621 3.69939 5.82434 2.0197C3.85559 0.0431366 3.85168 0.0392303 3.36731 0.0157928C3.21496 0.00798035 3.03918 0.0236053 2.94934 0.0509491Z" fill="url(#paint0_linear_2_8)"/>
</g>
<defs>
<linearGradient id="paint0_linear_2_8" x1="9.99103" y1="4.60437" x2="9.99103" y2="19.6912" gradientUnits="userSpaceOnUse">
<stop stop-color="#F53B00"/>
<stop offset="1" stop-color="#F59400"/>
</linearGradient>
<clipPath id="clip0_2_8">
<rect width="20" height="20" fill="white"/>
</clipPath>
</defs>
</svg>
