<svg width="13" height="23" viewBox="0 0 13 23" fill="none" xmlns="http://www.w3.org/2000/svg">
<path d="M1.63598 1.18614C1.22719 1.41884 0.930968 1.90938 0.930968 2.37477C0.930968 2.90306 0.865799 2.82759 5.04256 7.26766L9.01788 11.5002L5.04256 15.7265C0.865799 20.1728 0.930968 20.0974 0.930968 20.6256C0.930968 21.0973 1.22719 21.5879 1.64783 21.8206C1.94998 21.9778 2.45948 21.9778 2.75571 21.8206C2.88012 21.7514 4.94184 19.6068 7.45382 16.9277C12.1579 11.9216 12.069 12.0222 12.069 11.5002C12.069 10.9782 12.1579 11.0788 7.45382 6.07274C4.94184 3.3936 2.88012 1.24903 2.75571 1.17985C2.46541 1.02262 1.92628 1.02262 1.63598 1.18614Z" fill="url(#paint0_linear_2_663)"/>
<defs>
<linearGradient id="paint0_linear_2_663" x1="6.49993" y1="5.85949" x2="6.49993" y2="21.624" gradientUnits="userSpaceOnUse">
<stop stop-color="#F53B00"/>
<stop offset="1" stop-color="#F59400"/>
</linearGradient>
</defs>
</svg>
