<svg width="142" height="32" viewBox="0 0 142 32" fill="none" xmlns="http://www.w3.org/2000/svg">
<path d="M88.6926 8.96779H99.6153V7.71684H92.0294L92.0369 2.28467H88.6926V8.96779Z" fill="#231F20"/>
<path d="M25.6831 2.28467V8.96779H29.0274C29.0274 8.96779 29.0274 6.32183 29.0274 6.24223C29.1028 6.24223 34.7583 6.24223 34.8337 6.24223C34.8337 6.32183 34.8337 8.96779 34.8337 8.96779H38.1705V2.28467H34.8337C34.8337 2.28467 34.8337 4.92683 34.8337 5.00644C34.7583 5.00644 29.1028 5.00644 29.0274 5.00644C29.0274 4.92683 29.0274 2.28467 29.0274 2.28467H25.6831Z" fill="#231F20"/>
<path d="M67.5149 2.28587L64.4082 5.10999L61.1921 2.28587L57.3086 2.02051V2.28587C57.3086 2.28587 62.0178 6.22447 62.0479 6.24722C62.0479 6.28513 62.0479 8.96899 62.0479 8.96899H65.3884C65.3884 8.96899 65.3884 6.22826 65.3884 6.18657C65.4148 6.16761 69.7734 2.28587 69.7734 2.28587V2.02051L67.5149 2.28587Z" fill="#231F20"/>
<path d="M103.333 8.96779H114.475V7.84193H106.678V6.13608H114.181V5.01781H106.678V3.40673H114.331L114.335 2.28467H103.333V8.96779Z" fill="#231F20"/>
<path d="M72.5334 4.02136C72.5334 5.568 74.3167 5.9395 76.7335 6.23897C79.2069 6.54981 80.3568 6.62942 80.3568 7.21699C80.3568 7.73632 79.6216 8.01304 77.4951 8.01304C75.0708 8.01304 73.0348 7.41031 72.7634 7.33829C72.752 7.38757 72.5334 8.09265 72.4504 8.46794C72.4203 8.59304 72.4504 8.73329 72.4504 8.73329C72.7973 8.80911 74.7051 9.25263 77.6346 9.25263C80.8545 9.25263 83.9613 8.6878 83.9613 6.93268C83.9613 5.731 82.6982 5.11311 79.1088 4.69233C77.6233 4.51796 76.0586 4.40802 76.0586 3.82804C76.0586 3.39968 76.4885 3.20256 78.6074 3.20256C80.7263 3.20256 82.4682 3.65745 82.7548 3.7219L83.0262 2.16389C82.6567 2.09945 80.5604 1.98193 77.8043 1.98193C75.5195 1.98572 72.5334 2.30415 72.5334 4.02136Z" fill="#231F20"/>
<path d="M9.68555 5.62874C9.68555 7.78948 11.9478 9.25651 16.6418 9.25651C18.4591 9.25651 20.3782 8.99115 20.6912 8.94566L20.9815 7.28152C20.5743 7.32321 19.0209 7.82739 17.3431 7.82739C14.7378 7.82739 12.9808 7.19812 12.9808 5.62874C12.9808 4.08969 14.6549 3.4263 17.3921 3.4263C18.9531 3.4263 20.5856 3.64617 20.9853 3.70682V3.44146L20.695 2.30423C20.2161 2.25116 18.5609 2.00098 16.7436 2.00098C11.9817 2.00098 9.68555 3.41872 9.68555 5.62874Z" fill="#231F20"/>
<path d="M43.3435 8.9682H46.684V3.47158C47.144 3.44126 47.653 3.38819 48.4372 3.38819C49.2441 3.38819 49.8285 3.40335 50.3149 3.47538C51.3329 3.63459 51.6647 3.96438 51.6571 4.40032C51.6496 4.85142 51.2047 5.26841 50.1754 5.42004C49.5043 5.51102 49.048 5.52618 48.4523 5.52618C48.1733 5.52618 47.4343 5.23429 47.4343 5.23429V5.49965L51.2311 8.9682H55.4802V8.70285L51.6307 6.18577C52.3961 6.13649 52.6638 6.09859 53.4216 5.85598C54.4434 5.52618 54.9411 4.99547 54.9449 4.40032C54.9562 3.62321 54.4547 2.94846 52.5846 2.52389C51.5478 2.28507 50.2357 2.18651 48.4674 2.18272C46.0695 2.17893 43.5886 2.27749 43.3473 2.28508C43.3435 2.29645 43.3435 8.9682 43.3435 8.9682Z" fill="#231F20"/>
<path d="M118.882 8.9682H122.223V3.47158C122.679 3.44126 123.188 3.38819 123.972 3.38819C124.783 3.38819 125.364 3.40335 125.857 3.47538C126.868 3.63459 127.2 3.96438 127.192 4.40032C127.181 4.85142 126.743 5.26841 125.71 5.42004C125.058 5.51102 124.587 5.52618 123.991 5.52618C123.693 5.52618 122.977 5.23429 122.977 5.23429V5.49965L126.774 8.9682H131.019V8.70285L127.17 6.18577C127.935 6.13649 128.203 6.09859 128.964 5.85598C129.978 5.52618 130.484 4.99547 130.491 4.40032C130.495 3.62321 129.997 2.94846 128.123 2.52389C127.087 2.28507 125.778 2.18651 124.006 2.18272C121.601 2.17893 119.124 2.27749 118.882 2.28508C118.882 2.29645 118.882 8.9682 118.882 8.9682Z" fill="#231F20"/>
<path d="M88.6926 8.31971H99.6153V7.15215H92.0294L92.0369 2.06494H88.6926V8.31971Z" fill="url(#paint0_linear_2_47372)"/>
<path d="M25.6831 2.06494V8.31971H29.0274C29.0274 8.31971 29.0274 5.84433 29.0274 5.76852C29.1028 5.76852 34.7583 5.76852 34.8337 5.76852C34.8337 5.84054 34.8337 8.31971 34.8337 8.31971H38.1705V2.06494H34.8337C34.8337 2.06494 34.8337 4.53652 34.8337 4.61234C34.7583 4.61234 29.1028 4.61234 29.0274 4.61234C29.0274 4.54031 29.0274 2.06494 29.0274 2.06494H25.6831Z" fill="url(#paint1_linear_2_47372)"/>
<path d="M67.5145 2.06474L64.4078 4.70691L61.1917 2.06474L57.3384 2.04199C57.3384 2.04199 62.0211 5.74937 62.0513 5.77211C62.0513 5.81002 62.0513 8.31951 62.0513 8.31951H65.3918C65.3918 8.31951 65.3918 5.75316 65.3918 5.71525C65.4182 5.70009 69.7466 2.04199 69.7466 2.04199L67.5145 2.06474Z" fill="url(#paint2_linear_2_47372)"/>
<path d="M103.333 8.31971H114.475V7.26967H106.678V5.67375H114.181V4.62371H106.678V3.11498H114.331L114.335 2.06494H103.333V8.31971Z" fill="url(#paint3_linear_2_47372)"/>
<path d="M72.5331 3.69521C72.5331 5.14329 74.3165 5.49204 76.7333 5.77256C79.2066 6.06066 80.3566 6.14026 80.3566 6.68613C80.3566 7.17135 79.6214 7.43291 77.4949 7.43291C75.0706 7.43291 73.0346 6.87188 72.7631 6.79985C72.748 6.86051 72.4502 8.47538 72.4502 8.47158C72.7971 8.53982 74.7049 8.59289 77.6344 8.59289C80.8543 8.59289 83.9611 8.06597 83.9611 6.42457C83.9611 5.29871 82.698 4.71873 79.1086 4.32828C77.6231 4.16527 76.0584 4.06292 76.0584 3.52084C76.0584 3.11902 76.4882 2.93327 78.6072 2.93327C80.7261 2.93327 82.468 3.35784 82.7545 3.41849L83.026 2.20544C82.6565 2.14479 80.5602 1.78467 77.8041 1.78467C75.5192 1.78846 72.5331 2.08414 72.5331 3.69521Z" fill="url(#paint4_linear_2_47372)"/>
<path d="M9.68555 5.19646C9.68555 7.21694 11.9478 8.59299 16.6418 8.59299C18.4591 8.59299 20.3782 8.3428 20.6912 8.3011L20.9815 7.28138V6.99328C20.5743 7.03119 19.0209 7.25484 17.3431 7.25484C14.7378 7.25484 12.9808 6.66348 12.9808 5.19646C12.9808 3.75596 14.6549 3.13807 17.3921 3.13807C18.9531 3.13807 20.5856 3.34277 20.9853 3.39963L20.695 2.08803C20.2161 2.03875 18.5609 1.80372 16.7436 1.80372C11.9817 1.79993 9.68555 3.13049 9.68555 5.19646Z" fill="url(#paint5_linear_2_47372)"/>
<path d="M43.3433 8.31938H46.6838V3.1753C47.1438 3.14877 47.6528 3.0957 48.437 3.0957C49.2439 3.0957 49.8283 3.11086 50.3146 3.1753C51.3326 3.32314 51.6644 3.63399 51.6569 4.04339C51.6493 4.46796 51.2044 4.85461 50.1751 4.99866C49.504 5.08585 49.0478 5.09723 48.4521 5.09723C48.109 5.09723 47.8451 5.09343 47.4341 5.07448V5.23369L51.2308 8.32317L55.48 8.70225V8.32317L51.6305 5.71891C52.3959 5.67342 52.6636 5.63931 53.4214 5.41186C54.4432 5.10102 54.9408 4.60442 54.9446 4.04718C54.9559 3.31935 54.4545 2.68629 52.5844 2.29205C51.5475 2.0684 50.2355 1.97363 48.4672 1.96984C46.0692 1.96605 43.5883 2.05703 43.347 2.06461C43.3433 2.07598 43.3433 8.31938 43.3433 8.31938Z" fill="url(#paint6_linear_2_47372)"/>
<path d="M118.883 8.31938H122.223V3.1753C122.679 3.14877 123.188 3.0957 123.973 3.0957C124.783 3.0957 125.364 3.11086 125.858 3.1753C126.868 3.32314 127.2 3.63399 127.192 4.04339C127.181 4.46796 126.744 4.85461 125.711 4.99866C125.058 5.08585 124.587 5.09723 123.991 5.09723C123.641 5.09723 123.384 5.09343 122.977 5.07448V5.23369L126.774 8.32317L131.019 8.70225V8.32317L127.17 5.71891C127.935 5.67342 128.203 5.63931 128.964 5.41186C129.979 5.10102 130.484 4.60442 130.491 4.04718C130.495 3.31935 129.998 2.68629 128.124 2.29205C127.087 2.0684 125.779 1.97363 124.006 1.96984C121.601 1.96605 119.124 2.05703 118.883 2.06461C118.883 2.07598 118.883 8.31938 118.883 8.31938Z" fill="url(#paint7_linear_2_47372)"/>
<path d="M88.6926 8.70217H99.6153V7.45122H92.0294L92.0369 2.01904H88.6926V8.70217Z" fill="url(#paint8_linear_2_47372)"/>
<path d="M25.6831 2.01904V8.70217H29.0274C29.0274 8.70217 29.0274 6.05621 29.0274 5.97661C29.1028 5.97661 34.7583 5.97661 34.8337 5.97661C34.8337 6.05621 34.8337 8.70217 34.8337 8.70217H38.1705V2.01904H34.8337C34.8337 2.01904 34.8337 4.66121 34.8337 4.74082C34.7583 4.74082 29.1028 4.74082 29.0274 4.74082C29.0274 4.66121 29.0274 2.01904 29.0274 2.01904H25.6831Z" fill="url(#paint9_linear_2_47372)"/>
<path d="M67.5152 2.01904L64.4084 4.84317L61.1923 2.01904H57.3088C57.3088 2.01904 62.018 5.95766 62.0482 5.9804C62.0482 6.01831 62.0482 8.70217 62.0482 8.70217H65.3887C65.3887 8.70217 65.3887 5.96145 65.3887 5.91975C65.4151 5.90079 69.7736 2.01904 69.7736 2.01904H67.5152Z" fill="url(#paint10_linear_2_47372)"/>
<path d="M103.333 8.70217H114.475V7.57631H106.678V5.87047H114.181V4.7484H106.678V3.14111H114.331L114.335 2.01904H103.333V8.70217Z" fill="url(#paint11_linear_2_47372)"/>
<path d="M72.5331 3.75537C72.5331 5.302 74.3165 5.6735 76.7333 5.97297C79.2066 6.28381 80.3566 6.36342 80.3566 6.95099C80.3566 7.47032 79.6214 7.74705 77.4949 7.74705C75.0706 7.74705 73.0346 7.14432 72.7631 7.07229C72.748 7.13673 72.4502 8.47109 72.4502 8.47109C72.7971 8.5469 74.7049 8.99042 77.6344 8.99042C80.8543 8.99042 83.9611 8.4256 83.9611 6.67047C83.9611 5.4688 82.698 4.8509 79.1086 4.43012C77.6231 4.25575 76.0584 4.14582 76.0584 3.56583C76.0584 3.13747 76.4882 2.94035 78.6072 2.94035C80.7261 2.94035 82.468 3.39525 82.7545 3.45969L83.026 2.16703C82.6565 2.10259 80.5602 1.71973 77.8041 1.71973C75.5192 1.71973 72.5331 2.03815 72.5331 3.75537Z" fill="url(#paint12_linear_2_47372)"/>
<path d="M9.68555 5.36312C9.68555 7.52386 11.9478 8.99088 16.6418 8.99088C18.4591 8.99088 20.3782 8.72553 20.6912 8.68004L20.9815 7.28125C20.5743 7.32295 19.0209 7.56177 17.3431 7.56177C14.7378 7.56177 12.9808 6.9325 12.9808 5.36312C12.9808 3.82407 14.6549 3.16068 17.3921 3.16068C18.9531 3.16068 20.5856 3.38055 20.9853 3.4412L20.695 2.03861C20.2161 1.98554 18.5609 1.73535 16.7436 1.73535C11.9817 1.73535 9.68555 3.1531 9.68555 5.36312Z" fill="url(#paint13_linear_2_47372)"/>
<path d="M43.3435 8.70208H46.684V3.20547C47.144 3.17514 47.653 3.12207 48.4372 3.12207C49.2441 3.12207 49.8285 3.13723 50.3149 3.20926C51.3329 3.36847 51.6647 3.69827 51.6571 4.13421C51.6496 4.58531 51.2047 5.00229 50.1754 5.15392C49.5043 5.2449 49.048 5.26007 48.4523 5.26007C48.1092 5.26007 47.8453 5.25628 47.4343 5.23353L51.2311 8.70208H55.4802L51.6307 5.91966C52.3961 5.87038 52.6638 5.83247 53.4216 5.58986C54.4434 5.26006 54.9411 4.72936 54.9449 4.13421C54.9562 3.3571 54.4547 2.68234 52.5846 2.25778C51.5478 2.01896 50.2357 1.9204 48.4674 1.91661C46.0695 1.91282 43.5886 2.01138 43.3473 2.01896C43.3435 2.03033 43.3435 8.70208 43.3435 8.70208Z" fill="url(#paint14_linear_2_47372)"/>
<path d="M118.882 8.70208H122.223V3.20547C122.679 3.17514 123.188 3.12207 123.972 3.12207C124.783 3.12207 125.364 3.13723 125.857 3.20926C126.868 3.36847 127.2 3.69827 127.192 4.13421C127.181 4.58531 126.743 5.00229 125.71 5.15392C125.058 5.2449 124.587 5.26007 123.991 5.26007C123.64 5.26007 123.384 5.25628 122.977 5.23353L126.774 8.70208H131.019L127.17 5.91966C127.935 5.87038 128.203 5.83247 128.964 5.58986C129.978 5.26006 130.484 4.72936 130.491 4.13421C130.495 3.3571 129.997 2.68234 128.123 2.25778C127.087 2.01896 125.778 1.9204 124.006 1.91661C121.601 1.91282 119.124 2.01138 118.882 2.01896C118.882 2.03033 118.882 8.70208 118.882 8.70208Z" fill="url(#paint15_linear_2_47372)"/>
<path d="M71.2068 29.1839C69.5705 29.1157 66.8784 29.3659 66.0754 29.6805C65.1667 30.0406 64.8877 30.2794 62.6745 30.2794C60.4613 30.2794 56.1028 29.6805 56.1028 29.6805C56.1028 29.6805 9.80296 22.5766 8.54743 22.1444C7.29191 21.7123 5.73853 20.8821 3.98909 19.8207C2.23965 18.7593 1.24805 17.7964 1.24805 17.0989C1.24805 16.4014 2.33768 16.2346 2.33768 16.2346L53.4183 15.9124C53.4183 15.9124 55.5335 15.8252 56.2348 15.9996C56.9398 16.1778 60.0353 17.5841 60.9892 17.7699C63.2778 18.2134 71.2068 18.0353 71.2068 18.0353" fill="url(#paint16_linear_2_47372)"/>
<path d="M71.2068 29.1839C69.5705 29.1157 66.8784 29.3659 66.0754 29.6805C65.1667 30.0406 64.8877 30.2794 62.6745 30.2794C60.4613 30.2794 56.1028 29.6805 56.1028 29.6805C56.1028 29.6805 9.80296 22.5766 8.54743 22.1444C7.29191 21.7123 5.73853 20.8821 3.98909 19.8207C2.23965 18.7593 1.24805 17.7964 1.24805 17.0989C1.24805 16.4014 2.33768 16.2346 2.33768 16.2346L53.4183 15.9124C53.4183 15.9124 55.5335 15.8252 56.2348 15.9996C56.9398 16.1778 60.0353 17.5841 60.9892 17.7699C63.2778 18.2134 71.2068 18.0353 71.2068 18.0353" stroke="#B8B8B8"/>
<path d="M9.84814 18.4673L41.5718 18.9904C41.5718 18.9904 42.571 19.0397 43.2534 19.2292C43.9321 19.4188 44.6484 19.9495 44.6484 19.9495H52.6868C52.6868 19.9495 49.9307 20.0253 49.7045 20.139C49.4782 20.2527 49.6291 20.3286 49.6291 20.3286H43.8529L44.0791 20.556L45.8135 20.7834L47.1331 21.8828H53.4748C53.4748 21.8828 52.2683 22.1102 52.0421 22.2997C51.8159 22.4893 51.8159 22.4893 51.8159 22.4893H47.0614C47.0614 22.4893 47.2123 22.7546 47.8909 22.7926C48.5696 22.8305 48.645 22.9821 48.9466 23.0579C49.2482 23.1337 50.6093 24.3089 53.3617 25.1087C56.1178 25.9048 61.023 26.7387 61.023 26.7387C61.023 26.7387 53.9272 26.5871 50.8318 25.2603C47.7363 23.9336 43.5475 20.8593 42.6049 20.4802C41.6623 20.1011 40.6783 20.2148 40.6783 20.2148C40.6783 20.2148 19.127 19.343 16.6725 19.1534C14.2255 18.9601 9.84814 18.4673 9.84814 18.4673Z" fill="#191919"/>
<path d="M70.792 29.1839C72.4283 29.1157 75.1203 29.3659 75.9197 29.6805C76.8283 30.0406 77.1073 30.2794 79.3205 30.2794C81.5337 30.2794 85.8922 29.6805 85.8922 29.6805C85.8922 29.6805 132.196 22.5728 133.451 22.1444C134.707 21.7123 136.26 20.8821 138.01 19.8207C139.759 18.7593 140.751 17.7964 140.751 17.0989C140.751 16.4014 139.661 16.2346 139.661 16.2346L88.5805 15.9124C88.5805 15.9124 86.4653 15.8252 85.764 15.9996C85.059 16.1778 81.9635 17.5841 81.0096 17.7699C78.721 18.2134 70.792 18.0353 70.792 18.0353" fill="url(#paint17_linear_2_47372)"/>
<path d="M70.792 29.1839C72.4283 29.1157 75.1203 29.3659 75.9197 29.6805C76.8283 30.0406 77.1073 30.2794 79.3205 30.2794C81.5337 30.2794 85.8922 29.6805 85.8922 29.6805C85.8922 29.6805 132.196 22.5728 133.451 22.1444C134.707 21.7123 136.26 20.8821 138.01 19.8207C139.759 18.7593 140.751 17.7964 140.751 17.0989C140.751 16.4014 139.661 16.2346 139.661 16.2346L88.5805 15.9124C88.5805 15.9124 86.4653 15.8252 85.764 15.9996C85.059 16.1778 81.9635 17.5841 81.0096 17.7699C78.721 18.2134 70.792 18.0353 70.792 18.0353" stroke="#B8B8B8"/>
<path d="M132.151 18.4678L100.427 18.9909C100.427 18.9909 99.4282 19.0402 98.7458 19.2297C98.0672 19.4192 97.3508 19.95 97.3508 19.95H89.3124C89.3124 19.95 92.0685 20.0258 92.2948 20.1395C92.521 20.2532 92.3702 20.329 92.3702 20.329H98.1463L97.9201 20.5565L96.182 20.7839L94.8624 21.8832H88.5206C88.5206 21.8832 89.7271 22.1107 89.9534 22.3002C90.1796 22.4898 90.1796 22.4898 90.1796 22.4898H94.934C94.934 22.4898 94.7832 22.7551 94.1045 22.793C93.4259 22.8309 93.3505 22.9826 93.0488 23.0584C92.7472 23.1342 91.3899 24.3093 88.6337 25.1092C85.8776 25.9053 80.9724 26.7392 80.9724 26.7392C80.9724 26.7392 88.0682 26.5876 91.1637 25.2608C94.2591 23.9341 98.448 20.8597 99.3905 20.4807C100.333 20.1016 101.317 20.2153 101.317 20.2153C101.317 20.2153 122.868 19.3434 125.323 19.1539C127.774 18.9606 132.151 18.4678 132.151 18.4678Z" fill="#191919"/>
<path d="M71.211 24.2482C71.211 24.2482 65.2426 24.2255 61.4421 24.2482C57.6416 24.271 56.8347 23.7289 55.2663 22.3983C53.1624 20.6167 53.4188 19.7979 53.4188 19.7979H71.211" fill="white"/>
<path d="M71.2074 24.214C71.2074 24.214 65.3294 24.1913 61.5854 24.214C57.8415 24.2368 56.865 23.5658 55.485 22.3528C53.4453 20.5597 53.679 19.8281 53.679 19.8281H71.2036" fill="url(#paint18_linear_2_47372)"/>
<path d="M70.5803 24.2482C70.5803 24.2482 76.5488 24.2255 80.3493 24.2482C84.1498 24.271 84.9566 23.7289 86.5251 22.3983C88.629 20.6167 88.3726 19.7979 88.3726 19.7979H70.5803" fill="white"/>
<path d="M70.5847 24.214C70.5847 24.214 76.4627 24.1913 80.2067 24.214C83.9506 24.2368 84.9271 23.5658 86.3071 22.3528C88.3468 20.5597 88.1131 19.8281 88.1131 19.8281H70.0569" fill="url(#paint19_linear_2_47372)"/>
<path d="M74.4558 22.519H76.9442V22.2347H75.2136L75.2174 20.9951H74.4558V22.519Z" fill="white"/>
<path d="M74.5276 22.4739H76.869V22.2048H75.244V21.041H74.5276V22.4739Z" fill="url(#paint20_linear_2_47372)"/>
<path d="M60.9509 21.0073V22.5085H61.7012C61.7012 22.5085 61.7012 21.9133 61.7012 21.8982C61.7163 21.8982 62.9869 21.8982 63.0058 21.8982C63.0058 21.9171 63.0058 22.5085 63.0058 22.5085H63.7561V21.0073H63.0058C63.0058 21.0073 63.0058 21.6025 63.0058 21.6176C62.9907 21.6176 61.7163 21.6176 61.7012 21.6176C61.7012 21.5987 61.7012 21.0073 61.7012 21.0073H60.9509Z" fill="white"/>
<path d="M61.0156 21.041V22.4739H61.732C61.732 22.4739 61.732 21.9053 61.732 21.8902C61.7471 21.8902 62.9611 21.8902 62.9762 21.8902C62.9762 21.9053 62.9762 22.4739 62.9762 22.4739H63.6926V21.041H62.9762C62.9762 21.041 62.9762 21.6058 62.9762 21.6248C62.9611 21.6248 61.7471 21.6248 61.732 21.6248C61.732 21.6096 61.732 21.041 61.732 21.041H61.0156Z" fill="url(#paint21_linear_2_47372)"/>
<path d="M70.0563 20.9795L69.3361 21.6353L68.5896 20.9795H67.6885C67.6885 20.9795 68.7819 21.8931 68.7894 21.9006C68.7894 21.9082 68.7894 22.5337 68.7894 22.5337H69.5661C69.5661 22.5337 69.5661 21.8969 69.5661 21.8893C69.5736 21.8855 70.5841 20.9833 70.5841 20.9833H70.0563" fill="white"/>
<path d="M69.9892 21.041L69.3218 21.6475L68.6318 21.041H67.7986C67.7986 21.041 68.809 21.8864 68.8166 21.8902C68.8166 21.8977 68.8166 22.4739 68.8166 22.4739H69.5329C69.5329 22.4739 69.5329 21.8864 69.5329 21.8788C69.5405 21.875 70.4755 21.041 70.4755 21.041H69.9892Z" fill="url(#paint22_linear_2_47372)"/>
<path d="M77.5928 22.519H80.1302V22.2612H78.3544V21.8746H80.0624V21.6168H78.3544V21.2529H80.0963L80.1001 20.9951H77.5928V22.519Z" fill="white"/>
<path d="M77.6692 22.4739H80.0596V22.2313H78.3856V21.8674H79.9955V21.6286H78.3856V21.2798H80.0257L80.0294 21.041H77.6692V22.4739Z" fill="url(#paint23_linear_2_47372)"/>
<path d="M70.9768 21.3895C70.9768 21.7458 71.3877 21.8292 71.942 21.9012C72.5113 21.9733 72.7752 21.9922 72.7752 22.1249C72.7752 22.2462 72.6055 22.3069 72.1192 22.3069C71.5612 22.3069 71.0936 22.1704 71.0333 22.1514C71.0295 22.1666 70.9617 22.4736 70.9617 22.4736C71.0408 22.4926 71.4782 22.5912 72.1531 22.5912C72.8921 22.5912 73.6085 22.4623 73.6085 22.0567C73.6085 21.7799 73.3181 21.6397 72.4924 21.5411C72.1531 21.4994 71.7912 21.4767 71.7912 21.344C71.7912 21.2454 71.8892 21.1999 72.3755 21.1999C72.8619 21.1999 73.2654 21.3061 73.3294 21.3175L73.3935 21.0218C73.3068 21.0066 72.828 20.9194 72.1946 20.9194C71.663 20.9194 70.9768 20.9952 70.9768 21.3895Z" fill="white"/>
<path d="M71.063 21.412C71.063 21.7418 71.4438 21.8252 71.9642 21.8897C72.4958 21.9541 72.7408 21.973 72.7408 22.0981C72.7408 22.2081 72.5825 22.2687 72.1263 22.2687C71.606 22.2687 71.1686 22.1398 71.1121 22.1247C71.1083 22.1398 71.0442 22.4242 71.0442 22.4242C71.1196 22.4393 71.5268 22.5341 72.1564 22.5341C72.8464 22.5341 73.5138 22.4128 73.5138 22.0375C73.5138 21.7797 73.2423 21.647 72.4732 21.5561C72.1564 21.5182 71.8209 21.4954 71.8209 21.3703C71.8209 21.2793 71.9114 21.2376 72.3676 21.2376C72.8238 21.2376 73.1971 21.3362 73.2574 21.3476L73.3139 21.0708C73.2348 21.0557 72.7861 20.9761 72.1941 20.9761C71.704 20.9761 71.063 21.0443 71.063 21.412Z" fill="url(#paint24_linear_2_47372)"/>
<path d="M57.52 21.7573C57.52 22.2463 58.0328 22.5761 59.0923 22.5761C59.5032 22.5761 59.9368 22.5154 60.0084 22.5041L60.0725 22.1894C59.9821 22.2008 59.6276 22.2539 59.2506 22.2539C58.6624 22.2539 58.2628 22.1098 58.2628 21.7573C58.2628 21.4085 58.6398 21.2607 59.2619 21.2607C59.6163 21.2607 59.9858 21.31 60.0725 21.3251L60.0084 21.0067C59.8991 20.9953 59.5258 20.9385 59.1149 20.9385C58.0366 20.9385 57.52 21.2569 57.52 21.7573Z" fill="white"/>
<path d="M57.5845 21.7566C57.5845 22.2191 58.0708 22.5337 59.0775 22.5337C59.4659 22.5337 59.8806 22.4768 59.9447 22.4655L60.0088 22.166C59.9221 22.1736 59.5865 22.2266 59.2283 22.2266C58.6703 22.2266 58.2933 22.0902 58.2933 21.7566C58.2933 21.4268 58.6515 21.2827 59.2397 21.2827C59.5752 21.2827 59.9259 21.3282 60.0088 21.3434L59.9447 21.0439C59.8429 21.0326 59.4885 20.9795 59.0964 20.9795C58.0784 20.9795 57.5845 21.2827 57.5845 21.7566Z" fill="url(#paint25_linear_2_47372)"/>
<path d="M64.7587 22.4963H65.4976V21.2794C65.5994 21.2718 65.7126 21.2605 65.886 21.2605C66.0632 21.2605 66.1952 21.2643 66.3007 21.2794C66.5269 21.3135 66.5986 21.3894 66.5986 21.4841C66.5986 21.5827 66.5006 21.6775 66.2706 21.7116C66.1235 21.7305 66.0217 21.7343 65.8898 21.7343C65.8143 21.7343 65.754 21.7343 65.6635 21.7305L66.5043 22.5001H67.4469L66.5948 21.8822C66.7645 21.8708 66.8248 21.8632 66.9907 21.8101C67.2169 21.7381 67.3263 21.6206 67.3263 21.4879C67.33 21.3173 67.2169 21.1657 66.8022 21.0709C66.5722 21.0179 66.2819 20.9951 65.8898 20.9951C65.3581 20.9951 64.8077 21.0141 64.7549 21.0179C64.7587 21.0217 64.7587 22.4963 64.7587 22.4963Z" fill="white"/>
<path d="M64.804 22.4733H65.5203V21.2944C65.6183 21.2868 65.7277 21.2755 65.8974 21.2755C66.0708 21.2755 66.1952 21.2793 66.3008 21.2944C66.5195 21.3285 66.5911 21.4006 66.5873 21.4915C66.5873 21.5901 66.4893 21.6773 66.2706 21.7114C66.1273 21.7304 66.0293 21.7342 65.9011 21.7342C65.8257 21.7342 65.7692 21.7341 65.6824 21.7304L66.4968 22.4733H67.4093L66.5836 21.8782C66.7457 21.8668 66.806 21.8592 66.9681 21.8062C67.1868 21.7342 67.2924 21.6204 67.2961 21.4953C67.2999 21.3285 67.1906 21.1845 66.7909 21.0935C66.5685 21.0442 66.2857 21.0215 65.9087 21.0215C65.3959 21.0215 64.8643 21.0404 64.8115 21.0442C64.804 21.0442 64.804 22.4733 64.804 22.4733Z" fill="url(#paint26_linear_2_47372)"/>
<path d="M80.9221 22.5192H81.6837V21.2682C81.7893 21.2606 81.9024 21.2493 82.0834 21.2493C82.2681 21.2493 82.4001 21.2531 82.5132 21.2682C82.7432 21.3061 82.8186 21.3782 82.8148 21.4805C82.8111 21.5829 82.713 21.6776 82.4755 21.7117C82.3285 21.7345 82.2191 21.7345 82.0834 21.7345C82.0042 21.7345 81.9439 21.7345 81.8534 21.7269L82.7168 22.5154H83.682L82.8073 21.8823C82.9807 21.871 83.041 21.8634 83.2145 21.8065C83.4445 21.7307 83.5614 21.6094 83.5614 21.4767C83.5614 21.2986 83.4483 21.1469 83.0222 21.0484C82.7847 20.9953 82.4906 20.9725 82.0872 20.9688C81.5405 20.9688 80.9749 20.9915 80.9221 20.9915C80.9221 20.9991 80.9221 22.5192 80.9221 22.5192Z" fill="white"/>
<path d="M81.0022 22.4733H81.7186V21.2944C81.8166 21.2868 81.9259 21.2755 82.0918 21.2755C82.2653 21.2755 82.3897 21.2793 82.4953 21.2944C82.7102 21.3285 82.7818 21.4006 82.7818 21.4915C82.778 21.5901 82.6838 21.6773 82.4651 21.7114C82.3256 21.7304 82.2238 21.7342 82.0956 21.7342C82.0202 21.7342 81.9674 21.7341 81.8769 21.7304L82.6913 22.4733H83.6037L82.778 21.8782C82.9439 21.8668 83.0005 21.8592 83.1626 21.8062C83.3813 21.7342 83.4869 21.6204 83.4906 21.4953C83.4906 21.3285 83.3851 21.1845 82.9816 21.0935C82.7592 21.0442 82.4802 21.0215 82.0994 21.0215C81.5828 21.0215 81.0512 21.0404 81.0022 21.0442V22.4733Z" fill="url(#paint27_linear_2_47372)"/>
<path d="M53.6179 21.0493H46.1526L47.2309 21.978H54.519" fill="url(#paint28_linear_2_47372)"/>
<path d="M52.6902 19.9459C52.6902 19.9459 50.7485 19.9421 50.1453 19.9989C49.5873 20.0558 49.4138 20.3363 49.4138 20.3363C49.4138 20.3363 50.8239 20.7571 51.4498 20.7457C51.8796 20.7684 53.3764 20.867 53.3764 20.867L52.6902 19.9459Z" fill="#929292"/>
<path d="M51.7895 22.4858H46.8579C46.8579 22.4858 47.2538 23.0166 47.9589 23.0393C48.6639 23.062 54.5645 23.0393 54.5645 23.0393L51.7895 22.4858Z" fill="#F2F2F2"/>
<path d="M90.0548 22.4858H94.9864C94.9864 22.4858 94.5905 23.0166 93.8854 23.0393C93.1804 23.062 87.2798 23.0393 87.2798 23.0393L90.0548 22.4858Z" fill="#F2F2F2"/>
<path d="M53.9463 22.0232C53.3468 22.0459 53.1356 22.0118 52.932 22.027C52.1403 22.0952 51.7104 22.4933 51.7104 22.4933C51.7104 22.4933 52.3589 22.7321 53.064 22.8647C53.7691 22.9974 54.9152 23.0846 54.9152 23.0846" fill="#848C8E"/>
<path d="M88.4031 21.0493H95.8683L94.79 21.978H87.502" fill="url(#paint29_linear_2_47372)"/>
<path d="M89.3307 19.9458C89.3307 19.9458 91.1669 19.9458 91.7702 20.0065C92.3282 20.0633 92.6072 20.34 92.6072 20.34C92.6072 20.34 91.1971 20.7608 90.5712 20.7494C90.1414 20.7722 88.6445 20.8707 88.6445 20.8707L89.3307 19.9458Z" fill="#929292"/>
<path d="M88.0754 22.0232C88.6749 22.0459 88.8861 22.0118 89.0897 22.027C89.8814 22.0952 90.4206 22.4933 90.4206 22.4933C90.4206 22.4933 89.6627 22.7321 88.9577 22.8647C88.2526 22.9974 87.1064 23.0846 87.1064 23.0846" fill="#848C8E"/>
<path d="M71.1648 28.9838C71.1648 28.9838 69.4079 28.9686 68.0618 29.1657C65.5508 29.5296 65.9165 29.7798 64.5931 30.1134C63.2735 30.447 58.2853 29.8139 58.2853 29.8139C58.2853 29.8139 14.5267 23.1005 12.0798 22.71C8.54695 22.1452 8.69399 22.2438 5.93787 20.8488C2.23916 18.9799 1.28149 17.3271 1.28149 17.3271C1.28149 17.3271 1.94131 17.6569 2.86504 18.2559C7.55535 21.2923 7.96632 21.1445 8.87497 21.4894C11.484 22.475 52.0718 28.3507 52.0718 28.3507C52.0718 28.3507 61.2526 30.0111 62.772 29.4121C64.2915 28.8132 65.1587 28.2521 65.875 28.0854C68.4502 27.4864 72.0471 27.6797 72.0471 27.6797" fill="black"/>
<path d="M70.834 28.9827C70.834 28.9827 72.591 28.9675 73.937 29.1646C76.4481 29.5285 76.0823 29.7787 77.4057 30.1123C78.7253 30.4459 83.7135 29.8128 83.7135 29.8128C83.7135 29.8128 127.472 23.0994 129.915 22.7052C133.448 22.1403 133.278 22.182 136.057 20.8439C139.888 19.0016 140.714 17.3223 140.714 17.3223C140.714 17.3223 140.054 17.6521 139.13 18.251C134.44 21.2874 134.029 21.1396 133.12 21.4845C130.511 22.4701 89.9233 28.3458 89.9233 28.3458C89.9233 28.3458 80.7425 30.0062 79.223 29.4072C77.7036 28.8083 76.8364 28.2473 76.12 28.0805C73.5449 27.4815 70.144 27.6938 70.144 27.6938" fill="black"/>
<path d="M71.5275 18.2593C71.5275 18.2593 61.6869 18.2593 60.5973 17.9257C59.847 17.6983 57.5584 16.5648 56.8307 16.3336C56.103 16.1024 54.5195 16 54.5195 16C54.5195 16 2.91101 16.3108 2.44725 16.3753C1.9835 16.4435 1.51221 16.7619 1.51221 16.7619C1.51221 16.7619 4.72831 17.3002 6.21383 17.414C21.6496 18.608 55.0813 18.0243 56.3029 18.1873C57.5245 18.3541 58.3841 19.2487 60.0016 19.2487C61.619 19.2487 71.6934 19.2487 71.6934 19.2487" fill="url(#paint30_linear_2_47372)"/>
<path d="M70.3734 18.2593C70.3734 18.2593 80.214 18.2593 81.3036 17.9257C82.0539 17.6983 84.3425 16.5648 85.0702 16.3336C85.7979 16.1024 87.3814 16 87.3814 16C87.3814 16 138.99 16.3108 139.454 16.3753C139.917 16.4435 140.389 16.7619 140.389 16.7619C140.389 16.7619 137.173 17.3002 135.687 17.414C120.251 18.608 86.8197 18.0243 85.5981 18.1873C84.3765 18.3541 83.5168 19.2487 81.8994 19.2487C80.2819 19.2487 70.2075 19.2487 70.2075 19.2487" fill="url(#paint31_linear_2_47372)"/>
<defs>
<linearGradient id="paint0_linear_2_47372" x1="94.154" y1="8.32123" x2="94.154" y2="2.06509" gradientUnits="userSpaceOnUse">
<stop stop-color="white"/>
<stop offset="0.2528" stop-color="#1E1E1E"/>
<stop offset="0.6629" stop-color="#C7C7C7"/>
<stop offset="0.8989" stop-color="#C7C7C7"/>
</linearGradient>
<linearGradient id="paint1_linear_2_47372" x1="31.9257" y1="8.32123" x2="31.9257" y2="2.06509" gradientUnits="userSpaceOnUse">
<stop stop-color="white"/>
<stop offset="0.2528" stop-color="#1E1E1E"/>
<stop offset="0.6629" stop-color="#C7C7C7"/>
<stop offset="0.8989" stop-color="#C7C7C7"/>
</linearGradient>
<linearGradient id="paint2_linear_2_47372" x1="63.5399" y1="8.32103" x2="63.5399" y2="2.04332" gradientUnits="userSpaceOnUse">
<stop stop-color="white"/>
<stop offset="0.2528" stop-color="#1E1E1E"/>
<stop offset="0.6629" stop-color="#C7C7C7"/>
<stop offset="0.8989" stop-color="#C7C7C7"/>
</linearGradient>
<linearGradient id="paint3_linear_2_47372" x1="108.905" y1="8.32123" x2="108.905" y2="2.06509" gradientUnits="userSpaceOnUse">
<stop stop-color="white"/>
<stop offset="0.2528" stop-color="#1E1E1E"/>
<stop offset="0.6629" stop-color="#C7C7C7"/>
<stop offset="0.8989" stop-color="#C7C7C7"/>
</linearGradient>
<linearGradient id="paint4_linear_2_47372" x1="78.2067" y1="8.59179" x2="78.2067" y2="1.78736" gradientUnits="userSpaceOnUse">
<stop stop-color="white"/>
<stop offset="0.2528" stop-color="#1E1E1E"/>
<stop offset="0.6629" stop-color="#C7C7C7"/>
<stop offset="0.8989" stop-color="#C7C7C7"/>
</linearGradient>
<linearGradient id="paint5_linear_2_47372" x1="15.3335" y1="8.59189" x2="15.3335" y2="1.80016" gradientUnits="userSpaceOnUse">
<stop stop-color="white"/>
<stop offset="0.2528" stop-color="#1E1E1E"/>
<stop offset="0.6629" stop-color="#C7C7C7"/>
<stop offset="0.8989" stop-color="#C7C7C7"/>
</linearGradient>
<linearGradient id="paint6_linear_2_47372" x1="49.4114" y1="8.70096" x2="49.4114" y2="1.96817" gradientUnits="userSpaceOnUse">
<stop stop-color="white"/>
<stop offset="0.2528" stop-color="#1E1E1E"/>
<stop offset="0.6629" stop-color="#C7C7C7"/>
<stop offset="0.8989" stop-color="#C7C7C7"/>
</linearGradient>
<linearGradient id="paint7_linear_2_47372" x1="124.951" y1="8.70096" x2="124.951" y2="1.96817" gradientUnits="userSpaceOnUse">
<stop stop-color="white"/>
<stop offset="0.2528" stop-color="#1E1E1E"/>
<stop offset="0.6629" stop-color="#C7C7C7"/>
<stop offset="0.8989" stop-color="#C7C7C7"/>
</linearGradient>
<linearGradient id="paint8_linear_2_47372" x1="94.154" y1="8.70088" x2="94.154" y2="2.01719" gradientUnits="userSpaceOnUse">
<stop offset="0.0281" stop-color="#3C3C3C"/>
<stop offset="0.0618" stop-color="#2D2D2D"/>
<stop offset="0.2362" stop-color="#787878"/>
<stop offset="0.3427" stop-color="#A1A1A1"/>
<stop offset="0.5787" stop-color="#A3A3A3"/>
<stop offset="0.7809" stop-color="#E9E9E9"/>
<stop offset="0.9101" stop-color="#CCCCCC"/>
<stop offset="1" stop-color="#8B8B8B"/>
</linearGradient>
<linearGradient id="paint9_linear_2_47372" x1="31.9257" y1="8.70088" x2="31.9257" y2="2.01719" gradientUnits="userSpaceOnUse">
<stop offset="0.0281" stop-color="#3C3C3C"/>
<stop offset="0.0618" stop-color="#2D2D2D"/>
<stop offset="0.2362" stop-color="#787878"/>
<stop offset="0.3427" stop-color="#A1A1A1"/>
<stop offset="0.5787" stop-color="#5B5B5B"/>
<stop offset="0.7809" stop-color="#E9E9E9"/>
<stop offset="0.9101" stop-color="#CCCCCC"/>
<stop offset="1" stop-color="#8B8B8B"/>
</linearGradient>
<linearGradient id="paint10_linear_2_47372" x1="63.5437" y1="8.70088" x2="63.5437" y2="2.01719" gradientUnits="userSpaceOnUse">
<stop offset="0.0281" stop-color="#3C3C3C"/>
<stop offset="0.0618" stop-color="#2D2D2D"/>
<stop offset="0.2362" stop-color="#787878"/>
<stop offset="0.3427" stop-color="#A1A1A1"/>
<stop offset="0.5787" stop-color="#444444"/>
<stop offset="0.7809" stop-color="#E9E9E9"/>
<stop offset="0.9101" stop-color="#CCCCCC"/>
<stop offset="1" stop-color="#8B8B8B"/>
</linearGradient>
<linearGradient id="paint11_linear_2_47372" x1="108.905" y1="8.70088" x2="108.905" y2="2.01719" gradientUnits="userSpaceOnUse">
<stop offset="0.0281" stop-color="#3C3C3C"/>
<stop offset="0.0618" stop-color="#2D2D2D"/>
<stop offset="0.2362" stop-color="#787878"/>
<stop offset="0.3427" stop-color="#A1A1A1"/>
<stop offset="0.5787" stop-color="#4D4D4D"/>
<stop offset="0.7809" stop-color="#E9E9E9"/>
<stop offset="0.9101" stop-color="#CCCCCC"/>
<stop offset="1" stop-color="#8B8B8B"/>
</linearGradient>
<linearGradient id="paint12_linear_2_47372" x1="78.2067" y1="8.98978" x2="78.2067" y2="1.72045" gradientUnits="userSpaceOnUse">
<stop offset="0.0281" stop-color="#3C3C3C"/>
<stop offset="0.0618" stop-color="#2D2D2D"/>
<stop offset="0.2362" stop-color="#787878"/>
<stop offset="0.3427" stop-color="#A1A1A1"/>
<stop offset="0.5787" stop-color="#535353"/>
<stop offset="0.7809" stop-color="#E9E9E9"/>
<stop offset="0.9101" stop-color="#CCCCCC"/>
<stop offset="1" stop-color="#8B8B8B"/>
</linearGradient>
<linearGradient id="paint13_linear_2_47372" x1="15.3335" y1="8.99024" x2="15.3335" y2="1.73452" gradientUnits="userSpaceOnUse">
<stop offset="0.0281" stop-color="#3C3C3C"/>
<stop offset="0.0618" stop-color="#2D2D2D"/>
<stop offset="0.2362" stop-color="#787878"/>
<stop offset="0.3427" stop-color="#A1A1A1"/>
<stop offset="0.5787" stop-color="#494949"/>
<stop offset="0.7809" stop-color="#E9E9E9"/>
<stop offset="0.9101" stop-color="#CCCCCC"/>
<stop offset="1" stop-color="#8B8B8B"/>
</linearGradient>
<linearGradient id="paint14_linear_2_47372" x1="49.4117" y1="8.7008" x2="49.4117" y2="1.91403" gradientUnits="userSpaceOnUse">
<stop offset="0.0281" stop-color="#3C3C3C"/>
<stop offset="0.0618" stop-color="#2D2D2D"/>
<stop offset="0.2362" stop-color="#787878"/>
<stop offset="0.3427" stop-color="#A1A1A1"/>
<stop offset="0.5787" stop-color="#717171"/>
<stop offset="0.7809" stop-color="#E9E9E9"/>
<stop offset="0.9101" stop-color="#CCCCCC"/>
<stop offset="1" stop-color="#8B8B8B"/>
</linearGradient>
<linearGradient id="paint15_linear_2_47372" x1="124.95" y1="8.7008" x2="124.95" y2="1.91403" gradientUnits="userSpaceOnUse">
<stop offset="0.0281" stop-color="#3C3C3C"/>
<stop offset="0.0618" stop-color="#2D2D2D"/>
<stop offset="0.2362" stop-color="#787878"/>
<stop offset="0.3427" stop-color="#A1A1A1"/>
<stop offset="0.5787" stop-color="white"/>
<stop offset="0.7809" stop-color="#E9E9E9"/>
<stop offset="0.9101" stop-color="#CCCCCC"/>
<stop offset="1" stop-color="#8B8B8B"/>
</linearGradient>
<linearGradient id="paint16_linear_2_47372" x1="35.8045" y1="27.9967" x2="37.0109" y2="14.2812" gradientUnits="userSpaceOnUse">
<stop offset="0.0281" stop-color="#3C3C3C"/>
<stop offset="0.0618" stop-color="#2D2D2D"/>
<stop offset="0.2183" stop-color="#8F8F8F"/>
<stop offset="0.2921" stop-color="#B8B8B8"/>
<stop offset="0.5169" stop-color="#474747"/>
<stop offset="0.5787" stop-color="white"/>
<stop offset="0.7809" stop-color="#E9E9E9"/>
<stop offset="0.882" stop-color="#CCCCCC"/>
<stop offset="0.9382" stop-color="#8B8B8B"/>
<stop offset="1" stop-color="#606060"/>
</linearGradient>
<linearGradient id="paint17_linear_2_47372" x1="106.195" y1="27.9966" x2="104.988" y2="14.2811" gradientUnits="userSpaceOnUse">
<stop offset="0.0281" stop-color="#3C3C3C"/>
<stop offset="0.0618" stop-color="#2D2D2D"/>
<stop offset="0.2183" stop-color="#8F8F8F"/>
<stop offset="0.2921" stop-color="#B8B8B8"/>
<stop offset="0.5169" stop-color="#474747"/>
<stop offset="0.5787" stop-color="white"/>
<stop offset="0.7809" stop-color="#E9E9E9"/>
<stop offset="0.882" stop-color="#CCCCCC"/>
<stop offset="0.9382" stop-color="#8B8B8B"/>
<stop offset="1" stop-color="#606060"/>
</linearGradient>
<linearGradient id="paint18_linear_2_47372" x1="62.4422" y1="24.2136" x2="62.4422" y2="19.83" gradientUnits="userSpaceOnUse">
<stop offset="0.00561798"/>
<stop offset="0.118" stop-color="#00205F"/>
<stop offset="0.3315" stop-color="#00053F"/>
<stop offset="0.7584" stop-color="#000747"/>
<stop offset="0.8989" stop-color="#001E9F"/>
<stop offset="1"/>
</linearGradient>
<linearGradient id="paint19_linear_2_47372" x1="79.0887" y1="24.2136" x2="79.0887" y2="19.83" gradientUnits="userSpaceOnUse">
<stop offset="0.00561798"/>
<stop offset="0.118" stop-color="#00205F"/>
<stop offset="0.3315" stop-color="#00053F"/>
<stop offset="0.7584" stop-color="#000747"/>
<stop offset="0.8989" stop-color="#001E9F"/>
<stop offset="1"/>
</linearGradient>
<linearGradient id="paint20_linear_2_47372" x1="75.6991" y1="22.4743" x2="75.6991" y2="21.0409" gradientUnits="userSpaceOnUse">
<stop offset="0.0281" stop-color="#686868"/>
<stop offset="0.3427" stop-color="#A1A1A1"/>
<stop offset="0.5787" stop-color="white"/>
<stop offset="0.7809" stop-color="#E9E9E9"/>
<stop offset="0.9101" stop-color="#CCCCCC"/>
<stop offset="1" stop-color="#8B8B8B"/>
</linearGradient>
<linearGradient id="paint21_linear_2_47372" x1="62.3546" y1="22.4743" x2="62.3546" y2="21.0409" gradientUnits="userSpaceOnUse">
<stop offset="0.0281" stop-color="#686868"/>
<stop offset="0.3427" stop-color="#A1A1A1"/>
<stop offset="0.5787" stop-color="white"/>
<stop offset="0.7809" stop-color="#E9E9E9"/>
<stop offset="0.9101" stop-color="#CCCCCC"/>
<stop offset="1" stop-color="#8B8B8B"/>
</linearGradient>
<linearGradient id="paint22_linear_2_47372" x1="69.1355" y1="22.4743" x2="69.1355" y2="21.0409" gradientUnits="userSpaceOnUse">
<stop offset="0.0281" stop-color="#686868"/>
<stop offset="0.3427" stop-color="#A1A1A1"/>
<stop offset="0.5787" stop-color="white"/>
<stop offset="0.7809" stop-color="#E9E9E9"/>
<stop offset="0.9101" stop-color="#CCCCCC"/>
<stop offset="1" stop-color="#8B8B8B"/>
</linearGradient>
<linearGradient id="paint23_linear_2_47372" x1="78.8634" y1="22.4743" x2="78.8634" y2="21.0409" gradientUnits="userSpaceOnUse">
<stop offset="0.0281" stop-color="#686868"/>
<stop offset="0.3427" stop-color="#A1A1A1"/>
<stop offset="0.5787" stop-color="white"/>
<stop offset="0.7809" stop-color="#E9E9E9"/>
<stop offset="0.9101" stop-color="#CCCCCC"/>
<stop offset="1" stop-color="#8B8B8B"/>
</linearGradient>
<linearGradient id="paint24_linear_2_47372" x1="72.2796" y1="22.5357" x2="72.2796" y2="20.9768" gradientUnits="userSpaceOnUse">
<stop offset="0.0281" stop-color="#686868"/>
<stop offset="0.3427" stop-color="#A1A1A1"/>
<stop offset="0.5787" stop-color="white"/>
<stop offset="0.7809" stop-color="#E9E9E9"/>
<stop offset="0.9101" stop-color="#CCCCCC"/>
<stop offset="1" stop-color="#8B8B8B"/>
</linearGradient>
<linearGradient id="paint25_linear_2_47372" x1="58.7961" y1="22.5353" x2="58.7961" y2="20.9792" gradientUnits="userSpaceOnUse">
<stop offset="0.0281" stop-color="#686868"/>
<stop offset="0.3427" stop-color="#A1A1A1"/>
<stop offset="0.5787" stop-color="white"/>
<stop offset="0.7809" stop-color="#E9E9E9"/>
<stop offset="0.9101" stop-color="#CCCCCC"/>
<stop offset="1" stop-color="#8B8B8B"/>
</linearGradient>
<linearGradient id="paint26_linear_2_47372" x1="66.1038" y1="22.4737" x2="66.1038" y2="21.0183" gradientUnits="userSpaceOnUse">
<stop offset="0.0281" stop-color="#686868"/>
<stop offset="0.3427" stop-color="#A1A1A1"/>
<stop offset="0.5787" stop-color="white"/>
<stop offset="0.7809" stop-color="#E9E9E9"/>
<stop offset="0.9101" stop-color="#CCCCCC"/>
<stop offset="1" stop-color="#8B8B8B"/>
</linearGradient>
<linearGradient id="paint27_linear_2_47372" x1="82.3048" y1="22.4737" x2="82.3048" y2="21.0183" gradientUnits="userSpaceOnUse">
<stop offset="0.0281" stop-color="#686868"/>
<stop offset="0.3427" stop-color="#A1A1A1"/>
<stop offset="0.5787" stop-color="white"/>
<stop offset="0.7809" stop-color="#E9E9E9"/>
<stop offset="0.9101" stop-color="#CCCCCC"/>
<stop offset="1" stop-color="#8B8B8B"/>
</linearGradient>
<linearGradient id="paint28_linear_2_47372" x1="54.5191" y1="21.513" x2="46.1525" y2="21.513" gradientUnits="userSpaceOnUse">
<stop offset="0.1461" stop-color="#DADADA"/>
<stop offset="1" stop-color="#666666"/>
</linearGradient>
<linearGradient id="paint29_linear_2_47372" x1="87.5014" y1="21.513" x2="95.8679" y2="21.513" gradientUnits="userSpaceOnUse">
<stop offset="0.1461" stop-color="#DADADA"/>
<stop offset="1" stop-color="#666666"/>
</linearGradient>
<linearGradient id="paint30_linear_2_47372" x1="36.6028" y1="19.255" x2="36.6028" y2="16.0009" gradientUnits="userSpaceOnUse">
<stop offset="0.0281" stop-color="#B0B0B0"/>
<stop offset="0.3258" stop-color="#DCDCDC"/>
<stop offset="0.5787" stop-color="#B5B5B5"/>
<stop offset="0.6798" stop-color="#9D9D9D"/>
<stop offset="0.9382" stop-color="#8B8B8B"/>
</linearGradient>
<linearGradient id="paint31_linear_2_47372" x1="105.297" y1="19.255" x2="105.297" y2="16.0009" gradientUnits="userSpaceOnUse">
<stop offset="0.0281" stop-color="#B0B0B0"/>
<stop offset="0.3258" stop-color="#DCDCDC"/>
<stop offset="0.5787" stop-color="#B5B5B5"/>
<stop offset="0.6798" stop-color="#9D9D9D"/>
<stop offset="0.9382" stop-color="#8B8B8B"/>
</linearGradient>
</defs>
</svg>
