<svg width="78" height="78" viewBox="0 0 78 78" fill="none" xmlns="http://www.w3.org/2000/svg">
<g clip-path="url(#clip0_2_46723)">
<path d="M15.2842 14.6719C8.8102 21.1498 5.2417 29.7571 5.2417 38.9182C5.2417 48.0793 8.8102 56.6866 15.2842 63.1645C21.7621 69.6424 30.3694 73.207 39.5305 73.207C48.6916 73.207 57.2989 69.6424 63.7768 63.1645C70.2547 56.6866 73.8193 48.0793 73.8193 38.9182C73.8193 29.7571 70.2547 21.1498 63.7768 14.6719C57.2989 8.19399 48.6916 4.62939 39.5305 4.62939C30.3694 4.62939 21.7621 8.19789 15.2842 14.6719Z" fill="#9D9D9C"/>
<path d="M15.6548 15.0423C22.0313 8.66576 30.5099 5.15186 39.5267 5.15186C48.5435 5.15186 57.0221 8.66186 63.3986 15.0423C69.7751 21.4188 73.289 29.8974 73.289 38.9142C73.289 47.931 69.779 56.4095 63.3986 62.786C57.0221 69.1625 48.5435 72.6765 39.5267 72.6765C30.5099 72.6765 22.0313 69.1665 15.6548 62.786C9.2783 56.4095 5.7644 47.931 5.7644 38.9142C5.7683 29.8974 9.2783 21.4188 15.6548 15.0423Z" fill="url(#paint0_linear_2_46723)"/>
<path d="M22.8972 64.2019C25.1787 65.5747 27.7566 66.4522 27.7566 66.4522C30.6621 67.3921 35.5449 68.2384 39.2499 68.059C44.7177 68.2267 47.9313 67.6924 51.375 66.5107C56.2032 64.7284 59.37 61.9711 59.37 61.9711C59.37 61.9711 60.0564 61.4719 60.7506 60.5242C61.5618 59.4166 62.3925 57.8293 62.3925 57.8293C62.3925 57.8293 67.1973 49.2883 68.2386 39.8971C69.5529 30.1081 66.4641 22.819 66.4641 22.819C66.4641 22.819 66.1404 21.8206 65.5437 20.7832C64.9353 19.7224 64.05 18.6226 64.05 18.6226C57.303 11.8756 48.9882 9.48486 39.3981 9.48486C30.8025 9.48486 22.9245 12.2851 16.7976 16.9378C16.7976 16.9378 14.5044 18.8956 13.0575 21.7699C11.6847 24.496 11.1543 28.1425 11.1543 28.1425C11.1543 28.1425 10.1676 35.5642 11.8095 44.0389C13.1901 51.5854 16.5402 57.5719 16.5402 57.5719C16.5402 57.5719 17.5542 59.5804 18.7749 61.0546C18.7749 61.0546 20.3622 62.872 22.8972 64.2019Z" fill="url(#paint1_radial_2_46723)"/>
<path d="M38.1658 14.0867C34.4998 14.1608 30.0694 14.66 26.8792 15.3659C22.9207 16.2395 20.8381 17.2769 20.6626 17.3627C20.4832 17.4407 18.6034 18.2597 17.5699 19.9679C16.4389 21.836 16.2283 24.5426 16.2205 24.6557C16.2166 24.6869 15.9631 27.5378 15.9631 30.689C15.9631 31.4846 15.9787 32.2958 16.0216 33.0875C16.2595 37.7597 17.1136 42.1511 17.1214 42.194C17.1253 42.2252 17.8312 46.5542 18.8569 50.4737C19.9723 54.7325 21.4465 58.7183 21.4621 58.7573C21.4777 58.8002 21.8989 59.9897 22.8739 60.9335C23.7826 61.8149 25.1554 62.4272 25.2763 62.4779C25.4323 62.5559 27.8074 63.7181 30.5842 64.3538C33.7783 65.0831 37.4287 65.2664 37.4638 65.2664C37.5223 65.2664 42.1945 65.3483 45.8956 64.853C49.5265 64.3655 52.198 63.3203 52.3072 63.2735L52.3228 63.2657C52.3735 63.2423 53.5981 62.7002 54.5419 62.1776C55.357 61.7252 55.8835 61.3001 55.942 61.2533C56.0395 61.187 56.8468 60.5903 57.4201 59.5646C58.0246 58.4804 58.4692 57.1076 58.5121 56.9165C58.5862 56.7059 59.5261 53.7497 60.3139 50.4971C61.4059 45.9965 62.3614 40.6652 62.3731 40.6106C62.3809 40.556 63.0907 35.9891 63.2467 31.8629C63.2701 31.2779 63.2779 30.7046 63.2779 30.143C63.2779 27.0698 62.9932 24.5621 62.9815 24.4646C62.9659 24.2735 62.7241 21.29 61.2265 19.3556C59.7562 17.4602 57.1471 16.6997 56.8936 16.6256C56.6635 16.5359 54.1402 15.557 50.1973 14.8706C46.8472 14.3012 42.3505 14.0048 38.1658 14.0867Z" fill="white"/>
<path d="M37.4792 64.4863C37.4558 64.4863 33.8717 64.3069 30.7478 63.5932C28.0334 62.9731 25.631 61.7875 25.6076 61.7758L25.5998 61.7719L25.592 61.768C25.5803 61.7641 24.2387 61.1752 23.4158 60.3796C22.5812 59.5684 22.2029 58.5115 22.199 58.4998C22.1834 58.453 20.7209 54.5023 19.6172 50.2825C18.5993 46.3981 17.9012 42.1042 17.8934 42.0613C17.8817 42.0067 17.0393 37.666 16.8014 33.0523C16.6025 29.1757 16.9964 24.7726 17.0003 24.7258C17.0042 24.6907 17.207 22.0855 18.2366 20.3812C19.1648 18.8485 20.9549 18.0958 20.9705 18.088L20.9861 18.0802L21.0017 18.0724C21.0212 18.0607 23.0999 17.0038 27.0428 16.1341C30.1862 15.4399 34.5581 14.9446 38.1773 14.8744C42.3152 14.7925 46.7573 15.085 50.0567 15.6583C54.0152 16.3447 56.5892 17.3665 56.6126 17.3743L56.6321 17.3821L56.6555 17.3899C56.6828 17.3977 59.2451 18.1114 60.5945 19.8469C61.9634 21.6097 62.1857 24.5113 62.1896 24.5386V24.5542C62.1935 24.5854 62.4821 27.0853 62.4821 30.1468C62.4821 30.6967 62.4743 31.2622 62.4509 31.8394C62.2949 35.9188 61.5929 40.4428 61.5851 40.4896C61.5773 40.5325 60.6257 45.8443 59.5376 50.3176C58.7342 53.6365 57.6851 56.5693 57.6734 56.6005L57.6656 56.62L57.6617 56.6395C57.6578 56.6551 57.299 58.1449 56.7179 59.1823C56.2109 60.0871 55.466 60.6175 55.4582 60.6214L55.4465 60.6292L55.4348 60.6409C55.4309 60.6448 54.9239 61.0621 54.1439 61.4911C53.2469 61.9903 52.0457 62.5207 51.995 62.5441C51.9092 62.5792 49.265 63.6049 45.7745 64.0729C42.1397 64.5643 37.526 64.4863 37.4792 64.4863Z" fill="url(#paint2_radial_2_46723)"/>
<path d="M25.939 61.6433C25.783 61.5692 25.6933 61.5263 25.6933 61.5263C25.6855 61.5224 25.6387 61.5029 25.5646 61.4678L25.5373 61.3079C24.9133 57.8135 23.9578 51.4292 23.6458 43.6409C23.2597 34.4837 23.2753 23.2634 23.3104 17.8268V17.4329C23.4157 17.3978 23.5249 17.3627 23.638 17.3237V17.7176C23.6029 23.1074 23.5834 34.4135 23.9695 43.6253C24.2854 51.5462 25.2682 58.0124 25.8922 61.4483L25.939 61.6433Z" fill="#76160D"/>
<path d="M26.9728 62.0878C26.848 62.0371 26.7271 61.9864 26.6179 61.9396L26.5867 61.6939C26.1304 58.4023 25.327 51.6943 24.9448 43.1104C24.5392 33.9844 24.6133 22.5184 24.6757 17.3041V17.0116C24.781 16.9804 24.8902 16.9492 25.0033 16.918V17.2417C24.9409 22.4209 24.8629 33.9415 25.2724 43.0987C25.6624 51.8776 26.497 58.687 26.9455 61.8811L26.9728 62.0878Z" fill="#76160D"/>
<path d="M34.6872 15.6001C34.7691 25.7089 35.007 54.8653 35.0772 63.3088L35.085 64.0225C34.9797 64.0108 34.8705 63.9991 34.7574 63.9874L34.7496 63.3088C34.6794 54.8692 34.4415 25.7869 34.3596 15.643L34.3518 15.3466C34.461 15.3388 34.5741 15.3271 34.6833 15.3193L34.6872 15.6001Z" fill="#76160D"/>
<path d="M38.9575 15.4672C38.9848 24.3241 39.0823 53.6404 39.1135 63.5503L39.1174 64.225C39.0043 64.225 38.8912 64.2289 38.7859 64.2289V63.4645C38.7547 53.4298 38.6572 24.055 38.6299 15.3619V15.1357C38.7352 15.1357 38.8444 15.1318 38.9497 15.1318L38.9575 15.4672Z" fill="#76160D"/>
<path d="M40.5992 15.5101C40.5524 25.3459 40.4081 54.8611 40.3652 63.5464V64.1977C40.2521 64.2016 40.1429 64.2016 40.0337 64.2055L40.0376 63.679C40.0805 55.1458 40.2248 25.264 40.2755 15.4438L40.2677 15.1279C40.3808 15.1279 40.4939 15.1318 40.6109 15.1318L40.5992 15.5101Z" fill="#76160D"/>
<path d="M45.0336 63.3748C45.2676 59.4202 45.7122 51.043 45.8955 41.5582C46.0827 31.894 45.9969 20.896 45.9423 15.7285L45.9228 15.397C46.0554 15.4087 46.188 15.4204 46.3206 15.4321L46.3401 15.8572C46.3986 21.0793 46.4766 31.9759 46.2933 41.5621C46.1139 50.965 45.6732 59.2876 45.4353 63.2851L45.4002 63.8545C45.2637 63.8701 45.1428 63.8857 45.0024 63.9013L45.0336 63.3748Z" fill="#76160D"/>
<path d="M56.2384 59.4592C56.0629 59.701 55.8796 59.9038 55.7236 60.0598L55.8796 59.2135C56.566 55.6099 57.4513 50.0368 57.8959 43.4926C58.4224 35.7121 58.4887 25.0768 58.477 19.0318L58.4848 18.4507C58.6135 18.5209 58.7422 18.5989 58.8709 18.6808V19.453C58.8787 25.5682 58.8007 35.9071 58.2859 43.5199C57.853 49.9432 56.9911 55.4383 56.3086 59.0575L56.2384 59.4592Z" fill="#76160D"/>
<path d="M60.0251 46.4098C60.3098 44.1322 60.5711 41.5777 60.7505 38.8789C61.1483 32.947 61.1561 26.2234 61.1054 21.9451L61.0976 21.2314C61.2614 21.6058 61.3979 21.988 61.5032 22.3585L61.511 23.0215C61.5461 27.3037 61.5071 33.4384 61.1444 38.9023C61.0664 40.0528 60.9767 41.176 60.8753 42.268L60.7544 43.4692C60.5009 44.7562 60.1811 46.324 59.8262 47.9113L60.0251 46.4098Z" fill="#76160D"/>
<path d="M54.8421 60.7583C54.7173 60.8441 54.5691 60.9416 54.4014 61.0469L54.5223 60.3644C55.1814 56.6945 56.2032 50.0333 56.6049 42.2918C57.0456 33.7898 57.0456 23.681 57.0105 18.5057L56.9949 17.7725C57.108 17.8115 57.2406 17.8622 57.3849 17.9207L57.4044 18.6032C57.4395 23.8136 57.4356 33.8522 56.9988 42.3113C56.6088 49.8383 55.6299 56.3513 54.9708 60.0953L54.8421 60.7583Z" fill="#76160D"/>
<path d="M50.0024 62.4425C50.3144 59.0222 50.8838 51.9437 51.1568 43.4027C51.4649 33.8165 51.4649 22.4558 51.4415 16.9685L51.4298 16.1885C51.5663 16.2158 51.7028 16.247 51.8354 16.2743V17.0309C51.8588 22.5455 51.8549 33.8633 51.5468 43.4183C51.2738 51.9008 50.7122 58.9481 50.4002 62.3996L50.3612 62.8208C50.2325 62.8598 50.0999 62.8988 49.9556 62.9417L50.0024 62.4425Z" fill="#76160D"/>
<path d="M48.641 62.7667C48.9842 59.8612 49.5419 54.2335 49.772 46.9132C50.1074 36.2623 50.0684 22.8268 50.0216 16.6102L50.0138 15.9199C50.1464 15.9433 50.2751 15.9667 50.3999 15.9901L50.4155 16.7116C50.4584 22.975 50.4974 36.3247 50.1659 46.9249C49.9397 54.1321 49.3937 59.7052 49.0505 62.6614L48.9881 63.1957C48.8555 63.2269 48.7151 63.262 48.5786 63.2971L48.641 62.7667Z" fill="#76160D"/>
<path d="M47.5336 63.0004C47.7988 59.9311 48.2629 53.8471 48.4774 46.4488C48.7816 36.1099 48.7036 23.0137 48.6295 16.1887L48.6217 15.7012C48.7543 15.7207 48.8869 15.7402 49.0195 15.7597L49.0273 16.411C49.0975 23.3023 49.1716 36.2269 48.8713 46.4605C48.6568 53.7457 48.2083 59.7556 47.9392 62.8795L47.8885 63.445C47.752 63.4723 47.6233 63.4996 47.4829 63.5269L47.5336 63.0004Z" fill="#76160D"/>
<path d="M46.2541 63.2614C46.4803 59.6734 46.9093 52.1815 47.0965 44.1436C47.3461 33.4576 47.3578 21.5392 47.3461 15.9622L47.3344 15.541C47.467 15.5566 47.5996 15.5722 47.7322 15.5878L47.74 16.0597C47.7517 21.6835 47.7361 33.5278 47.4904 44.1514C47.3071 52.0918 46.8859 59.5057 46.6597 63.1483L46.6246 63.6865C46.4842 63.7099 46.3711 63.7294 46.2268 63.7528L46.2541 63.2614Z" fill="#76160D"/>
<path d="M44.8971 15.7756C44.8815 21.4852 44.823 34.441 44.6397 45.4897C44.5149 53.1376 44.2731 59.8222 44.1327 63.2932L44.1015 63.9991C43.9884 64.0069 43.8792 64.0186 43.7661 64.0264L43.7973 63.3985C43.9377 59.9704 44.1795 53.2195 44.3082 45.4858C44.4915 34.3825 44.55 21.3526 44.5656 15.6898L44.5695 15.2998C44.6787 15.3076 44.7918 15.3154 44.901 15.3232L44.8971 15.7756Z" fill="#76160D"/>
<path d="M43.2745 15.5102C43.3213 20.549 43.3877 30.4121 43.3292 39.7058C43.2629 49.7639 43.0483 59.3696 42.9469 63.5075L42.9352 64.0847C42.8221 64.0925 42.713 64.1003 42.5999 64.1042L42.6154 63.6128C42.7168 59.5451 42.9353 49.8536 43.0016 39.7019C43.064 30.4628 42.9938 20.6621 42.9509 15.596L42.9469 15.1982C43.0561 15.2021 43.1653 15.2099 43.2745 15.2138V15.5102Z" fill="#76160D"/>
<path d="M41.9878 15.4907C42.0541 21.2705 42.1477 31.6133 42.1048 41.3711C42.0619 50.4464 41.8708 59.1395 41.7538 63.683L41.7421 64.1549C41.629 64.1588 41.5198 64.1666 41.4106 64.1705L41.4262 63.6206C41.5432 59.0654 41.7304 50.4074 41.7733 41.375C41.8201 31.6679 41.7266 21.3797 41.6603 15.5843L41.6524 15.1631C41.7616 15.167 41.8747 15.1709 41.9839 15.1748L41.9878 15.4907Z" fill="#76160D"/>
<path d="M30.3853 63.2344C30.2722 63.2071 30.1591 63.1759 30.046 63.1447L30.0265 62.9301C29.7496 59.9115 29.1958 53.1256 28.9657 45.1579C28.6732 34.9945 28.7707 22.296 28.8409 16.3134L28.837 16.0521C28.9462 16.0326 29.0554 16.0132 29.1685 15.9937V16.2588C29.0983 22.2102 28.9969 34.9594 29.2933 45.1462C29.5273 53.2153 30.0928 60.0714 30.3619 63.0198L30.3853 63.2344Z" fill="#76160D"/>
<path d="M28.1623 62.5478C28.0453 62.5049 27.9283 62.462 27.8152 62.4191L27.7879 62.1695C27.2848 57.9224 26.3137 48.7457 26.0056 39.0113C25.7443 30.7745 25.9705 21.5822 26.1226 16.9607L26.1265 16.6214C26.2357 16.5941 26.3449 16.5669 26.458 16.5396L26.4541 16.8321C26.302 21.4029 26.0719 30.6887 26.3332 38.9996C26.6452 48.8705 27.6397 58.1681 28.135 62.3216L28.1623 62.5478Z" fill="#76160D"/>
<path d="M18.8139 45.6181C18.4122 43.6369 18.1782 42.19 18.1743 42.1666L18.1197 41.3008C17.8896 38.3368 17.679 35.0179 17.6322 32.1865C17.5737 28.8403 17.5971 25.4941 17.6361 22.9903L17.6205 22.6705C17.718 22.2922 17.8389 21.8905 17.9871 21.5044L17.9598 23.2828C17.9247 25.7476 17.9052 28.9612 17.9598 32.1787C18.0222 35.7589 18.3381 40.1269 18.6345 43.5589L18.8139 45.6181Z" fill="#76160D"/>
<path d="M21.6687 56.1834C21.4425 55.5048 21.1812 54.7092 20.9121 53.8356L20.7132 52.6656C20.2023 49.5963 19.746 46.3359 19.6173 43.8321C18.9465 35.5095 18.9153 25.8999 18.9582 20.787L18.966 19.8471C19.0713 19.7301 19.1767 19.6209 19.2859 19.5195L19.2897 20.4087C19.2429 25.4085 19.2625 35.2833 19.945 43.8087C20.0932 46.7298 20.6898 50.6805 21.2982 54.1554L21.6687 56.1834Z" fill="#76160D"/>
<path d="M23.2831 57.9343C22.6084 54.5608 21.7777 49.5844 21.3448 43.8943C20.6779 35.0647 20.7013 24.6751 20.7637 19.5349L20.7715 18.4741C20.674 18.5248 20.5609 18.5872 20.4361 18.6613V19.5466C20.3698 24.6985 20.3464 35.0881 21.0172 43.9177C21.4462 49.5844 22.273 54.5491 22.9477 57.9304L23.3689 59.9389C23.443 60.0208 23.5171 60.1027 23.599 60.1846C23.6575 60.2431 23.7199 60.2977 23.7862 60.3523L23.2831 57.9343Z" fill="#76160D"/>
<path d="M29.2232 62.7234C28.919 59.9388 28.3769 54.3033 28.1546 47.5017C27.788 36.3087 27.7607 22.3428 27.7685 16.5396L27.7646 16.2549C27.6515 16.2783 27.5423 16.3017 27.4331 16.3212L27.4409 16.5669C27.4331 22.3896 27.4604 36.3321 27.827 47.5095C28.0454 54.159 28.5641 59.7009 28.8761 62.5557L28.9034 62.8014C29.0165 62.8365 29.1296 62.8755 29.2466 62.9106L29.2232 62.7234Z" fill="#76160D"/>
<path d="M22.2456 17.8266C22.1247 17.8734 22.0116 17.9202 21.9102 17.9592L21.9024 18.4584C21.7932 23.6805 21.6489 34.1247 22.0584 40.9887C22.6395 50.7192 23.8407 57.6183 24.4335 60.5823L24.4881 60.8748C24.6129 60.9567 24.7572 61.0425 24.8742 61.1088L24.8001 60.75C24.2268 57.942 22.9788 50.9532 22.3821 40.9692C21.9687 34.0623 22.1208 23.5128 22.23 18.3375L22.2378 17.811" fill="#76160D"/>
<path d="M30.5844 15.7754C30.4752 15.791 30.3621 15.8066 30.2529 15.8222L30.2568 16.103C30.1983 21.5435 30.1281 32.3036 30.2997 41.7221C30.4635 50.6804 31.0056 58.847 31.3137 62.8913L31.3527 63.4529C31.4658 63.4763 31.575 63.4997 31.6881 63.5192L31.653 63.0239C31.3488 59.042 30.795 50.7857 30.6312 41.7143C30.4557 32.2841 30.5298 21.5084 30.5883 16.0796L30.5844 15.7754Z" fill="#76160D"/>
<path d="M31.9765 15.5923C31.8634 15.6079 31.7542 15.6196 31.6411 15.6352V15.9082C31.5553 20.3425 31.4305 29.5231 31.6138 38.6608C31.8127 49.0543 32.347 58.8628 32.6083 63.1723L32.6395 63.6949C32.7526 63.7144 32.8657 63.73 32.9749 63.7495L32.9398 63.1801C32.6824 58.8862 32.1442 49.0621 31.9453 38.6569C31.762 29.5036 31.8868 20.3113 31.9726 15.8887L31.9765 15.5923Z" fill="#76160D"/>
<path d="M33.322 15.4438C33.2128 15.4555 33.1036 15.4672 32.9944 15.4789L32.9905 15.7558C32.9554 20.5177 32.9047 30.5252 33.0178 40.2362C33.127 49.6508 33.4078 58.9639 33.5482 63.2266L33.5677 63.8389C33.6808 63.8545 33.79 63.8701 33.8992 63.8857L33.8758 63.2266C33.7354 58.9678 33.4546 49.6547 33.3454 40.2362C33.2323 30.4823 33.283 20.4241 33.322 15.6934V15.4438Z" fill="#76160D"/>
<path d="M36.1689 15.2173C36.0558 15.2251 35.9388 15.229 35.8257 15.2368L35.8335 15.424C35.892 24.1522 36.0831 53.9053 36.1494 63.55L36.1533 64.1272C36.2703 64.1389 36.3795 64.1467 36.4848 64.1545L36.477 63.5695C36.4146 53.9443 36.2196 24.1093 36.1611 15.4006L36.1689 15.2173Z" fill="#76160D"/>
<path d="M37.5534 15.1553C37.4403 15.1592 37.3311 15.1631 37.218 15.167L37.2258 15.4907C37.2414 24.7259 37.296 54.4829 37.3116 63.4178L37.3077 64.2134C37.3935 64.2173 37.4559 64.2212 37.491 64.2251C37.5105 64.2251 37.5612 64.2251 37.6392 64.2251V63.3983C37.6236 54.4361 37.569 24.722 37.5534 15.4907V15.1553Z" fill="#76160D"/>
<path d="M51.1136 61.9905C51.5894 57.9384 52.4513 49.569 52.814 39.5265C53.087 32.0541 52.8686 22.0272 52.7282 17.0157L52.7009 16.4775C52.8374 16.5087 52.9739 16.5438 53.1026 16.575L53.1221 17.1288C53.2625 22.1871 53.4731 32.1204 53.204 39.5421C52.8413 49.569 51.9794 57.9345 51.5036 62.0061L51.4451 62.4702C51.3281 62.5092 51.1877 62.556 51.0317 62.6106L51.1136 61.9905Z" fill="#76160D"/>
<path d="M52.7634 61.409C53.1456 57.8834 53.8203 50.9142 54.2259 42.2171C54.6159 33.8673 54.5964 23.0916 54.5496 17.3781L54.5418 16.9607C54.4131 16.9217 54.2805 16.8867 54.144 16.8477L54.1557 17.339C54.2025 23.0369 54.2259 33.84 53.8359 42.1977C53.4264 50.9961 52.74 58.0278 52.3578 61.5027L52.2837 62.1345C52.4007 62.0799 52.5411 62.0135 52.6932 61.9433L52.7634 61.409Z" fill="#76160D"/>
<path d="M53.9686 60.6371C54.4327 57.482 55.0645 52.3184 55.4233 45.7274C55.9576 35.9228 56.0551 23.4155 56.0668 17.8229L56.059 17.4524C55.9459 17.4134 55.8172 17.3705 55.669 17.3198L55.6729 17.6942C55.6573 23.2166 55.5637 35.837 55.0294 45.7079C54.655 52.568 53.9881 57.872 53.5201 60.9725L53.4304 61.5809C53.5747 61.5068 53.7229 61.4327 53.8633 61.3547L53.9686 60.6371Z" fill="#76160D"/>
<path d="M57.4199 56.5457C57.4199 56.5457 57.7748 55.5551 58.2116 54.1433L58.3754 53.0435C58.9136 49.397 59.4791 44.8457 59.8574 39.9161C60.3566 33.3524 60.2474 25.3613 60.1109 20.5487L60.0797 19.64C59.9471 19.5035 59.8106 19.3748 59.6663 19.2539L59.6975 19.991C59.8418 24.7139 59.9822 33.0716 59.4635 39.881C59.0267 45.6062 58.3325 50.8166 57.728 54.6893L57.4199 56.5457Z" fill="#76160D"/>
<path d="M23.4038 26.1846L24.137 52.7631L27.3935 52.8294V40.6692H30.1157V37.6116H27.3935V29.5074H31.0478V26.1846H23.4038Z" fill="#9C9A9B"/>
<path d="M23.1426 25.9194L23.8719 52.5018L27.1284 52.5681V40.4079H29.8545V37.3503H27.1284V29.2422H30.7827V25.9194H23.1426Z" fill="white"/>
<path d="M32.7095 26.313H36.1688L36.3638 52.6302H32.9747L32.7095 26.313Z" fill="#9C9A9B"/>
<path d="M32.4443 26.0518H35.9036L36.0986 52.369H32.7095L32.4443 26.0518Z" fill="white"/>
<path d="M38.3682 26.2314H46.0317C46.0317 26.2314 47.931 30.3108 48.5862 36.0321C49.3974 43.1379 48.984 52.4979 48.984 52.4979H46.4802L46.0824 40.5405H41.8587L41.8431 52.4979H38.6646L38.3682 26.2314ZM45.9264 37.7013C45.9264 37.7013 45.5871 34.5462 44.9358 32.175C44.46 30.4356 43.6137 29.2812 43.6137 29.2812H41.7027V37.596L45.9264 37.7013Z" fill="#9C9A9B"/>
<path d="M38.1069 25.9697H45.7704C45.7704 25.9697 47.6697 30.0491 48.3249 35.7704C49.1361 42.8762 48.7227 52.2362 48.7227 52.2362H46.2189L45.8211 40.2788H41.5974L41.5818 52.2362H38.4033L38.1069 25.9697ZM45.6651 37.4396C45.6651 37.4396 45.3258 34.2845 44.6745 31.9133C44.1987 30.1739 43.3524 29.0195 43.3524 29.0195H41.4414V37.3343L45.6651 37.4396Z" fill="white"/>
<path d="M48.4772 26.4692H57.5486V29.0237H54.8381L54.3662 52.7942H50.8679L51.3437 29.0744H48.4343L48.4772 26.4692Z" fill="#9C9A9B"/>
<path d="M48.7385 26.2041H57.8099V28.7586H55.0994L54.6314 52.533H51.1331L51.6089 28.8132H48.6956L48.7385 26.2041Z" fill="white"/>
</g>
<defs>
<linearGradient id="paint0_linear_2_46723" x1="39.5292" y1="5.15525" x2="39.5292" y2="72.6793" gradientUnits="userSpaceOnUse">
<stop offset="0.005618" stop-color="#DADADA"/>
<stop offset="0.5281" stop-color="#F6F6F6"/>
<stop offset="1" stop-color="#DADADA"/>
</linearGradient>
<radialGradient id="paint1_radial_2_46723" cx="0" cy="0" r="1" gradientUnits="userSpaceOnUse" gradientTransform="translate(59.8351 62.6393) scale(64.5445 64.5445)">
<stop stop-color="#F6F6F6"/>
<stop offset="1" stop-color="#868787"/>
</radialGradient>
<radialGradient id="paint2_radial_2_46723" cx="0" cy="0" r="1" gradientUnits="userSpaceOnUse" gradientTransform="translate(39.1488 40.5697) scale(32.7111 32.7111)">
<stop offset="0.005618" stop-color="#C64933"/>
<stop offset="1" stop-color="#9C1C18"/>
</radialGradient>
<clipPath id="clip0_2_46723">
<rect width="78" height="78" fill="white"/>
</clipPath>
</defs>
</svg>
