<svg width="126" height="98" viewBox="0 0 126 98" fill="none" xmlns="http://www.w3.org/2000/svg">
<path d="M26.4375 63.0977V68.1024H20.7649V63.0977H17.6401V76.2269H20.7649V70.95H26.4375V76.2269H29.5623V63.0977H29.4035H26.4375Z" fill="#002D73"/>
<path d="M41.0206 63.0977L37.7522 68.2964L34.4862 63.0977H30.7944L36.1923 71.6833V76.2269H39.3146V71.6833L44.7099 63.0977H44.4226H41.0206Z" fill="#002D73"/>
<path d="M54.7622 63.0977V72.7241C54.7622 73.0895 54.4875 73.3843 54.0969 73.3843H49.0896V63.0977H45.9648V76.2269H55.1981C56.0222 76.2269 56.6824 75.9824 57.1637 75.5061C57.6425 75.0248 57.8844 74.3646 57.8844 73.5456V63.0977H57.7257H54.7622Z" fill="#002D73"/>
<path d="M70.0184 63.0977H60.78V76.2269H63.9048V65.9427H68.9196C69.3228 65.9427 69.5824 66.2577 69.5824 66.5979V76.2269H72.7047V65.784C72.7047 64.9625 72.4602 64.3022 71.9839 63.8234C71.4976 63.3421 70.8399 63.0977 70.0184 63.0977Z" fill="#002D73"/>
<path d="M84.8359 63.0977H75.6001V76.2269H84.8359C85.6549 76.2269 86.3126 75.9824 86.7939 75.5061C87.2727 75.0248 87.5172 74.3646 87.5172 73.5456V65.784C87.5172 64.9625 87.2753 64.3022 86.7939 63.8209C86.3126 63.3421 85.6524 63.0977 84.8359 63.0977ZM84.3949 66.6206V72.7039C84.3949 73.0592 84.1353 73.3843 83.7271 73.3843H78.7199V65.9427H83.7095C84.1202 65.9427 84.3949 66.23 84.3949 66.6206Z" fill="#002D73"/>
<path d="M92.9603 63.0977C92.1413 63.0977 91.4786 63.3421 91.0023 63.8234C90.521 64.3047 90.2791 64.9625 90.2791 65.784V76.2269H93.3963V72.1671H99.0713V76.2269H102.194V63.0977H92.9603ZM99.0739 65.9427V69.3246H93.3988V66.608C93.3988 66.2855 93.6483 65.9402 94.0641 65.9402H99.0739V65.9427Z" fill="#002D73"/>
<path d="M108.36 63.0977H105.235V76.2269H108.36V63.0977Z" fill="#002D73"/>
<path d="M59.5602 36.1866C60.2583 36.1866 61.0496 36.0984 61.856 35.9296C64.7716 35.3122 67.6041 34.2815 70.2299 33.2584C77.3111 30.5645 80.7837 27.8958 81.6732 27.1474C81.8471 27.0113 81.9555 26.9181 82.0159 26.8475C82.1898 26.6787 82.3914 26.4393 82.3914 26.0865C82.3914 25.4338 81.6329 25.2272 81.1793 25.1037C81.1264 25.0886 81.0785 25.076 81.0357 25.0634C75.8016 23.4984 69.7435 22.6719 63.5141 22.6719H63.1437C62.2188 22.7072 61.3444 22.9088 60.6791 23.2364C58.4817 24.3275 57.4283 26.8576 56.8008 28.3696C56.7353 28.5258 56.6748 28.6695 56.6194 28.8005C55.4526 31.5045 55.2737 33.5054 56.0927 34.7502C56.7202 35.7053 57.8844 36.1866 59.5602 36.1866ZM57.0881 29.0072C57.1461 28.8761 57.2066 28.73 57.2721 28.5712C57.8744 27.1247 58.8798 24.7055 60.9059 23.6975C61.5082 23.4002 62.307 23.2187 63.1588 23.1834H63.5166C69.6957 23.1834 75.7059 24.0024 80.892 25.5548C80.9399 25.5674 80.9903 25.5825 81.0457 25.5976C81.3582 25.6833 81.8799 25.8269 81.8799 26.089C81.8799 26.2175 81.8194 26.3284 81.648 26.4972C81.5951 26.5552 81.5069 26.6308 81.3507 26.7518C80.4712 27.4926 77.0515 30.1185 70.0434 32.7821C67.4378 33.7977 64.6279 34.8208 61.7476 35.4306C60.9765 35.5919 60.2179 35.6776 59.5552 35.6776C58.0633 35.6776 57.0402 35.2719 56.5161 34.473C55.8029 33.3819 55.9944 31.5423 57.0881 29.0072Z" fill="url(#paint0_radial_2_720)"/>
<path d="M63.4085 19.7734C43.7122 19.7734 27.6875 28.0189 27.6875 38.1543C27.6875 48.2898 43.7122 56.5352 63.4085 56.5352C83.1048 56.5352 99.1295 48.2898 99.1295 38.1543C99.132 28.0189 83.1073 19.7734 63.4085 19.7734ZM63.4085 55.9808C44.0171 55.9808 28.2419 47.9848 28.2419 38.1543C28.2419 28.3238 44.0171 20.3278 63.4085 20.3278C82.7974 20.3278 98.5751 28.3238 98.5751 38.1543C98.5776 47.9848 82.7999 55.9808 63.4085 55.9808Z" fill="url(#paint1_radial_2_720)"/>
<path d="M52.1466 24.9548C52.3784 24.5818 52.2826 24.2618 52.1239 24.1005C51.887 23.8208 51.3024 23.7855 50.3977 23.9694C38.4 26.4038 30.6484 31.9704 30.6484 38.1545C30.6484 41.5565 33.0147 44.8073 37.4953 47.5617C37.8128 47.7482 38.0925 47.8389 38.3722 47.8389H38.3748C38.7981 47.8086 39.0148 47.5516 39.1786 47.2895C39.2416 47.1761 39.3248 47.0073 39.408 46.8284L39.476 46.6923C43.3694 37.6757 47.6383 30.3148 51.824 25.4008C51.9777 25.2143 52.0634 25.0934 52.1466 24.9548ZM51.7106 24.6902C51.6375 24.8086 51.5594 24.9195 51.4334 25.0808C47.22 30.025 42.9234 37.4313 39.0148 46.4831L38.9518 46.6116C38.8712 46.7805 38.7956 46.9392 38.7452 47.0325C38.6091 47.2467 38.5058 47.3223 38.3571 47.3324C38.1883 47.3324 37.9917 47.2643 37.7599 47.1282C33.4406 44.4722 31.1575 41.3726 31.1575 38.157C31.1575 32.225 38.7502 26.8548 50.4985 24.4709C50.8336 24.4029 51.1285 24.3676 51.3528 24.3676C51.6602 24.3676 51.7333 24.4331 51.7434 24.4432C51.7912 24.4886 51.7786 24.5818 51.7106 24.6902Z" fill="url(#paint2_radial_2_720)"/>
<path d="M67.3751 40.0918C66.6771 40.0918 65.8833 40.18 65.0794 40.3488C62.0227 40.994 59.1121 42.0977 56.771 42.9873L56.708 43.0125C49.5965 45.719 46.1341 48.3851 45.2369 49.1436C45.1815 49.194 45.1311 49.2369 45.0832 49.2747C45.0127 49.3352 44.9547 49.3856 44.9093 49.4309C44.7531 49.5846 44.5439 49.8291 44.5439 50.1819C44.5439 50.8396 45.3831 51.0815 45.8317 51.21L45.9148 51.2352C51.1363 52.78 57.1893 53.5965 63.4187 53.5965H63.4591C63.4969 53.5965 63.5498 53.6015 63.6103 53.6015C63.6632 53.6015 63.7211 53.599 63.769 53.5965C64.6485 53.5788 65.5507 53.3747 66.2512 53.037C68.4638 51.9333 69.5121 49.3856 70.1421 47.861C70.2001 47.7198 70.2555 47.5888 70.3059 47.4704C71.4752 44.7664 71.6541 42.763 70.8376 41.5206C70.2127 40.5756 69.0484 40.0918 67.3751 40.0918ZM69.8372 47.2738C69.7868 47.3948 69.7313 47.5283 69.6734 47.672C69.0736 49.1285 68.0656 51.5654 66.0295 52.5809C65.155 53.0043 64.3663 53.0874 63.4213 53.0874C57.2422 53.0874 51.2396 52.276 46.066 50.7464L45.9753 50.7212C45.7006 50.643 45.0555 50.4566 45.0555 50.1819C45.0555 50.0534 45.116 49.9425 45.2697 49.7938C45.31 49.7535 45.3579 49.7132 45.4159 49.6628C45.4637 49.6199 45.5192 49.5746 45.5721 49.5267C46.4491 48.7883 49.8511 46.165 56.8894 43.4888L56.9499 43.4661C59.2733 42.5841 62.1638 41.4854 65.1827 40.8503C65.9539 40.689 66.7099 40.6034 67.3726 40.6034C68.8645 40.6034 69.8851 41.0091 70.4092 41.8079C71.1274 42.8966 70.9359 44.7362 69.8372 47.2738Z" fill="url(#paint3_radial_2_720)"/>
<path d="M89.4352 28.7416C89.1278 28.5501 88.8808 28.4619 88.6515 28.4619C88.6112 28.4619 88.5734 28.4644 88.5583 28.467C88.2105 28.4846 87.9383 28.6736 87.767 29.0088C87.651 29.1902 87.5225 29.4523 87.4545 29.601C85.2747 34.6939 80.7765 44.2296 75.1065 50.8975C74.9528 51.0764 74.8621 51.1974 74.7814 51.3486C74.5924 51.6636 74.605 51.9861 74.8091 52.2104C74.9477 52.3692 75.1846 52.4473 75.5299 52.4473C75.7693 52.4473 76.0691 52.412 76.4446 52.3389C88.4373 49.892 96.1863 44.3203 96.1863 38.1463C96.1838 34.709 93.8502 31.4557 89.4352 28.7416ZM76.3413 51.84C76.0061 51.9055 75.7314 51.9357 75.5273 51.9357C75.2476 51.9357 75.1897 51.8752 75.1846 51.8727C75.1216 51.7996 75.1771 51.6762 75.2224 51.6006C75.2804 51.4897 75.3434 51.4015 75.4921 51.2276C81.2074 44.5093 85.7308 34.9182 87.9156 29.8101C88.019 29.5909 88.1198 29.3994 88.2054 29.2658C88.3088 29.0692 88.4171 28.9861 88.6036 28.976C88.6187 28.9735 88.6364 28.9735 88.6515 28.9735C88.78 28.9735 88.9488 29.039 89.1681 29.1751C93.4269 31.7908 95.6773 34.8955 95.6773 38.1463C95.6747 44.0683 88.087 49.4434 76.3413 51.84Z" fill="url(#paint4_radial_2_720)"/>
<mask id="mask0_2_720" style="mask-type:luminance" maskUnits="userSpaceOnUse" x="27" y="20" width="72" height="37">
<path d="M63.4084 56.2352C82.9737 56.2352 98.8295 48.141 98.8295 38.1542C98.8295 28.1675 82.9737 20.0732 63.4084 20.0732C43.8532 20.0732 27.9873 28.17 27.9873 38.1542C27.9873 48.141 43.8557 56.2352 63.4084 56.2352ZM70.0738 47.3749C69.4942 48.7332 68.4711 51.6488 66.1401 52.8106C65.4345 53.1508 64.5601 53.3272 63.7663 53.3423C63.5949 53.3574 63.4739 53.3423 63.421 53.3423C57.0101 53.3423 51.0226 52.4804 45.9902 50.9886C45.6197 50.8802 44.8007 50.6812 44.8007 50.1797C44.8007 49.9529 44.9192 49.779 45.0905 49.6102C45.1661 49.5346 45.2745 49.4514 45.4106 49.3279C46.5799 48.3401 50.1381 45.7823 56.801 43.2472C59.1421 42.3576 62.0653 41.2412 65.1321 40.5961C66.9389 40.2206 73.6043 39.2101 70.0738 47.3749ZM87.9784 29.1503C88.0969 28.921 88.2682 28.7395 88.5706 28.7244C88.742 28.7017 88.9587 28.7471 89.3014 28.9588C93.4645 31.5191 95.9315 34.6918 95.9315 38.1492C95.9315 44.3912 87.8953 49.7462 76.394 52.0898C75.6506 52.2335 75.1667 52.2335 75.0004 52.0445C74.8895 51.921 74.8568 51.7244 75.0004 51.4825C75.0735 51.3464 75.1516 51.2406 75.3003 51.0642C81.5625 43.7008 86.3429 32.8496 87.6861 29.7047C87.7819 29.498 87.8927 29.2838 87.9784 29.1503ZM56.8564 28.9058C57.4411 27.5526 58.4566 24.6294 60.7952 23.4677C61.5033 23.1174 62.3803 22.9586 63.1564 22.9309C63.3429 22.9309 63.4613 22.9309 63.5168 22.9309C69.9403 22.9309 75.9202 23.8028 80.9653 25.3123C81.3332 25.4207 82.1371 25.5694 82.1371 26.0885C82.1371 26.3228 82.0111 26.4992 81.8397 26.663C81.7717 26.7412 81.6658 26.8319 81.5171 26.9453C80.3428 27.9331 76.8022 30.4859 70.1393 33.0185C67.7957 33.9307 64.8574 35.032 61.8032 35.6771C59.9938 36.0601 53.3309 37.0681 56.8564 28.9058ZM50.4506 24.2186C51.1965 24.0674 51.7635 24.0674 51.9298 24.264C52.0382 24.3774 52.081 24.5765 51.9298 24.8209C51.8517 24.9494 51.7736 25.0628 51.6274 25.2443C45.3602 32.6027 40.5974 43.4639 39.2441 46.5912C39.1383 46.8104 39.035 47.0322 38.9594 47.1683C38.8183 47.3875 38.6595 47.5639 38.3571 47.5866C38.2009 47.5866 37.9715 47.5488 37.6263 47.3447C33.4759 44.7919 30.9029 41.6041 30.9029 38.1568C30.9029 31.9198 38.9569 26.5496 50.4506 24.2186Z" fill="white"/>
</mask>
<g mask="url(#mask0_2_720)">
<mask id="mask1_2_720" style="mask-type:luminance" maskUnits="userSpaceOnUse" x="28" y="20" width="71" height="36">
<path d="M63.4084 55.8753C44.0775 55.8753 28.3477 47.9247 28.3477 38.1572C28.3477 28.3871 44.075 20.4365 63.4084 20.4365C82.7419 20.4365 98.4667 28.3846 98.4667 38.1572C98.4692 47.9247 82.7419 55.8753 63.4084 55.8753ZM67.3749 39.9867C66.6693 39.9867 65.8679 40.0774 65.0565 40.2462C61.9897 40.8914 59.074 41.9976 56.7329 42.8897L56.6725 42.9124C49.5434 45.6239 46.0708 48.3002 45.1762 49.0562L45.0175 49.1922C44.9469 49.2552 44.8864 49.3056 44.836 49.356C44.6697 49.5198 44.4404 49.787 44.4404 50.1801C44.4404 50.9184 45.3274 51.173 45.8062 51.3116L45.8894 51.3368C51.1209 52.884 57.1865 53.703 63.4235 53.703C63.4991 53.7056 63.5521 53.7081 63.6151 53.7081C63.6705 53.7081 63.731 53.7056 63.799 53.7005C64.6684 53.6854 65.5882 53.4762 66.2989 53.1335C68.5492 52.0096 69.6101 49.4392 70.2427 47.902L70.4039 47.5114C71.5883 44.7747 71.7647 42.741 70.9281 41.4659C70.2805 40.4856 69.0835 39.9867 67.3749 39.9867ZM88.6487 28.3569C88.6034 28.3569 88.5605 28.3594 88.5202 28.3644C88.1573 28.3796 87.86 28.5887 87.6559 28.9818C87.5525 29.1381 87.424 29.4052 87.356 29.5488C85.1762 34.6468 80.683 44.1724 75.0231 50.8302C74.8694 51.0117 74.7686 51.1427 74.6779 51.3116C74.4359 51.7173 74.5443 52.0827 74.7283 52.2868C74.8845 52.4657 75.1491 52.5539 75.5246 52.5539C75.7715 52.5539 76.0765 52.5186 76.4595 52.4456C88.5076 49.9886 96.2894 44.3765 96.2894 38.1471C96.2894 34.6695 93.9382 31.3859 89.4854 28.6492C89.1653 28.4501 88.8982 28.3569 88.6487 28.3569ZM51.3527 23.7503C51.0831 23.7503 50.753 23.7881 50.375 23.8662C38.3269 26.3106 30.5401 31.9176 30.5401 38.1572C30.5401 41.597 32.924 44.8805 37.4348 47.6525C37.7725 47.8541 38.0723 47.9499 38.3546 47.9499C38.8535 47.9121 39.098 47.6198 39.2593 47.3652C39.3349 47.2292 39.418 47.0603 39.5062 46.8789L39.5667 46.7504C43.4651 37.7313 47.7265 30.3804 51.8996 25.4816C52.0659 25.2724 52.1516 25.1489 52.2347 25.0078C52.4968 24.587 52.3809 24.219 52.1869 24.0149C52.0432 23.841 51.766 23.7503 51.3527 23.7503ZM63.1413 22.5684C62.2013 22.6037 61.3118 22.8104 60.6339 23.1455C58.4012 24.2543 57.3403 26.8071 56.7052 28.3342L56.5238 28.7651C55.3419 31.5018 55.168 33.538 56.0047 34.8131C56.6523 35.7959 57.8468 36.2949 59.5579 36.2949C60.2635 36.2949 61.0648 36.2042 61.8763 36.0353C64.7994 35.4179 67.637 34.3847 70.2704 33.3591C77.3617 30.6602 80.8493 27.9814 81.7515 27.2229C81.9203 27.0918 82.0312 26.9936 82.1093 26.9054C82.2807 26.7416 82.4974 26.4795 82.4974 26.0889C82.4974 25.3556 81.6583 25.1262 81.2072 25.0053L81.0686 24.9675C75.8245 23.3975 69.7563 22.571 63.5168 22.571H63.1463H63.1413V22.5684Z" fill="white"/>
</mask>
<g mask="url(#mask1_2_720)">
<mask id="mask2_2_720" style="mask-type:luminance" maskUnits="userSpaceOnUse" x="28" y="20" width="71" height="36">
<path d="M63.4085 55.853C44.1002 55.853 28.3931 47.9124 28.3931 38.155C28.3931 28.3976 44.1002 20.457 63.4085 20.457C82.7167 20.457 98.4239 28.395 98.4239 38.155C98.4264 47.9124 82.7192 55.853 63.4085 55.853ZM67.3674 39.9845C66.6643 39.9845 65.8629 40.0727 65.054 40.2441C61.9922 40.8892 59.0791 41.9955 56.7405 42.885L56.6801 42.9077C49.5611 45.6167 46.091 48.2879 45.1989 49.0439L45.0402 49.1825C44.9671 49.243 44.9066 49.2959 44.8587 49.3463C44.6924 49.5101 44.4631 49.7747 44.4631 50.1703C44.4631 50.9062 45.3501 51.1607 45.8289 51.2993L45.9121 51.3245C51.1386 52.8693 57.1916 53.6883 63.4236 53.6883C63.4992 53.6908 63.5521 53.6933 63.6151 53.6933C63.6705 53.6933 63.731 53.6908 63.7991 53.6858C64.6685 53.6706 65.5883 53.464 66.2964 53.1213C68.5442 51.9999 69.6051 49.432 70.2377 47.8948L70.3989 47.5042C71.5808 44.7725 71.7572 42.7389 70.9206 41.4663C70.2729 40.4835 69.0759 39.9845 67.3674 39.9845ZM88.6185 28.3698C88.5732 28.3698 88.5303 28.3724 88.49 28.3774C88.1297 28.3925 87.8298 28.6017 87.6257 28.9948C87.5223 29.151 87.3938 29.4182 87.3258 29.5593C85.1485 34.6497 80.6604 44.1652 75.0055 50.813C74.8518 50.9944 74.7535 51.1254 74.6603 51.2943C74.4209 51.6975 74.5292 52.0654 74.7132 52.267C74.8694 52.4459 75.1315 52.5341 75.5095 52.5341C75.7565 52.5341 76.0614 52.4988 76.4419 52.4258C88.4724 49.9713 96.2466 44.3668 96.2466 38.1474C96.2466 34.6749 93.8979 31.3938 89.4527 28.6622C89.1326 28.4631 88.868 28.3698 88.6185 28.3698ZM51.3704 23.7683C51.1008 23.7683 50.7732 23.8061 50.3952 23.8842C38.3597 26.3236 30.5855 31.9281 30.5855 38.155C30.5855 41.5923 32.9669 44.8708 37.4726 47.6403C37.8128 47.8419 38.1102 47.9376 38.3924 47.9376C38.8889 47.9024 39.1358 47.605 39.2971 47.353C39.3727 47.2169 39.4533 47.0481 39.5415 46.8666L39.602 46.7406C43.4954 37.7316 47.7517 30.3909 51.9198 25.4945C52.0861 25.2854 52.1718 25.1619 52.2549 25.0233C52.517 24.6024 52.4011 24.2345 52.2045 24.0304C52.0584 23.859 51.7812 23.7683 51.3704 23.7683ZM63.1413 22.589C62.2039 22.6242 61.3143 22.8284 60.6365 23.1635C58.4063 24.2698 57.3453 26.82 56.7103 28.3446L56.5314 28.7756C55.3495 31.5098 55.1756 33.5409 56.0123 34.816C56.6574 35.7988 57.8519 36.2952 59.5604 36.2952C60.266 36.2952 61.0674 36.207 61.8763 36.0357C64.7945 35.4183 67.632 34.3851 70.2578 33.3645C77.3415 30.6681 80.8267 27.9918 81.7238 27.2384C81.8927 27.1073 82.0061 27.009 82.0842 26.9208C82.253 26.757 82.4723 26.495 82.4723 26.1069C82.4723 25.3736 81.6331 25.1442 81.182 25.0233L81.0434 24.9855C75.8069 23.418 69.7437 22.5915 63.5143 22.5915H63.1464L63.1413 22.589Z" fill="white"/>
</mask>
<g mask="url(#mask2_2_720)">
<path d="M63.411 56.2133C82.9511 56.2133 98.7868 48.1266 98.7868 38.155C98.7868 28.1808 82.9511 20.0967 63.411 20.0967C43.881 20.0967 28.0327 28.1834 28.0327 38.155C28.0327 48.1292 43.881 56.2133 63.411 56.2133ZM70.0663 47.3631C69.4867 48.7214 68.4661 51.6345 66.1376 52.7937C65.4346 53.1339 64.5576 53.3103 63.7663 53.3254C63.595 53.3405 63.4715 53.3254 63.4211 53.3254C56.8943 53.3254 50.8085 52.4308 45.7231 50.8911C45.6828 50.876 45.5719 50.823 45.5719 50.823C45.0654 50.6643 44.8235 50.445 44.8235 50.1729C44.8235 49.9436 44.9419 49.7722 45.1133 49.6034C45.1889 49.5278 45.2947 49.4446 45.4333 49.3236C46.6001 48.3358 50.1533 45.7805 56.8086 43.2504C59.1472 42.3609 62.0678 41.247 65.1296 40.6044C66.934 40.2214 73.5918 39.2109 70.0663 47.3631ZM87.9482 29.1611C88.0667 28.9318 88.238 28.7504 88.5379 28.7352C88.7093 28.7126 88.9235 28.7579 89.2687 28.9696C93.4242 31.5274 95.8888 34.695 95.8888 38.1474C95.8888 44.3819 87.86 49.7268 76.3739 52.0704C75.6305 52.2141 75.1492 52.2141 74.9803 52.0251C74.8694 51.9041 74.8367 51.705 74.9803 51.4631C75.0534 51.327 75.134 51.2212 75.2802 51.0473C81.5374 43.6889 86.3077 32.8529 87.6509 29.713C87.7517 29.5089 87.86 29.2972 87.9482 29.1611ZM56.864 28.9167C57.4462 27.5685 58.4617 24.6478 60.7978 23.4861C61.5034 23.1383 62.3803 22.977 63.1565 22.9468C63.343 22.9468 63.4614 22.9468 63.5194 22.9468C70.0462 22.9468 76.1093 23.849 81.2022 25.4038C81.2551 25.4038 81.361 25.4517 81.3962 25.4643C81.8725 25.623 82.1044 25.8347 82.117 26.0993C82.117 26.3362 81.991 26.5101 81.8196 26.6764C81.7516 26.752 81.6457 26.8427 81.497 26.9561C80.3252 27.9414 76.7872 30.4917 70.1344 33.0243C67.7933 33.934 64.8575 35.0352 61.8083 35.6804C59.9989 36.0609 53.3436 37.0714 56.864 28.9167ZM50.4658 24.237C51.2117 24.0858 51.7787 24.0858 51.945 24.2824C52.0559 24.3958 52.0987 24.5949 51.945 24.8368C51.8669 24.9653 51.7888 25.0787 51.6451 25.2602C45.3854 32.6085 40.6277 43.4571 39.2744 46.5819C39.1686 46.8011 39.0653 47.0204 38.9897 47.159C38.8486 47.3782 38.6898 47.5546 38.3899 47.5748C38.2337 47.5748 38.0069 47.537 37.6591 47.3328C33.5137 44.7826 30.9458 41.5998 30.9458 38.155C30.9433 31.9281 38.9897 26.5655 50.4658 24.237Z" fill="white"/>
</g>
<mask id="mask3_2_720" style="mask-type:luminance" maskUnits="userSpaceOnUse" x="28" y="20" width="71" height="36">
<path d="M63.4085 55.853C44.1002 55.853 28.3931 47.9124 28.3931 38.155C28.3931 28.3976 44.1002 20.457 63.4085 20.457C82.7167 20.457 98.4239 28.395 98.4239 38.155C98.4264 47.9124 82.7192 55.853 63.4085 55.853ZM67.3674 39.9845C66.6643 39.9845 65.8629 40.0727 65.054 40.2441C61.9922 40.8892 59.0791 41.9955 56.7405 42.885L56.6801 42.9077C49.5611 45.6167 46.091 48.2879 45.1989 49.0439L45.0402 49.1825C44.9671 49.243 44.9066 49.2959 44.8587 49.3463C44.6924 49.5101 44.4631 49.7747 44.4631 50.1703C44.4631 50.9062 45.3501 51.1607 45.8289 51.2993L45.9121 51.3245C51.1386 52.8693 57.1916 53.6883 63.4236 53.6883C63.4992 53.6908 63.5521 53.6933 63.6151 53.6933C63.6705 53.6933 63.731 53.6908 63.7991 53.6858C64.6685 53.6706 65.5883 53.464 66.2964 53.1213C68.5442 51.9999 69.6051 49.432 70.2377 47.8948L70.3989 47.5042C71.5808 44.7725 71.7572 42.7389 70.9206 41.4663C70.2729 40.4835 69.0759 39.9845 67.3674 39.9845ZM88.6185 28.3698C88.5732 28.3698 88.5303 28.3724 88.49 28.3774C88.1297 28.3925 87.8298 28.6017 87.6257 28.9948C87.5223 29.151 87.3938 29.4182 87.3258 29.5593C85.1485 34.6497 80.6604 44.1652 75.0055 50.813C74.8518 50.9944 74.7535 51.1254 74.6603 51.2943C74.4209 51.6975 74.5292 52.0654 74.7132 52.267C74.8694 52.4459 75.1315 52.5341 75.5095 52.5341C75.7565 52.5341 76.0614 52.4988 76.4419 52.4258C88.4724 49.9713 96.2466 44.3668 96.2466 38.1474C96.2466 34.6749 93.8979 31.3938 89.4527 28.6622C89.1326 28.4631 88.868 28.3698 88.6185 28.3698ZM51.3704 23.7683C51.1008 23.7683 50.7732 23.8061 50.3952 23.8842C38.3597 26.3236 30.5855 31.9281 30.5855 38.155C30.5855 41.5923 32.9669 44.8708 37.4726 47.6403C37.8128 47.8419 38.1102 47.9376 38.3924 47.9376C38.8889 47.9024 39.1358 47.605 39.2971 47.353C39.3727 47.2169 39.4533 47.0481 39.5415 46.8666L39.602 46.7406C43.4954 37.7316 47.7517 30.3909 51.9198 25.4945C52.0861 25.2854 52.1718 25.1619 52.2549 25.0233C52.517 24.6024 52.4011 24.2345 52.2045 24.0304C52.0584 23.859 51.7812 23.7683 51.3704 23.7683ZM63.1413 22.589C62.2039 22.6242 61.3143 22.8284 60.6365 23.1635C58.4063 24.2698 57.3453 26.82 56.7103 28.3446L56.5314 28.7756C55.3495 31.5098 55.1756 33.5409 56.0123 34.816C56.6574 35.7988 57.8519 36.2952 59.5604 36.2952C60.266 36.2952 61.0674 36.207 61.8763 36.0357C64.7945 35.4183 67.632 34.3851 70.2578 33.3645C77.3415 30.6681 80.8267 27.9918 81.7238 27.2384C81.8927 27.1073 82.0061 27.009 82.0842 26.9208C82.253 26.757 82.4723 26.495 82.4723 26.1069C82.4723 25.3736 81.6331 25.1442 81.182 25.0233L81.0434 24.9855C75.8069 23.418 69.7437 22.5915 63.5143 22.5915H63.1464L63.1413 22.589Z" fill="white"/>
</mask>
<g mask="url(#mask3_2_720)">
<path d="M63.411 56.2133C82.9511 56.2133 98.7868 48.1266 98.7868 38.155C98.7868 28.1808 82.9511 20.0967 63.411 20.0967C43.881 20.0967 28.0327 28.1834 28.0327 38.155C28.0327 48.1292 43.881 56.2133 63.411 56.2133ZM70.0663 47.3631C69.4867 48.7214 68.4661 51.6345 66.1376 52.7937C65.4346 53.1339 64.5576 53.3103 63.7663 53.3254C63.595 53.3405 63.4715 53.3254 63.4211 53.3254C56.8943 53.3254 50.8085 52.4308 45.7231 50.8911C45.6828 50.876 45.5719 50.823 45.5719 50.823C45.0654 50.6643 44.8235 50.445 44.8235 50.1729C44.8235 49.9436 44.9419 49.7722 45.1133 49.6034C45.1889 49.5278 45.2947 49.4446 45.4333 49.3236C46.6001 48.3358 50.1533 45.7805 56.8086 43.2504C59.1472 42.3609 62.0678 41.247 65.1296 40.6044C66.934 40.2214 73.5918 39.2109 70.0663 47.3631ZM87.9482 29.1611C88.0667 28.9318 88.238 28.7504 88.5379 28.7352C88.7093 28.7126 88.9235 28.7579 89.2687 28.9696C93.4242 31.5274 95.8888 34.695 95.8888 38.1474C95.8888 44.3819 87.86 49.7268 76.3739 52.0704C75.6305 52.2141 75.1492 52.2141 74.9803 52.0251C74.8694 51.9041 74.8367 51.705 74.9803 51.4631C75.0534 51.327 75.134 51.2212 75.2802 51.0473C81.5374 43.6889 86.3077 32.8529 87.6509 29.713C87.7517 29.5089 87.86 29.2972 87.9482 29.1611ZM56.864 28.9167C57.4462 27.5685 58.4617 24.6478 60.7978 23.4861C61.5034 23.1383 62.3803 22.977 63.1565 22.9468C63.343 22.9468 63.4614 22.9468 63.5194 22.9468C70.0462 22.9468 76.1093 23.849 81.2022 25.4038C81.2551 25.4038 81.361 25.4517 81.3962 25.4643C81.8725 25.623 82.1044 25.8347 82.117 26.0993C82.117 26.3362 81.991 26.5101 81.8196 26.6764C81.7516 26.752 81.6457 26.8427 81.497 26.9561C80.3252 27.9414 76.7872 30.4917 70.1344 33.0243C67.7933 33.934 64.8575 35.0352 61.8083 35.6804C59.9989 36.0609 53.3436 37.0714 56.864 28.9167ZM50.4658 24.237C51.2117 24.0858 51.7787 24.0858 51.945 24.2824C52.0559 24.3958 52.0987 24.5949 51.945 24.8368C51.8669 24.9653 51.7888 25.0787 51.6451 25.2602C45.3854 32.6085 40.6277 43.4571 39.2744 46.5819C39.1686 46.8011 39.0653 47.0204 38.9897 47.159C38.8486 47.3782 38.6898 47.5546 38.3899 47.5748C38.2337 47.5748 38.0069 47.537 37.6591 47.3328C33.5137 44.7826 30.9458 41.5998 30.9458 38.155C30.9433 31.9281 38.9897 26.5655 50.4658 24.237Z" fill="url(#paint5_linear_2_720)"/>
</g>
</g>
<path d="M73.8486 51.1217C76.9457 47.3568 80.4888 40.8048 81.6581 38.5771L72.5332 41.6465C72.5785 44.1615 72.0544 49.7206 67.0421 53.5611C67.0421 53.5611 65.2529 54.1533 61.9542 54.1709L61.105 55.509C63.3251 55.6905 69.5949 55.9248 78.5635 53.9643V53.9693L79.3699 52.1196C76.8903 53.0873 70.807 54.8186 73.8486 51.1217Z" fill="url(#paint6_linear_2_720)"/>
<path d="M62.4407 35.5383C62.229 35.5887 62.0148 35.634 61.8032 35.6794C60.8329 35.8835 58.4692 36.2666 57.0278 35.3216C55.7778 34.5051 55.2209 32.6907 56.8564 28.9031C57.4032 27.6356 58.3331 24.982 60.3794 23.6993L58.1315 21.8018C57.9828 21.8799 57.8593 21.9731 57.7661 22.0865C56.7833 23.349 55.9341 24.735 55.1579 26.1311C54.4221 27.4541 53.7593 28.8225 53.2175 30.2387C52.7841 31.3601 52.1667 33.0359 52.0155 34.616C51.8416 36.4001 52.2599 38.0608 54.2129 38.6505C54.3465 38.6883 54.4951 38.7362 54.6715 38.779C55.8106 39.0562 57.9854 39.278 62.8792 37.9575L62.4407 35.5383Z" fill="url(#paint7_linear_2_720)"/>
<path d="M85.6349 25.6904L82.1321 26.0583C82.1321 26.0684 82.1371 26.0785 82.1371 26.0861C82.1371 26.3229 82.0112 26.4968 81.8398 26.6631C81.7717 26.7387 81.6659 26.8295 81.5172 26.9429C80.3429 27.9307 76.8023 30.4835 70.1394 33.0186C68.5266 33.6461 66.6291 34.3643 64.6055 34.9615V34.959C63.8974 35.1681 63.1741 35.3647 62.4408 35.5335C62.2291 35.5839 62.0149 35.6293 61.8033 35.6747C60.8961 35.8637 58.7742 36.2114 57.3227 35.4857L54.2634 38.6634C54.3819 38.6987 54.5129 38.7365 54.6641 38.7743C55.8031 39.0515 57.9779 39.2732 62.8717 37.9528C65.0944 37.353 67.879 36.4332 71.3818 35.0598C77.3743 32.7212 84.3925 28.7018 85.6072 25.8971C85.6425 25.824 85.6475 25.7559 85.6349 25.6904Z" fill="url(#paint8_linear_2_720)"/>
<path d="M38.3596 47.5863C38.2034 47.5863 37.9741 47.5459 37.6263 47.3443C33.4759 44.7916 30.903 41.6038 30.903 38.1564C30.903 31.9219 38.9569 26.5518 50.4481 24.2208C51.194 24.0696 51.761 24.0696 51.9273 24.2662C51.95 24.2914 51.9702 24.3191 51.9853 24.3493L56.9799 21.8394C56.9446 21.7512 56.8312 21.7033 56.6548 21.7084C49.9844 22.3762 43.8633 24.0217 38.9695 26.5065C32.7073 29.6842 29.2549 33.8245 29.2549 38.1564C29.2549 42.4908 32.7048 46.6286 38.9695 49.8089C39.2442 49.9475 39.5264 50.0861 39.8061 50.2197C39.9876 50.3028 40.1564 50.3053 40.29 50.2524L38.5864 47.5333C38.5234 47.5585 38.4478 47.5787 38.3596 47.5863Z" fill="url(#paint9_linear_2_720)"/>
<path d="M72.6568 37.6529C71.2784 37.2346 67.8814 36.3702 55.483 41.2414C49.4905 43.5799 42.4723 47.5968 41.2576 50.4041C41.2148 50.5074 41.2198 50.5981 41.2551 50.6813L44.8133 50.273C44.8058 50.2428 44.8033 50.2126 44.8033 50.1823C44.8033 49.9555 44.9217 49.7816 45.0931 49.6128C45.1687 49.5372 45.2745 49.454 45.4131 49.3306C46.5824 48.3427 50.1406 45.7849 56.8035 43.2498C59.1446 42.3602 62.0678 41.2439 65.1371 40.5988C66.944 40.2208 73.6094 39.2102 70.0789 47.3725C69.5093 48.7132 68.5013 51.5633 66.2384 52.7578L68.7433 54.4966C68.8919 54.4159 69.0104 54.3252 69.1061 54.2143C70.0889 52.9518 70.9382 51.5658 71.7169 50.1697C72.4502 48.8442 73.1129 47.4784 73.6573 46.0621C74.0882 44.9432 74.7081 43.2649 74.8593 41.6849C75.0281 39.9032 74.6073 38.2426 72.6568 37.6529Z" fill="url(#paint10_linear_2_720)"/>
<path d="M66.14 52.8101C65.4344 53.1503 64.5599 53.3267 63.7661 53.3418C63.5948 53.3569 63.4738 53.3418 63.4209 53.3418C56.8865 53.3418 50.7932 52.4447 45.7002 50.9025C45.6624 50.8873 45.549 50.8344 45.549 50.8344C45.1005 50.6933 44.8611 50.5043 44.8107 50.2725L41.2524 50.6807C41.3255 50.8344 41.5145 50.9604 41.7514 51.0688C47.8624 53.5686 55.435 54.9294 63.431 54.9294C64.701 54.9294 65.9585 54.8967 67.2034 54.8286C67.8964 54.7883 68.3928 54.6825 68.7356 54.4985L66.2307 52.7597C66.2004 52.7748 66.1702 52.7925 66.14 52.8101Z" fill="url(#paint11_linear_2_720)"/>
<path d="M74.9978 51.4799C75.0684 51.3439 75.149 51.238 75.2977 51.0641C81.5624 43.6982 86.3403 32.8471 87.6835 29.7021C87.7792 29.498 87.8901 29.2838 87.9758 29.1477C88.069 28.9688 88.195 28.8176 88.3916 28.7546L86.5696 26.0557C86.4638 26.0985 86.3806 26.1741 86.3353 26.2774C82.5855 34.3087 78.5712 41.6393 73.6118 48.9272C72.4072 50.6962 71.1069 52.4174 69.9376 54.2116C69.8469 54.3502 69.8469 54.4561 69.915 54.5216L74.96 51.9991C74.8819 51.8756 74.8693 51.6967 74.9978 51.4799Z" fill="url(#paint12_linear_2_720)"/>
<path d="M60.7926 23.4681C61.5007 23.1179 62.3777 22.9591 63.1539 22.9314C63.3403 22.9314 63.4588 22.9314 63.5167 22.9314C70.0511 22.9314 76.1218 23.8335 81.2223 25.3909C81.2752 25.3909 81.381 25.4388 81.4138 25.4539C81.8749 25.6051 82.1043 25.8092 82.1295 26.0612L85.6323 25.6933C85.5919 25.5068 85.3803 25.3607 85.1106 25.2372C78.9996 22.7373 71.427 21.374 63.4285 21.374C62.1585 21.374 60.901 21.4093 59.6561 21.4773C58.9656 21.5151 58.4717 21.6185 58.1265 21.8024L60.3743 23.7C60.5129 23.6193 60.6515 23.5387 60.7926 23.4681Z" fill="url(#paint13_linear_2_720)"/>
<path d="M97.6048 38.1547C97.6048 33.8178 94.1575 29.68 87.8927 26.4997C87.6206 26.3611 87.3383 26.2225 87.0536 26.089C86.8772 26.0083 86.7083 26.0033 86.5723 26.0562L88.3942 28.7551C88.4497 28.7375 88.5051 28.7274 88.5706 28.7224C88.742 28.6997 88.9587 28.745 89.3014 28.9567C93.4619 31.517 95.9315 34.6897 95.9315 38.1472C95.9315 38.2681 95.929 38.3891 95.924 38.51H97.6023C97.6023 38.3916 97.6048 38.2732 97.6048 38.1547Z" fill="url(#paint14_linear_2_720)"/>
<path d="M95.9213 38.484C95.6138 44.5698 87.6683 49.7887 76.3938 52.0869C75.6504 52.2306 75.1666 52.2306 75.0002 52.0416C74.9851 52.029 74.9776 52.0138 74.965 51.9962L69.9199 54.5187C69.9754 54.5716 70.0736 54.5994 70.2097 54.5943C76.8776 53.9291 82.9987 52.2835 87.8926 49.7988C93.9834 46.7067 97.4131 42.6823 97.5971 38.4814H95.9213V38.484Z" fill="url(#paint15_linear_2_720)"/>
<path d="M85.6347 25.6908C85.5943 25.5043 85.3827 25.3581 85.113 25.2346C84.2865 24.897 83.4347 24.5819 82.5603 24.2871L81.0508 25.338C81.1087 25.3531 81.1667 25.3707 81.2247 25.3884C81.2776 25.3884 81.3834 25.4362 81.4162 25.4514C81.8773 25.6026 82.1067 25.8067 82.1319 26.0587C82.1319 26.0687 82.1369 26.0788 82.1369 26.0864C82.1369 26.3233 82.0109 26.4972 81.8395 26.6635C81.7715 26.7391 81.6657 26.8298 81.517 26.9432C81.4263 27.0188 81.3204 27.107 81.202 27.1977L84.1983 27.737C84.8686 27.0919 85.36 26.4694 85.6069 25.8999C85.6422 25.8243 85.6473 25.7563 85.6347 25.6908Z" fill="url(#paint16_linear_2_720)"/>
<path d="M45.7004 50.9025C45.3955 50.7866 44.8915 50.6505 44.8108 50.2725C44.8033 50.2423 44.8007 50.212 44.8007 50.1818C44.8007 49.955 44.9192 49.7811 45.0905 49.6123C45.1661 49.5367 45.272 49.4535 45.4106 49.33C45.5164 49.2418 45.6424 49.141 45.7861 49.0276L42.8956 48.3447C42.1043 49.068 41.5323 49.7635 41.2576 50.401C41.2148 50.5044 41.2198 50.5951 41.2551 50.6782C41.3282 50.832 41.5172 50.958 41.7541 51.0663C42.5201 51.3813 43.3089 51.6762 44.1178 51.9534L45.9625 50.9781C45.8743 50.9529 45.7861 50.9302 45.7004 50.9025Z" fill="url(#paint17_linear_2_720)"/>
<path d="M87.8929 26.4997C87.6208 26.3611 87.3385 26.2225 87.0538 26.089C86.8774 26.0083 86.7085 26.0033 86.5725 26.0562C86.4666 26.099 86.3835 26.1746 86.3381 26.278C86.0357 26.9256 85.7308 27.5657 85.4233 28.2007L87.5527 30.005C87.6006 29.8992 87.6409 29.7984 87.6813 29.7026C87.777 29.4985 87.8879 29.2843 87.9736 29.1482C88.0668 28.9693 88.1928 28.8181 88.3894 28.7551C88.4448 28.7375 88.5003 28.7274 88.5658 28.7224C88.7371 28.6997 88.9539 28.745 89.2966 28.9567C89.4276 29.0399 89.5612 29.123 89.6947 29.2062L89.8661 27.5884C89.2437 27.2179 88.5859 26.8525 87.8929 26.4997Z" fill="url(#paint18_linear_2_720)"/>
<path d="M59.6612 21.477C58.9707 21.5148 58.4768 21.6181 58.1316 21.8021C57.9829 21.8802 57.8594 21.9735 57.7662 22.0869C57.3428 22.6287 56.9447 23.1957 56.5667 23.7778L58.7162 25.2898C59.1698 24.6799 59.7141 24.1155 60.3769 23.6997C60.5104 23.6165 60.6491 23.5384 60.7927 23.4653C61.2387 23.2461 61.7503 23.0999 62.2619 23.0167V21.3838C61.3899 21.3989 60.5205 21.4291 59.6612 21.477Z" fill="url(#paint19_linear_2_720)"/>
<path d="M66.2333 52.76C66.2006 52.7751 66.1728 52.7952 66.1401 52.8129C65.4345 53.1531 64.56 53.3295 63.7662 53.3446C63.5949 53.3597 63.4739 53.3446 63.421 53.3446C62.2064 53.3446 61.0119 53.3018 59.8325 53.2413L59.5352 54.8188C60.8204 54.8919 62.1207 54.9297 63.4336 54.9297C64.7037 54.9297 65.9612 54.8969 67.206 54.8289C67.899 54.7886 68.3955 54.6827 68.7382 54.4988C68.8869 54.4181 69.0053 54.3274 69.1011 54.2165C70.0839 52.954 70.9331 51.568 71.7118 50.1719C71.7798 50.0459 71.8454 49.9174 71.9134 49.7914L69.6227 48.4482C68.9952 49.8922 67.9973 51.8301 66.2333 52.76Z" fill="url(#paint20_linear_2_720)"/>
<path d="M51.9879 24.3498C52.0484 24.4657 52.0509 24.6295 51.9299 24.821C51.8518 24.9495 51.7737 25.0629 51.63 25.2444C45.3628 32.6002 40.5975 43.4614 39.2442 46.5913C39.1384 46.8105 39.0351 47.0323 38.9595 47.1684C38.8612 47.3246 38.7503 47.4556 38.5916 47.5287L40.2951 50.2478C40.4009 50.205 40.4841 50.1294 40.5294 50.026C44.2792 41.9973 48.2936 34.6641 53.2529 27.3788C54.4575 25.6072 55.7603 23.8886 56.9271 22.0944C56.9976 21.9885 57.0128 21.9054 56.985 21.8398L51.9879 24.3498Z" fill="url(#paint21_linear_2_720)"/>
<path d="M39.6299 45.707C39.4787 46.0472 39.3527 46.3421 39.2444 46.5916C39.1385 46.8108 39.0352 47.0326 38.9596 47.1686C38.8613 47.3249 38.7504 47.4559 38.5917 47.529C38.5236 47.5592 38.448 47.5794 38.3598 47.587C38.2036 47.587 37.9743 47.5466 37.6265 47.345C37.2914 47.1384 36.9688 46.9292 36.6538 46.715L36.7949 48.595C37.4753 49.0133 38.2011 49.419 38.9697 49.8071C39.2444 49.9457 39.5266 50.0843 39.8063 50.2178C39.9878 50.301 40.1566 50.3035 40.2902 50.2506C40.396 50.2078 40.4792 50.1321 40.5245 50.0288C40.9731 49.0712 41.4267 48.1237 41.8828 47.1838L39.6299 45.707Z" fill="url(#paint22_linear_2_720)"/>
<path d="M56.9823 21.8375C56.947 21.7493 56.8336 21.7014 56.6572 21.7064C54.737 21.8979 52.8646 22.1751 51.0527 22.5229L49.8079 24.3524C50.0221 24.3096 50.2363 24.2617 50.4505 24.2189C51.1964 24.0677 51.7634 24.0677 51.9297 24.2642C51.9524 24.2894 51.9725 24.3171 51.9877 24.3474C52.0481 24.4633 52.0507 24.6271 51.9297 24.8186C51.8516 24.9471 51.7735 25.0605 51.6298 25.242C51.592 25.2848 51.5542 25.3277 51.5189 25.373H54.6513C55.4224 24.2869 56.1986 23.2033 56.9243 22.0895C56.9949 21.9861 57.01 21.903 56.9823 21.8375Z" fill="url(#paint23_linear_2_720)"/>
<path d="M63.4084 20.0732C43.8457 20.0732 27.9873 28.1675 27.9873 38.1542C27.9873 48.141 43.8457 56.2352 63.4084 56.2352C82.9712 56.2352 98.8295 48.141 98.8295 38.1542C98.8321 28.1675 82.9712 20.0732 63.4084 20.0732ZM87.9305 49.8874C81.4113 53.2163 72.7123 55.0508 63.4387 55.0508C54.1676 55.0508 45.4685 53.2163 38.9443 49.8874C32.6745 46.687 29.2196 42.5214 29.2196 38.1593C29.2196 33.7997 32.6745 29.6341 38.9443 26.4337C45.4685 23.1048 54.1651 21.2702 63.4387 21.2702C72.7072 21.2702 81.4088 23.1048 87.9305 26.4337C94.2028 29.6316 97.6552 33.7997 97.6552 38.1593C97.6552 42.5214 94.2003 46.687 87.9305 49.8874Z" fill="url(#paint24_linear_2_720)"/>
<path d="M62.4407 35.5386C62.2291 35.589 62.0174 35.6369 61.8032 35.6822C60.833 35.8838 58.4692 36.2694 57.0278 35.3244C56.1735 34.7675 55.6443 33.7393 55.9165 31.9375L52.2448 33.263C52.1415 33.7116 52.0558 34.1677 52.0155 34.6188C51.8391 36.4029 52.2599 38.0636 54.2104 38.6533C54.3415 38.6936 54.4927 38.739 54.6665 38.7793C55.8056 39.0565 57.9803 39.2783 62.8717 37.9578C63.3782 37.8192 63.92 37.6655 64.487 37.4941L64.6054 34.9615C63.8973 35.1732 63.1741 35.3672 62.4407 35.5386Z" fill="url(#paint25_linear_2_720)"/>
<path d="M74.8542 41.6897C75.0281 39.903 74.6073 38.2424 72.6593 37.6527C71.4497 37.2873 68.6928 36.5792 59.6838 39.6863L59.956 42.0904C61.5738 41.5259 63.3278 40.9816 65.1371 40.6011C66.8406 40.2432 72.8559 39.3285 70.5854 46.0569L73.9092 45.3815C74.2973 44.3206 74.7282 42.9749 74.8542 41.6897Z" fill="url(#paint26_linear_2_720)"/>
<path d="M73.5011 38.0312L69.6934 40.836C70.2503 41.1359 70.6988 41.6021 70.9231 42.3102L74.6704 39.5231C74.4637 38.9183 74.0908 38.4017 73.5011 38.0312Z" fill="url(#paint27_linear_2_720)"/>
<path d="M76.3914 52.0895C75.648 52.2332 75.1642 52.2332 74.9979 52.0442C74.9828 52.0316 74.9752 52.0165 74.9626 51.9988C74.8794 51.8753 74.8668 51.6989 74.9979 51.4822C75.0684 51.3461 75.1491 51.2403 75.2978 51.0664C75.5346 50.7892 75.7665 50.507 75.9983 50.2197L72.992 49.8291C71.9714 51.2857 70.9104 52.7271 69.9428 54.2164C69.852 54.355 69.852 54.4609 69.9201 54.5264C69.9755 54.5793 70.0738 54.607 70.2099 54.602C72.556 54.3676 74.829 54.0073 77.0114 53.536V51.961C76.8047 52.0013 76.6006 52.0467 76.3914 52.0895Z" fill="url(#paint28_linear_2_720)"/>
<path d="M56.6093 39.0939C55.309 39.0939 54.5731 38.8721 54.1775 38.7512C52.4563 38.2295 51.6903 36.836 51.907 34.6058C52.0531 33.1165 52.6025 31.544 53.1191 30.2033C53.6382 28.8551 54.2758 27.5069 55.0671 26.0831C55.9944 24.4174 56.826 23.1272 57.6853 22.0259C58.0129 21.6353 58.6203 21.4363 59.656 21.3758C60.9235 21.3077 62.1961 21.2725 63.4335 21.2725C71.4571 21.2725 78.9693 22.6106 85.1533 25.1432C85.3398 25.2289 85.9018 25.4859 85.7052 25.9445C84.4704 28.7921 77.4245 32.8191 71.4219 35.1627C64.7766 37.7684 59.7921 39.0939 56.6093 39.0939ZM63.4335 21.4766C62.1987 21.4766 60.9311 21.5093 59.6661 21.5774C58.6933 21.6353 58.1314 21.8117 57.8466 22.1519C56.9974 23.2431 56.1708 24.5233 55.2485 26.1814C54.4623 27.5951 53.8297 28.9358 53.3131 30.2764C52.978 31.1458 52.2774 32.9627 52.1161 34.6259C51.912 36.7427 52.6252 38.0657 54.2405 38.5546C54.6261 38.6705 55.3417 38.8873 56.6118 38.8873C59.7694 38.8873 64.7262 37.5693 71.3463 34.9687C77.3111 32.6402 84.3066 28.6561 85.5162 25.8614C85.5742 25.7253 85.5666 25.5565 85.0727 25.3322C78.9138 22.8097 71.4294 21.4766 63.4335 21.4766Z" fill="url(#paint29_linear_2_720)"/>
<path d="M54.7096 25.1153C54.1981 25.8335 53.6689 26.5769 53.1649 27.3178C48.6818 33.9101 44.7758 40.8048 40.9277 48.9369L41.1167 49.0225C44.9597 40.9031 48.8582 34.0159 53.3362 27.4337C53.8377 26.6953 54.3694 25.9545 54.8785 25.2337C55.3825 24.5256 55.8991 23.7998 56.4005 23.0665L56.1737 23.0312C55.6899 23.7369 55.196 24.4349 54.7096 25.1153Z" fill="url(#paint30_linear_2_720)"/>
<path d="M72.1553 51.2079C72.6693 50.4897 73.1986 49.7463 73.7026 49.0029C78.1453 42.4711 82.0211 35.6368 85.8414 27.5955L85.6247 27.5703C81.8195 35.5738 77.9613 42.3804 73.5337 48.887C73.0322 49.6279 72.503 50.3688 71.989 51.087C71.5303 51.7321 71.0616 52.3923 70.6055 53.0576H70.855C71.2834 52.4326 71.7218 51.8152 72.1553 51.2079Z" fill="url(#paint31_linear_2_720)"/>
<path d="M63.4335 55.0509C55.4098 55.0509 47.9028 53.7128 41.7136 51.1827C41.5246 51.0971 40.9652 50.84 41.1643 50.3814C42.3991 47.5338 49.445 43.5068 55.4476 41.1632C62.0929 38.5525 67.0749 37.2295 70.2577 37.2295C71.558 37.2295 72.2964 37.4538 72.6895 37.5697C74.4132 38.0913 75.1742 39.4849 74.96 41.7151C74.8138 43.2069 74.267 44.7769 73.7504 46.1175C73.2388 47.4506 72.5836 48.8366 71.805 50.2352C70.8751 51.906 70.0435 53.1962 69.1867 54.2949C68.8566 54.6855 68.2518 54.8846 67.216 54.9451C65.9586 55.0182 64.686 55.0509 63.4335 55.0509ZM70.2552 37.4361C67.1001 37.4361 62.1408 38.7541 55.5207 41.3547C49.5559 43.6832 42.5629 47.6673 41.3508 50.462C41.2928 50.5981 41.3004 50.7644 41.7943 50.9937C47.9506 53.5137 55.4376 54.8468 63.431 54.8468C64.6809 54.8468 65.9485 54.8115 67.1984 54.746C68.1711 54.6906 68.7331 54.5142 69.0204 54.1715C69.8671 53.0828 70.6936 51.8027 71.6185 50.142C72.3921 48.7509 73.0448 47.3725 73.5538 46.0495C74.0654 44.7215 74.6072 43.1666 74.7508 41.7C74.9575 39.5807 74.2418 38.2602 72.6265 37.7713C72.2409 37.6554 71.5252 37.4361 70.2552 37.4361Z" fill="url(#paint32_linear_2_720)"/>
<path d="M57.0683 21.7689C57.0255 21.6933 56.9247 21.6025 56.6828 21.6025H56.645C49.9216 22.2754 43.793 23.9361 38.9243 26.4107C32.6243 29.6086 29.1543 33.7767 29.1543 38.1514C29.1543 42.5261 32.6218 46.6992 38.9243 49.8946C39.199 50.0332 39.4813 50.1718 39.766 50.3079C39.8794 50.3608 39.9903 50.386 40.1012 50.386C40.3355 50.386 40.5346 50.2625 40.6203 50.0685C40.7841 49.7157 40.9504 49.3679 41.1142 49.0201L40.9252 48.9345C40.7589 49.2822 40.5951 49.63 40.4313 49.9828C40.3481 50.1718 40.0961 50.2348 39.8542 50.1214C39.5695 49.9878 39.2897 49.8517 39.0176 49.7106C32.7907 46.5505 29.3609 42.4455 29.3609 38.1514C29.3609 33.8573 32.7907 29.7522 39.0176 26.5947C43.8661 24.1301 49.967 22.477 56.6828 21.8092C56.8088 21.8092 56.8718 21.8419 56.8869 21.8697C56.902 21.9024 56.8844 21.9654 56.8365 22.0385C56.6198 22.3711 56.3955 22.7013 56.1712 23.0339L56.398 23.0692C56.6047 22.7643 56.8113 22.4568 57.0104 22.1494C57.1313 21.9654 57.1061 21.8419 57.0683 21.7689Z" fill="url(#paint33_linear_2_720)"/>
<path d="M87.9404 26.4265C87.6657 26.2853 87.3835 26.1493 87.0987 26.0132C86.751 25.8519 86.3705 25.9653 86.2445 26.2551C86.0378 26.6986 85.8312 27.1371 85.622 27.5731L85.8387 27.5983C86.0353 27.1825 86.2344 26.7641 86.4335 26.3408C86.4864 26.2173 86.6099 26.1442 86.7636 26.1442C86.8442 26.1442 86.9274 26.1644 87.0105 26.2022C87.2953 26.3357 87.5725 26.4718 87.8497 26.6104C94.0741 29.773 97.5038 33.8781 97.5038 38.1722C97.5038 42.4663 94.0741 46.5688 87.8497 49.7289C83.0189 52.1834 76.9457 53.834 70.2903 54.5068C70.1265 54.5245 69.8821 54.5119 70.0283 54.2876C70.2979 53.8768 70.5751 53.4686 70.8548 53.0603H70.6053C70.3508 53.4283 70.0988 53.8012 69.8569 54.1742C69.7385 54.3581 69.7611 54.4816 69.7989 54.5547C69.8997 54.7437 70.1643 54.7286 70.3433 54.7084C77.0137 54.0305 83.0995 52.3749 87.9429 49.9154C94.2429 46.7175 97.7105 42.5469 97.7105 38.1747C97.7079 33.7975 94.2404 29.6243 87.9404 26.4265Z" fill="url(#paint34_linear_2_720)"/>
</g>
<defs>
<radialGradient id="paint0_radial_2_720" cx="0" cy="0" r="1" gradientUnits="userSpaceOnUse" gradientTransform="translate(65.4236 26.5057) scale(33.6644 33.6643)">
<stop stop-color="#8B9394"/>
<stop offset="1" stop-color="#727A79"/>
</radialGradient>
<radialGradient id="paint1_radial_2_720" cx="0" cy="0" r="1" gradientUnits="userSpaceOnUse" gradientTransform="translate(63.5103 19.9812) scale(41.8162 41.8676)">
<stop stop-color="#969D9D"/>
<stop offset="0.6135" stop-color="#7A8182"/>
<stop offset="1" stop-color="#4B5050"/>
</radialGradient>
<radialGradient id="paint2_radial_2_720" cx="0" cy="0" r="1" gradientUnits="userSpaceOnUse" gradientTransform="translate(50.1016 25.0737) scale(34.5191)">
<stop stop-color="#969D9D"/>
<stop offset="0.4601" stop-color="#828B8A"/>
<stop offset="1" stop-color="#C2C9C8"/>
</radialGradient>
<radialGradient id="paint3_radial_2_720" cx="0" cy="0" r="1" gradientUnits="userSpaceOnUse" gradientTransform="translate(64.9944 41.5404) scale(19.2041 19.2041)">
<stop stop-color="#969D9D"/>
<stop offset="0.6135" stop-color="#828B8A"/>
<stop offset="1" stop-color="#727A79"/>
</radialGradient>
<radialGradient id="paint4_radial_2_720" cx="0" cy="0" r="1" gradientUnits="userSpaceOnUse" gradientTransform="translate(88.7653 32.9493) scale(27.6377 27.6377)">
<stop stop-color="#969D9D"/>
<stop offset="0.6135" stop-color="#828B8A"/>
<stop offset="1" stop-color="#727A79"/>
</radialGradient>
<linearGradient id="paint5_linear_2_720" x1="62.5402" y1="21.5773" x2="64.2907" y2="54.9794" gradientUnits="userSpaceOnUse">
<stop stop-color="white"/>
<stop offset="0.4" stop-color="white"/>
<stop offset="0.5706" stop-color="#A4AAAA"/>
<stop offset="0.6257" stop-color="#8F9697"/>
<stop offset="0.6626" stop-color="#878F90"/>
<stop offset="0.75" stop-color="#969D9D"/>
<stop offset="0.81" stop-color="white"/>
</linearGradient>
<linearGradient id="paint6_linear_2_720" x1="70.0854" y1="54.4063" x2="73.3268" y2="41.735" gradientUnits="userSpaceOnUse">
<stop stop-color="white"/>
<stop offset="0.6258" stop-color="white"/>
<stop offset="0.6768" stop-color="#F1F2F2"/>
<stop offset="0.8952" stop-color="#B7BDBE"/>
<stop offset="1" stop-color="#A0A8AA"/>
</linearGradient>
<linearGradient id="paint7_linear_2_720" x1="60.0171" y1="36.9446" x2="53.4957" y2="25.3235" gradientUnits="userSpaceOnUse">
<stop stop-color="#E5EEED"/>
<stop offset="0.2776" stop-color="#CFD7D7"/>
<stop offset="0.5521" stop-color="#B6BCBD"/>
<stop offset="1" stop-color="#A0A8AA"/>
</linearGradient>
<linearGradient id="paint8_linear_2_720" x1="65.7061" y1="26.0943" x2="71.21" y2="33.9867" gradientUnits="userSpaceOnUse">
<stop stop-color="#E5EEED"/>
<stop offset="0.2776" stop-color="#CFD7D7"/>
<stop offset="0.5521" stop-color="#B6BCBD"/>
<stop offset="1" stop-color="#A0A8AA"/>
</linearGradient>
<linearGradient id="paint9_linear_2_720" x1="43.1203" y1="44.5896" x2="43.1203" y2="26.5896" gradientUnits="userSpaceOnUse">
<stop stop-color="white"/>
<stop offset="0.0629" stop-color="#F6F7F7"/>
<stop offset="0.1635" stop-color="#DFE1E1"/>
<stop offset="0.2891" stop-color="#B9BCBC"/>
<stop offset="0.4336" stop-color="#858A8A"/>
<stop offset="0.5276" stop-color="#5F6666"/>
<stop offset="0.773" stop-color="#4B5050"/>
<stop offset="1" stop-color="#404444"/>
</linearGradient>
<linearGradient id="paint10_linear_2_720" x1="73.5748" y1="48.4138" x2="53.6838" y2="43.3255" gradientUnits="userSpaceOnUse">
<stop stop-color="#8B9394"/>
<stop offset="0.1758" stop-color="#7A8182"/>
<stop offset="0.3399" stop-color="#646A6B"/>
<stop offset="0.5698" stop-color="#404444"/>
<stop offset="1" stop-color="#333737"/>
</linearGradient>
<linearGradient id="paint11_linear_2_720" x1="41.2532" y1="52.6015" x2="68.738" y2="52.6015" gradientUnits="userSpaceOnUse">
<stop stop-color="white"/>
<stop offset="0.9331" stop-color="white"/>
<stop offset="1" stop-color="white"/>
</linearGradient>
<linearGradient id="paint12_linear_2_720" x1="87.0952" y1="29.3474" x2="72.8584" y2="51.3778" gradientUnits="userSpaceOnUse">
<stop stop-color="#ABB3B3"/>
<stop offset="0.3804" stop-color="#727A79"/>
<stop offset="0.4174" stop-color="#575D5C"/>
<stop offset="0.4495" stop-color="#464A4A"/>
<stop offset="0.4724" stop-color="#404444"/>
<stop offset="1" stop-color="#333737"/>
</linearGradient>
<linearGradient id="paint13_linear_2_720" x1="82.2909" y1="24.9756" x2="60.8139" y2="22.081" gradientUnits="userSpaceOnUse">
<stop stop-color="#4B5050"/>
<stop offset="0.1082" stop-color="#434747"/>
<stop offset="0.3852" stop-color="#323534"/>
<stop offset="0.6758" stop-color="#282A2A"/>
<stop offset="1" stop-color="#252726"/>
</linearGradient>
<linearGradient id="paint14_linear_2_720" x1="89.0119" y1="25.7939" x2="95.8169" y2="37.1044" gradientUnits="userSpaceOnUse">
<stop stop-color="#252726"/>
<stop offset="0.0676" stop-color="#2B2E2D"/>
<stop offset="0.3252" stop-color="#404444"/>
<stop offset="0.4324" stop-color="#4A4F4F"/>
<stop offset="0.6933" stop-color="#5F6666"/>
<stop offset="0.7433" stop-color="#666D6D"/>
<stop offset="0.8172" stop-color="#798181"/>
<stop offset="0.8712" stop-color="#8B9394"/>
<stop offset="1" stop-color="#A0A8AA"/>
</linearGradient>
<linearGradient id="paint15_linear_2_720" x1="75.5731" y1="54.3173" x2="96.8186" y2="41.0448" gradientUnits="userSpaceOnUse">
<stop stop-color="white"/>
<stop offset="0.7669" stop-color="white"/>
<stop offset="0.8338" stop-color="#E8EBEB"/>
<stop offset="0.9018" stop-color="#CCD4D3"/>
<stop offset="0.9599" stop-color="#AFB7B8"/>
<stop offset="1" stop-color="#A0A8AA"/>
</linearGradient>
<linearGradient id="paint16_linear_2_720" x1="83.309" y1="25.4962" x2="83.4305" y2="26.5442" gradientUnits="userSpaceOnUse">
<stop stop-color="#4B5050"/>
<stop offset="0.0835" stop-color="#6D7373"/>
<stop offset="0.1678" stop-color="#888F8F"/>
<stop offset="0.2527" stop-color="#9CA3A3"/>
<stop offset="0.3378" stop-color="#A7AFAF"/>
<stop offset="0.4233" stop-color="#ABB3B3"/>
<stop offset="0.5767" stop-color="#ABB3B3"/>
<stop offset="0.919" stop-color="#A3ABAC"/>
<stop offset="1" stop-color="#A0A8AA"/>
</linearGradient>
<linearGradient id="paint17_linear_2_720" x1="43.4712" y1="49.4966" x2="43.6978" y2="51.5242" gradientUnits="userSpaceOnUse">
<stop stop-color="#333737"/>
<stop offset="0.0158" stop-color="#494E4E"/>
<stop offset="0.0411" stop-color="#676E6D"/>
<stop offset="0.0552" stop-color="#727A79"/>
<stop offset="0.2185" stop-color="#808888"/>
<stop offset="0.3988" stop-color="#8B9394"/>
<stop offset="0.4757" stop-color="#9BA3A4"/>
<stop offset="0.4969" stop-color="#A0A8AA"/>
<stop offset="0.7853" stop-color="#ABB3B3"/>
<stop offset="0.8536" stop-color="#C2C8C8"/>
<stop offset="0.9966" stop-color="#FDFEFE"/>
<stop offset="1" stop-color="white"/>
</linearGradient>
<linearGradient id="paint18_linear_2_720" x1="87.0347" y1="28.3177" x2="88.448" y2="27.4317" gradientUnits="userSpaceOnUse">
<stop stop-color="#ABB3B3"/>
<stop offset="0.4172" stop-color="#A0A8AA"/>
<stop offset="0.5215" stop-color="#A0A8AA"/>
<stop offset="0.5931" stop-color="#9BA3A5"/>
<stop offset="0.68" stop-color="#8D9496"/>
<stop offset="0.7748" stop-color="#777D7D"/>
<stop offset="0.8753" stop-color="#575B5B"/>
<stop offset="0.9792" stop-color="#2E3030"/>
<stop offset="1" stop-color="#252726"/>
</linearGradient>
<linearGradient id="paint19_linear_2_720" x1="60.449" y1="22.0868" x2="58.286" y2="24.4019" gradientUnits="userSpaceOnUse">
<stop stop-color="#252726"/>
<stop offset="0.0228" stop-color="#2D302F"/>
<stop offset="0.1422" stop-color="#565B5B"/>
<stop offset="0.2495" stop-color="#73797A"/>
<stop offset="0.3399" stop-color="#858C8D"/>
<stop offset="0.4026" stop-color="#8B9394"/>
<stop offset="0.8123" stop-color="#98A0A2"/>
<stop offset="1" stop-color="#A0A8AA"/>
</linearGradient>
<linearGradient id="paint20_linear_2_720" x1="68.067" y1="48.8056" x2="63.6345" y2="54.8761" gradientUnits="userSpaceOnUse">
<stop stop-color="#828B8A"/>
<stop offset="0.515" stop-color="#F4FAFC"/>
<stop offset="0.8083" stop-color="#F8FCFD"/>
<stop offset="1" stop-color="white"/>
</linearGradient>
<linearGradient id="paint21_linear_2_720" x1="42.2296" y1="47.8727" x2="50.6623" y2="27.9647" gradientUnits="userSpaceOnUse">
<stop stop-color="#697070"/>
<stop offset="0.5276" stop-color="#828B8A"/>
<stop offset="1" stop-color="#B2BCBC"/>
</linearGradient>
<linearGradient id="paint22_linear_2_720" x1="40.0519" y1="47.3275" x2="37.5785" y2="49.1505" gradientUnits="userSpaceOnUse">
<stop stop-color="#697070"/>
<stop offset="0.0762" stop-color="#8B9191"/>
<stop offset="0.2002" stop-color="#BDC0C0"/>
<stop offset="0.3091" stop-color="#E1E2E2"/>
<stop offset="0.3974" stop-color="#F7F7F7"/>
<stop offset="0.454" stop-color="white"/>
<stop offset="0.6348" stop-color="white"/>
<stop offset="0.6442" stop-color="white"/>
<stop offset="0.9824" stop-color="white"/>
<stop offset="1" stop-color="white"/>
</linearGradient>
<linearGradient id="paint23_linear_2_720" x1="53.2318" y1="22.7743" x2="54.0368" y2="24.3557" gradientUnits="userSpaceOnUse">
<stop stop-color="#404444"/>
<stop offset="0.1607" stop-color="#444848"/>
<stop offset="0.3258" stop-color="#4F5454"/>
<stop offset="0.4724" stop-color="#5F6666"/>
<stop offset="0.522" stop-color="#737B7A"/>
<stop offset="0.5706" stop-color="#828B8A"/>
<stop offset="0.7786" stop-color="#A3ACAC"/>
<stop offset="0.908" stop-color="#B2BCBC"/>
</linearGradient>
<linearGradient id="paint24_linear_2_720" x1="62.1953" y1="21.4554" x2="64.7379" y2="56.4128" gradientUnits="userSpaceOnUse">
<stop stop-color="white"/>
<stop offset="0.0755" stop-color="#F8FAFA"/>
<stop offset="0.1828" stop-color="#E6ECED"/>
<stop offset="0.2638" stop-color="#D3DEE0"/>
<stop offset="0.2946" stop-color="#C9D4D6"/>
<stop offset="0.3474" stop-color="#AFB9BA"/>
<stop offset="0.4159" stop-color="#858D8E"/>
<stop offset="0.4969" stop-color="#4B5050"/>
<stop offset="0.6871" stop-color="#3E4344"/>
<stop offset="0.7344" stop-color="#2F3435"/>
<stop offset="0.816" stop-color="#0D1112"/>
<stop offset="1" stop-color="#0D1112"/>
</linearGradient>
<linearGradient id="paint25_linear_2_720" x1="54.393" y1="32.5154" x2="60.9328" y2="38.4038" gradientUnits="userSpaceOnUse">
<stop offset="0.07" stop-color="#B6BCBD"/>
<stop offset="0.1214" stop-color="#C9CECE"/>
<stop offset="0.2023" stop-color="#E1E3E4"/>
<stop offset="0.2885" stop-color="#F2F3F3"/>
<stop offset="0.3827" stop-color="#FCFCFC"/>
<stop offset="0.5" stop-color="white"/>
<stop offset="0.6129" stop-color="#FCFCFC"/>
<stop offset="0.7036" stop-color="#F2F3F3"/>
<stop offset="0.7865" stop-color="#E1E4E4"/>
<stop offset="0.8644" stop-color="#C9CECE"/>
<stop offset="0.9386" stop-color="#ABB3B3"/>
</linearGradient>
<linearGradient id="paint26_linear_2_720" x1="70.7707" y1="45.097" x2="64.7449" y2="37.3835" gradientUnits="userSpaceOnUse">
<stop stop-color="#828B8A"/>
<stop offset="0.1227" stop-color="#7A8182"/>
<stop offset="0.1742" stop-color="#6B7272"/>
<stop offset="0.2759" stop-color="#545959"/>
<stop offset="0.3681" stop-color="#454949"/>
<stop offset="0.4417" stop-color="#404444"/>
<stop offset="0.7117" stop-color="#404444"/>
<stop offset="1" stop-color="#333737"/>
</linearGradient>
<linearGradient id="paint27_linear_2_720" x1="71.6921" y1="39.3921" x2="72.79" y2="40.9016" gradientUnits="userSpaceOnUse">
<stop stop-color="#3E4344"/>
<stop offset="0.017" stop-color="#555A5A"/>
<stop offset="0.0507" stop-color="#7D8081"/>
<stop offset="0.0877" stop-color="#A0A3A3"/>
<stop offset="0.1278" stop-color="#BEBFC0"/>
<stop offset="0.1719" stop-color="#D6D7D7"/>
<stop offset="0.2217" stop-color="#E8E9E9"/>
<stop offset="0.2804" stop-color="#F5F6F6"/>
<stop offset="0.3568" stop-color="#FDFDFD"/>
<stop offset="0.5153" stop-color="white"/>
<stop offset="0.6539" stop-color="#FDFDFD"/>
<stop offset="0.732" stop-color="#F4F5F5"/>
<stop offset="0.7951" stop-color="#E7E8E8"/>
<stop offset="0.8502" stop-color="#D3D5D5"/>
<stop offset="0.9001" stop-color="#B9BDBD"/>
<stop offset="0.9462" stop-color="#9A9F9F"/>
<stop offset="0.9885" stop-color="#757C7C"/>
<stop offset="1" stop-color="#6A7171"/>
</linearGradient>
<linearGradient id="paint28_linear_2_720" x1="73.0142" y1="52.3288" x2="73.6696" y2="53.6707" gradientUnits="userSpaceOnUse">
<stop stop-color="#333737"/>
<stop offset="0.057" stop-color="#5A5F5E"/>
<stop offset="0.1393" stop-color="#8B9191"/>
<stop offset="0.2168" stop-color="#B2BAB9"/>
<stop offset="0.2872" stop-color="#CED6D5"/>
<stop offset="0.3482" stop-color="#DFE8E7"/>
<stop offset="0.3929" stop-color="#E5EEED"/>
<stop offset="0.5373" stop-color="#E9F1F0"/>
<stop offset="0.6811" stop-color="#F5F8F8"/>
<stop offset="0.7607" stop-color="white"/>
</linearGradient>
<linearGradient id="paint29_linear_2_720" x1="68.3198" y1="34.0665" x2="70.07" y2="20.6212" gradientUnits="userSpaceOnUse">
<stop stop-color="white"/>
<stop offset="0.248" stop-color="#F2F6F6"/>
<stop offset="0.572" stop-color="#E8F0EF"/>
<stop offset="1" stop-color="#E5EEED"/>
</linearGradient>
<linearGradient id="paint30_linear_2_720" x1="56.9325" y1="22.1674" x2="41.7051" y2="46.8424" gradientUnits="userSpaceOnUse">
<stop stop-color="white"/>
<stop offset="0.1338" stop-color="#FCFCFC"/>
<stop offset="0.2307" stop-color="#F3F4F4"/>
<stop offset="0.316" stop-color="#E3E5E5"/>
<stop offset="0.3947" stop-color="#CDD0D0"/>
<stop offset="0.4681" stop-color="#B0B5B5"/>
<stop offset="0.5215" stop-color="#969D9D"/>
<stop offset="1" stop-color="#8B9394"/>
</linearGradient>
<linearGradient id="paint31_linear_2_720" x1="86.0627" y1="27.7293" x2="71.0517" y2="53.1868" gradientUnits="userSpaceOnUse">
<stop stop-color="#D7E0E0"/>
<stop offset="0.0435" stop-color="#C5CDCE"/>
<stop offset="0.101" stop-color="#B4BCBE"/>
<stop offset="0.1727" stop-color="#A9B1B2"/>
<stop offset="0.2732" stop-color="#A2AAAC"/>
<stop offset="0.5521" stop-color="#A0A8AA"/>
<stop offset="0.9367" stop-color="#A0A8AA"/>
<stop offset="1" stop-color="#A0A8AA"/>
</linearGradient>
<linearGradient id="paint32_linear_2_720" x1="41.1202" y1="46.1409" x2="73.5492" y2="46.1409" gradientUnits="userSpaceOnUse">
<stop stop-color="#8B9394"/>
<stop offset="0.2393" stop-color="#8B9394"/>
<stop offset="0.3579" stop-color="#858C8D"/>
<stop offset="0.5264" stop-color="#737A7B"/>
<stop offset="0.5951" stop-color="#6A7171"/>
<stop offset="1" stop-color="#A0A8AA"/>
</linearGradient>
<linearGradient id="paint33_linear_2_720" x1="45.2076" y1="24.1314" x2="36.0357" y2="46.6176" gradientUnits="userSpaceOnUse">
<stop stop-color="white"/>
<stop offset="0.2377" stop-color="#F8FAFA"/>
<stop offset="0.5752" stop-color="#E6EBEB"/>
<stop offset="0.7791" stop-color="#D7E0E0"/>
<stop offset="1" stop-color="#8B9394"/>
</linearGradient>
<linearGradient id="paint34_linear_2_720" x1="92.963" y1="29.965" x2="79.7906" y2="54.7512" gradientUnits="userSpaceOnUse">
<stop stop-color="#D7E0E0"/>
<stop offset="0.1641" stop-color="#D1DAD9"/>
<stop offset="0.2552" stop-color="#CCD4D3"/>
<stop offset="1" stop-color="#A0A8AA"/>
</linearGradient>
</defs>
</svg>
