<svg width="102" height="69" viewBox="0 0 102 69" fill="none" xmlns="http://www.w3.org/2000/svg">
<path d="M7.63553 57.4248H5.61914V66.3829H7.63553V57.4248Z" fill="black"/>
<path d="M44.6297 57.4248H42.6133V66.3829H44.6297V57.4248Z" fill="black"/>
<path d="M69.1519 57.4248H67.1355V66.3829H69.1519V57.4248Z" fill="black"/>
<path d="M91.6297 57.4248H89.6133V66.3829H91.6297V57.4248Z" fill="black"/>
<path fill-rule="evenodd" clip-rule="evenodd" d="M15.21 57.4248V66.3876H16.7825V59.2051H16.9619L19.7433 66.3876H22.52V57.4248H20.9475V64.6026L17.9583 57.4248H15.21Z" fill="black"/>
<path fill-rule="evenodd" clip-rule="evenodd" d="M52.2559 57.4248V66.3876H53.8284V59.2051H54.0125L56.7892 66.3876H59.5659V57.4248H57.9934V64.6026L55.0042 57.4248H52.2559Z" fill="black"/>
<path fill-rule="evenodd" clip-rule="evenodd" d="M35.4871 58.9737V57.4248H31.7141H31.2182H29.8818V66.3876H31.7141V62.5626H35.4871V61.0137H31.7141V58.9737H35.4871Z" fill="black"/>
<path fill-rule="evenodd" clip-rule="evenodd" d="M82.6193 57.4248H80.3668H78.3504H76.1924V59.1437H78.3504V66.3876H80.3668V59.1437H82.6193V57.4248Z" fill="black"/>
<path d="M97.3578 64.6641C97.5467 64.6641 97.7356 64.7113 97.915 64.8105C98.0945 64.9096 98.2361 65.0466 98.34 65.2307C98.4392 65.4102 98.4911 65.6038 98.4911 65.7974C98.4911 65.991 98.4392 66.1799 98.34 66.3593C98.2408 66.5388 98.0992 66.6805 97.9197 66.7796C97.7403 66.8788 97.5514 66.9307 97.3531 66.9307C97.1547 66.9307 96.9706 66.8788 96.7911 66.7796C96.6117 66.6805 96.47 66.5388 96.3708 66.3593C96.2717 66.1799 96.2197 65.991 96.2197 65.7974C96.2197 65.5991 96.2717 65.4102 96.3708 65.2307C96.4747 65.0513 96.6164 64.9096 96.7958 64.8105C96.98 64.7113 97.1689 64.6641 97.3578 64.6641ZM97.3578 64.853C97.1972 64.853 97.0461 64.8955 96.895 64.9757C96.7439 65.056 96.6258 65.1741 96.5408 65.3252C96.4558 65.4763 96.4133 65.6368 96.4133 65.7974C96.4133 65.9627 96.4558 66.1185 96.5361 66.2696C96.6211 66.4207 96.7345 66.5341 96.8856 66.6191C97.0367 66.7041 97.1925 66.7466 97.3578 66.7466C97.5231 66.7466 97.6789 66.7041 97.83 66.6191C97.9811 66.5341 98.0992 66.4207 98.1795 66.2696C98.2645 66.1185 98.3022 65.9627 98.3022 65.7974C98.3022 65.6321 98.2597 65.4763 98.1747 65.3252C98.0897 65.1741 97.9717 65.056 97.8206 64.9757C97.6694 64.8907 97.5183 64.853 97.3578 64.853ZM96.8619 66.4255V65.2071H97.2775C97.4192 65.2071 97.5231 65.2166 97.5892 65.2402C97.6553 65.2638 97.7025 65.3016 97.745 65.3582C97.7828 65.4149 97.8017 65.4763 97.8017 65.5377C97.8017 65.6274 97.7686 65.703 97.7072 65.7691C97.6411 65.8352 97.5608 65.873 97.4522 65.8824C97.4947 65.9013 97.5278 65.9202 97.5561 65.9485C97.6033 65.9957 97.6647 66.076 97.7356 66.1893L97.882 66.4302H97.6411L97.5325 66.2366C97.4475 66.0855 97.3767 65.991 97.3247 65.9532C97.287 65.9249 97.235 65.9107 97.1689 65.9107H97.0508V66.4302H96.8619V66.4255ZM97.0556 65.7407H97.2964C97.4097 65.7407 97.49 65.7218 97.5325 65.6888C97.575 65.6557 97.5939 65.6085 97.5939 65.5518C97.5939 65.5141 97.5845 65.481 97.5656 65.4527C97.5467 65.4243 97.5183 65.4007 97.4806 65.3913C97.4428 65.3771 97.3814 65.3724 97.2822 65.3724H97.0603V65.7407H97.0556Z" fill="black"/>
<path d="M50.3668 2.35467C25.5043 2.30745 -1.16682 11.4969 4.20707 31.0186C8.8018 47.7069 38.7124 50.2758 38.7124 50.2758L50.3243 21.0972L61.974 50.2758C61.974 50.2758 97.1026 47.7588 97.1073 26.5372C97.1121 10.1369 74.1479 2.4019 50.3668 2.35467ZM70.8801 34.3147L50.3668 10.3966L29.6457 34.3147C29.6457 34.3147 15.191 31.8025 15.191 23.3733C15.191 15.4163 29.1593 8.02606 50.3715 7.83245C69.5768 7.65301 84.6029 14.3491 85.4246 23.4205C86.1565 31.4908 70.8801 34.3147 70.8801 34.3147Z" fill="#747575"/>
<path d="M96.2428 25.5925C96.1626 23.7036 92.5548 4.23386 49.9226 2.95414C45.7292 2.82664 31.7373 3.44053 20.0545 8.35164C10.4542 12.3891 3.91396 20.5444 4.4948 26.3291C6.32702 44.6183 33.1587 47.0266 34.7831 47.0786C36.4076 47.1305 37.2859 48.0986 37.2859 48.0986C37.1679 47.7066 37.2859 46.6961 37.2859 46.6961C37.2859 46.6961 45.9984 25.5925 48.0384 22.9197C50.0784 20.2469 51.6556 20.195 54.3804 26.1686C57.1051 32.1422 63.447 47.1258 63.447 47.1258C63.447 47.1258 63.5509 47.7539 63.447 48.0939C63.447 48.0939 64.0515 47.2816 65.0195 47.3053C65.9876 47.3336 79.5876 45.5911 87.2895 40.203C94.9867 34.8291 96.3231 27.4814 96.2428 25.5925ZM89.9009 23.968C89.4854 33.6108 75.484 36.7039 70.9317 37.5397L50.3523 12.833L29.7492 37.5397C29.7492 37.5397 11.7245 35.1833 10.884 24.1239C10.0434 13.0644 28.5923 4.52664 50.6026 4.47469C72.6129 4.42275 90.3542 13.5839 89.9009 23.968Z" fill="url(#paint0_linear_2_46785)"/>
<path d="M43.3213 4.73936C43.3213 4.73936 48.8746 6.51963 50.2913 7.09574C50.2913 7.09574 54.9568 5.26352 58.4135 4.73936C58.4135 4.73936 48.4543 3.37463 43.3213 4.73936Z" fill="url(#paint1_linear_2_46785)"/>
<path d="M15.394 25.0634L11.6163 27.179C8.88681 23.7837 11.8335 19.2031 11.8335 19.2031L15.2854 22.2631C15.2807 22.2631 15.0115 23.4862 15.394 25.0634Z" fill="url(#paint2_linear_2_46785)"/>
<path d="M85.33 25.1492L88.9519 27.1751C91.6813 23.7798 88.7347 19.1992 88.7347 19.1992L85.2402 22.2781C85.2402 22.2781 85.6322 23.9262 85.33 25.1492Z" fill="url(#paint3_linear_2_46785)"/>
<path d="M50.4184 3.03464C14.0289 2.6427 -0.713855 20.5635 7.42726 32.4305C13.9486 41.941 36.3509 46.9183 36.3509 46.9183L50.3334 15.846L64.1789 46.9183C64.1789 46.9183 72.745 44.1416 75.3375 43.5891C77.93 43.0413 90.8217 40.208 94.5948 29.6774C98.3631 19.1469 86.8125 3.43131 50.4184 3.03464ZM89.9009 23.9683C89.4853 33.611 75.4839 36.7041 70.9317 37.5399L50.3523 12.8333L29.7492 37.5399C29.7492 37.5399 11.7245 35.1835 10.8839 24.1241C10.0434 13.0646 28.5923 4.52686 50.6025 4.47492C72.6128 4.42298 90.3542 13.5841 89.9009 23.9683Z" fill="url(#paint4_linear_2_46785)"/>
<defs>
<linearGradient id="paint0_linear_2_46785" x1="4.14266" y1="25.521" x2="96.7145" y2="25.521" gradientUnits="userSpaceOnUse">
<stop stop-color="white"/>
<stop offset="0.00350397" stop-color="#E3E3E3"/>
<stop offset="0.00889119" stop-color="#BFBFBF"/>
<stop offset="0.0149" stop-color="#9E9E9E"/>
<stop offset="0.0216" stop-color="#838383"/>
<stop offset="0.0292" stop-color="#6D6D6D"/>
<stop offset="0.038" stop-color="#5C5C5C"/>
<stop offset="0.049" stop-color="#505050"/>
<stop offset="0.0643" stop-color="#4A4A4A"/>
<stop offset="0.1068" stop-color="#484848"/>
<stop offset="0.1192" stop-color="#3E3E3E"/>
<stop offset="0.1569" stop-color="#272727"/>
<stop offset="0.2006" stop-color="#161616"/>
<stop offset="0.2533" stop-color="#090909"/>
<stop offset="0.3239" stop-color="#020202"/>
<stop offset="0.4887"/>
<stop offset="0.6004" stop-color="#040404"/>
<stop offset="0.7228" stop-color="#121212"/>
<stop offset="0.8496" stop-color="#272727"/>
<stop offset="0.9304" stop-color="#393939"/>
<stop offset="0.94" stop-color="#3D3D3D"/>
<stop offset="0.9499" stop-color="#4A4A4A"/>
<stop offset="0.96" stop-color="#5E5E5E"/>
<stop offset="0.9701" stop-color="#7B7B7B"/>
<stop offset="0.9803" stop-color="#A1A1A1"/>
<stop offset="0.9905" stop-color="#CECECE"/>
<stop offset="1" stop-color="white"/>
</linearGradient>
<linearGradient id="paint1_linear_2_46785" x1="43.3207" y1="5.61538" x2="58.2542" y2="5.61538" gradientUnits="userSpaceOnUse">
<stop stop-color="#64655A"/>
<stop offset="0.1169" stop-color="#65645B"/>
<stop offset="0.1859" stop-color="#64645B"/>
<stop offset="0.2424" stop-color="#64635B"/>
<stop offset="0.2923" stop-color="#62615A"/>
<stop offset="0.3378" stop-color="#5E5E59"/>
<stop offset="0.38" stop-color="#585754"/>
<stop offset="0.4197" stop-color="#494948"/>
<stop offset="0.4565" stop-color="#1D1C1D"/>
<stop offset="0.4632"/>
<stop offset="0.5055" stop-color="#404042"/>
<stop offset="0.5641" stop-color="#525356"/>
<stop offset="0.6255" stop-color="#595B60"/>
<stop offset="0.6891" stop-color="#5B5F64"/>
<stop offset="0.7555" stop-color="#5B6167"/>
<stop offset="0.8259" stop-color="#5A6268"/>
<stop offset="0.9031" stop-color="#596268"/>
<stop offset="1" stop-color="#586268"/>
</linearGradient>
<linearGradient id="paint2_linear_2_46785" x1="12.923" y1="20.8501" x2="12.9232" y2="26.2614" gradientUnits="userSpaceOnUse">
<stop stop-color="#C4D2E7" stop-opacity="0"/>
<stop offset="0.4632" stop-color="#C4D2E7" stop-opacity="0.7"/>
<stop offset="1" stop-color="#C4D2E7" stop-opacity="0"/>
</linearGradient>
<linearGradient id="paint3_linear_2_46785" x1="87.6777" y1="20.851" x2="87.6774" y2="26.2622" gradientUnits="userSpaceOnUse">
<stop stop-color="#CBCDBF" stop-opacity="0"/>
<stop offset="0.4632" stop-color="#CBCDBF" stop-opacity="0.7"/>
<stop offset="1" stop-color="#CBCDBF" stop-opacity="0"/>
</linearGradient>
<linearGradient id="paint4_linear_2_46785" x1="5.24852" y1="24.9749" x2="95.2718" y2="24.9749" gradientUnits="userSpaceOnUse">
<stop offset="0.0242" stop-color="#888888"/>
<stop offset="0.0536" stop-color="#9F9F9F"/>
<stop offset="0.0994" stop-color="#BDBDBD"/>
<stop offset="0.1505" stop-color="#D5D5D5"/>
<stop offset="0.2078" stop-color="#E8E8E8"/>
<stop offset="0.275" stop-color="#F5F5F5"/>
<stop offset="0.3612" stop-color="#FDFDFD"/>
<stop offset="0.5333" stop-color="white"/>
<stop offset="0.6364" stop-color="#FCFCFC"/>
<stop offset="0.7164" stop-color="#F2F2F2"/>
<stop offset="0.7887" stop-color="#E2E2E2"/>
<stop offset="0.8563" stop-color="#CACACA"/>
<stop offset="0.9201" stop-color="#ADADAD"/>
<stop offset="0.9814" stop-color="#888888"/>
<stop offset="0.9818" stop-color="#888888"/>
</linearGradient>
</defs>
</svg>
