<svg width="86" height="45" viewBox="0 0 86 45" fill="none" xmlns="http://www.w3.org/2000/svg">
<g clip-path="url(#clip0_2_705)">
<path fill-rule="evenodd" clip-rule="evenodd" d="M57.5576 18.6572C58.8257 19.9931 60.8056 20.0951 60.8056 20.0951L62.6953 20.2226C64.0887 20.3194 64.3795 21.0026 64.3795 21.0026C65.5874 23.1594 68.6099 24.3271 68.6099 24.3271C66.6851 23.2002 65.2917 20.712 65.2917 20.712C64.3795 19.3455 62.169 19.3455 62.169 19.3455H60.8708C59.1917 19.3404 57.5576 18.6572 57.5576 18.6572Z" fill="black"/>
<path fill-rule="evenodd" clip-rule="evenodd" d="M71.4713 25.1374C70.4939 24.6836 69.2508 24.5816 69.2508 24.5816C70.4337 25.0048 70.8548 25.3617 70.8548 25.3617C71.752 25.9175 71.1455 26.8914 71.1455 26.8914C70.3886 28.2578 67.4062 27.5746 67.4062 27.5746C70.5791 29.7263 71.9073 28.11 71.9073 28.11C72.7243 27.1157 72.5339 26.6262 72.3083 26.0093C72.3083 26.0093 75.1904 26.9525 78.1728 24.1533C78.1628 24.1584 74.9599 26.7639 71.4713 25.1374Z" fill="black"/>
<path fill-rule="evenodd" clip-rule="evenodd" d="M17.102 2.18945C17.102 2.18945 15.2273 2.4189 14.3301 2.40361C14.3301 2.40361 14.1396 2.43419 14.1396 2.56676C14.1396 2.56676 14.2048 2.79621 14.6058 2.79621C14.6008 2.79111 16.2649 2.74012 17.102 2.18945Z" fill="black"/>
<path fill-rule="evenodd" clip-rule="evenodd" d="M36.6353 16.1547C36.6353 16.1547 39.1665 16.3739 43.3318 16.1751C44.3593 16.1241 44.8706 16.2873 44.8706 16.2873C46.7402 16.5677 47.0309 17.46 47.0309 17.46C47.0309 17.46 50.3441 24.3994 56.8802 24.2311L59.9678 24.2515C62.7546 24.2515 66.4738 27.0355 66.4738 27.0355C65.7069 26.4491 64.138 24.9195 64.138 24.9195C62.1532 23.1247 58.9453 23.1145 58.9453 23.1145L55.7023 23.0941C49.522 23.038 47.9031 17.3682 47.9031 17.3682C47.0961 15.5989 45.2615 15.706 45.2615 15.706C45.1212 15.706 44.9808 15.7009 44.8455 15.706C38.7605 16.017 36.7656 15.5224 36.7656 15.5224C35.5325 15.1706 34.109 14.6556 32.7557 13.8959C32.7557 13.8959 33.0464 12.4938 32.465 11.3211C32.465 11.3211 34.7055 12.2338 36.7556 11.7443C36.7556 11.7443 33.4574 10.8979 31.1167 9.20508C31.1167 9.20508 32.2394 12.4989 31.3071 13.7328C31.3071 13.7328 30.7007 16.0119 25.1269 14.156C25.1269 14.156 22.8212 13.2433 21.0268 13.2433C21.0268 13.2433 19.5833 13.3096 19.5833 14.0591C19.5833 14.0591 19.5832 14.416 19.9341 14.5792C19.9341 14.5792 20.3501 14.8698 20.0945 15.5224C20.0945 15.5224 20.6709 15.0993 20.5105 14.4823C20.5105 14.4823 20.4454 14.156 20.7361 14.0897C20.7361 14.0897 21.503 13.7634 23.6834 14.5792C23.6834 14.5792 27.207 16.2057 29.227 16.2057C29.227 16.2057 31.4074 16.0731 32.2044 15.0992C32.2044 15.089 34.0539 15.8539 36.6353 16.1547Z" fill="black"/>
<path fill-rule="evenodd" clip-rule="evenodd" d="M11.4895 10.4429C12.2113 10.4684 12.8128 9.76991 12.8128 9.76991C14.3616 8.07202 16.562 7.93944 16.562 7.93944C19.384 7.74568 22.8225 10.5296 22.8225 10.5296C20.3965 7.24091 17.8352 7.02166 17.8352 7.02166C17.1986 6.90949 16.948 6.24155 16.948 6.24155C16.131 4.71192 15.2087 4.64053 15.2087 4.64053C15.6648 5.27788 15.6147 6.14468 15.6147 6.14468C15.6147 7.74569 13.2589 7.97513 13.2589 7.97513C12.3216 9.85658 11.5346 9.74949 11.5346 9.74949C11.1186 9.74949 11.0083 9.50476 11.0083 9.50476C10.9131 9.3569 11.0735 9.22942 11.0735 9.22942C11.3291 9.06626 11.5697 8.85721 11.5697 8.85721C13.1737 7.60291 13.1887 6.18546 13.1887 6.18546C12.9782 4.53856 11.6199 4.50796 11.6199 4.50796C10.9933 4.50796 10.7226 4.90058 10.7226 4.90058C10.482 5.19121 9.85549 6.33333 9.85549 6.33333C9.38934 7.11344 8.97331 7.00127 8.97331 7.00127C8.46205 7.03186 8.07611 6.54747 8.07611 6.54747C8.05606 6.52707 8.04103 6.50669 8.02098 6.49139C7.8255 6.24155 7.97586 5.96111 7.97586 5.96111C8.58235 4.96685 9.86553 4.72212 9.86553 4.72212C9.91064 4.71192 9.95575 4.69661 9.99585 4.68132C9.99585 4.68132 10.1111 4.65583 10.2364 4.60994L10.2314 4.59975C11.8905 4.0032 12.0309 3.1211 12.0309 3.1211C11.4695 2.79478 10.9432 2.81008 10.9432 2.81008C9.93568 2.87636 9.59986 3.88591 9.59986 3.88591L9.35927 3.63097C9.35927 3.63097 9.249 3.49841 9.41942 3.33525C9.41942 3.33525 10.1763 2.38688 12.9481 1.96368C12.9481 1.96368 15.2237 1.57108 18.171 1.94839C18.171 1.94839 16.3465 3.88591 14.1511 3.07521C14.1511 3.07521 14.121 3.79414 16.0408 4.15106C16.0408 4.15106 18.0607 4.3652 20.607 6.8381C20.607 6.8381 19.9353 5.33906 17.755 3.64627C17.755 3.64627 17.5795 3.53411 17.7399 3.37095C17.7399 3.37095 18.6873 2.26451 19.9504 2.2798C19.9504 2.2798 26.5015 2.62142 30.1856 6.53217C30.1856 6.53217 30.0553 5.87953 29.4989 4.93626C29.4989 4.93626 29.3887 4.8241 29.4488 4.74252C29.4488 4.74252 29.4989 4.57936 30.1355 4.71192C30.1355 4.71192 32.4763 5.10452 37.9046 7.12363L43.7841 9.26001C43.7841 9.26001 45.8342 10.0248 46.972 10.5449C46.972 10.5449 44.6813 10.4633 43.4633 11.1007C43.4633 11.1007 43.4132 11.1313 43.4383 11.1771C43.4383 11.1771 43.4483 11.218 43.5535 11.2027C43.5535 11.2027 45.4833 10.6673 47.3429 11.4984C47.3429 11.4984 49.2476 12.2887 50.7463 13.5073C50.7463 13.5073 51.7688 14.4098 52.4154 15.144C52.4154 15.144 53.9291 16.5869 55.6834 17.6118C55.6834 17.6118 54.265 16.2453 53.0871 14.9706C53.0871 14.9706 51.4029 12.9158 50.636 12.2326C50.636 12.2326 56.4353 15.0012 61.6632 17.9993C62.6005 18.5398 65.628 20.3193 65.628 20.3193C68.5652 22.1701 71.4373 23.353 71.4373 23.353C74.0638 24.5563 76.2441 23.2867 76.2441 23.2867L76.3494 23.2408C77.7579 22.4964 78.0837 22.731 78.0837 22.731C78.7804 23.0012 78.5799 23.7303 78.5799 23.7303C79.1864 23.093 79.1313 22.7513 79.1313 22.7513C79.1112 21.6602 77.9383 21.752 77.9383 21.752C77.6326 21.7877 76.6251 22.3588 75.9835 22.7412L75.793 22.8635C74.0938 23.7609 71.723 22.9298 71.723 22.9298C68.5852 21.6602 65.8385 19.9266 65.8385 19.9266C65.8385 19.9266 60.4552 16.6787 55.8188 14.3078C55.8188 14.3078 50.0295 11.2536 42.2704 7.83237C42.2704 7.83237 27.4689 0.867451 16.562 0.867451C16.562 0.867451 10.9081 0.796069 8.99338 3.00383C8.99338 3.00383 8.77784 3.34545 8.82295 3.64118C8.82295 3.64118 8.84802 3.73806 8.77284 3.79924C8.77284 3.79924 7.93074 4.3601 7.24906 5.16571C7.24906 5.16571 6.84308 5.56851 7.17891 6.11917C7.17891 6.11917 7.41949 6.51178 7.63502 6.80241L7.64004 6.79732C7.74029 6.93498 8.31169 7.65901 9.16379 7.59272C9.16379 7.59272 9.40439 7.58252 9.52469 7.65391C9.52469 7.65391 9.7402 7.84766 10.0059 7.94454H10.4019C10.4019 7.94454 10.4871 7.93434 10.4971 7.85785C10.4971 7.85785 10.472 7.63861 10.4269 7.49074C10.4269 7.49074 10.1963 7.18481 10.2966 6.8177C10.2966 6.8177 10.3918 6.20585 10.7677 5.76736C10.7677 5.76736 11.1738 5.37476 11.6549 5.73168C11.6549 5.73168 12.5672 6.53727 12.101 7.50604C12.101 7.50604 11.7151 8.24026 11.294 8.24026C11.294 8.24026 11.0885 8.30144 10.873 8.09239L10.5973 8.05671C10.5973 8.05671 10.5121 8.05671 10.5121 8.12809L10.5221 8.33714C10.5221 8.33714 10.5221 8.45952 10.5823 8.5207C10.5823 8.5207 10.6926 8.65326 10.5723 8.82662C10.5723 8.82662 10.3066 9.07136 10.4419 9.42318C10.4319 9.41808 10.6725 10.4429 11.4895 10.4429ZM11.1737 3.37603C11.1737 3.37603 10.7728 4.01339 10.051 3.93181C10.056 3.93181 10.2314 3.14659 11.1737 3.37603ZM9.02346 4.11026C9.29913 3.99809 9.33422 4.16125 9.33422 4.16125C9.34424 4.29382 9.18884 4.34481 9.18884 4.34481C8.43198 4.8088 7.80546 5.53282 7.80546 5.53282C7.69519 5.65519 7.62499 5.594 7.62499 5.594C7.49467 5.47163 7.62499 5.31358 7.62499 5.31358C8.22146 4.65074 9.02346 4.11026 9.02346 4.11026Z" fill="black"/>
<path fill-rule="evenodd" clip-rule="evenodd" d="M23.8444 7.23633C22.3056 9.45429 23.5236 11.0145 23.5236 11.0145C19.3934 10.882 18.2055 12.0547 18.2055 12.0547C16.1855 13.6506 16.9224 15.5065 16.9224 15.5065C18.0752 17.3625 19.4235 16.0623 19.4235 16.0623C17.5038 16.4549 17.5338 14.7264 17.5338 14.7264C17.9499 11.7283 21.7943 11.8609 21.7943 11.8609C25.0925 11.8609 30.2201 12.8042 30.2201 12.8042C26.3456 11.8915 25.1576 10.9125 25.1576 10.9125C23.5236 9.90809 23.8444 7.23633 23.8444 7.23633Z" fill="black"/>
<path fill-rule="evenodd" clip-rule="evenodd" d="M54.3654 39.3895C54.4957 38.8388 54.5558 38.2372 54.5558 37.1614V31.4201H53.3078V37.5897C53.3078 38.3341 53.2476 38.8185 53.1674 39.2111C52.8216 40.9192 51.5484 41.5514 49.6387 41.5514C48.7365 41.5514 47.6639 41.3372 47.0423 40.603C46.496 39.9759 46.3807 39.1295 46.3807 37.7069V31.415H44.3557V37.814C44.3557 39.1193 44.491 40.343 45.3782 41.2302C46.1952 42.0613 47.7892 42.4335 49.5986 42.4335C52.2602 42.4437 53.8541 41.5361 54.3654 39.3895Z" fill="black"/>
<path fill-rule="evenodd" clip-rule="evenodd" d="M68.5257 42.2026H70.9367L65.7639 31.4238H64.5058L59.2178 42.2026H60.5009L61.9295 39.174H67.1874L68.5257 42.2026ZM64.6261 33.4684L66.8566 38.4448H62.2803L64.6261 33.4684Z" fill="black"/>
<path fill-rule="evenodd" clip-rule="evenodd" d="M20.2796 42.2026H22.6906L17.5178 31.4238H16.2597L10.9717 42.2026H12.2548L13.6884 39.174H18.9464L20.2796 42.2026ZM16.38 33.4684L18.6105 38.4448H14.0343L16.38 33.4684Z" fill="black"/>
<path fill-rule="evenodd" clip-rule="evenodd" d="M33.7243 42.4441C35.0275 42.4441 36.7167 42.1891 37.9046 41.6436V37.2484H35.8796V41.1847C35.228 41.4396 34.2756 41.562 33.594 41.562C30.8973 41.562 29.148 39.6856 29.148 36.9425C29.148 33.9138 31.1329 32.0783 34.01 32.0783C35.2731 32.0783 36.5713 32.5933 37.5537 33.3377V32.0579C36.4661 31.497 35.0726 31.2217 33.8646 31.2217C31.8747 31.2217 29.7645 31.8335 28.3711 33.3683C27.4839 34.3574 26.8975 35.7341 26.8975 37.0802C26.9025 41.2153 30.2257 42.4441 33.7243 42.4441Z" fill="black"/>
<path fill-rule="evenodd" clip-rule="evenodd" d="M83.0449 42.2036H85.3807L82.268 37.8289C83.3657 37.4311 84.6038 36.4216 84.6038 34.7543C84.6038 33.8416 84.3582 33.138 83.9021 32.6281C83.0349 31.6542 81.4811 31.4248 79.9272 31.4248H76.0928V42.2036H78.1178V38.0634H80.243L83.0449 42.2036ZM79.6064 32.1692C81.2304 32.1692 82.5337 32.8576 82.5337 34.6829C82.5337 35.5905 82.2129 36.2635 81.6765 36.702C81.1653 37.1201 80.5137 37.3241 79.421 37.3241H78.1178V32.1692H79.6064Z" fill="black"/>
<path fill-rule="evenodd" clip-rule="evenodd" d="M2.41653 44.4167C4.25606 43.4989 5.01293 41.5716 5.01293 39.5779V31.4199H2.98792V38.2013C2.98792 39.1547 2.98793 40.1082 2.87264 41.0617C2.67215 42.78 2.08569 43.8201 0.697266 44.8399C1.29374 44.845 1.88021 44.6716 2.41653 44.4167Z" fill="black"/>
</g>
<defs>
<clipPath id="clip0_2_705">
<rect width="86" height="45" fill="white"/>
</clipPath>
</defs>
</svg>
