<svg width="98" height="62" viewBox="0 0 98 62" fill="none" xmlns="http://www.w3.org/2000/svg">
<path opacity="0.7" d="M5.8061 60.7799C3.5705 60.4487 2.2181 59.6207 1.6661 58.1027L1.3625 57.3023L0.920898 53.2175V49.0223L2.9081 48.9947C4.6745 48.9671 4.9229 48.9947 5.0333 49.1603C5.1437 49.2983 5.1713 50.2367 5.1713 52.9967C5.1713 56.4191 5.1713 56.6675 5.3921 57.1091C5.5301 57.3575 5.8061 57.7163 6.0269 57.8819C6.8549 58.5167 6.7721 58.4891 12.4025 58.4891H17.5913L18.0329 57.6611C18.2813 57.1919 18.7781 56.5019 19.1921 56.0603C19.6061 55.6463 19.9097 55.2599 19.9097 55.2323C19.9097 55.2047 19.9097 54.6527 19.1921 54.6527L17.3429 54.5423L16.9289 54.6803C15.9629 54.9839 18.7781 51.7823 20.1305 50.7335C20.5169 50.4575 21.1793 50.0435 21.6485 49.8503C23.2217 49.1327 23.3873 49.1327 33.2957 49.1327H42.2381L44.9429 51.0923C46.4333 52.1687 47.7029 53.0519 47.7581 53.0519C47.8961 53.0519 52.0361 50.5403 53.2505 49.7123L54.1613 49.0775L57.5285 49.0499C59.7917 49.0223 60.9785 49.0499 61.1441 49.1327C61.3649 49.2431 61.3649 49.3535 61.3649 53.1071C61.3649 56.3363 61.3925 57.0263 61.5305 57.3851C61.7513 57.9095 61.9997 58.1579 62.5517 58.4615C62.9933 58.6823 63.1589 58.7099 67.1885 58.7375C69.5069 58.7651 71.4941 58.7375 71.6321 58.7099L71.9081 58.6547L71.9357 53.9903L71.9633 49.3259H74.0609H76.1585L76.2137 53.9627L76.2689 58.5995L83.8865 58.6271L91.5041 58.6547L91.8077 58.4063C91.9733 58.2683 92.1941 57.9923 92.2769 57.7991C92.4149 57.4679 92.4149 57.3851 92.2769 57.0539C92.1941 56.8607 91.9733 56.5847 91.8077 56.4467L91.5041 56.1983H84.5489C78.5045 56.1983 77.1797 56.0327 77.0417 55.8947C76.8485 55.6739 77.4557 54.4871 77.7869 53.6039C78.0353 52.9139 78.6977 51.8927 79.2497 51.2579C79.8017 50.6507 81.1541 49.7951 82.0373 49.5191C82.8101 49.2707 82.8929 49.2707 89.3513 49.2983L95.8925 49.3259L95.9201 50.3195C95.9477 51.0371 95.9201 51.3407 95.8097 51.3959C95.7269 51.4511 93.1049 51.4787 90.0137 51.4787C84.6317 51.4787 84.3281 51.4787 83.9141 51.6995C83.1689 52.0583 82.3133 53.2727 82.4789 53.6867C82.5341 53.7971 83.6105 53.8247 88.0541 53.8247C91.6973 53.8247 93.7673 53.8799 94.1537 53.9627C95.0369 54.1559 95.7269 54.5423 96.3341 55.1771C96.9965 55.9223 97.2449 56.6123 97.1897 57.6887C97.1069 59.3999 95.9477 60.5867 94.1261 60.8903C93.1049 61.0559 61.8065 61.0559 60.7301 60.8903C58.8533 60.6143 57.8873 60.0347 57.3077 58.9307L56.9213 58.1855L56.8661 54.3215C56.8385 51.8099 56.7557 50.4575 56.7005 50.4299C56.4245 50.3471 49.9385 54.4319 49.9385 54.7079L58.5221 60.8075C58.5221 60.8627 56.6177 60.9179 54.7409 60.9179H51.7049L49.0001 59.0135C47.5097 57.9647 46.2401 57.1091 46.1573 57.1091C45.9917 57.1091 41.4653 59.8139 40.2785 60.6143L39.6713 61.0283H23.1389C10.6637 60.9179 6.4961 60.8903 5.8061 60.7799ZM38.1533 59.0411C38.5397 58.7927 40.0025 57.8819 41.3549 57.0539C42.7349 56.1983 43.8665 55.4531 43.8665 55.3979C43.8665 55.2875 37.2701 50.5127 36.9389 50.3747C36.8285 50.3471 36.1937 50.5403 36.3869 50.8715L36.1109 51.4511L30.8669 51.4787C25.1537 51.5063 25.0157 51.5339 24.5741 51.7823C23.9117 52.1411 22.3937 53.4659 22.3937 53.8799C22.3937 54.0731 23.6081 53.9903 29.4317 53.9903C32.8265 53.9903 35.6969 53.9903 35.6969 53.9903C35.2277 53.9351 35.3933 55.1219 35.3933 55.1219V56.1155L30.4805 56.0603C24.8501 56.0051 25.1261 56.0879 24.2705 56.7503C23.8013 57.1091 22.8077 58.4339 22.9733 58.5995L37.0769 58.5719L37.1045 59.6759C37.1045 60.4763 37.2425 59.6207 38.1533 59.0411Z" fill="url(#paint0_linear_2_1083)"/>
<path d="M5.64057 59.8969C3.40497 59.5381 2.05257 58.7377 1.50057 57.1921L1.19697 56.3917L0.755371 52.2793V48.0564L2.74257 48.0289C4.50897 48.0013 4.75737 48.0288 4.86777 48.1944C4.97817 48.3324 5.00577 49.2984 5.00577 52.0584C5.00577 55.536 5.00577 55.7568 5.22657 56.1984C5.36457 56.4744 5.64057 56.8057 5.86137 56.9713C6.68937 57.6061 6.60657 57.6061 12.237 57.6061H17.4258L17.8674 56.7781C18.1158 56.3089 18.6126 55.5913 19.0266 55.1497C19.4406 54.7081 19.7442 54.3493 19.7442 54.2941C19.7442 54.2665 19.1646 54.2113 18.4746 54.2113L17.205 54.1837L17.2326 53.7421C17.2878 52.7485 18.6402 50.8165 19.9926 49.7677C20.379 49.4917 21.0414 49.0777 21.5106 48.8569C23.0838 48.1393 23.2494 48.1117 33.1578 48.1393H42.1002L44.805 50.0989C46.2954 51.1753 47.565 52.0584 47.6202 52.0584C47.7582 52.0584 51.8982 49.5193 53.1126 48.6913L54.0234 48.0564H57.501C61.0338 48.0564 60.951 48.0565 61.1166 48.1393C61.3374 48.2497 61.2546 48.3325 61.2546 52.1137C61.2546 55.3705 61.2822 56.0605 61.4202 56.4193C61.641 56.9713 61.8894 57.2197 62.4414 57.4957C62.883 57.7165 63.0486 57.7441 67.0782 57.7717C69.3966 57.7993 71.3838 57.7717 71.5218 57.7441L71.7978 57.6889L71.8254 52.9693L71.853 48.2497H73.9506H76.0482L76.1034 52.9417L76.1586 57.6337L83.7762 57.6613L91.3938 57.6889L91.6974 57.4404C91.863 57.3024 92.0838 57.0265 92.1666 56.8057C92.3046 56.4745 92.3046 56.364 92.1666 56.0604C92.0838 55.8672 91.863 55.5637 91.6974 55.4533L91.3938 55.2049H84.4386C78.3942 55.2049 77.4558 55.1773 77.3454 55.0393C77.1522 54.8185 77.3454 53.4661 77.6766 52.5829C77.925 51.8929 78.5874 50.8441 79.1394 50.2093C79.6914 49.5745 81.0438 48.7465 81.927 48.4429C82.6998 48.1945 82.7826 48.1945 89.241 48.2221L95.7822 48.2497L95.8098 49.2433C95.8374 49.9609 95.8098 50.2645 95.6994 50.3473C95.6166 50.4025 92.9946 50.4301 89.9034 50.4301C84.5214 50.4301 84.2178 50.4301 83.8038 50.6509C83.0586 51.0373 82.203 52.2241 82.3686 52.6657C82.4238 52.7761 83.5002 52.8037 87.9438 52.8037C91.587 52.8037 93.657 52.8589 94.0434 52.9417C94.9266 53.1349 95.6166 53.5213 96.2238 54.1561C96.8862 54.9013 97.1346 55.6189 97.0794 56.6677C96.9966 58.4065 95.8374 59.5933 94.0158 59.8969C92.9946 60.0625 61.6962 60.0625 60.6198 59.8969C58.743 59.5933 57.777 59.0413 57.1974 57.9097L56.811 57.1644L56.7558 53.2729C56.7282 50.7337 56.6454 49.3813 56.5902 49.3537C56.3142 49.2709 49.8282 53.3833 49.8282 53.6593L57.915 60.1729C57.915 60.2281 56.5074 59.9244 54.6582 59.9244H51.6222L48.9174 58.0201C47.427 56.9713 46.1574 56.1157 46.0746 56.1157C45.909 56.1157 41.3826 58.848 40.1958 59.6484L39.5886 60.0624H23.0562C10.4982 60.0624 6.33057 60.0073 5.64057 59.8969ZM37.9602 58.1581C38.3466 57.9097 39.8094 56.9989 41.1618 56.1433C42.5418 55.2877 43.6734 54.5425 43.6734 54.4597C43.6734 54.3493 37.905 49.8781 36.9666 49.0501C36.6078 48.7465 36.1938 49.6021 36.387 49.9333L35.9178 50.4577L30.6738 50.4853C24.9606 50.5129 24.8226 50.5405 24.381 50.7889C23.7186 51.1477 22.2006 52.5001 22.2006 52.9141C22.2006 53.1073 23.415 53.0244 29.2386 53.0244C32.6334 53.0244 35.5038 53.0244 35.5038 53.0244C35.4762 53.1348 35.5038 54.2664 35.5038 54.2664V55.0669L30.2874 55.1221C24.657 55.1773 24.933 55.1497 24.0774 55.8121C23.6082 56.1709 22.6146 57.5233 22.7802 57.6889L36.8838 57.6613L36.9114 58.7929C36.939 59.5933 37.0494 58.7377 37.9602 58.1581Z" fill="url(#paint1_linear_2_1083)"/>
<path d="M0.782959 47.9736V49.05H5.25416V47.9736H0.782959ZM71.2182 48.0564V49.1328H76.1034V48.0564H71.2182ZM54.051 48.0564L53.6646 48.3324H55.2654C55.7898 48.3324 56.1486 48.36 56.4246 48.3876V49.1328H61.1166V48.0564L59.0466 48.084C57.1146 48.0564 55.7622 48.0564 54.051 48.0564ZM35.0898 48.1116C34.1514 48.1116 33.0474 48.1116 31.7778 48.1116C23.9394 48.1392 23.3046 48.1668 23.0562 48.3324C23.0562 48.4152 22.6974 48.5532 23.5806 48.498C23.7186 48.498 23.7738 48.5256 23.967 48.498C25.209 48.5256 27.1962 48.4704 31.5294 48.4704C36.387 48.4704 40.4166 48.498 40.4166 48.4428C40.4166 48.3048 40.6926 48.1944 40.0854 48.1668C39.423 48.1116 37.9326 48.1116 35.0898 48.1116ZM91.6422 48.1944C90.897 48.1944 90.0414 48.1944 89.0478 48.1944C82.9206 48.222 82.4238 48.2496 82.2306 48.4152C82.2306 48.498 81.9546 48.636 82.6445 48.5808C82.755 48.5808 82.7826 48.6084 82.9482 48.5808C83.9142 48.6084 85.4874 48.5532 88.8546 48.5532C92.6357 48.5532 95.7822 48.5808 95.7822 48.5256C95.7822 48.3876 95.9753 48.2772 95.5338 48.2496C95.037 48.222 93.8502 48.1944 91.6422 48.1944Z" fill="url(#paint2_linear_2_1083)"/>
<path d="M81.1541 52.9415C80.8781 52.4723 81.8441 51.1751 82.9205 50.5955C84.1349 49.9055 84.6317 49.8779 90.4553 49.8779L95.8925 49.9331L95.9753 50.8163C95.6993 50.8163 94.6229 50.8439 90.3449 50.8439C84.0797 50.8439 83.9969 50.8439 83.1413 51.5615C82.8653 51.7823 82.5893 52.1411 82.5065 52.3619C82.4513 52.4999 82.4513 52.6379 82.3409 52.7207C82.0925 52.8587 81.7889 52.9691 81.5681 53.0243C81.4577 53.0519 81.3473 53.1347 81.2921 53.0795C81.2369 53.0519 81.2645 53.0519 81.2369 52.9967L81.1541 52.9415Z" fill="url(#paint3_linear_2_1083)"/>
<path d="M20.6272 53.7424C20.6272 53.632 20.71 53.2732 20.8204 52.942C21.124 52.0588 21.8692 51.2032 22.8352 50.6512C24.022 49.9612 24.3256 49.9336 30.7564 49.9336C34.3168 49.9336 36.3868 49.9336 36.3868 49.9336C36.3868 49.9336 36.3868 50.2096 36.3868 50.4304C36.3868 50.6236 36.3868 50.9548 36.3868 50.9548C36.1108 50.9272 34.1788 50.9548 30.784 50.9548C24.9052 50.9548 24.6292 50.9272 23.7736 51.4516C23.5804 51.5896 23.194 51.8932 22.9732 52.1692C22.6696 52.528 22.366 52.8316 22.228 53.1904C21.952 53.4388 21.5932 53.4388 21.3448 53.5492C20.8204 53.7976 20.5996 53.8528 20.5996 53.8528L20.6272 53.7424Z" fill="url(#paint4_linear_2_1083)"/>
<path d="M92.0563 56.9715C92.2219 56.3367 91.4215 55.5087 90.5107 55.2879C90.2899 55.2327 87.3643 55.2326 84.0247 55.2602C80.6851 55.2879 77.7595 55.2326 77.5387 55.2326C77.2903 55.2326 77.2075 55.2603 77.1523 55.2051C77.0695 55.0947 77.2627 54.8463 77.7043 54.5151L78.1735 54.1562H84.0523C90.5659 54.1562 91.4767 54.2115 92.0011 54.5979C92.9119 55.2327 93.2707 56.2814 92.8015 56.8886C92.4979 57.275 91.6147 57.8271 91.4491 57.6891C91.9183 57.3303 91.8907 57.3303 92.0563 56.9715Z" fill="url(#paint5_linear_2_1083)"/>
<path d="M71.7148 57.9377C71.5216 57.8273 71.2457 57.8273 71.2181 57.7445C71.1905 57.6341 71.1628 55.3433 71.1628 52.8041C71.1628 49.5473 71.1629 48.5537 71.1353 48.0293C71.3009 48.0293 71.6596 48.1949 71.9908 48.5261L72.5153 49.1609L72.4877 57.7721C72.4877 57.9377 72.5153 58.1309 72.4877 58.2965C72.1289 58.1309 71.9356 58.0481 71.7148 57.9377Z" fill="url(#paint6_linear_2_1083)"/>
<path d="M21.1243 58.1857C21.1243 58.1857 21.0691 57.5509 21.2899 56.9437C21.5383 56.2813 22.4491 55.3429 23.1667 55.0117C24.2707 54.4873 24.5191 54.4873 30.0115 54.4873C33.8203 54.4873 35.4763 54.5149 35.4763 54.5149L35.5039 55.5085C35.5039 55.5085 33.4615 55.5085 30.2599 55.5085C27.1963 55.5085 25.1263 55.5637 24.8779 55.6189C24.0499 55.8397 23.1943 56.6677 22.8631 57.5785C22.8079 57.7165 21.2899 58.1581 21.1795 58.2133L21.1243 58.1857Z" fill="url(#paint7_linear_2_1083)"/>
<path d="M61.172 60.118C60.2336 60.0076 58.6328 59.4556 58.0532 59.0416C57.6392 58.738 57.0872 58.1308 56.8388 57.6616C56.5076 57.0544 56.3972 55.6744 56.3972 52.8316C56.3972 51.2584 56.3972 49.9336 56.342 49.906C56.2868 49.8784 55.0172 50.5959 53.582 51.5067C50.9048 53.1627 50.132 53.6872 49.6352 53.9356H47.5376C47.8136 53.6872 55.7072 48.6639 56.1212 48.4707C56.3972 48.3603 56.2316 48.3328 56.3696 48.388C56.5628 48.4984 57.2252 48.7468 57.308 48.94C57.446 49.2712 57.3356 49.9612 57.3908 52.3072C57.4736 56.4472 57.5012 56.6679 58.4672 57.5787C58.8536 57.9651 59.3228 58.2688 59.8472 58.4896C59.8472 58.4896 60.3992 58.6552 60.6752 58.7104C60.8684 58.7656 61.2824 58.8207 61.2824 58.8207L76.8488 58.8484H92.8292C92.8292 58.8484 93.2156 58.7932 93.3812 58.738C93.5192 58.6828 93.6296 58.5999 93.7676 58.5447C95.8376 57.5511 96.5276 56.2264 95.81 54.736C95.6444 54.4048 95.3132 53.9632 95.0648 53.7424C94.8164 53.5216 94.4576 53.1628 94.4576 53.1076C94.5128 52.942 95.7548 53.6043 96.1412 53.9907C97.0796 54.9291 97.466 56.7783 96.8588 58.0204C96.224 59.29 94.9544 59.9524 93.188 60.118C91.7252 60.2836 62.1932 60.256 61.172 60.118Z" fill="url(#paint8_linear_2_1083)"/>
<path d="M5.58539 60.09C4.37099 59.9244 3.819 59.7312 3.0186 59.2068C2.2458 58.71 1.6386 58.02 1.2246 57.1092C1.1418 56.9436 1.05899 56.778 1.00379 56.6124C0.948595 56.4744 0.920994 56.3088 0.893394 56.1708C0.838194 55.8672 0.810596 55.5636 0.810596 55.2876C0.755396 54.3492 0.782996 52.4724 0.782996 52.4724L0.700195 48.2772C0.700195 48.1392 0.700195 47.9736 0.700195 47.9736C0.700195 47.9736 1.1694 48.1944 1.473 48.498L2.0802 49.0224V51.948C2.0802 55.2048 2.13539 55.5636 2.65979 56.64C2.96339 57.2748 3.6258 57.8544 4.7022 58.4064C5.9718 59.0412 5.9442 59.0412 21.759 59.0412H36.2766L36.9942 58.5168C37.4082 58.2132 38.9538 57.2196 40.4442 56.2812C41.9346 55.3428 43.1766 54.5424 43.1766 54.4596C43.1766 54.2112 42.4866 53.6868 37.4082 50.0712C36.4146 49.3812 35.6694 48.8568 35.283 48.5256C35.6418 48.5256 36.4698 48.5532 36.9942 48.5532H37.8222L40.3062 50.3196C41.6586 51.2856 43.287 52.4448 43.9218 52.8864C44.529 53.328 45.3846 53.9904 45.3018 54.0456L42.1554 56.0604C41.1894 56.6676 40.1406 57.33 39.837 57.5232C39.5334 57.7164 38.8986 58.1304 38.457 58.4064C38.0154 58.6824 37.6014 59.0412 37.6014 59.124C37.6842 59.1792 38.0154 59.1516 38.5674 59.1516H39.5058L42.6798 57.0816C44.4186 55.95 45.9642 54.984 46.0746 54.9288C46.3782 54.8184 46.4886 54.9012 49.4694 56.9988C50.9322 58.0476 52.2846 59.0688 52.395 59.124C52.5054 59.1792 53.1678 59.1516 53.913 59.1792C54.465 59.2068 54.741 59.1792 55.0998 59.2344C57.0318 59.952 55.3206 59.3172 57.8598 60.2556H51.3186C50.9598 60.0624 47.7582 57.744 46.875 57.0264C46.461 56.6952 46.0746 56.4192 45.9918 56.4192C45.909 56.4192 45.3846 56.7228 44.805 57.1092C44.253 57.4956 42.9834 58.3512 41.9898 59.0136L40.1958 60.228H23.3874C10.3878 60.228 6.35819 60.2004 5.58539 60.09Z" fill="url(#paint9_linear_2_1083)"/>
<path d="M61.5584 57.5506C60.8408 57.3574 60.3164 56.971 60.1232 56.695C59.9852 56.5018 59.9852 56.557 59.9576 56.4466C59.93 56.3638 59.8472 56.1982 59.8472 56.0878C59.7092 55.0666 59.7092 52.693 59.7092 52.693V49.2154L60.344 48.6634C60.7028 48.3598 61.0064 48.0838 61.0064 48.0562C61.0064 48.0286 61.0616 48.0562 61.172 48.139C61.31 48.2494 61.2548 48.9118 61.2548 52.3894C61.2548 56.971 61.6136 57.0814 62.5796 57.661C62.9936 57.7438 62.1656 57.7162 61.5584 57.5506ZM5.19918 57.3022C4.59198 57.1642 4.03998 56.6122 3.92958 56.3086L3.79158 55.9222C3.70878 53.6314 3.62598 51.3682 3.62598 49.0222L4.06758 48.5806C4.56438 48.0838 5.19918 48.001 5.19918 48.001C5.25438 48.0838 5.22678 49.9606 5.25438 52.1686C5.28198 56.9434 5.22678 56.6122 6.24798 57.1642C6.55158 57.3298 7.10358 57.4678 7.07598 57.523C6.99318 57.6058 5.69598 57.4126 5.19918 57.3022ZM74.5856 53.6314V49.0774L74.972 48.7186C75.4136 48.3322 76.0208 47.9734 76.1036 48.0562C76.1864 48.139 76.1864 57.4402 76.1312 57.6334C76.1036 57.7162 75.8 57.8542 75.4964 57.9646C75.0824 58.1026 74.6408 58.2406 74.6408 58.1854C74.5856 58.2682 74.5856 56.695 74.5856 53.6314Z" fill="url(#paint10_linear_2_1083)"/>
<path d="M77.1248 55.2045C77.1248 54.6249 77.4836 52.8861 77.9528 51.8925C78.56 50.6505 79.664 49.4361 80.6576 48.9117C81.044 48.7185 81.4028 48.5529 81.4856 48.5529C81.8996 48.4425 82.5344 48.3321 83.0588 48.2769C82.6724 48.4425 82.3136 48.5529 81.872 48.8289C81.2372 49.1601 80.6852 49.4637 79.8296 50.5125C79.526 50.8989 79.3052 51.2025 79.0568 51.8649C78.7532 52.7205 78.6704 53.6037 78.5876 54.1557C78.284 54.3213 78.3116 54.3765 77.1248 55.2045ZM16.874 54.1005C16.874 53.6865 17.426 52.4445 18.0608 51.3681C18.806 50.1261 19.4684 49.5189 20.7104 48.9945C21.6212 48.6081 23.3048 48.2217 23.7464 48.2217C23.9948 48.2217 23.0288 48.5529 22.4768 48.7737C21.5108 49.1325 20.9312 49.5465 20.1032 50.4021C19.5788 50.9265 19.0544 51.5889 18.3368 53.4381L18.116 54.1557H17.4536C16.9844 54.1557 16.9568 54.1557 16.874 54.1005ZM39.6992 48.1113H42.0728C45.2468 50.4573 47.0132 51.6717 47.5928 52.0581L46.2404 52.8861C43.232 50.7333 42.3488 50.0157 39.6992 48.1113Z" fill="url(#paint11_linear_2_1083)"/>
<path d="M49.7456 55.5089L47.5928 53.9081H48.6968C49.304 53.9081 49.856 53.6597 49.9388 53.7425C49.9388 53.7425 51.7052 55.1777 57.9428 60.1733C53.9408 59.1521 52.7816 57.7445 49.7456 55.5089Z" fill="url(#paint12_linear_2_1083)"/>
<path d="M17.6189 57.6888C17.4257 57.5508 17.4257 57.4956 17.7569 56.778C18.1433 55.9224 19.5509 54.3768 20.1029 53.9904C20.3237 53.8524 20.6549 53.6316 20.9585 53.5212C21.2621 53.4108 21.5657 53.2728 21.8141 53.1624C21.9797 53.1072 22.2833 53.0244 22.8629 53.0244H23.7737L23.2217 53.2176C22.1453 53.604 21.4277 54.0456 20.6549 54.7908C19.7717 55.6464 19.2473 56.4192 18.8057 57.468C18.6401 57.8544 18.5021 58.1856 18.4745 58.2132C18.1433 58.2132 17.8949 57.882 17.6189 57.6888Z" fill="url(#paint13_linear_2_1083)"/>
<g opacity="0.5">
<path d="M45.4591 42.7813C40.5045 42.3544 35.2267 40.8244 31.3312 38.6895C28.2256 36.9816 25.1738 34.402 23.2171 31.8046C22.2297 30.4881 21.1526 28.4244 20.5423 26.6631L20.1294 25.4534V22.7136C20.1294 20.1518 20.1653 19.9027 20.4884 18.7107C22.6247 10.8295 28.9077 5.29666 38.3144 3.00167C44.9565 1.38273 54.1836 1.52506 59.6948 3.3219C61.3284 3.85562 61.472 3.98015 61.2566 4.60282C61.0232 5.24328 61.1488 5.24328 61.6156 4.58503C61.849 4.2648 62.1182 4.01574 62.2259 4.01574C62.5311 4.01574 63.9852 4.62061 65.5111 5.36782C71.5069 8.30326 75.5999 13.1957 76.9822 19.0488C77.2694 20.2941 77.3233 20.7566 77.3233 22.6424C77.3233 24.5282 77.2874 24.9908 76.9822 26.2183C76.5693 27.9262 75.7794 29.9544 74.9716 31.3242C74.1997 32.6229 72.7276 34.1885 72.1352 34.2953C71.9019 34.3486 70.7709 34.3842 69.6041 34.3842C68.2936 34.3842 67.5037 34.4376 67.5037 34.5087C67.5037 34.5799 68.2936 34.6333 69.5861 34.6333C70.735 34.6333 71.7583 34.6867 71.866 34.7578C72.0634 34.8823 71.9916 34.9713 71.2197 35.4872C71.0402 35.6118 70.4837 36.0209 69.981 36.4301C67.0011 38.7607 62.4593 40.8066 57.8817 41.874C53.9861 42.7991 49.4803 43.1194 45.4591 42.7813ZM53.0347 38.9208C57.7919 38.3515 62.0464 36.9816 64.3083 35.2915C64.7033 35.0069 65.1341 34.74 65.2957 34.6866C65.4572 34.6511 65.5829 34.5621 65.5829 34.5087C65.5829 34.4554 60.0358 34.3842 53.2322 34.3486C41.3482 34.2953 40.8276 34.2775 39.4812 34.0284C36.4654 33.4591 35.1729 32.7297 34.3291 31.0752C33.988 30.4347 33.9701 30.2568 33.9701 28.9759C33.9701 27.8551 34.0239 27.4103 34.2753 26.7521C35.2626 23.9767 40.1814 16.5937 45.9438 9.22837C47.1107 7.73396 48.1519 6.38188 48.2416 6.23956C48.6366 5.58131 48.2955 5.11875 47.3081 4.97642C46.626 4.86968 43.1613 5.4034 41.6534 5.84816C37.9913 6.9156 36.5731 7.44931 34.7241 8.49895C31.9954 10.0467 29.7515 11.9503 28.1897 14.0674C26.4843 16.3624 25.8919 17.6077 25.1917 20.2941C24.7968 21.8063 24.8866 24.4927 25.3713 26.2717C25.7303 27.5704 26.592 29.4562 27.2562 30.4347C28.9975 32.9788 32.0134 35.505 34.6523 36.608C37.5604 37.8356 41.4739 38.7429 45.3514 39.0987C47.1107 39.2588 51.0241 39.1521 53.0347 38.9208ZM70.4478 27.2858C70.9325 26.9833 71.2197 26.3785 71.5608 25.0442C73.2482 18.4972 69.8015 11.719 63.0876 8.37442C62.5311 8.08977 61.8131 7.78733 61.5079 7.69837C60.7898 7.48489 60.5385 7.11129 60.6462 6.41746C60.7719 5.68805 60.6103 5.83037 59.4793 7.53827C58.9408 8.33884 58.0432 9.54859 57.4867 10.2246C52.6577 15.9354 46.1054 25.3466 46.1054 26.5564C46.1054 26.6453 46.2131 26.8588 46.3567 27.0367C46.5901 27.3214 46.6798 27.3391 48.7622 27.4103C49.947 27.4459 55.2428 27.4815 60.5385 27.4815C68.8501 27.4637 70.1965 27.4459 70.4478 27.2858Z" fill="#090909"/>
</g>
<path d="M44.6342 41.938C40.5488 41.5092 36.7321 40.4194 32.9872 38.615C29.8515 37.1142 27.8804 35.7207 25.7481 33.541C23.365 31.1291 22.2003 29.3426 21.1252 26.4661C19.8171 23.018 20.283 18.4265 22.3078 14.4066C24.01 11.03 26.1603 8.6538 29.5289 6.43843C30.7832 5.6166 33.8831 4.02653 34.6894 3.79427C35.2628 3.63348 34.4027 3.95507 33.4172 4.52678C32.808 4.86623 32.4317 5.06275 31.8762 5.40221C30.5682 6.18831 30.2457 6.47416 28.8839 7.56399C25.2106 10.5297 22.917 14.0493 22.1107 18.0156C21.8419 19.3198 21.8419 22.214 22.1107 23.5183C23.0783 28.217 25.9094 32.076 30.7295 35.274C33.5068 37.1142 36.7142 38.472 40.4771 39.3653C43.6487 40.1336 44.8492 40.2586 49.1138 40.2586C52.2316 40.2586 53.235 40.2229 54.4893 40.0264C58.4672 39.4189 62.7139 38.0433 65.5629 36.4353C67.8923 35.1311 68.6628 34.6666 68.8779 34.4701C69.0033 34.3629 69.5408 34.077 70.0784 33.8448C70.7235 33.5589 71.1714 33.2552 71.4223 32.9515C71.7807 32.5048 71.7986 32.5048 72.7124 32.5048C73.25 32.5048 74.0921 31.7187 74.0921 31.7902C73.0349 33.3088 71.261 34.9882 70.2755 35.7564C68.7883 36.8998 67.6236 37.6859 65.5092 38.6864C61.9613 40.3837 59.0406 41.3663 54.561 41.9023C51.264 42.2953 47.7699 42.2775 44.6342 41.938Z" fill="url(#paint14_linear_2_1083)"/>
<path d="M44.3338 39.938C41.9822 39.6867 38.5175 38.9327 36.6865 38.2865C35.3939 37.8197 32.6653 36.617 31.9472 36.222C31.1574 35.7733 29.2545 34.3371 28.1235 33.3857C26.6694 32.147 24.3537 29.2209 24.5512 28.8978C24.605 28.808 25.6462 28.4131 25.8437 28.4131C25.8796 28.4131 26.077 28.7003 26.2925 29.1132C27.3337 30.9622 28.8775 32.6138 30.5829 34.014C32.8807 35.881 34.5323 36.7067 37.8892 37.6761C44.8185 39.6508 52.8609 39.5431 59.3055 37.4248C61.8187 36.599 64.3679 35.2168 65.3193 34.1576C65.5706 33.8704 67.635 33.1523 67.7787 33.2959C67.9582 33.4754 67.4735 34.0858 66.4861 34.9475C64.7089 36.4734 60.2749 38.3762 56.7384 39.1482C53.543 39.8303 52.43 39.956 48.5345 39.9919C46.5239 39.9739 44.6211 39.956 44.3338 39.938Z" fill="url(#paint15_linear_2_1083)"/>
<path d="M31.8054 35.5538C30.7566 35.2226 30.2046 34.8914 28.9074 33.8978C26.0922 31.7174 24.0774 28.9574 23.1666 26.1146C22.6422 24.431 22.5042 23.327 22.587 20.8706C22.6422 18.9938 22.6974 18.497 23.001 17.5034C23.7186 15.0746 24.7122 13.2254 26.3682 11.2382C30.1218 6.73942 37.1322 3.34462 44.2806 2.54422C46.2678 2.32342 49.9386 2.32342 50.5182 2.51662C51.0978 2.73742 51.705 3.39982 51.8982 4.06222C52.0362 4.50382 52.0086 4.61422 51.7602 5.11102C51.5946 5.41462 51.3186 5.88382 51.0978 6.13222C50.9046 6.38062 50.3802 7.07062 49.9386 7.65022C49.497 8.22982 48.4758 9.52702 47.6478 10.5482C46.8198 11.5418 45.495 13.3082 44.6946 14.4398C43.2042 16.5374 39.9198 21.4778 39.2574 22.637C39.0642 22.9958 38.7054 23.5478 38.4846 23.879C38.2638 24.2102 37.8498 24.9002 37.6014 25.4522C37.1874 26.363 37.1322 26.501 37.1874 27.3842C37.2426 28.571 37.6014 29.1782 38.6778 29.8682C40.2786 30.8894 38.8158 30.8066 55.5966 30.8066H70.5558L71.853 29.399C72.8466 28.3226 73.2606 27.7706 73.5918 27.053C74.0886 25.9766 74.613 24.293 74.8338 23.0234C75.027 21.947 74.9166 19.0214 74.6406 18.2762C74.1438 16.2614 73.2606 14.3018 72.1842 12.5906C70.1418 9.38902 67.1886 6.82222 62.9658 4.55902C62.2206 4.14502 60.2886 3.23422 60.3162 3.20662C60.399 3.12382 63.2694 4.31062 64.677 5.00062C68.1546 6.73942 71.163 9.22342 73.1502 12.011C74.613 14.081 75.855 16.4546 76.4346 18.8282C76.7658 20.153 76.821 21.3122 76.7934 22.7474C76.7934 25.6178 76.1862 27.5222 74.7786 30.2546C73.785 32.1866 73.5642 32.435 72.0738 33.2078L70.4178 33.815L55.6518 33.8978C40.5822 33.9806 40.527 33.8978 39.0642 33.6218C35.9178 33.0146 34.6206 32.2694 33.8202 30.5582C33.4062 29.7026 33.3234 28.0742 33.627 26.915C34.2894 24.2102 38.9262 17.0342 45.4122 8.64382C46.6542 7.04302 47.703 5.63542 47.7858 5.49742C48.117 4.86262 47.7858 4.44862 46.8198 4.28302C46.1298 4.17262 42.6798 4.72462 41.1894 5.16622C37.5186 6.24262 36.111 6.79462 34.2894 7.84342C31.5294 9.41662 29.2662 11.3762 27.7206 13.5014C26.037 15.7922 25.3746 17.2274 24.7398 19.9046C24.3534 21.5054 24.4638 23.9894 24.933 25.7558C25.9542 29.4266 28.1346 32.297 31.8882 34.919C32.4678 35.333 32.937 35.6918 32.937 35.7194C32.9646 35.8574 32.4954 35.7746 31.8054 35.5538Z" fill="url(#paint16_linear_2_1083)"/>
<path d="M31.8866 35.5959C30.8471 35.2728 30.2737 34.9317 29.0012 33.9443C26.1876 31.7722 24.1625 29.0076 23.2664 26.1533C22.7288 24.4659 22.6212 23.3708 22.6929 20.9294C22.7467 19.0624 22.8184 18.5418 23.1051 17.5725C23.822 15.149 24.8076 13.3 26.4743 11.3073C30.2199 6.80148 37.2451 3.40862 44.3778 2.61875C46.3491 2.40333 50.0409 2.38539 50.6144 2.58286C51.2058 2.79827 51.8151 3.46248 52.0123 4.12669C52.1377 4.55753 52.1198 4.6832 51.8689 5.18584C51.7076 5.49102 51.4209 5.95775 51.2237 6.20907C51.0266 6.4604 50.489 7.14256 50.0588 7.71702C49.6108 8.29147 48.5893 9.60194 47.7828 10.6072C46.9584 11.6125 45.6323 13.3538 44.8258 14.4848C43.3383 16.5672 40.0587 21.5218 39.3956 22.6887C39.1985 23.0477 38.8401 23.6042 38.6071 23.9273C38.3741 24.2505 37.9798 24.9506 37.711 25.5071C37.2809 26.4047 37.2451 26.5662 37.2988 27.4279C37.3526 28.6127 37.7289 29.2231 38.7863 29.9052C40.3813 30.9285 38.9297 30.8567 55.7041 30.8567H70.6684L71.9587 29.4564C72.9623 28.3793 73.3566 27.8408 73.6971 27.1048C74.1989 26.0277 74.7007 24.3402 74.9337 23.0657C75.1308 21.9886 75.0054 19.0804 74.7365 18.3264C74.2347 16.3158 73.1774 14.5386 72.0842 12.8153C70.0232 9.60193 67.2992 7.51955 63.0697 5.25764C62.317 4.8627 58.6073 2.85213 60.4353 3.26502C60.5249 3.17526 63.3923 4.36006 64.7902 5.06018C68.2669 6.80148 71.2598 9.2788 73.2491 12.0793C74.7186 14.1616 75.9373 16.5133 76.5466 18.9009C76.8871 20.2293 76.923 21.3782 76.923 22.8143C76.923 25.6866 76.3136 27.5895 74.8978 30.3361C73.9122 32.2569 73.6792 32.5082 72.1917 33.2981L70.525 33.8905L55.7578 33.9802C40.686 34.07 40.6501 33.9802 39.1806 33.693C36.0443 33.0827 34.754 32.3287 33.9296 30.6412C33.5174 29.7975 33.4278 28.1639 33.7325 26.9791C34.4135 24.2864 39.0372 17.1057 45.5247 8.72231C46.7613 7.12461 47.8187 5.70643 47.8904 5.58077C48.2309 4.93451 47.8904 4.52163 46.9226 4.37802C46.2416 4.27031 42.7828 4.80885 41.2774 5.25764C37.6214 6.33474 36.2056 6.87329 34.3776 7.93244C31.6178 9.51218 29.3597 11.4689 27.8005 13.6051C26.1338 15.885 25.4707 17.3211 24.8256 20.0139C24.4492 21.6116 24.5388 24.0889 25.0227 25.8482C26.0442 29.5282 28.2127 32.4005 31.9762 35.0214C32.5497 35.4343 33.0335 35.7754 33.0335 35.8113C33.0335 35.8831 32.5855 35.8113 31.8866 35.5959Z" fill="url(#paint17_linear_2_1083)"/>
<path d="M31.8866 35.5959C30.8471 35.2728 30.2737 34.9317 29.0012 33.9443C26.1876 31.7722 24.1625 29.0076 23.2664 26.1533C22.7288 24.4659 22.6212 23.3708 22.6929 20.9294C22.7467 19.0624 22.8184 18.5418 23.1051 17.5725C23.822 15.149 24.8076 13.3 26.4743 11.3073C30.2199 6.80148 37.2451 3.40862 44.3778 2.61875C46.3491 2.40333 50.0409 2.38539 50.6144 2.58286C51.2058 2.79827 51.8151 3.46248 52.0123 4.12669C52.1377 4.55753 52.1198 4.6832 51.8689 5.18584C51.7076 5.49102 51.4209 5.95775 51.2237 6.20907C51.0266 6.4604 50.489 7.14256 50.0588 7.71701C49.6108 8.29147 48.5893 9.60194 47.7828 10.6072C46.9584 11.6125 45.6323 13.3538 44.8258 14.4848C43.3383 16.5672 40.0587 21.5218 39.3956 22.6887C39.1985 23.0477 38.8401 23.6042 38.6071 23.9273C38.3741 24.2505 37.9798 24.9506 37.711 25.5071C37.2809 26.4047 37.2451 26.5662 37.2988 27.4279C37.3526 28.6127 37.7289 29.2231 38.7863 29.9052C40.3813 30.9285 38.9297 30.8567 55.7041 30.8567H70.6684L71.9587 29.4564C72.9623 28.3793 73.3566 27.8408 73.6971 27.1048C74.1989 26.0277 74.7007 24.3402 74.9337 23.0657C75.1308 21.9886 75.0054 19.0804 74.7365 18.3264C74.2347 16.3158 73.3745 14.3591 72.2813 12.6358C70.2204 9.42242 67.2992 6.87329 63.0697 4.61139C62.317 4.21645 60.3995 3.28296 60.4353 3.24706C60.5249 3.1573 63.3923 4.34211 64.7902 5.04222C68.2669 6.78353 71.2598 9.26086 73.2491 12.0613C74.7186 14.1437 75.9373 16.4954 76.5466 18.8829C76.8871 20.2113 76.923 21.3602 76.923 22.7964C76.923 25.6686 76.3136 27.5715 74.8978 30.3181C73.9122 32.2389 73.6792 32.4903 72.1917 33.2801L70.525 33.8725L55.7578 33.9623C40.686 34.052 40.6501 33.9623 39.1806 33.6751C36.0443 33.0647 34.754 32.3107 33.9296 30.6233C33.5174 29.7796 33.4278 28.146 33.7325 26.9612C34.4135 24.2684 39.0372 17.0878 45.5247 8.70435C46.7613 7.10666 47.8187 5.68848 47.8904 5.56282C48.2309 4.91656 47.8904 4.50367 46.9226 4.36006C46.2416 4.25235 42.7828 4.7909 41.2774 5.23969C37.6214 6.31679 36.2056 6.85534 34.3776 7.91448C31.6178 9.49423 29.3597 11.451 27.8005 13.5872C26.1338 15.8671 25.4707 17.3032 24.8256 19.9959C24.4492 21.5936 24.5388 24.0709 25.0227 25.8302C26.0442 29.5103 28.2127 32.3825 31.9762 35.0035C32.5497 35.4164 33.0335 35.7574 33.0335 35.7934C33.0335 35.8831 32.5855 35.8113 31.8866 35.5959Z" fill="url(#paint18_linear_2_1083)"/>
<path d="M22.6146 20.898C22.6698 19.0212 22.725 18.5244 23.0286 17.5308C23.7462 15.102 24.7398 13.2528 26.3958 11.2656C30.1494 6.76677 37.1598 3.37197 44.3082 2.57157C46.2954 2.35077 49.9662 2.35077 50.5458 2.54397C51.1254 2.76477 51.7326 3.42717 51.9258 4.08957C52.0638 4.53117 52.0362 4.64157 51.7878 5.13837C51.6222 5.44197 51.3462 5.91117 51.1254 6.15957C50.9322 6.40797 50.4078 7.09797 49.9662 7.67757C49.5246 8.25717 48.5034 9.55437 47.6754 10.5756C46.8474 11.5692 45.5226 13.3356 44.7222 14.4672C43.2318 16.5648 39.9474 21.5052 39.285 22.6644C39.0918 23.0232 38.733 23.5752 38.5122 23.9064C38.2914 24.2376 37.8774 24.9276 37.629 25.4796C37.215 26.3904 37.1598 26.5284 37.215 27.4116C37.2702 28.5984 37.629 29.2056 38.7054 29.8956C40.3062 30.9168 38.8434 30.834 55.6242 30.834H70.5834L71.8806 29.4264C72.8742 28.35 73.2882 27.798 73.6194 27.0804C74.1162 26.004 74.6406 24.3204 74.8614 23.0508C75.0546 21.9744 74.9442 19.0488 74.6682 18.3036C74.1714 16.2888 73.0674 14.5776 71.991 12.8664C69.9486 9.66477 66.9954 7.09797 62.7726 4.83477C62.0274 4.42077 60.3438 3.26157 60.3714 3.23397C60.4542 3.15117 63.3246 4.33797 64.7322 5.02797C68.2098 6.76677 71.2182 9.25077 73.2054 12.0384C74.6682 14.1084 75.9102 16.482 76.4898 18.8556C76.821 20.1804 76.8762 21.3396 76.8486 22.7748C76.8486 25.6452 76.2414 27.5496 74.8338 30.282C73.8402 32.214 73.6194 32.4624 72.129 33.2352L70.473 33.8424L55.707 33.9252C40.6374 34.008 40.5822 33.9252 39.1194 33.6492C35.973 33.042 34.6758 32.2968 33.8754 30.5856C33.4614 29.73 33.3786 28.1016 33.6822 26.9424C34.3446 24.2376 38.9814 17.0616 45.4674 8.67117C46.7094 7.07037 47.7582 5.66277 47.841 5.52477C48.1722 4.88997 47.841 4.47597 46.875 4.31037C46.185 4.19997 42.735 4.75197 41.2446 5.19357C37.5738 6.26997 36.1662 6.82197 34.3446 7.87077C31.5846 9.44397 29.3214 11.4036 27.7758 13.5288C26.0922 15.8196 25.4298 17.2548 24.795 19.932C24.4086 21.5328 24.519 24.0168 24.9882 25.7832C22.8078 24.0168 22.587 22.4436 22.6146 20.898Z" fill="url(#paint19_linear_2_1083)"/>
<path d="M23.1942 26.142C22.6698 24.4584 22.5318 23.3544 22.6146 20.898C22.6698 19.0212 22.725 18.5244 23.0286 17.5308C23.7462 15.102 24.7398 13.2528 26.3958 11.2656C30.1494 6.76677 37.1598 3.37197 44.3082 2.57157C46.2954 2.35077 49.9662 2.35077 50.5458 2.54397C51.1254 2.76477 51.7326 3.42717 51.9258 4.08957C52.0638 4.53117 52.0362 4.64157 51.7878 5.13837C51.6222 5.44197 51.3462 5.91117 51.1254 6.15957C50.9322 6.40797 50.4078 7.09797 49.9662 7.67757C49.5246 8.25717 48.5034 9.55437 47.6754 10.5756C46.8474 11.5692 45.5226 13.3356 44.7222 14.4672C43.2318 16.5648 39.9474 21.5052 39.285 22.6644C39.0918 23.0232 38.733 23.5752 38.5122 23.9064C38.2914 24.2376 37.8774 24.9276 37.629 25.4796C37.215 26.3904 37.1598 26.5284 37.215 27.4116C37.2702 28.5984 37.629 29.2056 38.7054 29.8956C40.3062 30.9168 38.8434 30.834 55.6242 30.834H70.5834L71.8806 29.4264C72.8742 28.35 73.2882 27.798 73.6194 27.0804C74.1162 26.004 74.6406 24.3204 74.8614 23.0508C75.0546 21.9744 74.9442 19.0488 74.6682 18.3036C74.1714 16.2888 73.2882 14.3292 72.2118 12.618C70.1694 9.41637 67.2162 6.84957 62.9934 4.58637C62.2482 4.17237 60.3162 3.26157 60.3438 3.23397C60.4266 3.15117 63.297 4.33797 64.7046 5.02797C68.1822 6.76677 71.1906 9.25077 73.1778 12.0384C74.6406 14.1084 75.8826 16.482 76.4622 18.8556C76.7934 20.1804 76.8486 21.3396 76.821 22.7748C76.821 25.6452 76.2138 27.5496 74.8062 30.282C73.8126 32.214 73.5918 32.4624 72.1014 33.2352L70.4454 33.8424L55.6794 33.9252C40.6098 34.008 40.5546 33.9252 39.0918 33.6492C35.9454 33.042 34.6482 32.2968 33.8478 30.5856C33.4338 29.73 33.351 28.1016 33.6546 26.9424C34.317 24.2376 38.9538 17.0616 45.4398 8.67117C46.6818 7.07037 47.7306 5.66277 47.8134 5.52477C48.1446 4.88997 47.8134 4.47597 46.8474 4.31037C46.1574 4.19997 42.7074 4.75197 41.217 5.19357C37.5462 6.26997 36.1386 6.82197 34.317 7.87077C31.557 9.44397 29.2938 11.4036 27.7482 13.5288C26.0646 15.8196 25.4022 17.2548 24.7674 19.932C24.381 21.5328 24.4914 24.0168 24.9606 25.7832C24.3534 26.142 25.9542 28.5984 23.1942 26.142Z" fill="url(#paint20_linear_2_1083)"/>
<path d="M23.3324 25.9769C22.808 24.2933 22.67 23.1893 22.7528 20.7329C22.808 18.8561 22.8632 18.3593 23.1668 17.3657C23.8844 14.9369 24.878 13.0877 26.534 11.1005C30.2876 6.60173 37.298 3.20693 44.4464 2.40653C46.4336 2.18573 50.1044 2.18573 50.684 2.37893C51.2636 2.59973 51.8708 3.26213 52.064 3.92453C52.202 4.36613 52.1744 4.47653 51.926 4.97333C51.7604 5.27693 51.4844 5.74613 51.2636 5.99453C51.0704 6.24293 50.546 6.93293 50.1044 7.51253C49.6628 8.09213 48.6416 9.38933 47.8136 10.4105C46.9856 11.4041 45.6608 13.1705 44.8604 14.3021C43.37 16.3997 40.0856 21.3401 39.4232 22.4993C39.23 22.8581 38.8712 23.4101 38.6504 23.7413C38.4296 24.0725 38.0156 24.7625 37.7672 25.3145C37.3532 26.2253 37.298 26.3633 37.3532 27.2465C37.4084 28.4333 37.7672 29.0405 38.8436 29.7305C40.4444 30.7517 38.9816 30.6689 55.7624 30.6689H70.7216L72.0188 29.2613C73.0124 28.1849 73.4264 27.6329 73.7576 26.9153C74.2544 25.8389 74.7788 24.1553 74.9996 22.8857C75.1928 21.8093 75.0824 18.8837 74.8064 18.1385C74.3096 16.1237 73.2056 14.4125 72.1292 12.7013C70.0868 9.49973 67.1336 6.93293 62.9108 4.66973C62.1656 4.25573 60.482 3.09653 60.5096 3.06893C60.5924 2.98613 63.4628 4.17293 64.8704 4.86293C68.348 6.60173 71.3564 9.08573 73.3436 11.8733C74.8064 13.9433 76.0484 16.3169 76.628 18.6905C76.9592 20.0153 77.0144 21.1745 76.9868 22.6097C76.9868 25.4801 76.3796 27.3845 74.972 30.1169C73.9784 32.0489 73.7576 32.2973 72.2672 33.0701L70.6112 33.6773L55.8452 33.7601C40.7756 33.8429 40.7204 33.7601 39.2576 33.4841C36.1112 32.8769 34.814 32.1317 34.0136 30.4205C33.5996 29.5649 33.5168 27.9365 33.8204 26.7773C34.4828 24.0725 39.1196 16.8965 45.6056 8.50613C46.8476 6.90533 47.8964 5.49773 47.9792 5.35973C48.3104 4.72493 47.9792 4.31093 47.0132 4.14533C46.3232 4.03493 42.8732 4.58693 41.3828 5.02853C37.712 6.10493 36.3044 6.65693 34.4828 7.70573C31.7228 9.27893 29.4596 11.2385 27.914 13.3637C26.2304 15.6545 25.568 17.0897 24.9332 19.7669C24.5468 21.3677 24.6572 23.8517 25.1264 25.6181C24.4916 26.0045 24.6296 25.8665 23.3324 25.9769Z" fill="url(#paint21_linear_2_1083)"/>
<g opacity="0.8">
<path d="M44.54 2.72092C46.3947 2.51446 49.8679 2.49725 50.4075 2.68651C50.9639 2.89297 51.5371 3.52956 51.7226 4.16616C51.8406 4.57908 51.8238 4.69953 51.5877 5.18127C51.436 5.47376 51.1662 5.9211 50.9807 6.16198C50.7953 6.40285 50.2895 7.05665 49.8848 7.60721C46.8836 10.6181 47.4569 8.91482 47.8616 5.55979C48.1819 4.9404 47.8616 4.54468 46.9511 4.40704C45.7709 3.46075 46.8836 3.61559 44.54 2.72092Z" fill="url(#paint22_linear_2_1083)"/>
</g>
<path d="M46.8771 11.3639C46.1015 12.3274 44.8538 13.9963 44.0951 15.0802C42.6957 17.076 39.6102 21.8247 38.9864 22.943C38.8009 23.2871 38.4637 23.8205 38.2445 24.1302C38.0254 24.4399 37.6544 25.1109 37.4015 25.6442C36.9969 26.5045 36.9631 26.6594 37.0137 27.4852C37.0643 28.6208 37.4184 29.2057 38.4131 29.8595C39.9137 30.8402 38.548 30.7714 54.3294 30.7714C56.3864 31.6833 72.4039 33.1974 54.3969 33.7823C40.2172 33.8684 40.1835 33.7823 38.8009 33.5071C35.8504 32.9221 34.6364 32.1995 33.8608 30.5822C33.473 29.7735 33.3887 28.2078 33.6754 27.0723C37.1823 14.8909 48.5463 8.76586 46.8771 11.3639Z" fill="url(#paint23_linear_2_1083)"/>
<path d="M43.508 28.3772C42.8732 27.494 42.8456 26.4452 43.4528 25.0652C44.5016 22.664 50.4908 14.3012 54.9896 8.91923C57.584 5.80043 58.6328 4.33762 58.6328 3.78562C58.6328 3.53722 58.4672 3.23363 58.1636 2.90243L57.3356 2.15723L58.0808 2.37803C58.5224 2.51603 59.8472 2.95763 60.2336 3.20603C60.8684 3.62003 60.758 4.77923 60.1232 5.91083C59.8196 6.46283 58.5776 8.03602 57.5012 9.30562C54.548 12.728 51.0704 17.42 47.8412 22.3328C46.13 24.9272 45.578 26.0588 45.7712 26.528C45.854 26.7764 44.2256 28.6808 43.922 28.6808C43.8116 28.6532 43.6184 28.5152 43.508 28.3772Z" fill="#505050"/>
<path d="M70.942 29.2337C70.666 28.9301 69.976 27.4949 69.976 27.2741C69.976 27.1637 70.252 27.1637 70.3624 27.0809C70.7212 26.8049 70.9696 26.2253 71.3008 24.8453C72.1012 21.6437 71.77 18.4973 70.2796 15.4061C68.458 11.6249 64.6768 8.36815 60.4816 6.98815C59.8744 6.79495 59.7088 6.71215 59.5708 6.57415C59.35 6.32575 59.3776 6.24295 59.7364 5.47015C60.0124 4.89055 60.0676 4.58695 60.2608 4.55935C60.4264 4.53175 61.1716 4.83535 62.2756 5.38735C67.7128 8.03695 71.2732 11.3765 73.0672 15.5165C74.0056 17.6969 74.1988 18.5526 74.2816 20.6777C74.392 23.2997 73.978 25.2593 72.7912 27.5225C71.908 29.3717 71.4112 29.7582 70.942 29.2337Z" fill="url(#paint24_linear_2_1083)"/>
<path d="M45.1363 29.3988C44.4739 29.316 43.8667 28.8744 43.8667 28.626C43.8667 28.3776 45.5779 26.418 45.7711 26.418C45.8539 26.418 45.8815 26.694 46.1023 26.8044C46.4887 26.9976 47.6479 27.0252 58.4395 27.0804L70.3627 27.1356L70.8871 28.074C71.1907 28.626 71.4667 29.178 71.4115 29.316C71.3287 29.5092 64.0699 29.6196 52.2295 29.6196C45.1915 29.5644 45.3295 29.4264 45.1363 29.3988Z" fill="url(#paint25_linear_2_1083)"/>
<path opacity="0.5" d="M45.1363 29.3988C44.4739 29.316 43.8667 28.8744 43.8667 28.626C43.8667 28.3776 45.5779 26.418 45.7711 26.418C45.8539 26.418 45.8815 26.694 46.1023 26.8044C46.4887 26.9976 47.6479 27.0252 58.4395 27.0804L70.3627 27.1356L70.8871 28.074C71.1907 28.626 71.4667 29.178 71.4115 29.316C71.3287 29.5092 64.0699 29.6196 52.2295 29.6196C45.1915 29.5644 45.3295 29.4264 45.1363 29.3988Z" fill="url(#paint26_linear_2_1083)"/>
<path d="M45.1362 40.6874C32.7438 39.611 22.8354 32.3522 21.345 23.2442C20.4342 17.5586 22.863 12.0386 28.245 7.56736C30.0942 6.04936 30.591 5.71816 32.9646 4.50376C37.4082 2.24056 41.7414 1.21936 47.3994 1.08136C50.4354 0.998563 52.6434 1.13656 55.155 1.57816C57.3354 1.93696 57.5838 2.04736 58.191 2.65456C58.6326 3.09616 58.743 3.28936 58.743 3.64816C58.743 4.20016 58.1358 5.05576 54.9066 9.00256C51.0702 13.6946 48.6966 16.8686 45.633 21.4778C43.0938 25.2866 42.735 26.1422 43.149 27.4946C43.4526 28.5158 44.3634 28.985 45.2742 29.1506C46.4334 29.3714 47.7582 29.3162 56.6178 29.3162C61.2822 29.3162 71.163 29.3438 71.4666 29.3162C71.853 29.2886 72.1014 29.1782 72.3774 28.9298C73.2882 27.743 73.647 27.2462 72.4326 29.399C71.9082 30.3098 71.1354 31.0274 70.2522 31.2206C69.231 31.4414 42.735 31.331 41.2722 31.1102C40.0026 30.917 39.2574 30.641 38.2638 29.9786C37.6566 29.5646 37.4082 29.2886 37.1322 28.7366C36.8286 28.1018 36.801 27.9362 36.8562 27.191C36.939 26.2526 37.3254 25.3142 38.0706 24.2102C38.3466 23.8238 38.7606 23.1338 38.9814 22.7198C39.2298 22.3058 40.2234 20.705 41.217 19.187C43.8666 15.1574 46.5438 11.4866 48.4758 9.30616C49.6902 7.92616 51.429 5.55256 51.5394 5.11096C51.7878 4.25536 51.0978 3.06856 50.1594 2.73736C49.5246 2.51656 46.1022 2.57176 44.0598 2.82016C32.799 4.28296 24.2982 10.769 22.863 19.0214C22.6146 20.429 22.6146 23.2166 22.863 24.5966C23.5254 28.433 25.9818 31.9658 29.8734 34.7534C31.281 35.7746 34.3722 37.3478 36.2214 38.0102C44.529 40.991 55.0722 40.5218 62.9934 36.7958C64.8978 35.9126 65.7258 35.3606 66.9126 34.1462L67.9614 33.0974L69.7554 33.0146C71.4666 32.9318 72.4326 33.0146 72.2946 33.2354C72.1842 33.4286 69.7554 34.367 68.7894 34.6982C68.2374 34.8914 67.7406 35.2502 66.9678 35.7194C61.0062 39.4178 52.7538 41.3498 45.1362 40.6874Z" fill="url(#paint27_linear_2_1083)"/>
<path opacity="0.3" d="M45.2741 40.6597C32.8817 39.5833 22.9733 32.3245 21.4829 23.2165C20.5721 17.5309 23.0009 12.0109 28.3829 7.53971C30.2321 6.02171 30.7289 5.69051 33.1025 4.47611C37.5461 2.21291 41.8793 1.19171 47.5373 1.05371C45.6881 1.96451 46.6817 2.62691 44.2253 2.73731C32.9645 4.20011 24.4637 10.6861 23.0285 18.9385C22.7801 20.3461 22.7801 23.1337 23.0285 24.5137C23.6909 28.3501 26.1473 31.8829 30.0389 34.6705C31.4465 35.6917 34.5377 37.2649 36.3869 37.9273C44.6945 40.9081 55.2377 40.4389 63.1589 36.7129C65.0633 35.8297 65.8913 35.2777 67.0781 34.0633L68.1269 33.0145L69.9209 32.9317C71.6321 32.8489 72.5981 32.9317 72.4601 33.1525C72.3497 33.3457 69.9209 34.2841 68.9549 34.6153C68.4029 34.8085 67.9061 35.1673 67.1333 35.6365C61.1441 39.3901 52.8917 41.3497 45.2741 40.6597Z" fill="url(#paint28_linear_2_1083)"/>
<path d="M45.1915 40.6871C32.7991 39.6107 23.1667 32.8211 21.7039 23.7407C20.7931 18.0551 23.2219 12.6179 28.6039 8.17431C30.4531 6.65631 31.0051 6.32511 33.2407 5.0279C37.5463 2.51631 41.7967 1.27431 47.4547 1.10871C50.4907 1.02591 52.6987 1.16391 55.2103 1.60551C57.3907 1.96431 57.6391 2.07471 58.2463 2.68191C58.6879 3.12351 58.7983 3.31671 58.7983 3.67551C58.7983 4.22751 58.1911 5.08311 54.9619 9.0299C51.1255 13.7219 48.7519 16.8959 45.6883 21.5051C43.1491 25.3139 42.7903 26.1695 43.2043 27.5219C43.5079 28.5431 44.4187 29.0123 45.3295 29.1779C46.4887 29.3987 47.8135 29.3435 56.6731 29.3435C61.3375 29.3435 71.2183 29.3711 71.5219 29.3435C71.9083 29.3159 72.1567 29.2055 72.4327 28.9295C73.3435 27.7427 73.7023 27.2459 72.4879 29.3987C71.9635 30.3095 71.1907 31.0271 70.3075 31.2203C69.2863 31.4411 42.7903 31.3307 41.3275 31.1099C40.0579 30.9167 39.3127 30.6407 38.3191 29.9783C37.7119 29.5643 37.4635 29.2883 37.1875 28.7363C36.8839 28.1015 36.8563 27.9359 36.9115 27.1907C36.9943 26.2523 37.3807 25.3139 38.1259 24.2099C38.4019 23.8235 38.8159 23.1335 39.0367 22.7195C39.2851 22.3055 40.2787 20.7047 41.2723 19.1867C43.9219 15.1571 46.5991 11.4863 48.5311 9.30591C49.7455 7.92591 51.4843 5.55231 51.5947 5.11071C51.8431 4.25511 51.1531 3.06831 50.2147 2.73711C49.5799 2.51631 46.1575 2.57151 44.1151 2.81991C32.8543 4.28271 24.3535 10.7687 22.9183 19.0211C22.6699 20.4287 22.6699 23.2163 22.9183 24.5963C23.5807 28.4327 26.0371 31.9655 29.9287 34.7531C31.3363 35.7743 34.4275 37.3475 36.2767 38.0099C44.5843 40.9907 55.1275 40.5215 63.0487 36.7955C64.9531 35.9123 65.7811 35.3603 66.9679 34.1459L68.0167 33.0971L69.8107 33.0143C71.5219 32.9315 72.4879 33.0143 72.3499 33.2351C72.2395 33.4283 69.8107 34.3667 68.8447 34.6979C68.2927 34.8911 67.7959 35.2499 67.0231 35.7191C61.0615 39.4175 52.8091 41.3495 45.1915 40.6871Z" fill="url(#paint29_linear_2_1083)"/>
<path opacity="0.5" d="M45.1362 40.6871C32.7438 39.6107 22.8354 32.3519 21.345 23.2439C20.4342 17.5583 22.863 12.0383 28.245 7.56706C30.0942 6.04906 30.591 5.71785 32.9646 4.50345C37.4082 2.24025 41.7414 1.21905 47.3994 1.08105C47.289 2.32305 45.3294 2.76465 44.0874 2.76465C32.8266 4.22745 24.3258 10.7135 22.8906 18.9659C22.6422 20.3735 22.6422 23.1611 22.8906 24.5411C23.553 28.3775 26.0094 31.9103 29.901 34.6979C31.3086 35.7191 34.3998 37.2923 36.249 37.9547C44.5566 40.9355 55.0998 40.4663 63.021 36.7403C64.9254 35.8571 65.7534 35.3051 66.9402 34.0907L67.989 33.0419L69.783 32.9591C71.4942 32.8763 72.4602 32.9591 72.3222 33.1799C72.2118 33.3731 69.783 34.3115 68.817 34.6427C68.265 34.8359 67.7682 35.1947 66.9954 35.6639C61.0062 39.4175 52.7538 41.3495 45.1362 40.6871Z" fill="url(#paint30_linear_2_1083)"/>
<path opacity="0.3" d="M45.2741 40.6597C32.8817 39.5833 22.9733 32.3245 21.4829 23.2165C20.5721 17.5309 23.0009 12.0109 28.3829 7.53971C30.2321 6.02171 30.7289 5.69051 33.1025 4.47611C37.5461 2.21291 41.8793 1.19171 47.5373 1.05371C45.6881 1.96451 46.6817 2.62691 44.2253 2.73731C32.9645 4.20011 24.4637 10.6861 23.0285 18.9385C22.7801 20.3461 22.7801 23.1337 23.0285 24.5137C23.6909 28.3501 26.1473 31.8829 30.0389 34.6705C31.4465 35.6917 34.5377 37.2649 36.3869 37.9273C44.6945 40.9081 55.2377 40.4389 63.1589 36.7129C65.0633 35.8297 65.8913 35.2777 67.0781 34.0633L68.1269 33.0145L69.9209 32.9317C71.6321 32.8489 72.5981 32.9317 72.4601 33.1525C72.3497 33.3457 69.9209 34.2841 68.9549 34.6153C68.4029 34.8085 67.9061 35.1673 67.1333 35.6365C61.1441 39.3901 52.8917 41.3497 45.2741 40.6597Z" fill="url(#paint31_linear_2_1083)"/>
<path opacity="0.3" d="M46.5714 29.9509C45.5502 29.9233 43.6458 28.4329 43.8114 28.5709C44.8878 29.4817 49.359 29.399 58.1358 29.3714L71.4666 29.3438L71.7978 29.0126C71.991 28.847 72.405 28.1294 72.7362 27.4394C74.6682 23.3822 74.6682 19.2697 72.7638 15.2401C71.991 13.6117 71.0802 12.3145 69.6174 10.8241C67.5198 8.64375 65.5326 7.15335 62.3586 5.74575C60.123 4.75215 60.0402 4.97295 60.1506 4.33815C60.1506 4.17255 60.0678 3.97935 59.985 3.73095C59.6814 2.68215 59.8194 2.90295 62.4966 4.31055C66.0846 6.18735 68.0166 7.45695 70.2798 9.80295C75.2754 14.9917 76.5174 21.6986 73.5918 27.7154C73.0398 28.8746 72.2394 29.6474 71.3562 29.9234C70.9698 30.0338 68.6238 30.0613 59.3502 30.0338C52.671 30.0338 51.7878 30.0613 46.5714 29.9509Z" fill="url(#paint32_linear_2_1083)"/>
<path d="M46.5715 29.5924C44.8051 29.5648 43.2043 28.1296 43.3423 28.24C44.4187 29.1232 49.3591 29.0404 58.1359 29.0128L71.4667 28.9852L71.7979 28.654C71.9911 28.4884 72.4051 27.7708 72.7363 27.1084C74.6683 23.1064 74.6683 19.0216 72.7639 15.0748C71.9911 13.474 71.0803 12.2044 69.6175 10.714C67.5199 8.56122 65.5327 7.07082 62.3587 5.69082C60.1231 4.72482 60.0403 4.91802 60.1507 4.31082C60.1507 4.14522 60.0679 3.95201 59.9851 3.73121C59.6815 2.68241 59.9575 3.45521 62.6347 4.83521C66.2227 6.68441 67.7407 7.67801 70.0039 9.99641C74.9995 15.13 76.4899 21.4504 73.5919 27.412C73.0399 28.5436 72.2395 29.3164 71.3563 29.5924C70.9699 29.7028 68.6239 29.7304 59.3503 29.7028C52.6711 29.7028 51.7879 29.6752 46.5715 29.5924Z" fill="url(#paint33_linear_2_1083)"/>
<path opacity="0.5" d="M72.7363 15.2399C71.9635 13.6115 71.0527 12.3143 69.5899 10.8239C67.4923 8.64355 65.5051 7.15315 62.3311 5.74555C60.0955 4.75195 60.0127 4.97275 60.1231 4.33795C60.1231 4.17235 60.0403 3.97915 59.9575 3.73075C59.6539 2.68195 59.6263 3.26155 62.3035 4.64155C65.8915 6.51835 67.9891 7.45675 70.2523 9.80275C72.1843 12.4247 70.9147 11.0171 72.7363 15.2399Z" fill="url(#paint34_linear_2_1083)"/>
<path opacity="0.3" d="M67.0506 34.0908L68.0994 33.042L69.8934 32.9592C71.6046 32.8764 72.5706 32.9592 72.4326 33.18C71.2182 34.5048 65.8638 35.4984 67.0506 34.0908Z" fill="url(#paint35_linear_2_1083)"/>
<path opacity="0.6" d="M45.1915 40.6598C32.7991 39.5834 23.1667 32.7938 21.7039 23.7134C20.7931 18.0278 23.2219 12.5906 28.6039 8.14696C30.4531 6.62896 31.0051 6.29776 33.2407 5.00056C37.5463 2.48896 41.7967 1.24696 47.4547 1.08136C50.4907 0.998563 52.6987 1.13656 55.2103 1.57816C57.3907 1.93696 57.6391 2.04736 58.2463 2.65456C58.6879 3.09616 58.7983 3.28936 58.7983 3.64816C58.7983 4.20016 58.1911 5.05576 54.9619 9.00256C51.1255 13.6946 48.7519 16.8686 45.6883 21.4778C43.1491 25.2866 42.7903 26.1422 43.2043 27.4946C43.5079 28.5158 44.4187 28.985 45.3295 29.1506C46.4887 29.3714 47.8135 29.3162 56.6731 29.3162C61.3375 29.3162 71.2183 29.3162 71.5219 29.3162C71.9083 29.2886 72.1567 29.1782 72.4327 28.9298C73.3435 27.743 73.7023 27.2462 72.4879 29.399C71.9635 30.3098 71.1907 31.0274 70.3075 31.2206C69.2863 31.4414 42.7903 31.331 41.3275 31.1102C40.0579 30.917 39.3127 30.641 38.3191 29.9786C37.7119 29.5646 37.4635 29.2886 37.1875 28.7366C36.8839 28.1018 36.8563 27.9362 36.9115 27.191C36.9943 26.2526 37.3807 25.3142 38.1259 24.2102C38.4019 23.8238 38.8159 23.1338 39.0367 22.7198C39.2851 22.3058 40.2787 20.705 41.2723 19.187C43.9219 15.1574 46.5991 11.4866 48.5311 9.30616C49.7455 7.92616 51.4843 5.55256 51.5947 5.11096C51.8431 4.25536 51.1531 3.06856 50.2147 2.73736C49.5799 2.51656 46.1575 2.57176 44.1151 2.82016C32.8543 4.28296 24.3535 10.769 22.9183 19.0214C22.6699 20.429 22.6699 23.2166 22.9183 24.5966C23.5807 28.433 26.0371 31.9658 29.9287 34.7534C31.3363 35.7746 34.4275 37.3478 36.2767 38.0102C44.5843 40.991 55.1275 40.5218 63.0487 36.7958C64.9531 35.9126 65.7811 35.3606 66.9679 34.1462L68.0167 33.0974L69.8107 33.0146C71.5219 32.9318 72.4879 33.0146 72.3499 33.2354C72.2395 33.4286 69.8107 34.367 68.8447 34.6982C68.2927 34.8914 67.7959 35.2502 67.0231 35.7194C61.0615 39.3902 52.8091 41.3222 45.1915 40.6598Z" fill="url(#paint36_radial_2_1083)"/>
<defs>
<linearGradient id="paint0_linear_2_1083" x1="0.749376" y1="54.9664" x2="97.1186" y2="54.9664" gradientUnits="userSpaceOnUse">
<stop stop-color="#646464"/>
<stop offset="1" stop-color="#888888"/>
</linearGradient>
<linearGradient id="paint1_linear_2_1083" x1="49.1647" y1="63.8674" x2="48.701" y2="44.6941" gradientUnits="userSpaceOnUse">
<stop stop-color="#505050"/>
<stop offset="0.0584744" stop-color="#525252"/>
<stop offset="0.5615" stop-color="#555555"/>
<stop offset="0.7865" stop-color="#5A5A5A"/>
<stop offset="1" stop-color="#C8C8C8"/>
</linearGradient>
<linearGradient id="paint2_linear_2_1083" x1="48.3128" y1="47.5433" x2="48.3128" y2="49.3661" gradientUnits="userSpaceOnUse">
<stop stop-color="#B8B8B8"/>
<stop offset="1" stop-color="#828282"/>
</linearGradient>
<linearGradient id="paint3_linear_2_1083" x1="88.6959" y1="46.5771" x2="88.3774" y2="60.3967" gradientUnits="userSpaceOnUse">
<stop stop-color="#464646"/>
<stop offset="1"/>
</linearGradient>
<linearGradient id="paint4_linear_2_1083" x1="28.7078" y1="45.0726" x2="28.3632" y2="59.4462" gradientUnits="userSpaceOnUse">
<stop stop-color="#464646"/>
<stop offset="1"/>
</linearGradient>
<linearGradient id="paint5_linear_2_1083" x1="85.3506" y1="45.4491" x2="84.928" y2="61.3663" gradientUnits="userSpaceOnUse">
<stop stop-color="#464646"/>
<stop offset="1"/>
</linearGradient>
<linearGradient id="paint6_linear_2_1083" x1="72.0076" y1="45.0951" x2="71.585" y2="61.0123" gradientUnits="userSpaceOnUse">
<stop stop-color="#464646"/>
<stop offset="1"/>
</linearGradient>
<linearGradient id="paint7_linear_2_1083" x1="28.6513" y1="45.0577" x2="28.292" y2="59.7349" gradientUnits="userSpaceOnUse">
<stop stop-color="#464646"/>
<stop offset="1"/>
</linearGradient>
<linearGradient id="paint8_linear_2_1083" x1="72.6169" y1="45.1111" x2="72.1943" y2="61.0283" gradientUnits="userSpaceOnUse">
<stop stop-color="#464646"/>
<stop offset="1"/>
</linearGradient>
<linearGradient id="paint9_linear_2_1083" x1="29.5752" y1="43.9681" x2="29.1526" y2="59.8853" gradientUnits="userSpaceOnUse">
<stop stop-color="#464646"/>
<stop offset="1"/>
</linearGradient>
<linearGradient id="paint10_linear_2_1083" x1="40.059" y1="45.2333" x2="39.7172" y2="61.7531" gradientUnits="userSpaceOnUse">
<stop stop-color="#787878"/>
<stop offset="1" stop-color="#1E1E1E"/>
</linearGradient>
<linearGradient id="paint11_linear_2_1083" x1="49.7247" y1="45.325" x2="50.2943" y2="58.7685" gradientUnits="userSpaceOnUse">
<stop stop-color="#B4B4B4"/>
<stop offset="0.3224" stop-color="#828282"/>
<stop offset="1" stop-color="#3C3C3C"/>
</linearGradient>
<linearGradient id="paint12_linear_2_1083" x1="52.4229" y1="62.879" x2="52.9868" y2="53.5166" gradientUnits="userSpaceOnUse">
<stop stop-color="#828282"/>
<stop offset="0.5" stop-color="#828282"/>
<stop offset="1" stop-color="#3C3C3C"/>
</linearGradient>
<linearGradient id="paint13_linear_2_1083" x1="20.5682" y1="52.9393" x2="20.7961" y2="60.0029" gradientUnits="userSpaceOnUse">
<stop stop-color="#828282"/>
<stop offset="0.5" stop-color="#828282"/>
<stop offset="1" stop-color="#3C3C3C"/>
</linearGradient>
<linearGradient id="paint14_linear_2_1083" x1="20.5046" y1="12.6518" x2="53.3189" y2="34.0934" gradientUnits="userSpaceOnUse">
<stop stop-color="#000032"/>
<stop offset="0.25" stop-color="#646464"/>
<stop offset="0.4238"/>
<stop offset="1" stop-color="#787878"/>
</linearGradient>
<linearGradient id="paint15_linear_2_1083" x1="22.4452" y1="34.2803" x2="56.2039" y2="34.0275" gradientUnits="userSpaceOnUse">
<stop stop-color="#999999"/>
<stop offset="0.2205" stop-color="#3C3C3C"/>
<stop offset="0.5158" stop-color="#969696"/>
<stop offset="0.7528" stop-color="#828282"/>
<stop offset="1" stop-color="#5A5A5A"/>
</linearGradient>
<linearGradient id="paint16_linear_2_1083" x1="49.8723" y1="41.9599" x2="49.7747" y2="29.2272" gradientUnits="userSpaceOnUse">
<stop/>
<stop offset="1"/>
</linearGradient>
<linearGradient id="paint17_linear_2_1083" x1="35.7695" y1="5.67953" x2="59.9704" y2="33.1618" gradientUnits="userSpaceOnUse">
<stop stop-color="#5A5A5A"/>
<stop offset="0.2688" stop-color="#505050"/>
<stop offset="0.632" stop-color="#666666"/>
<stop offset="0.6675" stop-color="#666666"/>
<stop offset="1" stop-color="#666666"/>
</linearGradient>
<linearGradient id="paint18_linear_2_1083" x1="35.7695" y1="5.67952" x2="59.9704" y2="33.1618" gradientUnits="userSpaceOnUse">
<stop stop-color="#5A5A5A"/>
<stop offset="0.2688" stop-color="#505050"/>
<stop offset="0.632" stop-color="#666666"/>
<stop offset="0.6675" stop-color="#666666"/>
<stop offset="1" stop-color="#666666"/>
</linearGradient>
<linearGradient id="paint19_linear_2_1083" x1="24.3234" y1="7.63745" x2="62.3814" y2="24.0533" gradientUnits="userSpaceOnUse">
<stop stop-color="#323232"/>
<stop offset="0.394" stop-color="#323232"/>
<stop offset="0.4669" stop-color="#323232"/>
<stop offset="0.7041" stop-color="#E1E1E1"/>
<stop offset="1" stop-color="#C8C8C8"/>
</linearGradient>
<linearGradient id="paint20_linear_2_1083" x1="49.3204" y1="35.1775" x2="49.5154" y2="28.957" gradientUnits="userSpaceOnUse">
<stop/>
<stop offset="1"/>
</linearGradient>
<linearGradient id="paint21_linear_2_1083" x1="32.2461" y1="1.85235" x2="37.4537" y2="7.34392" gradientUnits="userSpaceOnUse">
<stop stop-color="#28170B"/>
<stop offset="1" stop-color="#28170B"/>
</linearGradient>
<linearGradient id="paint22_linear_2_1083" x1="49.4531" y1="6.53521" x2="48.2266" y2="3.81587" gradientUnits="userSpaceOnUse">
<stop stop-color="#B3B3B3"/>
<stop offset="0.1609" stop-color="#B3B3B3"/>
<stop offset="0.3418" stop-color="#B3B3B3"/>
<stop offset="0.4059" stop-color="#B3B3B3"/>
<stop offset="0.6583" stop-color="#B3B3B3"/>
<stop offset="1" stop-color="#B3B3B3"/>
</linearGradient>
<linearGradient id="paint23_linear_2_1083" x1="47.0933" y1="27.6753" x2="45.5105" y2="22.9367" gradientUnits="userSpaceOnUse">
<stop stop-color="#B3B3B3"/>
<stop offset="0.1214" stop-color="#B3B3B3"/>
<stop offset="0.2858" stop-color="#B3B3B3"/>
<stop offset="0.3839" stop-color="#B3B3B3"/>
<stop offset="0.5169" stop-color="#B3B3B3"/>
<stop offset="1" stop-color="#B3B3B3"/>
</linearGradient>
<linearGradient id="paint24_linear_2_1083" x1="63.7349" y1="3.22352" x2="71.3893" y2="26.0815" gradientUnits="userSpaceOnUse">
<stop/>
<stop offset="0.552" stop-color="#7D7D7D"/>
<stop offset="0.6933" stop-color="#969696"/>
<stop offset="0.8575" stop-color="#8A8A8A"/>
<stop offset="1" stop-color="#505050"/>
</linearGradient>
<linearGradient id="paint25_linear_2_1083" x1="43.8819" y1="24.9745" x2="69.0518" y2="30.9282" gradientUnits="userSpaceOnUse">
<stop stop-color="#323232"/>
<stop offset="0.1055" stop-color="#B4B4B6"/>
<stop offset="0.2532" stop-color="#B4B4B4"/>
<stop offset="1" stop-color="#AAAAAA"/>
</linearGradient>
<linearGradient id="paint26_linear_2_1083" x1="57.6401" y1="26.0048" x2="57.6401" y2="30.1973" gradientUnits="userSpaceOnUse">
<stop stop-color="#505050"/>
<stop offset="1" stop-color="#FAFAFA"/>
</linearGradient>
<linearGradient id="paint27_linear_2_1083" x1="29.1818" y1="-2.8863" x2="40.2622" y2="14.8034" gradientUnits="userSpaceOnUse">
<stop stop-color="#8282A9"/>
<stop offset="1" stop-color="#A9A9A9"/>
</linearGradient>
<linearGradient id="paint28_linear_2_1083" x1="64.4004" y1="15.44" x2="50.8142" y2="20.0997" gradientUnits="userSpaceOnUse">
<stop stop-color="#FAFAFA"/>
<stop offset="0.25" stop-color="#FAFAFA"/>
<stop offset="0.5" stop-color="#E1E1E1"/>
<stop offset="1" stop-color="#C8C8C8"/>
</linearGradient>
<linearGradient id="paint29_linear_2_1083" x1="47.5339" y1="-0.972279" x2="47.2348" y2="47.0965" gradientUnits="userSpaceOnUse">
<stop stop-color="#AAAAAA"/>
<stop offset="0.1018" stop-color="#BEBEBE"/>
<stop offset="0.2115" stop-color="#BEBEBE"/>
<stop offset="0.5492" stop-color="#B4B4B4"/>
<stop offset="0.6735" stop-color="#878787"/>
<stop offset="0.7787" stop-color="#969696"/>
<stop offset="1" stop-color="#AAAAAA"/>
</linearGradient>
<linearGradient id="paint30_linear_2_1083" x1="27.0532" y1="40.562" x2="38.2308" y2="30.8424" gradientUnits="userSpaceOnUse">
<stop stop-color="#E6E6E6"/>
<stop offset="1" stop-color="#FAFAFA"/>
</linearGradient>
<linearGradient id="paint31_linear_2_1083" x1="64.4004" y1="15.44" x2="50.8142" y2="20.0997" gradientUnits="userSpaceOnUse">
<stop stop-color="#FAFAFA"/>
<stop offset="0.25" stop-color="#FAFAFA"/>
<stop offset="0.5" stop-color="#E1E1E1"/>
<stop offset="1" stop-color="#C8C8C8"/>
</linearGradient>
<linearGradient id="paint32_linear_2_1083" x1="50.9919" y1="14.6627" x2="53.7607" y2="16.6066" gradientUnits="userSpaceOnUse">
<stop stop-color="#FAFAFA"/>
<stop offset="0.25" stop-color="#EDEDED"/>
<stop offset="0.5" stop-color="#E1E1E1"/>
<stop offset="1" stop-color="#C8C8C8"/>
</linearGradient>
<linearGradient id="paint33_linear_2_1083" x1="48.5918" y1="34.2947" x2="74.3487" y2="7.66306" gradientUnits="userSpaceOnUse">
<stop stop-color="#969696"/>
<stop offset="0.1326" stop-color="#C0BEBE"/>
<stop offset="0.5" stop-color="#B4B4B4"/>
<stop offset="1" stop-color="#BEBEBE"/>
</linearGradient>
<linearGradient id="paint34_linear_2_1083" x1="58.1163" y1="7.62785" x2="63.6564" y2="8.69702" gradientUnits="userSpaceOnUse">
<stop/>
<stop offset="0.1092" stop-color="#323232"/>
<stop offset="0.2183" stop-color="#323232"/>
<stop offset="0.5061" stop-color="#E1E1E1"/>
<stop offset="1" stop-color="#C8C8C8"/>
</linearGradient>
<linearGradient id="paint35_linear_2_1083" x1="69.6661" y1="32.9365" x2="69.6388" y2="34.6317" gradientUnits="userSpaceOnUse">
<stop stop-color="#FAFAFA"/>
<stop offset="0.5" stop-color="#FAFAFA"/>
<stop offset="0.6978" stop-color="#E1E1E1"/>
<stop offset="1" stop-color="#C8C8C8"/>
</linearGradient>
<radialGradient id="paint36_radial_2_1083" cx="0" cy="0" r="1" gradientUnits="userSpaceOnUse" gradientTransform="translate(48.354 13.1169) rotate(76.7276) scale(13.3156 16.9291)">
<stop stop-color="#DCDCDC"/>
<stop offset="0.7522" stop-color="#E1E1E1"/>
<stop offset="1" stop-color="#C8C8C8"/>
</radialGradient>
</defs>
</svg>
