<svg width="67" height="62" viewBox="0 0 67 62" fill="none" xmlns="http://www.w3.org/2000/svg">
<path d="M14.3521 60.3773V54.8434C14.3521 53.7592 14.1406 53.5538 13.0051 53.5608L11.0374 53.5679V60.3844H7.94836V53.575L4.64773 53.5821V60.3844H1.57983V50.6911L13.0756 50.6486C16.5526 50.6344 17.4553 51.4847 17.4553 54.7867V60.3702H14.3521V60.3773Z" fill="black"/>
<path d="M61.3578 50.4786L54.6014 50.4998L54.6085 53.1924L61.3649 53.1782C62.2958 53.1782 62.3805 53.1924 62.3875 53.8372L57.5 53.8514C55.8145 53.8585 53.8115 54.4253 53.8115 57.1179C53.8186 59.8105 55.8215 60.3773 57.5142 60.3773H65.4272L65.4131 54.0498C65.399 51.1163 64.6655 50.4715 61.3578 50.4786ZM62.3946 57.6777L57.5071 57.6847C56.9006 57.6847 56.8159 57.3801 56.8159 57.0825C56.8159 56.7849 56.8935 56.4802 57.5 56.4802L62.3875 56.4731L62.3946 57.6777Z" fill="black"/>
<path d="M44.7983 53.4336L47.7604 53.4265C50.3839 53.4194 50.6308 53.7808 50.6308 55.453C50.6308 57.1253 50.3839 57.4866 47.7604 57.4866H44.7983V53.4336ZM26.3345 57.7134L21.4399 57.7205C20.8334 57.7205 20.7488 57.4229 20.7488 57.1253C20.7488 56.8277 20.8334 56.5301 21.4399 56.5301L26.3345 56.523V57.7134ZM48.0777 50.5285L40.1647 50.5568L29.36 58.1173V54.128C29.36 51.237 28.6266 50.5993 25.3118 50.6064L18.5484 50.6277V53.2848L25.3118 53.2706C26.2428 53.2706 26.3274 53.2848 26.3274 53.9225L21.4329 53.9367C19.7473 53.9438 17.7373 54.5035 17.7373 57.1607C17.7373 59.8178 19.7473 60.3776 21.4329 60.3776H30.968L41.7868 52.8171V60.3776H48.0707C52.4574 60.3776 53.6564 59.3147 53.6564 55.4459C53.6634 51.5701 52.4574 50.5143 48.0777 50.5285ZM38.8952 50.5568L30.2698 50.5922V53.469L34.7624 53.4549L38.8952 50.5568ZM32.2375 60.3776H40.877V57.4866L36.3633 57.4937L32.2375 60.3776Z" fill="black"/>
<path d="M14.4227 60.3064V54.8433C14.4227 53.7167 14.1829 53.4828 13.0051 53.4899L10.9669 53.497V60.3135H8.01889V53.497L4.57721 53.5041V60.3064H1.64331V50.7619L13.0686 50.7194C16.4891 50.7052 17.3777 51.5414 17.3777 54.7866V60.3064H14.4227Z" fill="#262626"/>
<path d="M57.5071 60.3066C55.1375 60.3066 53.8821 59.2012 53.875 57.118C53.868 55.0348 55.1233 53.9294 57.493 53.9223L62.451 53.9082V53.894C62.451 53.1217 62.3593 53.1004 61.3649 53.1075L54.679 53.1217L54.672 50.5708L61.3579 50.5496C64.6232 50.5354 65.3285 51.1589 65.3356 54.0428L65.3497 60.2995L57.5071 60.3066ZM57.5001 56.4023C56.9852 56.4023 56.7454 56.6149 56.7454 57.0755C56.7454 57.5361 56.9852 57.7486 57.5001 57.7486L62.4581 57.7416V56.3882L57.5001 56.4023Z" fill="#262626"/>
<path d="M50.7014 55.4459C50.7014 53.7453 50.4334 53.3485 47.7604 53.3556L44.7278 53.3627V57.5574H47.7604C50.4334 57.5504 50.7014 57.1536 50.7014 55.4459ZM20.6854 57.1181C20.6854 57.5716 20.9252 57.7842 21.44 57.7842L26.405 57.7771V56.445L21.44 56.4521C20.9252 56.4521 20.6854 56.6646 20.6854 57.1181ZM48.0778 60.3067H41.8644V52.6825L30.954 60.3067H21.44C19.0633 60.3067 17.8149 59.2155 17.8149 57.1606C17.8149 55.1058 19.0703 54.0146 21.44 54.0075L26.405 53.9933V53.9792C26.405 53.221 26.3134 53.1997 25.3189 53.1997L18.626 53.2139V50.6985L25.3189 50.6772C28.5843 50.663 29.2966 51.2795 29.2966 54.128V58.2518L40.1929 50.6276L48.0848 50.5993C52.4363 50.5851 53.6 51.6054 53.6 55.4459C53.5929 59.2793 52.4222 60.3067 48.0778 60.3067ZM30.3334 53.3981V50.663L38.6696 50.6347L34.7342 53.391L30.3334 53.3981ZM40.8065 57.5574V60.3067H32.4562L36.3845 57.5645L40.8065 57.5574Z" fill="#262626"/>
<path d="M61.3579 50.691L54.8835 50.7122L55.3984 51.2437L61.3579 51.2295C64.0802 51.2224 64.6726 51.7184 64.6796 54.0496L64.6938 59.6332L65.2157 60.1646L65.2015 54.0496C65.1945 51.2437 64.5527 50.6839 61.3579 50.691Z" fill="url(#paint0_linear_2_1132)"/>
<path d="M57.5 55.6231C56.562 55.6231 55.9837 56.1828 55.9908 57.0827C55.9908 57.9826 56.5762 58.5353 57.5071 58.5353L63.2268 58.5282L63.2197 55.6089L57.5 55.6231ZM57.5 57.8905C56.9076 57.8905 56.6044 57.6141 56.6044 57.0756C56.6044 56.5371 56.9076 56.2608 57.5 56.2608L62.5991 56.2537L62.6062 57.8905H57.5Z" fill="url(#paint1_linear_2_1132)"/>
<path d="M65.2016 54.05C65.1946 51.2441 64.5528 50.6843 61.3579 50.6985L54.806 50.7198L54.8131 52.9872L61.365 52.973C62.4581 52.973 62.5921 53.0722 62.5921 53.9012V54.0571L57.4931 54.0713C55.1798 54.0784 54.0091 55.1058 54.0161 57.1252C54.0232 59.1447 55.1939 60.1721 57.5072 60.1721H65.2157L65.2016 54.05ZM57.5072 59.5273C55.5395 59.5273 54.6368 58.7691 54.6368 57.1182C54.6368 55.4672 55.5325 54.709 57.5001 54.7019L63.2198 54.6878V53.8942C63.2198 52.4345 62.4511 52.3211 61.365 52.3282L55.4337 52.3424V51.3504L61.365 51.3291C64.0379 51.322 64.5739 51.7755 64.581 54.043L64.5951 59.5131L57.5072 59.5273Z" fill="url(#paint2_linear_2_1132)"/>
<path d="M13.0757 50.861L1.78442 50.8965V60.1646H4.44327V53.3623L8.16 53.3552V60.1646H10.833V53.3481L13.0122 53.341C14.2676 53.341 14.5708 53.6315 14.5708 54.8361V60.1646H17.2508V54.7865C17.2438 51.6192 16.4186 50.8469 13.0757 50.861ZM15.1844 59.5339V54.8361C15.1844 53.2843 14.592 52.7104 13.0052 52.7175L10.2053 52.7246V59.541H8.78063V52.7317L3.82263 52.7458V59.541H2.40506V51.52L13.0757 51.4846C15.9179 51.4775 16.6161 52.1223 16.6161 54.7865V59.5339H15.1844Z" fill="url(#paint3_linear_2_1132)"/>
<path d="M13.0757 50.861L1.78442 50.8965L2.29927 51.4137L13.0757 51.3783C15.9743 51.3712 16.7219 52.0727 16.7219 54.7865V59.6402H15.0857L14.5638 60.1646H17.2438V54.7865C17.2438 51.6192 16.4186 50.8469 13.0757 50.861Z" fill="url(#paint4_linear_2_1132)"/>
<path d="M13.0051 52.8238L10.311 52.8309L10.8329 53.3552L13.0122 53.3481C14.2676 53.3481 14.5708 53.6387 14.5708 54.8432V60.1717L15.0927 59.6473V54.8432C15.0857 53.3481 14.5356 52.8167 13.0051 52.8238Z" fill="url(#paint5_linear_2_1132)"/>
<path d="M10.311 52.8311V59.6404H8.67475L8.15991 60.1648H10.8258V53.3483L10.311 52.8311Z" fill="url(#paint6_linear_2_1132)"/>
<path d="M8.15991 53.3554V60.1648L8.67475 59.6404V52.8311L8.15991 53.3554Z" fill="url(#paint7_linear_2_1132)"/>
<path d="M3.92114 52.8452L4.44304 53.3696L8.15977 53.3554L8.67462 52.8311L3.92114 52.8452Z" fill="#1A1A1A"/>
<path d="M3.92137 52.8452V59.6475H2.29927L1.78442 60.1648H4.44327V53.3696L3.92137 52.8452Z" fill="url(#paint8_linear_2_1132)"/>
<path d="M64.6938 59.6265H57.5072C55.476 59.6265 54.538 58.8258 54.531 57.1111C54.531 55.3963 55.469 54.5957 57.4931 54.5886L63.107 54.5744L62.5851 54.043L57.486 54.0571C55.1727 54.0642 54.002 55.0917 54.0091 57.1111C54.0161 59.1305 55.1869 60.1579 57.5001 60.1579H65.2086L64.6938 59.6265Z" fill="url(#paint9_linear_2_1132)"/>
<path d="M61.3649 52.4344L55.3349 52.4486L54.8201 52.98L61.372 52.9658C62.4651 52.9658 62.5991 53.065 62.5991 53.894V54.0499L63.121 54.5814V53.894C63.1069 52.5336 62.4158 52.4273 61.3649 52.4344Z" fill="url(#paint10_linear_2_1132)"/>
<path d="M62.5991 56.2534V57.8902L63.121 58.4216L63.114 55.7148L62.5991 56.2534Z" fill="url(#paint11_linear_2_1132)"/>
<path d="M57.5002 57.8904C56.9077 57.8904 56.6045 57.6141 56.6045 57.0755C56.6045 56.537 56.9077 56.2607 57.5002 56.2607L62.5992 56.2536L63.1211 55.7222L57.5072 55.7293C56.6256 55.7293 56.0967 56.2323 56.0967 57.0826C56.0967 57.9258 56.6256 58.4289 57.5143 58.4289L63.1281 58.4218L62.6063 57.8904H57.5002Z" fill="url(#paint12_linear_2_1132)"/>
<path d="M36.3845 57.7349L36.4275 57.7061L36.3845 57.7349Z" fill="white"/>
<path d="M48.0778 51.2725L41.7939 51.2937L48.0778 51.2725Z" fill="#262626"/>
<path d="M48.0778 51.2725L41.7939 51.2937L48.0778 51.2725Z" fill="url(#paint13_linear_2_1132)"/>
<path d="M42.5134 51.4067L41.9985 52.4129V60.1647L42.5134 59.6333V51.4067Z" fill="#262626"/>
<path d="M42.5134 51.4067L41.9985 52.4129V60.1647L42.5134 59.6333V51.4067Z" fill="url(#paint14_linear_2_1132)"/>
<path d="M19.2749 51.435L18.76 50.9106V53.0789L19.2749 52.5545V51.435Z" fill="#262626"/>
<path d="M19.2749 51.435L18.76 50.9106V53.0789L19.2749 52.5545V51.435Z" fill="url(#paint15_linear_2_1132)"/>
<path d="M28.6267 59.5202L29.1486 58.514V54.1279H28.6267V59.5202Z" fill="#262626"/>
<path d="M28.6267 59.5202L29.1486 58.514V54.1279H28.6267V59.5202Z" fill="url(#paint16_linear_2_1132)"/>
<path d="M25.3119 51.3432V50.8188L18.8306 50.8401L19.3525 51.3644L25.3119 51.3432Z" fill="#262626"/>
<path d="M25.3119 51.3432V50.8188L18.8306 50.8401L19.3525 51.3644L25.3119 51.3432Z" fill="url(#paint17_linear_2_1132)"/>
<path d="M28.6267 54.1277H29.1486C29.1486 51.3571 28.5069 50.8045 25.312 50.8186V51.343C28.0414 51.3359 28.6267 51.8319 28.6267 54.1277Z" fill="#262626"/>
<path d="M28.6267 54.1277H29.1486C29.1486 51.3571 28.5069 50.8045 25.312 50.8186V51.343C28.0414 51.3359 28.6267 51.8319 28.6267 54.1277Z" fill="url(#paint18_linear_2_1132)"/>
<path d="M29.1486 54.1277C29.1486 51.3571 28.5068 50.8045 25.3119 50.8186L18.8306 50.8399L19.3454 51.3642L25.3119 51.343C28.0413 51.3359 28.6267 51.8319 28.6267 54.1277V59.5128L29.1486 58.5137V54.1277Z" fill="url(#paint19_linear_2_1132)"/>
<path d="M30.7495 59.6404H21.44C19.4089 59.6404 18.4709 58.8539 18.4709 57.1604C18.4709 55.4669 19.4159 54.6733 21.44 54.6733L27.061 54.6591L26.5391 54.1348L21.44 54.1489C19.1268 54.156 17.949 55.1693 17.949 57.1604C17.949 59.1515 19.1268 60.1647 21.44 60.1647H30.9117L30.7495 59.6404Z" fill="url(#paint20_linear_2_1132)"/>
<path d="M27.061 53.9792C27.061 52.6329 26.3698 52.5337 25.3119 52.5337L19.2749 52.5479L18.76 53.0722L25.319 53.058C26.4121 53.058 26.5461 53.1572 26.5461 53.9792V54.1351L27.068 54.6594L27.061 53.9792Z" fill="#262626"/>
<path d="M27.061 53.9792C27.061 52.6329 26.3698 52.5337 25.3119 52.5337L19.2749 52.5479L18.76 53.0722L25.319 53.058C26.4121 53.058 26.5461 53.1572 26.5461 53.9792V54.1351L27.068 54.6594L27.061 53.9792Z" fill="url(#paint21_linear_2_1132)"/>
<path d="M27.061 53.9792C27.061 52.6329 26.3698 52.5337 25.3119 52.5337L19.2749 52.5479L18.76 53.0722L25.319 53.058C26.4121 53.058 26.5461 53.1572 26.5461 53.9792V54.1351L27.068 54.6594L27.061 53.9792Z" fill="url(#paint22_linear_2_1132)"/>
<path d="M26.5391 57.9187L27.061 58.4501V55.7788L26.5391 56.3031V57.9187Z" fill="#262626"/>
<path d="M26.5391 57.9187L27.061 58.4501V55.7788L26.5391 56.3031V57.9187Z" fill="url(#paint23_linear_2_1132)"/>
<path d="M26.5391 57.9187L27.061 58.4501V55.7788L26.5391 56.3031V57.9187Z" fill="url(#paint24_linear_2_1132)"/>
<path d="M20.0295 57.118C20.0295 57.9541 20.5585 58.4501 21.4401 58.4501L27.061 58.443L26.5391 57.9187L21.4401 57.9258C20.8476 57.9258 20.5444 57.6565 20.5444 57.118C20.5444 56.5866 20.8476 56.3102 21.4401 56.3102L26.5391 56.3031L27.061 55.7788L21.4401 55.7859C20.5585 55.7859 20.0295 56.289 20.0295 57.118Z" fill="#262626"/>
<path d="M20.0295 57.118C20.0295 57.9541 20.5585 58.4501 21.4401 58.4501L27.061 58.443L26.5391 57.9187L21.4401 57.9258C20.8476 57.9258 20.5444 57.6565 20.5444 57.118C20.5444 56.5866 20.8476 56.3102 21.4401 56.3102L26.5391 56.3031L27.061 55.7788L21.4401 55.7859C20.5585 55.7859 20.0295 56.289 20.0295 57.118Z" fill="url(#paint25_linear_2_1132)"/>
<path d="M20.0295 57.118C20.0295 57.9541 20.5585 58.4501 21.4401 58.4501L27.061 58.443L26.5391 57.9187L21.4401 57.9258C20.8476 57.9258 20.5444 57.6565 20.5444 57.118C20.5444 56.5866 20.8476 56.3102 21.4401 56.3102L26.5391 56.3031L27.061 55.7788L21.4401 55.7859C20.5585 55.7859 20.0295 56.289 20.0295 57.118Z" fill="url(#paint26_linear_2_1132)"/>
<path d="M47.7603 52.6822L44.0718 52.6893L44.5866 53.2207L47.7603 53.2136C50.3698 53.2066 50.8423 53.5467 50.8423 55.4456C50.8423 57.3446 50.3698 57.6918 47.7603 57.6918H44.5866L44.0718 58.2233H47.7603C50.4615 58.2233 51.3571 57.8194 51.3571 55.4456C51.3642 53.0719 50.4615 52.6751 47.7603 52.6822Z" fill="#262626"/>
<path d="M47.7603 52.6822L44.0718 52.6893L44.5866 53.2207L47.7603 53.2136C50.3698 53.2066 50.8423 53.5467 50.8423 55.4456C50.8423 57.3446 50.3698 57.6918 47.7603 57.6918H44.5866L44.0718 58.2233H47.7603C50.4615 58.2233 51.3571 57.8194 51.3571 55.4456C51.3642 53.0719 50.4615 52.6751 47.7603 52.6822Z" fill="url(#paint27_linear_2_1132)"/>
<path d="M47.7603 52.6822L44.0718 52.6893L44.5866 53.2207L47.7603 53.2136C50.3698 53.2066 50.8423 53.5467 50.8423 55.4456C50.8423 57.3446 50.3698 57.6918 47.7603 57.6918H44.5866L44.0718 58.2233H47.7603C50.4615 58.2233 51.3571 57.8194 51.3571 55.4456C51.3642 53.0719 50.4615 52.6751 47.7603 52.6822Z" fill="url(#paint28_linear_2_1132)"/>
<path d="M44.5937 53.2209L44.0718 52.6895V58.2234L44.5937 57.6991V53.2209Z" fill="#262626"/>
<path d="M44.5937 53.2209L44.0718 52.6895V58.2234L44.5937 57.6991V53.2209Z" fill="url(#paint29_linear_2_1132)"/>
<path d="M44.5937 53.2209L44.0718 52.6895V58.2234L44.5937 57.6991V53.2209Z" fill="url(#paint30_linear_2_1132)"/>
<path d="M36.5467 51.3078L38.2252 50.7764L30.5449 50.7976L31.0668 51.322L36.5467 51.3078Z" fill="#262626"/>
<path d="M36.5467 51.3078L38.2252 50.7764L30.5449 50.7976L31.0668 51.322L36.5467 51.3078Z" fill="url(#paint31_linear_2_1132)"/>
<path d="M30.9892 51.3998L30.4744 50.8755V53.2563L30.9892 52.7249V51.3998Z" fill="#262626"/>
<path d="M30.9892 51.3998L30.4744 50.8755V53.2563L30.9892 52.7249V51.3998Z" fill="url(#paint32_linear_2_1132)"/>
<path d="M38.2252 50.7764L36.5467 51.3078L34.5367 52.7179L30.9892 52.7249L30.4744 53.2564L34.6989 53.2422L38.2252 50.7764Z" fill="#1A1A1A"/>
<path d="M34.5721 59.6333L36.5468 58.2587L36.3846 57.7344L32.9006 60.1648L34.5721 59.6333Z" fill="#262626"/>
<path d="M34.5721 59.6333L36.5468 58.2587L36.3846 57.7344L32.9006 60.1648L34.5721 59.6333Z" fill="url(#paint33_linear_2_1132)"/>
<path d="M34.5721 59.6333L36.5468 58.2587L36.3846 57.7344L32.9006 60.1648L34.5721 59.6333Z" fill="url(#paint34_linear_2_1132)"/>
<path d="M36.4832 57.7058L36.6454 58.2302H40.1505L40.6724 57.6987L36.4268 57.7058H36.4832Z" fill="#262626"/>
<path d="M36.4832 57.7058L36.6454 58.2302H40.1505L40.6724 57.6987L36.4268 57.7058H36.4832Z" fill="url(#paint35_linear_2_1132)"/>
<path d="M36.4832 57.7058L36.6454 58.2302H40.1505L40.6724 57.6987L36.4268 57.7058H36.4832Z" fill="url(#paint36_linear_2_1132)"/>
<path d="M40.1507 59.6331H34.5721L32.9006 60.1646H40.6726V57.6987L40.1507 58.2302V59.6331Z" fill="#262626"/>
<path d="M40.1507 59.6331H34.5721L32.9006 60.1646H40.6726V57.6987L40.1507 58.2302V59.6331Z" fill="url(#paint37_linear_2_1132)"/>
<path d="M40.1507 59.6331H34.5721L32.9006 60.1646H40.6726V57.6987L40.1507 58.2302V59.6331Z" fill="url(#paint38_linear_2_1132)"/>
<path d="M40.3482 51.3288L40.186 50.7974L29.1486 58.5137L28.6267 59.5199L40.3482 51.3288Z" fill="url(#paint39_linear_2_1132)"/>
<path d="M40.3482 51.3288L40.186 50.7974L29.1486 58.5137L28.6267 59.5199L40.3482 51.3288Z" fill="url(#paint40_linear_2_1132)"/>
<path d="M30.7495 59.6403L30.9117 60.1647L41.9985 52.4129L42.5133 51.4067L30.7495 59.6403Z" fill="url(#paint41_linear_2_1132)"/>
<path d="M48.0778 50.7409L40.2847 50.7692L40.4469 51.3006L48.0778 51.2794C52.0696 51.2652 52.9371 52.0092 52.9371 55.4529C52.9371 58.8965 52.0767 59.6405 48.0778 59.6405H42.5204L42.0055 60.172H48.0778C52.3517 60.172 53.459 59.2083 53.459 55.4529C53.459 51.6974 52.3517 50.7267 48.0778 50.7409Z" fill="url(#paint42_linear_2_1132)"/>
<path d="M30.9892 52.7249L34.5367 52.7178L36.5538 51.3078L31.0668 51.329L30.552 50.8047H30.4814V50.8826L30.9963 51.407V52.7249H30.9892Z" fill="white"/>
<path d="M36.6453 58.2304L36.4831 57.7061H36.4266L36.3843 57.7344L36.5465 58.2587L34.5789 59.6334H40.1504V58.2233L36.6453 58.2304Z" fill="white"/>
<path d="M13.0755 51.3856L2.37663 51.4211L1.86179 50.9038H1.79126V50.9747L2.3061 51.4919V59.6476H3.92821V52.8524L8.68168 52.8382V59.6476H10.3179V52.8311L13.012 52.824C14.5424 52.8169 15.0855 53.3484 15.0855 54.8435V59.6476H16.7217V54.7939C16.7217 52.0729 15.967 51.3715 13.0755 51.3856Z" fill="white"/>
<path d="M61.3577 51.2299L55.3983 51.2512L54.8834 50.7197H54.8129V50.7977L55.3277 51.3291V52.4557L61.3577 52.4416C62.4086 52.4416 63.1068 52.5408 63.1068 53.9012V54.5885L57.4929 54.6027C55.4688 54.6098 54.5237 55.4034 54.5308 57.1252C54.5308 58.84 55.4759 59.6406 57.507 59.6406H64.6936L64.6795 54.0571C64.6725 51.7188 64.0801 51.2157 61.3577 51.2299ZM63.1209 58.4219L57.507 58.429C56.6254 58.429 56.0965 57.9259 56.0894 57.0827C56.0894 56.2395 56.6113 55.7364 57.5 55.7293L63.1139 55.7222L63.1209 58.4219Z" fill="white"/>
<path d="M48.0777 51.2724L40.4467 51.2936L40.2845 50.7622H40.2281L40.1858 50.7905L40.348 51.322L28.6265 59.5201V54.135C28.6265 51.8321 28.0341 51.3361 25.3118 51.3503L19.3452 51.3716L18.8304 50.8472H18.7599V50.9181L19.2747 51.4424V52.5549L25.3118 52.5407C26.3697 52.5407 27.0608 52.6399 27.0608 53.9862V54.6664L21.4399 54.6806C19.4087 54.6877 18.4707 55.4742 18.4707 57.1677C18.4707 58.8612 19.4158 59.6477 21.4399 59.6477H30.7493L42.5131 51.4212V59.6477H48.0706C52.0624 59.6477 52.9299 58.9037 52.9299 55.46C52.9299 51.9951 52.0694 51.2582 48.0777 51.2724ZM21.4399 58.4502C20.5583 58.4502 20.0293 57.9542 20.0293 57.1181C20.0293 56.282 20.5583 55.786 21.4399 55.786L27.0608 55.7789V58.4502H21.4399ZM47.7603 58.2235H44.0718V52.6895L47.7603 52.6824C50.4544 52.6753 51.3642 53.0651 51.3642 55.4459C51.3642 57.8337 50.4403 58.2235 47.7603 58.2235Z" fill="white"/>
<path d="M52.8243 55.4453C52.8243 52.0655 51.9991 51.364 48.0708 51.3781L42.6191 51.3923V59.5267H48.0708C52.0062 59.5267 52.8243 58.8181 52.8243 55.4453ZM43.9732 58.3292V52.5827L47.7676 52.5685C50.4969 52.5615 51.4702 52.9937 51.4702 55.4383C51.4702 57.8828 50.4969 58.3221 47.7676 58.3221L43.9732 58.3292Z" fill="url(#paint43_linear_2_1132)"/>
<path d="M27.1667 53.9789V54.7654L21.44 54.7725C19.4723 54.7796 18.5696 55.5236 18.5696 57.1533C18.5696 58.783 19.4723 59.527 21.44 59.527H28.5279V54.1206C28.5279 51.8815 27.9919 51.428 25.3189 51.4422L19.3806 51.4635V52.4413L25.3189 52.4271C26.398 52.4271 27.1667 52.5334 27.1667 53.9789ZM27.1667 58.5492L21.44 58.5563C20.502 58.5563 19.9237 58.0036 19.9237 57.125C19.9237 56.2463 20.502 55.6866 21.44 55.6866L27.1667 55.6795V58.5492Z" fill="url(#paint44_linear_2_1132)"/>
<path d="M36.2154 51.4136L31.0952 51.4277V52.6181L34.5016 52.6111L36.2154 51.4136Z" fill="url(#paint45_linear_2_1132)"/>
<path d="M40.045 59.5268V58.3364H36.6244L34.9106 59.5339L40.045 59.5268Z" fill="url(#paint46_linear_2_1132)"/>
<path d="M13.0757 51.4844L2.40503 51.5199V59.5409H3.82261V52.7457L8.78061 52.7315V59.5409H10.2052V52.7244L13.0051 52.7173C14.592 52.7103 15.1844 53.2913 15.1844 54.836V59.5338H16.6161V54.7864C16.6161 52.1292 15.9179 51.4773 13.0757 51.4844Z" fill="url(#paint47_linear_2_1132)"/>
<path d="M61.3581 51.3358L55.4268 51.357V52.349L61.3581 52.3349C62.4442 52.3349 63.2059 52.4411 63.2129 53.9008V54.6944L57.4933 54.7086C55.5256 54.7157 54.6299 55.4738 54.6299 57.1248C54.6299 58.7758 55.5326 59.5339 57.5003 59.5339H64.5811L64.567 54.0638C64.567 51.7751 64.031 51.3216 61.3581 51.3358ZM57.5074 58.5278C56.5694 58.5278 55.991 57.968 55.991 57.0752C55.991 56.1753 56.5694 55.6226 57.5003 55.6155L63.22 55.6085L63.227 58.5278H57.5074Z" fill="url(#paint48_linear_2_1132)"/>
<path d="M42.3583 51.3926L40.4188 51.3997L28.782 59.5341H30.7215L42.3583 51.3926Z" fill="url(#paint49_linear_2_1132)"/>
<path d="M61.2944 50.6841L54.8765 50.7125L55.3913 51.2439L61.2873 51.2156C64.066 51.2085 64.6726 51.7116 64.6726 54.0428V59.6334L65.2015 60.1648V54.0428C65.2086 51.2368 64.5527 50.6771 61.2944 50.6841Z" fill="url(#paint50_linear_2_1132)"/>
<path d="M30.7495 59.6406L21.4401 59.6477C19.4089 59.6477 18.4709 58.8612 18.4709 57.1677C18.4709 55.4742 19.4159 54.6806 21.4401 54.6806L27.061 54.6664L26.5391 54.1421L21.4401 54.1563C19.1268 54.1633 17.9561 55.1766 17.9561 57.1677C17.9561 59.1588 19.1338 60.172 21.4401 60.172H30.9117L30.7495 59.6406Z" fill="url(#paint51_linear_2_1132)"/>
<path opacity="0.5" d="M13.0757 50.861V51.3854C15.9743 51.3783 16.7219 52.0798 16.7219 54.7936H17.2438C17.2438 51.6192 16.4186 50.8469 13.0757 50.861Z" fill="url(#paint52_linear_2_1132)"/>
<path opacity="0.5" d="M61.3579 50.691V51.2224C64.0802 51.2153 64.6726 51.7113 64.6797 54.0425H65.2016C65.1945 51.2437 64.5528 50.6839 61.3579 50.691Z" fill="url(#paint53_linear_2_1132)"/>
<path opacity="0.5" d="M57.4931 54.064C55.1798 54.0711 54.0091 55.0985 54.0161 57.1179H54.531C54.531 55.4032 55.469 54.6025 57.4931 54.5954V54.064Z" fill="url(#paint54_linear_2_1132)"/>
<path opacity="0.5" d="M28.6267 54.1277H29.1486C29.1486 51.3571 28.5069 50.8045 25.312 50.8186V51.343C28.0414 51.3359 28.6267 51.8319 28.6267 54.1277Z" fill="url(#paint55_linear_2_1132)"/>
<path opacity="0.5" d="M21.44 54.6733V54.1489C19.1268 54.156 17.949 55.1693 17.949 57.1604H18.4638C18.4709 55.4669 19.4089 54.6733 21.44 54.6733Z" fill="url(#paint56_linear_2_1132)"/>
<path opacity="0.5" d="M52.9301 55.4453H53.452C53.452 51.6899 52.3517 50.7262 48.0708 50.7404V51.2718C52.0696 51.2576 52.9301 51.9946 52.9301 55.4453Z" fill="url(#paint57_linear_2_1132)"/>
<path d="M33.5285 44.8598C24.7409 44.8598 17.519 42.8475 13.1957 39.1983C8.99237 35.6484 6.82721 30.4121 6.57332 23.1775C6.34058 16.4886 9.077 10.1257 13.7106 6.56863C18.1044 3.20291 24.3601 1.62988 33.4086 1.62988C42.7181 1.62988 49.0231 3.21 53.2476 6.59697C57.7402 10.2036 60.5189 16.7225 60.3214 23.213C60.1028 30.4546 57.9729 35.5138 53.6073 39.1346C49.1783 42.8262 42.0481 44.8598 33.5285 44.8598ZM33.5003 4.72634C31.0318 4.72634 28.6692 4.93183 26.8426 5.30737C23.7606 5.938 22.1526 6.5828 19.9381 8.07788C14.2466 11.9254 13.0547 18.3026 13.0547 22.9721C13.0547 30.0932 15.4244 35.2799 20.1003 38.3906C22.9989 40.3108 27.1388 41.1682 33.5214 41.1682C39.4527 41.1682 43.0919 40.3958 46.5053 38.4189C49.8624 36.4703 53.8683 32.1977 53.8683 22.9366C53.8683 16.1273 51.5691 11.1318 47.0272 8.08497C44.8973 6.65365 43.5291 6.02303 40.1015 5.30737C38.3102 4.93183 35.9616 4.72634 33.5003 4.72634Z" fill="white"/>
<path d="M33.5987 32.991C33.1826 32.991 33.0698 32.7288 32.6819 31.8644C32.5126 31.4746 32.2517 30.8936 31.8638 30.1142C30.284 26.9469 27.5053 24.3818 24.2469 23.0639C23.3301 22.6954 22.0606 22.3128 20.8335 21.9514L20.8194 21.9444C18.3086 21.1933 15.4594 20.343 13.3154 19.0534L13.2378 17.7V14.2564L15.5299 12.7046C15.671 12.7967 16.7782 13.5194 18.351 14.228C19.0633 14.554 19.8391 14.8941 20.6431 15.2484L20.6854 15.2696C23.4077 16.4742 26.4897 17.8417 27.738 18.7416C29.8256 20.2509 31.7721 22.4545 33.0698 24.7928C33.2532 25.1258 33.4083 25.2463 33.493 25.2463C33.5635 25.2463 33.7327 25.1471 33.9302 24.7645C35.235 22.1924 37.5623 19.8328 39.2902 18.6353C40.9546 17.4804 43.7686 16.3466 46.2582 15.3476L46.2794 15.3405C47.4219 14.8799 48.508 14.4406 49.3261 14.065C50.6097 13.4698 51.4631 12.8817 51.5406 12.8321L53.7128 14.1784V17.6929L53.6353 18.9754C52.1754 19.8257 51.2938 20.343 47.7181 21.2712L47.5418 21.3208C41.0322 22.986 36.8782 25.9478 35.1926 30.1213C34.9881 30.6173 34.833 31.0566 34.706 31.4109L34.6848 31.4817C34.304 32.4879 34.1277 32.991 33.5987 32.991Z" fill="white"/>
<path fill-rule="evenodd" clip-rule="evenodd" d="M27.3712 40.8775C21.7361 40.0839 13.0261 37.1008 13.0261 22.7239C13.0261 14.5115 16.6864 4.67654 33.5281 4.67654C48.7265 4.67654 53.9173 12.8889 53.9173 22.6955C53.9173 36.2292 46.1171 39.7579 39.6851 40.8208C36.5537 41.3451 31.0385 41.3947 27.3712 40.8775ZM57.6058 22.8231C57.6058 11.8685 52.4715 2.79883 33.5845 2.79883C13.7455 2.79883 9.57031 13.7888 9.57031 22.8514C9.57031 38.0219 19.6979 41.6994 27.0679 42.578C30.7987 43.0173 36.2011 42.9961 39.6568 42.5851C46.9563 41.7136 57.6058 38.0573 57.6058 22.8231Z" fill="url(#paint58_linear_2_1132)"/>
<path fill-rule="evenodd" clip-rule="evenodd" d="M27.3712 40.8775C21.7361 40.0839 13.0261 37.1008 13.0261 22.7239C13.0261 14.5115 16.6864 4.67654 33.5281 4.67654C48.7265 4.67654 53.9173 12.8889 53.9173 22.6955C53.9173 36.2292 46.1171 39.7579 39.6851 40.8208C36.5537 41.3451 31.0385 41.3947 27.3712 40.8775ZM57.6058 22.8231C57.6058 11.8685 52.4715 2.79883 33.5845 2.79883C13.7455 2.79883 9.57031 13.7888 9.57031 22.8514C9.57031 38.0219 19.6979 41.6994 27.0679 42.578C30.7987 43.0173 36.2011 42.9961 39.6568 42.5851C46.9563 41.7136 57.6058 38.0573 57.6058 22.8231Z" fill="url(#paint59_linear_2_1132)"/>
<path fill-rule="evenodd" clip-rule="evenodd" d="M33.6127 3.11768V4.4923C18.2521 4.52773 13.0261 12.6834 13.0261 23.0214C13.0261 32.4525 17.0814 37.2354 21.6797 39.3895C26.8352 41.7986 32.8228 41.3734 30.0088 42.4576C29.3177 42.7197 28.7464 43.152 26.2709 42.8615C18.9715 42.0041 9.63379 38.3833 9.63379 23.149C9.63379 12.1945 14.7611 3.12476 33.6127 3.11768Z" fill="url(#paint60_linear_2_1132)"/>
<path fill-rule="evenodd" clip-rule="evenodd" d="M60.1942 23.2623C60.1942 29.0938 58.2407 35.1379 53.5648 39.028C48.6702 43.0952 41.0534 44.817 33.4507 44.817C25.2978 44.817 18.2522 43.2653 12.9275 38.7729C8.69593 35.2017 6.65771 28.8387 6.65771 23.1985C6.65771 17.0552 8.6254 10.5363 13.7527 6.60377C18.4568 2.99006 26.8282 1.6792 33.4083 1.6792C40.9617 1.6792 48.2894 2.9192 53.1698 6.8376C57.9233 10.6426 60.1942 17.2394 60.1942 23.2623ZM57.4931 23.0639C57.4931 12.8817 51.583 3.03966 33.4789 3.03966C13.6398 3.03966 9.45761 14.0296 9.45761 23.0922C9.45761 38.5533 19.9801 42.0749 27.3783 42.8614C31.3772 43.2865 35.376 43.3361 39.7416 42.8472C44.1072 42.3512 57.4931 39.4248 57.4931 23.0639Z" fill="url(#paint61_linear_2_1132)"/>
<path opacity="0.74" fill-rule="evenodd" clip-rule="evenodd" d="M10.0146 18.0401C10.9315 15.3972 12.0881 11.0253 15.4734 8.00677C19.2888 4.60563 25.9959 3.40105 27.9636 3.17431C27.1948 2.72083 26.7928 2.62871 25.6574 2.26025C20.1351 3.07511 15.4734 4.60562 12.1304 8.12722C8.78746 11.6488 7.37693 16.0703 6.93262 19.0109C8.0963 18.5857 8.56177 18.4795 10.0146 18.0401Z" fill="url(#paint62_linear_2_1132)"/>
<path fill-rule="evenodd" clip-rule="evenodd" d="M33.2885 3.93945C39.6852 3.93945 45.7787 5.03774 49.6012 9.9694C43.7475 2.68528 23.979 2.51522 17.4553 9.9694C21.2778 5.59042 26.8847 3.93945 33.2885 3.93945Z" fill="url(#paint63_linear_2_1132)"/>
<path fill-rule="evenodd" clip-rule="evenodd" d="M33.5283 41.8697C26.5391 41.8697 22.4275 40.9839 18.9153 37.7599C18.478 37.3561 18.5062 37.3844 19.0069 37.7458C20.0155 38.4756 21.2426 39.2763 22.5967 39.7865C25.8057 40.9839 29.8257 41.3241 33.5424 41.3241C37.2591 41.3241 40.4751 40.9414 43.3385 40.0274C45.412 39.3684 47.0059 38.2205 48.4446 37.1506C48.9595 36.7609 49.0159 36.7821 48.5434 37.1931C44.7138 40.5163 40.2142 41.8697 33.5283 41.8697Z" fill="url(#paint64_linear_2_1132)"/>
<path fill-rule="evenodd" clip-rule="evenodd" d="M58.2405 32.5658C58.572 31.8218 58.5509 31.8714 58.6919 31.4038C58.7554 31.1983 58.6355 31.5313 58.5015 31.7935C58.3252 32.1336 58.3604 32.1123 58.0854 32.495C57.8033 32.8847 57.7257 32.9272 57.2038 33.2531C56.7877 33.5153 56.2799 33.6854 55.4618 34.1389C55.2502 34.2522 55.1515 34.3373 54.7213 34.897C54.411 35.3009 54.0795 35.7615 53.9102 35.9599C53.3813 36.5763 51.9708 37.7101 51.195 38.3903C50.5179 38.9784 50.7436 39.028 51.7027 38.695C52.5561 38.3974 53.8256 37.8659 54.5732 37.5613C55.0457 37.3629 55.4336 37.0369 55.5888 36.8527C56.5126 35.7615 57.5988 34.0113 58.2405 32.5658Z" fill="url(#paint65_linear_2_1132)"/>
<path opacity="0.9" fill-rule="evenodd" clip-rule="evenodd" d="M9.57045 23.0427C9.57045 18.1394 11.2983 11.7622 15.4523 8.0493C19.2678 4.64816 25.7986 3.37273 27.7662 3.14599C26.9975 2.69251 26.5884 2.60039 25.46 2.23193C19.9378 3.04679 15.2549 4.66233 11.9119 8.18393C8.35034 11.9464 6.67887 18.111 6.59424 22.2491C7.5675 22.5325 8.29392 22.738 9.57045 23.0427Z" fill="url(#paint66_linear_2_1132)"/>
<path d="M33.5001 4.73321C35.9615 4.73321 38.31 4.93869 40.1014 5.30715C43.5289 6.0228 44.8972 6.65343 47.0271 8.08475C51.5619 11.1316 53.8681 16.127 53.8681 22.9293C53.8681 32.1903 49.8622 36.4559 46.5052 38.4045C43.0987 40.3814 39.4596 41.1538 33.5283 41.1538C27.1457 41.1538 23.0058 40.2964 20.1142 38.3762C15.4383 35.2726 13.0686 30.0859 13.0686 22.9647C13.0686 18.2953 14.2605 11.9181 19.952 8.07766C22.1524 6.58966 23.7675 5.94486 26.8495 5.31423C28.6691 4.93869 31.0387 4.73321 33.5001 4.73321ZM33.5001 4.66943C31.1234 4.66943 28.7325 4.86075 26.8354 5.25046C23.7816 5.874 22.1383 6.52589 19.9167 8.02806C14.5356 11.663 13.0122 17.6505 13.0122 22.9647C13.0122 30.2701 15.4595 35.3506 20.0789 38.4258C23.4289 40.6507 28.2318 41.2105 33.5283 41.2105C38.9941 41.2105 42.8731 40.5798 46.5404 38.4541C50.7791 35.9954 53.9316 31.1558 53.9316 22.9293C53.9316 16.6372 51.9216 11.2946 47.0694 8.02806C44.8831 6.56132 43.5007 5.94486 40.1296 5.24338C38.2606 4.86783 35.8839 4.66943 33.5001 4.66943Z" fill="#231F20"/>
<path d="M33.5001 4.66929C35.8839 4.66929 38.2606 4.8606 40.1155 5.25031C43.4937 5.9518 44.8689 6.56826 47.0553 8.035C51.9145 11.2944 53.9175 16.6371 53.9175 22.9363C53.9175 31.1699 50.7649 36.0023 46.5263 38.4611C42.8589 40.5868 38.987 41.2174 33.5142 41.2174C28.2177 41.2174 23.4148 40.6576 20.0648 38.4327C15.4524 35.3575 13.0051 30.2771 13.0051 22.9717C13.0051 17.6574 14.5356 11.67 19.9097 8.035C22.1313 6.53283 23.7745 5.88094 26.8283 5.2574C28.7325 4.8606 31.1234 4.66929 33.5001 4.66929ZM33.5001 4.54883C31.0176 4.54883 28.6479 4.75431 26.8071 5.12986C23.704 5.76757 22.0748 6.41946 19.8462 7.92871C14.0913 11.8188 12.8853 18.2526 12.8853 22.9717C12.8853 30.1566 15.2831 35.3929 20.0084 38.5319C22.9353 40.4734 27.1034 41.3379 33.5212 41.3379C39.4878 41.3379 43.1551 40.5584 46.5898 38.5603C49.9891 36.5904 54.0374 32.2752 54.0374 22.9292C54.0374 16.0631 51.71 11.011 47.1187 7.92871C44.9677 6.48323 43.5924 5.84551 40.1296 5.12986C38.3311 4.75431 35.9756 4.54883 33.5001 4.54883Z" fill="#6D6E71"/>
<path d="M33.4083 1.68633C41.2438 1.68633 48.4163 2.7917 53.2192 6.63924C58.022 10.4939 60.4552 17.2678 60.2788 23.2127C60.0743 29.9371 58.2618 35.2088 53.5859 39.0989C48.6914 43.1661 41.138 44.81 33.5282 44.81C25.8832 44.81 18.1112 43.2866 13.2307 39.1627C8.77347 35.3931 6.8622 29.8591 6.62947 23.1773C6.40378 16.6088 8.9921 10.26 13.7456 6.6109C18.9927 2.58622 26.4544 1.68633 33.4083 1.68633ZM33.4083 1.62256C24.3598 1.62256 18.1041 3.1885 13.7103 6.5613C9.06968 10.1183 6.33326 16.4884 6.56599 23.1773C6.81989 30.4118 8.98505 35.6552 13.1884 39.2052C17.5117 42.8543 24.7336 44.8667 33.5212 44.8667C42.0407 44.8667 49.178 42.8331 53.6141 39.1485C57.9797 35.5206 60.1096 30.4614 60.3282 23.2198C60.5257 16.7293 57.7469 10.2034 53.2474 6.59673C49.0299 3.20267 42.7248 1.62256 33.4083 1.62256Z" fill="#231F20"/>
<path d="M33.4082 1.80698C42.6825 1.80698 48.9522 3.37292 53.1415 6.73864C57.5917 10.3098 60.3422 16.7791 60.1518 23.2129C59.9332 30.3978 57.8245 35.4145 53.5012 39.007C49.0933 42.6703 42.0054 44.6897 33.5281 44.6897C24.7758 44.6897 17.5962 42.6986 13.3082 39.0708C9.14719 35.5562 7.00319 30.3553 6.7493 23.1775C6.51656 16.5382 9.22477 10.2319 13.8231 6.71029C18.1746 3.36584 24.402 1.80698 33.4082 1.80698ZM33.4082 1.68652C26.4544 1.68652 18.9927 2.58641 13.7455 6.61109C8.99203 10.2532 6.39667 16.609 6.6294 23.1775C6.86214 29.8593 8.7734 35.4004 13.2307 39.1629C18.1111 43.2868 25.8831 44.8102 33.5281 44.8102C41.1379 44.8102 48.6842 43.1734 53.5858 39.0991C58.2617 35.209 60.0742 29.9373 60.2788 23.2129C60.4551 17.268 58.0219 10.4941 53.2191 6.63944C48.4162 2.79189 41.2437 1.68652 33.4082 1.68652Z" fill="#595A5C"/>
<path opacity="0.2" fill-rule="evenodd" clip-rule="evenodd" d="M47.2949 5.52686C48.4304 5.68274 52.5068 6.57554 53.8891 7.41874C55.2009 8.21943 54.9823 8.25486 54.9823 8.25486L52.535 9.19017C52.528 9.18308 50.8142 7.24868 47.2949 5.52686Z" fill="url(#paint67_linear_2_1132)"/>
<path opacity="0.2" fill-rule="evenodd" clip-rule="evenodd" d="M19.423 5.4629C16.9969 6.04393 13.7386 6.87295 12.4479 7.71616C11.8414 8.11296 10.1699 10.3024 10.1699 10.3024L12.5326 8.32553C13.6892 8.02084 13.7456 7.95707 14.6272 7.7445C15.6075 7.51067 16.1647 7.43273 17.2437 6.7029C18.3369 5.98015 21.8491 4.88187 19.423 5.4629Z" fill="url(#paint68_linear_2_1132)" fill-opacity="0.42"/>
<path d="M33.5706 43.322C31.1797 43.322 28.7254 43.1449 25.8409 42.7623C19.6839 41.9474 9.35889 38.2912 9.35889 23.0144C9.35889 14.0084 13.668 7.27701 21.1861 4.56318C24.4445 3.37987 28.6055 2.78467 33.5565 2.78467C42.4569 2.78467 48.8113 4.96707 52.9724 9.45232C56.1108 12.8251 57.6271 17.2608 57.6271 22.9931C57.6271 37.4692 48.1554 41.7844 40.2 42.8544C37.8586 43.1732 35.7498 43.322 33.5706 43.322ZM33.5565 3.14604C28.6478 3.14604 24.522 3.73415 21.306 4.9033C13.9431 7.56752 9.71857 14.1714 9.71857 23.0144C9.71857 37.2567 18.5132 41.416 25.8903 42.4009C31.3702 43.1307 35.2562 43.1591 40.1577 42.5001C47.965 41.4372 57.2674 37.2 57.2674 22.9931C57.2674 17.3529 55.7723 13.0094 52.7114 9.70032C48.6138 5.29301 42.3511 3.14604 33.5565 3.14604Z" fill="white"/>
<path opacity="0.5" d="M33.5776 43.3785C31.1797 43.3785 28.7254 43.2014 25.8338 42.8188C21.3272 42.2165 17.6457 40.6222 14.8811 38.0713C11.1714 34.6418 9.29541 29.5756 9.29541 23.0142C9.29541 13.9799 13.6187 7.2343 21.1579 4.49922C24.4233 3.3159 28.5914 2.7207 33.5565 2.7207C42.471 2.7207 48.8395 4.91019 53.0147 9.40962C56.1602 12.7966 57.6906 17.2393 57.6906 22.9929C57.6906 37.5116 48.1836 41.8409 40.2142 42.918C37.8656 43.2368 35.7498 43.3785 33.5776 43.3785ZM33.5565 2.84116C28.6126 2.84116 24.4515 3.43636 21.2003 4.61259C13.7104 7.32642 9.4153 14.0295 9.4153 23.0071C9.4153 29.533 11.2843 34.571 14.9657 37.9792C17.7021 40.5088 21.3625 42.096 25.8479 42.6912C28.7325 43.0738 31.1868 43.251 33.5706 43.251C35.7428 43.251 37.8515 43.1022 40.2 42.7833C48.1272 41.7134 57.5707 37.4053 57.5707 22.9788C57.5707 17.2606 56.0544 12.8462 52.93 9.48047C48.776 5.01647 42.4428 2.84116 33.5565 2.84116Z" fill="#BDBEC0"/>
<path fill-rule="evenodd" clip-rule="evenodd" d="M8.51954 31.8717C8.68175 32.2189 8.83691 32.7291 9.47164 33.0125C9.95827 33.2321 10.3462 33.3951 10.8328 33.5864C11.6156 33.8911 12.2151 34.9398 12.7229 35.62C13.2236 36.279 14.8175 37.767 15.6145 38.4189C16.8064 39.3967 18.9927 40.7076 20.6642 41.3949C20.7841 41.4445 25.3542 43.3576 24.8464 43.804C24.6983 43.9316 20.4949 42.7341 20.2974 42.6774C16.6935 41.5791 12.8781 39.3755 10.3391 35.7192C9.99354 35.2232 8.73112 32.9133 8.44901 31.9851C8.27975 31.3828 8.31501 31.4253 8.51954 31.8717Z" fill="url(#paint69_linear_2_1132)"/>
<path opacity="0.9" fill-rule="evenodd" clip-rule="evenodd" d="M56.9782 18.0968C56.0543 15.4538 54.9048 11.0819 51.5195 8.06341C47.704 4.66227 40.997 3.45769 39.0293 3.23095C39.798 2.77747 40.2 2.68535 41.3355 2.31689C46.8577 3.13175 51.5407 4.74729 54.8836 8.26889C57.6906 11.2307 58.9177 14.6886 59.5525 17.5087C58.5792 17.7921 58.2477 17.7921 56.9782 18.0968Z" fill="url(#paint70_linear_2_1132)"/>
<path d="M41.1451 19.7125C41.124 19.7267 41.0958 19.7338 41.0817 19.7409C39.8051 20.3786 33.6693 27.1455 33.5212 27.2943C33.3731 27.4431 26.8071 22.1075 26.6872 21.8879C26.5674 21.6753 15.396 17.6293 15.396 17.6293L12.6948 17.3884C12.6948 17.3884 12.8782 18.0899 13.5764 19.0607C16.3834 20.8392 21.9338 22.0508 24.8112 23.2129C28.2882 24.6159 30.7143 27.7973 31.9838 30.0789C32.8371 31.6024 32.9993 32.9416 33.5918 32.9416C34.1842 32.9416 34.5157 31.5244 34.9106 30.6104C36.8642 26.0755 39.2691 23.3617 47.69 21.2147C52.8807 19.8897 53.6353 18.8056 53.6353 18.8056L54.7497 16.1626C54.7426 16.1697 42.7179 19.0181 41.1451 19.7125Z" fill="url(#paint71_linear_2_1132)"/>
<path fill-rule="evenodd" clip-rule="evenodd" d="M12.2575 16.5876C12.7018 17.7638 13.4494 19.0676 13.4494 19.0676C13.4494 19.0676 14.7471 19.7549 16.4044 20.3005C20.1423 21.5405 24.8676 22.2349 26.2217 22.8939C31.1233 25.2534 32.2517 27.4571 33.4013 29.3915C32.8935 28.116 32.4492 26.9185 30.6931 24.722C28.1541 21.5476 26.5179 20.8107 22.8717 19.4644C21.6163 18.9967 19.8673 18.3023 17.7586 17.5158C15.6428 16.7222 12.9769 15.3121 11.3407 14.2068C11.3195 14.1855 11.8908 15.6168 12.2575 16.5876Z" fill="url(#paint72_linear_2_1132)"/>
<path fill-rule="evenodd" clip-rule="evenodd" d="M36.6596 21.094C37.654 19.9674 38.4227 19.2092 40.2917 18.0968C43.7475 16.0348 49.1216 14.9153 52.6902 12.1589C55.074 10.3167 55.7299 9.38135 55.7299 9.38135C55.7299 9.38135 55.9979 10.1749 56.0261 11.1953C56.0473 11.7692 56.0896 12.3148 56.0191 12.9596C55.9485 13.5619 55.8145 14.0721 55.8004 14.0792C54.136 15.1987 51.8157 16.5096 49.6717 17.3173C47.5277 18.118 45.5177 18.8195 44.2412 19.2943C38.7472 21.3633 36.3563 24.4952 34.5579 27.7263C33.7257 29.2284 33.5141 29.4197 33.5141 29.3985C33.5212 29.3347 33.5 25.8556 33.5 25.3384C33.5423 25.3384 33.5917 25.3384 33.8315 24.9132C34.3322 24.0913 35.4113 22.5041 36.6596 21.094Z" fill="url(#paint73_linear_2_1132)"/>
<path fill-rule="evenodd" clip-rule="evenodd" d="M55.6312 14.2066C53.995 15.312 51.1457 16.637 49.0299 17.4235C46.9141 18.2171 45.6729 18.5643 44.4175 19.0249C40.8841 20.3358 38.6343 21.7033 36.0319 24.9557C34.2688 27.1522 33.9867 28.3355 33.5706 29.3134C33.5706 29.8802 33.6058 32.835 33.6058 32.835C33.6058 32.835 33.7962 32.8704 33.9373 32.6437C33.9937 32.5515 33.9443 31.6021 33.9302 30.9147C33.9161 30.3408 33.9655 30.1849 34.2688 29.6251C34.5015 29.1858 34.7766 28.6969 34.9599 28.4135C36.441 26.1035 39.2338 24.3463 41.9773 23.0283C44.3752 21.8734 47.9861 21.1081 50.384 20.3074C52.0414 19.7547 53.5648 18.9895 53.5648 18.9895C53.5648 18.9895 54.1925 18.0683 54.6438 16.8921C55.0176 15.9285 55.6523 14.1925 55.6312 14.2066Z" fill="url(#paint74_linear_2_1132)"/>
<path fill-rule="evenodd" clip-rule="evenodd" d="M32.9781 24.9629C33.2179 25.3952 33.4295 25.3527 33.5141 25.3527C33.5141 25.9904 33.5282 29.3277 33.5282 29.3915C33.5282 29.4057 33.4577 29.1789 32.6255 27.6697C29.3107 21.7106 26.1229 20.5627 23.1326 19.4361C21.8631 18.9613 19.5005 18.0473 17.3565 17.2466C15.2196 16.4388 12.8076 15.0713 11.1431 13.9588C11.0444 13.8951 11.1643 13.5479 11.1008 12.9456C11.0303 12.3008 11.0444 11.578 11.0656 11.0041C11.1008 9.98375 11.3054 9.23975 11.3054 9.23975C11.3054 9.23975 12.4126 10.8482 14.9516 12.4708C16.5031 13.4628 18.3932 14.469 20.241 15.2413C22.4838 16.1767 24.7759 17.1899 26.673 18.3165C28.5349 19.429 29.5011 20.3572 30.4956 21.4839C31.7439 22.901 32.5197 24.1197 32.9781 24.9629Z" fill="url(#paint75_linear_2_1132)"/>
<path fill-rule="evenodd" clip-rule="evenodd" d="M28.4714 19.5425C29.9878 21.1439 30.6578 21.8949 31.7086 23.9285C32.428 25.3244 32.5761 25.4307 33.4859 28.9665L33.2531 25.4803C33.2531 25.4803 31.9978 23.5034 31.2079 22.5043C30.4462 21.5407 29.3601 20.3077 28.4714 19.5425Z" fill="#444746"/>
<path d="M33.5987 32.9983C33.1826 32.9983 33.0627 32.7361 32.6748 31.8646C32.4915 31.4465 32.2376 30.8797 31.8567 30.1144C30.277 26.9542 27.4982 24.3821 24.247 23.0641C23.3442 22.6957 22.1241 22.3343 20.8335 21.9517C18.3157 21.2006 15.4523 20.3432 13.3013 19.0536L13.3647 18.9473C15.5017 20.2298 18.351 21.0801 20.8687 21.8312C22.1594 22.2209 23.3795 22.5823 24.2893 22.9507C27.5687 24.2758 30.3686 26.8691 31.9625 30.0577C32.3434 30.823 32.5973 31.3969 32.7877 31.815C33.1826 32.7078 33.2673 32.8778 33.5987 32.8778C34.0501 32.8778 34.2123 32.4243 34.5579 31.4394C34.6919 31.071 34.8541 30.6104 35.0657 30.079C36.1588 27.3793 38.2887 25.1615 41.399 23.4822C43.9026 22.1359 46.3217 21.5123 47.4924 21.2147L47.6758 21.1722C51.2374 20.2511 52.1119 19.7409 53.5647 18.8906L53.6212 18.9969C52.1613 19.8543 51.2797 20.3645 47.6969 21.2927L47.5206 21.3423C41.0181 23.0074 36.8641 25.9622 35.1785 30.1357C34.967 30.66 34.8047 31.1206 34.6707 31.489C34.3111 32.4881 34.1347 32.9983 33.5987 32.9983Z" fill="#231F20"/>
<path d="M33.5987 32.8989C33.2108 32.8989 33.0909 32.6438 32.7171 31.7865C32.5337 31.3542 32.2728 30.7732 31.8778 29.9867C30.291 26.8194 27.5122 24.2402 24.2539 22.9222C23.3653 22.5609 22.1663 22.2137 20.8969 21.8523C18.3509 21.1154 15.4734 20.2864 13.28 18.9117L13.3153 18.8621C15.4946 20.2297 18.372 21.0658 20.918 21.7956C22.1875 22.1641 23.3864 22.5113 24.2821 22.8726C27.5546 24.1977 30.3474 26.784 31.9413 29.9654C32.3362 30.752 32.5972 31.3401 32.7806 31.7723C33.1543 32.6226 33.2531 32.8493 33.6057 32.8493C34.0712 32.8493 34.2334 32.3675 34.5719 31.4109C34.7059 31.0212 34.8752 30.5394 35.1009 29.9796C36.194 27.287 38.3169 25.0692 41.42 23.397C43.9237 22.0507 46.3357 21.4272 47.5065 21.1296L47.6898 21.08C51.2796 20.1517 52.274 19.6274 53.7128 18.7842L53.748 18.8338C52.3446 19.6557 51.3008 20.2084 47.711 21.1366L47.5276 21.1862C41.011 22.8514 36.857 25.8203 35.1643 29.9938C34.9387 30.5535 34.7694 31.0354 34.6354 31.4251C34.2828 32.4029 34.1064 32.8989 33.5987 32.8989Z" fill="#6E6F72"/>
<path d="M33.5282 29.4409C33.4577 29.4409 33.3871 29.3984 33.3589 29.3275C33.3519 29.3134 32.6113 27.5703 31.1162 25.4304C30.157 24.0628 29.1626 23.1559 28.2881 22.3623L28.2317 22.3127C27.4065 21.5545 26.4191 20.7892 23.457 19.6626C22.9845 19.4855 22.3357 19.2516 21.6304 18.9895C20.0718 18.4226 18.1252 17.714 17.152 17.2818C16.5807 17.0267 16.1434 16.8354 15.7767 16.6795C14.2463 16.0206 13.9712 15.9001 11.263 14.1783C11.1784 14.1216 11.1502 14.0082 11.2066 13.9232C11.263 13.8382 11.3759 13.8098 11.4605 13.8665C14.1475 15.5742 14.4155 15.6875 15.9248 16.3394C16.2915 16.5024 16.7359 16.6937 17.3071 16.9488C18.2663 17.381 20.2058 18.0825 21.7573 18.6494C22.4697 18.9044 23.1114 19.1454 23.584 19.3225C26.6095 20.4704 27.6251 21.264 28.4785 22.0363L28.5349 22.0859C29.4235 22.8937 30.4321 23.8148 31.4124 25.2178C32.5126 26.7908 33.2108 28.1584 33.5141 28.7961C33.7962 28.1584 34.4662 26.7979 35.6792 25.1257C36.723 23.6944 37.9431 22.4119 39.2197 21.4199C40.6443 20.3074 42.3299 19.613 43.9379 19.0036C44.9464 18.621 45.7504 18.3376 46.5332 18.0612C47.9579 17.5652 49.185 17.133 51.0681 16.2686C54.136 14.8514 55.5394 13.8736 55.5536 13.8665C55.6382 13.8098 55.751 13.8311 55.8074 13.909C55.8639 13.994 55.8427 14.1074 55.7651 14.1641C55.7087 14.2066 54.3264 15.1703 51.2232 16.5945C49.3261 17.466 48.0848 17.9054 46.6531 18.4014C45.8773 18.6706 45.0733 18.954 44.0719 19.3367C42.4921 19.939 40.8347 20.6192 39.4524 21.7033C38.2041 22.674 37.0051 23.9282 35.9825 25.3383C34.3533 27.5844 33.7045 29.2992 33.6974 29.3134C33.6692 29.3913 33.6058 29.4409 33.5282 29.4409Z" fill="white"/>
<path d="M33.4859 25.4943C33.3307 25.4943 33.1544 25.3171 32.964 24.977C31.6734 22.6458 29.7409 20.4563 27.6675 18.9613C26.4191 18.0614 23.323 16.6867 20.5937 15.4822C19.7756 15.1208 18.9998 14.7807 18.3016 14.4618C16.6371 13.7037 15.3183 12.825 15.3042 12.8179L15.3747 12.7188C15.3888 12.7258 16.7006 13.6045 18.3509 14.3556C19.0491 14.6744 19.8249 15.0145 20.643 15.3759C23.3795 16.5875 26.4826 17.9622 27.745 18.8691C29.8326 20.3713 31.7791 22.5821 33.0768 24.9274C33.2602 25.2605 33.4154 25.3809 33.4929 25.3809C33.5635 25.3809 33.7257 25.2817 33.9231 24.8991C35.2349 22.327 37.5623 19.9674 39.2831 18.7699C40.9476 17.615 43.7686 16.4813 46.2582 15.4751C47.4078 15.0145 48.4939 14.5752 49.319 14.1926C50.659 13.569 51.731 12.8321 51.7381 12.825L51.8086 12.9242C51.7945 12.9313 50.7155 13.6753 49.3684 14.2989C48.5433 14.6815 47.4501 15.1208 46.3005 15.5885C43.818 16.5875 41.004 17.7213 39.3537 18.8691C37.6399 20.0595 35.3337 22.3978 34.0289 24.9558C33.8456 25.2888 33.6481 25.4943 33.4859 25.4943Z" fill="#6E6F72"/>
<path d="M33.4858 25.3668C33.3306 25.3668 33.1543 25.1896 32.9639 24.8566C31.6733 22.5254 29.7408 20.3359 27.6674 18.8408C26.419 17.9409 23.3229 16.5663 20.5936 15.3617C19.7755 15.0004 18.9997 14.6602 18.3015 14.3414C16.637 13.5832 15.4734 12.8109 15.4663 12.8038L15.5368 12.7046C15.5509 12.7117 16.7076 13.4769 18.3579 14.2351C19.0561 14.554 19.8248 14.8941 20.65 15.2554C23.3864 16.4671 26.4896 17.8417 27.752 18.7487C29.8396 20.2509 31.7861 22.4616 33.0838 24.807C33.2672 25.14 33.4223 25.2605 33.4999 25.2605C33.5704 25.2605 33.7326 25.1613 33.9301 24.7786C35.2419 22.2065 37.5693 19.847 39.2901 18.6495C40.9545 17.4945 43.7685 16.3608 46.2581 15.3617C47.4147 14.9012 48.5008 14.4618 49.326 14.0792C50.666 13.4557 51.5335 12.8534 51.5405 12.8463L51.611 12.9455C51.604 12.9526 50.7224 13.562 49.3754 14.1926C48.5502 14.5752 47.457 15.0145 46.3075 15.4822C43.8249 16.4813 41.0109 17.615 39.3606 18.7629C37.6468 19.9533 35.3406 22.2916 34.0359 24.8495C33.8455 25.1684 33.648 25.3668 33.4858 25.3668Z" fill="#231F20"/>
<path d="M33.5634 28.7536L33.4788 25.5083H33.5987L33.5634 28.7536Z" fill="white"/>
<path d="M14.6908 9.17622C16.4681 7.30559 18.6897 5.85302 21.3132 4.91062C24.5292 3.74856 28.655 3.15336 33.5637 3.15336C42.1044 3.15336 48.2543 5.17988 52.3519 9.33211C52.3589 9.33919 52.4012 9.37462 52.4506 9.41713C52.5352 9.36753 52.7045 9.20456 52.7468 9.20456C52.6974 9.15496 52.6481 9.11245 52.634 9.09828C48.4659 4.85393 42.2172 2.79199 33.5637 2.79199C28.6127 2.79199 24.4517 3.38719 21.1933 4.57051C18.471 5.55542 16.1789 7.06468 14.3523 9.01325C14.3523 9.01325 14.3241 9.02742 14.3382 9.04159C14.3523 9.06285 14.4158 9.09119 14.4581 9.11953C14.5215 9.16913 14.5921 9.22582 14.6344 9.23999C14.6414 9.23999 14.6767 9.18331 14.6908 9.17622Z" fill="white"/>
<path d="M52.4364 9.48779L52.4011 9.45944C52.3659 9.4311 52.3377 9.40276 52.3165 9.38859C52.3094 9.3815 52.3024 9.37442 52.3024 9.37442C48.2119 5.22927 42.0831 3.21693 33.5494 3.21693C28.6479 3.21693 24.5291 3.80504 21.3202 4.9671C18.7319 5.90242 16.5173 7.33373 14.726 9.21853C14.6907 9.26105 14.6625 9.30356 14.6202 9.30356H14.599C14.5567 9.28939 14.5144 9.25396 14.465 9.21853C14.4439 9.20436 14.4298 9.19019 14.4086 9.17602C14.3945 9.16185 14.3733 9.15476 14.3592 9.14059C14.3169 9.11933 14.2958 9.09807 14.2746 9.0839L14.2605 9.06264V9.02722C14.2676 8.99179 14.2958 8.97762 14.3028 8.97053C16.1506 6.99362 18.4568 5.49853 21.158 4.5207C24.4233 3.33739 28.5914 2.74219 33.5565 2.74219C42.2383 2.74219 48.4869 4.81122 52.6691 9.06973C52.6762 9.07682 52.6832 9.07682 52.6832 9.0839C52.7044 9.10516 52.7397 9.1335 52.7749 9.17602L52.8595 9.26813L52.7397 9.2823C52.7255 9.28939 52.6621 9.33899 52.6198 9.37442C52.5704 9.41693 52.514 9.46653 52.4717 9.48779H52.4364ZM33.5565 3.08939C42.1184 3.08939 48.2824 5.1159 52.3941 9.2823L52.4082 9.29647C52.4223 9.30356 52.4364 9.32482 52.4575 9.33899C52.4858 9.31773 52.521 9.28939 52.5563 9.26104C52.5915 9.2327 52.6268 9.20436 52.648 9.19019C52.6339 9.17602 52.6268 9.16893 52.6198 9.16185C52.6056 9.15476 52.5986 9.14767 52.5986 9.14059C48.4375 4.91042 42.2171 2.84847 33.5706 2.84847C28.6267 2.84847 24.4657 3.44367 21.2144 4.6199C18.5485 5.58356 16.2634 7.06447 14.4227 9.02013C14.4298 9.02013 14.4298 9.02722 14.4368 9.02722C14.458 9.04139 14.4791 9.05556 14.5003 9.06264C14.5214 9.07682 14.5426 9.09099 14.5567 9.11225C14.5779 9.1335 14.6061 9.15476 14.6272 9.16893C14.6343 9.16184 14.6343 9.16184 14.6343 9.15476C14.6413 9.14767 14.6484 9.1335 14.6554 9.1335C16.4539 7.23453 18.6896 5.79613 21.299 4.84664C24.515 3.6775 28.6408 3.08939 33.5565 3.08939Z" fill="#BDBEC0"/>
<path d="M55.4972 13.9023C55.201 14.1007 53.7975 15.0076 51.0681 16.2618C49.1851 17.1263 47.9579 17.5585 46.5333 18.0545C45.7505 18.3308 44.9465 18.6143 43.9379 18.9969C42.337 19.6134 40.6514 20.3007 39.2197 21.4131C37.9503 22.4051 36.7231 23.6876 35.6793 25.119C34.4663 26.7912 33.7963 28.1516 33.5141 28.7894C33.2109 28.1516 32.5127 26.7841 31.4125 25.2111C30.4321 23.8081 29.4236 22.894 28.535 22.0792L28.4786 22.0296C27.6252 21.2502 26.6096 20.4566 23.584 19.3158C23.1115 19.1386 22.4556 18.8977 21.7574 18.6426C20.1988 18.0758 18.2664 17.3743 17.3001 16.942C16.7289 16.687 16.2775 16.4956 15.9178 16.3327C14.4297 15.6879 14.1476 15.5674 11.5452 13.9164C11.2772 13.7464 11.1503 13.8456 11.0515 14.0794C9.94426 16.687 9.35889 19.6913 9.35889 23.0003C9.35889 29.5475 11.2349 34.5996 14.9234 38.015C17.6739 40.5587 21.3484 42.1459 25.8409 42.7411C28.7254 43.1238 31.1868 43.3009 33.5776 43.3009C35.7498 43.3009 37.8586 43.1521 40.2141 42.8332C48.1625 41.7562 57.6412 37.441 57.6412 22.972C57.6412 19.5567 57.0981 16.6019 55.9979 14.0582C55.871 13.8031 55.6735 13.7889 55.4972 13.9023ZM40.1577 42.4931C37.8233 42.812 35.7287 42.9537 33.5706 42.9537C31.2009 42.9537 28.7536 42.7766 25.8832 42.3939C18.5061 41.4161 9.71152 37.2568 9.71152 23.0074C9.71152 19.7551 10.2828 16.8074 11.3689 14.2495C13.9643 15.8934 14.2605 16.0209 15.7627 16.6728C16.1224 16.8287 16.5737 17.0271 17.1379 17.2751C18.1112 17.7073 20.0577 18.4159 21.6164 18.9827C22.3146 19.2378 22.9705 19.4716 23.443 19.6559C26.4051 20.7754 27.3925 21.5478 28.2176 22.3059L28.2811 22.3555C29.1556 23.1491 30.143 24.0561 31.1092 25.4236C32.6044 27.5564 33.3449 29.2995 33.3519 29.3208C33.3801 29.3846 33.4436 29.4342 33.5212 29.4342C33.5988 29.4342 33.6623 29.3846 33.6905 29.3137C33.6975 29.2995 34.3393 27.5777 35.9685 25.3315C36.9911 23.9286 38.19 22.6673 39.4384 21.6966C40.8277 20.6124 42.4851 19.9322 44.0578 19.3299C45.0593 18.9473 45.8633 18.6639 46.6461 18.3946C48.0778 17.8915 49.312 17.4593 51.2163 16.5878C53.8892 15.3548 55.2856 14.4691 55.6594 14.2211C56.7385 16.7153 57.2674 19.6204 57.2674 22.9791C57.2674 37.2001 47.965 41.4374 40.1577 42.4931Z" fill="white"/>
<path d="M33.5776 43.0171C31.2008 43.0171 28.7606 42.84 25.8832 42.4573C18.485 41.4724 9.66211 37.306 9.66211 23.0141C9.66211 19.7901 10.2193 16.8354 11.3265 14.2279L11.3547 14.1641L11.4112 14.1995C14.0065 15.8434 14.2816 15.9639 15.7979 16.6228C16.1576 16.7787 16.6019 16.97 17.1732 17.2251C18.1464 17.6573 20.0859 18.3659 21.6445 18.9328C22.3357 19.1879 22.9986 19.4217 23.4712 19.6059C26.4474 20.7325 27.4347 21.5049 28.267 22.2631L28.3234 22.3197C29.1979 23.1204 30.1923 24.0203 31.1585 25.402C32.6678 27.5632 33.4013 29.2921 33.4083 29.3063C33.4224 29.3488 33.4718 29.3771 33.5212 29.3771C33.5705 29.3771 33.6128 29.3417 33.634 29.2992C33.6411 29.285 34.2758 27.5703 35.9191 25.3099C36.9417 23.8999 38.1477 22.6386 39.396 21.6608C40.7924 20.5767 42.4498 19.8893 44.0366 19.2871C45.0381 18.9044 45.8492 18.621 46.625 18.3447C48.0566 17.8416 49.2908 17.4093 51.188 16.5378C53.861 15.3049 55.2574 14.4192 55.6241 14.1783L55.6805 14.1357L55.7087 14.1995C56.7948 16.7149 57.3238 19.5847 57.3238 22.9858C57.3238 37.2352 47.9861 41.4937 40.1577 42.5495C37.8303 42.8683 35.7357 43.0171 33.5776 43.0171ZM11.4112 14.3412C10.3321 16.9133 9.782 19.8256 9.782 23.0141C9.782 37.2139 18.5484 41.3591 25.8973 42.3369C28.7677 42.7195 31.2079 42.8967 33.5776 42.8967C35.7357 42.8967 37.8233 42.7479 40.1506 42.4361C47.9297 41.3874 57.211 37.1572 57.211 22.9929C57.211 19.6413 56.6961 16.8071 55.6382 14.3271C55.1939 14.6176 53.8045 15.482 51.2515 16.6583C49.3543 17.5369 48.1131 17.9691 46.6814 18.4651C45.9056 18.7415 45.1016 19.0178 44.1001 19.4004C42.5274 20.0027 40.87 20.6829 39.4947 21.76C38.2535 22.7236 37.0616 23.9778 36.039 25.3808C34.4098 27.6199 33.768 29.3275 33.768 29.3417C33.7327 29.4338 33.6481 29.4976 33.5423 29.4976C33.4365 29.4976 33.3519 29.4409 33.3166 29.3488C33.3096 29.3346 32.5832 27.6128 31.081 25.4658C30.1218 24.0983 29.1344 23.1984 28.267 22.4048L28.2105 22.3481C27.3854 21.597 26.4051 20.8317 23.45 19.7122C22.9775 19.5351 22.3216 19.2941 21.6234 19.0391C20.0647 18.4722 18.1182 17.7636 17.1379 17.3243C16.5666 17.0692 16.1153 16.8779 15.7626 16.722C14.2745 16.0985 13.9572 15.9568 11.4112 14.3412Z" fill="url(#paint76_linear_2_1132)" fill-opacity="0.8"/>
<path d="M53.7199 18.784C53.7129 18.784 53.7129 18.784 53.7058 18.7769C53.6917 18.7699 53.6847 18.7486 53.6917 18.7344C53.6988 18.7203 54.3758 17.4661 54.672 16.7788C54.9612 16.0915 55.5959 14.3271 55.603 14.3059C55.61 14.2917 55.6242 14.2775 55.6383 14.2846C55.6524 14.2917 55.6594 14.3059 55.6594 14.32C55.6524 14.3413 55.0176 16.1056 54.7285 16.7929C54.4323 17.4873 53.7552 18.7415 53.7482 18.7557C53.7411 18.7769 53.734 18.784 53.7199 18.784Z" fill="#424143"/>
<path fill-rule="evenodd" clip-rule="evenodd" d="M11.2419 9.3954C11.2912 9.18283 11.3476 9.21117 11.3124 9.38831C11.1925 9.95517 11.1572 11.0393 11.1784 12.1447C11.1925 12.9383 11.3547 13.7815 11.3547 13.7815C11.256 13.7744 11.1079 13.8027 11.0655 13.9373C10.9315 12.669 10.8399 11.1739 11.2419 9.3954Z" fill="url(#paint77_linear_2_1132)"/>
<path fill-rule="evenodd" clip-rule="evenodd" d="M55.8215 9.58669C55.7721 9.37412 55.7368 9.38121 55.7721 9.55835C55.892 10.1252 55.9555 11.181 55.9484 12.2863C55.9413 13.0799 55.8215 13.8665 55.8215 13.8665C55.8215 13.8665 55.9766 13.9798 56.033 14.1641C56.2305 12.2084 56.0753 10.7204 55.8215 9.58669Z" fill="#D2D3D4"/>
<path fill-rule="evenodd" clip-rule="evenodd" d="M53.8468 11.1883L51.7098 12.8605L50.927 11.6134C51.4418 10.8978 52.26 9.62944 52.3587 9.49482C52.4574 9.36019 52.7043 9.17596 52.9088 9.1051C53.1133 9.03424 54.0161 8.61619 54.7425 8.33984L55.6734 9.4027L53.8468 11.1883Z" fill="url(#paint78_linear_2_1132)"/>
<path fill-rule="evenodd" clip-rule="evenodd" d="M13.2026 11.0252L15.3396 12.6974L16.1224 11.4504C15.6076 10.7347 14.7894 9.46636 14.6907 9.33173C14.592 9.1971 14.3451 9.01287 14.1406 8.94201C13.9361 8.87116 13.0333 8.4531 12.3069 8.17676L11.376 9.23961L13.2026 11.0252Z" fill="url(#paint79_linear_2_1132)"/>
<path fill-rule="evenodd" clip-rule="evenodd" d="M16.1717 11.4787C16.1717 11.4787 15.8685 11.9321 15.7274 12.1518C15.5864 12.3715 15.3113 12.8108 15.3113 12.8108C15.3113 12.8108 14.0489 11.9392 13.0192 11.0252C12.0671 10.182 11.6581 9.6718 11.3054 9.23957C11.4888 9.027 12.2434 8.2334 12.2434 8.2334C12.2434 8.2334 12.1941 8.30426 12.3563 8.49557C12.8711 9.09786 14.9234 10.848 15.7838 11.4078C16.0025 11.5495 16.1717 11.4787 16.1717 11.4787Z" fill="url(#paint80_linear_2_1132)"/>
<path d="M54.7425 8.33278C54.3828 8.46033 53.1839 8.91381 52.9088 9.0201C52.7819 9.0697 52.5985 9.05553 52.4856 8.94924C48.3175 4.8041 42.1183 2.78467 33.5564 2.78467C28.6054 2.78467 24.4444 3.37987 21.1861 4.56318C18.5836 5.50558 16.3691 6.92981 14.5848 8.75793C14.5143 8.83587 14.3873 8.89255 14.2815 8.85713C14.1193 8.80044 12.7229 8.33987 12.3209 8.16272L12.2856 8.19815C12.6171 8.33987 13.9642 8.95633 14.1475 9.0201C14.345 9.08387 14.5777 9.2681 14.6694 9.38855C14.7329 9.48067 16.1857 11.4718 16.1857 11.4718L16.2069 11.4434C16.2069 11.4434 15.1702 9.89873 14.8528 9.43815C14.747 9.28227 14.74 9.1193 14.8528 9.00593C16.6019 7.21324 18.767 5.82444 21.313 4.9033C24.529 3.74124 28.6548 3.14604 33.5634 3.14604C42.0054 3.14604 48.1201 5.12295 52.2176 9.18307C52.3446 9.31061 52.3375 9.43107 52.267 9.55153C52.1118 9.79244 51.2514 11.1883 50.9411 11.6347L50.9552 11.6631C51.2937 11.1812 52.394 9.57987 52.4222 9.53735C52.5139 9.4169 52.7536 9.25392 52.9441 9.1689C53.0357 9.13347 54.404 8.53118 54.7707 8.35404L54.7425 8.33278Z" fill="white"/>
<path fill-rule="evenodd" clip-rule="evenodd" d="M50.927 11.6557L51.7663 12.9453C51.7663 12.9453 53.0146 12.1163 54.0443 11.2023C54.9964 10.3591 54.9611 10.3165 55.7581 9.41666L54.7989 8.3042C54.7989 8.3042 54.8412 8.48843 54.6296 8.72934C54.1218 9.31746 52.1683 11.018 51.3078 11.5707C51.0751 11.7195 50.927 11.6557 50.927 11.6557Z" fill="url(#paint81_linear_2_1132)"/>
<path d="M13.3224 18.8407C13.3153 18.8407 13.3012 18.8336 13.2942 18.8265C13.2871 18.8124 12.603 17.5582 12.3138 16.8638C12.0176 16.1694 11.3899 14.405 11.3829 14.3909C11.3758 14.3767 11.3829 14.3554 11.397 14.3484C11.4111 14.3413 11.4323 14.3484 11.4393 14.3696C11.4464 14.3838 12.0741 16.1481 12.3703 16.8425C12.6665 17.5298 13.3435 18.784 13.3506 18.7982C13.3576 18.8124 13.3506 18.8336 13.3365 18.8407C13.3365 18.8407 13.3294 18.8407 13.3224 18.8407Z" fill="#424143"/>
<defs>
<linearGradient id="paint0_linear_2_1132" x1="60.0471" y1="60.1619" x2="60.0471" y2="50.6935" gradientUnits="userSpaceOnUse">
<stop offset="0.1"/>
<stop offset="0.9" stop-color="#666666"/>
</linearGradient>
<linearGradient id="paint1_linear_2_1132" x1="59.6056" y1="60.1673" x2="59.6056" y2="50.6939" gradientUnits="userSpaceOnUse">
<stop offset="0.15" stop-color="#1A1A1A"/>
<stop offset="0.45" stop-color="#666666"/>
<stop offset="0.75" stop-color="#B3B3B3"/>
<stop offset="1" stop-color="#666666"/>
</linearGradient>
<linearGradient id="paint2_linear_2_1132" x1="59.6144" y1="60.163" x2="59.6144" y2="50.6939" gradientUnits="userSpaceOnUse">
<stop offset="0.15" stop-color="#1A1A1A"/>
<stop offset="0.45" stop-color="#666666"/>
<stop offset="0.75" stop-color="#B3B3B3"/>
<stop offset="1" stop-color="#666666"/>
</linearGradient>
<linearGradient id="paint3_linear_2_1132" x1="9.5136" y1="60.1668" x2="9.5136" y2="50.6935" gradientUnits="userSpaceOnUse">
<stop offset="0.15" stop-color="#1A1A1A"/>
<stop offset="0.45" stop-color="#666666"/>
<stop offset="0.75" stop-color="#B3B3B3"/>
<stop offset="1" stop-color="#666666"/>
</linearGradient>
<linearGradient id="paint4_linear_2_1132" x1="9.5136" y1="60.1659" x2="9.5136" y2="50.859" gradientUnits="userSpaceOnUse">
<stop offset="0.1"/>
<stop offset="0.9" stop-color="#666666"/>
</linearGradient>
<linearGradient id="paint5_linear_2_1132" x1="12.6958" y1="60.1659" x2="12.6958" y2="52.8221" gradientUnits="userSpaceOnUse">
<stop offset="0.1" stop-color="#1A1A1A"/>
<stop offset="0.5" stop-color="#4D4D4D"/>
<stop offset="0.9" stop-color="#1A1A1A"/>
</linearGradient>
<linearGradient id="paint6_linear_2_1132" x1="9.49258" y1="60.1665" x2="9.49258" y2="52.8296" gradientUnits="userSpaceOnUse">
<stop offset="0.1"/>
<stop offset="0.5" stop-color="#666666"/>
<stop offset="0.9" stop-color="#999999"/>
</linearGradient>
<linearGradient id="paint7_linear_2_1132" x1="8.41591" y1="60.1665" x2="8.41591" y2="52.8341" gradientUnits="userSpaceOnUse">
<stop offset="0.1" stop-color="#1A1A1A"/>
<stop offset="0.5" stop-color="#4D4D4D"/>
<stop offset="0.9" stop-color="#999999"/>
</linearGradient>
<linearGradient id="paint8_linear_2_1132" x1="3.11285" y1="60.167" x2="3.11285" y2="52.847" gradientUnits="userSpaceOnUse">
<stop offset="0.1"/>
<stop offset="0.5" stop-color="#666666"/>
<stop offset="0.9"/>
</linearGradient>
<linearGradient id="paint9_linear_2_1132" x1="59.6143" y1="60.163" x2="59.6143" y2="54.0533" gradientUnits="userSpaceOnUse">
<stop offset="0.1"/>
<stop offset="0.9" stop-color="#8C8C8C"/>
</linearGradient>
<linearGradient id="paint10_linear_2_1132" x1="58.9626" y1="54.5849" x2="58.9626" y2="52.4328" gradientUnits="userSpaceOnUse">
<stop offset="0.1047" stop-color="#262626"/>
<stop offset="0.9" stop-color="#1A1A1A"/>
</linearGradient>
<linearGradient id="paint11_linear_2_1132" x1="62.8587" y1="58.421" x2="62.8587" y2="55.7177" gradientUnits="userSpaceOnUse">
<stop offset="0.1" stop-color="#4D4D4D"/>
<stop offset="0.9"/>
</linearGradient>
<linearGradient id="paint12_linear_2_1132" x1="59.6053" y1="58.4251" x2="59.6053" y2="55.7179" gradientUnits="userSpaceOnUse">
<stop offset="0.1" stop-color="#D9D9D9"/>
<stop offset="0.1768" stop-color="#A6A6A6"/>
<stop offset="0.2688" stop-color="#6F6F6F"/>
<stop offset="0.3484" stop-color="#484848"/>
<stop offset="0.4114" stop-color="#2F2F2F"/>
<stop offset="0.45" stop-color="#262626"/>
<stop offset="0.9"/>
</linearGradient>
<linearGradient id="paint13_linear_2_1132" x1="44.9337" y1="134.405" x2="44.9337" y2="-31.8233" gradientUnits="userSpaceOnUse">
<stop offset="0.15" stop-color="#1A1A1A"/>
<stop offset="0.45" stop-color="#666666"/>
<stop offset="0.75" stop-color="#B3B3B3"/>
<stop offset="1" stop-color="#666666"/>
</linearGradient>
<linearGradient id="paint14_linear_2_1132" x1="42.2581" y1="60.1639" x2="42.2581" y2="50.5506" gradientUnits="userSpaceOnUse">
<stop offset="0.15" stop-color="#1A1A1A"/>
<stop offset="0.45" stop-color="#666666"/>
<stop offset="0.75" stop-color="#B3B3B3"/>
<stop offset="1" stop-color="#666666"/>
</linearGradient>
<linearGradient id="paint15_linear_2_1132" x1="19.0173" y1="60.1655" x2="19.0173" y2="50.6335" gradientUnits="userSpaceOnUse">
<stop offset="0.15" stop-color="#1A1A1A"/>
<stop offset="0.45" stop-color="#666666"/>
<stop offset="0.75" stop-color="#B3B3B3"/>
<stop offset="1" stop-color="#666666"/>
</linearGradient>
<linearGradient id="paint16_linear_2_1132" x1="28.8903" y1="60.1653" x2="28.8903" y2="50.5971" gradientUnits="userSpaceOnUse">
<stop offset="0.15" stop-color="#1A1A1A"/>
<stop offset="0.45" stop-color="#666666"/>
<stop offset="0.75" stop-color="#B3B3B3"/>
<stop offset="1" stop-color="#666666"/>
</linearGradient>
<linearGradient id="paint17_linear_2_1132" x1="22.0733" y1="60.5078" x2="22.0733" y2="50.6031" gradientUnits="userSpaceOnUse">
<stop offset="0.15" stop-color="#1A1A1A"/>
<stop offset="0.45" stop-color="#666666"/>
<stop offset="0.75" stop-color="#B3B3B3"/>
<stop offset="1" stop-color="#666666"/>
</linearGradient>
<linearGradient id="paint18_linear_2_1132" x1="27.2327" y1="60.1444" x2="27.2327" y2="50.6108" gradientUnits="userSpaceOnUse">
<stop offset="0.15" stop-color="#1A1A1A"/>
<stop offset="0.45" stop-color="#666666"/>
<stop offset="0.75" stop-color="#B3B3B3"/>
<stop offset="1" stop-color="#666666"/>
</linearGradient>
<linearGradient id="paint19_linear_2_1132" x1="23.9914" y1="59.5165" x2="23.9914" y2="50.8172" gradientUnits="userSpaceOnUse">
<stop offset="0.1"/>
<stop offset="0.9" stop-color="#666666"/>
</linearGradient>
<linearGradient id="paint20_linear_2_1132" x1="24.4321" y1="60.1655" x2="24.4321" y2="54.1345" gradientUnits="userSpaceOnUse">
<stop offset="0.1"/>
<stop offset="0.9" stop-color="#666666"/>
</linearGradient>
<linearGradient id="paint21_linear_2_1132" x1="22.9101" y1="60.1527" x2="22.9101" y2="50.6139" gradientUnits="userSpaceOnUse">
<stop offset="0.15" stop-color="#1A1A1A"/>
<stop offset="0.45" stop-color="#666666"/>
<stop offset="0.75" stop-color="#B3B3B3"/>
<stop offset="1" stop-color="#666666"/>
</linearGradient>
<linearGradient id="paint22_linear_2_1132" x1="22.9101" y1="54.6598" x2="22.9101" y2="52.5348" gradientUnits="userSpaceOnUse">
<stop offset="0.1047" stop-color="#262626"/>
<stop offset="0.9" stop-color="#1A1A1A"/>
</linearGradient>
<linearGradient id="paint23_linear_2_1132" x1="26.8015" y1="60.1652" x2="26.8015" y2="50.6045" gradientUnits="userSpaceOnUse">
<stop offset="0.15" stop-color="#1A1A1A"/>
<stop offset="0.45" stop-color="#666666"/>
<stop offset="0.75" stop-color="#B3B3B3"/>
<stop offset="1" stop-color="#666666"/>
</linearGradient>
<linearGradient id="paint24_linear_2_1132" x1="26.8015" y1="58.4467" x2="26.8015" y2="55.7782" gradientUnits="userSpaceOnUse">
<stop offset="0.1" stop-color="#4D4D4D"/>
<stop offset="0.9"/>
</linearGradient>
<linearGradient id="paint25_linear_2_1132" x1="23.545" y1="60.1715" x2="23.545" y2="50.5971" gradientUnits="userSpaceOnUse">
<stop offset="0.15" stop-color="#1A1A1A"/>
<stop offset="0.45" stop-color="#666666"/>
<stop offset="0.75" stop-color="#B3B3B3"/>
<stop offset="1" stop-color="#666666"/>
</linearGradient>
<linearGradient id="paint26_linear_2_1132" x1="23.545" y1="58.4505" x2="23.545" y2="55.7782" gradientUnits="userSpaceOnUse">
<stop offset="0.1" stop-color="#D9D9D9"/>
<stop offset="0.1768" stop-color="#A6A6A6"/>
<stop offset="0.2688" stop-color="#6F6F6F"/>
<stop offset="0.3484" stop-color="#484848"/>
<stop offset="0.4114" stop-color="#2F2F2F"/>
<stop offset="0.45" stop-color="#262626"/>
<stop offset="0.9"/>
</linearGradient>
<linearGradient id="paint27_linear_2_1132" x1="47.7188" y1="60.1674" x2="47.7188" y2="50.5307" gradientUnits="userSpaceOnUse">
<stop offset="0.15" stop-color="#1A1A1A"/>
<stop offset="0.45" stop-color="#666666"/>
<stop offset="0.75" stop-color="#B3B3B3"/>
<stop offset="1" stop-color="#666666"/>
</linearGradient>
<linearGradient id="paint28_linear_2_1132" x1="47.7188" y1="58.2252" x2="47.7188" y2="52.6815" gradientUnits="userSpaceOnUse">
<stop offset="0.1" stop-color="#D9D9D9"/>
<stop offset="0.1768" stop-color="#A6A6A6"/>
<stop offset="0.2688" stop-color="#6F6F6F"/>
<stop offset="0.3484" stop-color="#484848"/>
<stop offset="0.4114" stop-color="#2F2F2F"/>
<stop offset="0.45" stop-color="#262626"/>
<stop offset="0.9047" stop-color="#1A1A1A"/>
</linearGradient>
<linearGradient id="paint29_linear_2_1132" x1="44.3334" y1="60.1639" x2="44.3334" y2="50.5453" gradientUnits="userSpaceOnUse">
<stop offset="0.15" stop-color="#1A1A1A"/>
<stop offset="0.45" stop-color="#666666"/>
<stop offset="0.75" stop-color="#B3B3B3"/>
<stop offset="1" stop-color="#666666"/>
</linearGradient>
<linearGradient id="paint30_linear_2_1132" x1="44.3334" y1="58.2254" x2="44.3334" y2="52.692" gradientUnits="userSpaceOnUse">
<stop offset="0.1" stop-color="#4D4D4D"/>
<stop offset="0.9"/>
</linearGradient>
<linearGradient id="paint31_linear_2_1132" x1="34.3863" y1="60.5814" x2="34.3863" y2="50.5562" gradientUnits="userSpaceOnUse">
<stop offset="0.15" stop-color="#1A1A1A"/>
<stop offset="0.45" stop-color="#666666"/>
<stop offset="0.75" stop-color="#B3B3B3"/>
<stop offset="1" stop-color="#666666"/>
</linearGradient>
<linearGradient id="paint32_linear_2_1132" x1="30.732" y1="60.165" x2="30.732" y2="50.5929" gradientUnits="userSpaceOnUse">
<stop offset="0.15" stop-color="#1A1A1A"/>
<stop offset="0.45" stop-color="#666666"/>
<stop offset="0.75" stop-color="#B3B3B3"/>
<stop offset="1" stop-color="#666666"/>
</linearGradient>
<linearGradient id="paint33_linear_2_1132" x1="34.7239" y1="60.1644" x2="34.7239" y2="50.5708" gradientUnits="userSpaceOnUse">
<stop offset="0.15" stop-color="#1A1A1A"/>
<stop offset="0.45" stop-color="#666666"/>
<stop offset="0.75" stop-color="#B3B3B3"/>
<stop offset="1" stop-color="#666666"/>
</linearGradient>
<linearGradient id="paint34_linear_2_1132" x1="34.7239" y1="60.1644" x2="34.7239" y2="57.703" gradientUnits="userSpaceOnUse">
<stop offset="0.2264" stop-color="#999999"/>
<stop offset="0.7753" stop-color="#C5C5C5"/>
<stop offset="1" stop-color="#D9D9D9"/>
</linearGradient>
<linearGradient id="paint35_linear_2_1132" x1="38.5488" y1="60.176" x2="38.5488" y2="50.5225" gradientUnits="userSpaceOnUse">
<stop offset="0.15" stop-color="#1A1A1A"/>
<stop offset="0.45" stop-color="#666666"/>
<stop offset="0.75" stop-color="#B3B3B3"/>
<stop offset="1" stop-color="#666666"/>
</linearGradient>
<linearGradient id="paint36_linear_2_1132" x1="38.5488" y1="60.1757" x2="38.5488" y2="57.699" gradientUnits="userSpaceOnUse">
<stop offset="0.2264" stop-color="#999999"/>
<stop offset="0.7753" stop-color="#C5C5C5"/>
<stop offset="1" stop-color="#D9D9D9"/>
</linearGradient>
<linearGradient id="paint37_linear_2_1132" x1="36.7863" y1="60.1642" x2="36.7863" y2="50.5545" gradientUnits="userSpaceOnUse">
<stop offset="0.15" stop-color="#1A1A1A"/>
<stop offset="0.45" stop-color="#666666"/>
<stop offset="0.75" stop-color="#B3B3B3"/>
<stop offset="1" stop-color="#666666"/>
</linearGradient>
<linearGradient id="paint38_linear_2_1132" x1="36.7863" y1="60.1642" x2="36.7863" y2="57.699" gradientUnits="userSpaceOnUse">
<stop offset="0.1"/>
<stop offset="0.9" stop-color="#666666"/>
</linearGradient>
<linearGradient id="paint39_linear_2_1132" x1="34.4874" y1="60.7426" x2="34.4874" y2="50.5775" gradientUnits="userSpaceOnUse">
<stop offset="0.15" stop-color="#1A1A1A"/>
<stop offset="0.45" stop-color="#666666"/>
<stop offset="0.75" stop-color="#B3B3B3"/>
<stop offset="1" stop-color="#666666"/>
</linearGradient>
<linearGradient id="paint40_linear_2_1132" x1="34.4874" y1="60.0536" x2="34.4874" y2="50.7977" gradientUnits="userSpaceOnUse">
<stop offset="0.2264" stop-color="#B3B3B3"/>
<stop offset="0.9039" stop-color="#DFDFDF"/>
<stop offset="1" stop-color="#E6E6E6"/>
</linearGradient>
<linearGradient id="paint41_linear_2_1132" x1="36.6337" y1="60.1645" x2="36.6337" y2="50.871" gradientUnits="userSpaceOnUse">
<stop offset="0.1"/>
<stop offset="0.5" stop-color="#666666"/>
<stop offset="0.9" stop-color="#1A1A1A"/>
</linearGradient>
<linearGradient id="paint42_linear_2_1132" x1="46.8677" y1="60.1641" x2="46.8677" y2="50.7394" gradientUnits="userSpaceOnUse">
<stop offset="0.1"/>
<stop offset="0.9" stop-color="#666666"/>
</linearGradient>
<linearGradient id="paint43_linear_2_1132" x1="47.7235" y1="59.5287" x2="47.7235" y2="51.1802" gradientUnits="userSpaceOnUse">
<stop stop-color="#B5B5B5"/>
<stop offset="0.1138" stop-color="#A2A2A2"/>
<stop offset="0.2" stop-color="#999999"/>
<stop offset="0.3141" stop-color="#909090"/>
<stop offset="0.39" stop-color="#878787"/>
<stop offset="0.4" stop-color="#B3B3B3"/>
<stop offset="0.527" stop-color="#CFCFCF"/>
<stop offset="0.7" stop-color="#F2F2F2"/>
<stop offset="0.8212" stop-color="#E9E9E9"/>
<stop offset="1" stop-color="#D4D4D4"/>
</linearGradient>
<linearGradient id="paint44_linear_2_1132" x1="23.5494" y1="59.5354" x2="23.5494" y2="51.2548" gradientUnits="userSpaceOnUse">
<stop stop-color="#B5B5B5"/>
<stop offset="0.1138" stop-color="#A2A2A2"/>
<stop offset="0.2" stop-color="#999999"/>
<stop offset="0.3141" stop-color="#909090"/>
<stop offset="0.39" stop-color="#878787"/>
<stop offset="0.4" stop-color="#B3B3B3"/>
<stop offset="0.527" stop-color="#CFCFCF"/>
<stop offset="0.7" stop-color="#F2F2F2"/>
<stop offset="0.8212" stop-color="#E9E9E9"/>
<stop offset="1" stop-color="#D4D4D4"/>
</linearGradient>
<linearGradient id="paint45_linear_2_1132" x1="33.6546" y1="59.6262" x2="33.6546" y2="51.2168" gradientUnits="userSpaceOnUse">
<stop stop-color="#B5B5B5"/>
<stop offset="0.1138" stop-color="#A2A2A2"/>
<stop offset="0.2" stop-color="#999999"/>
<stop offset="0.3141" stop-color="#909090"/>
<stop offset="0.39" stop-color="#878787"/>
<stop offset="0.4" stop-color="#B3B3B3"/>
<stop offset="0.527" stop-color="#CFCFCF"/>
<stop offset="0.7" stop-color="#F2F2F2"/>
<stop offset="0.8212" stop-color="#E9E9E9"/>
<stop offset="1" stop-color="#D4D4D4"/>
</linearGradient>
<linearGradient id="paint46_linear_2_1132" x1="37.4772" y1="59.5309" x2="37.4772" y2="51.1987" gradientUnits="userSpaceOnUse">
<stop stop-color="#B5B5B5"/>
<stop offset="0.1138" stop-color="#A2A2A2"/>
<stop offset="0.2" stop-color="#999999"/>
<stop offset="0.3141" stop-color="#909090"/>
<stop offset="0.39" stop-color="#878787"/>
<stop offset="0.4" stop-color="#B3B3B3"/>
<stop offset="0.527" stop-color="#CFCFCF"/>
<stop offset="0.7" stop-color="#F2F2F2"/>
<stop offset="0.8212" stop-color="#E9E9E9"/>
<stop offset="1" stop-color="#D4D4D4"/>
</linearGradient>
<linearGradient id="paint47_linear_2_1132" x1="9.51024" y1="59.5409" x2="9.51024" y2="51.332" gradientUnits="userSpaceOnUse">
<stop stop-color="#B5B5B5"/>
<stop offset="0.1138" stop-color="#A2A2A2"/>
<stop offset="0.2" stop-color="#999999"/>
<stop offset="0.3141" stop-color="#909090"/>
<stop offset="0.39" stop-color="#878787"/>
<stop offset="0.4" stop-color="#B3B3B3"/>
<stop offset="0.527" stop-color="#CFCFCF"/>
<stop offset="0.7" stop-color="#F2F2F2"/>
<stop offset="0.8212" stop-color="#E9E9E9"/>
<stop offset="1" stop-color="#D4D4D4"/>
</linearGradient>
<linearGradient id="paint48_linear_2_1132" x1="59.6114" y1="59.5413" x2="59.6114" y2="51.3324" gradientUnits="userSpaceOnUse">
<stop stop-color="#B5B5B5"/>
<stop offset="0.1138" stop-color="#A2A2A2"/>
<stop offset="0.2" stop-color="#999999"/>
<stop offset="0.3141" stop-color="#909090"/>
<stop offset="0.39" stop-color="#878787"/>
<stop offset="0.4" stop-color="#B3B3B3"/>
<stop offset="0.527" stop-color="#CFCFCF"/>
<stop offset="0.7" stop-color="#F2F2F2"/>
<stop offset="0.8212" stop-color="#E9E9E9"/>
<stop offset="1" stop-color="#D4D4D4"/>
</linearGradient>
<linearGradient id="paint49_linear_2_1132" x1="35.5694" y1="59.5354" x2="35.5694" y2="51.2004" gradientUnits="userSpaceOnUse">
<stop stop-color="#B5B5B5"/>
<stop offset="0.1138" stop-color="#A2A2A2"/>
<stop offset="0.2" stop-color="#999999"/>
<stop offset="0.3141" stop-color="#909090"/>
<stop offset="0.39" stop-color="#878787"/>
<stop offset="0.4" stop-color="#B3B3B3"/>
<stop offset="0.527" stop-color="#CFCFCF"/>
<stop offset="0.7" stop-color="#F2F2F2"/>
<stop offset="0.8212" stop-color="#E9E9E9"/>
<stop offset="1" stop-color="#D4D4D4"/>
</linearGradient>
<linearGradient id="paint50_linear_2_1132" x1="60.0452" y1="60.1671" x2="60.0452" y2="50.6859" gradientUnits="userSpaceOnUse">
<stop offset="0.1"/>
<stop offset="0.9" stop-color="#666666"/>
</linearGradient>
<linearGradient id="paint51_linear_2_1132" x1="24.4321" y1="60.1672" x2="24.4321" y2="54.1347" gradientUnits="userSpaceOnUse">
<stop offset="0.1"/>
<stop offset="0.9" stop-color="#8C8C8C"/>
</linearGradient>
<linearGradient id="paint52_linear_2_1132" x1="13.5869" y1="50.344" x2="17.6457" y2="54.3839" gradientUnits="userSpaceOnUse">
<stop offset="0.1" stop-color="white" stop-opacity="0"/>
<stop offset="0.4" stop-color="white"/>
<stop offset="0.6" stop-color="white"/>
<stop offset="0.9" stop-color="white" stop-opacity="0"/>
</linearGradient>
<linearGradient id="paint53_linear_2_1132" x1="61.8513" y1="50.1979" x2="65.4572" y2="53.787" gradientUnits="userSpaceOnUse">
<stop offset="0.1" stop-color="white" stop-opacity="0"/>
<stop offset="0.4" stop-color="white"/>
<stop offset="0.6" stop-color="white"/>
<stop offset="0.9" stop-color="white" stop-opacity="0"/>
</linearGradient>
<linearGradient id="paint54_linear_2_1132" x1="53.9068" y1="57.0082" x2="57.1812" y2="53.7491" gradientUnits="userSpaceOnUse">
<stop offset="0.1" stop-color="white" stop-opacity="0"/>
<stop offset="0.4" stop-color="white"/>
<stop offset="0.6" stop-color="white"/>
<stop offset="0.9" stop-color="white" stop-opacity="0"/>
</linearGradient>
<linearGradient id="paint55_linear_2_1132" x1="25.8118" y1="50.3177" x2="29.3945" y2="53.8836" gradientUnits="userSpaceOnUse">
<stop offset="0.1" stop-color="white" stop-opacity="0"/>
<stop offset="0.4" stop-color="white"/>
<stop offset="0.6" stop-color="white"/>
<stop offset="0.9" stop-color="white" stop-opacity="0"/>
</linearGradient>
<linearGradient id="paint56_linear_2_1132" x1="17.8621" y1="57.0686" x2="21.1214" y2="53.8245" gradientUnits="userSpaceOnUse">
<stop offset="0.1" stop-color="white" stop-opacity="0"/>
<stop offset="0.4" stop-color="white"/>
<stop offset="0.6" stop-color="white"/>
<stop offset="0.9" stop-color="white" stop-opacity="0"/>
</linearGradient>
<linearGradient id="paint57_linear_2_1132" x1="48.7844" y1="50.0259" x2="53.8371" y2="55.055" gradientUnits="userSpaceOnUse">
<stop offset="0.1" stop-color="white" stop-opacity="0"/>
<stop offset="0.4" stop-color="white"/>
<stop offset="0.6" stop-color="white"/>
<stop offset="0.9" stop-color="white" stop-opacity="0"/>
</linearGradient>
<linearGradient id="paint58_linear_2_1132" x1="28.2273" y1="2.72685" x2="39.0868" y2="43.0657" gradientUnits="userSpaceOnUse">
<stop offset="0.2121" stop-color="#231F20"/>
<stop offset="0.2728" stop-color="#292526"/>
<stop offset="0.381" stop-color="#373436"/>
<stop offset="0.5233" stop-color="#4D4C4E"/>
<stop offset="0.5939" stop-color="#595A5C"/>
<stop offset="0.8017" stop-color="#A09D9E"/>
<stop offset="1" stop-color="white"/>
</linearGradient>
<linearGradient id="paint59_linear_2_1132" x1="28.2273" y1="2.72685" x2="39.0868" y2="43.0657" gradientUnits="userSpaceOnUse">
<stop/>
<stop offset="0.5648" stop-color="#48484A"/>
<stop offset="0.603" stop-color="#555658"/>
<stop offset="0.6642" stop-color="#646568"/>
<stop offset="0.7091" stop-color="#696A6D"/>
<stop offset="0.8364" stop-color="white"/>
<stop offset="0.8909" stop-color="white"/>
<stop offset="1" stop-color="#939598"/>
</linearGradient>
<linearGradient id="paint60_linear_2_1132" x1="27.9467" y1="1.58895" x2="17.3957" y2="40.7819" gradientUnits="userSpaceOnUse">
<stop stop-color="#414042" stop-opacity="0"/>
<stop offset="0.6061" stop-color="#4D4D4F"/>
<stop offset="0.6495" stop-color="#505052"/>
<stop offset="0.6844" stop-color="#58595B"/>
<stop offset="0.7091" stop-color="#636466"/>
<stop offset="0.8667" stop-color="#E6E7E8"/>
<stop offset="1" stop-color="#DCDDDE" stop-opacity="0"/>
</linearGradient>
<linearGradient id="paint61_linear_2_1132" x1="41.2347" y1="44.7751" x2="25.4225" y2="1.53427" gradientUnits="userSpaceOnUse">
<stop offset="0.0363636" stop-color="#48484A"/>
<stop offset="0.1947" stop-color="#4D4D4F"/>
<stop offset="0.2228" stop-color="#595A5C"/>
<stop offset="0.4083" stop-color="#9B9DA0"/>
<stop offset="0.5599" stop-color="#CFD0D2"/>
<stop offset="0.67" stop-color="#EFF0F0"/>
<stop offset="0.7273" stop-color="white"/>
<stop offset="1" stop-color="#808285"/>
</linearGradient>
<linearGradient id="paint62_linear_2_1132" x1="14.4878" y1="21.1844" x2="20.3799" y2="0.732327" gradientUnits="userSpaceOnUse">
<stop stop-color="white" stop-opacity="0"/>
<stop offset="0.4606" stop-color="white"/>
<stop offset="0.5919" stop-color="#DEDDDD" stop-opacity="0.7565"/>
<stop offset="1" stop-color="#939598" stop-opacity="0"/>
</linearGradient>
<linearGradient id="paint63_linear_2_1132" x1="17.4549" y1="6.95602" x2="49.5987" y2="6.95602" gradientUnits="userSpaceOnUse">
<stop stop-color="#282829"/>
<stop offset="0.0686544" stop-color="#4A4A4C" stop-opacity="0.9318"/>
<stop offset="0.1615" stop-color="#5F6062" stop-opacity="0.8395"/>
<stop offset="0.2604" stop-color="#6D6E71" stop-opacity="0.7412"/>
<stop offset="0.3684" stop-color="#747679" stop-opacity="0.6338"/>
<stop offset="0.503" stop-color="#77787B" stop-opacity="0.5"/>
<stop offset="1" stop-color="#1C1B1C"/>
</linearGradient>
<linearGradient id="paint64_linear_2_1132" x1="48.8694" y1="39.3712" x2="18.6077" y2="39.3712" gradientUnits="userSpaceOnUse">
<stop stop-color="#231F20"/>
<stop offset="0.141" stop-color="#363335"/>
<stop offset="0.4549" stop-color="#666669"/>
<stop offset="0.503" stop-color="#6E6F72"/>
<stop offset="1" stop-color="#231F20"/>
</linearGradient>
<linearGradient id="paint65_linear_2_1132" x1="54.0206" y1="33.0516" x2="55.5674" y2="37.2813" gradientUnits="userSpaceOnUse">
<stop offset="0.2364" stop-color="#282829" stop-opacity="0"/>
<stop offset="0.4424" stop-color="#282829"/>
<stop offset="0.6909" stop-color="#282829" stop-opacity="0.74"/>
<stop offset="1" stop-color="#282829" stop-opacity="0"/>
</linearGradient>
<linearGradient id="paint66_linear_2_1132" x1="22.5537" y1="0.242591" x2="9.42154" y2="23.823" gradientUnits="userSpaceOnUse">
<stop stop-color="white" stop-opacity="0"/>
<stop offset="0.3697" stop-color="white"/>
<stop offset="1" stop-color="#9D9FA2" stop-opacity="0"/>
</linearGradient>
<linearGradient id="paint67_linear_2_1132" x1="47.2939" y1="7.35214" x2="54.9911" y2="7.35214" gradientUnits="userSpaceOnUse">
<stop stop-color="#231F20"/>
<stop offset="0.0896271" stop-color="#231F20" stop-opacity="0.9104"/>
<stop offset="1" stop-color="#231F20" stop-opacity="0"/>
</linearGradient>
<linearGradient id="paint68_linear_2_1132" x1="15.2188" y1="5.30065" x2="15.2188" y2="10.3068" gradientUnits="userSpaceOnUse">
<stop stop-color="#282829"/>
<stop offset="1" stop-color="#282829" stop-opacity="0"/>
</linearGradient>
<linearGradient id="paint69_linear_2_1132" x1="17.6008" y1="34.917" x2="15.4099" y2="40.9086" gradientUnits="userSpaceOnUse">
<stop offset="0.0484848" stop-opacity="0"/>
<stop offset="0.1608" stop-color="#3D3C3E" stop-opacity="0.5296"/>
<stop offset="0.2606" stop-color="#4D4D4F"/>
<stop offset="0.3691" stop-color="#474749" stop-opacity="0.9403"/>
<stop offset="0.5117" stop-color="#2F2F30" stop-opacity="0.8619"/>
<stop offset="0.5333" stop-color="#282829" stop-opacity="0.85"/>
<stop offset="0.594" stop-color="#313132" stop-opacity="0.8176"/>
<stop offset="0.6551" stop-color="#444445" stop-opacity="0.785"/>
<stop offset="0.7162" stop-color="#565759" stop-opacity="0.7524"/>
<stop offset="0.7394" stop-color="#5F6062" stop-opacity="0.74"/>
<stop offset="0.7554" stop-color="#535355" stop-opacity="0.6946"/>
<stop offset="0.783" stop-color="#434345" stop-opacity="0.616"/>
<stop offset="0.8175" stop-color="#303031" stop-opacity="0.5182"/>
<stop offset="0.8658" stop-color="#212021" stop-opacity="0.381"/>
<stop offset="1" stop-color="#1C1B1C" stop-opacity="0"/>
</linearGradient>
<linearGradient id="paint70_linear_2_1132" x1="51.9691" y1="19.6905" x2="46.5318" y2="0.816962" gradientUnits="userSpaceOnUse">
<stop stop-color="white" stop-opacity="0"/>
<stop offset="0.0862252" stop-color="#E4E5E6" stop-opacity="0.1863"/>
<stop offset="0.2728" stop-color="#A9ABAE" stop-opacity="0.5894"/>
<stop offset="0.4629" stop-color="#6D6E71"/>
<stop offset="0.4727" stop-color="#77787B"/>
<stop offset="0.6801" stop-color="#7A7C7E" stop-opacity="0.6066"/>
<stop offset="0.8961" stop-color="#838588" stop-opacity="0.197"/>
<stop offset="1" stop-color="#8A8C8E" stop-opacity="0"/>
</linearGradient>
<linearGradient id="paint71_linear_2_1132" x1="12.694" y1="24.5611" x2="54.7441" y2="24.5611" gradientUnits="userSpaceOnUse">
<stop stop-color="#282829"/>
<stop offset="0.0659207" stop-color="#4A4A4C"/>
<stop offset="0.155" stop-color="#5F6062"/>
<stop offset="0.25" stop-color="#6D6E71"/>
<stop offset="0.3538" stop-color="#747679"/>
<stop offset="0.483" stop-color="#77787B"/>
<stop offset="0.5515" stop-color="#58595B"/>
<stop offset="0.5605" stop-color="#5D5E60"/>
<stop offset="0.5879" stop-color="#5F6062"/>
<stop offset="0.7061" stop-color="#282829" stop-opacity="0.9"/>
<stop offset="0.7121" stop-color="#3B3A3C" stop-opacity="0.8885"/>
<stop offset="0.722" stop-color="#545457" stop-opacity="0.8698"/>
<stop offset="0.7344" stop-color="#747678" stop-opacity="0.8462"/>
<stop offset="0.7489" stop-color="#9EA0A2" stop-opacity="0.8186"/>
<stop offset="0.7649" stop-color="#D7D8D9" stop-opacity="0.788"/>
<stop offset="0.7744" stop-color="white" stop-opacity="0.77"/>
<stop offset="1" stop-color="#2E2E2F"/>
</linearGradient>
<linearGradient id="paint72_linear_2_1132" x1="13.1541" y1="23.5948" x2="31.5951" y2="20.027" gradientUnits="userSpaceOnUse">
<stop offset="0.000754177"/>
<stop offset="0.6493" stop-color="#4B4B4D"/>
<stop offset="0.9996" stop-color="#58595B"/>
</linearGradient>
<linearGradient id="paint73_linear_2_1132" x1="33.5184" y1="19.3906" x2="56.0665" y2="19.3906" gradientUnits="userSpaceOnUse">
<stop/>
<stop offset="0.0125857" stop-color="#2E2D2E"/>
<stop offset="0.0489357" stop-color="#5A5B5D"/>
<stop offset="0.0892845" stop-color="#757779"/>
<stop offset="0.1333" stop-color="#8A8C8F"/>
<stop offset="0.1824" stop-color="#9C9EA1"/>
<stop offset="0.2385" stop-color="#AAACAF"/>
<stop offset="0.306" stop-color="#B4B6B9"/>
<stop offset="0.3966" stop-color="#BABCBE"/>
<stop offset="0.6072" stop-color="#BCBEC0"/>
<stop offset="0.8242" stop-color="white"/>
</linearGradient>
<linearGradient id="paint74_linear_2_1132" x1="42.9703" y1="18.0962" x2="46.308" y2="28.9622" gradientUnits="userSpaceOnUse">
<stop stop-color="#383839"/>
<stop offset="0.0304189" stop-color="#383839"/>
<stop offset="0.3394" stop-color="#383839"/>
<stop offset="0.4801" stop-color="#57585A"/>
<stop offset="0.5697" stop-color="#636466"/>
<stop offset="0.8061" stop-color="#4D4D4F"/>
</linearGradient>
<linearGradient id="paint75_linear_2_1132" x1="33.5361" y1="19.3126" x2="11.0433" y2="19.3126" gradientUnits="userSpaceOnUse">
<stop/>
<stop offset="0.015699" stop-color="#313132"/>
<stop offset="0.0576781" stop-color="#5D5E60"/>
<stop offset="0.0990982" stop-color="#75777A"/>
<stop offset="0.1393" stop-color="#86888A"/>
<stop offset="0.1776" stop-color="#909295"/>
<stop offset="0.2121" stop-color="#939598"/>
<stop offset="0.2464" stop-color="#9EA0A2"/>
<stop offset="0.3715" stop-color="#C1C2C4"/>
<stop offset="0.4985" stop-color="#DCDDDE"/>
<stop offset="0.6266" stop-color="#F0F0F0"/>
<stop offset="0.7564" stop-color="#FBFBFB"/>
<stop offset="0.8909" stop-color="white"/>
<stop offset="1" stop-color="#A7A9AC"/>
</linearGradient>
<linearGradient id="paint76_linear_2_1132" x1="9.66038" y1="28.5789" x2="57.3322" y2="28.5789" gradientUnits="userSpaceOnUse">
<stop stop-color="#636466"/>
<stop offset="0.1095" stop-color="#7C7D7E"/>
<stop offset="0.34" stop-color="#BBBBBC"/>
<stop offset="0.5697" stop-color="white"/>
<stop offset="0.7056" stop-color="#FDFDFD" stop-opacity="0.6841"/>
<stop offset="0.7646" stop-color="#F6F6F6" stop-opacity="0.547"/>
<stop offset="0.8088" stop-color="#E9E9E9" stop-opacity="0.4444"/>
<stop offset="0.8455" stop-color="#D7D7D7" stop-opacity="0.3591"/>
<stop offset="0.8776" stop-color="#C0C0C0" stop-opacity="0.2844"/>
<stop offset="0.9065" stop-color="#A3A3A3" stop-opacity="0.2172"/>
<stop offset="0.9331" stop-color="#818181" stop-opacity="0.1556"/>
<stop offset="0.9577" stop-color="#5A5A5A" stop-opacity="0.0983852"/>
<stop offset="0.9799" stop-color="#2E2E2E" stop-opacity="0.0467341"/>
<stop offset="1" stop-opacity="0"/>
</linearGradient>
<linearGradient id="paint77_linear_2_1132" x1="11.1502" y1="13.9427" x2="11.1502" y2="9.24751" gradientUnits="userSpaceOnUse">
<stop stop-color="#F2F2F2"/>
<stop offset="0.9385" stop-color="#F2F2F2"/>
<stop offset="1" stop-color="#F2F2F2"/>
</linearGradient>
<linearGradient id="paint78_linear_2_1132" x1="50.9321" y1="10.6017" x2="55.6842" y2="10.6017" gradientUnits="userSpaceOnUse">
<stop stop-color="#231F20"/>
<stop offset="0.1545" stop-color="#262223"/>
<stop offset="0.3526" stop-color="#2D2A2B"/>
<stop offset="0.5744" stop-color="#393738"/>
<stop offset="0.8117" stop-color="#49494A"/>
<stop offset="1" stop-color="#595A5C"/>
</linearGradient>
<linearGradient id="paint79_linear_2_1132" x1="16.1204" y1="10.4343" x2="11.3693" y2="10.4344" gradientUnits="userSpaceOnUse">
<stop stop-color="#231F20"/>
<stop offset="0.1545" stop-color="#262223"/>
<stop offset="0.3526" stop-color="#2D2A2B"/>
<stop offset="0.5744" stop-color="#393738"/>
<stop offset="0.8117" stop-color="#49494A"/>
<stop offset="1" stop-color="#595A5C"/>
</linearGradient>
<linearGradient id="paint80_linear_2_1132" x1="11.2989" y1="10.5211" x2="16.173" y2="10.5211" gradientUnits="userSpaceOnUse">
<stop offset="0.00036742" stop-color="#939598"/>
<stop offset="0.3138" stop-color="#7B7C7F"/>
<stop offset="0.5273" stop-color="#6D6E71"/>
</linearGradient>
<linearGradient id="paint81_linear_2_1132" x1="55.7546" y1="10.6192" x2="50.9256" y2="10.6192" gradientUnits="userSpaceOnUse">
<stop stop-color="#939598"/>
<stop offset="0.1329" stop-color="#858789"/>
<stop offset="0.3869" stop-color="#6D6E70"/>
<stop offset="0.5273" stop-color="#636466"/>
</linearGradient>
</defs>
</svg>
