<svg width="78" height="60" viewBox="0 0 78 60" fill="none" xmlns="http://www.w3.org/2000/svg">
<g clip-path="url(#clip0_2_9467)">
<mask id="mask0_2_9467" style="mask-type:luminance" maskUnits="userSpaceOnUse" x="10" y="0" width="59" height="33">
<path d="M10.6675 22.7295C10.7822 23.0756 11.6998 23.4218 12.5028 23.6526C13.3057 23.8833 13.6498 23.9987 14.2234 23.9987C14.5675 23.9987 15.0263 23.768 15.2557 23.5372C15.4851 23.191 15.8292 22.8449 15.8292 22.8449L16.0587 22.7295C19.1557 12.691 28.3322 5.4218 39.344 5.4218C52.7645 5.4218 63.6616 16.3833 63.6616 29.8833C63.6616 30.1141 63.6616 30.3449 63.6616 30.4603L63.7763 30.5756C63.7763 30.5756 64.0057 31.4987 64.1204 31.7295C64.3498 32.0756 64.694 32.191 65.2675 32.191C65.841 32.191 66.2998 32.0756 66.9881 31.8449C67.791 31.6141 68.2498 31.0372 68.594 30.8064L68.7087 30.691C68.7087 30.3449 68.7087 30.1141 68.7087 29.768C68.7087 13.3833 55.5175 0.229492 39.2292 0.229492C25.4645 0.229492 13.8792 9.80642 10.6675 22.7295Z" fill="white"/>
</mask>
<g mask="url(#mask0_2_9467)">
<path d="M68.7087 0.229492H10.6675V32.3064H68.7087V0.229492Z" fill="url(#paint0_radial_2_9467)"/>
</g>
<mask id="mask1_2_9467" style="mask-type:luminance" maskUnits="userSpaceOnUse" x="9" y="27" width="59" height="33">
<path d="M11.3559 28.038C10.553 28.2688 10.0942 28.3842 9.86475 28.7304C9.86475 29.0765 9.86475 29.5381 9.86475 29.8842C9.86475 46.2688 23.0559 59.4227 39.2295 59.4227C53.2236 59.4227 64.8089 49.615 67.9059 36.5765C67.7912 36.4611 67.5618 36.2304 66.5295 35.8842C65.8412 35.6534 64.9236 35.4227 64.35 35.4227C63.7765 35.4227 63.4324 35.6534 63.0883 36.115C62.9736 36.2304 62.7442 36.6919 62.7442 36.6919L62.5147 36.8073C59.6471 46.8457 50.2412 54.2304 39.2295 54.2304C25.8089 54.2304 14.9118 43.3842 14.9118 29.8842C14.9118 29.6534 14.9118 29.3073 14.9118 29.0765H14.7971C14.7971 29.0765 14.5677 28.615 14.453 28.3842C14.3383 28.038 13.9942 27.6919 13.4206 27.6919H13.3059C12.8471 27.6919 12.0442 27.8073 11.3559 28.038Z" fill="white"/>
</mask>
<g mask="url(#mask1_2_9467)">
<path d="M67.9059 27.6919H9.86475V59.4227H67.9059V27.6919Z" fill="url(#paint1_radial_2_9467)"/>
</g>
<mask id="mask2_2_9467" style="mask-type:luminance" maskUnits="userSpaceOnUse" x="1" y="0" width="77" height="78">
<path d="M77.541 0.114746H1.03223V77.1917H77.541V0.114746Z" fill="white"/>
</mask>
<g mask="url(#mask2_2_9467)">
<g opacity="0.7">
<mask id="mask3_2_9467" style="mask-type:luminance" maskUnits="userSpaceOnUse" x="10" y="0" width="59" height="33">
<path d="M68.7087 0.229492H10.6675V32.3064H68.7087V0.229492Z" fill="white"/>
</mask>
<g mask="url(#mask3_2_9467)">
<mask id="mask4_2_9467" style="mask-type:luminance" maskUnits="userSpaceOnUse" x="10" y="0" width="59" height="33">
<path d="M68.7087 0.229492H10.6675V32.3064H68.7087V0.229492Z" fill="white"/>
</mask>
<g mask="url(#mask4_2_9467)">
<path d="M39.2292 0.229492C25.3498 0.229492 13.7645 9.80642 10.6675 22.7295L10.7822 22.8449C11.1263 23.0756 11.8145 23.4218 12.5028 23.6526C13.3057 23.8833 13.6498 23.9987 14.2234 23.9987C14.5675 23.9987 15.0263 23.768 15.2557 23.5372C15.4851 23.191 15.8292 22.8449 15.8292 22.8449L16.0587 22.7295C19.1557 12.691 28.3322 5.4218 39.344 5.4218C52.7645 5.4218 63.6616 16.3833 63.6616 29.8833C63.6616 30.1141 63.6616 30.3449 63.6616 30.5756L63.7763 30.691C63.7763 30.691 64.0057 31.6141 64.1204 31.8449C64.3498 32.191 64.694 32.3064 65.2675 32.3064C65.841 32.3064 66.2998 32.191 66.9881 31.9603C67.791 31.7295 68.2498 31.1526 68.594 30.9218L68.7087 30.8064C68.7087 30.4603 68.7087 30.2295 68.7087 29.8833C68.7087 13.4987 55.5175 0.229492 39.2292 0.229492Z" fill="white"/>
</g>
</g>
</g>
</g>
<mask id="mask5_2_9467" style="mask-type:luminance" maskUnits="userSpaceOnUse" x="1" y="0" width="77" height="78">
<path d="M77.541 0.114746H1.03223V77.1917H77.541V0.114746Z" fill="white"/>
</mask>
<g mask="url(#mask5_2_9467)">
<mask id="mask6_2_9467" style="mask-type:luminance" maskUnits="userSpaceOnUse" x="10" y="0" width="59" height="33">
<path d="M68.7087 0.229492H10.6675V32.3064H68.7087V0.229492Z" fill="white"/>
</mask>
<g mask="url(#mask6_2_9467)">
<mask id="mask7_2_9467" style="mask-type:luminance" maskUnits="userSpaceOnUse" x="10" y="0" width="59" height="33">
<path d="M10.6675 22.7289C10.7822 23.0751 11.6998 23.4212 12.5028 23.652C13.3057 23.8828 13.6498 23.9981 14.2234 23.9981C14.5675 23.9981 15.0263 23.7674 15.2557 23.5366C15.4851 23.1904 15.8292 22.8443 15.8292 22.8443L16.0587 22.7289C19.1557 12.6904 28.3322 5.42122 39.344 5.42122C52.7645 5.42122 63.6616 16.3828 63.6616 29.8828C63.6616 30.1135 63.6616 30.3443 63.6616 30.5751L63.7763 30.6904C63.7763 30.6904 64.0057 31.6135 64.1204 31.8443C64.3498 32.1904 64.694 32.3058 65.2675 32.3058C65.841 32.3058 66.2998 32.1904 66.9881 31.9597C67.791 31.7289 68.2498 31.152 68.594 30.9212L68.7087 30.8058C68.7087 30.4597 68.7087 30.2289 68.7087 29.8828C68.7087 13.4981 55.5175 0.344293 39.2292 0.344293C25.4645 0.228909 13.8792 9.80583 10.6675 22.7289Z" fill="white"/>
</mask>
<g mask="url(#mask7_2_9467)">
<path d="M39.6881 61.4977L-5.27661 16.2669L39.6881 -28.9639L84.6528 16.2669L39.6881 61.4977Z" fill="url(#paint2_linear_2_9467)"/>
</g>
</g>
</g>
<mask id="mask8_2_9467" style="mask-type:luminance" maskUnits="userSpaceOnUse" x="1" y="0" width="77" height="78">
<path d="M77.541 0.114746H1.03223V77.1917H77.541V0.114746Z" fill="white"/>
</mask>
<g mask="url(#mask8_2_9467)">
<mask id="mask9_2_9467" style="mask-type:luminance" maskUnits="userSpaceOnUse" x="9" y="27" width="59" height="33">
<path d="M67.9059 27.6919H9.86475V59.4227H67.9059V27.6919Z" fill="white"/>
</mask>
<g mask="url(#mask9_2_9467)">
<mask id="mask10_2_9467" style="mask-type:luminance" maskUnits="userSpaceOnUse" x="9" y="27" width="60" height="33">
<path d="M13.4207 27.6919C12.8471 27.6919 12.1589 27.8073 11.4707 28.038C10.6677 28.2688 10.2089 28.3842 9.97949 28.7304C9.97949 29.0765 9.97949 29.5381 9.97949 29.8842C9.97949 46.2688 23.1707 59.4227 39.3442 59.4227C53.3383 59.4227 64.9236 49.615 68.0207 36.5765C67.906 36.4611 67.6765 36.2304 66.6442 35.8842C65.956 35.6534 65.0383 35.4227 64.4648 35.4227C63.8913 35.4227 63.5471 35.6534 63.203 36.115C63.0883 36.2304 62.8589 36.6919 62.8589 36.6919L62.6295 36.8073C59.6471 46.8457 50.2413 54.2304 39.2295 54.2304C25.8089 54.2304 14.9118 43.3842 14.9118 29.8842C14.9118 29.6534 14.9118 29.3073 14.9118 29.0765H14.7971C14.7971 29.0765 14.5677 28.615 14.453 28.3842C14.3383 28.038 13.9942 27.6919 13.4207 27.6919C13.5354 27.6919 13.5354 27.6919 13.4207 27.6919Z" fill="white"/>
</mask>
<g mask="url(#mask10_2_9467)">
<path d="M-5.39111 47.6536L31.4295 -0.577148L83.1618 39.4613L46.3412 87.6921L-5.39111 47.6536Z" fill="url(#paint3_linear_2_9467)"/>
</g>
</g>
</g>
<mask id="mask11_2_9467" style="mask-type:luminance" maskUnits="userSpaceOnUse" x="1" y="0" width="77" height="78">
<path d="M77.541 0.114746H1.03223V77.1917H77.541V0.114746Z" fill="white"/>
</mask>
<g mask="url(#mask11_2_9467)">
<path d="M4.47348 26.7686L5.84995 24.3456L4.93231 22.9609C4.8176 22.9609 4.7029 23.0763 4.7029 23.0763C4.7029 23.0763 4.12937 23.6532 2.8676 25.2686C1.72054 26.884 1.26172 27.8071 1.26172 27.8071C1.26172 27.9225 1.26172 27.9225 1.26172 28.0379L1.37642 27.9225L4.47348 26.7686Z" fill="#E7ECEE"/>
</g>
<mask id="mask12_2_9467" style="mask-type:luminance" maskUnits="userSpaceOnUse" x="1" y="0" width="77" height="78">
<path d="M77.541 0.114746H1.03223V77.1917H77.541V0.114746Z" fill="white"/>
</mask>
<g mask="url(#mask12_2_9467)">
<path d="M50.0116 24.3459L40.7205 31.4998L47.4881 29.5382L56.894 22.0382L57.0087 21.9229L50.0116 24.3459Z" fill="black"/>
</g>
<mask id="mask13_2_9467" style="mask-type:luminance" maskUnits="userSpaceOnUse" x="1" y="0" width="77" height="78">
<path d="M77.541 0.114746H1.03223V77.1917H77.541V0.114746Z" fill="white"/>
</mask>
<g mask="url(#mask13_2_9467)">
<path d="M73.8704 32.9995L72.6086 35.0764L73.641 36.461C73.7557 36.461 73.7557 36.4611 73.7557 36.3457C74.0998 35.8841 75.2469 34.4995 75.7057 33.8072C76.1645 33.2303 76.8528 32.0764 77.1969 31.6149C77.1969 31.4995 77.1969 31.4995 77.1969 31.4995L73.8704 32.9995Z" fill="#41555F"/>
</g>
<mask id="mask14_2_9467" style="mask-type:luminance" maskUnits="userSpaceOnUse" x="22" y="28" width="16" height="10">
<path d="M37.394 28.1533L30.9705 30.1149C30.8558 30.2302 22.3676 37.0379 22.1381 37.1533C22.0234 37.2687 22.0234 37.2687 22.0234 37.2687L28.447 34.8456L37.394 28.1533Z" fill="white"/>
</mask>
<g mask="url(#mask14_2_9467)">
<path d="M37.394 28.1533H22.0234V37.3841H37.394V28.1533Z" fill="url(#paint4_linear_2_9467)"/>
</g>
<mask id="mask15_2_9467" style="mask-type:luminance" maskUnits="userSpaceOnUse" x="40" y="29" width="38" height="4">
<path d="M40.8354 31.499L73.8707 32.999L77.3119 31.3836C77.3119 31.3836 77.1972 31.2682 77.0825 31.2682C77.0825 31.2682 73.4119 31.0374 68.709 30.8067L68.5943 30.9221C68.2502 31.1528 67.7913 31.7298 66.9884 31.9605C66.1855 32.1913 65.8413 32.3067 65.2678 32.3067C64.6943 32.3067 64.3502 32.1913 64.1207 31.8451C64.006 31.6144 63.7766 30.6913 63.7766 30.6913L63.6619 30.5759C55.9766 30.1144 47.8325 29.6528 47.6031 29.6528L40.8354 31.499Z" fill="white"/>
</mask>
<g mask="url(#mask15_2_9467)">
<path d="M73.0679 17.7681L78.3444 32.5373L45.0797 44.7681L39.6885 29.8835L73.0679 17.7681Z" fill="url(#paint5_linear_2_9467)"/>
</g>
<mask id="mask16_2_9467" style="mask-type:luminance" maskUnits="userSpaceOnUse" x="4" y="21" width="53" height="4">
<path d="M56.8941 21.8073L16.0588 22.615L15.8294 22.7304C15.8294 22.7304 15.6 23.1919 15.2559 23.4227C15.0265 23.7688 14.5676 23.8842 14.2235 23.8842C13.65 23.8842 13.1912 23.7688 12.5029 23.538C11.7 23.3073 10.897 22.8457 10.6676 22.615L5.04704 22.7304C5.04704 22.7304 4.93233 22.7304 4.81763 22.7304L5.73527 24.115H50.0117L56.8941 21.6919C57.0088 21.9227 56.8941 21.8073 56.8941 21.8073Z" fill="white"/>
</mask>
<g mask="url(#mask16_2_9467)">
<path d="M57.0088 21.8066H4.93237V24.3451H57.0088V21.8066Z" fill="url(#paint6_linear_2_9467)"/>
</g>
<mask id="mask17_2_9467" style="mask-type:luminance" maskUnits="userSpaceOnUse" x="1" y="26" width="37" height="5">
<path d="M1.37667 27.9219L1.26196 28.0373L1.37667 28.1527L9.8649 28.7296C10.0943 28.3835 10.5531 28.2681 11.3561 28.0373C12.159 27.8065 12.962 27.6911 13.5355 27.6911C14.109 27.6911 14.3384 28.0373 14.5678 28.3834C14.6826 28.6142 14.912 29.0758 14.912 29.0758L30.9708 30.2296L37.3943 28.1527L4.47373 26.7681L1.37667 27.9219Z" fill="white"/>
</mask>
<g mask="url(#mask17_2_9467)">
<path d="M37.3943 26.7681H1.26196V30.2296H37.3943V26.7681Z" fill="url(#paint7_linear_2_9467)"/>
</g>
<mask id="mask18_2_9467" style="mask-type:luminance" maskUnits="userSpaceOnUse" x="22" y="34" width="52" height="4">
<path d="M72.6087 34.9609H28.447L22.0234 37.384C22.0234 37.4994 22.1381 37.4994 22.2528 37.4994C22.3676 37.4994 62.5146 36.8071 62.5146 36.8071L62.744 36.6917C62.744 36.6917 62.9734 36.2302 63.0881 36.1148C63.4323 35.6532 63.7764 35.4225 64.3499 35.4225C64.9234 35.4225 65.8411 35.6532 66.5293 35.884C67.5617 36.2302 67.7911 36.3456 67.9058 36.5763C67.9058 36.5763 73.4117 36.3456 73.5264 36.3456H73.6411L72.6087 34.9609Z" fill="white"/>
</mask>
<g mask="url(#mask18_2_9467)">
<path d="M73.6411 34.9609H22.0234V37.4994H73.6411V34.9609Z" fill="url(#paint8_linear_2_9467)"/>
</g>
<mask id="mask19_2_9467" style="mask-type:luminance" maskUnits="userSpaceOnUse" x="1" y="0" width="77" height="78">
<path d="M77.541 0.114746H1.03223V77.1917H77.541V0.114746Z" fill="white"/>
</mask>
<g mask="url(#mask19_2_9467)">
<mask id="mask20_2_9467" style="mask-type:luminance" maskUnits="userSpaceOnUse" x="39" y="4" width="26" height="29">
<path d="M64.4645 4.38379H39.2292V32.0761H64.4645V4.38379Z" fill="white"/>
</mask>
<g mask="url(#mask20_2_9467)">
<mask id="mask21_2_9467" style="mask-type:luminance" maskUnits="userSpaceOnUse" x="39" y="4" width="26" height="29">
<path d="M39.2292 5.42161C52.6498 5.42161 63.5469 16.3832 63.5469 29.8832C63.5469 30.1139 63.5469 30.3447 63.5469 30.5755L63.6616 30.6908C63.6616 30.6908 63.891 31.6139 64.0057 31.8447C64.1204 31.9601 64.2351 32.0755 64.3498 32.1908C64.4645 31.4985 64.4645 30.5755 64.4645 29.8832C64.4645 15.8062 53.1087 4.49854 39.2292 4.49854V5.42161Z" fill="white"/>
</mask>
<g mask="url(#mask21_2_9467)">
<path d="M64.4645 4.38379H39.2292V32.0761H64.4645V4.38379Z" fill="url(#paint9_linear_2_9467)"/>
</g>
</g>
</g>
<mask id="mask22_2_9467" style="mask-type:luminance" maskUnits="userSpaceOnUse" x="1" y="0" width="77" height="78">
<path d="M77.541 0.114746H1.03223V77.1917H77.541V0.114746Z" fill="white"/>
</mask>
<g mask="url(#mask22_2_9467)">
<mask id="mask23_2_9467" style="mask-type:luminance" maskUnits="userSpaceOnUse" x="14" y="4" width="26" height="20">
<path d="M39.2292 4.38379H14.6821V23.8838H39.2292V4.38379Z" fill="white"/>
</mask>
<g mask="url(#mask23_2_9467)">
<mask id="mask24_2_9467" style="mask-type:luminance" maskUnits="userSpaceOnUse" x="14" y="4" width="26" height="20">
<path d="M14.6821 23.9986C14.9115 23.8833 15.141 23.7679 15.2557 23.5371C15.4851 23.1909 15.8292 22.8448 15.8292 22.8448L16.0586 22.7294C19.1557 12.691 28.3321 5.42172 39.3439 5.42172V4.49864C27.2998 4.38326 17.091 13.4986 14.6821 23.9986Z" fill="white"/>
</mask>
<g mask="url(#mask24_2_9467)">
<path d="M17.5498 31.9603L8.48804 6.69111L36.3616 -3.57812L45.538 21.6911L17.5498 31.9603Z" fill="url(#paint10_linear_2_9467)"/>
</g>
</g>
</g>
<mask id="mask25_2_9467" style="mask-type:luminance" maskUnits="userSpaceOnUse" x="1" y="0" width="77" height="78">
<path d="M77.541 0.114746H1.03223V77.1917H77.541V0.114746Z" fill="white"/>
</mask>
<g mask="url(#mask25_2_9467)">
<mask id="mask26_2_9467" style="mask-type:luminance" maskUnits="userSpaceOnUse" x="13" y="27" width="40" height="29">
<path d="M52.191 27.8071H13.9939V55.2687H52.191V27.8071Z" fill="white"/>
</mask>
<g mask="url(#mask26_2_9467)">
<mask id="mask27_2_9467" style="mask-type:luminance" maskUnits="userSpaceOnUse" x="13" y="27" width="40" height="29">
<path d="M14.1086 27.9219C14.1086 28.6142 13.9939 29.1911 13.9939 29.8834C13.9939 43.9603 25.3498 55.268 39.2292 55.268C43.9321 55.268 48.4057 53.9988 52.191 51.6911V50.4219C48.4057 52.845 44.0468 54.2296 39.2292 54.2296C25.8086 54.2296 14.9115 43.3834 14.9115 29.8834C14.9115 29.768 14.9115 29.5373 14.9115 29.4219C14.9115 29.3065 14.9115 29.1911 14.9115 29.0757H14.7968C14.7968 29.0757 14.5674 28.6142 14.4527 28.3834C14.4527 28.1526 14.338 27.9219 14.1086 27.9219Z" fill="white"/>
</mask>
<g mask="url(#mask27_2_9467)">
<path d="M52.191 27.8071H13.9939V55.2687H52.191V27.8071Z" fill="url(#paint11_linear_2_9467)"/>
</g>
</g>
</g>
<mask id="mask28_2_9467" style="mask-type:luminance" maskUnits="userSpaceOnUse" x="1" y="0" width="77" height="78">
<path d="M77.541 0.114746H1.03223V77.1917H77.541V0.114746Z" fill="white"/>
</mask>
<g mask="url(#mask28_2_9467)">
<mask id="mask29_2_9467" style="mask-type:luminance" maskUnits="userSpaceOnUse" x="39" y="35" width="25" height="21">
<path d="M63.8908 35.4219H39.229V55.1526H63.8908V35.4219Z" fill="white"/>
</mask>
<g mask="url(#mask29_2_9467)">
<mask id="mask30_2_9467" style="mask-type:luminance" maskUnits="userSpaceOnUse" x="39" y="35" width="25" height="21">
<path d="M63.0878 36.1142C62.9731 36.2296 62.7437 36.6911 62.7437 36.6911L62.5143 36.8065C59.5319 46.845 50.2408 54.2296 39.229 54.2296V55.1526C51.2731 55.1526 61.3672 46.845 63.8908 35.4219C63.5467 35.5373 63.3172 35.768 63.0878 36.1142Z" fill="white"/>
</mask>
<g mask="url(#mask30_2_9467)">
<path d="M73.5261 43.2682L54.1408 67.3836L29.5938 47.422L49.0937 23.3066L73.5261 43.2682Z" fill="url(#paint12_linear_2_9467)"/>
</g>
</g>
</g>
<mask id="mask31_2_9467" style="mask-type:luminance" maskUnits="userSpaceOnUse" x="1" y="0" width="77" height="78">
<path d="M77.541 0.114746H1.03223V77.1917H77.541V0.114746Z" fill="white"/>
</mask>
<g mask="url(#mask31_2_9467)">
<mask id="mask32_2_9467" style="mask-type:luminance" maskUnits="userSpaceOnUse" x="13" y="3" width="53" height="30">
<path d="M65.3823 3.57617H13.7646V32.3069H65.3823V3.57617Z" fill="white"/>
</mask>
<g mask="url(#mask32_2_9467)">
<mask id="mask33_2_9467" style="mask-type:luminance" maskUnits="userSpaceOnUse" x="13" y="3" width="53" height="30">
<path d="M13.7646 23.9999C13.8794 23.9999 14.1088 23.9999 14.2235 23.9999C14.3382 23.9999 14.5676 23.9999 14.6823 23.8845C17.3205 12.6922 27.2999 4.3845 39.2294 4.3845C53.2235 4.3845 64.4646 15.8076 64.4646 29.7691C64.4646 30.4614 64.4646 31.3845 64.3499 32.0768C64.5793 32.1922 64.8088 32.1922 65.1529 32.1922H65.2676C65.3823 31.3845 65.3823 30.4614 65.3823 29.7691C65.3823 15.2307 53.6823 3.46143 39.2294 3.46143C26.8411 3.57681 16.4029 12.346 13.7646 23.9999Z" fill="white"/>
</mask>
<g mask="url(#mask33_2_9467)">
<path d="M65.3823 3.57617H13.7646V32.3069H65.3823V3.57617Z" fill="url(#paint13_linear_2_9467)"/>
</g>
</g>
</g>
<mask id="mask34_2_9467" style="mask-type:luminance" maskUnits="userSpaceOnUse" x="1" y="0" width="77" height="78">
<path d="M77.541 0.114746H1.03223V77.1917H77.541V0.114746Z" fill="white"/>
</mask>
<g mask="url(#mask34_2_9467)">
<mask id="mask35_2_9467" style="mask-type:luminance" maskUnits="userSpaceOnUse" x="13" y="27" width="52" height="30">
<path d="M64.8088 27.6919H13.0764V56.3073H64.8088V27.6919Z" fill="white"/>
</mask>
<g mask="url(#mask35_2_9467)">
<mask id="mask36_2_9467" style="mask-type:luminance" maskUnits="userSpaceOnUse" x="13" y="27" width="52" height="30">
<path d="M13.1911 27.6919C13.0764 28.4996 13.0764 29.1919 13.0764 29.8842C13.0764 44.4227 24.7764 56.3073 39.2294 56.3073C51.847 56.3073 62.2852 47.4227 64.8088 35.538C64.5794 35.538 64.4646 35.538 64.3499 35.538C64.2352 35.538 64.0058 35.5381 63.8911 35.6534C61.3676 47.0765 51.3882 55.3842 39.2294 55.3842C25.2352 55.3842 13.9941 43.9611 13.9941 29.9996C13.9941 29.3073 13.9941 28.7304 14.1088 28.038V27.9227C13.9941 27.6919 13.7647 27.6919 13.5352 27.6919H13.4205C13.4205 27.6919 13.3058 27.6919 13.1911 27.6919Z" fill="white"/>
</mask>
<g mask="url(#mask36_2_9467)">
<path d="M64.8088 27.6919H13.0764V56.3073H64.8088V27.6919Z" fill="url(#paint14_linear_2_9467)"/>
</g>
</g>
</g>
<mask id="mask37_2_9467" style="mask-type:luminance" maskUnits="userSpaceOnUse" x="1" y="0" width="77" height="78">
<path d="M77.541 0.114746H1.03223V77.1917H77.541V0.114746Z" fill="white"/>
</mask>
<g mask="url(#mask37_2_9467)">
<mask id="mask38_2_9467" style="mask-type:luminance" maskUnits="userSpaceOnUse" x="65" y="30" width="8" height="3">
<path d="M72.379 30.8066H65.6113V32.3066H72.379V30.8066Z" fill="white"/>
</mask>
<g mask="url(#mask38_2_9467)">
<mask id="mask39_2_9467" style="mask-type:luminance" maskUnits="userSpaceOnUse" x="65" y="30" width="8" height="3">
<path d="M68.4789 30.922C68.1348 31.1528 67.676 31.7297 66.8731 31.9605C66.2995 32.1913 65.9554 32.3066 65.4966 32.3066C65.8407 32.3066 71.1172 31.2682 72.2642 31.0374L68.5936 30.8066L68.4789 30.922Z" fill="white"/>
</mask>
<g mask="url(#mask39_2_9467)">
<path d="M72.379 30.8066H65.6113V32.422H72.379V30.8066Z" fill="url(#paint15_linear_2_9467)"/>
</g>
</g>
</g>
<mask id="mask40_2_9467" style="mask-type:luminance" maskUnits="userSpaceOnUse" x="1" y="0" width="77" height="78">
<path d="M77.541 0.114746H1.03223V77.1917H77.541V0.114746Z" fill="white"/>
</mask>
<g mask="url(#mask40_2_9467)">
<mask id="mask41_2_9467" style="mask-type:luminance" maskUnits="userSpaceOnUse" x="14" y="22" width="9" height="2">
<path d="M22.0237 22.5H14.4531V24H22.0237V22.5Z" fill="white"/>
</mask>
<g mask="url(#mask41_2_9467)">
<mask id="mask42_2_9467" style="mask-type:luminance" maskUnits="userSpaceOnUse" x="14" y="22" width="8" height="2">
<path d="M15.9443 22.616L15.7149 22.7314C15.7149 22.7314 15.4854 23.1929 15.1413 23.4237C14.9119 23.6545 14.6825 23.7699 14.3384 23.8853L21.909 22.3853L15.9443 22.616Z" fill="white"/>
</mask>
<g mask="url(#mask42_2_9467)">
<path d="M22.0237 22.5H14.4531V24H22.0237V22.5Z" fill="url(#paint16_linear_2_9467)"/>
</g>
</g>
</g>
<mask id="mask43_2_9467" style="mask-type:luminance" maskUnits="userSpaceOnUse" x="1" y="0" width="77" height="78">
<path d="M77.541 0.114746H1.03223V77.1917H77.541V0.114746Z" fill="white"/>
</mask>
<g mask="url(#mask43_2_9467)">
<mask id="mask44_2_9467" style="mask-type:luminance" maskUnits="userSpaceOnUse" x="58" y="11" width="11" height="22">
<path d="M68.5942 11.5381H58.0413V32.3073H68.5942V11.5381Z" fill="white"/>
</mask>
<g mask="url(#mask44_2_9467)">
<mask id="mask45_2_9467" style="mask-type:luminance" maskUnits="userSpaceOnUse" x="58" y="11" width="11" height="22">
<path d="M58.0413 11.5381C62.6295 16.2689 65.4971 22.7304 65.4971 29.8842C65.4971 30.5765 65.4971 31.615 65.3824 32.3073C65.8413 32.3073 66.3001 32.1919 66.9883 31.9612C67.7913 31.7304 68.2501 31.1535 68.5942 30.9227V30.8073C68.5942 30.4612 68.5942 30.115 68.5942 29.8842C68.5942 27.4612 68.2501 25.1535 67.7913 22.9612C67.103 21.6919 65.8413 21.2304 64.8089 20.3073C63.4324 19.0381 60.9089 13.4996 58.0413 11.5381Z" fill="white"/>
</mask>
<g mask="url(#mask45_2_9467)">
<path d="M68.5942 11.5381H58.0413V32.3073H68.5942V11.5381Z" fill="url(#paint17_linear_2_9467)"/>
</g>
</g>
</g>
<mask id="mask46_2_9467" style="mask-type:luminance" maskUnits="userSpaceOnUse" x="1" y="0" width="77" height="78">
<path d="M77.541 0.114746H1.03223V77.1917H77.541V0.114746Z" fill="white"/>
</mask>
<g mask="url(#mask46_2_9467)">
<mask id="mask47_2_9467" style="mask-type:luminance" maskUnits="userSpaceOnUse" x="10" y="11" width="11" height="13">
<path d="M20.5322 11.4224H10.7822V23.9993H20.5322V11.4224Z" fill="white"/>
</mask>
<g mask="url(#mask47_2_9467)">
<mask id="mask48_2_9467" style="mask-type:luminance" maskUnits="userSpaceOnUse" x="10" y="11" width="11" height="13">
<path d="M15.1411 17.8839C14.1087 18.6916 11.6999 20.1916 11.3558 21.1147C11.2411 21.6916 11.0117 22.2685 10.897 22.7301V22.8454C11.2411 23.0762 11.9293 23.4224 12.6176 23.6531C13.1911 23.7685 13.5352 23.8839 13.8793 23.9993C14.4529 21.3454 15.3705 18.9224 16.747 16.7301C17.894 14.7685 19.2705 12.9224 20.7617 11.4224C19.6146 11.5377 16.1734 16.9608 15.1411 17.8839Z" fill="white"/>
</mask>
<g mask="url(#mask48_2_9467)">
<path d="M5.39111 20.8841L13.1911 7.15332L26.0382 14.5379L18.1235 28.2687L5.39111 20.8841Z" fill="url(#paint18_linear_2_9467)"/>
</g>
</g>
</g>
<mask id="mask49_2_9467" style="mask-type:luminance" maskUnits="userSpaceOnUse" x="1" y="0" width="77" height="78">
<path d="M77.541 0.114746H1.03223V77.1917H77.541V0.114746Z" fill="white"/>
</mask>
<g mask="url(#mask49_2_9467)">
<mask id="mask50_2_9467" style="mask-type:luminance" maskUnits="userSpaceOnUse" x="9" y="27" width="59" height="31">
<path d="M67.7908 27.6919H9.979V57.115H67.7908V27.6919Z" fill="white"/>
</mask>
<g mask="url(#mask50_2_9467)">
<mask id="mask51_2_9467" style="mask-type:luminance" maskUnits="userSpaceOnUse" x="9" y="27" width="59" height="31">
<path d="M67.7908 27.6919H9.979V57.115H67.7908V27.6919Z" fill="white"/>
</mask>
<g mask="url(#mask51_2_9467)">
<path d="M66.529 35.8848C65.9555 35.6541 65.3819 35.5387 64.8084 35.4233C62.0555 47.6541 51.3878 56.0771 39.229 56.0771C25.2349 56.0771 13.0761 44.5387 13.0761 29.7695C13.0761 28.9618 13.0761 28.3848 13.1908 27.6925C13.1908 27.6925 13.1908 27.6925 13.1908 27.5771C12.6172 27.5771 11.929 27.6925 11.3555 27.9233C10.6672 28.1541 10.3231 28.2695 9.979 28.5002V28.6156C9.979 29.0771 9.979 29.4233 9.979 29.7695C9.979 34.0387 10.8966 38.1925 12.5025 41.8848C18.3525 49.1541 27.529 57.1156 39.229 57.1156C51.5025 57.1156 64.2349 47.8848 67.7908 36.4618C67.5614 36.3464 67.3319 36.1156 66.529 35.8848Z" fill="black"/>
</g>
</g>
</g>
<path d="M50.0116 24.3457L40.8352 31.4996L73.8704 32.9995L72.6087 34.9611H28.4469L37.394 28.1534L4.47339 26.7688L5.84986 24.3457H50.0116Z" fill="white"/>
<mask id="mask52_2_9467" style="mask-type:luminance" maskUnits="userSpaceOnUse" x="5" y="24" width="69" height="11">
<path d="M5.27661 26.3076L38.656 27.6922L29.8237 34.4999H72.3796L73.0678 33.3461L39.459 31.8461L48.6354 24.8076H6.07955L5.27661 26.3076Z" fill="white"/>
</mask>
<g mask="url(#mask52_2_9467)">
<path d="M9.63532 51.2304L2.86768 25.4996L68.7089 8.19189L75.3618 33.9227L9.63532 51.2304Z" fill="url(#paint19_linear_2_9467)"/>
</g>
<mask id="mask53_2_9467" style="mask-type:luminance" maskUnits="userSpaceOnUse" x="1" y="0" width="77" height="78">
<path d="M77.541 0.114746H1.03223V77.1917H77.541V0.114746Z" fill="white"/>
</mask>
<g mask="url(#mask53_2_9467)">
<path d="M39.2293 59.5378C22.9411 59.5378 9.63517 46.1532 9.63517 29.7686C9.63517 29.4224 9.63517 29.0763 9.63517 28.7301L1.26164 28.1532C1.14693 28.1532 1.03223 28.0378 1.03223 28.0378C1.03223 27.9224 1.03223 27.8071 1.03223 27.6917C1.03223 27.6917 1.49105 26.7686 2.63811 25.1532C3.78517 23.5378 4.4734 22.9609 4.4734 22.9609C4.58811 22.8455 4.81752 22.7301 5.04693 22.7301L10.5528 22.6147C12.1587 16.2686 15.7146 10.6147 20.8763 6.57628C26.1528 2.30705 32.4616 0.114746 39.2293 0.114746C55.5175 0.114746 68.8234 13.384 68.8234 29.884C68.8234 30.1147 68.8234 30.3455 68.8234 30.6917C73.9852 31.0378 76.9675 31.1532 77.0822 31.1532C77.3116 31.1532 77.4263 31.2686 77.4263 31.384C77.4263 31.384 77.541 31.4994 77.4263 31.7301C76.9675 32.4224 76.2793 33.4609 75.9352 33.9224C75.4763 34.6147 74.3293 35.9994 73.9852 36.4609C73.8705 36.5763 73.7558 36.5763 73.641 36.5763C73.0675 36.5763 70.8881 36.6917 68.1352 36.8071C66.5293 43.1532 62.8587 48.9224 57.8116 53.0763C52.5352 57.2301 45.9969 59.5378 39.2293 59.5378ZM1.37634 27.9224L10.094 28.4994V28.6147C10.094 29.0763 10.094 29.4224 10.094 29.7686C10.094 46.0378 23.1705 59.1917 39.344 59.1917C52.994 59.1917 64.8087 49.8455 67.9058 36.4609V36.3455H68.0205C70.8881 36.2301 72.9528 36.1147 73.641 36.1147C73.7558 36.1147 73.7558 36.1147 73.7558 35.9994C73.9852 35.6532 75.2469 34.1532 75.7058 33.4609C76.0499 32.9994 76.7381 31.9609 77.1969 31.2686C77.1969 31.2686 77.1969 31.2686 77.0822 31.2686C76.9675 31.2686 71.8058 30.9224 68.7087 30.8071H68.594V30.6917C68.594 30.3455 68.594 29.9994 68.594 29.7686C68.594 13.4994 55.5175 0.345515 39.344 0.345515C25.8087 0.345515 14.1087 9.57629 10.8969 22.7301V22.8455L5.16164 22.9609C5.04693 22.9609 4.93223 23.0763 4.81752 23.0763C4.81752 23.0763 4.12929 23.6532 2.98223 25.2686C1.83517 26.9994 1.37634 27.9224 1.37634 27.9224ZM39.2293 54.4609C25.694 54.4609 14.7969 43.384 14.7969 29.884C14.7969 29.6532 14.7969 29.4224 14.7969 29.0763V28.9609L31.3146 30.1147L22.1381 37.384C22.3675 37.384 56.6646 36.9224 62.3999 36.6917H62.6293L62.5146 36.9224C61.0234 41.884 57.9263 46.384 53.7969 49.4994C49.7822 52.7301 44.6205 54.4609 39.2293 54.4609ZM15.1411 29.1917C15.1411 29.4224 15.1411 29.6532 15.1411 29.884C15.1411 43.2686 26.0381 54.2301 39.344 54.2301C49.8969 54.2301 59.4175 47.1917 62.5146 37.0378C56.7793 37.2686 22.5969 37.7301 22.3675 37.7301C22.2528 37.7301 22.0234 37.7301 22.0234 37.4994C22.0234 37.384 22.0234 37.2686 22.1381 37.1532C22.7116 36.6917 29.9381 30.8071 30.6263 30.3455L15.1411 29.1917ZM63.6616 30.5763L47.0293 29.5378L56.6646 21.9224L15.8293 22.7301L15.944 22.4994C17.4352 17.5378 20.5322 13.1532 24.6616 10.0378C28.9058 6.80705 33.9528 5.07628 39.344 5.07628C52.8793 5.07628 63.7763 16.1532 63.7763 29.6532C63.7763 29.884 63.7763 30.1147 63.7763 30.3455L63.6616 30.5763ZM47.8322 29.4224L63.3175 30.3455C63.3175 30.2301 63.3175 29.9994 63.3175 29.884C63.3175 16.4994 52.4205 5.53782 39.1146 5.53782C28.4469 5.53782 19.2705 12.3455 16.0587 22.4994L56.7793 21.6917C57.0087 21.6917 57.0087 21.8071 57.0087 21.8071C57.0087 21.8071 57.0087 21.9224 56.894 22.0378L47.8322 29.4224Z" fill="#20343E"/>
</g>
<mask id="mask54_2_9467" style="mask-type:luminance" maskUnits="userSpaceOnUse" x="1" y="0" width="77" height="78">
<path d="M77.541 0.114746H1.03223V77.1917H77.541V0.114746Z" fill="white"/>
</mask>
<g mask="url(#mask54_2_9467)">
<g opacity="0.5">
<mask id="mask55_2_9467" style="mask-type:luminance" maskUnits="userSpaceOnUse" x="1" y="0" width="77" height="60">
<path d="M77.4263 0.114746H1.03223V59.6532H77.4263V0.114746Z" fill="white"/>
</mask>
<g mask="url(#mask55_2_9467)">
<mask id="mask56_2_9467" style="mask-type:luminance" maskUnits="userSpaceOnUse" x="1" y="0" width="77" height="60">
<path d="M77.4263 0.114746H1.03223V59.6532H77.4263V0.114746Z" fill="white"/>
</mask>
<g mask="url(#mask56_2_9467)">
<path d="M39.2293 59.5378C22.9411 59.5378 9.63517 46.1532 9.63517 29.7686C9.63517 29.4224 9.63517 29.0763 9.63517 28.7301L1.26164 28.1532C1.14693 28.1532 1.03223 28.0378 1.03223 28.0378C1.03223 27.9224 1.03223 27.8071 1.03223 27.6917C1.03223 27.6917 1.49105 26.7686 2.63811 25.1532C3.78517 23.5378 4.4734 22.9609 4.4734 22.9609C4.58811 22.8455 4.81752 22.7301 5.04693 22.7301L10.5528 22.6147C12.1587 16.2686 15.7146 10.6147 20.8763 6.57628C26.1528 2.30705 32.4616 0.114746 39.2293 0.114746C55.5175 0.114746 68.8234 13.384 68.8234 29.884C68.8234 30.1147 68.8234 30.3455 68.8234 30.6917C73.9852 31.0378 76.9675 31.1532 77.0822 31.1532C77.3116 31.1532 77.4263 31.2686 77.4263 31.384C77.4263 31.384 77.541 31.4994 77.4263 31.7301C76.9675 32.4224 76.2793 33.4609 75.9352 33.9224C75.4763 34.6147 74.3293 35.9994 73.9852 36.4609C73.8705 36.5763 73.7558 36.5763 73.641 36.6917C73.0675 36.6917 70.8881 36.8071 68.1352 36.9224C66.5293 43.1532 62.8587 48.9224 57.8116 53.0763C52.5352 57.2301 45.9969 59.5378 39.2293 59.5378ZM1.37634 27.9224L10.094 28.4994V28.6147C10.094 29.0763 10.094 29.4224 10.094 29.7686C10.094 46.0378 23.1705 59.1917 39.344 59.1917C52.994 59.1917 64.8087 49.8455 67.9058 36.4609V36.3455H68.0205C70.8881 36.2301 72.9528 36.1147 73.641 36.1147C73.7558 36.1147 73.7558 36.1147 73.7558 35.9994C73.9852 35.6532 75.2469 34.1532 75.7058 33.4609C76.0499 32.9994 76.7381 31.9609 77.1969 31.2686C77.1969 31.2686 77.1969 31.2686 77.0822 31.2686C76.9675 31.2686 71.8058 30.9224 68.7087 30.8071H68.594V30.6917C68.594 30.3455 68.594 29.9994 68.594 29.7686C68.594 13.4994 55.5175 0.345515 39.344 0.345515C25.8087 0.345515 14.1087 9.57629 10.8969 22.7301V22.8455L5.16164 22.9609C5.04693 22.9609 4.93223 23.0763 4.81752 23.0763C4.81752 23.0763 4.12929 23.6532 2.98223 25.2686C1.83517 26.9994 1.37634 27.9224 1.37634 27.9224ZM39.2293 54.4609C25.694 54.4609 14.7969 43.384 14.7969 29.884C14.7969 29.6532 14.7969 29.4224 14.7969 29.0763V28.9609L31.3146 30.1147L22.1381 37.384C22.3675 37.384 56.6646 36.9224 62.3999 36.6917H62.6293L62.5146 36.9224C61.0234 41.884 57.9263 46.384 53.7969 49.4994C49.7822 52.7301 44.6205 54.4609 39.2293 54.4609ZM15.1411 29.1917C15.1411 29.4224 15.1411 29.6532 15.1411 29.884C15.1411 43.2686 26.0381 54.2301 39.344 54.2301C49.8969 54.2301 59.4175 47.1917 62.5146 37.0378C56.7793 37.2686 22.5969 37.7301 22.3675 37.7301C22.2528 37.7301 22.0234 37.7301 22.0234 37.4994C22.0234 37.384 22.0234 37.2686 22.1381 37.1532C22.7116 36.6917 29.9381 30.8071 30.6263 30.3455L15.1411 29.1917ZM63.6616 30.5763L47.0293 29.5378L56.6646 21.9224L15.8293 22.7301L15.944 22.4994C17.4352 17.5378 20.5322 13.1532 24.6616 10.0378C28.9058 6.80705 33.9528 5.07628 39.344 5.07628C52.8793 5.07628 63.7763 16.1532 63.7763 29.6532C63.7763 29.884 63.7763 30.1147 63.7763 30.3455L63.6616 30.5763ZM47.8322 29.4224L63.3175 30.3455C63.3175 30.2301 63.3175 29.9994 63.3175 29.884C63.3175 16.4994 52.4205 5.53782 39.1146 5.53782C28.4469 5.53782 19.2705 12.3455 16.0587 22.4994L56.7793 21.6917C57.0087 21.6917 57.0087 21.8071 57.0087 21.8071C57.0087 21.8071 57.0087 21.9224 56.894 22.0378L47.8322 29.4224Z" fill="white"/>
</g>
</g>
</g>
</g>
<mask id="mask57_2_9467" style="mask-type:luminance" maskUnits="userSpaceOnUse" x="1" y="0" width="77" height="78">
<path d="M77.541 0.114746H1.03223V77.1917H77.541V0.114746Z" fill="white"/>
</mask>
<g mask="url(#mask57_2_9467)">
<path d="M45.4235 2.53782L45.1941 3.23013L46.7999 3.69167L46.4558 4.03782H46.3411L45.0794 3.69167L44.8499 4.38398L47.0294 4.9609L46.5705 5.30705C46.5705 5.30705 46.4558 5.42244 46.4558 5.30705L43.8176 4.61475C43.7029 4.61475 43.7029 4.61475 43.7029 4.49936L44.5058 1.73013C44.5058 1.61475 44.5058 1.61475 44.6205 1.61475L47.4882 2.42244L47.0294 2.76859C47.0294 2.76859 47.0294 2.76859 46.9146 2.76859L45.4235 2.53782Z" fill="black"/>
</g>
<mask id="mask58_2_9467" style="mask-type:luminance" maskUnits="userSpaceOnUse" x="1" y="0" width="77" height="78">
<path d="M77.541 0.114746H1.03223V77.1917H77.541V0.114746Z" fill="white"/>
</mask>
<g mask="url(#mask58_2_9467)">
<path d="M24.3173 7.26916C23.8585 6.57685 23.5144 6.57686 22.9409 6.92301C22.3673 7.26916 22.2526 7.61532 22.7114 8.42301C23.1703 9.11532 23.5144 9.11532 24.0879 8.76916C24.6614 8.30762 24.7762 7.96147 24.3173 7.26916ZM25.1203 6.69224C25.8085 7.7307 25.4644 8.42301 24.3173 9.2307C23.1703 10.0384 22.482 10.0384 21.7938 8.99993C21.1056 7.96147 21.4497 7.26916 22.5967 6.46147C23.7438 5.65378 24.5467 5.65378 25.1203 6.69224Z" fill="black"/>
</g>
<mask id="mask59_2_9467" style="mask-type:luminance" maskUnits="userSpaceOnUse" x="1" y="0" width="77" height="78">
<path d="M77.541 0.114746H1.03223V77.1917H77.541V0.114746Z" fill="white"/>
</mask>
<g mask="url(#mask59_2_9467)">
<path d="M56.5498 10.2684L55.9763 10.3838H55.8616L53.9116 8.99919C53.9116 8.99919 53.7969 8.88381 53.9116 8.88381L55.4028 6.6915C55.5175 6.57611 55.6322 6.46073 55.7469 6.57611L56.2057 6.92227C56.2057 6.92227 56.3204 7.03765 56.2057 7.03765L54.8292 8.99919L56.5498 10.2684Z" fill="black"/>
</g>
<mask id="mask60_2_9467" style="mask-type:luminance" maskUnits="userSpaceOnUse" x="1" y="0" width="77" height="78">
<path d="M77.541 0.114746H1.03223V77.1917H77.541V0.114746Z" fill="white"/>
</mask>
<g mask="url(#mask60_2_9467)">
<path d="M35.2147 2.53797C35.1 2.07643 34.8706 2.07643 34.5265 2.19182L33.7235 2.3072L33.9529 3.34566L34.8706 3.1149C35.1 3.1149 35.3294 2.99951 35.2147 2.53797ZM36.1323 2.3072C36.3618 3.1149 35.7882 3.46105 35.3294 3.57643L33.9529 3.92259L34.0676 4.6149C34.0676 4.84567 34.0676 4.96105 33.8382 4.96105L33.2647 5.07643C33.15 5.07643 33.15 5.07643 33.15 4.96105L32.6912 2.07643C32.6912 1.96105 32.6912 1.96105 32.8059 1.96105L34.9853 1.49951C35.3294 1.49951 35.9029 1.49951 36.1323 2.3072Z" fill="black"/>
</g>
</g>
<defs>
<radialGradient id="paint0_radial_2_9467" cx="0" cy="0" r="1" gradientUnits="userSpaceOnUse" gradientTransform="translate(39.2537 29.8277) scale(29.0707 29.2427)">
<stop stop-color="#566A74"/>
<stop offset="0.84" stop-color="#566A74"/>
<stop offset="0.87" stop-color="white"/>
<stop offset="0.9693" stop-color="white"/>
<stop offset="0.9765" stop-color="#FBFCFC"/>
<stop offset="0.9839" stop-color="#EEF1F3"/>
<stop offset="0.9913" stop-color="#DAE0E4"/>
<stop offset="0.9989" stop-color="#BDC8CF"/>
<stop offset="1" stop-color="#B8C4CB"/>
</radialGradient>
<radialGradient id="paint1_radial_2_9467" cx="0" cy="0" r="1" gradientUnits="userSpaceOnUse" gradientTransform="translate(39.2582 30.1584) scale(28.8977 29.0687)">
<stop stop-color="white"/>
<stop offset="0.95" stop-color="white"/>
<stop offset="0.985" stop-color="#A1B1B9"/>
<stop offset="0.9922" stop-color="#657780"/>
<stop offset="1" stop-color="#20343E"/>
</radialGradient>
<linearGradient id="paint2_linear_2_9467" x1="61.3748" y1="38.0825" x2="25.1996" y2="2.1201" gradientUnits="userSpaceOnUse">
<stop stop-color="#8B9DA6"/>
<stop offset="0.2" stop-color="#8B9DA6"/>
<stop offset="0.3181" stop-color="#B7C2C8"/>
<stop offset="0.4412" stop-color="#DEE3E6"/>
<stop offset="0.5395" stop-color="#F6F7F8"/>
<stop offset="0.6" stop-color="white"/>
<stop offset="1" stop-color="white"/>
</linearGradient>
<linearGradient id="paint3_linear_2_9467" x1="25.4739" y1="61.0628" x2="55.2744" y2="22.5564" gradientUnits="userSpaceOnUse">
<stop stop-color="#8B9DA6"/>
<stop offset="0.00613403" stop-color="#8B9DA6"/>
<stop offset="0.0479745" stop-color="#ABB8BE"/>
<stop offset="0.0982902" stop-color="#C9D1D6"/>
<stop offset="0.1512" stop-color="#E1E6E8"/>
<stop offset="0.2073" stop-color="#F2F4F5"/>
<stop offset="0.2684" stop-color="#FCFCFD"/>
<stop offset="0.3445" stop-color="white"/>
<stop offset="1" stop-color="white"/>
</linearGradient>
<linearGradient id="paint4_linear_2_9467" x1="29.6923" y1="37.3918" x2="29.6923" y2="28.1512" gradientUnits="userSpaceOnUse">
<stop stop-color="#B8C4CB"/>
<stop offset="0.5191" stop-color="#5D6E78"/>
<stop offset="0.7301" stop-color="#364A55"/>
<stop offset="1" stop-color="#364A55"/>
</linearGradient>
<linearGradient id="paint5_linear_2_9467" x1="56.983" y1="25.5489" x2="61.3652" y2="37.5178" gradientUnits="userSpaceOnUse">
<stop stop-color="#20343E"/>
<stop offset="0.0316429" stop-color="#354851"/>
<stop offset="0.1211" stop-color="#6C7B83"/>
<stop offset="0.2045" stop-color="#97A3AA"/>
<stop offset="0.2791" stop-color="#B5C0C6"/>
<stop offset="0.3423" stop-color="#C8D2D7"/>
<stop offset="0.3865" stop-color="#CFD8DD"/>
<stop offset="0.6189" stop-color="#697982"/>
<stop offset="0.7301" stop-color="#364A55"/>
<stop offset="0.7694" stop-color="#607078"/>
<stop offset="0.8282" stop-color="#98A2A8"/>
<stop offset="0.8828" stop-color="#C4CACE"/>
<stop offset="0.9314" stop-color="#E4E7E9"/>
<stop offset="0.9721" stop-color="#F8F9F9"/>
<stop offset="1" stop-color="white"/>
</linearGradient>
<linearGradient id="paint6_linear_2_9467" x1="4.9317" y1="23.1097" x2="56.9855" y2="23.1097" gradientUnits="userSpaceOnUse">
<stop stop-color="#C3CED4"/>
<stop offset="0.0566536" stop-color="#96A6AE"/>
<stop offset="0.0935974" stop-color="#768993"/>
<stop offset="0.157" stop-color="#31454F"/>
<stop offset="0.1718" stop-color="#20343E"/>
<stop offset="0.1756" stop-color="#22353F"/>
<stop offset="0.3499" stop-color="#647279"/>
<stop offset="0.5154" stop-color="#9BA4A9"/>
<stop offset="0.6678" stop-color="#C6CBCE"/>
<stop offset="0.804" stop-color="#E5E8E9"/>
<stop offset="0.9194" stop-color="#F8F9F9"/>
<stop offset="1" stop-color="white"/>
</linearGradient>
<linearGradient id="paint7_linear_2_9467" x1="1.21432" y1="28.4576" x2="37.3371" y2="28.4576" gradientUnits="userSpaceOnUse">
<stop stop-color="#364A55"/>
<stop offset="0.00894797" stop-color="#354853"/>
<stop offset="0.1745" stop-color="#222E35"/>
<stop offset="0.349" stop-color="#131A1E"/>
<stop offset="0.535" stop-color="#080B0D"/>
<stop offset="0.7399" stop-color="#020303"/>
<stop offset="1"/>
</linearGradient>
<linearGradient id="paint8_linear_2_9467" x1="22.0548" y1="36.2241" x2="73.6614" y2="36.2241" gradientUnits="userSpaceOnUse">
<stop/>
<stop offset="0.7853"/>
<stop offset="0.8162" stop-color="#10171B"/>
<stop offset="0.8497" stop-color="#1C2930"/>
<stop offset="0.8872" stop-color="#25353F"/>
<stop offset="0.9316" stop-color="#2A3D47"/>
<stop offset="1" stop-color="#2C3F4A"/>
</linearGradient>
<linearGradient id="paint9_linear_2_9467" x1="51.8875" y1="32.1379" x2="51.8875" y2="4.42472" gradientUnits="userSpaceOnUse">
<stop stop-color="#20343E"/>
<stop offset="0.25" stop-color="#20343E"/>
<stop offset="0.4228" stop-color="#A3ABAF"/>
<stop offset="0.55" stop-color="white"/>
<stop offset="1" stop-color="white"/>
</linearGradient>
<linearGradient id="paint10_linear_2_9467" x1="28.6562" y1="18.8587" x2="24.7494" y2="8.18786" gradientUnits="userSpaceOnUse">
<stop stop-color="#20343E"/>
<stop offset="0.2577" stop-color="#20343E"/>
<stop offset="0.3056" stop-color="#3B4C55"/>
<stop offset="0.4632" stop-color="#8E989D"/>
<stop offset="0.5923" stop-color="#CBD0D2"/>
<stop offset="0.6866" stop-color="#F1F2F3"/>
<stop offset="0.7362" stop-color="white"/>
<stop offset="1" stop-color="white"/>
</linearGradient>
<linearGradient id="paint11_linear_2_9467" x1="14.0045" y1="41.5254" x2="52.2003" y2="41.5254" gradientUnits="userSpaceOnUse">
<stop stop-color="#282829"/>
<stop offset="0.0326771" stop-color="#252D32"/>
<stop offset="0.0613556" stop-color="#20343E"/>
<stop offset="0.0836423" stop-color="#384C56"/>
<stop offset="0.1164" stop-color="#556974"/>
<stop offset="0.135" stop-color="#60747F"/>
<stop offset="0.2759" stop-color="#919FA6"/>
<stop offset="0.4328" stop-color="#C0C8CC"/>
<stop offset="0.5716" stop-color="#E2E6E8"/>
<stop offset="0.6857" stop-color="#F7F8F9"/>
<stop offset="0.7607" stop-color="white"/>
<stop offset="1" stop-color="white"/>
</linearGradient>
<linearGradient id="paint12_linear_2_9467" x1="59.2669" y1="35.8296" x2="46.3644" y2="51.616" gradientUnits="userSpaceOnUse">
<stop stop-color="#20343E"/>
<stop offset="0.0410524" stop-color="#273B45"/>
<stop offset="0.1027" stop-color="#3C505A"/>
<stop offset="0.1771" stop-color="#5D717B"/>
<stop offset="0.1841" stop-color="#60747F"/>
<stop offset="0.1852" stop-color="#617580"/>
<stop offset="0.2436" stop-color="#919FA6"/>
<stop offset="0.3018" stop-color="#B8C1C6"/>
<stop offset="0.3587" stop-color="#D7DCDF"/>
<stop offset="0.4141" stop-color="#EDEFF1"/>
<stop offset="0.4671" stop-color="#FBFBFB"/>
<stop offset="0.5153" stop-color="white"/>
<stop offset="1" stop-color="white"/>
</linearGradient>
<linearGradient id="paint13_linear_2_9467" x1="39.5778" y1="32.2988" x2="39.5778" y2="3.52757" gradientUnits="userSpaceOnUse">
<stop stop-color="white"/>
<stop offset="0.4" stop-color="white"/>
<stop offset="0.4016" stop-color="#FDFDFD"/>
<stop offset="0.4413" stop-color="#C2C2C2"/>
<stop offset="0.482" stop-color="#8E8E8E"/>
<stop offset="0.5228" stop-color="#636363"/>
<stop offset="0.5637" stop-color="#3F3F3F"/>
<stop offset="0.6047" stop-color="#232323"/>
<stop offset="0.6459" stop-color="#101010"/>
<stop offset="0.6875" stop-color="#040404"/>
<stop offset="0.73"/>
<stop offset="1"/>
</linearGradient>
<linearGradient id="paint14_linear_2_9467" x1="38.9793" y1="56.2743" x2="38.9793" y2="27.6457" gradientUnits="userSpaceOnUse">
<stop/>
<stop offset="0.039187" stop-color="#0A0A0A"/>
<stop offset="0.1057" stop-color="#252525"/>
<stop offset="0.1915" stop-color="#505050"/>
<stop offset="0.2932" stop-color="#8D8D8D"/>
<stop offset="0.407" stop-color="#D9D9D9"/>
<stop offset="0.4601" stop-color="white"/>
<stop offset="1" stop-color="white"/>
</linearGradient>
<linearGradient id="paint15_linear_2_9467" x1="66.3538" y1="31.5495" x2="72.7471" y2="31.5495" gradientUnits="userSpaceOnUse">
<stop stop-color="#20343E"/>
<stop offset="0.0739136" stop-color="#20343E"/>
<stop offset="0.0775464" stop-color="#22353F"/>
<stop offset="0.2436" stop-color="#647279"/>
<stop offset="0.4014" stop-color="#9BA4A9"/>
<stop offset="0.5465" stop-color="#C6CBCE"/>
<stop offset="0.6764" stop-color="#E5E8E9"/>
<stop offset="0.7863" stop-color="#F8F9F9"/>
<stop offset="0.8631" stop-color="white"/>
<stop offset="1" stop-color="white"/>
</linearGradient>
<linearGradient id="paint16_linear_2_9467" x1="15.0157" y1="23.2891" x2="22.5614" y2="23.2891" gradientUnits="userSpaceOnUse">
<stop stop-color="#20343E"/>
<stop offset="0.0355835" stop-color="#20343E"/>
<stop offset="0.0968997" stop-color="#4C5C64"/>
<stop offset="0.1654" stop-color="#768288"/>
<stop offset="0.2399" stop-color="#9BA4A8"/>
<stop offset="0.3195" stop-color="#BAC0C3"/>
<stop offset="0.4059" stop-color="#D3D7D9"/>
<stop offset="0.5017" stop-color="#E7E9EA"/>
<stop offset="0.6119" stop-color="#F5F6F6"/>
<stop offset="0.7496" stop-color="#FDFDFD"/>
<stop offset="1" stop-color="white"/>
</linearGradient>
<linearGradient id="paint17_linear_2_9467" x1="63.2657" y1="32.2945" x2="63.2657" y2="11.4898" gradientUnits="userSpaceOnUse">
<stop/>
<stop offset="0.3681"/>
<stop offset="0.4455" stop-color="#2F2F2F"/>
<stop offset="0.5595" stop-color="#6D6D6D"/>
<stop offset="0.669" stop-color="#A1A1A1"/>
<stop offset="0.7706" stop-color="#CACACA"/>
<stop offset="0.8627" stop-color="#E7E7E7"/>
<stop offset="0.9422" stop-color="#F9F9F9"/>
<stop offset="1" stop-color="white"/>
</linearGradient>
<linearGradient id="paint18_linear_2_9467" x1="12.22" y1="23.7808" x2="19.7031" y2="10.896" gradientUnits="userSpaceOnUse">
<stop/>
<stop offset="0.1227"/>
<stop offset="0.177" stop-color="#0D0D0D"/>
<stop offset="0.2767" stop-color="#2E2E2E"/>
<stop offset="0.4106" stop-color="#646464"/>
<stop offset="0.5721" stop-color="#AEAEAE"/>
<stop offset="0.7335" stop-color="white"/>
<stop offset="1" stop-color="white"/>
</linearGradient>
<linearGradient id="paint19_linear_2_9467" x1="40.3795" y1="34.4114" x2="37.3597" y2="22.9387" gradientUnits="userSpaceOnUse">
<stop stop-color="#A1B1B9"/>
<stop offset="0.546" stop-color="white"/>
<stop offset="1" stop-color="white"/>
</linearGradient>
<clipPath id="clip0_2_9467">
<rect width="78" height="60" fill="white"/>
</clipPath>
</defs>
</svg>
