<svg width="72" height="61" viewBox="0 0 72 61" fill="none" xmlns="http://www.w3.org/2000/svg">
<mask id="mask0_2_43947" style="mask-type:luminance" maskUnits="userSpaceOnUse" x="20" y="2" width="30" height="38">
<path d="M34.7035 30.1458C33.1035 27.1476 32.0552 25.0761 30.5655 21.7509C30.4552 21.4783 30.3448 21.2602 30.3448 20.9877C30.3448 20.7151 30.4552 20.4971 30.5655 20.2245C32.0552 16.8992 33.1586 14.8277 34.7035 11.8295C34.8138 11.666 34.869 11.5569 34.9793 11.5569C35.0897 11.5569 35.1448 11.666 35.2552 11.8295C36.8552 14.8277 37.9035 16.8992 39.3931 20.2245C39.5035 20.4971 39.6138 20.7151 39.6138 20.9877C39.6138 21.2602 39.5035 21.4783 39.3931 21.7509C37.9035 25.0761 36.8 27.1476 35.2552 30.1458C35.1448 30.3094 35.0897 30.4184 34.9793 30.4184C34.869 30.4729 34.8138 30.3639 34.7035 30.1458ZM30.6759 2.39875C30.5103 2.39875 30.4552 2.45326 30.4 2.45326C30.3448 2.50778 30.2897 2.56229 30.1793 2.72583C29.7931 3.27096 26.3172 8.99482 24.0552 12.9743C22.4552 15.8089 20.9103 18.8617 20.2483 20.279C20.0828 20.6606 20.0276 20.8786 20.0276 20.9877C20.0276 21.2057 20.0828 21.4238 20.2483 21.6963C20.9103 23.1137 22.5103 26.1119 24.0552 29.0011C26.3172 33.035 29.7931 38.7589 30.1793 39.2495C30.2345 39.304 30.2897 39.4131 30.3448 39.4131C30.4 39.5221 30.5103 39.5766 30.5655 39.5766C30.6759 39.6311 30.8414 39.5766 31.0069 39.5766C31.0621 39.5766 31.1724 39.5766 31.2828 39.5766C32.1655 39.6311 33.6 39.6311 35.0345 39.6311C36.8552 39.6311 39.0069 39.5766 39.2828 39.5221H39.3379C39.4483 39.5221 39.5034 39.4676 39.5586 39.4676C39.6138 39.4131 39.669 39.3585 39.8345 39.195C40.2207 38.7044 43.6966 32.9805 45.9586 28.9466C47.5586 26.1119 49.1034 23.0592 49.7655 21.6418C49.931 21.2602 49.9862 20.9877 49.9862 20.8786C49.9862 20.6606 49.931 20.4971 49.7655 20.17C49.1034 18.7526 47.5035 15.7544 45.9586 12.8652C43.6966 8.99482 40.1655 3.21645 39.8345 2.72583C39.7241 2.6168 39.669 2.50778 39.5586 2.45326C39.5034 2.39875 39.4483 2.39875 39.3931 2.39875C39.2828 2.39875 39.1172 2.39875 38.9517 2.39875C38.8966 2.39875 38.7862 2.39875 38.6759 2.39875C37.9035 2.34424 36.4138 2.34424 34.9241 2.34424C33.1586 2.34424 30.9517 2.39875 30.6759 2.39875Z" fill="white"/>
</mask>
<g mask="url(#mask0_2_43947)">
<path d="M49.9862 2.34424H20.0276V39.6856H49.9862V2.34424Z" fill="url(#paint0_linear_2_43947)"/>
</g>
<mask id="mask1_2_43947" style="mask-type:luminance" maskUnits="userSpaceOnUse" x="20" y="2" width="30" height="38">
<path d="M49.9862 2.34424H20.0276V39.6856H49.9862V2.34424Z" fill="white"/>
</mask>
<g mask="url(#mask1_2_43947)">
<mask id="mask2_2_43947" style="mask-type:luminance" maskUnits="userSpaceOnUse" x="20" y="2" width="30" height="38">
<path d="M34.9793 11.5569C35.0897 11.5569 35.1448 11.666 35.2552 11.8295C36.8552 14.8277 37.9035 16.8992 39.3931 20.2245C39.5035 20.4971 39.6138 20.7151 39.6138 20.9877C39.6138 21.2602 39.5035 21.4783 39.3931 21.7509C37.9035 25.0761 36.8 27.1476 35.2552 30.1458C35.1448 30.3094 35.0897 30.4184 34.9793 30.4184C34.869 30.4184 34.8138 30.3094 34.7035 30.1458C33.1035 27.1476 32.0552 25.0761 30.5655 21.7509C30.4552 21.4783 30.3448 21.2602 30.3448 20.9877C30.3448 20.7151 30.4552 20.4971 30.5655 20.2245C32.0552 16.8992 33.1586 14.8277 34.7035 11.8295C34.8138 11.666 34.869 11.5569 34.9793 11.5569ZM30.6759 2.39875C30.5103 2.39875 30.4552 2.45326 30.4 2.45326C30.3448 2.50778 30.2897 2.56229 30.1793 2.72583C29.7931 3.27096 26.3172 8.99482 24.0552 12.9743C22.4552 15.8089 20.9103 18.8617 20.2483 20.279C20.0828 20.6606 20.0276 20.8786 20.0276 20.9877C20.0276 21.2057 20.0828 21.4238 20.2483 21.6963C20.9103 23.1137 22.5103 26.1119 24.0552 29.0011C26.3172 33.035 29.7931 38.7589 30.1793 39.2495C30.2345 39.304 30.2897 39.4131 30.3448 39.4131C30.4 39.5221 30.5103 39.5221 30.5655 39.5766C30.6759 39.6311 30.8414 39.5766 30.9517 39.5766C31.0069 39.5766 31.1172 39.5766 31.2276 39.5766C32.1103 39.6311 33.4897 39.6311 34.9241 39.6311H34.9793C36.8 39.6311 38.9517 39.5766 39.2276 39.5221H39.2828C39.3931 39.5221 39.4483 39.4676 39.5035 39.4676C39.5586 39.4131 39.6138 39.3585 39.7793 39.195C40.1655 38.7044 43.6414 32.9805 45.9034 28.9466C47.5034 26.1119 49.0483 23.0592 49.7103 21.6418C49.8759 21.2602 49.931 20.9877 49.931 20.8786C49.931 20.6606 49.8759 20.4971 49.7103 20.17C49.0483 18.7526 47.4483 15.7544 45.9034 12.8652C43.6966 8.99482 40.1655 3.21645 39.8345 2.72583C39.7241 2.6168 39.669 2.50778 39.5586 2.45326C39.5034 2.39875 39.4483 2.39875 39.3931 2.39875C39.2828 2.39875 39.1172 2.39875 38.9517 2.39875C38.8966 2.39875 38.7862 2.39875 38.6759 2.39875C37.9035 2.34424 36.4138 2.34424 34.9241 2.34424C33.1586 2.34424 30.9517 2.39875 30.6759 2.39875Z" fill="white"/>
</mask>
<g mask="url(#mask2_2_43947)">
<path d="M49.9862 2.34424H20.0276V39.6856H49.9862V2.34424Z" fill="url(#paint1_radial_2_43947)"/>
</g>
</g>
<mask id="mask3_2_43947" style="mask-type:luminance" maskUnits="userSpaceOnUse" x="20" y="20" width="15" height="20">
<path d="M28.8552 20.9874C28.7449 21.0965 28.5242 21.2055 27.9173 21.2055C27.4207 21.2055 23.2276 21.2055 21.2414 21.2055C20.9656 21.2055 20.5793 21.2055 20.5793 21.6416C20.5793 21.9142 20.8 22.4593 21.2966 23.386C23.9449 28.5102 26.869 33.6345 30.0138 38.5951C30.0138 38.5951 30.5104 39.3583 30.5656 39.4128C30.6207 39.4673 30.6759 39.5219 30.7862 39.5219C30.7862 39.5219 32.7725 35.924 34.4276 31.9445C32.6069 28.6738 30.9518 25.403 29.4069 22.1867C29.4069 22.1867 28.9656 21.369 28.9656 21.042C28.9656 20.9874 28.9656 20.9874 28.9656 20.9329C28.9656 20.8784 28.9656 20.8784 28.9656 20.8784C28.9104 20.9329 28.9104 20.9874 28.8552 20.9874Z" fill="white"/>
</mask>
<g mask="url(#mask3_2_43947)">
<path d="M34.4276 20.9331H20.5793V39.5765H34.4276V20.9331Z" fill="url(#paint2_linear_2_43947)"/>
</g>
<mask id="mask4_2_43947" style="mask-type:luminance" maskUnits="userSpaceOnUse" x="31" y="20" width="19" height="20">
<path d="M49.5999 21.0421C49.5447 21.0966 49.324 21.2057 48.8827 21.2057H43.3654C40.8275 21.2057 41.1033 21.1512 40.4413 22.4595C40.1654 23.0591 39.8344 23.7133 39.5585 24.3129C37.3516 28.8375 31.9999 37.9957 31.2827 39.1404C31.0068 39.5765 30.9516 39.5765 31.1723 39.5765C31.1723 39.5765 32.993 39.631 35.0344 39.631C38.1792 39.631 39.3378 39.522 39.3378 39.522C41.1585 36.6874 45.5723 29.5462 48.662 23.3317C49.3792 21.9143 49.7654 21.2602 49.7102 20.9876V20.9331C49.6551 21.0421 49.5999 21.0421 49.5999 21.0421Z" fill="white"/>
</mask>
<g mask="url(#mask4_2_43947)">
<path d="M49.7103 21.042H30.9517V39.6854H49.7103V21.042Z" fill="url(#paint3_linear_2_43947)"/>
</g>
<mask id="mask5_2_43947" style="mask-type:luminance" maskUnits="userSpaceOnUse" x="29" y="2" width="11" height="19">
<path d="M39.1171 2.45312C39.0067 2.45312 38.8964 2.56215 38.7309 2.83472C37.186 5.23329 31.8343 15.2092 29.6274 19.8428C29.3516 20.3879 29.2412 20.715 29.2412 20.9875H30.3998C30.3998 20.715 30.5102 20.4969 30.6205 20.2243C32.1102 16.8991 33.2136 14.8276 34.7585 11.8294C34.8688 11.6658 34.924 11.5568 35.0343 11.5568L35.4757 10.303C36.9654 6.48708 39.1171 2.45312 39.1171 2.45312Z" fill="white"/>
</mask>
<g mask="url(#mask5_2_43947)">
<path d="M39.1171 2.45312H29.186V20.9875H39.1171V2.45312Z" fill="url(#paint4_linear_2_43947)"/>
</g>
<mask id="mask6_2_43947" style="mask-type:luminance" maskUnits="userSpaceOnUse" x="34" y="10" width="7" height="11">
<path d="M34.9792 11.557C35.0896 11.557 35.1448 11.666 35.2551 11.8296C36.8551 14.8278 37.9034 16.8993 39.393 20.2246C39.5034 20.4971 39.6137 20.7152 39.6137 20.9878H40.7724C40.7724 20.7152 40.662 20.4426 40.3861 19.8975C38.8965 16.7358 37.2965 13.6285 35.4758 10.3032L34.9792 11.557Z" fill="white"/>
</mask>
<g mask="url(#mask6_2_43947)">
<path d="M40.7724 10.3032H34.9792V21.0423H40.7724V10.3032Z" fill="url(#paint5_linear_2_43947)"/>
</g>
<mask id="mask7_2_43947" style="mask-type:luminance" maskUnits="userSpaceOnUse" x="29" y="20" width="6" height="12">
<path d="M29.6277 22.1326C31.1173 25.2943 32.7173 28.4016 34.538 31.7268L34.9794 30.4185C34.869 30.4185 34.8139 30.3095 34.7035 30.146C33.1035 27.1478 32.0552 25.0763 30.5656 21.751C30.4552 21.4784 30.3449 21.2604 30.3449 20.9878H29.1863C29.1863 21.2604 29.3518 21.5874 29.6277 22.1326Z" fill="white"/>
</mask>
<g mask="url(#mask7_2_43947)">
<path d="M34.9794 20.9878H29.1863V31.7268H34.9794V20.9878Z" fill="url(#paint6_linear_2_43947)"/>
</g>
<mask id="mask8_2_43947" style="mask-type:luminance" maskUnits="userSpaceOnUse" x="29" y="20" width="6" height="12">
<path d="M29.6277 22.1326C31.1173 25.2943 32.7173 28.4016 34.538 31.7268L34.9794 30.4185C34.869 30.4185 34.8139 30.3095 34.7035 30.146C33.1035 27.1478 32.0552 25.0763 30.5656 21.751C30.4552 21.4784 30.3449 21.2604 30.3449 20.9878H29.1863C29.1863 21.2604 29.3518 21.5874 29.6277 22.1326Z" fill="white"/>
</mask>
<g mask="url(#mask8_2_43947)">
<path d="M33.9863 33.9074L25.1587 29.9279L30.1794 18.8618L39.0621 22.8413L33.9863 33.9074Z" fill="url(#paint7_linear_2_43947)"/>
</g>
<mask id="mask9_2_43947" style="mask-type:luminance" maskUnits="userSpaceOnUse" x="30" y="21" width="11" height="19">
<path d="M39.6137 21.042C39.6137 21.3146 39.5034 21.5326 39.393 21.8052C37.9034 25.1305 36.7999 27.202 35.2551 30.2002C35.1448 30.3637 35.0896 30.4727 34.9792 30.4727L34.5379 31.781C32.8827 35.815 30.8413 39.5764 30.8413 39.5764C30.9517 39.5764 31.1172 39.4129 31.2827 39.1948C31.3379 39.1403 31.393 39.0313 31.4482 38.9222C32.6068 36.9598 38.2896 26.6568 40.331 22.2413C40.6068 21.6961 40.7172 21.3691 40.7172 21.0965H39.6137V21.042Z" fill="white"/>
</mask>
<g mask="url(#mask9_2_43947)">
<path d="M40.7723 21.042H30.8413V39.5764H40.7723V21.042Z" fill="url(#paint8_linear_2_43947)"/>
</g>
<mask id="mask10_2_43947" style="mask-type:luminance" maskUnits="userSpaceOnUse" x="19" y="20" width="12" height="21">
<path d="M19.2551 20.9878C19.2551 21.2604 19.3103 21.5329 19.531 22.0235C20.0275 23.1683 21.5172 26.003 23.3931 29.3283C25.4344 32.9806 29.131 39.0861 29.5724 39.6857C29.7379 39.9038 29.9034 40.0673 30.0137 40.1218L30.2896 39.4132C30.2344 39.3587 30.1793 39.3041 30.1241 39.2496C29.7379 38.759 26.262 33.0352 24 29.0012C22.4 26.1665 20.8551 23.1138 20.1931 21.6965C20.0827 21.4239 19.9724 21.1513 19.9724 20.9878H19.2551Z" fill="white"/>
</mask>
<g mask="url(#mask10_2_43947)">
<path d="M30.2896 20.9878H19.2551V40.1218H30.2896V20.9878Z" fill="url(#paint9_linear_2_43947)"/>
</g>
<mask id="mask11_2_43947" style="mask-type:luminance" maskUnits="userSpaceOnUse" x="30" y="39" width="10" height="2">
<path d="M30.0137 40.1764C30.2344 40.2855 30.3999 40.34 30.6206 40.34C31.1723 40.3945 33.5999 40.449 34.9792 40.449C36.3585 40.449 38.9516 40.3945 39.3378 40.34C39.5033 40.34 39.6688 40.2855 39.8344 40.231L39.5585 39.5223C39.5033 39.5223 39.4482 39.5768 39.3378 39.5768H39.2826C38.9516 39.6313 36.8551 39.6858 35.0344 39.6858C33.5447 39.6858 32.1654 39.6313 31.2826 39.6313C31.2275 39.6313 31.1171 39.6313 31.0068 39.6313C30.8413 39.6313 30.6757 39.6858 30.5654 39.6313C30.4551 39.6313 30.3999 39.5768 30.3447 39.4678L30.0137 40.1764Z" fill="white"/>
</mask>
<g mask="url(#mask11_2_43947)">
<path d="M32.4964 35.2705L40.2757 39.6861L37.4068 44.5922L29.6274 40.1767L32.4964 35.2705Z" fill="url(#paint10_linear_2_43947)"/>
</g>
<mask id="mask12_2_43947" style="mask-type:luminance" maskUnits="userSpaceOnUse" x="39" y="1" width="12" height="21">
<path d="M39.5586 2.45347C39.6138 2.50798 39.7241 2.61701 39.8345 2.72604C40.2207 3.21665 43.6965 8.94051 45.9586 12.9745C47.5586 15.8091 49.1034 18.8619 49.7655 20.2792C49.8758 20.5518 49.9862 20.7698 49.9862 20.9879L50.7034 21.0424C50.7034 20.8243 50.6483 20.4973 50.4276 20.0066C49.8758 18.8619 48.1103 15.373 46.5655 12.7019C44.5793 9.04954 40.8276 2.88958 40.3862 2.28993C40.1655 1.96286 40 1.85383 39.8345 1.79932L39.5586 2.45347Z" fill="white"/>
</mask>
<g mask="url(#mask12_2_43947)">
<path d="M42.0965 -2.83447L58.8689 6.21468L48.1103 25.6758L31.3379 16.5721L42.0965 -2.83447Z" fill="url(#paint11_linear_2_43947)"/>
</g>
<mask id="mask13_2_43947" style="mask-type:luminance" maskUnits="userSpaceOnUse" x="30" y="1" width="10" height="2">
<path d="M30.5654 1.69008C30.3999 1.69008 30.2344 1.74459 30.124 1.79911L30.3999 2.50777C30.4551 2.45326 30.5102 2.45326 30.6757 2.45326C30.9516 2.39875 33.1585 2.34424 34.9792 2.34424C36.4689 2.34424 37.9585 2.39875 38.7309 2.39875C38.7861 2.39875 38.8964 2.39875 39.0068 2.39875C39.1723 2.39875 39.3378 2.34424 39.4482 2.39875C39.5033 2.39875 39.5585 2.45326 39.6137 2.45326L39.8895 1.79911C39.724 1.74459 39.5585 1.69008 39.393 1.69008C38.8413 1.63557 36.3585 1.58105 35.0344 1.58105C33.8757 1.58105 31.2275 1.63557 30.5654 1.69008Z" fill="white"/>
</mask>
<g mask="url(#mask13_2_43947)">
<path d="M39.1171 5.01515L29.9033 2.39853L30.8413 -0.926758L40.055 1.68986L39.1171 5.01515Z" fill="url(#paint12_linear_2_43947)"/>
</g>
<mask id="mask14_2_43947" style="mask-type:luminance" maskUnits="userSpaceOnUse" x="19" y="1" width="12" height="20">
<path d="M29.5172 2.34427C29.0758 2.8894 25.3793 9.10388 23.3931 12.6472C22.0137 15.1548 19.7517 19.5159 19.531 19.952C19.3103 20.4426 19.2551 20.7697 19.2551 20.9877H19.9724C19.9724 20.8787 19.9724 20.6061 20.1931 20.279C20.8551 18.8617 22.4551 15.8635 24 12.9743C26.3172 8.99485 29.7931 3.27099 30.1793 2.72586C30.2896 2.56232 30.3448 2.50781 30.4551 2.4533L30.1793 1.74463C29.9034 1.90817 29.7379 2.07171 29.5172 2.34427Z" fill="white"/>
</mask>
<g mask="url(#mask14_2_43947)">
<path d="M12.7449 4.25225L28.9656 -1.90771L36.9104 18.5346L20.6897 24.6946L12.7449 4.25225Z" fill="url(#paint13_linear_2_43947)"/>
</g>
<mask id="mask15_2_43947" style="mask-type:luminance" maskUnits="userSpaceOnUse" x="39" y="20" width="12" height="21">
<path d="M49.7655 21.751C49.1034 23.1683 47.5034 26.1665 45.9586 29.0557C43.6965 33.0352 40.1655 38.759 39.8345 39.2496C39.6689 39.4677 39.6138 39.5222 39.5586 39.5222L39.8345 40.2309C40 40.1764 40.2207 40.0128 40.3862 39.7403C40.7724 39.1951 44.8 32.5991 46.5655 29.3828C48.331 26.1665 50.2069 22.5142 50.4276 22.0781C50.7034 21.5329 50.7034 21.2604 50.7034 21.0423L49.9862 20.9878C49.9862 21.0968 49.931 21.3694 49.7655 21.751Z" fill="white"/>
</mask>
<g mask="url(#mask15_2_43947)">
<path d="M50.7034 20.9878H39.5586V40.2309H50.7034V20.9878Z" fill="url(#paint14_linear_2_43947)"/>
</g>
<path d="M50.4275 19.9519C49.8758 18.7526 48.0551 15.3183 46.5655 12.6472C44.5241 8.9403 40.8275 2.83485 40.3862 2.28972C40 1.74459 39.7241 1.74459 39.3379 1.69008H39.2827C38.731 1.63557 36.3586 1.58105 34.9241 1.58105C33.7103 1.58105 31.1172 1.63557 30.5103 1.69008C29.9586 1.74459 29.7931 1.90813 29.462 2.34424C29.0206 2.94388 25.2689 9.15836 23.3379 12.6472C21.9034 15.1548 19.6965 19.5158 19.4758 19.9519C19.3103 20.388 19.2 20.7151 19.2 20.9877C19.2 21.3147 19.3103 21.6418 19.4758 22.0234C19.9172 23.0046 21.3517 25.7848 23.3379 29.3281C25.3793 33.035 29.131 39.1405 29.5172 39.6856C29.9586 40.2307 30.1793 40.2853 30.5655 40.2853C31.1172 40.3398 33.6 40.3943 34.9241 40.3943C36.3586 40.3943 38.9517 40.3398 39.2827 40.2853C39.6137 40.2307 39.9448 40.2307 40.331 39.6856C40.7172 39.195 44.6896 32.5989 46.5103 29.3281C48.2206 26.2209 50.1517 22.514 50.3724 22.0234C50.5931 21.4783 50.6482 21.2057 50.6482 20.9877C50.7034 20.8241 50.6482 20.4425 50.4275 19.9519ZM50.2068 21.9689C49.9862 22.4595 48.0551 26.1664 46.3448 29.2736C44.5793 32.4899 40.5517 39.086 40.2206 39.5766C39.8896 40.0672 39.6689 40.0672 39.3379 40.1217C39.0068 40.1762 36.4137 40.2307 34.9793 40.2307C33.6551 40.2307 31.2275 40.1762 30.6206 40.1217C30.2896 40.0672 30.0689 40.0672 29.7379 39.5766C29.3517 39.0315 25.6551 32.9805 23.6137 29.2736C21.6275 25.7303 20.2482 22.9501 19.7517 21.9689C19.5862 21.5873 19.4758 21.3147 19.4758 20.9877C19.4758 20.7151 19.531 20.4425 19.7517 20.0064C19.9724 19.5158 22.1793 15.2093 23.6137 12.7017C25.5448 9.26738 29.2965 3.0529 29.7379 2.45326C30.0689 2.07167 30.1793 1.96265 30.6206 1.90813C31.2275 1.85362 33.7655 1.79911 34.9793 1.79911C36.4137 1.79911 38.731 1.85362 39.2827 1.90813H39.3379C39.6689 1.96265 39.8344 1.96265 40.2206 2.45326C40.662 2.99839 44.3034 9.04933 46.3448 12.7562C47.8344 15.4273 49.6 18.9162 50.2068 20.0609C50.4275 20.4971 50.4827 20.8786 50.4827 20.9877C50.4827 21.2057 50.4827 21.4783 50.2068 21.9689Z" fill="black"/>
<path d="M71.1174 51.1333V52.7142H67.7519V59.6918H65.545V52.7142H62.1794V51.1333H71.1174Z" fill="black"/>
<path d="M63.1724 58.111V59.6918H56V51.1333H58.2621V58.111H63.1724Z" fill="black"/>
<path d="M19.9173 58.111V59.6918H12.4138V51.1333H19.7517V52.7142H14.6207V54.6221H19.3104V56.1485H14.6207V58.111H19.9173Z" fill="black"/>
<path d="M8.38626 56.5301C9.32419 56.0395 9.93108 55.0037 9.93108 53.9135C9.93108 53.0413 9.65522 52.3326 9.1035 51.8965C8.44143 51.3513 7.61384 51.1333 6.12419 51.1333H0.937982L0.827637 51.6239C0.827637 51.6239 0.937982 51.7875 1.04833 51.951C1.21384 52.2236 1.21384 52.2781 1.21384 52.4961V59.6373H3.47591V56.9117H6.28971L7.77936 59.6373H10.2621L8.38626 56.5301ZM7.22764 55.1127C7.06212 55.2763 6.84143 55.3853 6.5104 55.3853H3.47591V52.7687H5.9035C6.62074 52.7687 7.00695 52.8232 7.28281 53.0413C7.55867 53.2593 7.66902 53.5319 7.66902 54.0225C7.61384 54.5131 7.5035 54.8947 7.22764 55.1127Z" fill="black"/>
<path d="M29.2967 51.1333V56.8026C28.8001 56.1485 28.2484 55.5488 27.3105 54.5131C26.538 53.6954 24.9932 52.0055 24.1656 51.1333H22.0139L21.9036 51.6239C21.9036 51.6239 22.0139 51.7875 22.1243 51.951C22.2346 52.169 22.2898 52.2236 22.2898 52.3326V59.5828H24.3311V54.0225C24.7174 54.5676 25.4346 55.3853 25.9312 55.8759C26.8691 56.9117 28.3036 58.4925 29.4622 59.6918H31.3932V51.1333H29.2967Z" fill="black"/>
<path d="M51.3104 51.1331V56.3664C51.3104 56.966 51.2 57.2931 50.9242 57.5657C50.5379 57.8927 49.9862 58.0563 49.1035 58.0563C48.2207 58.0563 47.6138 57.8927 47.2276 57.5657C46.9517 57.2931 46.8414 56.966 46.8414 56.3664V51.1331H44.3586L44.2483 51.6237C44.2483 51.6237 44.3586 51.7873 44.469 51.9508C44.5793 52.1689 44.6345 52.2234 44.6345 52.3324V56.3664C44.6345 58.6014 46.1793 59.7462 49.1035 59.7462C52.0828 59.7462 53.5173 58.6559 53.5173 56.3664V51.0786H51.3104V51.1331Z" fill="black"/>
<path d="M39.5587 51.1333H36.7449C35.9173 52.8777 34.4277 56.094 33.0483 59.6918H35.3104C35.4759 59.2012 35.6966 58.7106 35.8621 58.22H40.4966C40.7173 58.7106 40.8828 59.2012 41.0483 59.6918H43.3104C41.8759 56.094 40.3863 52.8777 39.5587 51.1333ZM36.469 56.5846C37.0759 55.1127 37.6276 53.7499 38.1242 52.7142C38.6208 53.8044 39.1725 55.1673 39.7794 56.5846H36.469Z" fill="black"/>
<defs>
<linearGradient id="paint0_linear_2_43947" x1="34.987" y1="39.689" x2="34.987" y2="2.33607" gradientUnits="userSpaceOnUse">
<stop stop-color="#ECECEF"/>
<stop offset="0.6866" stop-color="white"/>
<stop offset="0.9733" stop-color="#B3B3B8"/>
<stop offset="1" stop-color="#ABACB1"/>
</linearGradient>
<radialGradient id="paint1_radial_2_43947" cx="0" cy="0" r="1" gradientUnits="userSpaceOnUse" gradientTransform="translate(33.0336 11.969) scale(18.85 18.694)">
<stop stop-color="white"/>
<stop offset="0.401" stop-color="white"/>
<stop offset="0.949" stop-color="#B3B3B8"/>
<stop offset="1" stop-color="#ABACB1"/>
</radialGradient>
<linearGradient id="paint2_linear_2_43947" x1="27.5134" y1="39.5055" x2="27.5134" y2="21.1051" gradientUnits="userSpaceOnUse">
<stop stop-color="#ECECEF"/>
<stop offset="0.0104233" stop-color="#ECECEF"/>
<stop offset="0.3385" stop-color="#BCBDC2"/>
<stop offset="0.5508" stop-color="#817F83"/>
<stop offset="0.6941" stop-color="#5B5A5F"/>
<stop offset="0.8452" stop-color="#434144"/>
<stop offset="0.8758" stop-color="#3E3C3F"/>
<stop offset="0.9296" stop-color="#322F31"/>
<stop offset="0.948" stop-color="#2D2A2B"/>
<stop offset="0.9568" stop-color="#2E2C2D"/>
<stop offset="0.9649" stop-color="#343233"/>
<stop offset="0.9728" stop-color="#3E3C3D"/>
<stop offset="0.9806" stop-color="#4C4A4C"/>
<stop offset="0.9882" stop-color="#5F5D60"/>
<stop offset="0.9956" stop-color="#77777A"/>
<stop offset="1" stop-color="#89898E"/>
</linearGradient>
<linearGradient id="paint3_linear_2_43947" x1="40.3273" y1="39.5052" x2="40.3273" y2="21.0886" gradientUnits="userSpaceOnUse">
<stop stop-color="#ECECEF"/>
<stop offset="0.0104233" stop-color="#ECECEF"/>
<stop offset="0.3385" stop-color="#BCBDC2"/>
<stop offset="0.5508" stop-color="#817F83"/>
<stop offset="0.6941" stop-color="#5B5A5F"/>
<stop offset="0.8452" stop-color="#434144"/>
<stop offset="0.8776" stop-color="#3E3C3F"/>
<stop offset="0.9343" stop-color="#322F31"/>
<stop offset="0.9538" stop-color="#2D2A2B"/>
<stop offset="0.9616" stop-color="#2E2C2D"/>
<stop offset="0.9688" stop-color="#343233"/>
<stop offset="0.9758" stop-color="#3E3C3D"/>
<stop offset="0.9827" stop-color="#4C4A4C"/>
<stop offset="0.9895" stop-color="#5F5D60"/>
<stop offset="0.9961" stop-color="#77777A"/>
<stop offset="1" stop-color="#89898E"/>
</linearGradient>
<linearGradient id="paint4_linear_2_43947" x1="34.1753" y1="20.8898" x2="34.1753" y2="2.35294" gradientUnits="userSpaceOnUse">
<stop stop-color="#5B5A5F"/>
<stop offset="0.00727683" stop-color="#525155"/>
<stop offset="0.0174719" stop-color="#4A484C"/>
<stop offset="0.0281573" stop-color="#454346"/>
<stop offset="0.0400373" stop-color="#434144"/>
<stop offset="0.0955132" stop-color="#423F42"/>
<stop offset="0.1313" stop-color="#3E3B3D"/>
<stop offset="0.1615" stop-color="#373435"/>
<stop offset="0.1885" stop-color="#2D292A"/>
<stop offset="0.2136" stop-color="#201C1B"/>
<stop offset="0.2367" stop-color="#0F0B06"/>
<stop offset="0.2521"/>
<stop offset="1"/>
</linearGradient>
<linearGradient id="paint5_linear_2_43947" x1="37.8744" y1="21.0195" x2="37.8744" y2="10.2888" gradientUnits="userSpaceOnUse">
<stop stop-color="#949398"/>
<stop offset="0.1305" stop-color="#908F94"/>
<stop offset="0.283" stop-color="#858388"/>
<stop offset="0.4466" stop-color="#747276"/>
<stop offset="0.6181" stop-color="#5D5B5F"/>
<stop offset="0.794" stop-color="#434144"/>
<stop offset="0.7954" stop-color="#434144"/>
<stop offset="0.8164" stop-color="#413F41"/>
<stop offset="0.8383" stop-color="#3B383B"/>
<stop offset="0.8604" stop-color="#322E2F"/>
<stop offset="0.8828" stop-color="#24201F"/>
<stop offset="0.9052" stop-color="#110D08"/>
<stop offset="0.9207"/>
<stop offset="1"/>
</linearGradient>
<linearGradient id="paint6_linear_2_43947" x1="32.0956" y1="31.7607" x2="32.0956" y2="21.0244" gradientUnits="userSpaceOnUse">
<stop stop-color="#D0D0D4"/>
<stop offset="0.3571" stop-color="#D0D0D4"/>
<stop offset="0.4839" stop-color="#CCCBD0"/>
<stop offset="0.6277" stop-color="#C0BFC3"/>
<stop offset="0.7797" stop-color="#AAAAAE"/>
<stop offset="0.9366" stop-color="#8F8E93"/>
<stop offset="0.9631" stop-color="#89898E"/>
<stop offset="1" stop-color="#5B5A5F"/>
</linearGradient>
<linearGradient id="paint7_linear_2_43947" x1="36.3045" y1="28.249" x2="26.4608" y2="23.755" gradientUnits="userSpaceOnUse">
<stop stop-color="#F6F7F7"/>
<stop offset="0.0132" stop-color="#F6F7F7"/>
<stop offset="0.1096" stop-color="#F4F3F4"/>
<stop offset="1" stop-color="#F4F3F4"/>
</linearGradient>
<linearGradient id="paint8_linear_2_43947" x1="35.789" y1="39.4396" x2="35.789" y2="20.8921" gradientUnits="userSpaceOnUse">
<stop stop-color="white"/>
<stop offset="0.2364" stop-color="#FAFAFB"/>
<stop offset="0.5545" stop-color="#ECEBEE"/>
<stop offset="0.9178" stop-color="#D4D3D8"/>
<stop offset="0.9693" stop-color="#D0D0D4"/>
<stop offset="0.9913" stop-color="#949398"/>
<stop offset="1" stop-color="#949398"/>
</linearGradient>
<linearGradient id="paint9_linear_2_43947" x1="24.7978" y1="40.1736" x2="24.7978" y2="21.0136" gradientUnits="userSpaceOnUse">
<stop stop-color="#89898E"/>
<stop offset="0.1522" stop-color="#838388"/>
<stop offset="0.5767" stop-color="#76767B"/>
<stop offset="0.9698" stop-color="#727277"/>
<stop offset="0.9879" stop-color="#949499"/>
<stop offset="1" stop-color="#A7A8AD"/>
</linearGradient>
<linearGradient id="paint10_linear_2_43947" x1="31.2635" y1="37.8577" x2="38.6861" y2="42.195" gradientUnits="userSpaceOnUse">
<stop stop-color="#89898E"/>
<stop offset="0.019312" stop-color="#89898E"/>
<stop offset="0.0277784" stop-color="#7E7E82"/>
<stop offset="0.04852" stop-color="#68676B"/>
<stop offset="0.0686981" stop-color="#5A585C"/>
<stop offset="0.0878718" stop-color="#515054"/>
<stop offset="0.105" stop-color="#4F4D51"/>
<stop offset="1" stop-color="#4F4D51"/>
</linearGradient>
<linearGradient id="paint11_linear_2_43947" x1="36.9584" y1="6.98389" x2="53.4186" y2="16.1046" gradientUnits="userSpaceOnUse">
<stop stop-color="#7F7D82"/>
<stop offset="1" stop-color="#949398"/>
</linearGradient>
<linearGradient id="paint12_linear_2_43947" x1="39.3995" y1="3.29691" x2="30.4499" y2="0.699599" gradientUnits="userSpaceOnUse">
<stop stop-color="#7F7D82"/>
<stop offset="0.00955204" stop-color="#7F7D82"/>
<stop offset="0.0209257" stop-color="#8F8E93"/>
<stop offset="0.040802" stop-color="#A7A7AC"/>
<stop offset="0.0589767" stop-color="#B6B7BC"/>
<stop offset="0.0737603" stop-color="#BCBDC2"/>
<stop offset="0.5011" stop-color="#CFD0D3"/>
<stop offset="1" stop-color="#D0D0D4"/>
</linearGradient>
<linearGradient id="paint13_linear_2_43947" x1="16.738" y1="14.4812" x2="32.6774" y2="8.28857" gradientUnits="userSpaceOnUse">
<stop stop-color="#A7A8AD"/>
<stop offset="0.9868" stop-color="#949398"/>
<stop offset="1" stop-color="#D0D0D4"/>
</linearGradient>
<linearGradient id="paint14_linear_2_43947" x1="45.1197" y1="40.2331" x2="45.1197" y2="20.9676" gradientUnits="userSpaceOnUse">
<stop stop-color="#4F4D51"/>
<stop offset="0.0190238" stop-color="#4F4D51"/>
<stop offset="0.1296" stop-color="#545356"/>
<stop offset="0.4079" stop-color="#5E5E61"/>
<stop offset="0.6879" stop-color="#656568"/>
<stop offset="0.9698" stop-color="#67676B"/>
<stop offset="0.9869" stop-color="#828186"/>
<stop offset="1" stop-color="#949398"/>
</linearGradient>
</defs>
</svg>
