<svg width="78" height="62" viewBox="0 0 78 62" fill="none" xmlns="http://www.w3.org/2000/svg">
<path d="M55.3518 53.0098V56.3399H44.7356V55.4179C44.7356 53.9731 44.97 53.0098 46.6658 53.0098H55.3518ZM46.0178 50.9595C43.2328 50.9595 41.9506 52.4456 41.9506 54.8125V61.4864H44.7356V58.4178H55.3518V61.4864H58.1506V50.9595H46.0178ZM61.5561 50.9595V53.0098H68.105V61.4727H70.8901V53.0098H77.4528V50.9595H61.5561ZM24.0547 57.427C24.0547 58.8994 24.358 59.4223 25.9849 59.4223H37.6214V61.4727H25.3369C22.5519 61.4727 21.2559 60.2204 21.2559 57.8536V50.9595H37.6352V53.0098H24.0547V55.0739H37.0699V57.083H24.0547V57.427ZM4.11827 54.6198C3.26346 54.551 3.1118 54.2483 3.1118 53.7391C3.1118 53.2575 3.37376 52.9961 4.02176 52.9961H16.8715V50.9595H3.70465C1.82958 50.9595 0.547363 51.675 0.547363 53.7804C0.547363 55.8858 1.51247 56.6014 3.6495 56.7665L14.0727 57.6334C14.8724 57.7022 15.0929 57.9774 15.0929 58.5416C15.0929 59.092 14.8448 59.4223 14.1416 59.4223H1.05749V61.4727H14.3622C16.6509 61.4727 17.6574 60.5644 17.6574 58.404C17.6574 56.4362 16.7474 55.6519 14.5139 55.473L4.11827 54.6198Z" fill="#E30613"/>
<path d="M61.4321 23.6034L16.582 15.6497C16.582 15.6497 16.7061 10.6408 16.8026 7.98499C16.8991 5.32918 17.4506 3.71918 18.5536 2.74217C20.0702 1.40738 21.835 1.07712 26.0539 0.856951C35.8291 0.320283 45.7697 0.402848 58.2334 1.26977C59.5294 1.3661 60.0258 1.60003 60.2739 1.77892C60.8254 2.15046 60.8944 2.57704 61.046 4.79251C61.1701 6.56764 61.4459 12.5398 61.4459 12.5398C61.4459 12.5398 46.7348 12.0031 39.4965 12.0031C37.456 12.0031 35.8153 12.0169 34.4779 12.0444C33.5817 12.0582 33.1681 12.1407 32.8235 12.3059L61.4459 17.1634V23.6034H61.4321Z" fill="white"/>
<path d="M16.5682 17.356L61.4183 25.3096C61.4183 25.3096 61.2942 30.3185 61.1977 32.9743C61.1012 35.6302 60.5497 37.2402 59.4467 38.2172C57.9301 39.552 56.1653 39.8822 51.9464 40.1024C42.1712 40.6391 32.2306 40.5565 19.7669 39.6896C18.4709 39.5932 17.9745 39.3593 17.7264 39.1804C17.1749 38.8089 17.1059 38.3823 16.9543 36.1668C16.8302 34.3917 16.5544 28.4196 16.5544 28.4196C16.5544 28.4196 31.2655 28.9562 38.5038 28.9562C40.5443 28.9562 42.185 28.9425 43.5224 28.9149C44.4185 28.9012 44.8322 28.8186 45.1768 28.6535L16.5544 23.796V17.356H16.5682Z" fill="white"/>
<path d="M61.432 23.6034L16.582 15.6497C16.582 15.6497 16.7061 10.6408 16.8026 7.98499C16.8991 5.32918 17.4506 3.71918 18.5536 2.74217C20.0702 1.40738 21.835 1.07712 26.0539 0.856951C35.8291 0.320283 45.7697 0.402848 58.2334 1.26977C59.5294 1.3661 60.0257 1.60003 60.2739 1.77892C60.8254 2.15046 60.8943 2.57704 61.046 4.79251C61.1701 6.56764 61.4458 12.5398 61.4458 12.5398C61.4458 12.5398 46.7348 12.0031 39.4965 12.0031C37.456 12.0031 35.8153 12.0169 34.4779 12.0444C33.5817 12.0582 33.1681 12.1407 32.8234 12.3059L61.4458 17.1634V23.6034H61.432ZM16.5682 17.356L61.4183 25.3097C61.4183 25.3097 61.2942 30.3186 61.1977 32.9744C61.1012 35.6302 60.5497 37.2402 59.4467 38.2172C57.9301 39.552 56.1653 39.8823 51.9464 40.1025C42.1712 40.6391 32.2306 40.5566 19.7669 39.6896C18.4709 39.5933 17.9745 39.3594 17.7264 39.1805C17.1749 38.809 17.1059 38.3824 16.9543 36.1669C16.8302 34.3918 16.5544 28.4196 16.5544 28.4196C16.5544 28.4196 31.2655 28.9563 38.5038 28.9563C40.5443 28.9563 42.185 28.9425 43.5224 28.915C44.4185 28.9013 44.8322 28.8187 45.1768 28.6536L16.5544 23.796V17.356H16.5682ZM17.037 17.9202V23.397L46.1971 28.3508C46.1971 28.3508 45.7973 28.8875 45.3836 29.0801C44.97 29.2728 44.4461 29.3691 43.5361 29.3966C42.185 29.4242 40.5443 29.4379 38.5038 29.4379C32.1065 29.4379 19.7255 29.0113 17.0508 28.915C17.1197 30.4012 17.3403 34.6945 17.4368 36.1394C17.5885 38.3411 17.6574 38.5475 18.0021 38.7952C18.1262 38.8778 18.4984 39.1255 19.8082 39.2218C27.0052 39.7309 33.4852 39.9649 39.6206 39.9649C43.7567 39.9649 47.7826 39.8548 51.9188 39.6346C56.0136 39.4144 57.7233 39.1117 59.1296 37.8595C60.136 36.9788 60.6324 35.4101 60.7151 32.9607C60.784 30.7865 60.8943 26.9472 60.9219 25.7088L17.037 17.9202ZM60.9633 23.053V17.5762L31.8032 12.6223C31.8032 12.6223 32.203 12.0857 32.6166 11.893C33.0165 11.7004 33.5542 11.6041 34.4641 11.5765C35.8015 11.549 37.456 11.5353 39.4827 11.5353C45.88 11.5353 58.261 11.9618 60.9357 12.0582C60.8668 10.572 60.6462 6.27867 60.5497 4.83379C60.398 2.63208 60.3291 2.42567 59.9844 2.17798C59.8603 2.09541 59.488 1.84772 58.1782 1.7514C50.9813 1.24225 44.5013 1.00832 38.3659 1.00832C34.2297 1.00832 30.2039 1.1184 26.0677 1.33858C21.9728 1.55875 20.2632 1.86148 18.8569 3.11371C17.8504 3.99439 17.3541 5.56311 17.2714 8.01251C17.2024 10.1867 17.0921 14.0259 17.0646 15.2644L60.9633 23.053Z" fill="black"/>
<path d="M40.1719 31.3232C39.91 31.3232 38.6002 31.3232 38.3244 31.3232C32.3683 31.3232 25.9848 31.2819 18.195 30.8553L17.0645 28.9288L17.3678 28.9426L18.6638 30.4288C25.392 30.8003 31.5687 30.8829 38.3382 30.8829C38.614 30.8829 39.8962 30.8829 40.1857 30.8829C41.137 30.8829 42.2538 30.8829 43.2465 30.8416C46.6657 30.7315 47.6998 30.3737 50.0436 28.0069L50.8847 27.9243L50.54 28.2821C48.0169 30.8829 46.9829 31.1443 43.2603 31.2682C42.2538 31.3094 41.137 31.3232 40.1719 31.3232Z" fill="white"/>
<path d="M60.922 25.709L17.0371 17.9204V18.1956L17.7954 18.5947L17.8092 22.1862L17.0371 23.0394V23.3972L18.2228 22.4202V18.4158L60.2878 25.8741L60.922 25.709Z" fill="white"/>
<path d="M59.8327 25.7915C59.8051 26.5208 59.7776 27.4428 59.75 28.2822C59.7224 28.9977 59.7086 29.617 59.681 30.1949C59.6535 30.9793 59.6121 31.7636 59.5708 32.8232C59.4605 35.5478 58.84 36.4148 57.6543 37.1303C56.5238 37.8184 55.2002 37.9147 51.1743 38.1073C47.0933 38.3137 42.7365 38.4238 38.2143 38.4513C37.8696 38.4513 37.5249 38.4513 37.1802 38.4513C31.8859 38.4513 27.0465 38.1624 20.9664 37.6807C19.9323 37.5982 19.2705 37.5156 18.981 37.323C18.6639 37.1166 18.5812 37.0615 18.4846 35.7542C18.4709 35.5616 18.4571 35.3827 18.4433 35.2038C18.4157 34.7084 18.3743 34.2681 18.3468 33.6076C18.3192 32.9333 18.2778 32.2728 18.1813 30.8142L17.7815 30.1399C17.8642 31.6948 17.9194 33.0159 17.9469 33.7039C17.9745 34.3231 17.9745 34.736 18.0159 35.2313V35.2864C18.0297 35.4378 18.0297 35.6029 18.0435 35.768C18.1262 37.0753 18.2227 37.3367 18.7328 37.667C19.1051 37.9147 19.7944 38.011 20.925 38.0936C27.019 38.5614 31.8583 38.8642 37.1664 38.8642C37.5111 38.8642 37.8558 38.8642 38.2005 38.8642C42.7227 38.8366 47.0933 38.7128 51.1881 38.5064C55.2967 38.3 56.6478 38.2037 57.8749 37.4606C59.1985 36.6625 59.8879 35.713 59.9982 32.7957C60.0395 31.7499 60.0671 30.9655 60.1085 30.2087V30.1674C60.1636 28.9427 60.2188 27.6354 60.2877 25.8328L59.8327 25.7915Z" fill="url(#paint0_radial_2_44053)"/>
<path d="M59.8603 10.7369H59.6811C53.27 10.4204 46.7348 10.4617 39.3586 10.4617C38.8899 10.4617 38.3108 10.4617 37.6766 10.4755C35.7326 10.503 34.2298 10.503 33.3336 10.6681C31.3896 11.0122 31.4861 12.0167 32.2168 12.1543C32.3409 12.0442 32.4788 11.9479 32.6167 11.8791C33.0165 11.6864 33.5542 11.5901 34.4641 11.5626C35.8015 11.5351 37.456 11.5213 39.4827 11.5213C45.7284 11.5213 57.6406 11.9204 60.7151 12.0304C60.4808 11.6864 59.9568 10.8883 59.8603 10.7369Z" fill="url(#paint1_linear_2_44053)"/>
<path d="M58.9779 4.13215L59.2261 3.77437L59.1571 3.73309C58.84 3.51292 58.1645 3.37531 57.0477 3.29275C51.3122 2.89369 44.9562 2.646 40.4478 2.646C40.1445 2.646 39.8412 2.646 39.5378 2.646C38.5865 2.646 37.6903 2.65976 36.8355 2.65976C32.5063 2.68728 29.1147 2.72856 26.6192 2.86617C26.4123 2.87993 26.2055 2.89369 25.9987 2.89369C22.4416 3.08634 20.663 3.18266 19.2567 4.42113C18.3192 5.26053 17.9332 6.3889 17.8367 8.60438L17.7953 9.66395C17.7264 11.3428 17.6988 12.3886 17.6298 14.6316C17.5058 14.6866 17.1749 14.838 17.0646 14.893L17.0508 15.2508L18.071 14.838L18.0848 14.3288C18.14 12.3748 18.1813 11.1914 18.2503 9.67771L18.2916 8.61814C18.3744 6.54027 18.719 5.49446 19.5601 4.75138C20.8423 3.60924 22.5795 3.52668 26.0263 3.33403C26.2331 3.32027 26.4399 3.30651 26.6467 3.30651C29.1284 3.1689 32.5201 3.12762 36.8355 3.1001C37.6903 3.1001 38.5865 3.08634 39.5378 3.08634C39.8274 3.08634 40.1307 3.08634 40.434 3.08634C44.9287 3.08634 51.2708 3.33403 56.9925 3.73309C57.999 3.80189 58.647 3.92574 58.8952 4.09087L58.9779 4.13215Z" fill="white"/>
<path d="M17.8228 9.66391L17.8641 8.60434C17.9606 6.38886 18.3329 5.26049 19.2842 4.42108C19.491 4.2422 19.7116 4.07707 19.9322 3.93946C19.7254 3.52664 19.6703 3.14134 19.8081 2.85236C19.9322 2.61843 20.4286 2.20561 21.4902 1.82031C20.3596 2.08177 19.5738 2.46706 18.8706 3.10006C17.8641 3.98074 17.3678 5.54946 17.2851 7.99887C17.2161 9.99417 17.1334 13.3793 17.092 14.893C17.1748 14.8517 17.5194 14.7003 17.6573 14.6315C17.7125 12.3885 17.7538 11.3427 17.8228 9.66391Z" fill="url(#paint2_linear_2_44053)"/>
<path d="M59.4328 3.95309C59.7223 3.51275 60.1497 3.49899 60.5358 4.48976C60.3979 2.60454 60.3152 2.39813 59.9981 2.17796C59.874 2.0954 59.5017 1.8477 58.1919 1.75138C50.995 1.24223 44.5149 1.0083 38.3796 1.0083C34.2434 1.0083 30.2175 1.11839 26.0814 1.33856C24.0546 1.44864 22.607 1.57249 21.504 1.83394C20.4424 2.21924 19.946 2.63206 19.8219 2.86599C19.6703 3.15497 19.7392 3.55403 19.946 3.95309C21.2558 3.16873 23.0068 3.07241 26.0262 2.90728C26.233 2.89352 26.4398 2.87976 26.6466 2.87976C29.1421 2.74215 32.5338 2.70087 36.863 2.67334C37.7178 2.67334 38.614 2.65958 39.5653 2.65958C39.8548 2.65958 40.1582 2.65958 40.4753 2.65958C44.9837 2.65958 51.3397 2.90728 57.0752 3.30634C58.1919 3.3889 58.8675 3.52651 59.1846 3.74668L59.2535 3.78796C59.3087 3.82924 59.3776 3.88429 59.4328 3.95309Z" fill="url(#paint3_linear_2_44053)"/>
<path d="M60.922 11.7693L60.0534 10.3107C60.0397 9.12724 59.9294 6.67783 59.8466 5.65954C59.7501 4.68253 59.7088 4.26971 59.433 3.96698C59.3779 3.89817 59.3089 3.84313 59.2262 3.78809L58.978 4.14586C59.2538 4.35228 59.2951 4.53116 59.4054 5.70082C59.5019 6.7604 59.6674 9.42997 59.6812 10.4895L60.7152 12.0583L60.9358 12.072L60.922 11.7693Z" fill="url(#paint4_linear_2_44053)"/>
<path d="M60.5358 4.48978C60.1498 3.51277 59.7086 3.51277 59.4329 3.95312C59.7224 4.26961 59.75 4.68243 59.8465 5.64568C59.943 6.66397 60.0395 9.11338 60.0533 10.2968L60.9219 11.7554C60.8392 10.0766 60.6461 6.18235 60.5496 4.80628" fill="black"/>
<path d="M59.6809 10.4758C53.6973 10.1869 47.2448 10.0217 39.3585 10.0217C37.7867 10.0217 34.7122 10.0768 33.3059 10.1043C30.9207 10.1456 30.5071 11.6317 30.4933 12.1822L59.9015 18.9937V22.6265L60.9632 23.0531L17.0645 15.2646L18.0847 14.8517L18.0985 14.3426C18.0985 14.3426 18.195 11.2051 18.2639 9.69147L18.3053 8.6319C18.388 6.55403 18.7327 5.50822 19.5737 4.76514C20.856 3.623 22.5932 3.54044 26.04 3.34779C26.2468 3.33403 26.4536 3.32027 26.6604 3.32027C29.1421 3.18266 32.5338 3.14138 36.8492 3.11386C37.704 3.11386 38.6002 3.1001 39.5515 3.1001C39.841 3.1001 40.1444 3.1001 40.4477 3.1001C44.9423 3.1001 51.2845 3.34779 57.0062 3.74685C58.0127 3.81565 58.6607 3.9395 58.9089 4.10463L58.9778 4.14591C58.9778 4.14591 58.9778 4.14591 58.9916 4.14591L59.0054 4.15967C59.0192 4.15967 59.0192 4.17343 59.0329 4.17343C59.0467 4.17343 59.0467 4.18719 59.0605 4.18719C59.0743 4.18719 59.0743 4.20095 59.0743 4.20095C59.0743 4.21471 59.0881 4.21471 59.0881 4.21471C59.2535 4.3936 59.2949 4.6413 59.3776 5.46694C59.3776 5.53574 59.3914 5.60455 59.3914 5.67335C59.5155 6.74668 59.6671 9.41626 59.6809 10.4758Z" fill="url(#paint5_radial_2_44053)"/>
<path d="M59.6809 10.4758C53.6973 10.1869 47.2448 10.0217 39.3585 10.0217C37.7867 10.0217 34.7122 10.0768 33.3059 10.1043C30.9207 10.1456 30.5071 11.6317 30.4933 12.1822L59.9015 18.9937V22.6265L60.9632 23.0531L17.0645 15.2646L18.0847 14.8517L18.0985 14.3426C18.0985 14.3426 18.195 11.2051 18.2639 9.69147L18.3053 8.6319C18.388 6.55403 18.7327 5.50822 19.5737 4.76514C20.856 3.623 22.5932 3.54044 26.04 3.34779C26.2468 3.33403 26.4536 3.32027 26.6604 3.32027C29.1421 3.18266 32.5338 3.14138 36.8492 3.11386C37.704 3.11386 38.6002 3.1001 39.5515 3.1001C39.841 3.1001 40.1444 3.1001 40.4477 3.1001C44.9423 3.1001 51.2845 3.34779 57.0062 3.74685C58.0127 3.81565 58.6607 3.9395 58.9089 4.10463L58.9778 4.14591C58.9778 4.14591 58.9778 4.14591 58.9916 4.14591L59.0054 4.15967C59.0192 4.15967 59.0192 4.17343 59.0329 4.17343C59.0467 4.17343 59.0467 4.18719 59.0605 4.18719C59.0743 4.18719 59.0743 4.20095 59.0743 4.20095C59.0743 4.21471 59.0881 4.21471 59.0881 4.21471C59.2535 4.3936 59.2949 4.6413 59.3776 5.46694C59.3776 5.53574 59.3914 5.60455 59.3914 5.67335C59.5155 6.74668 59.6671 9.41626 59.6809 10.4758Z" fill="url(#paint6_radial_2_44053)"/>
<path d="M17.0371 18.1953L17.7954 18.5944L17.8092 22.1859L17.0371 23.0391V18.1953Z" fill="#B2B2B2"/>
<path d="M56.4962 39.139C56.8133 38.9326 56.9649 38.7399 57.0201 38.6298C57.1304 38.4097 57.0339 38.2033 56.8409 37.9693C55.7517 38.3133 54.2213 38.3959 51.1881 38.5473C47.107 38.7537 42.7365 38.8638 38.2005 38.9051C37.8558 38.9051 37.5111 38.9051 37.1664 38.9051C31.8583 38.9051 27.019 38.6161 20.925 38.1345C19.7944 38.0519 19.1051 37.9556 18.7328 37.7079C18.6087 37.6253 18.5122 37.5427 18.4295 37.4602C18.3881 37.5015 18.333 37.5565 18.264 37.6116C17.878 37.9556 17.6712 37.8868 17.5195 37.3501C17.616 38.451 17.7263 38.6161 17.9883 38.795C18.1124 38.8775 18.4846 39.1252 19.7944 39.2216C26.9914 39.7307 33.4714 39.9646 39.6068 39.9646C43.7429 39.9646 47.7688 39.8545 51.905 39.6344C53.9455 39.5243 55.3932 39.4004 56.4962 39.139Z" fill="url(#paint7_linear_2_44053)"/>
<path d="M18.0296 35.3137V35.2586C18.002 34.7632 17.9882 34.3504 17.9606 33.7312C17.9331 33.0432 17.8779 31.7221 17.7952 30.1672L17.0645 28.9287C17.1334 30.4149 17.354 34.7082 17.4505 36.1531L17.547 37.3503C17.6987 37.9007 17.9055 37.9695 18.2915 37.6117C18.3605 37.5429 18.4156 37.5016 18.457 37.4603C18.2088 37.1851 18.1399 36.7861 18.0709 35.8091C18.0434 35.6302 18.0434 35.465 18.0296 35.3137Z" fill="#9D9D9C"/>
<path d="M60.2877 25.8741C60.2188 27.6768 60.1636 28.984 60.1085 30.2087V30.25C60.0809 31.0069 60.0396 31.7912 59.9982 32.837C59.8741 35.7681 59.1847 36.7038 57.8749 37.5019C57.5578 37.6946 57.2269 37.8459 56.8547 37.9698C57.0339 38.2037 57.1442 38.4101 57.0339 38.6303C56.9788 38.7404 56.8133 38.9468 56.51 39.1394C57.6406 38.878 58.4402 38.4927 59.1434 37.8597C60.1499 36.979 60.6462 35.4103 60.7289 32.9609C60.7979 30.7867 60.9082 26.9474 60.9357 25.709L60.2877 25.8741Z" fill="url(#paint8_linear_2_44053)"/>
<path d="M59.6811 30.195C59.6535 30.9793 59.6122 31.7637 59.5708 32.8232C59.4605 35.5479 58.8401 36.4148 57.6544 37.1303C56.5238 37.8184 55.2002 37.9147 51.1744 38.1074C47.0933 38.3138 42.7365 38.4238 38.2143 38.4514C37.8696 38.4514 37.525 38.4514 37.1803 38.4514C31.886 38.4514 27.0466 38.1624 20.9664 37.6808C19.9324 37.5982 19.2706 37.5156 18.9811 37.323C18.664 37.1166 18.5812 37.0615 18.4847 35.7543C18.4709 35.5616 18.4571 35.3827 18.4434 35.2038C18.4158 34.7085 18.3744 34.2681 18.3468 33.6076C18.3193 32.9333 18.2779 32.2728 18.1814 30.8142C25.985 31.2408 32.3685 31.282 38.3108 31.282C38.5866 31.282 39.8964 31.282 40.1583 31.282C41.1234 31.282 42.2402 31.282 43.2329 31.2408C46.9555 31.1169 47.9895 30.8555 50.5126 28.2547L50.8573 27.8969L18.209 22.3789V18.3745L59.819 25.7502C59.7914 26.4796 59.7638 27.4015 59.7363 28.2409C59.7225 28.9978 59.7087 29.617 59.6811 30.195Z" fill="url(#paint9_radial_2_44053)"/>
<path d="M46.1833 30.1809C46.1695 30.3323 45.9627 30.5525 45.2044 30.7176C47.176 30.4837 48.1962 29.8507 50.0162 28.0205L46.1833 28.3645C46.1833 28.3645 45.7835 28.9012 45.3699 29.0938C45.0941 29.2177 44.777 29.314 44.322 29.3553C45.1355 29.5342 45.3974 29.6305 45.7283 29.7681C46.0041 29.8644 46.1971 30.0571 46.1833 30.1809Z" fill="url(#paint10_linear_2_44053)"/>
<path d="M45.2182 30.7176C45.9765 30.5525 46.1833 30.3323 46.1971 30.1809C46.2109 30.0571 46.0179 29.8644 45.7559 29.7681C45.4388 29.6443 45.1631 29.5479 44.3496 29.3553C44.3496 29.3553 43.8533 29.3966 43.55 29.3966C42.1988 29.4241 40.5581 29.4379 38.5176 29.4379C32.3271 29.4379 20.5528 29.0388 17.3679 28.9287L18.6639 30.4149C25.3921 30.7864 31.5688 30.869 38.3384 30.869C38.6141 30.869 39.8963 30.869 40.1859 30.869C41.1372 30.869 42.254 30.869 43.2466 30.8277C44.0049 30.8139 44.6392 30.7864 45.2182 30.7176Z" fill="url(#paint11_linear_2_44053)"/>
<path d="M59.8052 18.4845L60.5221 17.4799L34.2849 13.0215C37.001 13.9022 44.2807 15.5947 49.8508 16.847C49.6026 16.8057 58.909 18.3331 59.8052 18.4845Z" fill="url(#paint12_linear_2_44053)"/>
<path d="M43.2328 27.0986C42.5159 26.961 41.9644 26.8371 41.3715 26.7545C41.1096 26.7133 27.1568 24.3464 17.8504 22.7227L17.0232 23.3969L46.1833 28.3508C45.7835 27.8829 44.3358 27.3187 43.2328 27.0986Z" fill="url(#paint13_linear_2_44053)"/>
<path d="M43.2327 27.0986C42.5158 26.961 41.9643 26.8371 41.3714 26.7545C41.1095 26.7133 27.1568 24.3464 17.8503 22.7227L18.2226 22.4199L50.8709 27.938L46.197 28.3645C45.935 27.993 44.5839 27.36 43.2327 27.0986Z" fill="url(#paint14_linear_2_44053)"/>
<path d="M59.6811 10.4756C53.6974 10.1866 47.245 10.0215 39.3587 10.0215C37.7869 10.0215 34.7123 10.0765 33.306 10.104C30.328 10.1591 28.6322 11.5764 27.2672 13.0901L27.019 13.3378L31.886 12.4984C31.886 12.4984 31.9687 12.3746 32.2169 12.1544C31.4861 12.0168 31.3896 11.0123 33.3336 10.6682C34.216 10.5031 35.7326 10.5031 37.6766 10.4756C38.3108 10.4618 38.9037 10.4618 39.3587 10.4618C46.7349 10.4618 53.27 10.4205 59.6811 10.737L59.8604 10.7508L59.6811 10.4756Z" fill="black"/>
<path d="M27.8049 13.2004C29.8041 13.5444 41.2062 15.4159 49.8646 16.847C44.2945 15.5948 37.0148 13.916 34.2987 13.0215L31.8998 12.4849L27.8049 13.2004Z" fill="url(#paint15_linear_2_44053)"/>
<path d="M59.6811 30.195C59.6535 30.9793 59.6122 31.7637 59.5708 32.8232C59.4605 35.5479 58.8401 36.4148 57.6544 37.1303C56.5238 37.8184 55.2002 37.9147 51.1744 38.1074C47.0933 38.3138 42.7365 38.4238 38.2143 38.4514C37.8696 38.4514 37.525 38.4514 37.1803 38.4514C31.886 38.4514 27.0466 38.1624 20.9664 37.6808C19.9324 37.5982 19.2706 37.5156 18.9811 37.323C18.664 37.1166 18.5812 37.0615 18.4847 35.7543C18.4709 35.5616 18.4571 35.3827 18.4434 35.2038C18.4158 34.7085 18.3744 34.2681 18.3468 33.6076C18.3193 32.9333 18.2779 32.2728 18.1814 30.8142C25.985 31.2408 32.3685 31.282 38.3108 31.282C38.5866 31.282 39.8964 31.282 40.1583 31.282C41.1234 31.282 42.2402 31.282 43.2329 31.2408C46.9555 31.1169 47.9895 30.8555 50.5126 28.2547L50.8573 27.8969L18.209 22.3789V18.3745L59.819 25.7502C59.7914 26.4796 59.7638 27.4015 59.7363 28.2409C59.7225 28.9978 59.7087 29.617 59.6811 30.195Z" fill="url(#paint16_radial_2_44053)"/>
<path d="M27.0327 13.3378L27.8048 13.2002C30.9621 13.7369 57.4888 18.0852 59.8189 18.4843L60.5358 17.4798L60.9632 17.5486L59.9016 18.9659L27.0327 13.3378Z" fill="white"/>
<path opacity="0.1" d="M57.6543 37.1301C58.84 36.4146 59.4604 35.5477 59.5707 32.8231C59.6121 31.7635 59.6534 30.9654 59.681 30.1948C59.7086 29.6168 59.7224 28.9976 59.7499 28.282C59.7775 27.4426 59.8051 26.5207 59.8327 25.7913L48.017 23.6997C45.9626 24.4015 44.1289 25.3648 42.5986 26.5482L50.8709 27.9518L50.5262 28.3095C48.0032 30.9103 46.9691 31.1718 43.2466 31.2956C42.2539 31.3231 41.1371 31.3369 40.172 31.3369C39.979 31.3369 39.1931 31.3369 38.6968 31.3369C38.1728 32.5341 37.8833 33.8001 37.8833 35.1073C37.8833 36.277 38.1039 37.4054 38.5313 38.4787C42.9432 38.4512 47.1897 38.3273 51.1742 38.1347C55.2001 37.9145 56.5237 37.8182 57.6543 37.1301Z" fill="url(#paint17_radial_2_44053)"/>
<path d="M59.9155 22.6263L60.3291 22.5025V18.4155L59.9155 18.9935V22.6263Z" fill="#9D9D9C"/>
<path d="M59.9155 22.6263L60.3291 22.5024L60.9634 22.8052V23.0529L59.9155 22.6263Z" fill="#878787"/>
<path d="M60.9633 17.5625L60.3291 18.4157V22.5026L60.9633 22.8053V17.5625Z" fill="#3C3C3B"/>
<defs>
<radialGradient id="paint0_radial_2_44053" cx="0" cy="0" r="1" gradientUnits="userSpaceOnUse" gradientTransform="translate(37.5176 38.388) rotate(15.4629) scale(22.7077 14.2817)">
<stop offset="0.3301" stop-color="#818080"/>
<stop offset="0.6198" stop-color="#A2A2A2"/>
<stop offset="0.7979" stop-color="#B2B2B2"/>
<stop offset="1" stop-color="#DADADA"/>
</radialGradient>
<linearGradient id="paint1_linear_2_44053" x1="31.9821" y1="11.3065" x2="59.7879" y2="11.3065" gradientUnits="userSpaceOnUse">
<stop stop-color="#4A4A49"/>
<stop offset="0.3168" stop-color="#525251"/>
<stop offset="0.454" stop-color="#575756"/>
<stop offset="0.7429" stop-color="#2D2D2C"/>
<stop offset="0.9069"/>
</linearGradient>
<linearGradient id="paint2_linear_2_44053" x1="20.5764" y1="14.1171" x2="18.1282" y2="3.15558" gradientUnits="userSpaceOnUse">
<stop stop-color="#9D9D9C"/>
<stop offset="0.5625" stop-color="#ACACAB"/>
<stop offset="1" stop-color="#B2B2B2"/>
</linearGradient>
<linearGradient id="paint3_linear_2_44053" x1="19.9309" y1="2.74004" x2="60.5538" y2="2.74004" gradientUnits="userSpaceOnUse">
<stop offset="0.0567086" stop-color="#BFBFBF"/>
<stop offset="0.2789" stop-color="#BCBCBC"/>
<stop offset="0.442" stop-color="#B3B3B3"/>
<stop offset="0.5862" stop-color="#A3A3A3"/>
<stop offset="0.7194" stop-color="#8C8C8C"/>
<stop offset="0.8452" stop-color="#6F6F6F"/>
<stop offset="0.9637" stop-color="#4C4C4C"/>
<stop offset="1" stop-color="#404040"/>
</linearGradient>
<linearGradient id="paint4_linear_2_44053" x1="59.9613" y1="4.01632" x2="59.9613" y2="11.8602" gradientUnits="userSpaceOnUse">
<stop offset="0.00613497" stop-color="white"/>
<stop offset="0.1166" stop-color="#CCCCCC"/>
<stop offset="0.495" stop-color="#CACACA"/>
<stop offset="0.6313" stop-color="#C3C3C3"/>
<stop offset="0.7284" stop-color="#B8B8B8"/>
<stop offset="0.807" stop-color="#A7A7A7"/>
<stop offset="0.8742" stop-color="#919191"/>
<stop offset="0.9338" stop-color="#757575"/>
<stop offset="0.9863" stop-color="#565656"/>
<stop offset="1" stop-color="#4D4D4D"/>
</linearGradient>
<radialGradient id="paint5_radial_2_44053" cx="0" cy="0" r="1" gradientUnits="userSpaceOnUse" gradientTransform="translate(59.3764 38.47) scale(54.1751 54.0706)">
<stop offset="0.1417" stop-color="#878787"/>
<stop offset="0.3057" stop-color="#A4A4A3"/>
<stop offset="0.4874" stop-color="#BDBDBD"/>
<stop offset="0.5888" stop-color="#C6C6C6"/>
<stop offset="0.6593" stop-color="#D5D5D5"/>
<stop offset="0.7508" stop-color="#E2E2E2"/>
<stop offset="0.8484" stop-color="#EAEAEA"/>
<stop offset="0.9612" stop-color="#EDEDED"/>
</radialGradient>
<radialGradient id="paint6_radial_2_44053" cx="0" cy="0" r="1" gradientUnits="userSpaceOnUse" gradientTransform="translate(79.3453 47.2999) scale(56.5259 56.4169)">
<stop offset="0.1417" stop-color="#878787"/>
<stop offset="0.3057" stop-color="#A4A4A3"/>
<stop offset="0.4874" stop-color="#BDBDBD"/>
<stop offset="0.5888" stop-color="#C6C6C6"/>
<stop offset="0.6329" stop-color="#D6D6D6"/>
<stop offset="0.7028" stop-color="#E8E8E8"/>
<stop offset="0.776" stop-color="#F5F5F5"/>
<stop offset="0.8537" stop-color="#FDFDFD"/>
<stop offset="0.9435" stop-color="white"/>
</radialGradient>
<linearGradient id="paint7_linear_2_44053" x1="17.5307" y1="38.6582" x2="57.0724" y2="38.6582" gradientUnits="userSpaceOnUse">
<stop stop-color="#706F6F" stop-opacity="0.91"/>
<stop offset="0.5081" stop-color="#474746" stop-opacity="0.9557"/>
<stop offset="1"/>
</linearGradient>
<linearGradient id="paint8_linear_2_44053" x1="58.3265" y1="37.7947" x2="61.3862" y2="26.7169" gradientUnits="userSpaceOnUse">
<stop offset="0.2699" stop-color="#575756"/>
<stop offset="0.3398" stop-color="#4F4F4E"/>
<stop offset="0.5821" stop-color="#353534"/>
<stop offset="0.808" stop-color="#131312"/>
<stop offset="1"/>
</linearGradient>
<radialGradient id="paint9_radial_2_44053" cx="0" cy="0" r="1" gradientUnits="userSpaceOnUse" gradientTransform="translate(78.2222 148.899) scale(175.188 174.851)">
<stop stop-color="#7C7C7B"/>
<stop offset="0.0831301" stop-color="#8F8E8E"/>
<stop offset="0.3015" stop-color="#B9B9B8"/>
<stop offset="0.467" stop-color="#D1D1D1"/>
<stop offset="0.5589" stop-color="#DADADA"/>
<stop offset="0.6513" stop-color="#E4E4E4"/>
<stop offset="0.8713" stop-color="#F8F8F8"/>
<stop offset="1" stop-color="white"/>
</radialGradient>
<linearGradient id="paint10_linear_2_44053" x1="47.5776" y1="27.108" x2="46.6581" y2="30.803" gradientUnits="userSpaceOnUse">
<stop offset="0.0613497" stop-color="#706F6F"/>
<stop offset="0.1515" stop-color="#929191"/>
<stop offset="0.2488" stop-color="#ADADAC"/>
<stop offset="0.3543" stop-color="#C2C2C2"/>
<stop offset="0.4692" stop-color="#D2D2D2"/>
<stop offset="0.5981" stop-color="#DDDDDD"/>
<stop offset="0.7525" stop-color="#E3E3E3"/>
<stop offset="1" stop-color="#E5E5E5"/>
</linearGradient>
<linearGradient id="paint11_linear_2_44053" x1="17.3589" y1="29.9043" x2="46.1851" y2="29.9043" gradientUnits="userSpaceOnUse">
<stop stop-color="#9C9C9C"/>
<stop offset="0.1897" stop-color="#949494"/>
<stop offset="0.4835" stop-color="#7F7F7E"/>
<stop offset="0.8429" stop-color="#5C5C5B"/>
<stop offset="1" stop-color="#4A4A49"/>
</linearGradient>
<linearGradient id="paint12_linear_2_44053" x1="34.2934" y1="15.7608" x2="60.5302" y2="15.7608" gradientUnits="userSpaceOnUse">
<stop stop-color="#B2B2B2"/>
<stop offset="0.3427" stop-color="#BABABA"/>
<stop offset="0.8723" stop-color="#D0D0D0"/>
<stop offset="1" stop-color="#D6D6D6"/>
</linearGradient>
<linearGradient id="paint13_linear_2_44053" x1="17.7548" y1="23.0906" x2="45.6446" y2="27.9419" gradientUnits="userSpaceOnUse">
<stop stop-color="#878787"/>
<stop offset="0.8957"/>
</linearGradient>
<linearGradient id="paint14_linear_2_44053" x1="18.0717" y1="23.0688" x2="50.2874" y2="28.3731" gradientUnits="userSpaceOnUse">
<stop stop-color="#646363"/>
<stop offset="1" stop-color="#4A4A49"/>
</linearGradient>
<linearGradient id="paint15_linear_2_44053" x1="27.7992" y1="14.6728" x2="49.8611" y2="14.6728" gradientUnits="userSpaceOnUse">
<stop offset="0.2242" stop-color="#575756"/>
<stop offset="0.3798" stop-color="#5D5D5C"/>
<stop offset="0.5842" stop-color="#6D6C6C"/>
<stop offset="0.8149" stop-color="#868685"/>
<stop offset="1" stop-color="#9D9D9C"/>
</linearGradient>
<radialGradient id="paint16_radial_2_44053" cx="0" cy="0" r="1" gradientUnits="userSpaceOnUse" gradientTransform="translate(59.8048 38.0924) scale(54.3896 54.2847)">
<stop stop-color="#878787"/>
<stop offset="0.1882" stop-color="#A4A4A3"/>
<stop offset="0.3966" stop-color="#BDBDBD"/>
<stop offset="0.513" stop-color="#C6C6C6"/>
<stop offset="0.5735" stop-color="#D6D6D6"/>
<stop offset="0.6696" stop-color="#E8E8E8"/>
<stop offset="0.77" stop-color="#F5F5F5"/>
<stop offset="0.8766" stop-color="#FDFDFD"/>
<stop offset="1" stop-color="white"/>
</radialGradient>
<radialGradient id="paint17_radial_2_44053" cx="0" cy="0" r="1" gradientUnits="userSpaceOnUse" gradientTransform="translate(58.6549 38.8465) scale(18.7934 18.7572)">
<stop/>
<stop offset="0.283" stop-color="#6F6E6E"/>
<stop offset="0.647" stop-color="#BEBEBD"/>
<stop offset="0.8118" stop-color="#DADADA"/>
<stop offset="0.8512" stop-color="#E4E4E4"/>
<stop offset="0.9451" stop-color="#F8F8F8"/>
<stop offset="1" stop-color="white"/>
</radialGradient>
</defs>
</svg>
