<svg width="115" height="67" viewBox="0 0 115 67" fill="none" xmlns="http://www.w3.org/2000/svg">
<g clip-path="url(#clip0_2_44685)">
<path d="M14.3954 51.7008C15.57 51.8376 16.7446 52.0566 17.4275 53.1514C18.0285 53.9998 18.0011 55.0946 18.0558 56.162H14.3954C14.3954 55.7514 14.3954 55.3409 14.2042 55.0125C13.4121 54.4103 12.2921 54.684 11.2814 54.6293C9.23273 54.6293 7.32062 54.5746 5.43582 54.7661C5.21729 54.8483 4.94413 55.1219 4.86219 55.3409C4.78024 55.6967 4.78024 56.1072 5.08071 56.3536L5.46314 56.6546C8.68641 56.9283 11.8004 56.9831 15.0237 57.2294C16.1163 57.3662 17.209 57.8041 17.8099 58.8715C18.7114 60.4863 18.5475 63.0043 17.4002 64.4822C16.5261 65.4949 15.3242 65.6591 14.0676 65.6865C11.0083 65.8233 7.73036 65.8781 4.69829 65.6317C3.63297 65.4949 2.6496 65.1938 1.9667 64.2633C1.33843 63.278 1.25649 61.9916 1.22917 60.76L4.91682 60.7874C4.8895 61.4169 4.8895 62.0464 5.49045 62.3748C8.33131 62.5664 11.4726 62.6211 14.2862 62.3201C14.5593 62.2106 14.7505 61.9369 14.8325 61.6632C14.9144 61.1706 14.8052 60.7053 14.3954 60.4316L13.7672 60.2947L4.56171 59.7474C3.30518 59.5558 1.85744 58.8989 1.4477 57.5304C1.06527 56.1893 1.03796 54.5472 1.85744 53.425C3.41444 51.2629 6.17335 51.8103 8.54983 51.5913L14.3954 51.7008Z" fill="black"/>
<path d="M23.4916 61.3621C23.6282 61.6905 23.9013 62.0463 24.2565 62.2379C26.7422 62.4842 29.665 62.621 32.0961 62.101C32.4785 61.8821 32.7244 61.4442 32.7244 60.9789V51.6733H36.494L36.4393 62.3747C36.2481 63.4421 35.8657 64.5369 34.6092 65.3853C33.817 65.878 32.8336 65.9054 31.8503 65.9327L23.1911 65.878C22.0165 65.7685 20.8146 64.8106 20.241 63.6885L19.8586 62.5663L19.804 51.6733H23.4097L23.4916 61.3621Z" fill="black"/>
<path d="M96.8075 61.3894C96.9441 61.7178 97.1899 62.0736 97.5451 62.2652C99.9215 62.5663 102.626 62.5115 105.03 62.3199C105.385 62.2378 105.685 61.9368 105.904 61.6631L106.013 61.1431V51.728H109.728V62.5115C109.537 63.5516 108.99 64.6463 107.952 65.2211C107.16 65.7137 106.15 65.8506 105.166 65.8779L96.507 65.8232C95.3325 65.7137 94.1032 64.8653 93.5296 63.7431C93.2838 63.141 93.1199 62.4842 93.1199 61.7726V51.728H96.8075V61.3894Z" fill="black"/>
<path d="M89.924 59.1177L90.443 58.7619C91.8635 57.0924 91.4537 54.9576 90.7435 53.3976C89.7055 51.7828 88.3943 51.8101 87.7934 51.728H75.0642L75.0369 65.8232H78.7518L78.7791 60.842V60.8146H86.2637C87.7114 60.9788 87.7934 61.9094 87.8207 63.1684C87.8207 64.0716 87.848 65.0842 87.848 65.8506H91.5084C91.5084 63.3052 91.9727 60.3767 89.924 59.1177ZM86.9739 57.3935H86.7554L78.6972 57.4208L78.7245 54.7934L86.81 54.8481C87.1378 54.985 87.4383 55.2039 87.5749 55.505C87.6568 56.0524 87.9027 56.9556 86.9739 57.3935Z" fill="black"/>
<path d="M66.5142 51.728H62.2802L54.5771 65.8779H58.8384C59.2755 65.0569 59.6579 64.2905 60.2042 63.3873H68.399C68.9453 64.2632 69.2731 64.9474 69.7375 65.7958L74.1353 65.8232L66.5142 51.728ZM61.7066 60.4041C62.4714 58.7072 63.4548 57.1198 64.247 55.4229C65.203 56.9829 65.9406 58.7072 66.842 60.3493L61.7066 60.4041Z" fill="black"/>
<path d="M53.3208 58.2419C54.6592 57.3935 54.6046 55.5871 54.3315 54.1913C54.031 52.9049 52.6379 51.8923 51.436 51.7281L38.4336 51.7007V65.8232H38.5702H50.0155C51.0809 65.8232 52.1189 65.7138 53.0203 65.3306C54.0856 64.8106 54.6046 63.7158 54.7958 62.6758C54.987 61.0336 54.8505 59.0904 53.3208 58.2419ZM42.0393 54.7934L50.0155 54.8482C50.2887 54.9576 50.6438 55.1766 50.7258 55.4776C50.8077 55.8608 50.8077 56.3808 50.4799 56.6545C50.2341 56.9556 49.879 57.0103 49.5785 57.0651H42.0393V54.7934ZM50.6984 62.2379C50.0975 62.6758 49.278 62.6484 48.4859 62.621C46.3552 62.5937 44.1973 62.6758 42.0666 62.5663V59.9662L49.9609 60.0209C50.316 60.1578 50.6711 60.322 50.8897 60.6778C51.0809 61.1705 51.0809 61.8547 50.6984 62.2379Z" fill="black"/>
<path d="M112.46 64.5093C113.143 64.5093 113.689 65.0567 113.689 65.7683C113.689 66.4799 113.143 67.0273 112.46 67.0273C111.777 67.0273 111.23 66.4799 111.23 65.7683C111.203 65.0567 111.777 64.5093 112.46 64.5093ZM112.432 64.7009C111.886 64.7009 111.449 65.1661 111.449 65.7409C111.449 66.343 111.886 66.8083 112.46 66.8083C113.006 66.8083 113.443 66.343 113.443 65.7683C113.443 65.1661 113.006 64.7009 112.432 64.7009ZM112.214 66.4799H111.995V65.084C112.105 65.0567 112.214 65.0567 112.378 65.0567C112.596 65.0567 112.733 65.1114 112.815 65.1661C112.897 65.2209 112.951 65.3304 112.951 65.4672C112.951 65.6588 112.842 65.7683 112.678 65.7956C112.787 65.823 112.869 65.9325 112.897 66.1241C112.924 66.343 112.951 66.4251 112.979 66.4799H112.733C112.705 66.4251 112.678 66.3157 112.651 66.1241C112.624 65.9325 112.542 65.8777 112.35 65.8777H112.186V66.4799H112.214ZM112.214 65.7135H112.378C112.569 65.7135 112.705 65.6588 112.705 65.4672C112.705 65.3577 112.624 65.2209 112.378 65.2209C112.296 65.2209 112.268 65.2209 112.214 65.2209V65.7135Z" fill="black"/>
<path d="M92.1912 22.8534C92.1912 33.199 76.0202 41.574 56.0523 41.574C36.0844 41.574 19.9133 33.199 19.9133 22.8534C19.9133 12.5078 36.0844 4.13281 56.0523 4.13281C75.9929 4.13281 92.1912 12.5078 92.1912 22.8534Z" fill="#004289"/>
<path d="M75.0369 17.4067C75.1735 21.8679 63.7281 32.6514 46.8469 32.6514C29.9656 32.6514 19.012 29.4218 19.012 20.0615C19.012 10.7012 32.6972 3.74939 49.5785 3.09253C70.4478 2.29882 74.7637 7.99163 75.0369 17.4067Z" fill="#004289"/>
<path d="M74.8185 17.4069C74.9277 21.8407 63.5643 32.5694 46.7923 32.5694C30.0204 32.5694 19.094 29.3672 19.094 20.0617C19.094 10.7561 32.7246 3.85907 49.4966 3.20221C70.2567 2.38113 74.5726 8.04657 74.8185 17.4069Z" fill="#004389"/>
<path d="M74.6271 17.3793C74.7364 21.7858 63.4276 32.4598 46.7376 32.4598C30.0475 32.4598 19.2031 29.2576 19.2031 20.0068C19.2031 10.7559 32.7518 3.88626 49.4145 3.2294C70.0927 2.43569 74.3813 8.07376 74.6271 17.3793Z" fill="#00438A"/>
<path d="M74.436 17.3794C74.5453 21.7858 63.3184 32.3777 46.7104 32.3777C30.1296 32.3777 19.3125 29.2029 19.3125 19.9795C19.3125 10.7834 32.7792 3.94106 49.36 3.31157C69.9016 2.51786 74.1629 8.10119 74.436 17.3794Z" fill="#00448A"/>
<path d="M74.2174 17.3521C74.3266 21.7312 63.1544 32.241 46.6556 32.241C30.1568 32.241 19.4216 29.0661 19.4216 19.9248C19.4216 10.7835 32.8064 3.99589 49.3052 3.33902C69.7102 2.57268 73.9715 8.15602 74.2174 17.3521Z" fill="#00448A"/>
<path d="M74.0263 17.3521C74.1355 21.7038 63.018 32.1589 46.6284 32.1589C30.2389 32.1589 19.5583 29.0114 19.5583 19.8975C19.5583 10.7835 32.8612 4.05066 49.2507 3.42117C69.5465 2.65483 73.7804 8.18342 74.0263 17.3521Z" fill="#01458B"/>
<path d="M73.8349 17.3247C73.9442 21.6491 62.8812 32.0494 46.5736 32.0494C30.266 32.0494 19.6401 28.9019 19.6401 19.8701C19.6401 10.8108 32.861 4.10537 49.1686 3.47587C69.3551 2.70953 73.5891 8.23813 73.8349 17.3247Z" fill="#06468B"/>
<path d="M73.6165 17.3248C73.7258 21.6491 62.7448 31.9673 46.5191 31.9673C30.3208 31.9673 19.7495 28.8472 19.7495 19.8428C19.7495 10.8383 32.9158 4.18752 49.1141 3.55803C69.164 2.79169 73.3707 8.26554 73.6165 17.3248Z" fill="#09468C"/>
<path d="M73.4252 17.2972C73.5344 21.5942 62.6081 31.8576 46.4917 31.8576C30.3753 31.8576 19.886 28.7375 19.886 19.8152C19.886 10.8654 32.9703 4.24204 49.0594 3.61255C69 2.84621 73.1793 8.29269 73.4252 17.2972Z" fill="#0B478C"/>
<path d="M73.2341 17.2969C73.3433 21.5666 62.4716 31.7753 46.4645 31.7753C30.43 31.7753 19.9954 28.6826 19.9954 19.7875C19.9954 10.8925 32.9977 4.29654 49.0049 3.69441C68.8089 2.92807 72.9882 8.34719 73.2341 17.2969Z" fill="#0E478D"/>
<path d="M73.0427 17.2698C73.152 21.5395 62.3349 31.6661 46.4097 31.6661C30.4845 31.6661 20.1045 28.5734 20.1045 19.7605C20.1045 10.9202 33.0249 4.37892 48.9501 3.74942C68.6176 2.98308 72.7969 8.37483 73.0427 17.2698Z" fill="#10488D"/>
<path d="M72.8243 17.2696C72.9336 21.5119 62.1984 31.5837 46.3552 31.5837C30.512 31.5837 20.2139 28.5184 20.2139 19.7328C20.2139 10.9473 33.0523 4.43342 48.8683 3.8313C68.4538 3.06496 72.5785 8.42933 72.8243 17.2696Z" fill="#11488D"/>
<path d="M72.6332 17.2426C72.7425 21.4575 62.062 31.4746 46.328 31.4746C30.594 31.4746 20.3232 28.4093 20.3232 19.6785C20.3232 10.9477 33.0798 4.46114 48.8137 3.85902C68.2627 3.14742 72.3874 8.45706 72.6332 17.2426Z" fill="#13498E"/>
<path d="M72.4419 17.2423C72.5512 21.4298 61.9253 31.3922 46.3006 31.3922C30.6486 31.3922 20.4597 28.3542 20.4597 19.6782C20.4597 11.0021 33.1616 4.57032 48.7863 3.96819C68.0714 3.20185 72.1961 8.51149 72.4419 17.2423Z" fill="#15498E"/>
<path d="M72.2235 17.2152C72.3327 21.4027 61.7615 31.283 46.2187 31.283C30.676 31.283 20.5417 28.245 20.5417 19.6237C20.5417 11.0024 33.1617 4.59797 48.6771 3.99584C67.9076 3.28424 72.0049 8.53914 72.2235 17.2152Z" fill="#164A8F"/>
<path d="M72.0321 17.2153C72.1414 21.3754 61.6521 31.201 46.1913 31.201C30.7305 31.201 20.6509 28.1904 20.6509 19.6238C20.6509 11.0572 33.1889 4.68018 48.6224 4.10542C67.7162 3.33908 71.7863 8.56661 72.0321 17.2153Z" fill="#184A8F"/>
<path d="M71.841 17.1876C71.9503 21.3204 61.5156 31.0638 46.1641 31.0638C30.8125 31.0638 20.7876 28.0532 20.7876 19.5414C20.7876 11.0295 33.2437 4.70722 48.5952 4.1051C67.5251 3.42087 71.5952 8.62103 71.841 17.1876Z" fill="#1A4B90"/>
<path d="M71.6224 17.1602C71.7316 21.2656 61.3516 30.9543 46.1093 30.9543C30.8397 30.9543 20.8967 27.9711 20.8967 19.514C20.8967 11.0569 33.2708 4.76194 48.5131 4.18718C67.3611 3.47558 71.4039 8.64838 71.6224 17.1602Z" fill="#1C4C90"/>
<path d="M71.4313 17.1602C71.5405 21.2656 61.2151 30.8722 46.0548 30.8722C30.8944 30.8722 20.9788 27.889 20.9788 19.4866C20.9788 11.0842 33.2709 4.81666 48.4313 4.2419C67.17 3.55767 71.2127 8.7031 71.4313 17.1602Z" fill="#1D4C91"/>
<path d="M71.2399 17.1331C71.3492 21.2111 61.1057 30.763 46.0273 30.763C30.949 30.763 21.1152 27.8071 21.1152 19.4321C21.1152 11.0845 33.3528 4.87164 48.4038 4.29688C66.9787 3.61265 70.9941 8.73071 71.2399 17.1331Z" fill="#1E4D91"/>
<path d="M71.0489 17.1331C71.1581 21.1837 60.9693 30.6809 46.0002 30.6809C31.031 30.6809 21.252 27.725 21.252 19.4321C21.252 11.1118 33.4075 4.95375 48.3767 4.379C66.8149 3.69477 70.803 8.75808 71.0489 17.1331Z" fill="#1F4D91"/>
<path d="M70.8301 17.1057C70.9394 21.129 60.8052 30.5714 45.918 30.5714C31.0309 30.5714 21.3064 27.6429 21.3064 19.3773C21.3064 11.1118 33.38 4.98109 48.2399 4.4337C66.6235 3.74947 70.6116 8.81279 70.8301 17.1057Z" fill="#214E92"/>
<path d="M70.6391 17.1057C70.7483 21.129 60.6688 30.4893 45.8909 30.4893C31.1129 30.4893 21.4431 27.5608 21.4431 19.3774C21.4431 11.1666 33.4348 5.09059 48.2127 4.51583C66.4324 3.8316 70.4206 8.84018 70.6391 17.1057Z" fill="#224F92"/>
<path d="M70.4478 17.0783C70.557 21.0742 60.5594 30.3798 45.8634 30.3798C31.1675 30.3798 21.5796 27.4786 21.5796 19.3226C21.5796 11.1665 33.4893 5.11792 48.1853 4.57054C66.2411 3.88631 70.2292 8.89488 70.4478 17.0783Z" fill="#234F93"/>
<path d="M70.2293 17.0783C70.3386 21.0469 60.3956 30.2977 45.8089 30.2977C31.2222 30.2977 21.6616 27.3965 21.6616 19.3226C21.6616 11.2213 33.4894 5.20006 48.0761 4.65268C66.0773 3.96845 70.0108 8.92229 70.2293 17.0783Z" fill="#245093"/>
<path d="M70.038 17.0509C70.1472 20.9921 60.2589 30.1882 45.7541 30.1882C31.2494 30.1882 21.7708 27.3144 21.7708 19.2678C21.7708 11.2213 33.5439 5.25477 48.0213 4.70738C65.886 4.02315 69.8194 8.97699 70.038 17.0509Z" fill="#255093"/>
<path d="M69.8469 17.051C69.9562 20.9921 60.1224 30.1061 45.7269 30.1061C31.3315 30.1061 21.9075 27.2323 21.9075 19.2679C21.9075 11.2761 33.5987 5.33692 47.9942 4.78954C65.6949 4.1053 69.6284 9.0044 69.8469 17.051Z" fill="#275194"/>
<path d="M69.6285 17.0234C69.7377 20.9372 59.9859 29.9964 45.6724 29.9964C31.3589 29.9964 21.9895 27.15 21.9895 19.2129C21.9895 11.2758 33.5988 5.36407 47.885 4.84405C65.5311 4.15982 69.4372 9.03155 69.6285 17.0234Z" fill="#285295"/>
<path d="M69.4371 17.0236C69.5464 20.91 59.8493 29.8872 45.645 29.8872C31.4407 29.8872 22.126 27.0681 22.126 19.1584C22.126 11.2761 33.6533 5.41904 47.8576 4.87165C65.3398 4.24216 69.2186 9.08652 69.4371 17.0236Z" fill="#295295"/>
<path d="M69.246 16.9962C69.3553 20.8552 59.7128 29.7776 45.5905 29.7776C31.4681 29.7776 22.2354 26.9586 22.2354 19.131C22.2354 11.3034 33.6807 5.47371 47.803 4.95369C65.1487 4.29683 69.0275 9.11382 69.246 16.9962Z" fill="#2A5395"/>
<path d="M69.0547 16.9962C69.164 20.8553 59.5761 29.6955 45.563 29.6955C31.5499 29.6955 22.3445 26.9039 22.3445 19.1036C22.3445 11.3307 33.7079 5.52846 47.721 5.00844C64.9846 4.37895 68.8362 9.16857 69.0547 16.9962Z" fill="#2B5396"/>
<path d="M68.8363 16.9688C68.9455 20.8005 59.4396 29.586 45.5085 29.586C31.5774 29.586 22.4539 26.7944 22.4539 19.0762C22.4539 11.3581 33.7626 5.61055 47.6664 5.09054C64.7935 4.43367 68.6451 9.19593 68.8363 16.9688Z" fill="#2C5496"/>
<path d="M68.645 16.9686C68.7542 20.7729 59.3029 29.5037 45.4811 29.5037C31.6592 29.5037 22.5903 26.7394 22.5903 19.0486C22.5903 11.3852 33.8172 5.66505 47.639 5.14503C64.6022 4.51554 68.4264 9.22306 68.645 16.9686Z" fill="#2D5597"/>
<path d="M68.4538 16.9414C68.5631 20.7184 59.1664 29.3945 45.4265 29.3945C31.6866 29.3945 22.6724 26.6302 22.6724 19.0215C22.6724 11.4129 33.8173 5.74741 47.5298 5.22739C64.4384 4.57053 68.2353 9.27805 68.4538 16.9414Z" fill="#2E5597"/>
<path d="M68.2352 16.9141C68.3171 20.6911 59.0024 29.2851 45.3718 29.2851C31.7411 29.2851 22.7815 26.5481 22.7815 18.9668C22.7815 11.3855 33.8444 5.77484 47.4751 5.25482C64.2471 4.6527 68.044 9.30548 68.2352 16.9141Z" fill="#2F5698"/>
<path d="M68.0441 16.9138C68.126 20.6634 58.8932 29.2027 45.3446 29.2027C31.7959 29.2027 22.8909 26.4657 22.8909 18.9392C22.8909 11.4126 33.8719 5.82929 47.4206 5.33664C64.056 4.73452 67.8529 9.35993 68.0441 16.9138Z" fill="#305698"/>
<path d="M67.8528 16.8867C67.9347 20.6089 58.7566 29.0934 45.3171 29.0934C31.8777 29.0934 23.0273 26.3839 23.0273 18.912C23.0273 11.4402 33.9264 5.91163 47.3931 5.39161C63.892 4.78949 67.6342 9.38753 67.8528 16.8867Z" fill="#325799"/>
<path d="M67.6343 16.8864C67.7163 20.5813 58.5928 29.011 45.2353 29.011C31.8778 29.011 23.1094 26.3015 23.1094 18.8844C23.1094 11.4673 33.9538 5.96609 47.284 5.47344C63.7008 4.87131 67.4431 9.44198 67.6343 16.8864Z" fill="#335899"/>
<path d="M67.443 16.8593C67.5249 20.5541 58.456 28.9018 45.2078 28.9018C31.9596 28.9018 23.2185 26.2196 23.2185 18.8573C23.2458 11.4949 33.981 6.02106 47.2565 5.52841C63.5095 4.92629 67.2518 9.46959 67.443 16.8593Z" fill="#34599A"/>
<path d="M67.2519 16.8593C67.3338 20.5268 58.3469 28.8197 45.1806 28.8197C32.0144 28.8197 23.3552 26.1375 23.3552 18.8299C23.3552 11.5223 34.0357 6.10317 47.202 5.61052C63.3457 5.0084 67.0607 9.49696 67.2519 16.8593Z" fill="#35599A"/>
<path d="M67.0606 16.8319C67.1425 20.472 58.2102 28.7102 45.1532 28.7102C32.0962 28.7102 23.4917 26.0553 23.4917 18.8025C23.4917 11.5496 34.0903 6.15787 47.1473 5.66523C63.1544 5.0631 66.8694 9.55166 67.0606 16.8319Z" fill="#365A9B"/>
<path d="M66.8421 16.8317C66.9241 20.4445 58.0464 28.6005 45.0713 28.6005C32.0963 28.6005 23.5464 25.9457 23.5464 18.7476C23.5464 11.5495 34.063 6.18509 47.0381 5.71981C62.9633 5.14506 66.6509 9.57888 66.8421 16.8317Z" fill="#375A9B"/>
<path d="M66.6508 16.8043C66.7327 20.4171 57.9097 28.491 45.0439 28.491C32.1781 28.491 23.6829 25.8636 23.6829 18.7202C23.6829 11.5768 34.1175 6.26716 47.0107 5.77451C62.7719 5.19976 66.4596 9.63358 66.6508 16.8043Z" fill="#385B9B"/>
<path d="M66.4597 16.8043C66.5417 20.3897 57.8006 28.4089 45.0167 28.4089C32.2329 28.4089 23.8196 25.7814 23.8196 18.6928C23.8196 11.6042 34.1996 6.32188 46.9562 5.8566C62.6082 5.28185 66.2685 9.66093 66.4597 16.8043Z" fill="#395B9C"/>
<path d="M66.2413 16.7771C66.3232 20.3351 57.6367 28.2996 44.9348 28.2996C32.2603 28.2996 23.8743 25.6995 23.8743 18.6382C23.8743 11.6043 34.1724 6.34942 46.847 5.88415C62.417 5.33676 66.0774 9.68848 66.2413 16.7771Z" fill="#3A5C9C"/>
<path d="M66.0499 16.7774C66.1319 20.308 57.5 28.2178 44.9074 28.2178C32.3148 28.2178 24.0107 25.6177 24.0107 18.6385C24.0107 11.6593 34.2269 6.45917 46.8195 5.99389C62.2257 5.41914 65.8587 9.74348 66.0499 16.7774Z" fill="#3B5D9D"/>
<path d="M65.8589 16.7497C65.9408 20.2803 57.3636 28.1079 44.8802 28.1079C32.3696 28.1079 24.1475 25.5352 24.1475 18.5834C24.1475 11.659 34.2817 6.48619 46.765 6.02091C62.062 5.47352 65.6677 9.7705 65.8589 16.7497Z" fill="#3C5D9D"/>
<path d="M65.6402 16.75C65.7221 20.2533 57.2269 28.0261 44.8255 28.0261C32.424 28.0261 24.2292 25.4534 24.2292 18.5837C24.2292 11.714 34.2815 6.56862 46.6829 6.13071C61.8706 5.55596 65.4763 9.82556 65.6402 16.75Z" fill="#3E5E9E"/>
<path d="M65.4491 16.7222C65.5311 20.1981 57.0904 27.9163 44.7983 27.9163C32.4788 27.9163 24.366 25.3709 24.366 18.5286C24.366 11.7136 34.3636 6.62296 46.6558 6.15768C61.6795 5.6103 65.2852 9.85253 65.4491 16.7222Z" fill="#3F5F9F"/>
<path d="M65.2578 16.7226C65.3397 20.1711 56.9537 27.8345 44.7435 27.8345C32.5333 27.8345 24.4751 25.2892 24.4751 18.529C24.4751 11.7414 34.3908 6.70545 46.5737 6.26754C61.5155 5.69279 65.0665 9.90766 65.2578 16.7226Z" fill="#40609F"/>
<path d="M65.0667 16.6953C65.1486 20.1438 56.8172 27.7251 44.7163 27.7251C32.588 27.7251 24.5845 25.1798 24.5845 18.4743C24.5845 11.7414 34.4182 6.73287 46.5192 6.29496C61.3244 5.74757 64.8754 9.93507 65.0667 16.6953Z" fill="#41609F"/>
<path d="M64.848 16.6679C64.9299 20.0891 56.6805 27.6156 44.6615 27.6156C32.6425 27.6156 24.6936 25.0976 24.6936 18.4469C24.6936 11.7688 34.4454 6.81497 46.4644 6.37706C61.133 5.82967 64.6841 9.96244 64.848 16.6679Z" fill="#4261A0"/>
<path d="M64.6569 16.6679C64.7388 20.0617 56.5441 27.5335 44.607 27.5335C32.67 27.5335 24.803 25.0429 24.803 18.4195C24.803 11.7961 34.4728 6.86967 46.4099 6.43176C60.9692 5.88437 64.493 10.0171 64.6569 16.6679Z" fill="#4361A0"/>
<path d="M64.4656 16.6405C64.5475 20.0343 56.4074 27.3966 44.5796 27.3966C32.7518 27.3966 24.9121 24.906 24.9121 18.3374C24.9121 11.7687 34.5 6.86964 46.3278 6.4591C60.7779 5.96645 64.2743 10.0445 64.4656 16.6405Z" fill="#4462A1"/>
<path d="M64.2471 16.6403C64.3291 20.0068 56.2436 27.3144 44.525 27.3144C32.7792 27.3144 25.0215 24.8511 25.0215 18.3372C25.0215 11.8234 34.5547 6.97899 46.2733 6.54108C60.5868 6.02107 64.0832 10.0991 64.2471 16.6403Z" fill="#4563A1"/>
<path d="M64.0558 16.613C64.1378 19.952 56.1342 27.2049 44.4976 27.2049C32.861 27.2049 25.158 24.7417 25.158 18.2825C25.158 11.8234 34.6093 7.00636 46.2458 6.59582C60.4228 6.10318 63.8919 10.1265 64.0558 16.613Z" fill="#4663A2"/>
<path d="M63.8647 16.6132C63.9466 19.9249 55.9977 27.123 44.4431 27.123C32.8884 27.123 25.24 24.6871 25.24 18.2827C25.24 11.8783 34.6093 7.08866 46.1367 6.67812C60.2317 6.15811 63.7008 10.154 63.8647 16.6132Z" fill="#4664A2"/>
<path d="M63.6463 16.5855C63.7282 19.8972 55.8339 27.0132 44.3886 27.0132C32.9432 27.0132 25.3494 24.5773 25.3494 18.2277C25.3494 11.878 34.6368 7.1431 46.0821 6.73256C60.0406 6.23991 63.5097 10.2085 63.6463 16.5855Z" fill="#4865A3"/>
<path d="M63.455 16.5854C63.5369 19.8698 55.6972 26.931 44.3611 26.931C32.9977 26.931 25.4858 24.5225 25.4858 18.2276C25.4858 11.9327 34.6913 7.22515 46.0547 6.81461C59.8766 6.32196 63.2911 10.2358 63.455 16.5854Z" fill="#4966A4"/>
<path d="M63.2639 16.558C63.3458 19.815 55.5881 26.8215 44.3339 26.8215C33.0798 26.8215 25.5952 24.413 25.5952 18.1728C25.5952 11.9326 34.7187 7.25248 45.9729 6.86931C59.6855 6.37666 63.1 10.2905 63.2639 16.558Z" fill="#4A67A4"/>
<path d="M63.0725 16.5581C63.1545 19.7876 55.4514 26.7394 44.2792 26.7394C33.107 26.7394 25.7043 24.3583 25.7043 18.1455C25.7043 11.96 34.7732 7.33462 45.9181 6.92408C59.4941 6.45881 62.9086 10.3179 63.0725 16.5581Z" fill="#4B67A5"/>
<path d="M62.8541 16.5311C62.9361 19.7606 55.2876 26.6303 44.2246 26.6303C33.1617 26.6303 25.8137 24.2492 25.8137 18.1185C25.8137 11.9878 34.8007 7.38973 45.8636 7.00656C59.3303 6.51392 62.7175 10.373 62.8541 16.5311Z" fill="#4C68A5"/>
<path d="M62.6628 16.5311C62.7447 19.7333 55.1509 26.5482 44.1972 26.5482C33.2162 26.5482 25.9229 24.1945 25.9229 18.0911C25.9229 12.0151 34.8278 7.44447 45.7815 7.0613C59.139 6.59602 62.4989 10.4004 62.6628 16.5311Z" fill="#4D69A6"/>
<path d="M62.4717 16.5034C62.5536 19.6782 55.0418 26.4385 44.17 26.4385C33.2983 26.4385 26.0596 24.0847 26.0596 18.0635C26.0596 12.0148 34.8826 7.52629 45.7543 7.14312C58.9479 6.65047 62.3078 10.4274 62.4717 16.5034Z" fill="#4E69A6"/>
<path d="M62.253 16.5036C62.3349 19.6511 54.8777 26.3565 44.0879 26.3565C33.2981 26.3565 26.114 24.0301 26.114 18.0363C26.114 12.0424 34.8551 7.5812 45.6449 7.19803C58.7565 6.73276 62.1164 10.4823 62.253 16.5036Z" fill="#4F6AA7"/>
<path d="M62.0619 16.4759C62.1438 19.6234 54.7412 26.2194 44.0607 26.2194C33.3802 26.2194 26.2507 23.893 26.2507 17.9812C26.2507 12.0421 34.9099 7.60829 45.5904 7.25249C58.5928 6.78721 61.9253 10.5094 62.0619 16.4759Z" fill="#506BA7"/>
<path d="M61.8706 16.4763C61.9525 19.5964 54.6045 26.1376 44.0333 26.1376C33.4347 26.1376 26.3872 23.8386 26.3872 17.9542C26.3872 12.0698 34.9917 7.69072 45.563 7.30755C58.4015 6.86964 61.7067 10.5645 61.8706 16.4763Z" fill="#506BA8"/>
<path d="M61.6521 16.449C61.7341 19.5417 54.468 26.0282 43.9514 26.0282C33.4621 26.0282 26.4419 23.7292 26.4419 17.9269C26.4419 12.0973 34.9645 7.74554 45.4538 7.38974C58.2103 6.92446 61.5155 10.5919 61.6521 16.449Z" fill="#526DA8"/>
<path d="M61.4608 16.4485C61.5154 19.5139 54.3313 25.9456 43.924 25.9456C33.5166 25.9456 26.5784 23.674 26.5784 17.8991C26.5784 12.1242 35.019 7.7998 45.399 7.444C58.0463 7.0061 61.3242 10.6188 61.4608 16.4485Z" fill="#536DA9"/>
<path d="M61.2697 16.4216C61.3244 19.4869 54.1949 25.8366 43.8968 25.8366C33.5987 25.8366 26.7151 23.565 26.7151 17.8448C26.7151 12.1246 35.0738 7.85499 45.3719 7.49919C57.8552 7.06129 61.1331 10.674 61.2697 16.4216Z" fill="#546EA9"/>
<path d="M61.0784 16.3939C61.133 19.4319 54.0582 25.7268 43.8694 25.7268C33.6532 25.7268 26.8242 23.4825 26.8242 17.8171C26.8242 12.1516 35.1009 7.9094 45.3171 7.55359C57.6639 7.14306 60.9145 10.7011 61.0784 16.3939Z" fill="#556FAA"/>
<path d="M60.8599 16.3941C60.9146 19.4047 53.9217 25.6449 43.7875 25.6449C33.6806 25.6449 26.9062 23.4006 26.9062 17.7899C26.9062 12.1792 35.101 7.96435 45.2352 7.63592C57.5001 7.19801 60.7234 10.756 60.8599 16.3941Z" fill="#566FAA"/>
<path d="M60.6686 16.3668C60.7232 19.3501 53.785 25.5355 43.7601 25.5355C33.7351 25.5355 27.0427 23.3186 27.0427 17.7627C27.0427 12.2067 35.1829 8.04657 45.1805 7.69077C57.3088 7.28023 60.532 10.7835 60.6686 16.3668Z" fill="#5770AB"/>
<path d="M60.4775 16.3666C60.5321 19.3499 53.6485 25.4532 43.7329 25.4532C33.8172 25.4532 27.1521 23.2363 27.1521 17.7351C27.1521 12.2339 35.2103 8.1011 45.126 7.77267C57.1177 7.33476 60.3409 10.838 60.4775 16.3666Z" fill="#5871AB"/>
<path d="M60.2591 16.3393C60.3137 19.2952 53.4848 25.3438 43.6783 25.3438C33.8446 25.3438 27.2615 23.1543 27.2615 17.7078C27.2615 12.2613 35.2377 8.1559 45.0714 7.82747C56.9539 7.41693 60.1225 10.8655 60.2591 16.3393Z" fill="#5971AC"/>
<path d="M60.0678 16.3394C60.1224 19.2679 53.3754 25.2618 43.6236 25.2618C33.8991 25.2618 27.3706 23.0723 27.3706 17.6805C27.3706 12.2888 35.2649 8.23811 44.9894 7.90968C56.7625 7.47177 59.9312 10.8929 60.0678 16.3394Z" fill="#5A72AC"/>
<path d="M59.8767 16.3118C59.9313 19.213 53.2389 25.1521 43.5964 25.1521C33.9539 25.1521 27.48 22.9899 27.48 17.6529C27.48 12.3159 35.2923 8.29262 44.9349 7.96418C56.5714 7.55365 59.7401 10.9474 59.8767 16.3118Z" fill="#5B73AD"/>
<path d="M59.658 16.312C59.7126 19.2131 53.0749 25.0702 43.5416 25.0702C34.0083 25.0702 27.5891 22.908 27.5891 17.6257C27.5891 12.3434 35.3195 8.34752 44.8801 8.04646C56.4074 7.60855 59.5487 10.975 59.658 16.312Z" fill="#5D74AE"/>
<path d="M59.4669 16.2846C59.5216 19.1583 52.9384 24.9333 43.5144 24.9333C34.0631 24.9333 27.7258 22.7984 27.7258 17.5435C27.7258 12.2886 35.4016 8.37484 44.8256 8.04641C56.2163 7.69061 59.3577 11.0297 59.4669 16.2846Z" fill="#5E75AE"/>
<path d="M59.2755 16.2845C59.3302 19.1309 52.829 24.8511 43.4596 24.8511C34.1176 24.8511 27.8076 22.7163 27.8076 17.5435C27.8076 12.3707 35.4014 8.45691 44.7435 8.15585C56.025 7.74531 59.139 11.057 59.2755 16.2845Z" fill="#5F75AF"/>
<path d="M59.0845 16.2572C59.1391 19.0762 52.6926 24.7416 43.4325 24.7416C34.1724 24.7416 27.9443 22.6342 27.9443 17.4888C27.9443 12.3434 35.4562 8.48429 44.7163 8.18323C55.8612 7.82742 58.9479 11.0844 59.0845 16.2572Z" fill="#6076AF"/>
<path d="M58.8658 16.2569C58.9205 19.076 52.5285 24.6593 43.3777 24.6593C34.2269 24.6593 28.0535 22.5519 28.0535 17.4885C28.0535 12.3979 35.4834 8.59352 44.6342 8.29246C55.6699 7.90929 58.7566 11.1389 58.8658 16.2569Z" fill="#6177B0"/>
<path d="M58.6747 16.2296C58.7293 19.0213 52.3921 24.5499 43.3505 24.5499C34.2816 24.5499 28.1628 22.4698 28.1628 17.4338C28.1628 12.3979 35.5108 8.62093 44.5797 8.31987C55.4788 7.96407 58.5655 11.1663 58.6747 16.2296Z" fill="#6277B0"/>
<path d="M58.4834 16.2299C58.538 18.9942 52.2827 24.4681 43.2957 24.4681C34.3361 24.4681 28.272 22.388 28.272 17.4342C28.272 12.4803 35.538 8.70335 44.5249 8.42966C55.3147 8.04649 58.3468 11.2213 58.4834 16.2299Z" fill="#6378B0"/>
<path d="M58.265 16.2025C58.3196 18.9395 52.1189 24.3586 43.2412 24.3586C34.3635 24.3586 28.3813 22.3059 28.3813 17.3794C28.3813 12.4529 35.5927 8.75808 44.4431 8.45702C55.1236 8.10122 58.1557 11.2487 58.265 16.2025Z" fill="#6479B1"/>
<path d="M58.0736 16.2022C58.1282 18.9391 51.9822 24.2761 43.2138 24.2761C34.418 24.2761 28.4905 22.2234 28.4905 17.3517C28.4905 12.48 35.6199 8.81247 44.3883 8.53878C54.9323 8.18298 57.9644 11.3031 58.0736 16.2022Z" fill="#6479B1"/>
<path d="M57.8825 16.175C57.9371 18.8845 51.8457 24.1668 43.1592 24.1668C34.4728 24.1668 28.5999 22.1415 28.5999 17.3245C28.5999 12.5075 35.6474 8.86738 44.3338 8.59369C54.7412 8.23789 57.7732 11.3306 57.8825 16.175Z" fill="#657AB2"/>
<path d="M57.6641 16.1479C57.7187 18.8301 51.7092 24.0576 43.1047 24.0576C34.5002 24.0576 28.7092 22.0323 28.7092 17.2701C28.7092 12.5078 35.6748 8.92243 44.2793 8.64873C54.5774 8.3203 57.5548 11.3583 57.6641 16.1479Z" fill="#667BB2"/>
<path d="M57.4728 16.1474C57.5274 18.8023 51.5725 23.9751 43.0773 23.9751C34.582 23.9751 28.8184 21.9771 28.8184 17.2696C28.8184 12.5621 35.702 9.00407 44.1972 8.73037C54.3861 8.37457 57.3635 11.4126 57.4728 16.1474Z" fill="#687CB3"/>
<path d="M57.2814 16.1203C57.3361 18.7752 51.4358 23.8658 43.0498 23.8658C34.6365 23.8658 28.9548 21.8953 28.9548 17.2151C28.9548 12.5623 35.7838 9.0317 44.1698 8.78537C54.1947 8.45694 57.1722 11.4402 57.2814 16.1203Z" fill="#697DB4"/>
<path d="M57.0903 16.1203C57.145 18.7477 51.2994 23.7563 42.9953 23.7563C34.6913 23.7563 29.0642 21.7857 29.0642 17.1877C29.0642 12.5897 35.8112 9.11376 44.1153 8.84007C54.031 8.51163 56.9811 11.4949 57.0903 16.1203Z" fill="#6A7EB4"/>
<path d="M56.8719 16.0929C56.9265 18.693 51.1629 23.6468 42.9408 23.6468C34.7187 23.6468 29.1462 21.7036 29.1462 17.1329C29.1462 12.5896 35.8113 9.14107 44.0061 8.89475C53.8398 8.59369 56.7626 11.5222 56.8719 16.0929Z" fill="#6B7EB5"/>
<path d="M56.6806 16.0929C56.7352 18.6656 51.0262 23.5647 42.9134 23.5647C34.8005 23.5647 29.2827 21.6215 29.2827 17.133C29.2827 12.6444 35.8659 9.22325 43.9787 8.97692C53.6485 8.64849 56.5713 11.5496 56.6806 16.0929Z" fill="#6C7FB5"/>
<path d="M56.4895 16.0657C56.5441 18.6385 50.8897 23.4555 42.8862 23.4555C34.8553 23.4555 29.4194 21.5396 29.4194 17.0784C29.4194 12.6172 35.9206 9.27816 43.9515 9.03184C53.4848 8.73078 56.3802 11.6046 56.4895 16.0657Z" fill="#6D80B6"/>
<path d="M56.2708 16.0654C56.3254 18.6107 50.753 23.373 42.804 23.373C34.8824 23.373 29.4739 21.4571 29.4739 17.0507C29.4739 12.6442 35.8931 9.33255 43.8147 9.08622C53.2934 8.78516 56.1888 11.6316 56.2708 16.0654Z" fill="#6E80B6"/>
<path d="M56.0797 16.0381C56.1343 18.5561 50.6165 23.2636 42.7769 23.2636C34.9372 23.2636 29.6106 21.3752 29.6106 17.0234C29.6106 12.6717 35.9752 9.38741 43.7876 9.16845C53.1023 8.86739 55.9978 11.6864 56.0797 16.0381Z" fill="#6F81B7"/>
<path d="M55.8884 16.0383C55.943 18.5563 50.4798 23.1817 42.7494 23.1817C35.019 23.1817 29.7197 21.2932 29.7197 16.9962C29.7197 12.6992 36.0024 9.46966 43.7328 9.22334C52.9383 8.92227 55.8064 11.7139 55.8884 16.0383Z" fill="#7082B7"/>
<path d="M55.67 16.011C55.7246 18.5016 50.316 23.0723 42.6949 23.0723C35.0464 23.0723 29.8291 21.2112 29.8291 16.969C29.8291 12.7267 36.0298 9.52453 43.651 9.30557C52.7472 9.00451 55.588 11.7688 55.67 16.011Z" fill="#7183B8"/>
<path d="M55.4786 16.0107C55.5332 18.4739 50.2066 22.9899 42.6401 22.9899C35.1009 22.9899 29.9382 21.1288 29.9382 16.9413C29.9382 12.7538 36.057 9.6063 43.5962 9.35997C52.5558 9.05891 55.3967 11.7958 55.4786 16.0107Z" fill="#7384B9"/>
<path d="M55.2875 15.9837C55.3421 18.4195 50.0702 22.8807 42.6129 22.8807C35.1557 22.8807 30.0476 21.047 30.0476 16.9142C30.0476 12.7815 36.0844 9.66137 43.5417 9.44242C52.392 9.14136 55.2056 11.8235 55.2875 15.9837Z" fill="#7485B9"/>
<path d="M55.0962 15.9836C55.1508 18.4195 49.9335 22.7986 42.5855 22.7986C35.2375 22.7986 30.1841 20.9648 30.1841 16.8868C30.1841 12.8088 36.139 9.71607 43.4869 9.49711C52.2007 9.19605 55.0142 11.8782 55.0962 15.9836Z" fill="#7586BA"/>
<path d="M54.8778 15.9562C54.9324 18.3647 49.7697 22.689 42.531 22.689C35.265 22.689 30.2935 20.8826 30.2935 16.832C30.2935 12.8087 36.1937 9.7707 43.4324 9.55175C52.0096 9.27806 54.7958 11.9055 54.8778 15.9562Z" fill="#7686BA"/>
<path d="M54.6867 15.9561C54.7413 18.3372 49.6605 22.6068 42.4764 22.6068C35.3197 22.6068 30.3755 20.8004 30.3755 16.8319C30.3755 12.8634 36.1938 9.85273 43.3505 9.63378C51.8458 9.33272 54.6047 11.9602 54.6867 15.9561Z" fill="#7787BB"/>
<path d="M54.4953 15.9289C54.55 18.2826 49.5238 22.4701 42.449 22.4701C35.3742 22.4701 30.512 20.6911 30.512 16.7499C30.512 12.8361 36.2483 9.85287 43.3231 9.66129C51.6545 9.41496 54.4134 11.9877 54.4953 15.9289Z" fill="#7888BB"/>
<path d="M54.2769 15.9013C54.3316 18.2551 49.3601 22.3605 42.3945 22.3605C35.4289 22.3605 30.6213 20.5815 30.6213 16.7224C30.6213 12.8633 36.2757 9.93482 43.2413 9.71586C51.4634 9.49691 54.2223 12.0149 54.2769 15.9013Z" fill="#7989BC"/>
<path d="M54.0856 15.9012C54.1402 18.2276 49.2233 22.2782 42.3671 22.2782C35.4834 22.2782 30.7305 20.5266 30.7305 16.6949C30.7305 12.8906 36.3029 9.98943 43.1865 9.79784C51.2994 9.55152 54.0036 12.0695 54.0856 15.9012Z" fill="#7A89BC"/>
<path d="M53.8945 15.8741C53.9491 18.1731 49.1142 22.169 42.3125 22.169C35.5382 22.169 30.8398 20.4174 30.8398 16.6678C30.8398 12.9182 36.3303 10.0444 43.132 9.85286C51.1082 9.6339 53.8125 12.0971 53.8945 15.8741Z" fill="#7B8ABD"/>
<path d="M53.6758 15.874C53.7304 18.1457 48.9502 22.0869 42.2578 22.0869C35.5654 22.0869 30.949 20.3626 30.949 16.6404C30.949 12.9182 36.3848 10.1265 43.0499 9.9349C50.9169 9.68858 53.6212 12.1518 53.6758 15.874Z" fill="#7C8BBD"/>
<path d="M53.4847 15.8464C53.512 18.118 48.8137 21.9771 42.2306 21.9771C35.6474 21.9771 31.0583 20.2529 31.0583 16.6127C31.0583 12.9453 36.4123 10.181 42.9954 9.98937C50.7258 9.77042 53.4301 12.1789 53.4847 15.8464Z" fill="#7E8CBE"/>
<path d="M53.2934 15.8464C53.3207 18.0907 48.677 21.895 42.1758 21.895C35.6746 21.895 31.1675 20.1981 31.1675 16.5854C31.1675 12.9726 36.4395 10.2357 42.9406 10.0715C50.5618 9.82516 53.2387 12.2337 53.2934 15.8464Z" fill="#7F8DBE"/>
<path d="M53.1023 15.8194C53.1296 18.0364 48.5679 21.7859 42.1486 21.7859C35.7567 21.7859 31.3042 20.0891 31.3042 16.531C31.3042 12.973 36.4942 10.2909 42.8861 10.0993C50.3707 9.90768 53.0203 12.2614 53.1023 15.8194Z" fill="#808EBF"/>
<path d="M52.8836 15.8195C52.9109 18.009 48.4038 21.7039 42.0938 21.7039C35.7838 21.7039 31.386 20.0343 31.386 16.5311C31.386 13.0278 36.4941 10.373 42.804 10.2088C50.1793 9.96244 52.829 12.2888 52.8836 15.8195Z" fill="#808FBF"/>
<path d="M52.6925 15.7917C52.7199 17.9812 48.2674 21.594 42.0666 21.594C35.8659 21.594 31.5227 19.9245 31.5227 16.4759C31.5227 13.0274 36.5488 10.4 42.7769 10.2357C50.0156 10.0442 52.6379 12.3432 52.6925 15.7917Z" fill="#818FC0"/>
<path d="M52.5012 15.7919C52.5285 17.954 48.1306 21.5121 42.0119 21.5121C35.8931 21.5121 31.6318 19.8699 31.6318 16.4761C31.6318 13.0823 36.6033 10.5096 42.6948 10.3454C49.8242 10.0991 52.4466 12.3707 52.5012 15.7919Z" fill="#8290C0"/>
<path d="M52.2827 15.7645C52.3101 17.8993 47.9942 21.4025 41.9573 21.4025C35.9478 21.4025 31.7139 19.7604 31.7139 16.4213C31.7139 13.0823 36.6034 10.5369 42.6129 10.3727C49.6331 10.1811 52.2281 12.4254 52.2827 15.7645Z" fill="#8391C1"/>
<path d="M52.0914 15.7645C52.1187 17.8719 47.8575 21.2931 41.9299 21.2931C36.0024 21.2931 31.8503 19.6783 31.8503 16.394C31.8503 13.1096 36.6579 10.5917 42.5855 10.4548C49.4691 10.2359 52.0368 12.4528 52.0914 15.7645Z" fill="#8492C1"/>
<path d="M51.9004 15.7373C51.9277 17.8447 47.721 21.1838 41.9027 21.1838C36.0844 21.1838 31.9871 19.569 31.9871 16.3394C31.9871 13.1098 36.7127 10.6466 42.531 10.4824C49.278 10.3182 51.8457 12.4803 51.9004 15.7373Z" fill="#8593C2"/>
<path d="M51.6819 15.7373C51.7092 17.8174 47.5572 21.1017 41.8208 21.1017C36.0845 21.1017 32.0417 19.5143 32.0417 16.3394C32.0417 13.1646 36.6855 10.7287 42.4218 10.5919C49.0869 10.3729 51.6546 12.5351 51.6819 15.7373Z" fill="#8693C2"/>
<path d="M51.4906 15.71C51.5179 17.7627 47.4478 20.9923 41.7934 20.9923C36.1663 20.9923 32.1782 19.4049 32.1782 16.2848C32.1782 13.1647 36.74 10.7562 42.3944 10.6193C48.9229 10.4551 51.4359 12.5625 51.4906 15.71Z" fill="#8895C3"/>
<path d="M51.2993 15.7096C51.3266 17.7349 47.3111 20.9098 41.766 20.9098C36.2209 20.9098 32.3147 19.3497 32.3147 16.257C32.3147 13.1916 36.8218 10.8379 42.3396 10.701C48.7316 10.5095 51.2446 12.6169 51.2993 15.7096Z" fill="#8996C4"/>
<path d="M51.1082 15.6822C51.1355 17.7076 47.1747 20.8003 41.7388 20.8003C36.3029 20.8003 32.4241 19.2402 32.4241 16.2296C32.4241 13.219 36.8493 10.8926 42.2851 10.7558C48.5405 10.5916 51.0535 12.6442 51.1082 15.6822Z" fill="#8A96C4"/>
<path d="M50.8897 15.655C50.917 17.653 47.0109 20.691 41.6569 20.691C36.3303 20.691 32.5061 19.1583 32.5061 16.2024C32.5061 13.2466 36.8493 10.9475 42.2033 10.8381C48.3766 10.6465 50.8624 12.6992 50.8897 15.655Z" fill="#8B97C5"/>
<path d="M50.6984 15.655C50.7257 17.6256 46.9015 20.6088 41.6295 20.6088C36.3849 20.6088 32.6426 19.0761 32.6426 16.175C32.6426 13.2465 36.9039 11.0296 42.1758 10.8927C48.1853 10.7285 50.6438 12.7265 50.6984 15.655Z" fill="#8B98C5"/>
<path d="M50.5073 15.6277C50.5346 17.5709 46.765 20.4994 41.6023 20.4994C36.4396 20.4994 32.752 18.9941 32.752 16.1203C32.752 13.2466 36.9313 11.057 42.094 10.9475C47.9942 10.7833 50.4527 12.7539 50.5073 15.6277Z" fill="#8C99C6"/>
<path d="M50.2886 15.6277C50.316 17.5709 46.601 20.4174 41.5475 20.4174C36.4668 20.4174 32.8611 18.912 32.8611 16.1204C32.8611 13.3013 36.9585 11.1392 42.0392 11.0297C47.8302 10.8655 50.2613 12.8087 50.2886 15.6277Z" fill="#8D99C6"/>
<path d="M50.0975 15.6004C50.1248 17.5163 46.4645 20.308 41.493 20.308C36.5215 20.308 32.9431 18.83 32.9431 16.0657C32.9431 13.3014 36.9859 11.194 41.9574 11.0845C47.6391 10.9203 50.0702 12.8361 50.0975 15.6004Z" fill="#8E9AC7"/>
<path d="M49.9062 15.6005C49.9335 17.489 46.3551 20.2259 41.4656 20.2259C36.576 20.2259 33.0796 18.748 33.0796 16.0384C33.0796 13.3288 37.0404 11.2488 41.9026 11.1393C47.4478 11.0025 49.8516 12.8909 49.9062 15.6005Z" fill="#8F9BC7"/>
<path d="M49.6878 15.5727C49.7151 17.4338 46.1913 20.0886 41.4111 20.0886C36.6308 20.0886 33.189 18.6381 33.189 15.9832C33.189 13.3284 37.0678 11.2757 41.8481 11.1936C47.284 11.0841 49.6605 12.9179 49.6878 15.5727Z" fill="#909CC8"/>
<path d="M49.4964 15.5727C49.5237 17.4338 46.0546 20.0065 41.3836 20.0065C36.6853 20.0065 33.2981 18.556 33.2981 15.9559C33.2981 13.3558 37.095 11.3578 41.7933 11.2484C47.0926 11.1389 49.4691 12.9453 49.4964 15.5727Z" fill="#929DC9"/>
<path d="M49.3053 15.5453C49.3326 17.3791 45.9182 19.8971 41.3291 19.8971C36.74 19.8971 33.4075 18.4739 33.4075 15.9285C33.4075 13.3832 37.1224 11.4126 41.7115 11.3305C46.9015 11.221 49.278 13 49.3053 15.5453Z" fill="#939EC9"/>
<path d="M49.114 15.5454C49.1413 17.3517 45.8088 19.815 41.3017 19.815C36.7945 19.815 33.5439 18.3918 33.5439 15.9012C33.5439 13.4106 37.2043 11.4673 41.6841 11.3852C46.7102 11.2758 49.0594 13.0274 49.114 15.5454Z" fill="#949FCA"/>
<path d="M48.8956 15.518C48.9229 17.297 45.645 19.7055 41.2471 19.7055C36.8493 19.7055 33.626 18.3097 33.626 15.8738C33.626 13.4379 37.2044 11.5494 41.6022 11.4673C46.5464 11.3579 48.8683 13.0821 48.8956 15.518Z" fill="#95A0CA"/>
<path d="M48.7045 15.518C48.7318 17.297 45.5085 19.6234 41.1926 19.6234C36.8767 19.6234 33.7354 18.2276 33.7354 15.8464C33.7354 13.4653 37.2318 11.6042 41.5204 11.5221C46.3553 11.4126 48.6772 13.1095 48.7045 15.518Z" fill="#96A0CB"/>
<path d="M48.5132 15.4906C48.5405 17.2423 45.3718 19.5139 41.1652 19.5139C36.9585 19.5139 33.8718 18.1455 33.8718 15.8191C33.8718 13.4927 37.2863 11.6589 41.493 11.6042C46.164 11.4947 48.4858 13.1643 48.5132 15.4906Z" fill="#96A1CB"/>
<path d="M48.2947 15.4907C48.322 17.2149 45.2353 19.4319 41.1106 19.4319C36.9859 19.4319 33.9539 18.0634 33.9539 15.7917C33.9539 13.5201 37.2864 11.7411 41.4111 11.659C46.0002 11.5495 48.2947 13.1917 48.2947 15.4907Z" fill="#97A2CC"/>
<path d="M48.1034 15.4634C48.1307 17.1603 45.0986 19.3225 41.0832 19.3225C37.0678 19.3225 34.0903 17.9814 34.0903 15.7371C34.0903 13.5202 37.3409 11.7685 41.3564 11.6864C45.8089 11.6317 48.0761 13.2191 48.1034 15.4634Z" fill="#98A3CC"/>
<path d="M47.9123 15.4633C47.9396 17.1602 44.9622 19.2403 41.0287 19.2403C37.0952 19.2403 34.1997 17.8992 34.1997 15.737C34.1997 13.5475 37.3957 11.8506 41.3018 11.7959C45.6178 11.6864 47.885 13.2738 47.9123 15.4633Z" fill="#99A4CD"/>
<path d="M47.6936 15.4359C47.7209 17.1055 44.7981 19.1308 40.9739 19.1308C37.1497 19.1308 34.2815 17.8171 34.2815 15.6823C34.2815 13.5475 37.3955 11.9053 41.2197 11.8232C45.4537 11.7685 47.6936 13.3011 47.6936 15.4359Z" fill="#9AA4CD"/>
<path d="M47.5025 15.4088C47.5299 17.0509 44.689 19.0215 40.9467 19.0215C37.2044 19.0215 34.4182 17.7078 34.4182 15.6551C34.4182 13.575 37.4503 11.9602 41.1926 11.9055C45.2626 11.8234 47.5025 13.3561 47.5025 15.4088Z" fill="#9BA5CE"/>
<path d="M47.3112 15.4085C47.3112 17.0507 44.5523 18.9391 40.9193 18.9391C37.2863 18.9391 34.5547 17.6528 34.5547 15.6275C34.5547 13.6021 37.5048 12.0147 41.1378 11.96C45.0713 11.9052 47.2839 13.3832 47.3112 15.4085Z" fill="#9DA7CF"/>
<path d="M47.1201 15.3811C47.1201 16.9959 44.4158 18.8023 40.8647 18.8023C37.3137 18.8023 34.6367 17.5159 34.6367 15.5727C34.6367 13.6021 37.5049 12.0694 41.056 12.0147C44.9075 11.9599 47.0928 13.4105 47.1201 15.3811Z" fill="#9EA8CF"/>
<path d="M46.9014 15.3814C46.9014 16.9688 44.2518 18.7205 40.81 18.7205C37.3682 18.7205 34.7458 17.4615 34.7458 15.5456C34.7458 13.6298 37.5321 12.1245 41.0012 12.0697C44.7162 12.0424 46.9014 13.4656 46.9014 15.3814Z" fill="#9FA8D0"/>
<path d="M46.7104 15.3542C46.7104 16.9142 44.1427 18.6111 40.7828 18.6111C37.423 18.6111 34.8826 17.3521 34.8826 15.5184C34.8826 13.6573 37.6142 12.1793 40.9467 12.1519C44.5251 12.0972 46.683 13.493 46.7104 15.3542Z" fill="#A0A9D0"/>
<path d="M46.519 15.3539C46.519 16.914 44.0059 18.5288 40.7554 18.5288C37.5048 18.5288 34.9917 17.2971 34.9917 15.4908C34.9917 13.6844 37.6413 12.2612 40.8919 12.2065C44.3611 12.1791 46.4917 13.5476 46.519 15.3539Z" fill="#A1AAD1"/>
<path d="M46.3006 15.3265C46.3006 16.8592 43.8421 18.4192 40.6735 18.4192C37.5048 18.4192 35.0737 17.1876 35.0737 15.436C35.0737 13.6844 37.6414 12.2885 40.8101 12.2612C44.1699 12.2338 46.3006 13.5749 46.3006 15.3265Z" fill="#A2ABD1"/>
<path d="M46.1093 15.3264C46.1093 16.8318 43.7055 18.3371 40.6461 18.3371C37.5867 18.3371 35.2102 17.1328 35.2102 15.4359C35.2102 13.739 37.696 12.3706 40.7553 12.3432C43.9786 12.3158 46.1093 13.6296 46.1093 15.3264Z" fill="#A3ACD2"/>
<path d="M45.9182 15.299C45.9182 16.777 43.5963 18.2275 40.6189 18.2275C37.6414 18.2275 35.3196 17.0233 35.3196 15.3811C35.3196 13.739 37.7234 12.4253 40.7008 12.3979C43.8148 12.3705 45.8908 13.6569 45.9182 15.299Z" fill="#A4ACD2"/>
<path d="M45.6995 15.2995C45.6995 16.7774 43.4323 18.1459 40.5641 18.1459C37.6959 18.1459 35.4287 16.969 35.4287 15.3816C35.4287 13.7942 37.7506 12.5078 40.6461 12.4804C43.6235 12.4531 45.6995 13.6847 45.6995 15.2995Z" fill="#A5ADD3"/>
<path d="M45.5084 15.272C45.5084 16.7226 43.2958 18.0363 40.5096 18.0363C37.7234 18.0363 35.5381 16.8868 35.5381 15.3268C35.5381 13.7941 37.8053 12.5351 40.5642 12.5351C43.4324 12.5077 45.5084 13.7394 45.5084 15.272Z" fill="#A6AED3"/>
<path d="M45.3173 15.272C45.3173 16.6952 43.1593 17.9542 40.4824 17.9542C37.8054 17.9542 35.6475 16.8047 35.6475 15.3267C35.6475 13.8488 37.8327 12.6445 40.5097 12.6172C43.2413 12.5898 45.3173 13.7667 45.3173 15.272Z" fill="#A8B0D4"/>
<path d="M45.126 15.2446C45.126 16.6404 43.05 17.8447 40.455 17.8447C37.8599 17.8447 35.7839 16.7225 35.7839 15.272C35.7839 13.8488 37.8873 12.6719 40.4823 12.6719C43.0773 12.6719 45.126 13.8214 45.126 15.2446Z" fill="#A8B0D5"/>
<path d="M44.9076 15.2445C44.9076 16.6404 42.8862 17.7625 40.4004 17.7625C37.9147 17.7625 35.8933 16.6404 35.8933 15.2445C35.8933 13.8487 37.9147 12.7266 40.4004 12.7266C42.8862 12.7266 44.9076 13.8487 44.9076 15.2445Z" fill="#A9B1D5"/>
<path d="M65.3123 4.76221C70.8301 7.63598 74.2173 11.6045 74.2173 15.9836C74.2173 24.7144 60.7232 31.8031 44.0878 31.8031C34.418 31.8031 25.8408 29.4219 20.323 25.6997C22.9726 34.6768 37.9691 41.5465 56.0522 41.5465C76.0201 41.5465 92.1912 33.1715 92.1912 22.8259C92.1912 14.1772 80.7731 6.86964 65.3123 4.76221Z" fill="url(#paint0_linear_2_44685)"/>
<path d="M55.9704 1.66943C34.3362 1.66943 16.8267 11.1392 16.8267 22.8259C16.8267 34.5126 34.3635 43.9823 55.9704 43.9823C77.6046 43.9823 95.1141 34.5126 95.1141 22.8259C95.1141 11.1392 77.5773 1.66943 55.9704 1.66943ZM55.9977 43.0518C34.7732 43.0518 17.5369 33.9104 17.5369 22.6069C17.5369 11.3308 34.7459 2.16208 55.9977 2.16208C77.2221 2.16208 94.4585 11.3034 94.4585 22.6069C94.4585 33.8831 77.2495 43.0518 55.9977 43.0518Z" fill="url(#paint1_linear_2_44685)"/>
<path d="M55.9704 1.66943C34.3362 1.66943 16.8267 11.1392 16.8267 22.8259C16.8267 34.5126 34.3635 43.9823 55.9704 43.9823C77.6046 43.9823 95.1141 34.5126 95.1141 22.8259C95.1141 11.1392 77.5773 1.66943 55.9704 1.66943ZM55.9977 41.3001C36.1663 41.3001 20.1046 32.9799 20.1046 22.7164C20.1046 12.4529 36.1663 4.13267 55.9977 4.13267C75.829 4.13267 91.8908 12.4529 91.8908 22.7164C91.8908 32.9799 75.829 41.3001 55.9977 41.3001Z" fill="url(#paint2_linear_2_44685)"/>
<path d="M55.8337 2.54541C34.8824 2.54541 17.9192 11.5773 17.9192 22.6892C17.9192 33.8285 34.8824 42.833 55.8337 42.833C76.785 42.833 93.7482 33.8011 93.7482 22.6892C93.7482 11.5499 76.785 2.54541 55.8337 2.54541ZM55.9976 41.3003C36.1662 41.3003 20.1045 32.9801 20.1045 22.7166C20.1045 12.4531 36.1662 4.13283 55.9976 4.13283C75.8289 4.13283 91.8907 12.4531 91.8907 22.7166C91.8907 32.9801 75.8289 41.3003 55.9976 41.3003Z" fill="url(#paint3_linear_2_44685)"/>
<path d="M55.9978 3.85889C35.8659 3.85889 19.531 12.316 19.531 22.7437C19.531 33.1714 35.8659 41.6285 55.9978 41.6285C76.1296 41.6285 92.4645 33.1714 92.4645 22.7437C92.4645 12.2886 76.1569 3.85889 55.9978 3.85889ZM55.9978 41.3001C36.1664 41.3001 20.1046 32.9798 20.1046 22.7163C20.1046 12.4528 36.1664 4.13258 55.9978 4.13258C75.8291 4.13258 91.8909 12.4528 91.8909 22.7163C91.8909 32.9798 75.8291 41.3001 55.9978 41.3001Z" fill="url(#paint4_linear_2_44685)"/>
<path d="M72.0594 36.401C72.0321 36.5926 71.9229 36.921 71.759 36.921C71.5678 36.921 71.5131 36.7021 71.4312 36.4558C71.3492 36.1821 71.2673 35.4978 70.9668 34.7315C70.6663 33.9925 69.3279 33.9104 68.3718 33.8283C67.4157 33.7462 63.5915 33.5546 62.7994 33.6367C62.6901 33.6367 62.4989 33.6641 62.253 33.6641L62.1165 33.9925C62.7174 33.9104 63.291 33.8831 63.81 33.8831C65.2032 33.8831 65.449 33.9104 66.2958 34.0199C67.1426 34.1294 68.9454 34.3483 69.683 34.5673C70.3932 34.7862 70.639 35.3063 70.8302 35.7989C71.0214 36.2642 71.4312 37.5232 71.4312 37.5232C71.4312 37.5232 71.5404 38.0432 71.7863 38.0432C72.0321 38.0432 72.1414 37.4958 72.1414 37.4958L72.0594 36.401Z" fill="url(#paint5_linear_2_44685)"/>
<path d="M73.3159 32.6513C74.1081 32.9523 76.0475 33.0892 76.348 33.0892C76.6485 33.0892 77.1948 33.0618 77.1948 33.3355C77.1948 33.6092 76.8943 33.6366 76.5119 33.6366L79.1615 33.6913C79.7898 33.6366 80.2542 33.5544 80.2542 33.3629C80.2542 33.1439 80.0083 33.0618 79.1069 32.9523C78.2055 32.8155 75.5012 32.5418 74.0808 32.2407L73.3159 32.6513Z" fill="url(#paint6_linear_2_44685)"/>
<path d="M72.0593 30.6262C72.0047 30.2704 71.8408 29.9694 71.6769 29.9694C71.513 29.9694 71.3764 30.3526 71.2945 30.6536C71.2399 30.9547 71.2672 31.9673 70.5843 32.3779C69.9287 32.8158 69.1912 32.98 66.9239 33.1169C64.6294 33.2537 62.7173 33.1716 62.0344 33.1442L62.0071 32.8705C62.7719 32.9526 63.5641 32.98 64.6567 32.9526C66.3776 32.8979 68.1805 32.5147 69.1365 32.3231C70.0926 32.1316 70.2838 31.6937 70.5296 31.3105C70.7755 30.9273 71.1033 29.7504 71.1579 29.5588C71.2125 29.3673 71.2945 28.7651 71.6223 28.7651C71.9501 28.7651 72.0867 29.641 72.3052 30.2157L72.0593 30.6262Z" fill="url(#paint7_linear_2_44685)"/>
<path d="M56.8717 31.8853C56.9536 31.94 57.0629 31.9947 57.1722 32.0495C58.1009 32.46 59.3301 32.5147 60.6686 32.679C62.0071 32.8432 62.9905 32.98 64.6841 32.9253L64.7114 33.1169C63.4822 33.1442 62.4988 33.1169 62.0617 33.0895C61.3515 33.0621 57.7185 32.9527 56.5712 32.5695C56.462 32.5147 56.3527 32.46 56.2708 32.4053L56.8717 31.8853Z" fill="url(#paint8_linear_2_44685)"/>
<path d="M62.7721 33.6367C62.0892 33.6641 58.2923 33.9925 57.2816 34.0473C56.2709 34.102 55.9158 34.7589 55.7792 35.0326C55.6426 35.3336 55.2329 37.3316 55.1782 37.4958C55.1236 37.66 55.069 37.9884 54.9597 37.9884V39.3022C55.1782 39.3022 55.4514 38.18 55.4514 38.18C55.4514 38.18 55.9977 35.7989 56.4075 35.361C56.8172 34.9231 56.8718 34.7589 58.7293 34.4852C60.1497 34.2662 61.5702 34.0199 62.7721 33.9104V33.6367Z" fill="url(#paint9_linear_2_44685)"/>
<path d="M51.4087 33.9106C51.4087 33.9106 52.6379 33.9654 53.1296 34.2117C53.6213 34.4307 54.0583 34.677 54.1676 35.1696C54.3041 35.6623 54.7139 37.4413 54.7412 37.6055C54.7685 37.7697 54.8505 37.9887 54.9597 37.9887C55.069 37.9887 55.1236 37.6602 55.1783 37.496L55.4787 38.2076C55.4787 38.2076 55.2056 39.3298 54.987 39.3298C54.7685 39.3298 54.4954 38.2897 54.4954 38.2897C54.4954 38.2897 53.949 36.4013 53.7032 35.7444C53.4847 35.1149 53.0749 34.9507 52.5013 34.7317C52.2828 34.6496 51.8457 34.5675 51.3813 34.4854L51.4087 33.9106Z" fill="url(#paint10_linear_2_44685)"/>
<path d="M54.7686 37.6055C54.7959 37.7697 54.8778 37.9886 54.9871 37.9886C55.069 37.9886 55.1237 37.7971 55.151 37.6328L55.2056 39.0287C55.1237 39.1929 55.069 39.3024 54.9871 39.3024C54.9051 39.3024 54.8232 39.1929 54.7686 39.0287V37.6055Z" fill="url(#paint11_linear_2_44685)"/>
<path d="M52.5013 34.704C51.9277 34.4851 49.9063 34.2661 49.3873 34.2114C48.8683 34.1566 45.7816 33.8282 45.7543 33.4177C45.727 33.0071 49.4966 32.7061 49.4966 32.7061L49.6058 33.0892C48.9776 33.1713 48.4586 33.144 48.4586 33.3629C48.4586 33.5819 48.841 33.7187 49.6058 33.7461C50.3707 33.7735 51.3814 33.8829 51.3814 33.8829C51.3814 33.8829 52.6106 33.9377 53.1023 34.184L52.5013 34.704Z" fill="url(#paint12_linear_2_44685)"/>
<path d="M45.7543 33.4179C45.727 33.0074 49.4966 32.7063 49.4966 32.7063C51.4087 32.5147 52.474 32.2958 53.1296 31.9126C53.7579 31.5294 54.1949 29.942 54.3588 29.3946C54.5227 28.8472 54.7959 28.2451 54.9324 28.2451C55.069 28.2451 55.2329 28.6283 55.4788 29.4767L55.2602 30.3526C55.1237 29.6136 55.069 29.422 54.8778 29.422C54.6866 29.422 54.5773 29.9694 54.4681 30.462C54.3588 30.9547 54.2222 32.3231 53.2389 32.6242C52.1735 32.9526 51.5726 33.0621 49.5785 33.1168C48.9503 33.199 48.4313 33.1716 48.4313 33.3905L45.7543 33.4179Z" fill="url(#paint13_linear_2_44685)"/>
<path d="M56.544 32.6242C55.8884 32.3505 55.5333 31.7758 55.3148 30.3252C55.1782 29.5862 55.1236 29.3946 54.9324 29.3946L54.9597 28.2451C55.0963 28.2451 55.2602 28.6283 55.506 29.4767C55.7518 30.2978 56.2162 31.6663 57.145 32.0768L56.544 32.6242Z" fill="url(#paint14_linear_2_44685)"/>
<path d="M54.823 29.4767C54.8503 29.422 54.9049 29.422 54.9323 29.422C54.9869 29.422 55.0415 29.4494 55.0688 29.4767L55.0962 28.3546C55.0415 28.2999 55.0142 28.2451 54.9596 28.2451C54.9323 28.2451 54.8776 28.2999 54.823 28.382V29.4767Z" fill="url(#paint15_linear_2_44685)"/>
<path d="M48.677 33.6093C48.5404 33.5546 48.4857 33.4725 48.4857 33.3904C48.4857 33.3083 48.5677 33.2535 48.677 33.2262L46.3278 33.144C45.9727 33.2262 45.7542 33.3356 45.7542 33.4177C45.7542 33.5272 45.9727 33.6093 46.2732 33.7188L48.677 33.6093Z" fill="url(#paint16_linear_2_44685)"/>
<path d="M71.759 38.043C72.0049 38.043 72.1141 37.4956 72.1141 37.4956C72.1141 37.4956 72.7697 35.3882 73.1521 35.0597C73.5346 34.7313 73.7804 34.4302 75.6379 34.1839C77.4681 33.965 78.5607 33.7186 79.2163 33.6913C79.8445 33.6365 80.3089 33.5544 80.3089 33.3628L77.2495 33.3081C77.2495 33.5818 76.9491 33.6092 76.5666 33.6092C76.1842 33.6365 74.5179 33.7734 73.4526 33.9923C72.3873 34.2113 72.1415 36.2092 72.1141 36.4008C72.0868 36.5924 71.9776 36.9208 71.8137 36.9208V38.043H71.759Z" fill="url(#paint17_linear_2_44685)"/>
<path d="M74.7364 32.9253C74.1901 32.8705 73.6437 32.7611 73.3159 32.6242C72.5238 32.3231 72.2506 31.7758 72.0594 30.5989C72.0048 30.2431 71.8409 29.942 71.677 29.942C71.5131 29.942 71.3765 30.3252 71.2946 30.6262L71.1853 29.5588C71.2399 29.3673 71.3219 28.7651 71.6497 28.7651C71.9775 28.7651 72.114 29.641 72.3326 30.2157C72.5511 30.7631 72.633 31.9126 74.0535 32.2137C74.3266 32.2684 74.6271 32.3231 74.9276 32.3779L74.7364 32.9253Z" fill="url(#paint18_linear_2_44685)"/>
<path d="M71.4038 28.9841C71.4584 28.8746 71.5677 28.7925 71.677 28.7925C71.7589 28.7925 71.8409 28.8472 71.9228 28.9567L71.9774 30.2978V30.2704C71.8955 30.0788 71.8135 29.942 71.7043 29.942C71.595 29.942 71.4858 30.1336 71.4311 30.3252L71.4038 28.9841Z" fill="url(#paint19_linear_2_44685)"/>
<path d="M79.7898 33.6368C80.0903 33.582 80.2542 33.4999 80.2542 33.3631C80.2542 33.2262 80.1449 33.1441 79.8171 33.062L76.9216 33.0894C77.0855 33.1167 77.1948 33.1989 77.1948 33.3357C77.1948 33.4178 77.1675 33.4726 77.1402 33.4999L79.7898 33.6368Z" fill="url(#paint20_linear_2_44685)"/>
<path d="M72.0594 36.4009C72.0321 36.5925 71.9228 36.9209 71.7589 36.9209C71.5677 36.9209 71.5131 36.7019 71.4311 36.4556L71.4038 37.523C71.4038 37.523 71.5131 38.043 71.7589 38.043C72.0594 38.043 72.2233 37.1398 72.2233 37.1398L72.0594 36.4009Z" fill="url(#paint21_linear_2_44685)"/>
<path d="M73.589 25.4807C72.8788 25.4533 69.2185 25.3438 68.0712 24.9606C67.962 24.9059 67.8527 24.8512 67.7708 24.7964L68.399 24.2217C68.481 24.2764 68.5902 24.3585 68.6995 24.3859C69.6282 24.7964 70.8848 24.8785 72.2232 25.0428" fill="url(#paint22_linear_2_44685)"/>
<path d="M74.3267 25.9731C73.6438 26.0005 69.8469 26.3289 68.8089 26.3837C67.7982 26.4384 67.4431 27.0953 67.3065 27.3963C67.17 27.6974 66.7602 29.7227 66.7056 29.887C66.651 30.0512 66.5963 30.3796 66.4871 30.3796V31.7207C66.7056 31.7207 66.9787 30.5986 66.9787 30.5986C66.9787 30.5986 67.5251 28.1901 67.9621 27.7521C68.3719 27.3142 68.4265 27.15 70.284 26.849C71.7044 26.63 73.1248 26.3563 74.3267 26.2742V25.9731Z" fill="url(#paint23_linear_2_44685)"/>
<path d="M62.9087 26.2744C62.9087 26.2744 64.1379 26.3292 64.6569 26.5755C65.1486 26.7944 65.5857 27.0681 65.7222 27.5608C65.8588 28.0534 66.2685 29.8598 66.2959 30.024C66.3232 30.1882 66.4051 30.4072 66.5144 30.4072C66.6237 30.4072 66.6783 30.0787 66.7329 29.9145L67.0334 30.6261C67.0334 30.6261 66.7602 31.7483 66.5417 31.7483C66.3232 31.7483 66.05 30.6809 66.05 30.6809C66.05 30.6809 65.5037 28.765 65.2579 28.1082C65.0393 27.4513 64.6296 27.2871 64.056 27.0681C63.8374 26.986 63.4004 26.9039 62.936 26.8218L62.9087 26.2744Z" fill="url(#paint24_linear_2_44685)"/>
<path d="M66.2959 30.0239C66.3232 30.1881 66.4052 30.4071 66.5144 30.4071C66.5964 30.4071 66.651 30.2155 66.6783 30.0513L66.733 31.4745C66.651 31.6387 66.5691 31.7482 66.5144 31.7482C66.4325 31.7482 66.3505 31.6387 66.2959 31.4745V30.0239Z" fill="url(#paint25_linear_2_44685)"/>
<path d="M64.0287 27.0683C63.455 26.8493 61.4337 26.6304 60.9147 26.5756C60.3957 26.5209 57.2816 26.1925 57.2816 25.7819C57.2543 25.3714 61.0512 25.0703 61.0512 25.0703L61.1605 25.4809C60.5322 25.563 60.0132 25.5356 60.0132 25.7545C60.0132 25.9735 60.3957 26.1103 61.1605 26.1651C61.9253 26.2198 62.936 26.3019 62.936 26.3019C62.936 26.3019 64.1653 26.3567 64.6843 26.603L64.0287 27.0683Z" fill="url(#paint26_linear_2_44685)"/>
<path d="M57.2543 25.7818C57.227 25.3712 61.0239 25.0702 61.0239 25.0702C62.936 24.8786 64.0286 24.6596 64.6569 24.2491C65.3125 23.8385 65.7222 22.2238 65.9134 21.7037C66.0773 21.1563 66.3505 20.5269 66.4871 20.5269C66.6237 20.5269 66.7875 20.9374 67.0334 21.7585L66.8149 22.6343C66.6783 21.8679 66.6237 21.7037 66.4324 21.7037C66.2412 21.7037 66.132 22.2785 66.0227 22.7711C65.9134 23.2638 65.7769 24.6596 64.7935 24.9607C63.7282 25.2891 63.1272 25.3986 61.1058 25.4533C60.4776 25.5354 59.9586 25.5081 59.9586 25.727L57.2543 25.7818Z" fill="url(#paint27_linear_2_44685)"/>
<path d="M68.0713 24.9607C67.4157 24.687 67.0606 24.1122 66.8148 22.6343C66.6782 21.8679 66.6236 21.7037 66.4324 21.7037L66.4597 20.5269C66.5963 20.5269 66.7602 20.9374 67.006 21.7585C67.2519 22.6069 67.7435 23.9754 68.6723 24.4133L68.0713 24.9607Z" fill="url(#paint28_linear_2_44685)"/>
<path d="M82.8491 27.725C83.0403 26.7397 83.4774 26.5755 83.9964 26.3566C84.4881 26.1376 85.9358 26.0829 86.209 26.0829C86.4821 26.0829 87.1377 25.946 87.1377 25.6997L89.4049 25.7271C89.4049 25.9734 88.203 26.1102 88.203 26.1102C88.203 26.1102 84.9251 26.4934 84.2696 26.904C83.7779 27.205 83.4228 27.4513 83.0677 28.4914L82.8491 27.725Z" fill="url(#paint29_linear_2_44685)"/>
<path d="M83.614 24.9335C84.4335 25.2346 85.6627 25.3167 86.1544 25.3441C86.6461 25.3714 87.0831 25.4809 87.0831 25.6999C87.0831 25.9188 86.4275 26.083 86.1544 26.083L88.1485 26.1104C88.1485 26.1104 89.3504 25.9736 89.3504 25.7272C89.3504 25.4809 89.0499 25.3988 88.1485 25.262C87.247 25.1251 85.4988 24.7146 84.3789 24.4683L83.614 24.9335Z" fill="url(#paint30_linear_2_44685)"/>
<path d="M84.5974 25.1523C84.2696 25.0976 83.9145 25.0155 83.6413 24.906C82.8218 24.605 82.6579 23.1817 82.6579 23.1817C82.6306 23.0175 82.494 22.388 82.2755 22.388C82.057 22.388 81.8658 23.2365 81.7292 23.9755L81.1829 23.6197C81.5653 22.7165 81.975 21.4027 82.2482 21.3754C82.5487 21.348 82.9857 22.8259 82.9857 22.8259C82.9857 22.8259 83.3135 24.2492 84.4335 24.4955C84.6247 24.5228 84.8159 24.5776 85.0344 24.6323L84.5974 25.1523Z" fill="url(#paint31_linear_2_44685)"/>
<path d="M82.2483 21.3755C81.9478 21.4029 81.5654 22.7166 81.183 23.6198C80.8006 24.523 79.544 24.7419 78.8884 24.8514C78.2329 24.9609 77.1675 25.2346 75.4739 25.2893C73.7804 25.344 72.196 25.0156 72.196 25.0156L71.9502 25.3988C72.715 25.4261 73.3433 25.4535 73.5892 25.4535C73.5892 25.4535 75.7744 25.4809 76.8944 25.4261C78.0416 25.3714 80.0357 25.1524 80.4728 25.043C80.9371 24.9335 81.5654 24.6872 81.702 23.9482C81.8386 23.2092 82.0025 22.3608 82.2483 22.3608V21.3755Z" fill="url(#paint32_linear_2_44685)"/>
<path d="M82.0571 22.5797C82.1117 22.4703 82.1663 22.3882 82.2483 22.3882C82.3302 22.3882 82.3849 22.4703 82.4395 22.5797V21.5671C82.3575 21.4576 82.3029 21.3755 82.221 21.3755C82.1663 21.3755 82.0844 21.4576 82.0024 21.5671L82.0571 22.5797Z" fill="url(#paint33_linear_2_44685)"/>
<path d="M83.1769 28.1083C83.013 28.4914 82.8491 29.0388 82.6852 29.8325C82.494 30.4073 82.4667 30.681 82.2755 30.681C82.1662 30.681 82.0296 30.4073 81.8931 29.9694L81.9477 28.902C81.9477 28.902 82.0023 29.422 82.2755 29.422C82.5213 29.422 82.576 29.0115 82.576 29.0115C82.576 29.0115 82.6852 28.683 82.8764 27.7251C82.9038 27.5061 82.9584 27.3419 83.0403 27.2051L83.1769 28.1083Z" fill="url(#paint34_linear_2_44685)"/>
<path d="M81.7294 27.9713C81.6201 27.5881 81.5108 27.1776 81.4289 27.0407C81.2104 26.7123 80.9645 26.2196 78.9705 26.1375C76.9764 26.0828 76.1023 25.9459 74.3268 25.9733C74.0809 25.9733 73.48 26.028 72.7424 26.0828L72.7697 26.4386C73.6985 26.3017 74.5453 26.2196 75.2828 26.2196C76.2662 26.2196 77.031 26.3017 78.8885 26.5754C80.7187 26.8491 81.0192 27.2049 81.4016 28.4639L81.7294 27.9713Z" fill="url(#paint35_linear_2_44685)"/>
<path d="M81.5108 27.2598C81.7021 27.8072 81.9206 28.9019 81.9206 28.9019C81.9206 28.9019 81.9752 29.4219 82.2484 29.4219V30.6809C82.0572 30.6809 81.7567 29.7504 81.3743 28.464C81.2923 28.1903 81.2104 27.944 81.1284 27.7524L81.5108 27.2598Z" fill="url(#paint36_linear_2_44685)"/>
<path d="M57.8278 26.0826C57.4727 26.0005 57.2542 25.891 57.2542 25.7815C57.2542 25.6721 57.5 25.5626 57.8824 25.4805L60.3408 25.5626C60.1223 25.5899 59.9857 25.6447 59.9857 25.7542C59.9857 25.8363 60.0404 25.891 60.1223 25.9457L57.8278 26.0826Z" fill="url(#paint37_linear_2_44685)"/>
<path d="M66.3503 21.7585C66.3777 21.7037 66.4323 21.7037 66.4596 21.7037C66.5142 21.7037 66.5689 21.7311 66.5962 21.7585L66.6235 20.6363C66.5689 20.5816 66.5416 20.5269 66.4869 20.5269C66.4323 20.5269 66.405 20.5816 66.3503 20.6637V21.7585Z" fill="url(#paint38_linear_2_44685)"/>
<path d="M42.1485 20.4996C41.5202 20.0617 40.8373 19.8974 40.209 19.788C38.7613 19.5143 33.2162 18.9395 33.2162 18.9395L27.753 18.4742C27.753 18.4742 26.6877 18.3921 26.6877 18.1458C26.6877 17.8995 27.753 17.8721 27.753 17.8721L24.038 17.8174C24.038 17.8174 23.2458 17.8448 23.2458 18.1458C23.2458 18.4469 23.9287 18.4469 24.1746 18.4742C24.4204 18.5016 29.2554 19.1585 29.2554 19.1585C29.2554 19.1585 36.9584 20.1985 37.696 20.3354C38.4335 20.4722 40.5095 20.7459 41.4109 21.5396L42.1485 20.4996Z" fill="url(#paint39_linear_2_44685)"/>
<path d="M45.5903 6.89715C45.5903 6.89715 45.481 6.18555 45.1259 6.18555C44.7708 6.18555 44.6615 6.97926 44.6615 6.97926C44.6615 6.97926 43.2684 11.5499 42.6128 12.9184C41.9572 14.2869 41.4929 15.5732 35.9751 16.1753C31.0855 16.8048 28.5178 17.2154 28.5178 17.2154L24.038 17.8175C24.038 17.8175 23.2458 17.8449 23.2458 18.1459L26.715 18.1186C26.715 17.8722 27.7803 17.8449 27.7803 17.8449L31.9323 17.4617C31.9323 17.4617 36.6306 17.0785 38.8979 16.8322C41.1651 16.6132 42.8314 15.3269 43.4323 14.0405C44.0606 12.7542 44.7435 8.813 44.7435 8.813C44.7435 8.813 44.8527 7.55401 45.1805 7.55401C45.5083 7.55401 45.5903 8.78563 45.5903 8.78563V6.89715Z" fill="url(#paint40_linear_2_44685)"/>
<path d="M54.6593 16.148C53.5393 16.0111 51.6818 15.7375 50.9443 15.4911C49.8244 15.108 48.2127 15.0532 46.9562 11.112C45.6997 7.17087 45.6177 6.8698 45.6177 6.8698C45.6177 6.8698 45.5084 6.1582 45.1533 6.1582C44.7982 6.1582 44.689 6.95191 44.689 6.95191V8.84039C44.689 8.84039 44.7982 7.58141 45.126 7.58141C45.3445 7.58141 45.4538 8.12879 45.5084 8.48459C45.5358 8.67618 45.5358 8.78565 45.5358 8.78565C45.5358 8.78565 45.5631 8.89513 45.5904 9.03198C45.7543 9.77095 46.3279 12.2889 46.6011 13.3016C46.9016 14.5058 47.7483 15.7375 49.1415 16.3122C50.5073 16.887 53.8125 17.0785 54.3861 17.1059L54.6593 16.148Z" fill="url(#paint41_linear_2_44685)"/>
<path d="M44.8528 7.96458C44.9347 7.74562 45.0167 7.58141 45.1259 7.58141C45.2352 7.58141 45.3445 7.74562 45.3991 7.96458L45.4264 6.37716C45.3445 6.24031 45.2625 6.1582 45.1259 6.1582C45.0167 6.1582 44.9074 6.26768 44.8528 6.37716V7.96458Z" fill="url(#paint42_linear_2_44685)"/>
<path d="M78.1781 14.9984C78.0962 14.5605 78.0415 14.1774 77.8503 14.1774C77.6318 14.1774 77.5498 14.67 77.4952 14.9984C77.4406 15.3269 77.2494 16.668 76.703 17.0511C76.1567 17.4069 75.146 17.6806 73.9168 17.7354C72.7149 17.7901 70.1472 17.8996 69.437 17.8996L69.6555 17.6533C70.475 17.6259 71.5677 17.4069 73.6437 17.188C75.7197 16.969 76.2114 16.4216 76.5938 15.8743C76.9762 15.3269 77.4679 13.6026 77.4679 13.6026C77.4679 13.6026 77.6045 13.0005 77.8503 13.0005C78.0962 13.0005 78.1781 13.4931 78.1781 13.4931V14.9984Z" fill="url(#paint43_linear_2_44685)"/>
<path d="M79.8992 17.4888C80.3362 17.5982 80.8006 17.6256 81.1557 17.653C81.784 17.7077 83.1224 17.8446 83.1224 17.8446C83.1224 17.8446 83.86 17.8993 83.86 18.1183C83.86 18.3372 83.1498 18.4193 83.1498 18.4193L85.417 18.5014C85.417 18.5014 86.3457 18.4741 86.3457 18.1183C86.3457 17.7625 85.3624 17.7351 85.3624 17.7351L81.1557 17.0509C81.1557 17.0509 80.9645 17.0509 80.6913 16.9688L79.8992 17.4888Z" fill="url(#paint44_linear_2_44685)"/>
<path d="M78.9432 19.2407C78.4788 19.6513 78.3149 20.9376 78.2876 21.1839C78.2603 21.4303 78.0691 22.2513 78.0691 22.2513C78.0691 22.2513 77.9871 22.6619 77.8505 22.6619L77.7959 23.9756C78.0144 23.9756 78.1783 23.4282 78.1783 23.4282C78.1783 23.4282 78.8612 21.0745 79.1071 20.4723C79.189 20.2808 79.2983 20.0892 79.4622 19.925L78.9432 19.2407Z" fill="url(#paint45_linear_2_44685)"/>
<path d="M45.1533 30.4895C45.5357 30.4895 45.5631 29.641 45.5631 29.641C45.5631 29.641 46.3552 24.7146 46.4918 24.1398C46.6284 23.5377 47.0108 21.5671 47.8849 20.8281L48.8137 21.8408C47.9395 22.6892 47.6664 23.7293 47.4479 24.3314C47.0654 25.3714 45.5631 31.42 45.5631 31.42C45.5631 31.42 45.4811 32.2137 45.1533 32.2137V30.4895Z" fill="url(#paint46_linear_2_44685)"/>
<path d="M45.5358 29.6684C45.5358 29.6684 45.5085 30.5168 45.1261 30.5168C44.7436 30.5168 44.7436 29.6684 44.7436 29.6684C44.7436 29.6684 44.4158 27.8347 43.8695 24.1945C43.3505 20.5271 41.6023 20.0618 40.1546 19.7881L39.936 20.8829C40.4824 21.0471 40.974 21.2934 41.3291 21.5945C42.2306 22.3882 42.9954 24.1398 43.5417 26.7125C44.0881 29.2852 44.689 31.4748 44.689 31.4748C44.689 31.4748 44.771 32.2411 45.0987 32.2411C45.3992 32.2411 45.5085 31.4474 45.5085 31.4474V29.6684H45.5358Z" fill="url(#paint47_linear_2_44685)"/>
<path d="M44.8254 31.8302C44.8801 32.0218 44.9893 32.2134 45.1532 32.2134C45.2898 32.2134 45.3991 32.0492 45.4537 31.8576V30.1607C45.3991 30.3249 45.2898 30.4891 45.1532 30.4891C44.9893 30.4891 44.9074 30.3249 44.8528 30.1333L44.8254 31.8302Z" fill="url(#paint48_linear_2_44685)"/>
<path d="M27.7257 18.4742C27.7257 18.4742 26.6603 18.3921 26.6603 18.1458C26.6603 17.8995 27.7257 17.8721 27.7257 17.8721L24.038 17.8174C24.038 17.8174 23.2458 17.8448 23.2458 18.1458C23.2458 18.4469 23.9287 18.4469 24.1746 18.4742H27.7257Z" fill="url(#paint49_linear_2_44685)"/>
<path d="M48.7042 21.9228C49.3052 21.2933 50.2339 20.7459 51.709 20.4996C55.0688 19.9796 61.3515 19.268 61.3515 19.268C61.3515 19.268 64.5474 18.8848 67.0878 18.7206L67.1151 18.3374C65.9132 18.3374 57.4453 19.0764 53.4299 19.3501C49.4144 19.6238 48.7315 20.0617 47.8574 20.8006L48.7042 21.9228Z" fill="url(#paint50_linear_2_44685)"/>
<path d="M76.2114 19.8701C75.7471 19.3227 75.0642 19.2406 74.5998 19.1858C73.9989 19.1037 71.6497 18.7753 69.5737 18.6658C68.8635 18.6111 67.6889 18.6932 66.4323 18.7753L66.405 18.3921C66.7328 18.3647 66.9787 18.3647 67.1426 18.3647C68.3445 18.3647 70.1473 18.3647 71.8136 18.5016C73.4798 18.6384 75.4193 18.6658 76.3207 19.049C76.5392 19.1311 76.7031 19.2953 76.8124 19.4869L76.2114 19.8701Z" fill="url(#paint51_linear_2_44685)"/>
<path d="M76.1023 19.7607C76.2935 19.9249 76.4301 20.1438 76.5394 20.4175C76.9491 21.4576 77.4135 23.4008 77.4135 23.4008C77.4135 23.4008 77.55 24.0029 77.7959 24.0029C78.0144 24.0029 78.1783 23.4555 78.1783 23.4555L78.0964 22.2786C78.0964 22.2786 78.0144 22.6892 77.8778 22.6892C77.7139 22.6892 77.6866 22.4702 77.632 22.2786C77.5774 22.0871 77.4681 21.4849 77.3861 21.2112C77.3315 20.9923 77.2222 19.8975 76.7032 19.3228L76.1023 19.7607Z" fill="url(#paint52_linear_2_44685)"/>
<path d="M77.4133 23.4005C77.4133 23.4005 77.5499 24.0026 77.7958 24.0026C78.0143 24.0026 78.1782 23.4552 78.1782 23.4552L78.0962 22.2783C78.0962 22.2783 78.0143 22.6889 77.8777 22.6889C77.7138 22.6889 77.6865 22.4699 77.6319 22.2783L77.4133 23.4005Z" fill="url(#paint53_linear_2_44685)"/>
<path d="M79.3528 20.034C79.3801 19.9793 79.4347 19.9519 79.4621 19.8972C79.8172 19.5414 80.4454 19.2677 81.6747 19.1308C83.5048 18.9119 85.4442 18.5013 85.4442 18.5013C85.4442 18.5013 86.373 18.474 86.373 18.1182H83.8872C83.8872 18.3371 83.177 18.4192 83.177 18.4192C83.177 18.4192 82.5215 18.5834 81.3196 18.6655C80.1177 18.7477 79.4348 18.8571 78.9704 19.2403C78.9431 19.2677 78.9157 19.295 78.8884 19.3224L79.3528 20.034Z" fill="url(#paint54_linear_2_44685)"/>
<path d="M83.5322 17.8995C83.6961 17.9543 83.86 18.009 83.86 18.1185C83.86 18.2006 83.7781 18.2553 83.6961 18.2827L86.1819 18.3374C86.2911 18.2827 86.3458 18.2006 86.3458 18.1185C86.3458 17.9269 86.018 17.8174 85.7175 17.79L83.5322 17.8995Z" fill="url(#paint55_linear_2_44685)"/>
<path d="M77.823 14.1774C78.0415 14.1774 78.0688 14.5605 78.1508 14.9984C78.2327 15.4364 78.3693 16.5311 78.9156 17.0238C79.2161 17.2975 79.6532 17.4343 80.0902 17.5164L80.9097 17.0238C80.418 16.9417 79.38 16.668 79.0522 15.8195C78.6152 14.6974 78.1781 13.4931 78.1781 13.4931C78.1781 13.4931 78.0962 13.0005 77.8503 13.0005V14.1774H77.823Z" fill="url(#paint56_linear_2_44685)"/>
<path d="M77.6591 13.11C77.7138 13.0552 77.7684 13.0005 77.823 13.0005C77.905 13.0005 77.9596 13.0552 78.0143 13.1373V14.3416C77.9596 14.2321 77.905 14.1774 77.823 14.1774C77.7411 14.1774 77.6865 14.2595 77.6318 14.3416L77.6591 13.11Z" fill="url(#paint57_linear_2_44685)"/>
<path d="M71.322 17.4617C70.5845 17.5712 70.0655 17.6259 69.6284 17.6533C68.8089 17.6807 67.088 17.6807 65.7222 17.5164C64.3564 17.3522 55.5607 16.2848 55.5607 16.2848C55.5607 16.2848 55.0144 16.2301 54.3042 16.1206L54.2769 17.1606C54.8505 17.188 63.0999 17.7628 64.4111 17.8175C65.7222 17.8722 68.727 17.927 69.4099 17.927C69.7377 17.927 70.5298 17.8996 71.3766 17.8722L71.322 17.4617Z" fill="url(#paint58_linear_2_44685)"/>
<path d="M81.9477 28.9019C81.9477 28.9019 82.0024 29.4219 82.2755 29.4219C82.5214 29.4219 82.576 29.0113 82.576 29.0113L82.7126 29.8324C82.5214 30.4072 82.494 30.6809 82.3028 30.6809C82.1936 30.6809 82.057 30.4072 81.9204 29.9693L81.9477 28.9019Z" fill="url(#paint59_linear_2_44685)"/>
<path d="M31.8777 17.4887L27.7257 17.8719C27.7257 17.8719 26.6604 17.8992 26.6604 18.1455C26.6604 18.3919 27.7257 18.474 27.7257 18.474L33.1889 18.9393C33.1889 18.9393 38.734 19.4866 40.1818 19.7877C41.6295 20.0614 43.3777 20.5267 43.8967 24.1942C44.4157 27.8616 44.7708 29.668 44.7708 29.668C44.7708 29.668 44.7709 30.5165 45.1533 30.5165C45.5357 30.5165 45.563 29.668 45.563 29.668C45.563 29.668 46.3552 24.7415 46.4918 24.1668C46.6283 23.5647 47.0108 21.5941 47.8849 20.8551C48.759 20.1161 49.4419 19.6782 53.4573 19.4045C57.4727 19.1308 65.9407 18.3919 67.1426 18.3919C68.3445 18.3919 70.1473 18.3919 71.8136 18.5287C73.4799 18.6656 75.4193 18.6929 76.3207 19.0761C77.1675 19.4593 77.3041 20.9646 77.3587 21.2383C77.4134 21.512 77.5226 22.1141 77.6046 22.3057C77.6592 22.4973 77.6865 22.7162 77.8504 22.7162C78.0143 22.7162 78.0689 22.3057 78.0689 22.3057C78.0689 22.3057 78.2602 21.4846 78.2875 21.2383C78.3421 20.992 78.4787 19.7056 78.9431 19.2951C79.4074 18.8845 80.0903 18.8024 81.2922 18.7203C82.5214 18.6382 83.1497 18.474 83.1497 18.474C83.1497 18.474 83.8599 18.3919 83.8599 18.1729C83.8599 17.954 83.1224 17.8992 83.1224 17.8992C83.1224 17.8992 81.7839 17.7624 81.1556 17.7076C80.5274 17.6529 79.4621 17.5982 78.9157 17.1055C78.3694 16.6129 78.2328 15.5181 78.1509 15.0802C78.0689 14.6423 78.0143 14.2591 77.8231 14.2591C77.6046 14.2591 77.5226 14.7518 77.468 15.0802C77.4134 15.4086 77.2222 16.7497 76.6758 17.1329C76.1295 17.4887 75.1188 17.7624 73.8896 17.8171C72.6877 17.8719 70.12 17.9813 69.4098 17.9813C68.7269 17.9813 65.7222 17.954 64.411 17.8719C63.0998 17.8171 54.987 17.215 54.3861 17.1876C53.8124 17.1603 50.5072 16.9687 49.1414 16.3939C47.7756 15.8192 46.9288 14.5875 46.601 13.3833C46.3005 12.179 45.563 8.86736 45.563 8.86736C45.563 8.86736 45.3991 7.63574 45.126 7.63574C44.7982 7.63574 44.6889 8.89473 44.6889 8.89473C44.6889 8.89473 44.006 12.8359 43.3777 14.1223C42.7495 15.4086 41.0832 16.6676 38.8433 16.9139C36.5761 17.1055 31.8777 17.4887 31.8777 17.4887Z" fill="url(#paint60_radial_2_44685)"/>
<path d="M74.3267 25.9732C73.6438 26.0006 69.8469 26.329 68.8089 26.3838C67.7982 26.4385 67.4431 27.0954 67.3065 27.3965C67.1699 27.6975 66.7602 29.7228 66.7055 29.8871C66.6509 30.0513 66.5963 30.3797 66.487 30.3797C66.3777 30.3797 66.3231 30.1607 66.2685 29.9965C66.2138 29.8323 65.8041 28.0259 65.6948 27.5333C65.5583 27.0406 65.1485 26.767 64.6295 26.548C64.1378 26.329 62.8813 26.2469 62.8813 26.2469C62.8813 26.2469 61.8706 26.1375 61.1058 26.1101C60.3409 26.0554 59.9585 25.9185 59.9585 25.6996C59.9585 25.4806 60.4775 25.508 61.1058 25.4259C63.1271 25.3711 63.7008 25.2616 64.7934 24.9332C65.7768 24.6322 65.9407 23.2363 66.0226 22.7437C66.1319 22.251 66.2412 21.6763 66.4324 21.6763C66.6236 21.6763 66.6782 21.8679 66.8148 22.6068C67.0333 24.0848 67.3884 24.6595 68.0713 24.9332C69.2186 25.3438 72.9062 25.4259 73.5891 25.4532C73.5891 25.4532 75.7744 25.4806 76.8944 25.4259C78.0416 25.3711 80.0357 25.1522 80.4727 25.0427C80.9371 24.9332 81.5654 24.6869 81.702 23.9479C81.8385 23.209 82.0024 22.3605 82.2483 22.3605C82.4668 22.3605 82.6034 22.99 82.6307 23.1542C82.6307 23.1542 82.7946 24.5774 83.6141 24.8785C84.4336 25.1795 85.6628 25.2616 86.1545 25.289C86.6461 25.3164 87.0832 25.4259 87.0832 25.6448C87.0832 25.8638 86.4276 26.028 86.1545 26.028C85.8813 26.028 84.4609 26.0827 83.9419 26.3017C83.4502 26.5206 83.0131 26.6848 82.7946 27.6701C82.6034 28.6554 82.4941 28.9565 82.4941 28.9565C82.4941 28.9565 82.4668 29.367 82.1936 29.367C81.9205 29.367 81.8659 28.847 81.8659 28.847C81.8659 28.847 81.5654 27.3143 81.3469 26.9859C81.1283 26.6575 80.8825 26.1648 78.8884 26.0827C76.9763 26.0827 76.1022 25.9459 74.3267 25.9732Z" fill="url(#paint61_linear_2_44685)"/>
<path d="M51.4086 33.9105C51.4086 33.9105 52.6378 33.9652 53.1295 34.2115C53.6212 34.4305 54.0582 34.6768 54.1675 35.1695C54.3041 35.6621 54.7138 37.4411 54.7411 37.6053C54.7684 37.7696 54.8504 37.9885 54.9597 37.9885C55.0689 37.9885 55.1236 37.6601 55.1782 37.4959C55.2328 37.3316 55.6426 35.3337 55.7791 35.0326C55.9157 34.7316 56.2708 34.1021 57.2815 34.0473C58.2922 33.9926 62.0891 33.6642 62.772 33.6368C63.4549 33.6094 67.4157 33.7463 68.3445 33.8284C69.3005 33.9105 70.639 33.9926 70.9395 34.7316C71.2399 35.4705 71.3219 36.1821 71.4038 36.4558C71.4858 36.7295 71.5404 36.9211 71.7316 36.9211C71.9228 36.9211 72.0048 36.5927 72.0321 36.4011C72.0594 36.2095 72.3053 34.2115 73.3706 33.9926C74.4359 33.7736 76.1022 33.6368 76.4846 33.6094C76.867 33.5821 77.1675 33.5547 77.1675 33.3084C77.1675 33.0347 76.7031 33.0347 76.3753 33.0347C76.0749 33.0347 74.0808 32.9252 73.2886 32.6241C72.4965 32.3231 72.2233 31.7757 72.0321 30.5988C71.9775 30.243 71.8136 29.9419 71.6497 29.9419C71.4858 29.9419 71.3492 30.3251 71.2673 30.6262C71.2126 30.9272 71.2399 31.9399 70.557 32.3504C69.9015 32.7883 69.1912 32.9252 66.8967 33.062C64.6022 33.1989 62.6627 33.1441 61.9798 33.1168C61.2696 33.0894 57.6366 32.9799 56.4893 32.5968C55.8338 32.3231 55.4787 31.7483 55.2601 30.2977C55.1236 29.5588 55.0689 29.3672 54.8777 29.3672C54.6865 29.3672 54.5772 29.9146 54.468 30.4072C54.3587 30.8999 54.2221 32.2683 53.2388 32.5694C52.1734 32.8978 51.5725 33.0073 49.5784 33.062C48.9502 33.1441 48.4312 33.1168 48.4312 33.3357C48.4312 33.5547 48.8136 33.6915 49.5784 33.7189C50.3979 33.8284 51.4086 33.9105 51.4086 33.9105Z" fill="url(#paint62_linear_2_44685)"/>
<path d="M87.0286 25.5353C87.0832 25.59 87.1106 25.6448 87.1106 25.6995C87.1106 25.809 87.0013 25.8637 86.8374 25.9459L88.7222 26.028C89.05 25.9732 89.3778 25.8637 89.3778 25.7269C89.3778 25.5353 89.2139 25.4532 88.8042 25.3711L87.0286 25.5353Z" fill="url(#paint63_linear_2_44685)"/>
</g>
<defs>
<linearGradient id="paint0_linear_2_44685" x1="59.1275" y1="43.2233" x2="51.6951" y2="-6.48989" gradientUnits="userSpaceOnUse">
<stop offset="0.005494"/>
<stop offset="0.00631474" stop-color="#030303"/>
<stop offset="0.0524142" stop-color="#44464E"/>
<stop offset="0.0993085" stop-color="#4E546A"/>
<stop offset="0.1465" stop-color="#48557A"/>
<stop offset="0.1938" stop-color="#3A5181"/>
<stop offset="0.2411" stop-color="#294B85"/>
<stop offset="0.2886" stop-color="#164687"/>
<stop offset="0.3363" stop-color="#004389"/>
<stop offset="0.3846" stop-color="#004289"/>
<stop offset="1" stop-color="#004289"/>
</linearGradient>
<linearGradient id="paint1_linear_2_44685" x1="16.8067" y1="22.8125" x2="95.1144" y2="22.8125" gradientUnits="userSpaceOnUse">
<stop offset="0.005494" stop-color="#808080"/>
<stop offset="0.1538" stop-color="white"/>
<stop offset="0.1942" stop-color="#F4F4F4"/>
<stop offset="0.3001" stop-color="#DDDDDD"/>
<stop offset="0.3991" stop-color="#CECECE"/>
<stop offset="0.4835" stop-color="#C9C9C9"/>
<stop offset="0.4885" stop-color="#C0C0C0"/>
<stop offset="0.5136" stop-color="#979797"/>
<stop offset="0.5394" stop-color="#757575"/>
<stop offset="0.5654" stop-color="#5A5A5A"/>
<stop offset="0.5919" stop-color="#474747"/>
<stop offset="0.6192" stop-color="#3C3C3C"/>
<stop offset="0.6484" stop-color="#383838"/>
<stop offset="0.8352" stop-color="#383838"/>
<stop offset="1" stop-color="#7A7A7A"/>
</linearGradient>
<linearGradient id="paint2_linear_2_44685" x1="16.8067" y1="22.8125" x2="95.1144" y2="22.8125" gradientUnits="userSpaceOnUse">
<stop offset="0.005494" stop-color="#D1D1D1"/>
<stop offset="0.456" stop-color="#4D4D4D"/>
<stop offset="1" stop-color="#A6A6A6"/>
</linearGradient>
<linearGradient id="paint3_linear_2_44685" x1="39.4322" y1="5.68111" x2="71.52" y2="38.8193" gradientUnits="userSpaceOnUse">
<stop offset="0.005494" stop-color="#E6E6E6"/>
<stop offset="0.456" stop-color="#595959"/>
<stop offset="0.8352" stop-color="#808080"/>
<stop offset="1" stop-color="#D9D9D9"/>
</linearGradient>
<linearGradient id="paint4_linear_2_44685" x1="41.3931" y1="14.2012" x2="83.3095" y2="38.5774" gradientUnits="userSpaceOnUse">
<stop offset="0.005494" stop-color="#F2F2F2"/>
<stop offset="0.3462" stop-color="#1A1A1A"/>
<stop offset="0.5879" stop-color="#3D3D3D"/>
<stop offset="0.6956" stop-color="#484848"/>
<stop offset="0.7692" stop-color="#525252"/>
<stop offset="1" stop-color="#BDBDBD"/>
</linearGradient>
<linearGradient id="paint5_linear_2_44685" x1="62.08" y1="35.8217" x2="72.0954" y2="35.8217" gradientUnits="userSpaceOnUse">
<stop offset="0.082417" stop-color="#999999"/>
<stop offset="0.1746" stop-color="#7C7C7C"/>
<stop offset="0.3242" stop-color="#525252"/>
<stop offset="0.6374" stop-color="#4A4A4A"/>
<stop offset="0.7857" stop-color="#B0B0B0"/>
<stop offset="0.8901" stop-color="#7A7A7A"/>
<stop offset="1" stop-color="#9E9E9E"/>
</linearGradient>
<linearGradient id="paint6_linear_2_44685" x1="76.7837" y1="33.0532" x2="76.7837" y2="33.5591" gradientUnits="userSpaceOnUse">
<stop offset="0.1374" stop-color="#E6E6E6"/>
<stop offset="0.5055" stop-color="#CCCCCC"/>
<stop offset="0.9121" stop-color="#E0E0E0"/>
</linearGradient>
<linearGradient id="paint7_linear_2_44685" x1="65.5257" y1="31.1931" x2="71.1918" y2="30.8229" gradientUnits="userSpaceOnUse">
<stop offset="0.082417" stop-color="#999999"/>
<stop offset="0.1282" stop-color="#A4A4A4"/>
<stop offset="0.3242" stop-color="#CFCFCF"/>
<stop offset="0.5604" stop-color="#D9D9D9"/>
<stop offset="0.7582" stop-color="#E0E0E0"/>
</linearGradient>
<linearGradient id="paint8_linear_2_44685" x1="58.4878" y1="30.7634" x2="61.5306" y2="33.7539" gradientUnits="userSpaceOnUse">
<stop offset="0.082417" stop-color="#EDEDED"/>
<stop offset="0.2054" stop-color="#BCBCBC"/>
<stop offset="0.3242" stop-color="#919191"/>
<stop offset="0.5604" stop-color="#8C8C8C"/>
<stop offset="0.7582" stop-color="#999999"/>
</linearGradient>
<linearGradient id="paint9_linear_2_44685" x1="55.6138" y1="37.3767" x2="61.651" y2="32.4327" gradientUnits="userSpaceOnUse">
<stop offset="0.082417" stop-color="#949494"/>
<stop offset="0.1639" stop-color="#7C7C7C"/>
<stop offset="0.3242" stop-color="#525252"/>
<stop offset="0.5604" stop-color="#4A4A4A"/>
<stop offset="0.7582" stop-color="#999999"/>
</linearGradient>
<linearGradient id="paint10_linear_2_44685" x1="53.1768" y1="35.4751" x2="56.0677" y2="40.4799" gradientUnits="userSpaceOnUse">
<stop stop-color="#D9D9D9"/>
<stop offset="0.2033" stop-color="#6B6B6B"/>
<stop offset="0.206" stop-color="#6C6C6C"/>
<stop offset="0.4451" stop-color="#969696"/>
<stop offset="0.5604" stop-color="#969696"/>
<stop offset="0.7582" stop-color="#A8A8A8"/>
</linearGradient>
<linearGradient id="paint11_linear_2_44685" x1="54.6739" y1="38.4631" x2="55.2872" y2="38.4631" gradientUnits="userSpaceOnUse">
<stop offset="0.2143" stop-color="#969696"/>
<stop offset="0.3626" stop-color="#ADADAD"/>
<stop offset="0.5055" stop-color="#C9C9C9"/>
<stop offset="0.7418" stop-color="#A3A3A3"/>
<stop offset="0.8846" stop-color="#9E9E9E"/>
</linearGradient>
<linearGradient id="paint12_linear_2_44685" x1="48.6884" y1="33.4067" x2="52.4015" y2="35.5684" gradientUnits="userSpaceOnUse">
<stop stop-color="#A8A8A8"/>
<stop offset="0.087912" stop-color="#6B6B6B"/>
<stop offset="0.3681" stop-color="#5E5E5E"/>
<stop offset="0.4626" stop-color="#626262"/>
<stop offset="0.5417" stop-color="#6C6C6C"/>
<stop offset="0.6149" stop-color="#7D7D7D"/>
<stop offset="0.6846" stop-color="#969696"/>
<stop offset="0.6868" stop-color="#969696"/>
<stop offset="0.8462" stop-color="#D9D9D9"/>
</linearGradient>
<linearGradient id="paint13_linear_2_44685" x1="45.7601" y1="30.834" x2="55.5067" y2="30.834" gradientUnits="userSpaceOnUse">
<stop stop-color="#A8A8A8"/>
<stop offset="1" stop-color="white"/>
</linearGradient>
<linearGradient id="paint14_linear_2_44685" x1="54.9721" y1="29.1884" x2="57.0959" y2="33.1802" gradientUnits="userSpaceOnUse">
<stop stop-color="#C7C7C7"/>
<stop offset="0.082417" stop-color="#BDBDBD"/>
<stop offset="0.1429" stop-color="#8C8C8C"/>
<stop offset="0.2151" stop-color="#7E7E7E"/>
<stop offset="0.3297" stop-color="#6B6B6B"/>
<stop offset="0.3907" stop-color="#595959"/>
<stop offset="0.544" stop-color="#2E2E2E"/>
<stop offset="0.5738" stop-color="#323232"/>
<stop offset="0.6042" stop-color="#3E3E3E"/>
<stop offset="0.6351" stop-color="#535353"/>
<stop offset="0.6661" stop-color="#707070"/>
<stop offset="0.6973" stop-color="#959595"/>
<stop offset="0.7283" stop-color="#C1C1C1"/>
<stop offset="0.7473" stop-color="#E0E0E0"/>
<stop offset="0.8901" stop-color="white"/>
</linearGradient>
<linearGradient id="paint15_linear_2_44685" x1="54.8057" y1="28.8545" x2="55.0821" y2="28.8545" gradientUnits="userSpaceOnUse">
<stop stop-color="white"/>
<stop offset="0.4505" stop-color="#BFBFBF"/>
<stop offset="0.8242" stop-color="#C2C2C2"/>
</linearGradient>
<linearGradient id="paint16_linear_2_44685" x1="47.2206" y1="33.6431" x2="47.2249" y2="33.1019" gradientUnits="userSpaceOnUse">
<stop stop-color="#A6A6A6"/>
<stop offset="0.4505" stop-color="#E6E6E6"/>
<stop offset="0.8242" stop-color="#B8B8B8"/>
</linearGradient>
<linearGradient id="paint17_linear_2_44685" x1="76.573" y1="33.2956" x2="74.569" y2="39.7694" gradientUnits="userSpaceOnUse">
<stop offset="0.005494" stop-color="white"/>
<stop offset="0.00616026" stop-color="#FEFEFE"/>
<stop offset="0.0352927" stop-color="#CBCBCB"/>
<stop offset="0.0640373" stop-color="#A1A1A1"/>
<stop offset="0.0918406" stop-color="#818181"/>
<stop offset="0.1185" stop-color="#6A6A6A"/>
<stop offset="0.1434" stop-color="#5C5C5C"/>
<stop offset="0.1648" stop-color="#575757"/>
<stop offset="0.2037" stop-color="#686868"/>
<stop offset="0.2809" stop-color="#959595"/>
<stop offset="0.3407" stop-color="#BDBDBD"/>
<stop offset="0.4544" stop-color="#A1A1A1"/>
<stop offset="0.511" stop-color="#919191"/>
<stop offset="0.8571" stop-color="#B8B8B8"/>
</linearGradient>
<linearGradient id="paint18_linear_2_44685" x1="71.8224" y1="30.0991" x2="74.9918" y2="33.3347" gradientUnits="userSpaceOnUse">
<stop offset="0.082417" stop-color="#DEDEDE"/>
<stop offset="0.2443" stop-color="#7D7D7D"/>
<stop offset="0.3242" stop-color="#525252"/>
<stop offset="0.5604" stop-color="#737373"/>
<stop offset="0.6696" stop-color="#A0A0A0"/>
<stop offset="0.8242" stop-color="#E6E6E6"/>
</linearGradient>
<linearGradient id="paint19_linear_2_44685" x1="71.4676" y1="29.5611" x2="71.941" y2="29.5611" gradientUnits="userSpaceOnUse">
<stop stop-color="#E3E3E3"/>
<stop offset="0.4505" stop-color="#BABABA"/>
<stop offset="0.7637" stop-color="#DADADA"/>
<stop offset="0.8242" stop-color="#E0E0E0"/>
</linearGradient>
<linearGradient id="paint20_linear_2_44685" x1="78.5825" y1="33.1725" x2="78.5825" y2="33.4664" gradientUnits="userSpaceOnUse">
<stop stop-color="#E6E6E6"/>
<stop offset="0.0539387" stop-color="#DDDDDD"/>
<stop offset="0.2029" stop-color="#CBCBCB"/>
<stop offset="0.3603" stop-color="#C0C0C0"/>
<stop offset="0.5385" stop-color="#BDBDBD"/>
<stop offset="0.6449" stop-color="#C2C2C2"/>
<stop offset="0.7716" stop-color="#D0D0D0"/>
<stop offset="0.9081" stop-color="#E8E8E8"/>
<stop offset="1" stop-color="#FCFCFC"/>
</linearGradient>
<linearGradient id="paint21_linear_2_44685" x1="71.3956" y1="37.2143" x2="72.2085" y2="37.2143" gradientUnits="userSpaceOnUse">
<stop offset="0.016483" stop-color="#878787"/>
<stop offset="0.0642382" stop-color="#8A8A8A"/>
<stop offset="0.093407" stop-color="#919191"/>
<stop offset="0.4286" stop-color="#E0E0E0"/>
<stop offset="0.7692" stop-color="#9E9E9E"/>
<stop offset="1" stop-color="#ADADAD"/>
</linearGradient>
<linearGradient id="paint22_linear_2_44685" x1="69.2443" y1="23.7159" x2="71.412" y2="25.8464" gradientUnits="userSpaceOnUse">
<stop offset="0.082417" stop-color="#EDEDED"/>
<stop offset="0.2054" stop-color="#BCBCBC"/>
<stop offset="0.3242" stop-color="#919191"/>
<stop offset="0.5604" stop-color="#8C8C8C"/>
<stop offset="0.7582" stop-color="#999999"/>
</linearGradient>
<linearGradient id="paint23_linear_2_44685" x1="67.1238" y1="29.7707" x2="73.2135" y2="24.7838" gradientUnits="userSpaceOnUse">
<stop offset="0.082417" stop-color="#949494"/>
<stop offset="0.1639" stop-color="#7C7C7C"/>
<stop offset="0.3242" stop-color="#525252"/>
<stop offset="0.5604" stop-color="#4A4A4A"/>
<stop offset="0.7582" stop-color="#999999"/>
</linearGradient>
<linearGradient id="paint24_linear_2_44685" x1="64.7041" y1="27.8575" x2="67.631" y2="32.9245" gradientUnits="userSpaceOnUse">
<stop stop-color="#D9D9D9"/>
<stop offset="0.2033" stop-color="#6B6B6B"/>
<stop offset="0.206" stop-color="#6C6C6C"/>
<stop offset="0.4451" stop-color="#969696"/>
<stop offset="0.5604" stop-color="#969696"/>
<stop offset="0.7582" stop-color="#A8A8A8"/>
</linearGradient>
<linearGradient id="paint25_linear_2_44685" x1="66.2021" y1="30.8916" x2="66.8198" y2="30.8916" gradientUnits="userSpaceOnUse">
<stop offset="0.2143" stop-color="#969696"/>
<stop offset="0.3626" stop-color="#ADADAD"/>
<stop offset="0.5055" stop-color="#C9C9C9"/>
<stop offset="0.7418" stop-color="#A3A3A3"/>
<stop offset="0.8846" stop-color="#9E9E9E"/>
</linearGradient>
<linearGradient id="paint26_linear_2_44685" x1="60.1882" y1="25.7613" x2="63.9202" y2="27.9341" gradientUnits="userSpaceOnUse">
<stop stop-color="#A8A8A8"/>
<stop offset="0.087912" stop-color="#6B6B6B"/>
<stop offset="0.3681" stop-color="#5E5E5E"/>
<stop offset="0.4626" stop-color="#626262"/>
<stop offset="0.5417" stop-color="#6C6C6C"/>
<stop offset="0.6149" stop-color="#7D7D7D"/>
<stop offset="0.6846" stop-color="#969696"/>
<stop offset="0.6868" stop-color="#969696"/>
<stop offset="0.8462" stop-color="#D9D9D9"/>
</linearGradient>
<linearGradient id="paint27_linear_2_44685" x1="57.248" y1="23.1433" x2="67.0394" y2="23.1433" gradientUnits="userSpaceOnUse">
<stop stop-color="#A8A8A8"/>
<stop offset="1" stop-color="white"/>
</linearGradient>
<linearGradient id="paint28_linear_2_44685" x1="66.4886" y1="21.4779" x2="68.642" y2="25.5252" gradientUnits="userSpaceOnUse">
<stop stop-color="#C7C7C7"/>
<stop offset="0.082417" stop-color="#BDBDBD"/>
<stop offset="0.1429" stop-color="#8C8C8C"/>
<stop offset="0.2151" stop-color="#7E7E7E"/>
<stop offset="0.3297" stop-color="#6B6B6B"/>
<stop offset="0.3907" stop-color="#595959"/>
<stop offset="0.544" stop-color="#2E2E2E"/>
<stop offset="0.5738" stop-color="#323232"/>
<stop offset="0.6042" stop-color="#3E3E3E"/>
<stop offset="0.6351" stop-color="#535353"/>
<stop offset="0.6661" stop-color="#707070"/>
<stop offset="0.6973" stop-color="#959595"/>
<stop offset="0.7283" stop-color="#C1C1C1"/>
<stop offset="0.7473" stop-color="#E0E0E0"/>
<stop offset="0.8901" stop-color="white"/>
</linearGradient>
<linearGradient id="paint29_linear_2_44685" x1="86.7322" y1="26.671" x2="81.5388" y2="27.8588" gradientUnits="userSpaceOnUse">
<stop stop-color="#B8B8B8"/>
<stop offset="0.1073" stop-color="#A0A0A0"/>
<stop offset="0.3187" stop-color="#757575"/>
<stop offset="0.4341" stop-color="#767676"/>
<stop offset="0.5604" stop-color="#737373"/>
<stop offset="0.6297" stop-color="#787878"/>
<stop offset="0.7097" stop-color="#868686"/>
<stop offset="0.7747" stop-color="#969696"/>
</linearGradient>
<linearGradient id="paint30_linear_2_44685" x1="85.6978" y1="24.4757" x2="87.1808" y2="25.9558" gradientUnits="userSpaceOnUse">
<stop stop-color="#E6E6E6"/>
<stop offset="0.1017" stop-color="#C8C8C8"/>
<stop offset="0.2692" stop-color="#9C9C9C"/>
<stop offset="0.43" stop-color="#A6A6A6"/>
<stop offset="0.7532" stop-color="#B7B7B7"/>
<stop offset="1" stop-color="#BDBDBD"/>
</linearGradient>
<linearGradient id="paint31_linear_2_44685" x1="82.1779" y1="22.0426" x2="83.873" y2="25.9217" gradientUnits="userSpaceOnUse">
<stop offset="0.1429" stop-color="#DEDEDE"/>
<stop offset="0.236" stop-color="#A0A0A0"/>
<stop offset="0.3077" stop-color="#757575"/>
<stop offset="0.5769" stop-color="#737373"/>
<stop offset="0.6174" stop-color="#787878"/>
<stop offset="0.6642" stop-color="#868686"/>
<stop offset="0.7143" stop-color="#9D9D9D"/>
<stop offset="0.7665" stop-color="#BDBDBD"/>
<stop offset="0.8187" stop-color="#E6E6E6"/>
</linearGradient>
<linearGradient id="paint32_linear_2_44685" x1="71.9522" y1="23.44" x2="82.2554" y2="23.44" gradientUnits="userSpaceOnUse">
<stop offset="0.082417" stop-color="#999999"/>
<stop offset="0.1282" stop-color="#A4A4A4"/>
<stop offset="0.3242" stop-color="#CFCFCF"/>
<stop offset="0.5604" stop-color="#D9D9D9"/>
<stop offset="0.7582" stop-color="#E0E0E0"/>
</linearGradient>
<linearGradient id="paint33_linear_2_44685" x1="82.0319" y1="21.9905" x2="82.4516" y2="21.9905" gradientUnits="userSpaceOnUse">
<stop stop-color="#E3E3E3"/>
<stop offset="0.1097" stop-color="#DBDBDB"/>
<stop offset="0.2807" stop-color="#C5C5C5"/>
<stop offset="0.4505" stop-color="#A8A8A8"/>
<stop offset="0.6708" stop-color="#C8C8C8"/>
<stop offset="0.8242" stop-color="#E0E0E0"/>
</linearGradient>
<linearGradient id="paint34_linear_2_44685" x1="81.8802" y1="28.9375" x2="83.1876" y2="28.9375" gradientUnits="userSpaceOnUse">
<stop stop-color="#BABABA"/>
<stop offset="0.1147" stop-color="#A0A0A0"/>
<stop offset="0.3187" stop-color="#757575"/>
<stop offset="0.4341" stop-color="#767676"/>
<stop offset="0.5604" stop-color="#737373"/>
<stop offset="0.6627" stop-color="#787878"/>
<stop offset="0.7747" stop-color="#858585"/>
</linearGradient>
<linearGradient id="paint35_linear_2_44685" x1="72.7357" y1="27.2229" x2="81.7313" y2="27.2229" gradientUnits="userSpaceOnUse">
<stop offset="0.082417" stop-color="#999999"/>
<stop offset="0.1746" stop-color="#7C7C7C"/>
<stop offset="0.3242" stop-color="#525252"/>
<stop offset="0.5604" stop-color="#404040"/>
<stop offset="0.7473" stop-color="#999999"/>
<stop offset="0.8681" stop-color="#D1D1D1"/>
</linearGradient>
<linearGradient id="paint36_linear_2_44685" x1="82.6242" y1="29.6571" x2="80.6739" y2="27.8496" gradientUnits="userSpaceOnUse">
<stop stop-color="#3B3B3B"/>
<stop offset="0.0257624" stop-color="#3D3D3D"/>
<stop offset="0.2555" stop-color="#4C4C4C"/>
<stop offset="0.4396" stop-color="#525252"/>
<stop offset="0.4973" stop-color="#585858"/>
<stop offset="0.5737" stop-color="#686868"/>
<stop offset="0.6264" stop-color="#787878"/>
<stop offset="0.7473" stop-color="#999999"/>
<stop offset="0.8681" stop-color="#D1D1D1"/>
</linearGradient>
<linearGradient id="paint37_linear_2_44685" x1="58.7923" y1="25.5127" x2="58.7923" y2="26.0349" gradientUnits="userSpaceOnUse">
<stop stop-color="#BDBDBD"/>
<stop offset="0.4505" stop-color="#D9D9D9"/>
<stop offset="0.8242" stop-color="#A8A8A8"/>
</linearGradient>
<linearGradient id="paint38_linear_2_44685" x1="66.3347" y1="21.1328" x2="66.6121" y2="21.1328" gradientUnits="userSpaceOnUse">
<stop stop-color="white"/>
<stop offset="0.4505" stop-color="#BFBFBF"/>
<stop offset="0.8242" stop-color="#C2C2C2"/>
</linearGradient>
<linearGradient id="paint39_linear_2_44685" x1="27.5363" y1="18.6304" x2="44.4153" y2="21.2221" gradientUnits="userSpaceOnUse">
<stop stop-color="#A8A8A8"/>
<stop offset="0.087912" stop-color="#6B6B6B"/>
<stop offset="0.3681" stop-color="#4D4D4D"/>
<stop offset="0.4521" stop-color="#505050"/>
<stop offset="0.5222" stop-color="#5A5A5A"/>
<stop offset="0.5875" stop-color="#6C6C6C"/>
<stop offset="0.6494" stop-color="#848484"/>
<stop offset="0.6868" stop-color="#969696"/>
<stop offset="0.8462" stop-color="#F0F0F0"/>
</linearGradient>
<linearGradient id="paint40_linear_2_44685" x1="23.2252" y1="12.1691" x2="45.5957" y2="12.1691" gradientUnits="userSpaceOnUse">
<stop stop-color="#A8A8A8"/>
<stop offset="0.6099" stop-color="#F0F0F0"/>
<stop offset="0.7363" stop-color="white"/>
<stop offset="0.8005" stop-color="#FBFBFB"/>
<stop offset="0.8712" stop-color="#EDEDED"/>
<stop offset="0.9447" stop-color="#D7D7D7"/>
<stop offset="1" stop-color="#C2C2C2"/>
</linearGradient>
<linearGradient id="paint41_linear_2_44685" x1="44.689" y1="11.6502" x2="54.6578" y2="11.6502" gradientUnits="userSpaceOnUse">
<stop stop-color="#CFCFCF"/>
<stop offset="0.082417" stop-color="#D9D9D9"/>
<stop offset="0.1429" stop-color="#6B6B6B"/>
<stop offset="0.1918" stop-color="#5F5F5F"/>
<stop offset="0.2857" stop-color="#4D4D4D"/>
<stop offset="0.3002" stop-color="#505050"/>
<stop offset="0.5165" stop-color="#7A7A7A"/>
<stop offset="0.5764" stop-color="#7F7F7F"/>
<stop offset="0.6378" stop-color="#8B8B8B"/>
<stop offset="0.6997" stop-color="#9F9F9F"/>
<stop offset="0.7619" stop-color="#BCBCBC"/>
<stop offset="0.8242" stop-color="#E0E0E0"/>
<stop offset="0.9725" stop-color="#EDEDED"/>
</linearGradient>
<linearGradient id="paint42_linear_2_44685" x1="44.8588" y1="7.07291" x2="45.439" y2="7.07291" gradientUnits="userSpaceOnUse">
<stop stop-color="#D4D4D4"/>
<stop offset="0.5275" stop-color="#9E9E9E"/>
<stop offset="0.8242" stop-color="#D9D9D9"/>
</linearGradient>
<linearGradient id="paint43_linear_2_44685" x1="75.3184" y1="13.6053" x2="73.3859" y2="17.1947" gradientUnits="userSpaceOnUse">
<stop stop-color="#D1D1D1"/>
<stop offset="0.6209" stop-color="white"/>
<stop offset="0.7991" stop-color="#D6D6D6"/>
<stop offset="1" stop-color="#ABABAB"/>
</linearGradient>
<linearGradient id="paint44_linear_2_44685" x1="82.9554" y1="16.7448" x2="83.4728" y2="19.7699" gradientUnits="userSpaceOnUse">
<stop offset="0.065934" stop-color="white"/>
<stop offset="0.2637" stop-color="#8C8C8C"/>
<stop offset="0.3083" stop-color="#777777"/>
<stop offset="0.4066" stop-color="#4D4D4D"/>
<stop offset="0.6394" stop-color="#494949"/>
<stop offset="0.6868" stop-color="#474747"/>
<stop offset="1" stop-color="#EBEBEB"/>
</linearGradient>
<linearGradient id="paint45_linear_2_44685" x1="79.3892" y1="18.4069" x2="77.5277" y2="25.5595" gradientUnits="userSpaceOnUse">
<stop offset="0.060439" stop-color="#E0E0E0"/>
<stop offset="0.2582" stop-color="#EBEBEB"/>
<stop offset="0.2667" stop-color="#E4E4E4"/>
<stop offset="0.4092" stop-color="#787878"/>
<stop offset="0.4725" stop-color="#4D4D4D"/>
<stop offset="0.6701" stop-color="#4D4D4D"/>
<stop offset="0.6868" stop-color="#4D4D4D"/>
<stop offset="1" stop-color="#5E5E5E"/>
</linearGradient>
<linearGradient id="paint46_linear_2_44685" x1="47.8963" y1="21.9906" x2="44.7012" y2="32.7956" gradientUnits="userSpaceOnUse">
<stop stop-color="#BDBDBD"/>
<stop offset="0.2253" stop-color="#828282"/>
<stop offset="0.2596" stop-color="#777777"/>
<stop offset="0.4066" stop-color="#4D4D4D"/>
<stop offset="0.4804" stop-color="#505050"/>
<stop offset="0.5421" stop-color="#5A5A5A"/>
<stop offset="0.5995" stop-color="#6C6C6C"/>
<stop offset="0.6539" stop-color="#848484"/>
<stop offset="0.6868" stop-color="#969696"/>
<stop offset="1" stop-color="#9C9C9C"/>
</linearGradient>
<linearGradient id="paint47_linear_2_44685" x1="42.3435" y1="23.0777" x2="44.3912" y2="33.7297" gradientUnits="userSpaceOnUse">
<stop stop-color="#B5B5B5"/>
<stop offset="0.2253" stop-color="#6B6B6B"/>
<stop offset="0.4066" stop-color="#4D4D4D"/>
<stop offset="0.4804" stop-color="#505050"/>
<stop offset="0.5421" stop-color="#5A5A5A"/>
<stop offset="0.5995" stop-color="#6C6C6C"/>
<stop offset="0.6539" stop-color="#848484"/>
<stop offset="0.6868" stop-color="#969696"/>
<stop offset="1" stop-color="#C2C2C2"/>
</linearGradient>
<linearGradient id="paint48_linear_2_44685" x1="44.8941" y1="31.1817" x2="45.3894" y2="31.1817" gradientUnits="userSpaceOnUse">
<stop stop-color="#999999"/>
<stop offset="0.4505" stop-color="#E6E6E6"/>
<stop offset="0.8242" stop-color="#A3A3A3"/>
</linearGradient>
<linearGradient id="paint49_linear_2_44685" x1="25.4822" y1="17.7949" x2="25.4822" y2="18.5179" gradientUnits="userSpaceOnUse">
<stop stop-color="#A8A8A8"/>
<stop offset="0.0433997" stop-color="#B2B2B2"/>
<stop offset="0.2581" stop-color="#DCDCDC"/>
<stop offset="0.4268" stop-color="#F5F5F5"/>
<stop offset="0.5275" stop-color="white"/>
<stop offset="0.6462" stop-color="#EBEBEB"/>
<stop offset="0.8878" stop-color="#B8B8B8"/>
<stop offset="1" stop-color="#9E9E9E"/>
</linearGradient>
<linearGradient id="paint50_linear_2_44685" x1="49.7522" y1="23.2657" x2="64.5404" y2="16.411" gradientUnits="userSpaceOnUse">
<stop stop-color="#BDBDBD"/>
<stop offset="0.2637" stop-color="#6B6B6B"/>
<stop offset="0.4066" stop-color="#4D4D4D"/>
<stop offset="0.6394" stop-color="#494949"/>
<stop offset="0.6868" stop-color="#474747"/>
<stop offset="1" stop-color="#545454"/>
</linearGradient>
<linearGradient id="paint51_linear_2_44685" x1="76.3591" y1="19.7877" x2="70.3413" y2="18.6769" gradientUnits="userSpaceOnUse">
<stop stop-color="#BFBFBF"/>
<stop offset="0.2637" stop-color="#737373"/>
<stop offset="0.4066" stop-color="#4D4D4D"/>
<stop offset="0.6394" stop-color="#494949"/>
<stop offset="0.6868" stop-color="#474747"/>
<stop offset="1" stop-color="#545454"/>
</linearGradient>
<linearGradient id="paint52_linear_2_44685" x1="76.5952" y1="18.938" x2="77.7437" y2="23.8047" gradientUnits="userSpaceOnUse">
<stop stop-color="#D1D1D1"/>
<stop offset="0.2418" stop-color="#9C9C9C"/>
<stop offset="0.3284" stop-color="#777777"/>
<stop offset="0.4396" stop-color="#4D4D4D"/>
<stop offset="0.645" stop-color="#494949"/>
<stop offset="0.6868" stop-color="#474747"/>
<stop offset="1" stop-color="#4D4D4D"/>
</linearGradient>
<linearGradient id="paint53_linear_2_44685" x1="77.5152" y1="23.127" x2="78.0922" y2="23.127" gradientUnits="userSpaceOnUse">
<stop stop-color="#4A4A4A"/>
<stop offset="0.1028" stop-color="#4D4D4D"/>
<stop offset="0.1881" stop-color="#575757"/>
<stop offset="0.267" stop-color="#696969"/>
<stop offset="0.3421" stop-color="#818181"/>
<stop offset="0.4146" stop-color="#A0A0A0"/>
<stop offset="0.4841" stop-color="#C6C6C6"/>
<stop offset="0.5055" stop-color="#D4D4D4"/>
<stop offset="0.5481" stop-color="#CACACA"/>
<stop offset="0.6198" stop-color="#B0B0B0"/>
<stop offset="0.711" stop-color="#868686"/>
<stop offset="0.7527" stop-color="#707070"/>
<stop offset="0.9396" stop-color="#4F4F4F"/>
</linearGradient>
<linearGradient id="paint54_linear_2_44685" x1="79.306" y1="19.5029" x2="84.2419" y2="18.3409" gradientUnits="userSpaceOnUse">
<stop stop-color="#E6E6E6"/>
<stop offset="0.2308" stop-color="#737373"/>
<stop offset="0.4505" stop-color="#4D4D4D"/>
<stop offset="0.6319" stop-color="#474747"/>
<stop offset="0.6923" stop-color="#666666"/>
<stop offset="0.7893" stop-color="#929292"/>
<stop offset="0.8763" stop-color="#B2B2B2"/>
<stop offset="0.9496" stop-color="#C5C5C5"/>
<stop offset="1" stop-color="#CCCCCC"/>
</linearGradient>
<linearGradient id="paint55_linear_2_44685" x1="84.954" y1="18.3363" x2="84.9463" y2="17.9144" gradientUnits="userSpaceOnUse">
<stop stop-color="#C9C9C9"/>
<stop offset="0.2457" stop-color="#C6C6C6"/>
<stop offset="0.4489" stop-color="#BCBCBC"/>
<stop offset="0.5055" stop-color="#B8B8B8"/>
<stop offset="0.5541" stop-color="#AEAEAE"/>
<stop offset="0.6358" stop-color="#949494"/>
<stop offset="0.7253" stop-color="#707070"/>
<stop offset="0.9396" stop-color="#4F4F4F"/>
</linearGradient>
<linearGradient id="paint56_linear_2_44685" x1="79.9527" y1="17.3121" x2="78.3297" y2="13.5254" gradientUnits="userSpaceOnUse">
<stop stop-color="white"/>
<stop offset="0.1264" stop-color="#A6A6A6"/>
<stop offset="0.2743" stop-color="#777777"/>
<stop offset="0.4231" stop-color="#4D4D4D"/>
<stop offset="0.7308" stop-color="#474747"/>
<stop offset="0.9916" stop-color="#515151"/>
<stop offset="1" stop-color="#525252"/>
</linearGradient>
<linearGradient id="paint57_linear_2_44685" x1="77.5046" y1="13.6819" x2="78.0512" y2="13.6819" gradientUnits="userSpaceOnUse">
<stop stop-color="#D4D4D4"/>
<stop offset="0.2026" stop-color="#D0D0D0"/>
<stop offset="0.3703" stop-color="#C6C6C6"/>
<stop offset="0.5055" stop-color="#B8B8B8"/>
<stop offset="0.5466" stop-color="#AEAEAE"/>
<stop offset="0.6157" stop-color="#949494"/>
<stop offset="0.7036" stop-color="#6A6A6A"/>
<stop offset="0.7253" stop-color="#5E5E5E"/>
<stop offset="0.9396" stop-color="#4D4D4D"/>
</linearGradient>
<linearGradient id="paint58_linear_2_44685" x1="53.144" y1="16.5462" x2="69.6207" y2="17.7186" gradientUnits="userSpaceOnUse">
<stop stop-color="#E8E8E8"/>
<stop offset="0.6209" stop-color="white"/>
<stop offset="0.7991" stop-color="#D6D6D6"/>
<stop offset="1" stop-color="#ABABAB"/>
</linearGradient>
<linearGradient id="paint59_linear_2_44685" x1="81.8802" y1="29.7915" x2="82.6872" y2="29.7915" gradientUnits="userSpaceOnUse">
<stop offset="0.027472" stop-color="#4A4A4A"/>
<stop offset="0.0894283" stop-color="#575757"/>
<stop offset="0.2055" stop-color="#7B7B7B"/>
<stop offset="0.3571" stop-color="#B3B3B3"/>
<stop offset="0.489" stop-color="#D4D4D4"/>
<stop offset="0.55" stop-color="#C7C7C7"/>
<stop offset="0.6618" stop-color="#A5A5A5"/>
<stop offset="0.7198" stop-color="#919191"/>
<stop offset="0.8736" stop-color="#757575"/>
</linearGradient>
<radialGradient id="paint60_radial_2_44685" cx="0" cy="0" r="1" gradientUnits="userSpaceOnUse" gradientTransform="translate(41.9733 15.8512) scale(29.4112 29.4686)">
<stop offset="0.071429" stop-color="white"/>
<stop offset="0.0749547" stop-color="#FDFDFD"/>
<stop offset="0.144" stop-color="#D5D5D5"/>
<stop offset="0.2073" stop-color="#B8B8B8"/>
<stop offset="0.2621" stop-color="#A7A7A7"/>
<stop offset="0.3022" stop-color="#A1A1A1"/>
<stop offset="0.3748" stop-color="#8F8F8F"/>
<stop offset="0.483" stop-color="#7D7D7D"/>
<stop offset="0.5947" stop-color="#717171"/>
<stop offset="0.7143" stop-color="#6E6E6E"/>
<stop offset="1" stop-color="#696969"/>
</radialGradient>
<linearGradient id="paint61_linear_2_44685" x1="71.278" y1="22.6449" x2="77.9714" y2="31.6758" gradientUnits="userSpaceOnUse">
<stop stop-color="#ADADAD"/>
<stop offset="0.0917562" stop-color="#999999"/>
<stop offset="0.1538" stop-color="#919191"/>
<stop offset="0.1679" stop-color="#8F8F8F"/>
<stop offset="0.3421" stop-color="#7D7D7D"/>
<stop offset="0.5219" stop-color="#717171"/>
<stop offset="0.7143" stop-color="#6E6E6E"/>
<stop offset="1" stop-color="#8A8A8A"/>
</linearGradient>
<linearGradient id="paint62_linear_2_44685" x1="71.0392" y1="39.4926" x2="67.6132" y2="36.9382" gradientUnits="userSpaceOnUse">
<stop stop-color="#E6E6E6"/>
<stop offset="0.2444" stop-color="#C6C6C6"/>
<stop offset="0.564" stop-color="#A4A4A4"/>
<stop offset="0.8273" stop-color="#8F8F8F"/>
<stop offset="1" stop-color="#878787"/>
</linearGradient>
<linearGradient id="paint63_linear_2_44685" x1="88.1133" y1="25.4603" x2="88.1133" y2="25.9562" gradientUnits="userSpaceOnUse">
<stop stop-color="#C2C2C2"/>
<stop offset="0.1258" stop-color="#BABABA"/>
<stop offset="0.3218" stop-color="#A4A4A4"/>
<stop offset="0.4505" stop-color="#919191"/>
<stop offset="0.7154" stop-color="#B1B1B1"/>
<stop offset="0.8242" stop-color="#BFBFBF"/>
</linearGradient>
<clipPath id="clip0_2_44685">
<rect width="115" height="67" fill="white"/>
</clipPath>
</defs>
</svg>
