<svg width="57" height="68" viewBox="0 0 57 68" fill="none" xmlns="http://www.w3.org/2000/svg">
<path d="M20.8607 15.214C21.3617 13.5433 22.6498 14.3965 22.6498 14.3965C22.6498 14.3965 26.0133 16.9202 35.1733 22.7498C44.3334 28.5794 55.8193 20.5104 55.8193 20.5104L28.6253 1.31543C16.7101 13.8633 1.43135 18.3776 1.43135 18.3776H1.46713L36.211 42.5846C35.7101 44.2553 34.4219 43.4022 34.4219 43.4022C34.4219 43.4022 31.0585 40.8784 21.8984 35.0488C12.7025 29.2548 1.25244 37.3238 1.25244 37.3238L28.4464 56.5188C40.3617 43.9709 55.6404 39.4566 55.6404 39.4566H55.6046L20.8607 15.214Z" fill="#FF0016"/>
<path d="M1.00195 64.1254L5.18839 64.1609C5.25996 64.5519 5.15261 64.5519 5.3673 64.7652C5.72512 65.0851 6.26184 65.1562 6.69122 65.0851C7.04903 65.0141 7.62154 64.9074 7.65732 64.4453C7.6931 63.9477 7.33529 63.7699 6.90591 63.7344C6.29762 63.6633 5.72512 63.6277 5.11683 63.5567C3.57822 63.3078 2.79103 63.2012 2.11118 62.7746C1.46711 62.3481 1.39555 61.4594 1.39555 60.8196C1.39555 60.393 1.57446 60.002 1.89649 59.6466C2.21853 59.2911 2.71947 58.9712 3.39932 58.7579C4.07917 58.5446 5.00949 58.438 6.1545 58.438C7.58576 58.438 8.69498 58.6157 9.4464 59.0067C10.1978 59.3977 10.663 60.2508 10.8061 61.104H7.26372C7.2995 61.0684 7.19216 60.8196 7.19216 60.784C7.04903 60.2864 6.58387 60.1442 6.11871 60.0376C5.7609 59.9665 5.33152 59.9309 4.9737 60.1442C4.75901 60.2864 4.61589 60.393 4.61589 60.5708C4.61589 60.7129 4.68745 60.8196 4.86636 60.9262C5.04527 61.0329 5.40308 61.1395 6.04715 61.2106C7.58576 61.4594 8.6592 61.6727 9.30327 61.9215C9.94734 62.1703 10.4483 62.4547 10.7345 62.8102C11.0208 63.1656 11.1997 63.5567 11.1997 64.0188C11.1997 64.5519 10.985 65.014 10.5914 65.4761C10.1978 65.9027 9.62531 66.2582 8.90967 66.4714C8.19404 66.6847 7.2995 66.8269 6.19028 66.8269C4.25807 66.8269 2.93416 66.5425 2.21853 66.0093C1.50289 65.5117 1.1093 64.943 1.00195 64.1254Z" fill="#015CD0"/>
<path d="M17.9623 58.5801H21.0396V64.3386C21.0396 65.5116 20.2881 66.3647 18.8211 66.8624C18.1413 67.0756 17.3183 67.1112 16.388 67.1112C15.565 67.1112 14.8136 67.1112 14.0979 66.9334C12.452 66.2936 11.6648 65.405 11.6648 64.3386V58.5801H14.7778V63.521C14.7778 64.4097 14.8851 65.085 16.388 65.085C17.8908 65.085 17.9266 64.3741 17.9266 63.4855L17.9623 58.5801Z" fill="#015CD0"/>
<path d="M38.1789 58.5801H41.2561V64.3386C41.2561 65.5116 40.5047 66.3647 39.0377 66.8624C38.3578 67.0756 37.5348 67.1112 36.6045 67.1112C35.7815 67.1112 35.0301 67.1112 34.3145 66.9334C32.6685 66.2936 31.8813 65.405 31.8813 64.3386V58.5801H34.9943V63.521C34.9943 64.4097 35.1017 65.085 36.6045 65.085C38.1073 65.085 38.1431 64.3741 38.1431 63.4855L38.1789 58.5801Z" fill="#015CD0"/>
<path d="M21.6836 58.6157H31.273V60.393L26.5857 64.5875H31.273V66.898H21.6836V64.9074L26.2636 60.784H21.7194L21.6836 58.6157Z" fill="#015CD0"/>
<path d="M42.0435 66.898V58.6157H45.1207V61.6727L48.4484 58.6157H52.277L47.8758 62.6325L52.4559 66.898H48.3052L45.1565 63.9477L45.1922 66.898H42.0435Z" fill="#015CD0"/>
<path d="M55.9625 58.6157V66.898H52.8853V58.6157H55.9625Z" fill="#015CD0"/>
</svg>
