<svg width="308" height="75" viewBox="0 0 308 75" fill="none" xmlns="http://www.w3.org/2000/svg">
<path d="M97.346 31L105.236 10H99.236L94.496 24.4L89.756 10H83.756L91.646 31H97.346ZM112.849 25.18L109.339 16.6H103.939L110.719 31.36C110.029 32.92 108.979 33.64 107.719 33.64C107.059 33.64 106.399 33.55 105.769 33.4V37.6C106.609 37.81 107.509 37.99 108.409 37.99C110.869 37.99 113.359 36.82 115.009 32.5L121.039 16.6H115.789L112.849 25.18ZM138.174 31L133.194 23.68L137.874 16.6H132.174L129.024 21.64H127.884V10H122.784V31H127.884V25.54H128.964L132.504 31H138.174ZM149.2 16.6V25.84C148.75 26.41 147.88 27.1 146.74 27.1C145.48 27.1 144.55 26.38 144.55 24.85V16.6H139.45V25.54C139.45 28.78 141.25 31.45 145.21 31.45C147.13 31.45 148.6 30.64 149.8 29.35V31H154.3V16.6H149.2ZM161.854 18.55V16.6H157.354V37.6H162.454V29.83C163.324 30.73 164.734 31.45 166.744 31.45C171.574 31.45 173.704 27.52 173.704 23.8C173.704 20.08 171.574 16.15 166.744 16.15C164.164 16.15 162.574 17.35 161.854 18.55ZM168.454 23.8C168.454 25.48 167.524 27.25 165.364 27.25C163.954 27.25 162.904 26.38 162.454 25.45V22.15C162.904 21.22 163.954 20.35 165.364 20.35C167.524 20.35 168.454 22.12 168.454 23.8ZM176.105 21.67V25.87H187.505V21.67H176.105ZM204.226 26.89V22.87C204.226 17.74 201.286 16.15 196.696 16.15C194.566 16.15 192.286 16.72 191.086 17.11V21.4C192.496 20.83 194.236 20.29 196.126 20.29C198.166 20.29 199.126 21.07 199.126 22.09V22.6C198.166 22.39 197.086 22.27 196.006 22.27C193.216 22.27 189.766 23.38 189.766 27.01C189.766 29.8 192.016 31.45 194.776 31.45C196.816 31.45 198.406 30.79 199.786 29.71C200.446 30.73 201.616 31.3 203.206 31.3C204.166 31.3 205.096 31.12 205.786 30.85V27.7C205.606 27.76 205.396 27.79 205.216 27.79C204.706 27.79 204.226 27.58 204.226 26.89ZM195.016 26.59C195.016 25.45 196.096 25.03 197.296 25.03C197.986 25.03 198.676 25.15 199.126 25.3V27.25C198.346 27.82 197.596 28 196.756 28C195.676 28 195.016 27.34 195.016 26.59ZM217.228 16.6V25.84C216.778 26.41 215.908 27.1 214.768 27.1C213.508 27.1 212.578 26.38 212.578 24.85V16.6H207.478V25.54C207.478 28.78 209.278 31.45 213.238 31.45C215.158 31.45 216.628 30.64 217.828 29.35V31H222.328V16.6H217.228ZM226.522 12.55V16.6H224.242V20.8H226.522V26.5C226.522 30.31 229.132 31.45 231.922 31.45C233.392 31.45 234.682 31.24 235.822 30.85V26.89C235.042 27.16 234.352 27.25 233.512 27.25C232.222 27.25 231.622 26.62 231.622 25.48V20.8H235.522V16.6H231.622V11.35L226.522 12.55ZM237.318 23.8C237.318 28.9 241.098 31.45 245.418 31.45C249.738 31.45 253.518 28.9 253.518 23.8C253.518 18.7 249.738 16.15 245.418 16.15C241.098 16.15 237.318 18.7 237.318 23.8ZM248.268 23.8C248.268 25.42 247.518 26.95 245.418 26.95C243.318 26.95 242.568 25.42 242.568 23.8C242.568 22.18 243.318 20.65 245.418 20.65C247.518 20.65 248.268 22.18 248.268 23.8ZM260.77 10.6L255.82 12.49V17.44L259.42 16.09V26.35H255.82V31H268V26.35H264.82V10.6H260.77ZM275.786 28.48C275.786 26.44 274.376 25.54 272.726 25.54C271.106 25.54 269.666 26.44 269.666 28.48C269.666 30.55 271.106 31.45 272.726 31.45C274.376 31.45 275.786 30.55 275.786 28.48ZM282.88 18.55V16.6H278.38V31H283.48V22.81C284.38 21.43 286.51 20.8 288.52 21.25V16.3C285.7 16 283.87 17.11 282.88 18.55ZM300.109 16.6V25.84C299.659 26.41 298.789 27.1 297.649 27.1C296.389 27.1 295.459 26.38 295.459 24.85V16.6H290.359V25.54C290.359 28.78 292.159 31.45 296.119 31.45C298.039 31.45 299.509 30.64 300.709 29.35V31H305.209V16.6H300.109Z" fill="#002D4B"/>
<path d="M85.6158 47.1V59H90.2738C92.0588 59 94.7278 58.524 94.7448 55.77C94.7278 53.73 93.2318 52.982 92.1268 52.744C93.2148 52.506 94.2688 51.673 94.2688 50.092C94.2688 48.052 92.6368 47.1 90.2398 47.1H85.6158ZM93.7248 55.668C93.7248 57.861 91.7188 58.031 90.0868 58.031H86.6358V53.288H90.5798C91.7698 53.288 93.7248 53.56 93.7248 55.668ZM93.2488 50.228C93.2488 51.758 92.0078 52.336 90.6648 52.336H86.6358V48.069H90.1718C92.0418 48.069 93.2488 48.63 93.2488 50.228ZM100.571 59C102.492 59 103.682 57.895 103.682 56.399C103.682 54.92 102.492 53.815 100.571 53.815H97.7999V50.84H96.8309V59H100.571ZM97.7829 54.682H100.435C101.812 54.682 102.696 55.311 102.696 56.399C102.696 57.487 101.829 58.133 100.435 58.133H97.7829V54.682ZM106.266 59V50.84H105.297V59H106.266ZM109.886 59V55.277H111.722L115.037 59H116.176L112.538 54.852L115.751 50.84H114.629L111.773 54.376H109.886V50.84H108.917V59H109.886ZM121.016 57.929L117.548 50.84H116.528L120.54 59.034L120.132 59.986C119.554 61.414 118.874 62.077 117.905 62.077C117.667 62.077 117.412 62.043 117.157 61.975V62.825C117.463 62.893 117.735 62.927 118.024 62.927C119.163 62.927 120.115 62.23 120.948 60.343L125.079 50.84H124.059L121.016 57.929ZM127.699 59V51.741H133.003V59H133.955V50.84H126.73V59H127.699ZM147.383 57.521V54.036C147.383 51.86 146.091 50.653 143.932 50.653C142.606 50.653 141.535 50.942 140.906 51.163V52.115C141.586 51.826 142.589 51.537 143.83 51.537C145.513 51.537 146.431 52.489 146.431 53.917V54.461C145.649 54.24 144.731 54.104 143.864 54.104C142.13 54.104 140.26 54.75 140.26 56.773C140.26 58.439 141.671 59.187 143.099 59.187C144.459 59.187 145.632 58.694 146.448 57.81C146.533 58.728 147.162 59.068 147.859 59.068C148.165 59.068 148.471 59 148.743 58.898V58.116C148.539 58.184 148.335 58.235 148.114 58.235C147.723 58.235 147.383 58.065 147.383 57.521ZM141.246 56.722C141.246 55.362 142.657 54.92 144 54.92C144.816 54.92 145.717 55.073 146.431 55.26V56.756C145.7 57.793 144.51 58.354 143.286 58.354C142.249 58.354 141.246 57.844 141.246 56.722ZM154.743 59C156.375 59 157.344 58.184 157.344 56.79C157.344 55.668 156.63 55.039 155.831 54.835C156.579 54.58 157.072 53.9 157.072 52.999C157.072 51.622 156.052 50.84 154.573 50.84H150.255V59H154.743ZM151.207 55.294H154.658C155.542 55.294 156.375 55.6 156.375 56.739C156.375 57.793 155.61 58.15 154.59 58.15H151.207V55.294ZM151.207 51.69H154.454C155.372 51.69 156.086 52.098 156.086 53.084C156.086 54.019 155.474 54.444 154.488 54.444H151.207V51.69ZM162.479 59V51.741H165.641V50.84H158.348V51.741H161.51V59H162.479ZM166.312 54.92C166.312 57.674 168.403 59.187 170.596 59.187C172.823 59.187 174.897 57.674 174.897 54.92C174.897 52.166 172.823 50.653 170.596 50.653C168.403 50.653 166.312 52.166 166.312 54.92ZM173.928 54.92C173.928 57.045 172.415 58.269 170.613 58.269C168.794 58.269 167.281 57.045 167.281 54.92C167.281 52.795 168.794 51.571 170.613 51.571C172.415 51.571 173.928 52.795 173.928 54.92ZM185.837 59C187.469 59 188.438 58.184 188.438 56.79C188.438 55.668 187.724 55.039 186.925 54.835C187.673 54.58 188.166 53.9 188.166 52.999C188.166 51.622 187.146 50.84 185.667 50.84H181.349V59H185.837ZM182.301 55.294H185.752C186.636 55.294 187.469 55.6 187.469 56.739C187.469 57.793 186.704 58.15 185.684 58.15H182.301V55.294ZM182.301 51.69H185.548C186.466 51.69 187.18 52.098 187.18 53.084C187.18 54.019 186.568 54.444 185.582 54.444H182.301V51.69ZM206.471 47.1L201.32 54.733L196.152 47.1H195.302V59H196.305V49.038L200.997 55.974H201.626L206.318 49.038V59H207.321V47.1H206.471ZM209.576 54.92C209.576 57.674 211.667 59.187 213.86 59.187C216.087 59.187 218.161 57.674 218.161 54.92C218.161 52.166 216.087 50.653 213.86 50.653C211.667 50.653 209.576 52.166 209.576 54.92ZM217.192 54.92C217.192 57.045 215.679 58.269 213.877 58.269C212.058 58.269 210.545 57.045 210.545 54.92C210.545 52.795 212.058 51.571 213.877 51.571C215.679 51.571 217.192 52.795 217.192 54.92ZM219.686 54.971C219.686 57.861 221.862 59.187 223.97 59.187C224.956 59.187 225.857 59 226.639 58.609V57.64C225.925 58.065 225.007 58.303 224.106 58.303C222.355 58.303 220.655 57.249 220.655 54.954C220.655 52.54 222.457 51.537 224.208 51.537C225.041 51.537 225.925 51.775 226.554 52.251V51.316C225.857 50.84 224.956 50.653 224.089 50.653C221.964 50.653 219.686 51.962 219.686 54.971ZM229.683 59V55.277H231.519L234.834 59H235.973L232.335 54.852L235.548 50.84H234.426L231.57 54.376H229.683V50.84H228.714V59H229.683ZM241.901 59C243.533 59 244.502 58.184 244.502 56.79C244.502 55.668 243.788 55.039 242.989 54.835C243.737 54.58 244.23 53.9 244.23 52.999C244.23 51.622 243.21 50.84 241.731 50.84H237.413V59H241.901ZM238.365 55.294H241.816C242.7 55.294 243.533 55.6 243.533 56.739C243.533 57.793 242.768 58.15 241.748 58.15H238.365V55.294ZM238.365 51.69H241.612C242.53 51.69 243.244 52.098 243.244 53.084C243.244 54.019 242.632 54.444 241.646 54.444H238.365V51.69ZM246.116 54.92C246.116 57.861 248.224 59.187 250.604 59.187C251.641 59.187 252.678 58.983 253.409 58.592V57.64C252.712 58.048 251.726 58.303 250.74 58.303C248.921 58.303 247.204 57.436 247.085 55.362H253.868C254.293 53.22 253.239 50.653 250.145 50.653C248.173 50.653 246.116 52.115 246.116 54.92ZM253.018 54.512H247.085C247.17 52.574 248.615 51.537 250.213 51.537C252.508 51.537 253.154 53.356 253.018 54.512ZM261.156 59L266.698 52.387V59H267.65V50.84H266.817L261.292 57.453V50.84H260.323V59H261.156ZM286.159 47.1L281.008 54.733L275.84 47.1H274.99V59H275.993V49.038L280.685 55.974H281.314L286.006 49.038V59H287.009V47.1H286.159ZM289.48 53.05C289.48 56.076 291.52 59.187 295.668 59.187C299.816 59.187 301.856 56.076 301.856 53.05C301.856 50.024 299.816 46.913 295.668 46.913C291.52 46.913 289.48 50.024 289.48 53.05ZM300.836 53.05C300.836 55.634 299.153 58.235 295.668 58.235C292.183 58.235 290.5 55.634 290.5 53.05C290.5 50.466 292.183 47.865 295.668 47.865C299.153 47.865 300.836 50.466 300.836 53.05Z" fill="#231F20"/>
<path d="M33.8326 0C26.7157 0 19.8909 2.82686 14.8589 7.85889C9.82686 12.8909 7 19.7166 7 26.8326C7.01075 37.3688 13.1864 46.9227 22.7882 51.2597L27.9101 46.1368C29.5953 44.4516 32.4055 44.4516 34.0907 46.1368L34.2491 46.2951C35.2109 45.3626 36.4708 44.8719 37.7367 44.8719C39.026 44.8719 40.3143 45.3743 41.283 46.343L45.7842 50.8443C54.8972 46.3108 60.6614 37.0111 60.6653 26.8317C60.6653 12.0132 48.6521 0 33.8326 0ZM52.261 3.10446C59.3555 8.72494 63.498 17.2759 63.5097 26.3273C63.4961 38.2232 56.38 48.9607 45.4304 53.6096L39.7229 47.9021C39.1765 47.3557 38.4541 47.0771 37.7357 47.0771C37.0173 47.0771 36.2949 47.3557 35.7485 47.9021L35.0271 48.6235L30.4574 53.1941C29.6803 53.9712 29.6803 55.2224 30.4574 55.9985C31.2345 56.7756 32.4857 56.7756 33.2628 55.9985L37.4884 51.7729L44.5321 58.8156L46.661 60.9445C47.14 61.4235 47.3892 62.052 47.4156 62.6884L47.8995 62.2035C59.9273 56.7052 67.6484 44.7038 67.666 31.4796C67.666 19.5935 61.5333 9.13938 52.261 3.10446ZM33.2159 12.2204C33.4211 12.2204 33.6264 12.2214 33.8317 12.2243C34.0369 12.2223 34.2432 12.2204 34.4485 12.2204H34.4494C35.8023 12.2184 37.1541 12.2653 38.4972 12.3914C41.0386 12.6427 44.7119 12.8802 45.7334 14.8038L49.3676 20.9023L48.8183 19.2787L48.9659 18.833C49.0988 18.4303 49.2953 18.0862 49.699 18.1302L52.8396 18.4723C53.2423 18.5163 53.5727 18.7861 53.5727 19.1751V20.5133C53.5727 20.9023 53.2248 21.1027 52.8396 21.2141L50.1037 22.0078L50.1438 22.0743C50.7908 22.9198 51.1007 23.3431 51.1007 24.8044V34.6388V35.1764V35.3973V36.365C51.1007 37.145 50.523 37.7716 49.8065 37.7716H43.8518C43.1968 37.7716 42.67 37.145 42.67 36.365V35.6768H34.1503H33.8639H33.8317H33.8004H33.514H24.9943V36.365C24.9943 37.1421 24.4675 37.7716 23.8126 37.7716H17.8568C17.1403 37.7716 16.5636 37.145 16.5636 36.365V34.6388V24.8054C16.5636 23.3431 16.8735 22.9198 17.5196 22.0753L17.5597 22.0088L14.8257 21.2151C14.4396 21.1037 14.0926 20.9023 14.0926 20.5142V19.1761C14.0926 18.7871 14.4229 18.5173 14.8257 18.4733L17.9663 18.1312C18.369 18.0872 18.5665 18.4303 18.6994 18.834L18.848 19.2846L18.4628 20.6658L21.9299 14.8048C22.9524 12.8812 26.6248 12.6436 29.1672 12.3924C30.5102 12.2653 31.8611 12.2194 33.2159 12.2204ZM33.4123 13.7384C31.2687 13.7452 29.1945 13.8655 27.5123 14.102C25.6756 14.3503 24.0432 14.8811 23.2642 15.9348C21.798 17.9748 20.4725 20.2738 18.888 23.1466C23.6913 23.5806 28.6354 23.7125 33.8033 23.6598H33.8326H33.862C39.0299 23.7125 43.9739 23.5796 48.7773 23.1466C47.1928 20.2738 45.8673 17.9748 44.4011 15.9348C43.6201 14.8801 41.9877 14.3503 40.153 14.102C38.4708 13.8655 36.3956 13.7443 34.253 13.7384H33.8336H33.4123ZM19.1676 27.2882C18.7268 27.2882 18.4726 27.6664 18.5968 28.1346L18.9965 29.636C19.1217 30.1052 19.5762 30.4835 20.018 30.4835H25.8369C26.2777 30.4835 26.5339 30.1052 26.4087 29.636L26.0089 28.1346C25.8838 27.6664 25.4293 27.2882 24.9865 27.2882H19.1676ZM42.6778 27.2882C42.237 27.2882 41.7815 27.6664 41.6564 28.1346L41.2566 29.636C41.1314 30.1052 41.3875 30.4835 41.8274 30.4835H47.6473C48.0881 30.4835 48.5436 30.1052 48.6688 29.636L49.0685 28.1346C49.1937 27.6664 48.9395 27.2882 48.4977 27.2882H42.6778ZM28.868 28.6918C28.481 28.6918 28.1682 29.0232 28.1682 29.4376V30.852C28.1682 31.2645 28.481 31.5959 28.868 31.5959H33.8326H38.7982C39.1853 31.5959 39.4981 31.2645 39.4981 30.852V29.4376C39.4981 29.0241 39.1853 28.6918 38.7982 28.6918H33.8326H28.868ZM21.6152 60.056C20.8821 60.0941 20.1128 60.4617 19.5146 61.0599C18.976 61.5985 18.6222 62.2768 18.5303 62.9474C18.4384 63.6179 18.6173 64.224 19.0259 64.6335C19.7238 65.3295 20.9505 65.3236 22.0169 64.6179C21.3112 65.6853 21.3063 66.913 22.0042 67.6099C22.7021 68.3059 23.9289 68.3 24.9953 67.5943C24.2905 68.6617 24.2847 69.8884 24.9816 70.5863C25.6795 71.2823 26.9053 71.2764 27.9717 70.5717C27.267 71.6391 27.2621 72.8658 27.959 73.5637C28.8114 74.4151 30.4105 74.1971 31.5307 73.0769C32.6509 71.9558 32.8689 70.3576 32.0175 69.5053C31.3196 68.8093 30.0938 68.8152 29.0274 69.5199C29.7321 68.4525 29.737 67.2258 29.0401 66.5279C28.3422 65.8319 27.1164 65.8378 26.05 66.5425C26.7557 65.4751 26.7606 64.2474 26.0627 63.5505C25.3648 62.8545 24.139 62.8604 23.0726 63.5651C23.7774 62.4977 23.7832 61.271 23.0853 60.5731C22.7745 60.2623 22.3473 60.0824 21.8605 60.057C21.7814 60.0521 21.6993 60.0521 21.6152 60.056Z" fill="url(#paint0_linear_205_2)"/>
<path d="M15.2007 3.23901C6.04275 9.29349 0 19.6801 0 31.4812C0 44.5842 7.44933 55.9454 18.3433 61.5659C18.5358 61.2189 18.7773 60.8934 19.0627 60.6089C19.6834 59.9873 20.4947 59.5562 21.3158 59.4448C22.1369 59.3324 22.9794 59.563 23.5386 60.1222C24.1387 60.7223 24.2883 61.6206 24.1309 62.5091C25.0175 62.3527 25.9148 62.5004 26.515 63.0995C27.1142 63.6997 27.2627 64.598 27.1073 65.4846C27.9939 65.3282 28.8912 65.4768 29.4914 66.0759C30.0906 66.6761 30.2401 67.5744 30.0837 68.461C30.9703 68.3046 31.8676 68.4532 32.4668 69.0524C33.0259 69.6115 33.2556 70.4541 33.1442 71.2751C33.0455 72.0004 32.6965 72.7179 32.1882 73.3034L33.2429 74.3581C34.0875 75.2026 35.4442 75.2153 36.2721 74.3864C37.101 73.5575 37.0883 72.2018 36.2438 71.3572L35.6465 70.76L35.9701 70.4365L36.5683 71.0337C37.4128 71.8782 38.7696 71.8909 39.5975 71.062C40.4264 70.2331 40.4127 68.8774 39.5691 68.0329L38.9719 67.4356L39.2954 67.1121L39.8927 67.7093C40.7372 68.5539 42.0939 68.5666 42.9219 67.7377C43.7508 66.9088 43.7381 65.553 42.8935 64.7085L42.2963 64.1112L42.6189 63.7877L43.2161 64.3849L43.1965 64.4054C44.0411 65.25 45.3978 65.2627 46.2257 64.4338C47.0546 63.6049 47.0419 62.2491 46.1974 61.4046L44.0684 59.2757L37.4852 52.6924L33.7199 56.4576C32.6965 57.481 31.0192 57.481 29.9948 56.4576C28.9714 55.4342 28.9714 53.7568 29.9948 52.7324L33.7805 48.9467L32.5313 47.6975C31.6829 46.849 30.3173 46.849 29.4689 47.6975L23.1573 54.009C11.9506 49.6954 4.15817 38.8406 4.15231 26.326C4.15231 17.3557 8.21763 8.86829 15.2007 3.23901Z" fill="url(#paint1_linear_205_2)"/>
<defs>
<linearGradient id="paint0_linear_205_2" x1="37.3326" y1="57.0605" x2="37.3326" y2="1.11612" gradientUnits="userSpaceOnUse">
<stop stop-color="#F53B00"/>
<stop offset="1" stop-color="#F59400"/>
</linearGradient>
<linearGradient id="paint1_linear_205_2" x1="23.4191" y1="63.0767" x2="23.4191" y2="3.22221" gradientUnits="userSpaceOnUse">
<stop stop-color="#003050"/>
<stop offset="1" stop-color="#004E86"/>
</linearGradient>
</defs>
</svg>
