<svg width="48" height="48" viewBox="0 0 48 48" fill="none" xmlns="http://www.w3.org/2000/svg">
<g clip-path="url(#clip0_2_629)">
<path d="M2.24992 0.0843735C1.46242 0.328125 0.674919 1.00312 0.271794 1.78125L0.0467944 2.20312L0.0186694 18.2531C-8.06013e-05 34.2562 -8.05976e-05 34.3031 0.187419 34.8187C0.449919 35.5031 1.10617 36.1969 1.82804 36.5344L2.39054 36.7969L12.3468 36.825L22.303 36.8438L22.3312 41.1844L22.3593 45.5156L22.6218 46.0781C22.9405 46.7531 23.503 47.3625 24.1405 47.7L24.6093 47.9531H35.203H45.7968L46.2655 47.7C46.828 47.4 47.428 46.7906 47.728 46.2187L47.953 45.7969V35.2031V24.6094L47.6999 24.1406C47.3624 23.4844 46.8374 22.9875 46.153 22.6687C45.6468 22.425 45.4405 22.3875 44.3999 22.3406L43.2187 22.2844V12.4125V2.54062L43.0124 1.99687C42.7405 1.25625 41.9624 0.478123 41.2218 0.206249L40.678 0L21.5812 0.00937271C11.0812 0.00937271 2.38117 0.046875 2.24992 0.0843735ZM40.7812 1.89375C40.9499 2.01562 41.1843 2.23125 41.2874 2.37187C41.4843 2.63437 41.4843 2.6625 41.5124 12.4781L41.5312 22.3125H33.6374C28.6499 22.3125 25.5093 22.35 25.1343 22.4062C24.328 22.5469 23.7468 22.8562 23.1749 23.475L22.6968 24H12.1968H1.68742V13.3687V2.74687L1.90304 2.42812C2.01554 2.25937 2.25929 2.01562 2.42804 1.90312L2.74679 1.6875H21.6093H40.4718L40.7812 1.89375ZM45.0374 24.0938C45.4874 24.1969 45.8249 24.4312 46.1062 24.8438L46.3124 25.1531V35.2031V45.2531L46.0968 45.5719C45.9843 45.7406 45.7405 45.9844 45.5718 46.0969L45.253 46.3125H35.203H25.153L24.8437 46.1062C24.4312 45.825 24.1968 45.4875 24.0937 45.0375C23.9624 44.5031 23.9718 25.9125 24.103 25.3312C24.2249 24.7406 24.703 24.2344 25.2562 24.1031C25.7624 23.9906 44.5499 23.9812 45.0374 24.0938ZM22.3124 27.6094V29.5312H19.8843C17.4937 29.5312 17.4468 29.5312 17.3905 29.3344C17.2874 29.025 16.6874 28.4156 16.2843 28.2094C15.178 27.6375 13.6593 28.1062 13.078 29.1937L12.8905 29.5312H9.12179H5.36242L5.07179 29.775C4.68742 30.0938 4.65929 30.6375 5.01554 30.9844L5.24054 31.2188H9.06555H12.8905L13.1155 31.6406C13.5187 32.3906 14.2593 32.8125 15.2062 32.8125C16.1812 32.8125 16.9593 32.3437 17.3999 31.4906L17.5405 31.2188H19.9218H22.3124V33.1875V35.1562H12.628H2.94367L2.53117 34.9406C2.29679 34.8281 2.01554 34.5937 1.90304 34.4156L1.68742 34.0969V29.8969V25.6875H11.9999H22.3124V27.6094ZM15.6468 29.8687C16.0124 30.1781 16.0312 30.5625 15.703 30.8906C15.3374 31.2656 14.803 31.1906 14.578 30.7406C14.3812 30.3656 14.3999 30.2062 14.7093 29.8969C15.0468 29.5594 15.2718 29.55 15.6468 29.8687Z" fill="url(#paint0_linear_2_629)"/>
<path d="M17.5781 7.20897C16.8562 7.39647 16.3125 7.8746 16.0781 8.52147C15.9562 8.86835 15.9375 9.6371 15.9375 13.584C15.9375 16.659 15.975 18.3652 16.0406 18.609C16.1062 18.8527 16.3031 19.1433 16.5937 19.4246C17.1562 19.9683 17.85 20.1652 18.5437 19.9777C19.1719 19.809 26.1844 15.4777 26.6906 14.9433C27.4406 14.1465 27.4031 12.8527 26.6062 12.1308C26.3812 11.9152 19.6406 7.71522 19.05 7.41522C18.6281 7.1996 17.9719 7.10585 17.5781 7.20897ZM22.0781 11.2777C25.0125 13.0965 25.4531 13.3965 25.4531 13.6027C25.4531 13.7996 24.9844 14.1183 21.7687 16.1058C18.1406 18.3558 18.0844 18.3933 17.8594 18.2433L17.625 18.0933V13.5933C17.625 9.1121 17.625 9.10272 17.8219 8.9621C18.0844 8.78397 17.925 8.69022 22.0781 11.2777Z" fill="url(#paint1_linear_2_629)"/>
<path d="M39.225 27.3191C38.85 27.4878 38.55 27.8816 38.4188 28.3691L38.3157 28.7534L37.5469 28.8191C35.5407 28.9691 33.5157 29.9441 32.0438 31.4722C30.5813 33.0003 29.775 34.8097 29.5688 37.0597C29.5219 37.6316 29.5407 37.8659 29.6625 38.2034C30.15 39.4691 31.7719 39.6003 32.5782 38.4378C32.9907 37.8472 34.1344 36.8066 34.8375 36.3941C35.8219 35.8128 36.5625 35.5597 38.025 35.3066C38.2969 35.2597 38.325 35.2878 38.3813 35.5503C38.475 36.0284 38.7938 36.4409 39.225 36.6472C39.6938 36.8816 40.0969 36.9003 40.575 36.7034C40.95 36.5441 44.4469 33.1409 44.6813 32.7003C44.85 32.3722 44.85 31.6503 44.6719 31.2753C44.5219 30.9659 40.9969 27.4972 40.6219 27.3003C40.35 27.1503 39.5907 27.1691 39.225 27.3191ZM42.75 31.6316L43.0688 31.9784L41.55 33.4972L40.0313 35.0159V34.5191C40.0313 34.1066 39.9844 33.9847 39.7875 33.7784C39.5438 33.5347 39.5344 33.5347 38.4094 33.5909C35.8875 33.7034 33.7407 34.6784 31.9969 36.4972L31.2375 37.2847L31.2844 36.9003C31.4813 35.1566 32.2782 33.6003 33.6094 32.3628C34.9032 31.1534 36.3188 30.5909 38.3344 30.4784C39.5438 30.4128 39.5907 30.4034 39.8063 30.1503C39.975 29.9628 40.0313 29.7847 40.0313 29.4659V29.0441L41.2313 30.1691C41.8875 30.7878 42.5719 31.4441 42.75 31.6316Z" fill="url(#paint2_linear_2_629)"/>
<path d="M28.0032 28.0875C27.7125 28.1718 27.3938 28.3875 27.0938 28.6687C26.325 29.4187 26.3438 29.2312 26.3438 36C26.3438 42.7593 26.325 42.5812 27.0938 43.3312C27.8719 44.0812 27.6938 44.0625 34.4063 44.0625C41.1469 44.0625 40.9594 44.0812 41.7282 43.3125C42.3844 42.6562 42.4875 42.2156 42.45 40.3031L42.4219 38.7937L42.1594 38.5687C41.7563 38.2218 41.1094 38.3156 40.8844 38.7562C40.8282 38.8593 40.7719 39.6093 40.7625 40.425C40.7344 41.8218 40.725 41.9156 40.5188 42.1125L40.3032 42.3281H34.3969H28.4813L28.2563 42.0656L28.0313 41.8031V36V30.1968L28.2563 29.9343L28.4813 29.6718L30.0375 29.6437L31.5844 29.6156L31.8375 29.3156C32.0344 29.0812 32.0719 28.9593 32.025 28.6968C31.9969 28.5187 31.8844 28.2843 31.7813 28.1812C31.6032 28.0031 31.4625 27.9843 30.0188 27.9656C28.8375 27.9468 28.3407 27.975 28.0032 28.0875Z" fill="url(#paint3_linear_2_629)"/>
</g>
<defs>
<linearGradient id="paint0_linear_2_629" x1="23.9816" y1="11.0185" x2="23.9816" y2="47.2307" gradientUnits="userSpaceOnUse">
<stop stop-color="#F53B00"/>
<stop offset="1" stop-color="#F59400"/>
</linearGradient>
<linearGradient id="paint1_linear_2_629" x1="21.5834" y1="10.1265" x2="21.5834" y2="19.8528" gradientUnits="userSpaceOnUse">
<stop stop-color="#F53B00"/>
<stop offset="1" stop-color="#F59400"/>
</linearGradient>
<linearGradient id="paint2_linear_2_629" x1="37.1758" y1="29.9632" x2="37.1758" y2="39.0549" gradientUnits="userSpaceOnUse">
<stop stop-color="#F53B00"/>
<stop offset="1" stop-color="#F59400"/>
</linearGradient>
<linearGradient id="paint3_linear_2_629" x1="34.4002" y1="31.6602" x2="34.4002" y2="43.8199" gradientUnits="userSpaceOnUse">
<stop stop-color="#F53B00"/>
<stop offset="1" stop-color="#F59400"/>
</linearGradient>
<clipPath id="clip0_2_629">
<rect width="48" height="48" fill="white"/>
</clipPath>
</defs>
</svg>
