<svg width="48" height="48" viewBox="0 0 48 48" fill="none" xmlns="http://www.w3.org/2000/svg">
<g clip-path="url(#clip0_2_603)">
<path d="M35.8595 0.0655594C35.2688 0.206184 6.45946 8.56868 6.14071 8.69993C5.09071 9.11243 4.05946 10.0312 3.52509 11.0531C3.00946 12.0468 2.87821 12.6187 2.92509 13.7718C2.96259 14.6906 3.02821 14.9624 3.75946 17.3906L4.54696 20.0156L4.59384 31.8281C4.64071 42.5156 4.66884 43.6874 4.80946 44.1562C5.37196 46.0031 6.76884 47.3906 8.53134 47.8593C8.96259 47.9718 10.1157 47.9999 15.3095 47.9999H21.5813L21.8532 47.7281C22.2095 47.3624 22.2282 46.8187 21.9001 46.4343L21.6751 46.1718L15.497 46.1249C9.34696 46.0781 9.32821 46.0781 8.79384 45.8624C7.85634 45.4874 7.20009 44.8312 6.82509 43.8937L6.60946 43.3593L6.58134 36.7218L6.55321 30.0937H24.8907H43.2282L43.2001 36.8249L43.172 43.5468L42.9188 44.0812C42.4126 45.1593 41.4751 45.8624 40.3032 46.0312C39.9751 46.0781 37.1251 46.1249 33.9751 46.1249H28.247L28.0032 46.3593C27.7501 46.6218 27.6563 46.9312 27.7313 47.2968C27.7501 47.4187 27.8813 47.6343 28.0032 47.7656L28.247 47.9999H34.547C41.447 47.9999 41.2313 48.0187 42.3938 47.4281C43.0407 47.0999 43.9407 46.2843 44.3532 45.6468C44.5126 45.3843 44.7657 44.8968 44.897 44.5499L45.1407 43.9218L45.1688 31.9499L45.1876 19.9781L44.9157 19.6687L44.6438 19.3593L28.7251 19.3124L12.797 19.2656L27.8438 14.9156C36.122 12.5249 43.0126 10.4999 43.172 10.4156C43.3313 10.3218 43.5001 10.1156 43.5751 9.90931C43.7063 9.58118 43.6782 9.46869 42.9376 6.87181C42.0188 3.66556 41.7938 3.01868 41.3907 2.38118C40.697 1.29369 39.5532 0.459309 38.3063 0.131184C37.8563 0.00930786 36.272 -0.0281906 35.8595 0.0655594ZM38.4188 2.29681C39.0845 2.65306 39.6376 3.21556 39.9095 3.80618C40.2376 4.53743 41.4657 8.83118 41.3532 8.89681C41.297 8.93431 40.4813 9.18744 39.5251 9.45931L37.8001 9.96556L34.4626 6.74994C32.6251 4.97806 31.1438 3.51556 31.1626 3.49681C31.172 3.47806 32.3438 3.13118 33.7595 2.71869C36.2063 1.99681 36.3657 1.96869 37.1251 1.99681C37.7907 2.01556 38.0063 2.07181 38.4188 2.29681ZM32.5032 7.63118C34.172 9.22493 35.5032 10.5656 35.4563 10.6031C35.4188 10.6406 34.3501 10.9687 33.0657 11.3343L30.7501 12.0093L27.422 8.80306C25.5845 7.04056 24.1126 5.56868 24.1407 5.54056C24.1688 5.51243 25.2376 5.19368 26.5126 4.81868L28.8282 4.15306L29.1563 4.43431C29.3345 4.58431 30.8345 6.02806 32.5032 7.63118ZM25.1532 9.39368C26.9907 11.1562 28.4813 12.6093 28.4626 12.6374C28.4345 12.6562 27.3563 12.9843 26.0532 13.3593L23.6907 14.0531L20.3813 10.8562C18.5532 9.10306 17.0626 7.64056 17.0626 7.60306C17.0626 7.56556 21.4876 6.23431 21.7595 6.19681C21.7876 6.18744 23.3157 7.63118 25.1532 9.39368ZM18.1407 11.4749C19.9688 13.2281 21.4501 14.6718 21.4407 14.6812C21.4313 14.6906 20.3438 15.0187 19.0313 15.3937L16.6313 16.0968L13.3595 12.9374C11.5688 11.2124 10.0782 9.74994 10.0595 9.69369C10.022 9.59056 14.4563 8.24994 14.7001 8.27806C14.7657 8.28743 16.322 9.73119 18.1407 11.4749ZM11.1095 13.5468L14.4376 16.7249L13.7063 16.9406C8.41884 18.4781 6.36571 19.0499 6.31884 19.0031C6.28134 18.9656 5.94384 17.8593 5.55946 16.5281C4.90321 14.2687 4.85634 14.0624 4.89384 13.3968C4.95009 12.4593 5.25946 11.8031 5.96259 11.1656C6.45946 10.7062 7.28446 10.2937 7.62196 10.3406C7.71571 10.3499 9.28134 11.7937 11.1095 13.5468ZM14.4938 21.6749C14.3626 21.8999 13.4813 23.4281 12.5251 25.0781L10.7907 28.0781L8.68134 28.1062L6.56259 28.1249V24.7031V21.2812H10.6407H14.7282L14.4938 21.6749ZM22.0126 21.3562C22.0032 21.4031 21.122 22.9406 20.0626 24.7781L18.1407 28.1156L15.6282 28.1249C14.0532 28.1249 13.1251 28.0874 13.1438 28.0312C13.1626 27.9843 14.0345 26.4468 15.0938 24.6187L17.0157 21.2812H19.5282C20.9157 21.2812 22.0313 21.3187 22.0126 21.3562ZM29.3438 21.3468C29.3438 21.3749 28.472 22.9124 27.4032 24.7687L25.4626 28.1249H22.9407C21.5626 28.1249 20.447 28.0968 20.4657 28.0499C20.6813 27.6656 24.1501 21.6468 24.2438 21.4874C24.3751 21.2812 24.3845 21.2812 26.8595 21.2812C28.2282 21.2812 29.3438 21.3093 29.3438 21.3468ZM36.6657 21.4406C36.6188 21.5343 35.7376 23.0624 34.7063 24.8437L32.8313 28.0781L30.2907 28.1062L27.7595 28.1249L28.7438 26.4187C29.297 25.4718 30.1782 23.9343 30.722 22.9874L31.7063 21.2812H34.2376C36.6095 21.2812 36.7501 21.2906 36.6657 21.4406ZM43.2188 24.7031V28.1249H39.1782C36.8907 28.1249 35.1563 28.0874 35.1751 28.0406C35.1938 27.9937 36.0657 26.4562 37.1251 24.6187L39.047 21.2812H41.1376H43.2188V24.7031Z" fill="url(#paint0_linear_2_603)"/>
<path d="M21.5531 32.522L21.2812 32.7939V37.9689V43.1439L21.5531 43.4158C21.8719 43.7345 22.3313 43.7814 22.8 43.5376C23.0813 43.3876 30.6844 39.0095 31.0312 38.7845C31.4719 38.5126 31.5375 37.7345 31.1531 37.322C31.0031 37.172 29.0063 35.972 26.7094 34.6501C22.0969 31.997 22.0875 31.997 21.5531 32.522ZM26.2781 36.7033C27.4406 37.3689 28.4063 37.9408 28.4063 37.9689C28.4063 37.997 27.3844 38.6064 26.1375 39.3283C24.8813 40.0408 23.7188 40.7158 23.5594 40.8095L23.25 40.9876V37.9783V34.9689L23.7 35.222C23.9438 35.372 25.1063 36.0283 26.2781 36.7033Z" fill="url(#paint1_linear_2_603)"/>
<path d="M24.2531 46.3594C23.625 46.9969 24.0281 48 24.9094 48C25.2469 48 25.3781 47.9437 25.6031 47.7281C26.2125 47.1094 25.7906 46.125 24.9094 46.125C24.5906 46.125 24.4406 46.1812 24.2531 46.3594Z" fill="url(#paint2_linear_2_603)"/>
</g>
<defs>
<linearGradient id="paint0_linear_2_603" x1="24.0516" y1="11.0393" x2="24.0516" y2="47.277" gradientUnits="userSpaceOnUse">
<stop stop-color="#F53B00"/>
<stop offset="1" stop-color="#F59400"/>
</linearGradient>
<linearGradient id="paint1_linear_2_603" x1="26.3433" y1="34.8781" x2="26.3433" y2="43.52" gradientUnits="userSpaceOnUse">
<stop stop-color="#F53B00"/>
<stop offset="1" stop-color="#F59400"/>
</linearGradient>
<linearGradient id="paint2_linear_2_603" x1="24.9192" y1="46.5558" x2="24.9192" y2="47.9718" gradientUnits="userSpaceOnUse">
<stop stop-color="#F53B00"/>
<stop offset="1" stop-color="#F59400"/>
</linearGradient>
<clipPath id="clip0_2_603">
<rect width="48" height="48" fill="white"/>
</clipPath>
</defs>
</svg>
