<svg width="48" height="48" viewBox="0 0 48 48" fill="none" xmlns="http://www.w3.org/2000/svg">
<path d="M8.95312 2.38125C7.65 2.79375 6.675 3.76875 6.28125 5.05312C6.09375 5.63437 6.09375 5.98125 6.09375 24C6.09375 41.7562 6.10313 42.375 6.27188 42.9281C6.62813 44.0625 7.3125 44.85 8.4375 45.4031L9.04688 45.7031H20.1563H31.2656L31.8844 45.3937C32.6063 45.0281 33.3375 44.3438 33.6844 43.6969C34.2469 42.675 34.2188 43.3781 34.2188 28.6969V15.2344L38.0625 11.3906C41.8219 7.63125 41.9062 7.5375 41.9062 7.17188C41.9062 6.81562 41.8313 6.73125 39.6375 4.52812C36.7594 1.64062 37.1344 1.725 35.2969 3.5625L33.9844 4.875L33.7125 4.35C33.3375 3.6375 32.6344 2.97187 31.8844 2.59687L31.2656 2.29688L20.2969 2.27812C11.6344 2.26875 9.25313 2.2875 8.95312 2.38125ZM30.4219 3.84375C31.4531 4.0125 32.3063 4.7625 32.5313 5.71875L32.6438 6.20625L32.1938 6.66562L31.7344 7.13437L31.6875 6.43125C31.6219 5.65312 31.4719 5.35312 30.9375 4.9875L30.6281 4.78125H20.1563H9.68438L9.375 4.9875C9.20625 5.10938 8.97188 5.325 8.86875 5.46562L8.67188 5.72812V21V36.2719L8.86875 36.5344C8.97188 36.675 9.20625 36.8906 9.375 37.0125L9.68438 37.2188L20.2125 37.2C30.6656 37.1719 30.7406 37.1719 31.0031 36.975C31.1438 36.8719 31.3594 36.6 31.4813 36.375L31.6875 35.9625V26.8594V17.7562L32.1563 17.2969L32.625 16.8375V29.4C32.625 43.3125 32.6625 42.5344 32.0156 43.2844C31.8281 43.5 31.4438 43.7906 31.1438 43.9406L30.6094 44.2031H20.25C11.7094 44.2031 9.81563 44.1844 9.44063 44.0719C8.85938 43.9031 8.18438 43.3031 7.9125 42.7031L7.6875 42.2344V24V5.76562L7.9125 5.29688C8.1375 4.8 8.74688 4.18125 9.16875 4.02187C9.30938 3.96562 9.59063 3.89062 9.79688 3.84375C10.35 3.73125 29.7375 3.73125 30.4219 3.84375ZM38.4938 5.69062L40.0312 7.17188L39.3469 7.85625L38.6719 8.53125L37.1531 7.0125L35.625 5.48438L36.2531 4.85625C36.6 4.5 36.9 4.21875 36.9188 4.21875C36.9375 4.21875 37.6406 4.88437 38.4938 5.69062ZM30.0938 7.575V8.76562L27.225 11.625C25.65 13.2 24.3281 14.5594 24.2719 14.6437C24.1781 14.8125 23.8125 18.6281 23.8125 19.4437C23.8125 19.8469 23.85 19.9781 24.0469 20.1562L24.2906 20.3812L26.4188 20.2125C29.4 19.9687 29.4844 19.95 29.8125 19.6406L30.0938 19.3687V27.5437V35.7188H20.1563H10.2188V21.0469V6.375H20.1563H30.0938V7.575ZM34.9969 7.10625L35.4375 7.54688L31.2375 11.7469L27.0469 15.9375L26.5781 15.4687L26.1094 15L30.2813 10.8281C32.5781 8.53125 34.4719 6.65625 34.5 6.65625C34.5281 6.65625 34.7531 6.85312 34.9969 7.10625ZM37.0594 9.2625L37.5 9.70312L33.3281 13.875L29.1562 18.0469L28.6875 17.5781L28.2188 17.1094L32.3625 12.9656C34.65 10.6781 36.5344 8.8125 36.5625 8.8125C36.5906 8.8125 36.8156 9.00937 37.0594 9.2625ZM26.8406 18.5719C26.5406 18.6094 26.1094 18.6375 25.875 18.6469L25.4438 18.6562L25.5094 17.9719C25.5469 17.6062 25.5844 17.175 25.5844 17.0156C25.5938 16.7437 25.6313 16.7719 26.4844 17.625L27.3844 18.5156L26.8406 18.5719Z" fill="url(#paint0_linear_2_610)"/>
<path d="M19.4532 38.25C18.8532 38.4844 18.3095 39.0094 18.0188 39.6375C17.8313 40.0594 17.8032 40.2469 17.8313 40.8562C17.8688 41.6719 18.0563 42.15 18.5345 42.6187C19.097 43.1906 19.5376 43.3594 20.4376 43.3594C21.1501 43.3594 21.2907 43.3312 21.7313 43.0875C22.2751 42.7875 22.697 42.3187 22.9407 41.7469C23.1657 41.2219 23.147 40.1906 22.9032 39.6375C22.3313 38.3719 20.7751 37.7437 19.4532 38.25ZM21.0845 39.8906C21.4501 40.2 21.6001 40.6594 21.4688 41.025C21.2251 41.6531 20.6251 41.9531 20.0532 41.7187C19.6313 41.5406 19.4063 41.1937 19.4063 40.7156C19.4063 40.3594 19.4532 40.2469 19.7251 39.975C20.1376 39.5625 20.6532 39.5344 21.0845 39.8906Z" fill="url(#paint1_linear_2_610)"/>
<path d="M13.5001 7.97839C12.1595 8.25027 11.222 9.67527 11.522 11.0065C11.7563 12.0565 12.5157 12.8159 13.5563 13.0315C13.8845 13.1065 15.3751 13.1253 18.0188 13.1065C21.8345 13.0784 22.0032 13.069 22.4157 12.8815C22.9313 12.6378 23.4282 12.1596 23.6813 11.6628C23.9251 11.1565 23.9345 9.85339 23.6907 9.36589C23.447 8.88777 22.9032 8.35339 22.4063 8.11902C22.0032 7.93152 21.8438 7.92214 17.9532 7.90339C15.7407 7.89402 13.7345 7.93152 13.5001 7.97839ZM21.9282 9.78777C22.2938 10.1346 22.3688 10.4909 22.172 10.9128C21.8813 11.5221 21.8251 11.5315 17.7282 11.5315C13.6876 11.5315 13.547 11.5128 13.2751 10.9784C13.0876 10.6221 13.0876 10.3784 13.2751 10.0221C13.547 9.47839 13.6407 9.46902 17.8313 9.49714L21.647 9.51589L21.9282 9.78777Z" fill="url(#paint2_linear_2_610)"/>
<path d="M12.0374 15.2062C11.5968 15.4125 11.503 16.0969 11.8593 16.4531L12.0843 16.6875H16.753C21.6749 16.6781 21.5905 16.6875 21.8249 16.2469C22.003 15.9187 21.9561 15.6562 21.6655 15.3656L21.3936 15.0937L16.8093 15.1031C13.8655 15.1031 12.1593 15.1406 12.0374 15.2062Z" fill="url(#paint3_linear_2_610)"/>
<path d="M11.8968 17.9906C11.55 18.3469 11.5312 18.7594 11.8593 19.0781L12.0843 19.3125H16.7812C21.3281 19.3125 21.4781 19.3031 21.6562 19.125C22.05 18.7312 21.9562 18.0844 21.4687 17.8406C21.2906 17.7469 20.1656 17.7187 16.7062 17.7187H12.1687L11.8968 17.9906Z" fill="url(#paint4_linear_2_610)"/>
<path d="M12.2156 20.4094C11.925 20.4656 11.625 20.8781 11.625 21.2062C11.625 21.3656 11.7188 21.5719 11.8594 21.7031L12.0844 21.9375H16.725C19.275 21.9375 21.4313 21.9094 21.5156 21.8812C21.75 21.7875 21.9563 21.3 21.8906 21C21.8625 20.8594 21.75 20.6625 21.6375 20.5687C21.4594 20.4 21.1875 20.3906 16.9313 20.3812C14.4563 20.3719 12.3281 20.3812 12.2156 20.4094Z" fill="url(#paint5_linear_2_610)"/>
<path d="M11.822 23.3062C11.5595 23.6344 11.5782 24.0281 11.8501 24.3469L12.0751 24.6094H14.7657H17.4563L17.6813 24.3469C17.972 24 17.972 23.5875 17.672 23.2969L17.447 23.0625H14.7282H12.0095L11.822 23.3062Z" fill="url(#paint6_linear_2_610)"/>
<path d="M19.5001 23.2505C19.247 23.5036 19.247 24.1223 19.4907 24.3661C19.5939 24.4692 19.8189 24.5817 19.9876 24.6098C20.1564 24.638 22.0782 24.6567 24.2532 24.638L28.2001 24.6098L28.4439 24.3848C28.7626 24.0848 28.7814 23.5598 28.472 23.2692C28.2564 23.063 28.2376 23.063 23.972 23.063C19.8095 23.063 19.6782 23.0723 19.5001 23.2505Z" fill="url(#paint7_linear_2_610)"/>
<path d="M11.8595 25.9215C11.5595 26.2121 11.5595 26.6246 11.8501 26.9715L12.0751 27.234L15.722 27.2621C17.7189 27.2715 19.4532 27.2621 19.5751 27.234C20.1564 27.0934 20.372 26.2965 19.9407 25.8934C19.7251 25.6871 19.697 25.6871 15.9001 25.6871H12.0845L11.8595 25.9215Z" fill="url(#paint8_linear_2_610)"/>
<path d="M21.8532 25.8473C21.7407 25.9411 21.6282 26.1661 21.6001 26.3536C21.5532 26.6255 21.5907 26.738 21.7782 26.963L22.0126 27.2348L24.8626 27.263C26.4188 27.2817 27.8438 27.263 28.0126 27.2348C28.6407 27.1223 28.8938 26.4473 28.4907 25.9317L28.3032 25.688H25.172C22.3407 25.688 22.0314 25.7067 21.8532 25.8473Z" fill="url(#paint9_linear_2_610)"/>
<path d="M11.8593 28.5469C11.5312 28.8656 11.55 29.2781 11.8968 29.6344L12.1687 29.9062H14.7656H17.3625L17.6437 29.625C17.8875 29.3719 17.925 29.2875 17.8781 28.9875C17.7656 28.3125 17.7468 28.3125 14.7468 28.3125H12.0843L11.8593 28.5469Z" fill="url(#paint10_linear_2_610)"/>
<path d="M19.5188 28.5277C19.2375 28.8277 19.2375 29.4371 19.5094 29.6809C19.6969 29.8496 19.9313 29.859 23.8031 29.8871C26.0531 29.8965 27.9844 29.8871 28.1063 29.859C28.6875 29.7184 28.8938 28.9777 28.4531 28.5465L28.2281 28.3121H23.9719H19.7156L19.5188 28.5277Z" fill="url(#paint11_linear_2_610)"/>
<path d="M11.9343 31.0781C11.5125 31.3781 11.5875 32.2125 12.0562 32.4281C12.2156 32.4937 13.4343 32.5312 15.975 32.5312C19.5656 32.5312 19.6687 32.5219 19.9125 32.3344C20.1093 32.1844 20.1562 32.0625 20.1562 31.7344C20.1562 31.4062 20.1093 31.2844 19.9125 31.1344C19.6687 30.9469 19.5656 30.9375 15.9 30.9375C12.7031 30.9375 12.1031 30.9562 11.9343 31.0781Z" fill="url(#paint12_linear_2_610)"/>
<path d="M21.975 31.05C21.7688 31.1437 21.5625 31.4906 21.5625 31.7344C21.5625 31.9875 21.7688 32.325 22.0031 32.4281C22.1531 32.4937 23.2313 32.5312 25.2281 32.5312H28.2281L28.4531 32.2969C28.6125 32.1469 28.6875 31.9688 28.6875 31.7344C28.6875 31.5 28.6125 31.3219 28.4531 31.1719L28.2281 30.9375L25.2 30.9469C23.3156 30.9469 22.0969 30.9844 21.975 31.05Z" fill="url(#paint13_linear_2_610)"/>
<defs>
<linearGradient id="paint0_linear_2_610" x1="23.9998" y1="12.2406" x2="23.9998" y2="45.0486" gradientUnits="userSpaceOnUse">
<stop stop-color="#F53B00"/>
<stop offset="1" stop-color="#F59400"/>
</linearGradient>
<linearGradient id="paint1_linear_2_610" x1="20.4602" y1="39.2889" x2="20.4602" y2="43.2798" gradientUnits="userSpaceOnUse">
<stop stop-color="#F53B00"/>
<stop offset="1" stop-color="#F59400"/>
</linearGradient>
<linearGradient id="paint2_linear_2_610" x1="17.6673" y1="9.09939" x2="17.6673" y2="13.0348" gradientUnits="userSpaceOnUse">
<stop stop-color="#F53B00"/>
<stop offset="1" stop-color="#F59400"/>
</linearGradient>
<linearGradient id="paint3_linear_2_610" x1="16.7851" y1="15.46" x2="16.7851" y2="16.6635" gradientUnits="userSpaceOnUse">
<stop stop-color="#F53B00"/>
<stop offset="1" stop-color="#F59400"/>
</linearGradient>
<linearGradient id="paint4_linear_2_610" x1="16.7628" y1="18.085" x2="16.7628" y2="19.2885" gradientUnits="userSpaceOnUse">
<stop stop-color="#F53B00"/>
<stop offset="1" stop-color="#F59400"/>
</linearGradient>
<linearGradient id="paint5_linear_2_610" x1="16.7639" y1="20.7361" x2="16.7639" y2="21.914" gradientUnits="userSpaceOnUse">
<stop stop-color="#F53B00"/>
<stop offset="1" stop-color="#F59400"/>
</linearGradient>
<linearGradient id="paint6_linear_2_610" x1="14.7667" y1="23.4179" x2="14.7667" y2="24.5861" gradientUnits="userSpaceOnUse">
<stop stop-color="#F53B00"/>
<stop offset="1" stop-color="#F59400"/>
</linearGradient>
<linearGradient id="paint7_linear_2_610" x1="24.0014" y1="23.4266" x2="24.0014" y2="24.6217" gradientUnits="userSpaceOnUse">
<stop stop-color="#F53B00"/>
<stop offset="1" stop-color="#F59400"/>
</linearGradient>
<linearGradient id="paint8_linear_2_610" x1="15.9006" y1="26.0498" x2="15.9006" y2="27.2418" gradientUnits="userSpaceOnUse">
<stop stop-color="#F53B00"/>
<stop offset="1" stop-color="#F59400"/>
</linearGradient>
<linearGradient id="paint9_linear_2_610" x1="25.1336" y1="26.0516" x2="25.1336" y2="27.2467" gradientUnits="userSpaceOnUse">
<stop stop-color="#F53B00"/>
<stop offset="1" stop-color="#F59400"/>
</linearGradient>
<linearGradient id="paint10_linear_2_610" x1="14.76" y1="28.6787" x2="14.76" y2="29.8822" gradientUnits="userSpaceOnUse">
<stop stop-color="#F53B00"/>
<stop offset="1" stop-color="#F59400"/>
</linearGradient>
<linearGradient id="paint11_linear_2_610" x1="23.9984" y1="28.6748" x2="23.9984" y2="29.8668" gradientUnits="userSpaceOnUse">
<stop stop-color="#F53B00"/>
<stop offset="1" stop-color="#F59400"/>
</linearGradient>
<linearGradient id="paint12_linear_2_610" x1="15.9067" y1="31.3037" x2="15.9067" y2="32.5072" gradientUnits="userSpaceOnUse">
<stop stop-color="#F53B00"/>
<stop offset="1" stop-color="#F59400"/>
</linearGradient>
<linearGradient id="paint13_linear_2_610" x1="25.125" y1="31.3037" x2="25.125" y2="32.5072" gradientUnits="userSpaceOnUse">
<stop stop-color="#F53B00"/>
<stop offset="1" stop-color="#F59400"/>
</linearGradient>
</defs>
</svg>
