<svg width="30" height="30" viewBox="0 0 30 30" fill="none" xmlns="http://www.w3.org/2000/svg">
<g clip-path="url(#clip0_2_262)">
<path d="M13.6523 0.059082C10.7578 0.340332 8.08594 1.40674 5.74219 3.21143C4.59961 4.09033 3.11719 5.74268 2.26172 7.09033C1.89258 7.67041 1.17188 9.14697 0.914062 9.8501C0.626953 10.6353 0.316406 11.8423 0.164062 12.7739C-0.0175781 13.9165 -0.0175781 16.0845 0.164062 17.2271C0.427734 18.8442 0.84375 20.145 1.55273 21.5923C2.32617 23.1685 3.12891 24.2876 4.41797 25.5825C5.71289 26.8716 6.83203 27.6743 8.4082 28.4478C9.85547 29.1567 11.1562 29.5728 12.7734 29.8364C13.916 30.0181 16.084 30.0181 17.2266 29.8364C18.8438 29.5728 20.1445 29.1567 21.5918 28.4478C23.168 27.6743 24.2871 26.8716 25.582 25.5825C26.8711 24.2876 27.6738 23.1685 28.4473 21.5923C28.9629 20.5435 29.2207 19.8579 29.502 18.8032C29.8711 17.397 29.959 16.6294 29.959 15.0005C29.959 13.3716 29.8711 12.604 29.502 11.1978C29.2207 10.1431 28.9629 9.45752 28.4473 8.40869C27.6738 6.83252 26.8711 5.71338 25.582 4.41846C24.2871 3.12939 23.168 2.32666 21.5918 1.55322C20.1504 0.844238 18.8145 0.422363 17.2559 0.17627C16.3945 0.0415039 14.4727 -0.0229492 13.6523 0.059082ZM16.3945 2.40869C19.2539 2.71924 21.8672 3.99072 23.9414 6.05908C26.373 8.49072 27.6562 11.5845 27.6562 15.0005C27.6562 18.4165 26.373 21.5103 23.9414 23.9419C21.5098 26.3735 18.416 27.6567 15 27.6567C11.584 27.6567 8.49023 26.3735 6.05859 23.9419C3.62695 21.5103 2.34375 18.4165 2.34375 15.0005C2.34375 11.5845 3.62695 8.49072 6.05859 6.05908C8.10352 4.01416 10.7461 2.7251 13.5352 2.40869C14.1797 2.33838 15.7383 2.33252 16.3945 2.40869Z" fill="url(#paint0_linear_2_262)"/>
<path d="M14.4962 7.0852C14.2149 7.21411 13.9864 7.49536 13.8868 7.82348C13.8399 7.9934 13.8282 9.08325 13.8399 11.72C13.8575 15.2883 13.8634 15.3879 13.9805 15.6165C14.0743 15.804 14.543 16.1907 16.4415 17.6262C17.7247 18.6047 18.8966 19.4719 19.043 19.5598C20.0216 20.1457 21.1759 19.0969 20.6837 18.0774C20.5665 17.8313 20.3262 17.6379 18.3634 16.1614L16.172 14.5207V11.2512C16.172 8.96606 16.1544 7.92895 16.1075 7.78833C15.9376 7.29028 15.5098 6.97387 15.0001 6.97387C14.8536 6.97387 14.6251 7.02661 14.4962 7.0852Z" fill="url(#paint1_linear_2_262)"/>
</g>
<defs>
<linearGradient id="paint0_linear_2_262" x1="14.9932" y1="6.90456" x2="14.9932" y2="29.5214" gradientUnits="userSpaceOnUse">
<stop stop-color="#F53B00"/>
<stop offset="1" stop-color="#F59400"/>
</linearGradient>
<linearGradient id="paint1_linear_2_262" x1="17.3183" y1="9.9046" x2="17.3183" y2="19.5364" gradientUnits="userSpaceOnUse">
<stop stop-color="#F53B00"/>
<stop offset="1" stop-color="#F59400"/>
</linearGradient>
<clipPath id="clip0_2_262">
<rect width="30" height="30" fill="white"/>
</clipPath>
</defs>
</svg>
