<svg width="30" height="30" viewBox="0 0 30 30" fill="none" xmlns="http://www.w3.org/2000/svg">
<g clip-path="url(#clip0_2_270)">
<path d="M13.8867 0.0346508C13.7754 0.0463696 13.4297 0.0873852 13.125 0.122541C8.49024 0.649885 4.20703 3.55614 1.85156 7.76903C0.996094 9.30418 0.375 11.2143 0.111328 13.1245C0.00585937 13.8569 0.00585937 16.1421 0.111328 16.8745C0.726563 21.3393 3.10547 25.1304 6.82617 27.5737C11.748 30.8081 18.2871 30.7964 23.2148 27.5503C30.6328 22.6577 32.2324 12.4858 26.6777 5.5952C24.2813 2.62449 20.9707 0.737776 17.1094 0.145979C16.5234 0.0580883 14.3438 -0.0180836 13.8867 0.0346508ZM17.0801 2.04442C20.7598 2.66551 23.8652 4.66942 25.9336 7.76903C26.9824 9.33348 27.668 11.1264 27.9902 13.0952C28.1309 13.9917 28.1309 16.0073 27.9902 16.9038C27.3574 20.8179 25.2129 24.0639 21.8848 26.1616C20.4609 27.0581 18.7383 27.6909 16.9043 27.9897C16.002 28.1304 13.9922 28.1304 13.0957 27.9839C9.24024 27.3569 6.08203 25.3179 3.97266 22.0893C2.98828 20.5835 2.32617 18.8257 2.00977 16.9038C1.86914 16.0073 1.86914 13.9917 2.00977 13.0952C2.48438 10.1831 3.71484 7.75145 5.73633 5.74168C7.97461 3.50926 10.7871 2.19676 13.9453 1.90965C14.5781 1.85106 16.3945 1.93309 17.0801 2.04442Z" fill="url(#paint0_linear_2_270)"/>
<path d="M14.6191 5.70654C14.1855 5.90576 14.0625 6.19287 14.0625 7.00146V7.60498L13.6699 7.72803C13.1484 7.88623 12.6152 8.2085 12.1289 8.65381C10.7051 9.97217 10.377 12.1519 11.3496 13.8276C11.4727 14.0386 11.7832 14.4194 12.041 14.6772C12.8555 15.4917 13.623 15.8315 14.8945 15.9312C15.5332 15.9839 15.6563 16.0132 16.0313 16.1948C16.5352 16.4468 16.875 16.7983 17.127 17.3315C17.2969 17.689 17.3145 17.7769 17.3145 18.2808C17.3145 18.7847 17.2969 18.8726 17.127 19.23C16.8691 19.7749 16.541 20.1147 16.0078 20.3784C15.5859 20.5835 15.5332 20.5952 15.0059 20.5952C14.4961 20.5952 14.4082 20.5776 14.0625 20.4136C13.2305 20.0151 12.7617 19.3472 12.6621 18.4038C12.6035 17.8882 12.5215 17.7183 12.2227 17.4956C12.1055 17.4019 11.9766 17.3726 11.7188 17.3726C11.3496 17.3726 11.1621 17.4663 10.9395 17.7651C10.5938 18.228 10.8691 19.6519 11.4902 20.6011C11.9648 21.3335 12.8672 22.0308 13.6641 22.271L14.0508 22.3882L14.0742 23.0854C14.0918 23.8354 14.1387 23.9585 14.4961 24.2222C14.7246 24.3921 15.2754 24.3921 15.5039 24.2222C15.8613 23.9585 15.9082 23.8354 15.9258 23.0972L15.9492 22.4116L16.4063 22.2476C18.1758 21.6206 19.3301 19.8569 19.2012 17.9819C19.125 16.9448 18.7266 16.0894 17.959 15.3218C17.1445 14.5073 16.377 14.1675 15.1055 14.0679C14.4668 14.0151 14.3438 13.9858 13.9688 13.8042C13.4648 13.5522 13.125 13.2007 12.873 12.6675C12.7031 12.3101 12.6855 12.2222 12.6855 11.7124C12.6855 11.1851 12.6973 11.1323 12.9023 10.7104C13.166 10.1772 13.5059 9.84912 14.0508 9.59131C14.4082 9.42139 14.4961 9.40381 15 9.40381C15.5039 9.40381 15.5918 9.42139 15.9492 9.59131C16.7637 9.97803 17.2383 10.6577 17.3379 11.5952C17.3965 12.1108 17.4785 12.2808 17.7773 12.5034C18.0059 12.6733 18.5566 12.6733 18.7852 12.5034C19.1895 12.2046 19.2832 11.8472 19.1602 11.0854C18.9082 9.52686 17.7891 8.19092 16.3359 7.72217L15.9492 7.59912L15.9258 6.90771C15.9082 6.16357 15.8613 6.04053 15.5156 5.78271C15.3164 5.63623 14.8535 5.59521 14.6191 5.70654Z" fill="url(#paint1_linear_2_270)"/>
</g>
<defs>
<linearGradient id="paint0_linear_2_270" x1="15.0134" y1="6.90485" x2="15.0134" y2="29.5406" gradientUnits="userSpaceOnUse">
<stop stop-color="#F53B00"/>
<stop offset="1" stop-color="#F59400"/>
</linearGradient>
<linearGradient id="paint1_linear_2_270" x1="14.9997" y1="9.94137" x2="14.9997" y2="24.0678" gradientUnits="userSpaceOnUse">
<stop stop-color="#F53B00"/>
<stop offset="1" stop-color="#F59400"/>
</linearGradient>
<clipPath id="clip0_2_270">
<rect width="30" height="30" fill="white"/>
</clipPath>
</defs>
</svg>
