<svg width="24" height="24" viewBox="0 0 24 24" fill="none" xmlns="http://www.w3.org/2000/svg">
<g clip-path="url(#clip0_2_267)">
<path d="M7.336 0.0277367C7.28444 0.0371113 7.12506 0.0699234 6.98444 0.0980492C5.97663 0.304298 4.9735 1.15274 4.54694 2.15586C4.10631 3.19649 4.20944 4.43398 4.81413 5.37617L4.9735 5.62461H3.47819C2.65319 5.62461 1.87038 5.64805 1.72975 5.67149C0.886 5.83086 0.206313 6.51055 0.0469377 7.3543C-0.0186873 7.6918 -0.0139998 9.26211 0.0516252 9.57149C0.178188 10.1574 0.590688 10.7105 1.10163 10.973L1.40631 11.1324V16.5746C1.40631 20.0809 1.42506 22.1059 1.45319 22.2699C1.61256 23.1137 2.29225 23.7934 3.136 23.9527C3.48288 24.0184 20.5173 24.0184 20.8641 23.9527C21.7079 23.7934 22.3876 23.1137 22.5469 22.2699C22.5751 22.1059 22.5938 20.0809 22.5938 16.5746V11.1324L22.8985 10.973C23.4094 10.7105 23.8219 10.1574 23.9485 9.57149C24.0141 9.26211 24.0188 7.6918 23.9532 7.3543C23.7938 6.51055 23.1141 5.83086 22.2704 5.67149C22.1297 5.64805 21.3469 5.62461 20.5219 5.62461H19.0266L19.186 5.37617C19.7907 4.43398 19.8938 3.19649 19.4532 2.15586C19.0266 1.15274 18.0938 0.360548 17.0157 0.0886726C16.636 -0.00507736 15.6657 0.00429916 15.2813 0.11211C14.7188 0.262112 14.3063 0.501173 13.8938 0.913673C13.2844 1.51836 12.9094 2.18398 12.3001 3.71211C12.1454 4.0918 12.0141 4.40586 12.0001 4.40586C11.986 4.40586 11.8548 4.0918 11.7001 3.71211C11.0907 2.18398 10.7157 1.51836 10.1063 0.913673C9.6985 0.505861 9.28131 0.262112 8.74225 0.116798C8.47038 0.0417976 7.52819 -0.0191383 7.336 0.0277367ZM8.56881 1.53711C9.27663 1.80898 9.661 2.40899 10.5985 4.71992L10.9641 5.62461H9.30944C8.37663 5.62461 7.54225 5.60586 7.40163 5.57774C6.52975 5.41367 5.85475 4.71523 5.70944 3.82461C5.53131 2.76055 6.29069 1.68242 7.36413 1.45274C7.68288 1.38711 8.28288 1.4293 8.56881 1.53711ZM16.5985 1.45274C17.4704 1.6168 18.1454 2.31524 18.2907 3.20586C18.4688 4.28867 17.7001 5.3668 16.5985 5.57774C16.4579 5.60586 15.6235 5.62461 14.6907 5.62461H13.036L13.4016 4.71992C14.1704 2.82617 14.536 2.15117 14.9954 1.79024C15.4173 1.45742 15.9844 1.33555 16.5985 1.45274ZM9.18756 8.43711V9.84336H5.57819C2.0485 9.84336 1.95944 9.84336 1.78131 9.74961C1.45319 9.58086 1.40631 9.42148 1.40631 8.43711C1.40631 7.46211 1.45319 7.29336 1.77194 7.1293C1.94069 7.03555 2.05319 7.03555 5.56881 7.03086H9.18756V8.43711ZM13.4063 14.8121V22.5934H12.0001H10.5938V14.8121V7.03086H12.0001H13.4063V14.8121ZM22.2188 7.12461C22.5469 7.29336 22.5938 7.45274 22.5938 8.43711C22.5938 9.42148 22.5469 9.58086 22.2188 9.74961C22.0407 9.84336 21.9516 9.84336 18.4219 9.84336H14.8126V8.43711V7.03086H18.4219C21.9516 7.03086 22.0407 7.03086 22.2188 7.12461ZM9.18756 16.9215V22.5934H6.28131C3.45944 22.5934 3.36569 22.5887 3.18756 22.4996C3.06569 22.4387 2.96725 22.3402 2.90631 22.2184C2.81256 22.0355 2.81256 21.9559 2.81256 16.6402V11.2496H6.00006H9.18756V16.9215ZM21.1876 16.6402C21.1876 21.9559 21.1876 22.0355 21.0938 22.2184C21.0329 22.3402 20.9344 22.4387 20.8126 22.4996C20.6344 22.5887 20.5407 22.5934 17.7188 22.5934H14.8126V16.9215V11.2496H18.0001H21.1876V16.6402Z" fill="url(#paint0_linear_2_267)"/>
</g>
<defs>
<linearGradient id="paint0_linear_2_267" x1="11.9999" y1="5.52382" x2="11.9999" y2="23.6405" gradientUnits="userSpaceOnUse">
<stop stop-color="#F53B00"/>
<stop offset="1" stop-color="#F59400"/>
</linearGradient>
<clipPath id="clip0_2_267">
<rect width="24" height="24" fill="white"/>
</clipPath>
</defs>
</svg>
