<svg width="35" height="35" viewBox="0 0 35 35" fill="none" xmlns="http://www.w3.org/2000/svg">
<path d="M15.7422 0.993881C15.6331 1.00751 15.2445 1.05523 14.89 1.09613C11.9246 1.43015 8.96606 2.67079 6.43695 4.62718C5.68708 5.2066 4.20779 6.68582 3.62835 7.43566C1.74004 9.87604 0.594783 12.555 0.117593 15.6566C-0.0391977 16.6791 -0.0391977 19.3103 0.117593 20.3329C0.881097 25.2886 3.47837 29.4263 7.52767 32.1394C9.77728 33.6459 12.0882 34.5116 14.9241 34.9138C15.8444 35.0433 18.3531 35.0228 19.3552 34.8797C21.8979 34.5048 24.3384 33.5709 26.4108 32.1871C30.6168 29.3718 33.2005 25.2 33.9231 20.0738C34.039 19.2763 34.039 16.7132 33.9231 15.9156C33.3027 11.5052 31.2576 7.7356 28.0127 4.99528C25.5791 2.93664 22.5455 1.5733 19.3892 1.1234C18.653 1.01433 16.2057 0.925713 15.7422 0.993881ZM19.1507 6.09959C21.6389 6.39271 23.7589 7.10164 25.0133 8.05598C26.4926 9.18755 27.3788 11.1712 27.8151 14.3819C27.9787 15.568 27.9787 18.1924 27.8151 19.324C27.4333 21.9961 26.6016 23.8298 25.3405 24.8046C24.3861 25.5408 22.7841 26.1952 21.0935 26.536C19.6142 26.836 18.6326 26.9382 16.8397 26.9723L15.1354 26.9996L13.8879 28.4584C12.8995 29.6104 12.5859 29.9308 12.395 29.9921C11.9383 30.1421 11.4611 29.9376 11.2293 29.4945C11.1339 29.3036 11.127 29.0855 11.1611 27.7767L11.202 26.277L10.5408 26.0248C8.92515 25.4045 7.95714 24.5728 7.26181 23.2095C5.95294 20.6464 5.65981 16.0179 6.57329 12.221C7.0982 10.026 7.91624 8.60132 9.12966 7.72878C10.3704 6.84942 12.5382 6.20184 14.9241 5.99734C15.9126 5.91554 18.0395 5.97007 19.1507 6.09959Z" fill="#7360F2"/>
<path d="M15.006 7.70244C12.7564 7.90694 10.8817 8.48636 9.90685 9.29074C7.58225 11.1926 6.96872 19.1613 8.87748 22.631C9.21833 23.2582 9.77051 23.7694 10.4999 24.1443C10.834 24.3147 11.2702 24.5056 11.4679 24.5738L11.8224 24.6897V26.8915C11.8224 28.7251 11.8361 29.1069 11.9179 29.175C11.9792 29.2228 12.061 29.2296 12.1156 29.1955C12.1701 29.1682 12.9677 28.2821 13.888 27.2255L15.565 25.31L17.0511 25.2691C19.771 25.1873 21.8775 24.7646 23.4795 23.9807C24.2566 23.5922 24.8633 22.9991 25.2383 22.2561C26.8062 19.1272 26.5199 12.7536 24.6997 10.1565C23.8749 8.98398 21.9661 8.18643 19.0825 7.80469C18.0941 7.67518 15.9194 7.62064 15.006 7.70244ZM18.1691 10.4359C19.7642 10.879 20.964 11.8402 21.7343 13.299C22.2252 14.226 22.5728 15.5894 22.5115 16.3256C22.4978 16.5505 22.4638 16.6051 22.3342 16.6187C22.0956 16.6528 21.9798 16.5164 21.9798 16.1892C21.9798 15.7802 21.8025 14.9009 21.6048 14.3146C20.9436 12.3582 19.2598 11.0222 17.1874 10.7972C16.7307 10.7495 16.5943 10.6813 16.5943 10.5041C16.5943 10.4428 16.6352 10.3473 16.6829 10.2996C16.792 10.1837 17.501 10.2519 18.1691 10.4359ZM13.3903 11.2199C13.9902 11.7243 15.0946 13.3944 15.1491 13.8784C15.1968 14.2942 15.0878 14.4987 14.5833 14.9486C14.038 15.4394 13.9902 15.603 14.2356 16.2438C14.8492 17.8798 16.1717 19.1886 17.6919 19.6657C18.0463 19.7816 18.0872 19.7816 18.3122 19.6726C18.4485 19.6044 18.7008 19.3726 18.878 19.1545C19.2461 18.6773 19.5461 18.5546 20.0028 18.6773C20.3914 18.7796 21.6594 19.6453 22.2047 20.177C22.6137 20.5792 22.6615 20.6542 22.6615 20.8928C22.6615 21.2813 22.3547 21.8403 21.8775 22.3243C21.2367 22.9787 20.7186 23.1491 20.0642 22.9378C19.4643 22.7401 18.1145 22.0789 17.2624 21.5608C14.3447 19.7885 12.8177 17.9548 11.2498 14.3624C10.7044 13.1149 10.7453 12.6923 11.4611 11.922C12.2178 11.104 12.9404 10.8449 13.3903 11.2199ZM18.3258 12.2764C19.6756 12.7332 20.7527 14.2124 20.7527 15.6234C20.7527 15.9779 20.6913 16.0529 20.4459 15.9915C20.3164 15.9575 20.2755 15.8893 20.2414 15.6916C20.0778 14.6146 19.7847 13.967 19.2189 13.4353C18.803 13.0399 18.3327 12.8082 17.7191 12.6786C17.2692 12.59 17.1397 12.515 17.1397 12.3446C17.1397 12.031 17.5146 12.0106 18.3258 12.2764ZM18.1281 13.7966C18.7212 14.0692 19.103 14.5532 19.253 15.2349C19.3348 15.6166 19.2598 15.7666 18.9871 15.7325C18.8507 15.7189 18.803 15.6575 18.7417 15.4053C18.5713 14.7441 18.2713 14.4101 17.685 14.2124C17.3851 14.1101 17.3442 14.0761 17.3442 13.9056C17.3442 13.5921 17.6101 13.5512 18.1281 13.7966Z" fill="#7360F2"/>
</svg>
