<svg width="238" height="47" viewBox="0 0 238 47" fill="none" xmlns="http://www.w3.org/2000/svg">
<path d="M21.5101 0.441406C16.9852 0.441406 12.6461 2.12663 9.44678 5.12645C6.24748 8.12628 4.4502 12.1954 4.4502 16.4376C4.45703 22.7187 8.38346 28.4142 14.4881 30.9997L17.7446 27.9456C18.816 26.941 20.6027 26.941 21.6741 27.9456L21.7748 28.04C22.3863 27.4841 23.1874 27.1916 23.9922 27.1916C24.8119 27.1916 25.631 27.4911 26.2469 28.0686L29.1087 30.752C34.9027 28.0494 38.5674 22.5054 38.5699 16.437C38.5699 7.603 30.9321 0.441406 21.5101 0.441406ZM33.2266 2.29212C37.7372 5.64274 40.3709 10.7403 40.3784 16.1363C40.3697 23.228 35.8454 29.6291 28.8838 32.4005L25.255 28.998C24.9076 28.6723 24.4484 28.5062 23.9916 28.5062C23.5348 28.5062 23.0755 28.6723 22.7281 28.998L22.2695 29.4281L19.3641 32.1529C18.8701 32.6161 18.8701 33.362 19.3641 33.8247C19.8582 34.2879 20.6537 34.2879 21.1478 33.8247L23.8343 31.3056L28.3126 35.5041L29.6662 36.7732C29.9707 37.0588 30.1292 37.4334 30.146 37.8128L30.4536 37.5238C38.1007 34.246 43.0097 27.0914 43.0209 19.2078C43.0209 12.122 39.1218 5.88981 33.2266 2.29212ZM21.1179 7.72653C21.2484 7.72653 21.3789 7.72712 21.5094 7.72887C21.6399 7.7277 21.7711 7.72653 21.9016 7.72653H21.9022C22.7623 7.72537 23.6218 7.75334 24.4757 7.82851C26.0915 7.97827 28.427 8.11987 29.0764 9.26665L31.387 12.9022L31.0378 11.9343L31.1316 11.6686C31.2161 11.4285 31.341 11.2234 31.5977 11.2496L33.5945 11.4536C33.8505 11.4798 34.0606 11.6406 34.0606 11.8726V12.6703C34.0606 12.9022 33.8393 13.0217 33.5945 13.0881L31.855 13.5613L31.8805 13.6009C32.2919 14.105 32.4889 14.3573 32.4889 15.2284V21.0911V21.4116V21.5433V22.1202C32.4889 22.5852 32.1216 22.9588 31.6661 22.9588H27.8801C27.4637 22.9588 27.1287 22.5852 27.1287 22.1202V21.71H21.712H21.5299H21.5094H21.4896H21.3075H15.8908V22.1202C15.8908 22.5835 15.5558 22.9588 15.1394 22.9588H11.3528C10.8973 22.9588 10.5306 22.5852 10.5306 22.1202V21.0911V15.229C10.5306 14.3573 10.7276 14.105 11.1384 13.6015L11.1639 13.5619L9.42566 13.0887C9.18018 13.0223 8.95956 12.9022 8.95956 12.6709V11.8731C8.95956 11.6412 9.16961 11.4804 9.42566 11.4542L11.4224 11.2502C11.6785 11.224 11.804 11.4285 11.8885 11.6692L11.983 11.9378L11.7381 12.7612L13.9425 9.26724C14.5925 8.12045 16.9274 7.97885 18.5438 7.82909C19.3977 7.75334 20.2566 7.72595 21.1179 7.72653ZM21.2428 8.63149C19.88 8.63557 18.5612 8.70725 17.4917 8.84826C16.3239 8.99627 15.2861 9.31269 14.7908 9.94086C13.8586 11.157 13.0159 12.5275 12.0085 14.2401C15.0624 14.4989 18.2057 14.5775 21.4914 14.5461H21.5101H21.5287C24.8144 14.5775 27.9578 14.4983 31.0117 14.2401C30.0043 12.5275 29.1616 11.157 28.2294 9.94086C27.7328 9.31211 26.695 8.99627 25.5285 8.84826C24.4589 8.70725 23.1396 8.63499 21.7773 8.63149H21.5107H21.2428ZM12.1862 16.7091C11.9059 16.7091 11.7443 16.9346 11.8233 17.2137L12.0774 18.1088C12.157 18.3885 12.446 18.614 12.7269 18.614H16.4265C16.7067 18.614 16.8696 18.3885 16.79 18.1088L16.5358 17.2137C16.4563 16.9346 16.1673 16.7091 15.8858 16.7091H12.1862ZM27.1337 16.7091C26.8534 16.7091 26.5638 16.9346 26.4843 17.2137L26.2301 18.1088C26.1505 18.3885 26.3134 18.614 26.593 18.614H30.2932C30.5735 18.614 30.8631 18.3885 30.9427 18.1088L31.1969 17.2137C31.2764 16.9346 31.1148 16.7091 30.8339 16.7091H27.1337ZM18.3536 17.5459C18.1075 17.5459 17.9087 17.7434 17.9087 17.9905V18.8337C17.9087 19.0796 18.1075 19.2771 18.3536 19.2771H21.5101H24.6671C24.9132 19.2771 25.1121 19.0796 25.1121 18.8337V17.9905C25.1121 17.744 24.9132 17.5459 24.6671 17.5459H21.5101H18.3536ZM13.7424 36.2435C13.2763 36.2663 12.7872 36.4854 12.4068 36.842C12.0644 37.1631 11.8394 37.5675 11.781 37.9672C11.7226 38.367 11.8363 38.7282 12.0961 38.9724C12.5398 39.3873 13.3198 39.3838 13.9978 38.9631C13.5491 39.5994 13.546 40.3313 13.9897 40.7468C14.4334 41.1617 15.2134 41.1582 15.8914 40.7374C15.4433 41.3738 15.4396 42.1051 15.8827 42.5211C16.3264 42.936 17.1057 42.9325 17.7838 42.5124C17.3357 43.1487 17.3326 43.88 17.7757 44.2961C18.3176 44.8036 19.3343 44.6737 20.0465 44.0059C20.7587 43.3375 20.8973 42.3848 20.356 41.8767C19.9123 41.4618 19.133 41.4653 18.4549 41.8854C18.903 41.2491 18.9061 40.5178 18.463 40.1017C18.0193 39.6868 17.24 39.6903 16.562 40.1104C17.0106 39.4741 17.0138 38.7422 16.57 38.3268C16.1263 37.9119 15.347 37.9154 14.669 38.3355C15.117 37.6992 15.1208 36.9679 14.677 36.5518C14.4794 36.3665 14.2078 36.2593 13.8983 36.2441C13.848 36.2412 13.7958 36.2412 13.7424 36.2435Z" fill="url(#paint0_linear_37_2)"/>
<path d="M9.66442 2.37109C3.84191 5.98044 0 12.1724 0 19.2075C0 27.0189 4.7362 33.7918 11.6624 37.1424C11.7849 36.9355 11.9384 36.7415 12.1198 36.5719C12.5145 36.2013 13.0303 35.9443 13.5523 35.8779C14.0743 35.8109 14.61 35.9484 14.9655 36.2817C15.3471 36.6395 15.4422 37.175 15.3421 37.7047C15.9058 37.6115 16.4763 37.6995 16.8579 38.0567C17.2389 38.4145 17.3333 38.95 17.2345 39.4785C17.7982 39.3853 18.3687 39.4738 18.7503 39.831C19.1312 40.1888 19.2263 40.7244 19.1269 41.2529C19.6905 41.1596 20.261 41.2482 20.642 41.6054C20.9975 41.9387 21.1435 42.441 21.0727 42.9305C21.0099 43.3629 20.7881 43.7906 20.4649 44.1397L21.1354 44.7684C21.6724 45.2719 22.535 45.2794 23.0614 44.7853C23.5884 44.2912 23.5803 43.4829 23.0434 42.9795L22.6636 42.6234L22.8693 42.4305L23.2497 42.7866C23.7866 43.2901 24.6492 43.2976 25.1756 42.8035C25.7026 42.3093 25.6939 41.5011 25.1576 40.9976L24.7779 40.6416L24.9836 40.4487L25.3633 40.8048C25.9002 41.3082 26.7628 41.3158 27.2892 40.8217C27.8162 40.3275 27.8081 39.5193 27.2712 39.0158L26.8915 38.6598L27.0966 38.4669L27.4763 38.823L27.4638 38.8352C28.0008 39.3387 28.8634 39.3462 29.3898 38.8521C29.9168 38.3579 29.9087 37.5497 29.3717 37.0462L28.0182 35.7771L23.8326 31.8525L21.4387 34.0971C20.788 34.7072 19.7216 34.7072 19.0703 34.0971C18.4196 33.487 18.4196 32.4871 19.0703 31.8764L21.4773 29.6195L20.683 28.8748C20.1436 28.369 19.2754 28.369 18.736 28.8748L14.7232 32.6374C7.59805 30.0659 2.64372 23.5948 2.63999 16.1343C2.63999 10.7867 5.22467 5.72696 9.66442 2.37109Z" fill="url(#paint1_linear_37_2)"/>
<path d="M67.6432 24L73.9552 7.2H69.1552L65.3632 18.72L61.5712 7.2H56.7712L63.0832 24H67.6432ZM80.046 19.344L77.238 12.48H72.918L78.342 24.288C77.79 25.536 76.95 26.112 75.942 26.112C75.414 26.112 74.886 26.04 74.382 25.92V29.28C75.054 29.448 75.774 29.592 76.494 29.592C78.462 29.592 80.454 28.656 81.774 25.2L86.598 12.48H82.398L80.046 19.344ZM100.306 24L96.3215 18.144L100.066 12.48H95.5055L92.9855 16.512H92.0735V7.2H87.9935V24H92.0735V19.632H92.9375L95.7695 24H100.306ZM109.127 12.48V19.872C108.767 20.328 108.071 20.88 107.159 20.88C106.151 20.88 105.407 20.304 105.407 19.08V12.48H101.327V19.632C101.327 22.224 102.767 24.36 105.935 24.36C107.471 24.36 108.647 23.712 109.607 22.68V24H113.207V12.48H109.127ZM119.25 14.04V12.48H115.65V29.28H119.73V23.064C120.426 23.784 121.554 24.36 123.162 24.36C127.026 24.36 128.73 21.216 128.73 18.24C128.73 15.264 127.026 12.12 123.162 12.12C121.098 12.12 119.826 13.08 119.25 14.04ZM124.53 18.24C124.53 19.584 123.786 21 122.058 21C120.93 21 120.09 20.304 119.73 19.56V16.92C120.09 16.176 120.93 15.48 122.058 15.48C123.786 15.48 124.53 16.896 124.53 18.24ZM130.65 16.536V19.896H139.77V16.536H130.65ZM153.147 20.712V17.496C153.147 13.392 150.795 12.12 147.123 12.12C145.419 12.12 143.595 12.576 142.635 12.888V16.32C143.763 15.864 145.155 15.432 146.667 15.432C148.299 15.432 149.067 16.056 149.067 16.872V17.28C148.299 17.112 147.435 17.016 146.571 17.016C144.339 17.016 141.579 17.904 141.579 20.808C141.579 23.04 143.379 24.36 145.587 24.36C147.219 24.36 148.491 23.832 149.595 22.968C150.123 23.784 151.059 24.24 152.331 24.24C153.099 24.24 153.843 24.096 154.395 23.88V21.36C154.251 21.408 154.083 21.432 153.939 21.432C153.531 21.432 153.147 21.264 153.147 20.712ZM145.779 20.472C145.779 19.56 146.643 19.224 147.603 19.224C148.155 19.224 148.707 19.32 149.067 19.44V21C148.443 21.456 147.843 21.6 147.171 21.6C146.307 21.6 145.779 21.072 145.779 20.472ZM163.549 12.48V19.872C163.189 20.328 162.493 20.88 161.581 20.88C160.573 20.88 159.829 20.304 159.829 19.08V12.48H155.749V19.632C155.749 22.224 157.189 24.36 160.357 24.36C161.893 24.36 163.069 23.712 164.029 22.68V24H167.629V12.48H163.549ZM170.984 9.24V12.48H169.16V15.84H170.984V20.4C170.984 23.448 173.072 24.36 175.304 24.36C176.48 24.36 177.512 24.192 178.424 23.88V20.712C177.8 20.928 177.248 21 176.576 21C175.544 21 175.064 20.496 175.064 19.584V15.84H178.184V12.48H175.064V8.28L170.984 9.24ZM179.621 18.24C179.621 22.32 182.645 24.36 186.101 24.36C189.557 24.36 192.581 22.32 192.581 18.24C192.581 14.16 189.557 12.12 186.101 12.12C182.645 12.12 179.621 14.16 179.621 18.24ZM188.381 18.24C188.381 19.536 187.781 20.76 186.101 20.76C184.421 20.76 183.821 19.536 183.821 18.24C183.821 16.944 184.421 15.72 186.101 15.72C187.781 15.72 188.381 16.944 188.381 18.24ZM198.383 7.68L194.423 9.192V13.152L197.303 12.072V20.28H194.423V24H204.167V20.28H201.623V7.68H198.383ZM210.396 21.984C210.396 20.352 209.268 19.632 207.948 19.632C206.652 19.632 205.5 20.352 205.5 21.984C205.5 23.64 206.652 24.36 207.948 24.36C209.268 24.36 210.396 23.64 210.396 21.984ZM216.07 14.04V12.48H212.47V24H216.55V17.448C217.27 16.344 218.974 15.84 220.582 16.2V12.24C218.326 12 216.862 12.888 216.07 14.04ZM229.853 12.48V19.872C229.493 20.328 228.797 20.88 227.885 20.88C226.877 20.88 226.133 20.304 226.133 19.08V12.48H222.053V19.632C222.053 22.224 223.493 24.36 226.661 24.36C228.197 24.36 229.373 23.712 230.333 22.68V24H233.933V12.48H229.853Z" fill="#002D4B"/>
<path d="M58.0572 33.2V43H61.8932C63.3632 43 65.5612 42.608 65.5752 40.34C65.5612 38.66 64.3292 38.044 63.4192 37.848C64.3152 37.652 65.1832 36.966 65.1832 35.664C65.1832 33.984 63.8392 33.2 61.8652 33.2H58.0572ZM64.7352 40.256C64.7352 42.062 63.0832 42.202 61.7392 42.202H58.8972V38.296H62.1452C63.1252 38.296 64.7352 38.52 64.7352 40.256ZM64.3432 35.776C64.3432 37.036 63.3212 37.512 62.2152 37.512H58.8972V33.998H61.8092C63.3492 33.998 64.3432 34.46 64.3432 35.776ZM70.3732 43C71.9552 43 72.9352 42.09 72.9352 40.858C72.9352 39.64 71.9552 38.73 70.3732 38.73H68.0912V36.28H67.2932V43H70.3732ZM68.0772 39.444H70.2612C71.3952 39.444 72.1232 39.962 72.1232 40.858C72.1232 41.754 71.4092 42.286 70.2612 42.286H68.0772V39.444ZM75.0632 43V36.28H74.2652V43H75.0632ZM78.0443 43V39.934H79.5563L82.2863 43H83.2243L80.2283 39.584L82.8743 36.28H81.9503L79.5983 39.192H78.0443V36.28H77.2463V43H78.0443ZM87.2104 42.118L84.3544 36.28H83.5144L86.8184 43.028L86.4824 43.812C86.0064 44.988 85.4464 45.534 84.6484 45.534C84.4524 45.534 84.2424 45.506 84.0324 45.45V46.15C84.2844 46.206 84.5084 46.234 84.7464 46.234C85.6844 46.234 86.4684 45.66 87.1544 44.106L90.5564 36.28H89.7164L87.2104 42.118ZM92.7142 43V37.022H97.0822V43H97.8662V36.28H91.9162V43H92.7142ZM108.925 41.782V38.912C108.925 37.12 107.861 36.126 106.083 36.126C104.991 36.126 104.109 36.364 103.591 36.546V37.33C104.151 37.092 104.977 36.854 105.999 36.854C107.385 36.854 108.141 37.638 108.141 38.814V39.262C107.497 39.08 106.741 38.968 106.027 38.968C104.599 38.968 103.059 39.5 103.059 41.166C103.059 42.538 104.221 43.154 105.397 43.154C106.517 43.154 107.483 42.748 108.155 42.02C108.225 42.776 108.743 43.056 109.317 43.056C109.569 43.056 109.821 43 110.045 42.916V42.272C109.877 42.328 109.709 42.37 109.527 42.37C109.205 42.37 108.925 42.23 108.925 41.782ZM103.871 41.124C103.871 40.004 105.033 39.64 106.139 39.64C106.811 39.64 107.553 39.766 108.141 39.92V41.152C107.539 42.006 106.559 42.468 105.551 42.468C104.697 42.468 103.871 42.048 103.871 41.124ZM114.985 43C116.329 43 117.127 42.328 117.127 41.18C117.127 40.256 116.539 39.738 115.881 39.57C116.497 39.36 116.903 38.8 116.903 38.058C116.903 36.924 116.063 36.28 114.845 36.28H111.289V43H114.985ZM112.073 39.948H114.915C115.643 39.948 116.329 40.2 116.329 41.138C116.329 42.006 115.699 42.3 114.859 42.3H112.073V39.948ZM112.073 36.98H114.747C115.503 36.98 116.091 37.316 116.091 38.128C116.091 38.898 115.587 39.248 114.775 39.248H112.073V36.98ZM121.356 43V37.022H123.96V36.28H117.954V37.022H120.558V43H121.356ZM124.513 39.64C124.513 41.908 126.235 43.154 128.041 43.154C129.875 43.154 131.583 41.908 131.583 39.64C131.583 37.372 129.875 36.126 128.041 36.126C126.235 36.126 124.513 37.372 124.513 39.64ZM130.785 39.64C130.785 41.39 129.539 42.398 128.055 42.398C126.557 42.398 125.311 41.39 125.311 39.64C125.311 37.89 126.557 36.882 128.055 36.882C129.539 36.882 130.785 37.89 130.785 39.64ZM140.593 43C141.937 43 142.735 42.328 142.735 41.18C142.735 40.256 142.147 39.738 141.489 39.57C142.105 39.36 142.511 38.8 142.511 38.058C142.511 36.924 141.671 36.28 140.453 36.28H136.897V43H140.593ZM137.681 39.948H140.523C141.251 39.948 141.937 40.2 141.937 41.138C141.937 42.006 141.307 42.3 140.467 42.3H137.681V39.948ZM137.681 36.98H140.355C141.111 36.98 141.699 37.316 141.699 38.128C141.699 38.898 141.195 39.248 140.383 39.248H137.681V36.98ZM157.585 33.2L153.343 39.486L149.087 33.2H148.387V43H149.213V34.796L153.077 40.508H153.595L157.459 34.796V43H158.285V33.2H157.585ZM160.142 39.64C160.142 41.908 161.864 43.154 163.67 43.154C165.504 43.154 167.212 41.908 167.212 39.64C167.212 37.372 165.504 36.126 163.67 36.126C161.864 36.126 160.142 37.372 160.142 39.64ZM166.414 39.64C166.414 41.39 165.168 42.398 163.684 42.398C162.186 42.398 160.94 41.39 160.94 39.64C160.94 37.89 162.186 36.882 163.684 36.882C165.168 36.882 166.414 37.89 166.414 39.64ZM168.468 39.682C168.468 42.062 170.26 43.154 171.996 43.154C172.808 43.154 173.55 43 174.194 42.678V41.88C173.606 42.23 172.85 42.426 172.108 42.426C170.666 42.426 169.266 41.558 169.266 39.668C169.266 37.68 170.75 36.854 172.192 36.854C172.878 36.854 173.606 37.05 174.124 37.442V36.672C173.55 36.28 172.808 36.126 172.094 36.126C170.344 36.126 168.468 37.204 168.468 39.682ZM176.701 43V39.934H178.213L180.943 43H181.881L178.885 39.584L181.531 36.28H180.607L178.255 39.192H176.701V36.28H175.903V43H176.701ZM186.763 43C188.107 43 188.905 42.328 188.905 41.18C188.905 40.256 188.317 39.738 187.659 39.57C188.275 39.36 188.681 38.8 188.681 38.058C188.681 36.924 187.841 36.28 186.623 36.28H183.067V43H186.763ZM183.851 39.948H186.693C187.421 39.948 188.107 40.2 188.107 41.138C188.107 42.006 187.477 42.3 186.637 42.3H183.851V39.948ZM183.851 36.98H186.525C187.281 36.98 187.869 37.316 187.869 38.128C187.869 38.898 187.365 39.248 186.553 39.248H183.851V36.98ZM190.234 39.64C190.234 42.062 191.97 43.154 193.93 43.154C194.784 43.154 195.638 42.986 196.24 42.664V41.88C195.666 42.216 194.854 42.426 194.042 42.426C192.544 42.426 191.13 41.712 191.032 40.004H196.618C196.968 38.24 196.1 36.126 193.552 36.126C191.928 36.126 190.234 37.33 190.234 39.64ZM195.918 39.304H191.032C191.102 37.708 192.292 36.854 193.608 36.854C195.498 36.854 196.03 38.352 195.918 39.304ZM202.62 43L207.184 37.554V43H207.968V36.28H207.282L202.732 41.726V36.28H201.934V43H202.62ZM223.21 33.2L218.968 39.486L214.712 33.2H214.012V43H214.838V34.796L218.702 40.508H219.22L223.084 34.796V43H223.91V33.2H223.21ZM225.945 38.1C225.945 40.592 227.625 43.154 231.041 43.154C234.457 43.154 236.137 40.592 236.137 38.1C236.137 35.608 234.457 33.046 231.041 33.046C227.625 33.046 225.945 35.608 225.945 38.1ZM235.297 38.1C235.297 40.228 233.911 42.37 231.041 42.37C228.171 42.37 226.785 40.228 226.785 38.1C226.785 35.972 228.171 33.83 231.041 33.83C233.911 33.83 235.297 35.972 235.297 38.1Z" fill="#231F20"/>
<defs>
<linearGradient id="paint0_linear_37_2" x1="23.7353" y1="34.4578" x2="23.7353" y2="1.10678" gradientUnits="userSpaceOnUse">
<stop stop-color="#F53B00"/>
<stop offset="1" stop-color="#F59400"/>
</linearGradient>
<linearGradient id="paint1_linear_37_2" x1="14.8896" y1="38.043" x2="14.8896" y2="2.36108" gradientUnits="userSpaceOnUse">
<stop stop-color="#003050"/>
<stop offset="1" stop-color="#004E86"/>
</linearGradient>
</defs>
</svg>
