<svg width="108" height="66" viewBox="0 0 108 66" fill="none" xmlns="http://www.w3.org/2000/svg">
<path fill-rule="evenodd" clip-rule="evenodd" d="M19.8357 49.337C20.6757 49.3917 21.0597 49.8233 21.0597 50.4616C21.0597 51.0239 20.7567 51.5406 19.9737 51.5832C19.1817 51.6257 17.3397 51.6318 16.5177 51.5832C16.4877 50.8446 16.4877 50.0969 16.5177 49.34C17.4477 49.3036 19.0587 49.2884 19.8357 49.337ZM19.9857 53.2944C21.1467 53.3309 21.7287 53.8263 21.7287 54.5953C21.7287 55.3947 21.2127 55.8202 20.0307 55.8779C18.9417 55.9296 17.7027 55.9296 16.5267 55.8779C16.4817 54.9995 16.4817 54.191 16.5267 53.2944C17.6547 53.261 18.9597 53.261 19.9857 53.2944ZM14.6067 57.5436C14.6727 54.3096 14.6727 51.0361 14.6067 47.7261C16.2507 47.7686 18.1347 47.7686 19.8627 47.7261C21.8487 47.7261 22.8807 48.951 22.8807 50.1789C22.8807 51.0877 22.4577 51.9175 21.8097 52.2944C22.9227 52.6287 23.5647 53.6075 23.5647 54.7685C23.5647 56.6439 22.2177 57.5405 20.5377 57.5405H14.6067V57.5436Z" fill="black"/>
<path fill-rule="evenodd" clip-rule="evenodd" d="M69.0361 55.8327C69.0151 56.3981 69.0151 56.9665 69.0361 57.547C66.3691 57.4984 63.7021 57.4984 61.0381 57.547C61.0921 54.2735 61.0921 51.003 61.0381 47.7295C61.6561 47.7508 62.2681 47.7508 62.8831 47.7295C62.8291 50.4316 62.8291 53.1337 62.8831 55.8358C64.9321 55.8722 66.9841 55.8722 69.0361 55.8327Z" fill="black"/>
<path fill-rule="evenodd" clip-rule="evenodd" d="M39.4143 47.7227C41.2293 49.9141 43.1073 52.1086 45.0453 54.3031C45.0933 52.1117 45.0903 49.9202 45.0453 47.7318C45.5883 47.7561 46.1403 47.7561 46.6983 47.7318C46.6503 50.9658 46.6503 54.2362 46.6983 57.5493C46.2273 57.528 45.7593 57.528 45.2883 57.5523C43.3983 55.2606 41.4273 52.9384 39.3753 50.595C39.3333 52.9141 39.3333 55.2332 39.3753 57.5523C38.8443 57.531 38.2953 57.531 37.7253 57.5523C37.7673 54.2818 37.7673 51.0083 37.7253 47.7379C38.2833 47.75 38.8473 47.747 39.4143 47.7227Z" fill="black"/>
<path fill-rule="evenodd" clip-rule="evenodd" d="M34.7009 49.4403C32.5979 49.3917 30.4709 49.3917 28.3169 49.4403C28.2689 50.1789 28.2689 50.9206 28.3169 51.6622C29.7569 51.7047 31.2119 51.7047 32.6849 51.6622C32.6639 52.2306 32.6639 52.802 32.6849 53.3734C31.2479 53.3278 29.7899 53.3278 28.3169 53.3734C28.2749 54.1941 28.2749 55.0117 28.3169 55.8323C30.4799 55.8749 32.6459 55.8749 34.8089 55.8323C34.7879 56.4038 34.7879 56.9752 34.8089 57.5436C32.0309 57.498 29.2499 57.498 26.4719 57.5436C26.5229 54.2731 26.5229 50.9996 26.4719 47.7261C29.2469 47.7717 31.9889 47.7717 34.6979 47.7261C34.6769 48.2975 34.6769 48.8689 34.7009 49.4403Z" fill="black"/>
<path fill-rule="evenodd" clip-rule="evenodd" d="M87.0597 57.5409C87.1047 56.1519 87.1047 54.7446 87.0597 53.3221C85.6377 51.4589 84.1527 49.5957 82.6047 47.7295C83.3637 47.7538 84.1197 47.7538 84.8787 47.7295C85.8537 48.997 86.8857 50.2644 87.9807 51.5319C89.0697 50.2644 90.1047 48.997 91.0827 47.7295C91.8417 47.7538 92.5977 47.7538 93.3537 47.7295C91.8147 49.5927 90.3297 51.4589 88.8987 53.3221C88.8537 54.7294 88.8537 56.1367 88.8987 57.5409C88.2867 57.5196 87.6747 57.5196 87.0597 57.5409Z" fill="black"/>
<path fill-rule="evenodd" clip-rule="evenodd" d="M79.8779 49.4403C77.7749 49.3917 75.6479 49.3917 73.4969 49.4403C73.4489 50.1789 73.4489 50.9206 73.4969 51.6622C74.9369 51.7047 76.3919 51.7047 77.8649 51.6622C77.8409 52.2306 77.8409 52.802 77.8649 53.3734C76.4279 53.3278 74.9699 53.3278 73.4969 53.3734C73.4549 54.1941 73.4549 55.0117 73.4969 55.8323C75.6599 55.8749 77.8259 55.8749 79.9889 55.8323C79.9679 56.4038 79.9679 56.9752 79.9889 57.5436C77.2109 57.498 74.4299 57.498 71.6519 57.5436C71.7029 54.2731 71.7029 50.9996 71.6519 47.7261C74.4269 47.7717 77.1689 47.7717 79.8779 47.7261C79.8569 48.2975 79.8569 48.8689 79.8779 49.4403Z" fill="black"/>
<path fill-rule="evenodd" clip-rule="evenodd" d="M53.0883 57.5436C53.1363 54.8749 53.1363 52.1728 53.0883 49.4403C51.9393 49.3887 50.7783 49.3887 49.6023 49.4403C49.6233 48.875 49.6233 48.3036 49.6023 47.7261C52.5423 47.7747 55.4823 47.7747 58.4223 47.7261C58.4013 48.2914 58.4013 48.8628 58.4223 49.4403C57.2613 49.3947 56.0973 49.3947 54.9333 49.4403C54.8883 52.1424 54.8883 54.8445 54.9333 57.5436C54.3273 57.5193 53.7123 57.5193 53.0883 57.5436Z" fill="black"/>
<path fill-rule="evenodd" clip-rule="evenodd" d="M5.3999 11.3008C5.3999 11.3008 6.1199 10.4437 6.3269 10.2066C6.5339 9.96955 6.6869 9.78415 6.8249 9.64433C6.9629 9.50451 7.1219 9.46804 7.2539 9.48324C7.3859 9.49539 8.7989 9.65041 9.1799 9.69296C9.5609 9.73247 11.2319 9.8115 11.8949 9.8115C12.5609 9.8115 14.3099 9.81454 14.6789 9.81454C15.0479 9.81454 17.8259 9.65649 18.4439 9.60786C19.0619 9.55922 22.6139 9.51363 23.4719 9.50148C24.3299 9.48932 28.3049 9.64129 29.2889 9.69904C30.2729 9.75375 32.9729 9.89661 33.8729 9.86925C34.7729 9.8419 39.0239 9.65953 39.8699 9.65953C40.7159 9.65953 43.3739 9.82974 43.9679 9.92396C44.5649 10.0243 45.2549 10.2461 45.2549 10.2461C45.2549 10.2461 46.3889 9.78415 46.9739 9.58658C47.5559 9.38901 49.0799 8.95437 50.2439 8.772C51.4049 8.58659 52.6529 8.44678 53.8859 8.44678C55.1189 8.44678 56.8769 8.58659 58.0829 8.85407C59.2859 9.1185 60.6719 9.54099 61.1999 9.75071C61.7249 9.96044 62.8469 10.4802 62.8469 10.4802C62.8469 10.4802 63.6659 10.2279 64.3559 10.0729C65.0489 9.91788 66.1139 9.75071 66.7229 9.70816C67.3349 9.66561 67.8179 9.60785 68.5649 9.62305C69.3119 9.63521 71.0999 9.82062 71.5979 9.87533C72.0959 9.93004 73.2749 10.0729 74.4899 10.0577C75.3089 10.0486 77.9399 9.93004 78.7019 9.88749C79.4639 9.84493 84.0329 9.63521 84.9749 9.62305C85.9169 9.60785 90.0449 9.86013 90.8759 9.90269C91.7069 9.94524 93.4499 10.0303 93.9899 10.0151C94.5299 9.99995 96.3449 9.91484 97.2599 9.81758C98.1719 9.72032 100.134 9.55619 100.467 9.53491C100.836 9.51363 100.992 9.51363 101.055 9.55619C101.118 9.59874 101.691 10.158 101.928 10.4255C102.165 10.6929 102.399 11.0212 102.489 11.1276C102.579 11.234 102.621 11.2765 102.594 11.3312C102.567 11.389 102.399 11.6838 102.339 11.7598C102.276 11.8388 102.222 11.8723 102.144 11.9148C102.069 11.9574 101.259 12.3707 100.995 12.4832C100.734 12.5957 100.041 12.8905 100.041 12.8905C100.041 12.8905 100.242 13.3677 100.317 13.5774C100.395 13.7871 100.503 14.2157 100.503 14.3494C100.503 14.4832 100.515 14.7841 100.482 14.8054C100.449 14.8266 100.038 15.0668 99.8789 15.1367C99.7199 15.2066 99.1169 15.4588 98.8529 15.5318C98.5889 15.6017 98.0999 15.7354 98.0999 15.7354C98.0999 15.7354 98.1329 16.1123 98.1209 16.3464C98.1059 16.5774 98.1059 16.8448 98.0519 17.085C98.0039 17.2916 97.8449 17.5682 97.7489 17.6959C97.6499 17.8236 97.4369 17.9421 97.2839 18.0181C97.1579 18.0819 96.6389 18.243 96.3839 18.2916C96.1289 18.3403 95.7749 18.398 95.6219 18.4102C95.4689 18.4223 95.3429 18.4223 95.3429 18.4223C95.3429 18.4223 95.3309 18.8783 95.3099 19.0819C95.2889 19.2855 95.2199 19.6442 95.1719 19.7962C95.1209 19.9512 94.9829 20.2247 94.8389 20.3494C94.6949 20.477 94.5899 20.553 94.3409 20.6077C94.0919 20.6655 93.7649 20.7414 93.4529 20.7779C93.1439 20.8114 92.5469 20.8813 92.3459 20.8965C92.1449 20.9086 91.9349 20.9177 91.9349 20.9177C91.9349 20.9177 91.7819 21.4861 91.7219 21.6624C91.6589 21.8357 91.4729 22.2156 91.3409 22.404C91.2089 22.5925 90.9809 22.86 90.8639 22.9663C90.7469 23.0727 90.5609 23.2065 90.4709 23.2338C90.3809 23.2612 89.9459 23.2824 89.7359 23.2824C89.5289 23.2824 88.8989 23.2824 88.5869 23.2612C88.2749 23.2399 87.9359 23.2065 87.7229 23.1852C87.5399 23.1669 87.3959 23.1305 87.3959 23.1305C87.3959 23.1305 87.3269 23.5651 87.3059 23.6776C87.2849 23.79 87.2099 24.0636 87.1259 24.2672C87.0419 24.4709 86.9399 24.6259 86.8469 24.7171C86.7629 24.8022 86.6789 24.8994 86.4179 24.9542C86.1539 25.0119 85.9049 25.0241 85.7459 25.0301C85.5869 25.0362 84.5759 25.0636 84.3059 25.0636C84.0359 25.0636 83.5169 25.0575 83.3279 25.0514C83.1419 25.0453 82.8509 25.0514 82.8509 25.0514C82.8509 25.0514 82.7759 25.3736 82.7189 25.556C82.6649 25.7383 82.5449 26.0392 82.4789 26.173C82.4099 26.3067 82.3169 26.4769 82.2029 26.5864C82.0769 26.7049 82.0289 26.7839 81.8009 26.8113C81.5729 26.8386 81.2879 26.8599 81.0119 26.8538C80.7329 26.8477 80.1239 26.8113 79.8419 26.7687C79.5569 26.7262 78.9749 26.6137 78.8099 26.5651C78.6419 26.5164 78.4709 26.4405 78.4709 26.4405C78.4709 26.4405 78.3689 26.7626 78.2849 26.9085C78.2009 27.0575 78.0239 27.3462 77.9039 27.4404C77.7599 27.559 77.6009 27.7626 77.3279 27.7991C77.0579 27.8356 76.7879 27.7869 76.5599 27.7505C76.3319 27.717 75.8339 27.6046 75.6179 27.5468C75.4019 27.4921 74.8619 27.328 74.7389 27.2946C74.6129 27.2611 74.4599 27.1942 74.4599 27.1942C74.4599 27.1942 74.3129 27.4921 74.2109 27.6228C74.1149 27.7505 73.9409 27.9541 73.8089 28.0575C73.6769 28.1638 73.4399 28.3189 73.3319 28.331C73.2209 28.3462 73.0409 28.331 72.8039 28.2976C72.5699 28.2611 72.2849 28.176 72.0449 28.1C71.8019 28.024 71.6009 27.9298 71.6009 27.9298C71.6009 27.9298 71.3369 28.7018 71.2679 28.8781C71.1989 29.0544 70.8599 29.7687 70.7339 30.0088C70.6289 30.2124 70.0679 31.1364 69.8969 31.3887C69.6899 31.6987 68.8589 32.7565 68.6579 32.9601C68.4569 33.1638 68.1719 33.4738 67.9919 33.6622C67.8119 33.8507 67.0499 34.5376 66.6419 34.8689C66.2309 35.1972 65.4929 35.7443 64.9169 36.1029C64.3409 36.4616 63.2969 37.0269 62.8379 37.2397C62.3819 37.4494 61.8539 37.6683 61.8539 37.6683C61.8539 37.6683 61.6439 38.0695 61.5359 38.3218C61.4249 38.574 61.2239 38.9601 61.1729 39.0269C61.1249 39.0968 61.0349 39.1181 60.9329 39.0847C60.8279 39.0512 60.3299 38.8598 60.1439 38.7898C59.9579 38.7199 59.5409 38.5436 59.5409 38.5436C59.5409 38.5436 59.2649 38.957 59.1659 39.112C59.0699 39.267 58.7999 39.6804 58.7519 39.729C58.7039 39.7777 58.5989 39.7594 58.5389 39.7382C58.4759 39.7169 57.9359 39.416 57.8249 39.3521C57.7139 39.2914 57.2489 39.0148 57.2489 39.0148C57.2489 39.0148 56.9849 39.3369 56.8469 39.5284C56.7359 39.6804 56.3549 40.1242 56.3189 40.1606C56.2829 40.1971 56.2289 40.188 56.1479 40.1546C56.0639 40.1181 55.9049 39.9844 55.7249 39.8506C55.5449 39.7169 55.2389 39.4707 55.1429 39.4099C55.0469 39.3461 54.9569 39.261 54.9569 39.261C54.9569 39.261 54.6119 39.6044 54.4859 39.723C54.3599 39.8415 54.0569 40.1424 54.0149 40.185C53.9729 40.2245 53.8979 40.2974 53.8979 40.2974C53.8979 40.2974 53.8349 40.3461 53.7509 40.3035C53.6699 40.2609 53.3159 39.9236 53.1629 39.7777C53.0369 39.6561 52.6769 39.2944 52.6769 39.2944C52.6769 39.2944 52.2419 39.6166 52.0949 39.723C51.9479 39.8263 51.5609 40.1363 51.4919 40.1698C51.4229 40.2062 51.3239 40.191 51.2699 40.1151C51.2159 40.036 50.7989 39.5528 50.7239 39.4555C50.6489 39.3582 50.3849 39.0421 50.3849 39.0421C50.3849 39.0421 49.8719 39.3217 49.6649 39.4281C49.4579 39.5345 49.1459 39.7412 49.0889 39.7655C49.0319 39.7868 48.9089 39.7868 48.8669 39.7169C48.8249 39.647 48.5579 39.2549 48.4499 39.0999C48.3329 38.9236 48.0899 38.5467 48.0899 38.5467C48.0899 38.5467 47.6189 38.723 47.4539 38.7929C47.2889 38.8628 46.7909 39.0604 46.7009 39.0786C46.6109 39.0999 46.4789 39.0756 46.4429 39.0087C46.3949 38.9175 46.0559 38.2579 45.9869 38.0968C45.9179 37.9327 45.8069 37.6956 45.8069 37.6956C45.8069 37.6956 45.2489 37.4707 44.8859 37.3035C44.4899 37.1212 43.6469 36.7017 43.2929 36.5042C42.9389 36.3096 42.3509 35.951 41.9969 35.7048C41.6429 35.4586 40.8329 34.8568 40.5149 34.5771C40.1969 34.2975 39.1169 33.2094 38.8589 32.9145C38.6039 32.6197 38.1929 32.1212 37.8479 31.644C37.5029 31.1668 37.2509 30.7261 37.0109 30.2611C36.7679 29.7991 36.5819 29.4131 36.3599 28.8568C36.1379 28.3037 35.9519 27.79 35.8979 27.6015C35.8409 27.4131 35.8289 27.3341 35.8289 27.3341C35.8289 27.3341 35.1989 27.5438 34.7549 27.6502C34.3109 27.7535 33.8129 27.9024 33.3629 27.8751C32.9129 27.8477 32.8319 27.7748 32.7179 27.6836C32.6069 27.5924 32.4689 27.4313 32.3159 27.2125C32.1629 26.9967 32.0189 26.7079 32.0189 26.7079C32.0189 26.7079 31.3259 26.8842 31.0559 26.945C30.7859 27.0088 30.1499 27.1365 29.7689 27.1821C29.3879 27.2307 28.9439 27.2794 28.7219 27.252C28.4999 27.2216 28.3439 27.1365 28.1459 26.9632C27.9389 26.7809 27.8699 26.6684 27.7649 26.5225C27.6839 26.407 27.4829 26.0089 27.4379 25.9116C27.3989 25.8143 27.3689 25.6867 27.3689 25.6867C27.3689 25.6867 26.5739 25.6988 26.3639 25.6988C26.1569 25.6988 25.0619 25.6928 24.8399 25.6867C24.6179 25.6806 24.0239 25.638 23.7809 25.5894C23.5409 25.5408 23.3879 25.4982 23.1569 25.1882C22.9289 24.8812 22.8659 24.7323 22.7759 24.4891C22.6859 24.2429 22.6139 23.9694 22.6139 23.9694C22.6139 23.9694 21.9149 23.9633 21.5399 23.9207C21.1649 23.8782 20.3909 23.787 19.9679 23.7171C19.5449 23.6472 18.9029 23.5347 18.7289 23.4709C18.5549 23.4101 18.4589 23.2612 18.3059 23.091C18.1529 22.9207 17.9999 22.6989 17.8619 22.4891C17.7239 22.2794 17.4389 21.8509 17.4119 21.787C17.3849 21.7232 17.3429 21.6533 17.3429 21.6533C17.3429 21.6533 16.6229 21.5834 16.3049 21.5408C15.9839 21.5013 15.5219 21.4223 15.3059 21.3797C15.0899 21.3372 14.5319 21.2308 14.4059 21.17C14.2829 21.1062 14.1779 21.0576 14.0669 20.8326C13.9559 20.6077 13.8809 20.1609 13.7909 19.7779C13.6949 19.3798 13.6319 19.0576 13.6319 19.0576C13.6319 19.0576 13.0499 18.9026 12.5849 18.7779C12.1229 18.6503 11.9909 18.6077 11.6699 18.5135C11.3519 18.4132 11.0459 18.2947 10.8689 18.1761C10.6889 18.0576 10.6949 17.8327 10.6739 17.7081C10.6529 17.5804 10.6049 17.0485 10.5899 16.8935C10.5749 16.7385 10.5809 16.4041 10.5809 16.4041C10.5809 16.4041 9.4259 15.8631 9.1259 15.7324C8.8289 15.5987 8.1209 15.2552 7.9769 15.1853C7.8329 15.1154 7.8539 14.9604 7.8749 14.8418C7.8959 14.7233 7.9919 14.2461 8.0429 14.0121C8.0909 13.7811 8.1659 13.4011 8.1809 13.3525C8.1929 13.3039 8.2019 13.2552 8.2019 13.2552C8.2019 13.2552 7.0859 12.6868 6.8099 12.5379C6.5339 12.389 5.7509 11.9908 5.6459 11.927C5.5409 11.8662 5.5019 11.7385 5.4509 11.5622C5.4209 11.3981 5.3999 11.3008 5.3999 11.3008Z" fill="black"/>
<path fill-rule="evenodd" clip-rule="evenodd" d="M42.1949 18.3648C42.3059 17.07 43.9139 15.6202 43.6799 14.301C43.4969 13.2585 42.2249 12.374 40.9439 12.1703C40.2089 12.0548 37.7909 11.8725 37.2629 11.8542C36.6119 11.833 34.8599 11.7995 34.3139 11.7904C33.7679 11.7843 32.3189 11.7752 31.8899 11.7631C31.4609 11.7509 30.9269 11.7418 30.2399 11.6232C29.5469 11.5017 29.0549 11.3558 28.3709 11.146C27.6869 10.9363 27.1409 10.7661 26.5979 10.6476C26.0549 10.529 25.3709 10.4166 24.8999 10.374C24.4289 10.3315 23.5019 10.2616 22.8029 10.2494C22.1039 10.2372 20.3789 10.2494 19.8239 10.2555C19.2719 10.2616 17.5529 10.3254 17.1029 10.3254C16.6529 10.3254 16.1669 10.3193 15.9539 10.3315C15.7379 10.3467 15.7859 10.45 15.6899 10.4652C15.5909 10.4804 15.0659 10.4652 14.7689 10.4652C14.4719 10.4652 14.2499 10.453 14.1449 10.4439C14.0399 10.4378 13.8899 10.4378 13.8899 10.4378C13.8899 10.4378 13.8689 10.5351 13.9739 10.5625C14.0759 10.5898 14.3399 10.6111 14.4299 10.6202C14.5199 10.6263 15.2249 10.6749 15.4739 10.6901C15.7259 10.7023 16.1519 10.7023 16.4249 10.7266C16.6949 10.7479 17.1779 10.7479 17.4989 10.754C17.8169 10.76 19.1039 10.754 19.5749 10.7661C20.0459 10.7813 20.9339 10.7813 21.3689 10.7935C21.8039 10.8087 22.8389 10.8482 23.6489 10.9485C24.4589 11.0457 25.1159 11.143 25.9319 11.3406C26.7119 11.529 27.6359 11.8238 28.0859 11.9637C28.5359 12.1035 29.1599 12.2737 29.4839 12.3436C29.8109 12.4135 30.1019 12.4348 30.1829 12.5077C30.2669 12.5746 30.2669 12.6536 30.2189 12.76C30.1709 12.8664 30.1289 12.8998 30.0929 12.9971C30.0569 13.0943 30.0239 13.1734 30.0239 13.1734H29.7329C29.7329 13.1734 29.7869 13.1187 29.7959 13.0548C29.8019 12.991 29.6309 12.8846 29.4479 12.8512C29.2679 12.8147 28.4459 12.7387 28.2299 12.7114C28.0139 12.684 27.1979 12.605 26.7539 12.6111C26.3099 12.6202 24.5789 12.5989 24.1349 12.6111C23.6909 12.6263 22.0739 12.5898 21.6629 12.605C21.2549 12.6202 19.8299 12.605 19.4399 12.5989C19.0529 12.5928 18.1499 12.5928 17.7929 12.5928C17.4329 12.5928 16.2149 12.5928 15.7859 12.5868C15.3569 12.5807 13.8869 12.5442 13.6049 12.5533C13.3199 12.5594 12.5189 12.532 12.1169 12.526C11.7149 12.5199 10.3379 12.4773 9.96291 12.4773C9.59091 12.4773 9.11991 12.45 8.97291 12.4074C8.82891 12.3649 8.03991 11.9515 7.72191 11.7904C7.40091 11.6263 6.80091 11.3132 6.63291 11.2281C6.46791 11.143 6.30891 11.0305 6.25791 11.0093C6.20991 10.988 5.98791 11.2068 5.92791 11.2889C5.86491 11.374 5.75391 11.2889 5.75391 11.2889C5.75391 11.2889 6.51591 10.4318 6.66891 10.2524C6.82191 10.0701 7.00791 9.82388 7.09191 9.79652C7.17591 9.76917 7.50891 9.76916 7.70991 9.79044C7.91091 9.81172 9.19191 9.92418 9.44091 9.94545C9.68991 9.96673 10.7759 10.0002 11.0669 10.0154C11.3579 10.0306 12.7349 10.0366 13.1939 10.0488C13.6499 10.061 15.0839 10.0974 15.5129 10.0762C15.9419 10.0549 17.1329 9.94241 17.4989 9.92114C17.8679 9.89986 19.0229 9.81476 19.5629 9.8026C20.1029 9.7874 21.2099 9.79652 21.5639 9.77524C21.9179 9.75397 23.3159 9.73877 23.8019 9.73877C24.2849 9.73877 25.6499 9.79652 26.1149 9.80868C26.5799 9.82083 28.5659 9.92722 29.0849 9.95457C29.6039 9.98193 32.1809 10.0731 32.7479 10.0883C33.3149 10.1005 34.1609 10.1309 34.6109 10.1005C35.0609 10.0731 37.2209 9.97585 37.8809 9.95457C38.5379 9.9333 40.2629 9.90594 40.9619 9.92722C41.6609 9.94849 43.3439 10.1187 43.9109 10.1856C44.4779 10.2555 45.0389 10.4014 45.1979 10.4105C45.3569 10.4166 45.6149 10.4318 45.7019 10.5169C45.7919 10.602 45.8759 10.7904 46.0499 10.8968C46.2209 11.0032 46.4639 11.0427 46.5479 11.1552C46.6319 11.2676 46.6379 11.4986 46.6859 11.5989C46.7339 11.6962 46.9349 12.0184 46.9619 12.2372C46.9889 12.4561 46.9619 12.833 46.8239 13.0731C46.6829 13.3102 46.4549 13.5989 46.1999 13.8664C45.9449 14.1338 45.5549 14.4226 45.2159 14.7174C44.8769 15.0123 44.3009 15.4682 44.0039 15.8815C43.7039 16.2949 43.5209 16.5776 43.4549 16.991C43.3949 17.4043 43.4279 17.6505 43.4069 17.7204C43.3859 17.7903 43.3229 17.9666 43.2269 18.07C43.1309 18.1763 42.7079 18.6748 42.5549 18.8785C42.4019 19.0821 42.1469 19.462 42.0839 19.5593C42.0209 19.6566 41.9669 19.763 41.9669 19.763L41.8709 19.5958C41.8709 19.5958 42.0839 19.3374 42.1049 19.2736C42.1919 19.1703 42.1529 18.8693 42.1949 18.3648Z" fill="white"/>
<path fill-rule="evenodd" clip-rule="evenodd" d="M8.58569 13.504L8.63369 13.2457C8.63369 13.2457 9.33869 13.2396 9.55469 13.2517C9.77069 13.2639 11.0577 13.3064 11.5077 13.3064C11.9577 13.3064 13.3557 13.349 13.6947 13.3338C14.0337 13.3186 15.9237 13.3612 16.3347 13.3612C16.7427 13.3612 18.7227 13.3672 19.1307 13.3764C19.5387 13.3824 21.8037 13.3976 22.1577 13.3976C22.5117 13.3976 24.3747 13.3976 24.8097 13.4037C25.2447 13.4098 27.1137 13.3916 27.5367 13.3916C27.9597 13.3916 29.0397 13.4128 29.2737 13.4037C29.5077 13.3976 29.6967 13.3764 29.7447 13.3612C29.7927 13.349 29.9457 13.2852 30.0357 13.3277C30.1257 13.3703 30.1677 13.4767 30.2097 13.5314C30.2517 13.5891 30.3357 13.6529 30.3837 13.6864C30.4317 13.7198 30.5307 13.7715 30.5907 13.8566C30.6507 13.9417 30.6507 13.9417 30.7497 14.0177C30.8457 14.0967 30.8667 14.1301 30.8337 14.1727C30.8007 14.2153 30.6537 14.4037 30.5907 14.501C30.5277 14.5982 30.5067 14.7046 30.4737 14.732C30.4377 14.7624 30.2307 14.7806 30.2307 14.7806C30.2307 14.7806 30.3567 14.6894 30.3357 14.6043C30.3147 14.5222 30.1677 14.3308 29.8737 14.3095C29.5737 14.2882 28.8327 14.3581 28.5027 14.3915C28.1697 14.428 25.9677 14.6225 25.5807 14.659C25.1937 14.6925 22.1397 14.9113 21.6207 14.9538C21.1017 14.9964 18.6867 15.1423 18.2217 15.1788C17.7597 15.2122 15.9507 15.3064 15.3897 15.3399C14.8287 15.3763 13.5327 15.431 13.0407 15.4523C12.5517 15.4736 11.5737 15.4949 11.3937 15.4797C11.2137 15.4675 10.9707 15.3611 10.8477 15.3034C10.7217 15.2487 9.94169 14.89 9.71969 14.7897C9.49769 14.6924 9.10769 14.5314 9.04169 14.4402C8.97269 14.349 9.00869 14.2031 9.00869 14.0906C9.00869 13.9782 8.99969 13.8323 8.87669 13.7259C8.74469 13.6226 8.58569 13.504 8.58569 13.504Z" fill="white"/>
<path fill-rule="evenodd" clip-rule="evenodd" d="M11.0156 16.5345V16.3369C11.0156 16.3369 11.3426 16.3369 11.5136 16.3095C11.6876 16.2822 12.3716 16.2822 12.8276 16.2609C13.2836 16.2396 15.0716 16.1606 15.6326 16.1272C16.2086 16.0907 18.7556 15.9509 19.2326 15.9174C19.7096 15.884 23.0756 15.65 23.5466 15.6074C24.0176 15.5649 26.7956 15.343 27.2306 15.3065C27.6656 15.27 29.1206 15.1181 29.6396 15.0755C30.1586 15.0329 30.2366 14.963 30.3176 14.957C30.4016 14.9509 30.4616 14.9023 30.5456 14.9995C30.6266 15.0968 30.8006 15.2943 30.9056 15.3643C31.0106 15.4342 31.3346 15.6439 31.3436 15.7503C31.3496 15.8566 31.2536 15.9873 31.2026 16.0876C31.1546 16.188 31.1546 16.3825 31.1546 16.3825L30.8216 16.4433C30.8216 16.4433 30.8486 16.3673 30.8576 16.3186C30.8636 16.27 30.8066 16.1363 30.6686 16.0816C30.5306 16.0269 30.2996 15.9843 30.0716 16.0329C29.8436 16.0816 28.8026 16.2639 28.3796 16.3338C27.9566 16.4038 25.5056 16.8171 24.9116 16.9174C24.3146 17.0147 21.9626 17.3794 21.4016 17.4584C20.8406 17.5344 18.6686 17.8232 17.9066 17.8992C17.1446 17.9782 16.2296 18.0694 15.7196 18.0967C15.2066 18.1241 14.6876 18.1727 14.3126 18.1302C13.9376 18.0876 13.1156 17.8293 12.7556 17.7381C12.3956 17.6469 11.8556 17.4858 11.7656 17.3946C11.6756 17.3034 11.6276 17.2062 11.6006 17.0937C11.5736 16.9813 11.3996 16.7411 11.3096 16.6986C11.2256 16.653 11.0156 16.5345 11.0156 16.5345Z" fill="white"/>
<path fill-rule="evenodd" clip-rule="evenodd" d="M14.085 19.0124C14.085 19.0124 14.223 19.0337 14.376 19.0124C14.529 18.9911 14.661 18.9212 14.841 18.9151C15.021 18.9091 15.561 18.8878 15.858 18.8726C16.155 18.8574 17.028 18.7753 17.334 18.7449C17.637 18.7176 19.086 18.5686 19.557 18.5078C20.028 18.444 22.611 18.0732 23.04 18.0124C23.469 17.9486 25.629 17.6173 26.217 17.5139C26.805 17.4106 28.779 17.058 29.286 16.9607C29.79 16.8635 30.399 16.7632 30.63 16.7145C30.858 16.6629 31.011 16.5595 31.137 16.596C31.26 16.6294 31.392 16.7297 31.551 16.8057C31.71 16.8848 31.953 16.9607 32.085 17.0094C32.217 17.058 32.34 17.1279 32.355 17.1796C32.367 17.2282 32.355 17.4258 32.301 17.5231C32.247 17.6234 32.211 17.6993 32.19 17.8118C32.169 17.9243 32.163 18.0154 32.163 18.0154L31.851 18.1279C31.851 18.1279 31.899 17.9851 31.851 17.9182C31.803 17.8483 31.629 17.7206 31.539 17.7358C31.449 17.748 31.311 17.7571 31.164 17.8057C31.02 17.8544 29.148 18.4227 28.851 18.5078L26.622 19.1309C26.346 19.21 24.588 19.6568 24.09 19.7631C23.592 19.8695 21.75 20.2464 21.291 20.3315C20.835 20.4166 19.104 20.6415 18.66 20.6689C18.216 20.6963 18.141 20.7115 17.787 20.6902C17.433 20.6689 16.77 20.5838 16.347 20.523C15.924 20.4592 15.468 20.368 15.309 20.3346C15.15 20.3011 14.997 20.2707 14.928 20.0823C14.859 19.8938 14.868 19.751 14.748 19.6203C14.631 19.4865 14.484 19.3528 14.388 19.3103C14.292 19.2677 14.139 19.2677 14.118 19.2191C14.076 19.1249 14.085 19.0124 14.085 19.0124Z" fill="white"/>
<path fill-rule="evenodd" clip-rule="evenodd" d="M17.8108 21.5708C17.8108 21.5708 19.0708 21.437 19.3558 21.3945C19.6408 21.3519 21.5788 21.0723 22.0438 20.972C22.5058 20.8747 24.5068 20.434 24.8698 20.3489C25.2298 20.2638 27.4198 19.6893 27.8548 19.5678C28.2898 19.4492 29.7598 19.0298 30.1528 18.9021C30.5488 18.7775 31.7188 18.4188 31.8508 18.3611C31.9828 18.3064 32.1118 18.2061 32.2468 18.2213C32.3788 18.2334 32.7598 18.355 32.8978 18.3976C33.0358 18.4401 33.3958 18.5039 33.4588 18.5678C33.5188 18.6286 33.5458 18.6863 33.5338 18.7836C33.5218 18.8839 33.5278 19.4006 33.5338 19.4583C33.5398 19.5161 33.6748 19.6285 33.6748 19.6285L33.3418 19.7623C33.2728 19.7896 33.1198 19.8474 33.1198 19.8474C33.1198 19.8474 33.1528 19.6985 33.1318 19.6559C33.1108 19.6164 32.9218 19.5009 32.8678 19.4887C32.8048 19.4735 32.7508 19.4887 32.6038 19.5374C32.4598 19.586 32.0848 19.7562 31.8988 19.8413C31.7098 19.9234 30.6028 20.3671 30.2728 20.5009C29.9398 20.6346 28.5958 21.1544 28.1668 21.3094C27.7378 21.4644 25.7848 22.1452 25.4248 22.2547C25.0648 22.3671 23.7838 22.7319 23.4778 22.8078C23.1718 22.8838 23.0278 22.9507 22.7788 22.9629C22.5298 22.975 21.5608 22.8929 21.1588 22.8352C20.7568 22.7805 19.6288 22.6103 19.4758 22.5616C19.3228 22.513 19.2268 22.4492 19.1368 22.3458C19.0468 22.2395 18.9718 22.1635 18.8188 22.0784C18.6658 21.9963 18.4858 21.9021 18.3628 21.8534C18.2398 21.8048 18.1828 21.7835 18.0988 21.7501C18.0178 21.7136 17.9248 21.7075 17.8768 21.6711C17.8228 21.6346 17.8108 21.5708 17.8108 21.5708Z" fill="white"/>
<path fill-rule="evenodd" clip-rule="evenodd" d="M23.0249 23.7806C23.0249 23.7806 23.4329 23.6833 23.5499 23.6256C23.6669 23.5708 24.3239 23.3672 24.5339 23.3094C24.7409 23.2547 25.4819 23.0511 25.7939 22.9447C26.1059 22.8383 27.5609 22.3338 27.8459 22.2365C28.1279 22.1393 29.8589 21.4797 30.2009 21.3459C30.5399 21.2122 32.4659 20.4128 32.7419 20.3004C33.0209 20.1879 33.2969 20.0694 33.3929 20.0055C33.4919 19.9448 33.8009 19.7897 33.9479 19.7533C34.0919 19.7198 34.3829 19.6712 34.5149 19.6773C34.6469 19.6834 34.7429 19.6712 34.7999 19.732C34.8539 19.7958 34.8779 19.8809 34.8689 19.9843C34.8629 20.0876 34.8959 20.3551 35.0159 20.4463C35.1329 20.5374 35.3129 20.6226 35.5139 20.6712C35.7149 20.7198 35.9069 20.7502 35.9789 20.7563C36.0479 20.7624 36.0959 20.7563 36.0959 20.7563C36.0959 20.7563 35.7029 20.9934 35.6039 21.045L35.0909 21.3034C35.0909 21.3034 35.0579 21.2001 35.0099 21.1788C34.9619 21.1575 34.7759 21.1575 34.6199 21.1727C34.4669 21.1849 34.3169 21.2426 34.1759 21.3277C34.0349 21.4128 32.7059 22.1271 32.4449 22.2669C32.1809 22.4067 30.1439 23.4827 29.8679 23.6073C29.5919 23.7319 28.2839 24.3854 28.0679 24.4827C27.8549 24.583 27.7289 24.6651 27.5279 24.6863C27.3269 24.7076 26.8709 24.7137 26.4629 24.7198C26.0549 24.7258 25.2509 24.7046 25.0019 24.6924C24.7529 24.6803 24.3929 24.6711 24.1979 24.5951C24.0029 24.5161 23.9759 24.4128 23.8589 24.273C23.7419 24.1331 23.5139 23.9994 23.4089 23.966C23.3039 23.9295 23.1449 23.9173 23.0759 23.9356C23.0429 23.9417 23.0249 23.7806 23.0249 23.7806Z" fill="white"/>
<path fill-rule="evenodd" clip-rule="evenodd" d="M27.7593 25.4799C27.7593 25.4799 29.3433 24.6714 29.5863 24.568C29.8293 24.4617 32.1963 23.2368 32.5023 23.0665C32.8083 22.8963 34.5393 21.9389 34.9113 21.7261C35.2863 21.5164 35.8053 21.2337 35.8863 21.179C35.9703 21.1243 36.0333 21.0392 36.1353 21.0027C36.2373 20.9693 36.3093 20.9541 36.3093 20.9541C36.3093 20.9541 36.4563 21.1517 36.5373 21.255C36.6213 21.3584 36.8073 21.5498 37.0143 21.5772C37.2213 21.6045 37.3263 21.6106 37.4583 21.5985C37.5903 21.5863 37.8183 21.5377 37.8183 21.5377C37.8183 21.5377 37.2453 22.1 37.1403 22.1821C37.0353 22.2672 35.7753 23.3127 35.5263 23.5377C35.2773 23.7626 34.3623 24.4829 34.1553 24.6531C33.9483 24.8203 33.2823 25.3188 33.1383 25.3948C32.9913 25.4738 32.6253 25.6136 32.3943 25.6774C32.1663 25.7382 31.1133 25.9632 30.7323 26.0422C30.3513 26.1182 29.5353 26.261 29.3763 26.2671C29.2143 26.2732 28.9863 26.2732 28.8483 26.1242C28.7103 25.9784 28.6353 25.7595 28.4523 25.6683C28.2723 25.5771 28.1493 25.5194 28.0233 25.5346C27.7803 25.5711 27.7593 25.4799 27.7593 25.4799Z" fill="white"/>
<path fill-rule="evenodd" clip-rule="evenodd" d="M32.364 26.4186C32.364 26.4186 33.222 25.7803 33.411 25.6253C33.597 25.4703 34.371 24.8563 34.581 24.6861C34.788 24.5159 35.7 23.7682 35.979 23.5372C36.255 23.3062 37.086 22.5889 37.302 22.3944C37.518 22.1968 37.944 21.7773 37.944 21.7773C37.944 21.7773 37.974 21.9476 38.049 22.0083C38.127 22.0722 38.229 22.2059 38.409 22.2819C38.589 22.3609 38.838 22.3731 39.021 22.367C39.201 22.3609 39.372 22.3396 39.444 22.3396C39.513 22.3396 39.624 22.3731 39.63 22.4947C39.636 22.6132 39.645 22.6983 39.645 22.753C39.645 22.8108 39.672 22.8594 39.672 22.8594L38.397 24.291C38.148 24.5706 37.428 25.3578 37.2 25.5949C36.972 25.832 36.39 26.4733 36.321 26.528C36.252 26.5828 36.048 26.5402 35.925 26.4642C35.766 26.3669 35.622 26.4429 35.427 26.4916C35.232 26.5402 34.887 26.6466 34.659 26.7013C34.461 26.7499 33.903 26.8776 33.759 26.8776C33.615 26.8776 33.453 26.8654 33.363 26.7651C33.273 26.6679 33.072 26.449 32.967 26.4004C32.862 26.3517 32.739 26.3153 32.685 26.3518C32.628 26.3852 32.406 26.5159 32.364 26.4186Z" fill="white"/>
<path fill-rule="evenodd" clip-rule="evenodd" d="M36.5549 26.6986C36.5549 26.6986 37.3859 25.8081 37.5719 25.6105C37.7579 25.4129 38.7629 24.3127 38.9789 24.0725C39.1919 23.8355 39.5609 23.3917 39.6509 23.2792C39.7409 23.1668 39.8099 23.0908 39.8519 23.0908C39.8939 23.0908 40.1279 23.0786 40.3139 23.0422C40.4999 23.0087 40.7849 22.9449 40.8539 22.9662C40.9229 22.9874 40.9229 23.0421 40.9319 23.0999C40.9379 23.1546 40.9439 23.7655 40.9529 23.9631C40.9589 24.1607 40.9589 24.5892 40.9199 24.7443C40.8779 24.8993 40.4219 25.802 40.3169 26.0482C40.2149 26.2944 39.9149 26.8415 39.8729 26.9448C39.8309 27.0482 39.8039 27.0786 39.7679 27.112C39.7349 27.1485 39.6539 27.0239 39.5459 26.8871C39.3929 26.6986 39.2369 26.723 39.0749 26.7685C38.9159 26.8081 38.0219 27.0482 37.8629 27.0816C37.7039 27.1181 37.4249 27.1941 37.2809 27.1667C37.1369 27.1394 37.0679 27.0421 36.9989 26.9236C36.9299 26.805 36.8429 26.726 36.7439 26.726C36.6299 26.726 36.5549 26.6986 36.5549 26.6986Z" fill="white"/>
<path fill-rule="evenodd" clip-rule="evenodd" d="M40.605 26.0694C40.605 26.0694 40.812 25.5709 40.86 25.4798C40.911 25.3886 40.977 25.2427 40.977 25.2427C40.977 25.2427 41.034 25.501 41.082 25.6226C41.13 25.7411 41.25 25.8718 41.289 26.0086C41.319 26.112 41.523 26.6469 41.559 26.732C41.592 26.8171 41.655 26.9509 41.634 27.0269C41.613 27.1028 41.622 27.1667 41.649 27.2366C41.676 27.3065 41.703 27.3733 41.655 27.3916C41.586 27.4189 41.439 27.5253 41.394 27.5466C41.346 27.5679 41.226 27.5618 41.16 27.4585C41.118 27.3946 40.944 27.3794 40.806 27.27C40.668 27.1575 40.68 27.0876 40.689 26.9752C40.695 26.8658 40.758 26.4433 40.722 26.3521C40.689 26.2518 40.605 26.0694 40.605 26.0694Z" fill="white"/>
<path fill-rule="evenodd" clip-rule="evenodd" d="M36.396 27.7808C36.396 27.7808 36.651 28.109 36.819 28.1029C36.984 28.0969 37.041 28.0543 37.107 28.033C37.176 28.0118 37.329 28.0057 37.392 28.0391C37.455 28.0725 37.545 28.188 37.539 28.2914C37.533 28.3978 37.596 28.6197 37.671 28.7899C37.761 28.9935 38.115 29.723 38.322 30.0664C38.529 30.4099 39.132 31.2792 39.387 31.5953C39.645 31.9114 40.497 32.8536 40.716 33.0482C40.938 33.2457 42.06 34.191 42.462 34.4646C42.864 34.7381 43.818 35.3643 44.4 35.656C44.982 35.9509 45.702 36.2943 45.888 36.3642C46.074 36.4341 46.2 36.4554 46.233 36.5101C46.269 36.5679 46.329 36.6226 46.329 36.6226L46.116 36.9813L45.927 37.2822L45.768 37.2062C45.768 37.2062 45.885 37.1059 45.843 37.0238C45.801 36.9387 45.753 36.8536 45.621 36.7837C45.489 36.7138 44.922 36.4676 44.673 36.349C44.424 36.2305 43.332 35.6256 42.942 35.3734C42.552 35.1211 41.598 34.4554 41.148 34.0816C40.698 33.7108 39.723 32.7412 39.396 32.3764C39.072 32.0117 38.391 31.1059 38.184 30.7838C37.977 30.4616 37.389 29.3826 37.263 29.0938C37.137 28.8081 37.068 28.6166 36.951 28.5042C36.834 28.3917 36.798 28.3704 36.75 28.3643C36.702 28.3583 36.579 28.3431 36.579 28.3431C36.579 28.3431 36.543 28.258 36.48 28.0695C36.435 27.9267 36.396 27.7808 36.396 27.7808Z" fill="white"/>
<path fill-rule="evenodd" clip-rule="evenodd" d="M37.5989 27.9903C37.5989 27.9903 37.8329 27.9782 38.0219 27.8992C38.2079 27.8232 38.7209 27.6742 38.9279 27.6195C39.1349 27.5618 39.3779 27.4584 39.4829 27.4311C39.5879 27.4037 39.6629 27.3703 39.7259 27.3825C39.7889 27.3946 39.8249 27.4311 39.8909 27.5283C39.9599 27.6286 40.0469 27.8353 40.1339 27.9083C40.2389 27.9934 40.3769 28.118 40.5719 28.0967C40.7669 28.0755 40.9619 28.0542 41.1209 27.9843C41.2799 27.9144 41.5769 27.7168 41.6459 27.6803C41.7149 27.6469 41.8139 27.5679 41.8469 27.6043C41.8799 27.6378 41.9309 27.7016 41.9789 27.7168C42.0269 27.729 42.0959 27.7928 42.1229 27.8445C42.1499 27.8931 42.5789 28.5375 42.8159 28.8262C43.0499 29.1119 43.3919 29.4918 43.6259 29.7228C43.8599 29.9538 44.5469 30.5587 44.8169 30.7532C45.0869 30.9508 45.8789 31.4827 46.2299 31.6712C46.5839 31.8626 47.0129 32.0936 47.3579 32.2395C47.7029 32.3885 48.0689 32.5344 48.1679 32.583C48.2639 32.6316 48.2999 32.6803 48.3689 32.738C48.4379 32.7927 48.4799 32.8657 48.4529 32.9356C48.4259 33.0055 48.0569 33.5891 47.8979 33.8839C47.7389 34.1787 47.4479 34.6468 47.3309 34.8596C47.2139 35.0693 46.9019 35.583 46.8119 35.7501C46.7219 35.9173 46.4849 36.3033 46.4729 36.3459C46.4609 36.3854 46.3979 36.3823 46.3769 36.3459C46.3559 36.3094 46.4609 36.1969 46.4609 36.0602C46.4609 35.9203 46.3769 35.7228 46.3019 35.6437C46.2269 35.5678 45.9989 35.4553 45.8729 35.3975C45.7469 35.3428 45.1409 35.048 44.8349 34.8869C44.5319 34.7258 43.9139 34.3672 43.5119 34.0997C43.1099 33.8322 42.5699 33.4675 42.2249 33.1818C41.8799 32.893 41.3879 32.4675 41.0849 32.1635C40.7789 31.8626 40.2749 31.2943 39.9569 30.8718C39.6389 30.4523 39.2309 29.8839 39.0089 29.4827C38.7869 29.0815 38.5589 28.5861 38.4839 28.501C38.4059 28.4189 38.2949 28.2852 38.1359 28.2365C37.9769 28.1879 37.8869 28.1514 37.8179 28.1454C37.7489 28.1393 37.6229 28.1393 37.6109 28.0846C37.5839 28.0238 37.5989 27.9903 37.5989 27.9903Z" fill="white"/>
<path fill-rule="evenodd" clip-rule="evenodd" d="M30.5638 12.5838C30.5638 12.5838 31.8599 12.5777 32.2409 12.5838C32.6219 12.5898 33.7229 12.5898 33.8399 12.5898C33.9569 12.5898 34.1099 12.6385 34.1729 12.6445L34.2899 12.6597C34.2899 12.6597 34.3438 12.7844 34.3018 12.8269C34.2598 12.8664 34.2119 13.0093 34.1789 13.0913C34.1429 13.1765 34.1728 13.2676 34.1219 13.2828C34.0738 13.295 33.8518 13.3254 33.8518 13.3254C33.8518 13.3254 33.8849 13.219 33.8249 13.1765C33.7619 13.1369 33.6029 13.0792 33.4709 13.0853C33.3359 13.0913 32.6788 13.1552 32.4718 13.1765C32.2648 13.1977 31.6739 13.2768 31.5569 13.295C31.4399 13.3163 31.3078 13.295 31.2178 13.2616C31.1278 13.2251 30.8099 13.0913 30.7199 13.0245C30.6299 12.9546 30.5879 12.9272 30.5549 12.9181L30.4229 12.8907L30.4859 12.7205C30.5099 12.6689 30.5638 12.5838 30.5638 12.5838Z" fill="white"/>
<path fill-rule="evenodd" clip-rule="evenodd" d="M30.9451 14.4442C30.9451 14.4442 31.0681 14.2466 31.1101 14.2192C31.1521 14.1919 31.4641 14.0916 31.5871 14.0581C31.7131 14.0217 32.3011 13.8818 32.5651 13.8211C32.8261 13.7572 33.3331 13.666 33.5671 13.6022C33.8011 13.5384 34.0231 13.4624 34.0951 13.4624C34.1641 13.4624 34.2811 13.4958 34.3561 13.5536C34.4341 13.6083 34.5841 13.7208 34.6621 13.7846C34.7371 13.8484 34.8151 13.9548 34.7941 14.0095C34.7731 14.0673 34.7401 14.1098 34.6981 14.1645C34.6591 14.2192 34.6711 14.2466 34.6591 14.3135C34.6441 14.3742 34.6441 14.4806 34.6441 14.4806C34.6441 14.4806 34.4371 14.5445 34.4011 14.5505C34.3681 14.5566 34.3111 14.5718 34.3111 14.5718C34.3111 14.5718 34.3651 14.4229 34.3231 14.3955C34.2811 14.3682 34.1281 14.2527 33.9781 14.2405C33.8251 14.2283 33.3901 14.359 33.2431 14.4107C33.0991 14.4593 32.5531 14.6083 32.3431 14.6691C32.1361 14.7299 31.9471 14.8241 31.7821 14.8089C31.6171 14.7937 31.4701 14.7238 31.3261 14.6539C31.1821 14.584 31.1461 14.5536 31.0981 14.5262C31.0501 14.4989 30.9451 14.4442 30.9451 14.4442Z" fill="white"/>
<path fill-rule="evenodd" clip-rule="evenodd" d="M31.5059 15.9296C31.5059 15.9296 31.5179 15.8111 31.5839 15.7625C31.6439 15.7138 31.8119 15.6713 31.8929 15.6287C31.9769 15.5862 32.2319 15.5011 32.5019 15.4038C32.7719 15.3065 33.2789 15.1515 33.4919 15.0877C33.7079 15.0239 34.1699 14.878 34.2899 14.8293C34.4069 14.7807 34.5539 14.6895 34.6709 14.6956C34.7879 14.7017 35.0099 14.7503 35.1329 14.7989C35.2589 14.8476 35.3879 14.9023 35.4089 14.9874C35.4299 15.0725 35.3819 15.1971 35.3339 15.267C35.2859 15.3369 35.2709 15.4008 35.2589 15.4585C35.2439 15.5132 35.2439 15.6196 35.2439 15.6196C35.2439 15.6196 35.1689 15.6834 35.0759 15.7047L34.9319 15.7381C34.9319 15.7381 34.9439 15.6409 34.8839 15.571C34.8209 15.5011 34.6499 15.4312 34.5299 15.4646C34.4129 15.498 33.9599 15.6834 33.7889 15.7594C33.6149 15.8354 33.1229 16.0664 32.9579 16.1394C32.7929 16.2093 32.6759 16.2731 32.5019 16.2457C32.3279 16.2184 32.1839 16.2032 32.0519 16.1394C31.9199 16.0755 31.7459 15.9843 31.6859 15.9631C31.6229 15.9448 31.5059 15.9296 31.5059 15.9296Z" fill="white"/>
<path fill-rule="evenodd" clip-rule="evenodd" d="M32.5856 17.1463L33.1736 16.8606C33.3746 16.7633 34.1366 16.4108 34.3706 16.2983C34.6046 16.1858 34.9886 15.9974 35.0696 15.9609C35.1536 15.9275 35.2436 15.8636 35.3396 15.8545C35.4356 15.8484 35.6576 15.8971 35.7836 15.9244C35.9096 15.9518 36.0836 15.9731 36.1226 16.0491C36.1646 16.125 36.1856 16.2892 36.1646 16.3378C36.1436 16.3864 36.0956 16.5475 36.1046 16.6114C36.1106 16.6752 36.1316 16.8302 36.1316 16.8302L35.9516 16.9275C35.8616 16.9761 35.7446 17.0338 35.7446 17.0338C35.7446 17.0338 35.7176 16.9275 35.6396 16.8576C35.5646 16.7876 35.4176 16.7512 35.3066 16.7876C35.2316 16.812 34.7816 17.0764 34.6136 17.1797C34.4486 17.2861 34.0256 17.5536 33.9566 17.5961C33.8876 17.6387 33.8246 17.742 33.6176 17.7147C33.4106 17.6873 33.3116 17.6661 33.2096 17.6174C33.1046 17.5688 32.8916 17.4138 32.8346 17.3712C32.7806 17.3287 32.5736 17.274 32.5736 17.2162C32.5706 17.1585 32.5856 17.1463 32.5856 17.1463Z" fill="white"/>
<path fill-rule="evenodd" clip-rule="evenodd" d="M33.6721 18.6048C33.6721 18.6048 34.2691 18.2066 34.5241 18.0516C34.7791 17.8966 35.4031 17.5319 35.6461 17.3981C35.8891 17.2644 36.1231 17.0881 36.2491 17.0668C36.3751 17.0456 36.6841 17.0547 36.8461 17.0547C37.0051 17.0547 37.1161 17.0547 37.1281 17.1398C37.1401 17.2218 37.1131 17.2948 37.1071 17.3647C37.1011 17.4346 37.1071 17.6291 37.1071 17.6291L35.9101 18.5835C35.7151 18.7385 35.2591 19.1519 35.2321 19.161C35.2051 19.1671 35.0521 19.0425 34.8631 18.9726C34.6771 18.9027 34.5751 18.8875 34.4971 18.8753C34.4221 18.8601 34.3021 18.8054 34.1851 18.7477C34.0681 18.693 34.0321 18.6717 33.9511 18.6565C33.8701 18.6443 33.6961 18.7051 33.6961 18.7051L33.6721 18.6048Z" fill="white"/>
<path fill-rule="evenodd" clip-rule="evenodd" d="M35.1211 19.6561C35.1211 19.6561 35.4181 19.3825 35.6281 19.2002C35.8351 19.0178 36.4711 18.4981 36.6391 18.3582C36.8041 18.2184 37.2271 17.8902 37.2901 17.8415C37.3531 17.7929 37.4221 17.7838 37.4971 17.7838C37.5721 17.7838 37.7581 17.7291 37.8421 17.7291C37.9261 17.7291 38.0701 17.723 38.0851 17.8354C38.0971 17.9479 38.1541 18.1667 38.1481 18.2488C38.1421 18.3339 38.1481 18.4312 38.1751 18.4798C38.2021 18.5284 38.2291 18.5588 38.2291 18.5588C38.2291 18.5588 38.1601 18.65 38.0431 18.7625C37.9261 18.8719 37.5661 19.2184 37.4071 19.3734C37.2481 19.5284 36.9241 19.8445 36.8041 19.9692C36.6871 20.0968 36.5011 20.2701 36.5011 20.2701C36.5011 20.2701 36.4531 20.0877 36.3481 19.9965C36.2461 19.9053 35.9881 19.8567 35.8351 19.8476C35.6821 19.8415 35.4901 19.6926 35.4121 19.6713C35.3371 19.65 35.2471 19.6986 35.2471 19.6986C35.2471 19.6986 35.1481 19.726 35.1211 19.6561Z" fill="white"/>
<path fill-rule="evenodd" clip-rule="evenodd" d="M36.6296 20.5526L37.4456 19.7259C37.6046 19.5648 38.1386 19.0602 38.2646 18.9326C38.3876 18.808 38.4926 18.6803 38.6306 18.6195C38.7686 18.5557 38.9366 18.4706 39.0116 18.501C39.0896 18.5283 39.1436 18.6347 39.1796 18.7472C39.2126 18.8596 39.3176 19.0147 39.5096 19.0785C39.7046 19.1393 39.8216 19.1605 39.9116 19.1545C40.0016 19.1484 40.0496 19.1393 40.0496 19.1393C40.0496 19.1393 39.8546 19.3429 39.7526 19.4493C39.6506 19.5557 39.3446 19.8566 39.1616 20.0238C38.9816 20.194 38.5196 20.662 38.3876 20.7897C38.2556 20.9143 38.0696 21.0754 38.0696 21.0754C38.0696 21.0754 38.0696 20.9447 37.9736 20.8505C37.8416 20.7228 37.6766 20.7441 37.5236 20.7532C37.3706 20.7593 37.2746 20.7168 37.1846 20.6408C37.0946 20.5648 37.0226 20.4858 36.9776 20.4797C36.9296 20.4736 36.8186 20.5283 36.7886 20.5435C36.7616 20.5526 36.6296 20.5526 36.6296 20.5526Z" fill="white"/>
<path fill-rule="evenodd" clip-rule="evenodd" d="M38.2651 21.2974C38.2651 21.2974 38.7151 20.8689 38.9371 20.644C39.1591 20.419 39.5881 19.9966 39.7741 19.8081C39.9601 19.6197 40.2991 19.2944 40.2991 19.2944C40.2991 19.2944 40.3681 19.4008 40.5271 19.413C40.6891 19.4251 40.8391 19.4555 40.9561 19.4616C41.0731 19.4677 41.2741 19.4677 41.3371 19.4039C41.4001 19.3431 41.4841 19.3218 41.4841 19.3218C41.4841 19.3218 41.3851 19.4616 41.2711 19.6166C41.1511 19.7716 40.8211 20.2427 40.6351 20.5285C40.4491 20.8142 40.0261 21.4403 39.9571 21.5588C39.8881 21.6774 39.7291 21.9327 39.6811 21.9996C39.6331 22.0695 39.5701 22.1546 39.5701 22.1546C39.5701 22.1546 39.5851 22.0208 39.4741 21.8263C39.3631 21.6288 39.3001 21.6227 39.2041 21.5923C39.1081 21.5649 39.0721 21.6075 38.9281 21.5315C38.7811 21.4555 38.7061 21.3066 38.6161 21.2853C38.5261 21.2671 38.5291 21.2519 38.4571 21.2853C38.3341 21.3461 38.2651 21.2974 38.2651 21.2974Z" fill="white"/>
<path fill-rule="evenodd" clip-rule="evenodd" d="M41.6007 19.6626C41.6007 19.6626 41.6547 19.7538 41.7117 19.8237C41.7657 19.8936 41.8437 19.9726 41.8287 20.0273C41.8167 20.082 41.5677 20.5896 41.5107 20.7203C41.4567 20.8541 41.2767 21.4498 41.2347 21.6261C41.1927 21.8024 41.1297 22.0607 41.0727 22.1945C41.0187 22.3282 40.9647 22.3981 40.9557 22.4528L40.9347 22.623C40.9347 22.623 40.8327 22.693 40.7817 22.7082L40.6287 22.7477V22.6139C40.6287 22.5562 40.5447 22.4528 40.4907 22.3556C40.4337 22.2583 40.3857 22.1459 40.4487 21.9544C40.5117 21.7659 40.5867 21.541 40.6557 21.386C40.7247 21.231 40.7727 21.0638 40.8837 20.8054C40.9947 20.5471 41.0847 20.3434 41.2167 20.1459C41.3487 19.9483 41.4117 19.845 41.4657 19.7659C41.5257 19.69 41.6007 19.6626 41.6007 19.6626Z" fill="white"/>
<path fill-rule="evenodd" clip-rule="evenodd" d="M34.5867 12.6682C34.5867 12.6682 35.1267 12.6409 35.5197 12.6348C35.9157 12.6287 36.4137 12.6348 36.6747 12.6774C36.9387 12.7199 37.3737 12.7412 37.5417 12.7321C37.7067 12.726 37.9587 12.7047 38.3607 12.7169C38.7627 12.7321 39.4827 12.7533 39.9597 12.8233C40.4367 12.8932 40.8717 12.9935 41.2617 13.1242C41.6487 13.2579 42.3627 13.5679 42.5907 13.8384C42.8187 14.112 42.9837 14.3369 42.9567 14.6895C42.9297 15.039 42.7917 15.4098 42.6807 15.6287C42.5697 15.8475 42.2997 16.3156 42.2517 16.3977C42.2037 16.4828 41.7867 16.8749 41.6217 17.0633C41.4537 17.2518 40.9167 17.8414 40.7007 18.1028C40.4847 18.3612 40.3197 18.5709 40.2507 18.6408C40.1547 18.7381 40.0857 18.8445 40.0857 18.8445H40.0167C40.0167 18.8445 40.1007 18.732 40.0797 18.6135C40.0587 18.4949 39.9627 18.3095 39.8637 18.2548C39.7677 18.197 39.7407 18.1849 39.6687 18.2031C39.5997 18.2244 39.5427 18.2548 39.4947 18.267C39.4467 18.2791 39.4047 18.2882 39.4047 18.2882C39.4047 18.2882 39.6477 18.0147 39.7587 17.8961C39.8697 17.7746 40.1757 17.4949 40.2777 17.3916C40.3827 17.2852 40.4787 17.2214 40.5207 17.2214C40.5627 17.2214 40.7427 17.2852 40.8597 17.2335C40.9767 17.1849 41.1927 16.96 41.2077 16.805C41.2197 16.65 41.1447 16.4949 41.0427 16.419C40.9377 16.3399 40.7877 16.2761 40.6887 16.2852C40.5897 16.2913 40.4607 16.3126 40.3617 16.3703C40.2957 16.4068 40.2237 16.419 40.2237 16.419C40.2237 16.419 40.2297 16.3399 40.2447 16.2214C40.2567 16.1028 40.1967 15.9843 40.1337 15.884C40.0737 15.7867 39.9477 15.7077 39.7947 15.6864C39.6417 15.6652 39.5727 15.7077 39.5187 15.6652C39.4617 15.6226 39.5067 15.5314 39.4557 15.419C39.4077 15.3065 39.3297 15.1454 39.1857 15.0877C39.0387 15.033 38.9157 14.9995 38.8467 14.9995C38.7777 14.9995 38.7777 14.957 38.7777 14.8658C38.7777 14.7472 38.7507 14.498 38.6817 14.4372C38.6127 14.3734 38.4537 14.2518 38.3547 14.2336C38.2587 14.2123 38.1897 14.2001 38.1897 14.1485C38.1897 14.0998 38.2497 13.9783 38.2497 13.8688C38.2497 13.7564 38.2287 13.5892 38.0967 13.498C37.9647 13.4068 37.8207 13.3582 37.7637 13.267C37.7067 13.1758 37.6107 13.0786 37.5837 13.0695C37.5537 13.0634 37.4367 13.0634 37.3557 13.0695C37.2717 13.0755 37.0707 13.1181 36.9267 13.1394C36.7797 13.1606 36.7047 13.1941 36.6267 13.1728C36.5517 13.1515 36.3927 13.0877 36.2817 13.0877C36.1707 13.0877 35.9007 13.1029 35.7207 13.1211C35.5407 13.1424 35.3547 13.1637 35.2077 13.1546C35.0607 13.1485 34.9587 13.0998 34.8387 13.0512C34.7217 13.0026 34.6857 12.9813 34.6167 12.9388C34.5477 12.8962 34.5117 12.8628 34.5117 12.8628C34.5117 12.8628 34.5177 12.7989 34.5327 12.7564C34.5537 12.7321 34.5867 12.6682 34.5867 12.6682Z" fill="white"/>
<path fill-rule="evenodd" clip-rule="evenodd" d="M34.9409 13.9604C34.9409 13.9604 35.3309 13.7933 35.5979 13.7082C35.8799 13.617 36.3869 13.4893 36.6149 13.4437C36.8429 13.392 37.0109 13.3252 37.0979 13.3525C37.1879 13.3799 37.2989 13.3799 37.3619 13.3738L37.4849 13.3617C37.4849 13.3617 37.5389 13.4285 37.5059 13.4528C37.4699 13.4741 37.4669 13.5015 37.3889 13.5866C37.3139 13.6717 37.2509 13.7629 37.1609 13.7963C37.0709 13.8297 36.8609 13.8784 36.6269 13.9422C36.3929 14.006 36.0179 14.1246 35.8859 14.161C35.7539 14.1945 35.7209 14.2309 35.5139 14.1945C35.3069 14.161 35.2439 14.1398 35.1539 14.1154C35.0639 14.0942 35.0579 14.1154 35.0069 14.1367C34.9589 14.158 34.9319 14.1367 34.9319 14.1367V14.0395C34.9319 14.003 34.9409 13.9604 34.9409 13.9604Z" fill="white"/>
<path fill-rule="evenodd" clip-rule="evenodd" d="M35.6194 14.9634C35.6194 14.9634 35.9944 14.7597 36.3034 14.626C36.6154 14.4923 37.2454 14.2613 37.3774 14.2248C37.5094 14.1883 37.6534 14.1488 37.7314 14.1883C37.8064 14.2309 37.8694 14.2795 37.8484 14.3433C37.8274 14.4041 37.7224 14.5622 37.6474 14.6017C37.5724 14.6442 37.1284 14.8874 36.9604 14.9603C36.7954 15.0303 36.4294 15.2248 36.3184 15.2339C36.2074 15.24 36.0904 15.2126 35.9794 15.1792C35.8684 15.1458 35.8264 15.1245 35.7724 15.1154C35.7184 15.1093 35.5984 15.1154 35.5984 15.1154C35.5984 15.1154 35.6134 15.0819 35.6134 15.0455C35.6134 15.012 35.6194 14.9634 35.6194 14.9634Z" fill="white"/>
<path fill-rule="evenodd" clip-rule="evenodd" d="M36.3183 16.0207C36.3183 16.0207 36.7353 15.7745 36.8733 15.6894C37.0113 15.6073 37.4613 15.3885 37.6533 15.2821C37.8483 15.1757 38.0553 15.0845 38.1663 15.0906C38.2773 15.0967 38.3733 15.1484 38.3883 15.2031C38.4003 15.2608 38.3883 15.3794 38.3403 15.4706C38.2923 15.5617 38.2593 15.6377 38.1063 15.7867C37.9353 15.9508 37.8093 16.0329 37.7043 16.124C37.6023 16.2152 37.4433 16.349 37.3593 16.3611C37.2753 16.3733 37.1433 16.2973 37.0743 16.2821C37.0053 16.2699 36.7983 16.1848 36.7503 16.1575C36.7023 16.1301 36.6183 16.0936 36.5553 16.1028C36.4923 16.1088 36.3123 16.1514 36.3123 16.1514L36.3183 16.0207Z" fill="white"/>
<path fill-rule="evenodd" clip-rule="evenodd" d="M37.4189 16.933C37.4189 16.933 37.6679 16.702 37.8419 16.5621C38.0129 16.4223 38.3309 16.2035 38.4839 16.091C38.6369 15.9786 38.7539 15.8935 38.8019 15.8874C38.8499 15.8813 38.9009 15.8995 38.9339 15.936C38.9669 15.9694 39.0659 15.9694 39.0929 16.0546C39.1229 16.1366 39.0929 16.2096 39.1229 16.2582C39.1499 16.3099 39.2189 16.2947 39.2309 16.3372C39.2459 16.3767 39.2309 16.4649 39.2309 16.4649C39.2309 16.4649 38.8859 16.7384 38.7599 16.857C38.6339 16.9755 38.4359 17.1731 38.3849 17.2004C38.3369 17.2308 38.1569 17.1244 38.0459 17.0758C37.9349 17.0272 37.6799 16.9482 37.5839 16.9421C37.4879 16.933 37.4189 16.933 37.4189 16.933Z" fill="white"/>
<path fill-rule="evenodd" clip-rule="evenodd" d="M38.3965 17.5922C38.3965 17.5922 38.6935 17.3126 38.8405 17.1789C38.9845 17.0451 39.1375 16.9053 39.2485 16.7989C39.3595 16.6956 39.5965 16.5254 39.5965 16.5254C39.5965 16.5254 39.7015 16.5315 39.6865 16.5953C39.6715 16.6591 39.7465 16.6713 39.7975 16.6713C39.8455 16.6713 39.9625 16.6439 39.9985 16.6591C40.0315 16.6713 40.0885 16.6926 40.0885 16.7716C40.0885 16.8476 40.0945 16.9175 40.1245 16.9266C40.1515 16.9327 40.2205 16.9205 40.2265 16.9479C40.2325 16.9752 40.2415 17.0239 40.2415 17.0239C40.2415 17.0239 39.8515 17.416 39.6865 17.571C39.5185 17.726 39.2635 17.9995 39.2305 18.0421C39.1975 18.0846 39.1765 18.112 39.1765 18.112C39.1765 18.112 39.1195 17.957 38.9815 17.8324C38.8435 17.7047 38.7865 17.6652 38.6575 17.6287C38.5195 17.5922 38.3965 17.5922 38.3965 17.5922Z" fill="white"/>
<path fill-rule="evenodd" clip-rule="evenodd" d="M40.6646 18.5778C40.6646 18.5778 40.8926 18.289 41.0936 18.0732L41.5766 17.5474C41.6606 17.4562 41.7146 17.3711 41.7146 17.3711C41.7146 17.3711 41.5826 17.6872 41.5556 17.827C41.5286 17.9668 41.4926 18.2343 41.4926 18.3528C41.4926 18.4714 41.4446 18.6051 41.4176 18.751C41.3906 18.8999 41.3906 19.0337 41.3906 19.0337C41.3906 19.0337 41.2946 19.0884 41.2256 19.1249C41.1566 19.1613 41.0726 19.2161 41.0726 19.2161C41.0726 19.2161 41.0606 19.0063 40.9766 18.8939C40.8926 18.7814 40.8596 18.751 40.7906 18.7115C40.7216 18.669 40.6106 18.6568 40.6106 18.6568L40.6646 18.5778Z" fill="white"/>
<path fill-rule="evenodd" clip-rule="evenodd" d="M45.7234 10.374C45.7234 10.374 46.1164 10.2281 46.3654 10.1217C46.6174 10.0154 47.8864 9.5716 48.2794 9.46826C48.7564 9.34364 49.8694 9.07008 50.5444 8.9637C51.2164 8.85732 52.5664 8.71143 53.8654 8.71143C54.9784 8.71143 56.0044 8.80261 56.5444 8.86644C57.0844 8.93027 58.1734 9.12784 58.6174 9.2403C59.0584 9.35276 59.7994 9.5412 60.2164 9.68102C60.6334 9.82083 61.2814 10.0458 61.5334 10.1582C61.7824 10.2707 61.9414 10.3041 61.9834 10.3497C62.0224 10.3892 62.0314 10.4561 62.1634 10.5169C62.2954 10.5807 62.4904 10.6506 62.4904 10.6506C62.4904 10.6506 62.4214 10.7144 62.3164 10.757C62.2114 10.7995 62.0824 10.8695 61.9774 10.912C61.8754 10.9515 61.7704 11.0153 61.7704 11.0153C61.7704 11.0153 61.7704 10.8664 61.7164 10.8178C61.6594 10.7691 61.3414 10.602 61.0114 10.4743C60.7024 10.3588 60.2284 10.1856 59.7694 10.0518C59.3134 9.9181 58.4944 9.68102 57.9484 9.58376C57.4024 9.48649 56.8144 9.38011 56.2804 9.3254C55.7464 9.27069 54.5224 9.17039 53.8864 9.17647C53.2504 9.18255 52.0384 9.25245 51.4294 9.33148C50.8264 9.4105 49.8304 9.56248 49.2484 9.71141C48.6664 9.86035 47.8894 10.0549 47.5864 10.1613C47.2804 10.2676 46.9144 10.4196 46.7974 10.4257C46.6804 10.4318 46.4314 10.3983 46.3474 10.3983C46.2664 10.3983 46.1824 10.3983 46.1314 10.4105C46.0834 10.4227 45.9514 10.4956 45.8974 10.4682C45.8314 10.4378 45.7234 10.374 45.7234 10.374Z" fill="white"/>
<path fill-rule="evenodd" clip-rule="evenodd" d="M64.728 18.4224C64.728 18.4224 64.584 18.2674 64.506 18.1853C64.431 18.1002 64.395 17.7172 64.305 17.5045C64.215 17.2948 63.891 16.851 63.696 16.6473C63.504 16.4437 63.147 16.0759 62.409 15.5957C61.731 15.155 61.023 14.7598 60.27 14.4741C59.514 14.1854 58.989 13.9696 58.083 13.7659C57.177 13.5623 55.998 13.3495 54.717 13.31C53.436 13.2674 52.329 13.3708 51.582 13.4711C50.841 13.5684 49.782 13.7659 48.81 14.0972C47.841 14.4255 47.598 14.5471 47.295 14.693C46.989 14.8389 46.254 15.2097 45.987 15.3951C45.717 15.5774 45.288 15.8784 45.024 16.0486C44.763 16.2157 44.712 16.3556 44.553 16.316C44.325 16.2613 44.262 16.0486 44.262 16.0486C44.262 16.0486 44.457 15.8115 44.643 15.62C44.829 15.4316 45.273 15.0516 45.549 14.8206C45.828 14.5896 46.368 14.1185 46.455 14.0364C46.545 13.9513 46.788 13.6565 46.788 13.6565C46.788 13.6565 46.863 13.8237 47.004 13.7811C47.142 13.7416 47.364 13.5714 47.496 13.3617C47.628 13.1519 47.856 12.6596 47.799 12.2523C47.745 11.845 47.688 11.5501 47.577 11.4742C47.466 11.3982 47.277 11.2644 47.139 11.2492C47.001 11.234 46.953 11.2553 46.884 11.228C46.815 11.2006 46.716 11.1155 46.716 11.1155C46.716 11.1155 47.049 10.9909 47.193 10.9271C47.34 10.8632 47.991 10.6261 48.426 10.5046C48.864 10.386 49.326 10.2675 49.881 10.155C50.436 10.0426 51.252 9.90883 51.903 9.845C52.554 9.78117 53.4 9.71734 53.898 9.72646C54.396 9.73254 55.551 9.79637 56.022 9.85108C56.493 9.90883 57.408 10.0274 57.954 10.155C58.5 10.2796 59.526 10.5319 59.976 10.693C60.426 10.8571 60.966 11.0243 61.023 11.079C61.077 11.1368 61.14 11.2006 61.224 11.234C61.308 11.2675 61.392 11.3252 61.392 11.3252C61.392 11.3252 61.17 11.5745 61.017 11.8359C60.573 12.6018 61.104 13.5714 61.809 14.1003C62.721 14.7872 64.389 15.8358 64.68 17.4011C64.746 17.7659 64.728 18.4224 64.728 18.4224Z" fill="white"/>
<path fill-rule="evenodd" clip-rule="evenodd" d="M65.3457 17.5803C65.2887 17.0362 64.9677 16.4861 64.7217 16.1274C64.4757 15.7657 64.3197 15.3949 64.0437 14.9238C63.7677 14.4496 62.9937 13.9846 62.4987 13.629C62.1177 13.3585 61.6287 12.7627 61.6287 12.2886C61.6287 12.0636 61.5177 11.7232 61.2507 11.8752C61.2987 11.7597 61.4037 11.6472 61.5357 11.5348C61.7907 11.319 62.2557 11.0211 62.6907 10.8631C63.1287 10.702 64.1727 10.4132 64.6017 10.3159C65.0307 10.2187 66.2427 10.015 66.7407 9.97249C67.2387 9.93297 68.1117 9.89042 68.5287 9.89042C68.9787 9.89042 69.8427 9.93601 70.4877 10.0029C71.1657 10.0728 72.0927 10.2126 72.7017 10.2491C73.3137 10.2825 74.3577 10.3099 74.8137 10.2977C75.2697 10.2825 76.1097 10.2491 76.5657 10.243C77.0217 10.2369 78.6927 10.1792 79.2447 10.1457C79.7967 10.1123 81.2997 10.0211 81.8637 9.99072C82.4247 9.96337 84.1407 9.92689 84.6327 9.92689C85.1247 9.92689 87.2517 10.0242 87.7887 10.0546C88.3287 10.0819 89.6577 10.1579 90.1497 10.1883C90.6417 10.2156 91.3467 10.243 91.7577 10.2643C92.1657 10.2856 93.3777 10.2521 93.6417 10.2521C93.9027 10.2521 94.8267 10.246 95.3307 10.2248C95.8377 10.2035 97.1787 10.0971 97.6707 10.0546C98.1627 10.012 99.4227 9.87826 99.8247 9.85091C100.227 9.82355 100.629 9.76276 100.803 9.79012C100.977 9.81747 101.178 9.95121 101.232 10.015C101.286 10.0758 101.523 10.3372 101.694 10.5257C101.868 10.7141 102.042 10.9269 102.069 10.9968C102.096 11.0667 102.21 11.2217 102.186 11.2764C102.165 11.3342 102.144 11.4406 102.081 11.474C102.021 11.5074 101.736 11.6351 101.736 11.6351C101.736 11.6351 101.721 11.5013 101.625 11.4588C101.529 11.4162 101.361 11.3615 101.238 11.4041C101.115 11.4436 100.713 11.6199 100.476 11.7263C100.239 11.8326 99.8517 12.015 99.6717 12.0363C99.4917 12.0576 98.7867 12.0849 98.3157 12.091C97.8447 12.0971 96.4647 12.1062 95.8707 12.1275C95.2737 12.1488 93.2607 12.1609 92.8377 12.17C92.4147 12.1761 90.5667 12.1974 89.9787 12.1974C89.3907 12.1974 87.7437 12.2308 87.2097 12.2247C86.6757 12.2187 84.3147 12.2612 83.7957 12.2521C83.2767 12.246 81.8007 12.2612 81.4077 12.2673C81.0117 12.2734 80.4807 12.2946 79.9677 12.3281C79.4547 12.3646 78.7347 12.4405 78.5277 12.4557C78.3177 12.4709 78.0417 12.4345 77.9457 12.401C77.8497 12.3676 77.8407 12.3524 77.7777 12.3463C77.7177 12.3402 77.5407 12.3129 77.5407 12.3129L77.5017 12.2217C77.5017 12.2217 77.7297 12.1791 77.9157 12.1396C78.1017 12.0971 78.2607 12.012 78.5937 11.9421C78.9267 11.8722 79.7637 11.7111 80.1807 11.6412C80.5947 11.5713 82.4727 11.2339 83.0127 11.164C83.5527 11.0941 84.9567 10.933 85.4487 10.8995C85.9407 10.8661 87.3417 10.7506 87.8307 10.7232C88.3197 10.6959 89.4297 10.6442 89.7057 10.6533C89.9817 10.6624 90.9297 10.6807 91.3047 10.702C91.6797 10.7232 91.8807 10.7232 91.8807 10.7232L91.9497 10.477C91.9497 10.477 91.5537 10.4558 91.2207 10.4345C90.8907 10.4132 90.0297 10.4011 89.7387 10.4011C89.4477 10.4011 88.3947 10.4071 87.9927 10.4284C87.6087 10.4497 87.0447 10.3828 86.5857 10.3676C86.0307 10.3463 84.7797 10.3615 84.2667 10.4011C83.7537 10.4406 82.3077 10.5834 81.8517 10.6381C81.3957 10.6928 79.8237 10.9238 79.1037 11.0606C78.3837 11.1944 77.2617 11.4162 76.7337 11.5165C76.2087 11.6138 75.5367 11.7536 74.9337 11.8174C74.3307 11.8782 73.1127 11.9026 72.6687 11.8934C72.2247 11.8874 70.9167 11.857 70.2597 11.8661C69.6027 11.8722 68.4957 11.8722 67.8507 11.9512C67.2057 12.0272 66.6597 12.1548 66.3267 12.2673C65.9937 12.3798 65.6547 12.5044 65.4267 12.6746C65.1987 12.8417 65.0937 13.0241 65.0997 13.0879C65.1057 13.1518 65.1267 13.1913 65.1267 13.1913L65.3007 13.249C65.3007 13.249 65.1357 13.3828 65.0397 13.4679C64.9437 13.5499 64.8387 13.7475 64.8027 13.9177C64.7697 14.0879 64.7127 14.4922 64.7067 14.6624C64.7007 14.8326 64.6797 14.8995 64.7337 15.0363C64.7877 15.17 65.0517 15.6472 65.1567 15.8508C65.2617 16.0545 65.5377 16.5043 65.6127 16.635C65.6877 16.7688 65.8347 16.9572 65.9367 17.1183C66.0417 17.2794 66.2187 17.6654 66.2397 17.7931C66.2607 17.9207 66.2607 18.1 66.2607 18.2824V19.1943C66.2607 19.3401 66.2487 19.4587 66.2187 19.4952C66.1917 19.5286 66.1077 19.6015 66.1017 19.6775C66.0957 19.7535 66.0477 19.9298 66.0267 20.021C66.0057 20.1091 65.9367 20.3006 65.9367 20.3006C65.9367 20.3006 65.8257 20.0757 65.8197 20.0483C65.8137 20.021 65.8677 19.8386 65.8467 19.5711C65.8377 19.2854 65.4357 18.4374 65.3457 17.5803Z" fill="white"/>
<path fill-rule="evenodd" clip-rule="evenodd" d="M65.0969 13.8268C65.0969 13.8268 65.2049 13.6505 65.4929 13.456C65.7419 13.2858 66.1529 13.1034 66.3989 13.0274C66.6479 12.9515 67.5629 12.7417 67.9769 12.7053C68.3939 12.6688 69.5069 12.6627 69.8729 12.6566C70.2419 12.6505 70.9409 12.6688 71.1749 12.6627C71.4119 12.6566 71.7419 12.6627 71.9909 12.6627C72.2399 12.6627 72.7169 12.6566 72.8699 12.6566C73.0229 12.6566 73.3139 12.6414 73.3979 12.6627C73.4789 12.684 73.6349 12.7113 73.6529 12.7752C73.6739 12.839 73.6919 12.8937 73.6529 12.9636C73.6109 13.0335 73.6169 13.1247 73.6169 13.1521V13.2159C73.6169 13.2159 73.5689 13.2432 73.5179 13.2767C73.4699 13.3132 73.2419 13.4469 73.2419 13.4469C73.2419 13.4469 73.2419 13.3983 73.1999 13.3071C73.1609 13.2159 73.0259 13.1369 72.9299 13.1186C72.8339 13.0973 72.4799 13.0791 72.3269 13.07C72.1739 13.0639 71.8079 13.0548 71.6639 13.0426C71.5199 13.0305 71.4509 13.0092 71.3789 13.0092C71.3099 13.0092 71.2559 13.0153 71.1989 13.0578C71.1419 13.1004 71.1239 13.1399 71.0879 13.149C71.0549 13.1551 70.9829 13.1429 70.9559 13.1429C70.9289 13.1429 70.8809 13.1825 70.9709 13.2706C71.1029 13.3952 71.2949 13.4195 71.4689 13.4469C71.6429 13.4742 71.8859 13.5168 72.0659 13.5533C72.2459 13.5867 72.4889 13.6293 72.6479 13.6657C72.8069 13.6992 72.9599 13.7052 73.0139 13.7144C73.0709 13.7204 73.1669 13.763 73.1609 13.8207C73.1549 13.8755 73.1399 13.9271 73.1189 13.9758C73.0979 14.0244 73.0979 14.1156 73.1069 14.1581C73.1129 14.2007 73.0979 14.2402 73.0589 14.2706C73.0169 14.2979 72.8459 14.3618 72.8009 14.383C72.7619 14.4043 72.6839 14.3952 72.6839 14.3952C72.6839 14.3952 72.7049 14.2827 72.6839 14.2554C72.6629 14.228 72.5999 14.1642 72.4709 14.1217C72.3389 14.0791 71.9939 13.9879 71.8259 13.9514C71.6609 13.918 71.3759 13.839 71.1899 13.8055C71.0039 13.7721 70.8779 13.7144 70.8239 13.763C70.7669 13.8116 70.7549 13.8542 70.7189 13.8603C70.6829 13.8663 70.6289 13.839 70.5929 13.8724C70.5569 13.9089 70.5089 13.9514 70.5449 13.991C70.5809 14.0335 70.7069 14.1125 70.8299 14.1551C70.9559 14.1976 71.3639 14.3162 71.5439 14.3739C71.7239 14.4286 72.0359 14.5563 72.2009 14.5897C72.3689 14.6232 72.5399 14.6809 72.5759 14.7721C72.6089 14.8633 72.6029 14.9545 72.5399 15.0092C72.4769 15.0639 72.4649 15.1429 72.4499 15.1764C72.4349 15.2128 72.4169 15.304 72.4169 15.304C72.4169 15.304 72.2579 15.4073 72.2249 15.4225L72.0719 15.4864C72.0719 15.4864 72.1259 15.4165 72.0779 15.2979C72.0299 15.1794 71.8919 15.1095 71.7119 15.0183C71.5319 14.9271 71.1659 14.7934 71.0249 14.7447C70.8869 14.6961 70.4369 14.5137 70.3349 14.4773C70.2299 14.4438 70.1129 14.4013 70.0169 14.4226C69.9179 14.4438 69.8699 14.5016 69.8999 14.5502C69.9269 14.5989 70.0019 14.6201 70.0019 14.6779C70.0019 14.7326 70.0019 14.7812 69.9749 14.7964C69.9479 14.8086 69.9389 14.8177 69.9389 14.8177C69.9389 14.8177 70.1759 14.9818 70.3349 15.0548C70.4939 15.1338 70.8869 15.3435 70.9919 15.3982C71.0969 15.456 71.4209 15.608 71.4959 15.6657C71.5709 15.7204 71.7329 15.8146 71.7029 15.8906C71.6759 15.9666 71.6489 16.0943 71.6339 16.1368C71.6189 16.1794 71.6489 16.2159 71.5799 16.2432C71.5109 16.2706 71.2529 16.3405 71.2529 16.3405C71.2529 16.3405 71.2469 16.2766 71.2319 16.2432C71.2199 16.2098 71.1689 16.1459 71.0309 16.0608C70.8929 15.9757 70.4009 15.6809 70.2749 15.6171C70.1489 15.5532 69.8369 15.3861 69.7709 15.3222C69.7019 15.2615 69.5279 15.1125 69.4649 15.076C69.4049 15.0426 69.2789 14.9788 69.1949 15.0639C69.1289 15.1308 69.0989 15.2675 69.1379 15.3162C69.1799 15.3648 69.2729 15.4499 69.2729 15.4499C69.2729 15.4499 69.1889 15.5137 69.2039 15.5472C69.2159 15.5836 69.4379 15.7447 69.6059 15.8633C69.7739 15.9818 70.2089 16.2858 70.3199 16.3617C70.4309 16.4377 70.6649 16.5867 70.7429 16.6566C70.8179 16.7265 70.8389 16.7903 70.7819 16.8511C70.7279 16.9149 70.7069 16.9788 70.7069 16.9788C70.7069 16.9788 70.7129 17.0639 70.7129 17.0973C70.7129 17.1338 70.6979 17.1733 70.6979 17.1733C70.6979 17.1733 70.6619 17.2067 70.5719 17.2219C70.4849 17.2341 70.3529 17.2432 70.3529 17.2432C70.3529 17.2432 70.3229 17.2006 70.3319 17.1368C70.3379 17.073 70.2779 17.0304 70.1849 16.9484C70.0679 16.842 69.7349 16.611 69.5699 16.4924C69.4049 16.3739 69.0779 16.1551 69.0029 16.073C68.9279 15.9879 68.7869 15.7842 68.7119 15.7204C68.6339 15.6566 68.5319 15.5867 68.4419 15.6232C68.3519 15.6566 68.2559 15.7295 68.2409 15.8116C68.2289 15.8937 68.2139 15.9575 68.2679 16C68.3219 16.0426 68.3999 16.0912 68.3999 16.1186C68.3999 16.1459 68.3099 16.1672 68.3309 16.2159C68.3519 16.2645 68.6429 16.4833 68.7749 16.5958C68.9069 16.7082 69.3569 17.0669 69.4679 17.1642C69.5789 17.2614 69.7859 17.459 69.8159 17.5441C69.8429 17.6292 69.8279 17.8025 69.7949 17.8511C69.7589 17.8997 69.6629 17.921 69.5729 17.9362C69.4829 17.9514 69.3659 17.9635 69.3659 17.9635C69.3659 17.9635 69.4079 17.8572 69.3869 17.8146C69.3659 17.7721 69.1739 17.6444 69.0269 17.5259C68.8829 17.4073 68.4479 17.0365 68.2799 16.8937C68.1119 16.7538 67.9469 16.5836 67.8929 16.4651C67.8359 16.3465 67.7399 16.1855 67.6019 16.1855C67.4639 16.1855 67.3259 16.2067 67.2419 16.3192C67.1579 16.4317 67.1579 16.5502 67.2209 16.5988C67.2839 16.6475 67.3919 16.7174 67.3589 16.7386L67.2359 16.8177C67.2359 16.8177 67.3679 16.8967 67.5329 17.0426C67.7279 17.2098 68.0579 17.4833 68.1839 17.6049C68.3069 17.7234 68.5649 17.9696 68.6129 18.0122C68.6609 18.0547 68.7299 18.1793 68.7239 18.2705C68.7179 18.3617 68.7029 18.4803 68.6759 18.5289C68.6489 18.5775 68.6849 18.614 68.6159 18.6474C68.5469 18.6839 68.4149 18.6839 68.3669 18.6839C68.3189 18.6839 68.2769 18.6687 68.2769 18.6687C68.2769 18.6687 68.3939 18.5775 68.3879 18.535C68.3819 18.4955 68.2349 18.3465 68.1389 18.2614C68.0429 18.1763 67.5719 17.7721 67.3979 17.6079C67.2269 17.4468 66.9749 17.1946 66.9209 17.0395C66.8669 16.8845 66.8669 16.687 66.7739 16.5624C66.6839 16.4347 66.4859 16.2827 66.3929 16.1459C66.3029 16.0122 66.0059 15.5502 65.8679 15.2615C65.7269 14.9757 65.5829 14.7569 65.5499 14.5107C65.5169 14.2645 65.5439 14.1186 65.5019 14.0396C65.4599 13.9636 65.3639 13.842 65.3159 13.842C65.2559 13.8481 65.0969 13.8268 65.0969 13.8268Z" fill="white"/>
<path fill-rule="evenodd" clip-rule="evenodd" d="M66.2102 17.3218C66.2102 17.3218 66.5912 17.7655 66.6872 17.8476C66.7862 17.9327 66.9872 18.0573 67.0472 18.0938C67.1102 18.1272 67.3442 18.3674 67.4072 18.4433C67.4702 18.5193 67.6202 18.6683 67.6142 18.7594C67.6082 18.8506 67.5392 19.0968 67.4822 19.1515C67.4252 19.2093 67.3442 19.2792 67.2752 19.2883C67.2062 19.2944 67.0832 19.2731 67.0832 19.2731C67.0832 19.2731 67.2362 19.2336 67.2362 19.1698C67.2362 19.1059 67.2092 19.0512 67.0982 18.9388C66.9872 18.8263 66.9452 18.7838 66.8282 18.6227C66.7112 18.4616 66.6152 18.2914 66.6152 18.2914L66.5312 18.3187L66.4472 18.3248C66.4472 18.3248 66.4202 18.0573 66.3842 17.9114C66.3482 17.7655 66.3002 17.6348 66.2822 17.568C66.2522 17.4738 66.2102 17.3218 66.2102 17.3218Z" fill="white"/>
<path fill-rule="evenodd" clip-rule="evenodd" d="M66.1709 20.5049C66.1709 20.5049 66.2669 20.2739 66.2819 20.1827C66.2939 20.0915 66.3449 19.9304 66.3509 19.8878L66.3719 19.7754C66.3719 19.7754 66.5519 20.0125 66.6089 20.0824C66.6629 20.1523 66.8519 20.3012 66.9209 20.3985C66.9899 20.4957 67.3019 20.903 67.4339 21.0854C67.5659 21.2678 67.9379 21.7723 68.0069 21.8696C68.0759 21.9669 68.2859 22.2708 68.2709 22.3529C68.2589 22.4349 68.2439 22.5413 68.2019 22.6264C68.1599 22.7115 68.1179 22.8027 68.0759 22.8088C68.0339 22.8149 67.8329 22.8209 67.8329 22.8209C67.8329 22.8209 67.8869 22.745 67.8869 22.6933C67.8869 22.6447 67.7969 22.4988 67.6739 22.4288C67.5479 22.3589 67.3049 22.2252 67.2509 22.1614C67.1969 22.0975 67.0259 21.6416 66.9479 21.4805C66.8519 21.286 66.6839 20.9638 66.5789 20.8149C66.4739 20.666 66.4049 20.514 66.3659 20.4988C66.3239 20.4866 66.3449 20.5201 66.2819 20.5261C66.2159 20.5413 66.1709 20.5049 66.1709 20.5049Z" fill="white"/>
<path fill-rule="evenodd" clip-rule="evenodd" d="M66.489 19.4525C66.489 19.4525 66.744 19.5437 66.891 19.5437C67.038 19.5437 67.149 19.5498 67.182 19.5376C67.215 19.5224 67.278 19.41 67.425 19.3735C67.572 19.3401 67.707 19.3614 67.848 19.4647C67.986 19.5711 68.679 20.2732 68.781 20.3705C68.886 20.4677 69.336 20.9084 69.474 21.0422C69.612 21.1759 69.834 21.4008 69.876 21.492C69.915 21.5832 69.936 21.6622 69.903 21.7109C69.87 21.7595 69.819 21.796 69.798 21.8598C69.777 21.9236 69.762 22.0634 69.729 22.106C69.696 22.1485 69.648 22.1972 69.549 22.1972C69.453 22.1972 69.354 22.185 69.354 22.185C69.354 22.185 69.465 22.1212 69.465 22.0513C69.465 21.9814 69.432 21.8872 69.333 21.8324C69.237 21.7777 69.132 21.72 68.985 21.644C68.841 21.568 68.724 21.4616 68.619 21.3431C68.514 21.2245 68.274 20.8932 68.157 20.7595C68.04 20.6258 67.755 20.255 67.623 20.1273C67.491 20.0027 67.359 19.8811 67.194 19.8477C67.029 19.8142 66.987 19.8051 66.951 19.8051C66.915 19.8051 66.846 19.9176 66.861 19.9449C66.876 19.9723 66.795 19.9024 66.723 19.8112C66.654 19.72 66.489 19.4525 66.489 19.4525Z" fill="white"/>
<path fill-rule="evenodd" clip-rule="evenodd" d="M67.803 19.1303C67.803 19.1303 67.824 19.0817 67.83 19.0118C67.836 18.9419 67.851 18.8507 67.887 18.8568C67.92 18.8628 68.094 18.9449 68.211 18.9449C68.328 18.9449 68.343 18.9236 68.343 18.9236C68.343 18.9236 68.403 18.8173 68.55 18.7899C68.697 18.7625 68.745 18.7565 68.793 18.7565C68.841 18.7565 68.91 18.7413 69.063 18.8051C69.216 18.8689 69.639 19.2185 69.795 19.3461C69.954 19.4738 70.599 19.9844 70.779 20.1303C70.959 20.2792 71.166 20.4191 71.223 20.4738C71.277 20.5315 71.457 20.7048 71.418 20.7838C71.376 20.8598 71.286 20.951 71.265 21.0361C71.244 21.1212 71.238 21.2397 71.226 21.2883C71.214 21.337 71.115 21.3583 71.067 21.3522C71.019 21.3461 70.878 21.34 70.878 21.34C70.878 21.34 70.956 21.2853 70.977 21.2276C70.998 21.1698 70.956 21.106 70.878 21.0513C70.803 20.9966 70.677 20.9115 70.533 20.8415C70.386 20.7716 70.167 20.5832 69.987 20.4343C69.807 20.2884 69.336 19.8446 69.231 19.7473C69.126 19.647 68.802 19.3674 68.718 19.334C68.634 19.2975 68.394 19.2549 68.301 19.2367C68.211 19.2154 68.079 19.185 68.079 19.185C68.079 19.185 68.019 19.2762 67.992 19.2762C67.935 19.2762 67.944 19.2701 67.944 19.2701C67.944 19.2701 67.95 19.2701 67.902 19.2276C67.851 19.185 67.803 19.1303 67.803 19.1303Z" fill="white"/>
<path fill-rule="evenodd" clip-rule="evenodd" d="M68.9609 18.4225L68.9699 18.2979C68.9699 18.2979 69.0599 18.2644 69.1769 18.2644C69.2939 18.2644 69.4049 18.2705 69.5369 18.2219C69.6689 18.1733 69.6689 18.1885 69.7589 18.1307C69.8459 18.076 69.8909 18.0608 69.9809 18.0031C70.0679 17.9483 70.0499 17.8693 70.1039 17.8632C70.1579 17.8572 70.3259 17.8359 70.3739 17.8632C70.4219 17.8906 70.7759 18.1793 70.9829 18.304C71.1899 18.4316 71.8199 18.8237 72.0569 18.9696C72.2909 19.1185 72.6449 19.3131 72.7619 19.4194C72.8789 19.5258 72.9569 19.5836 72.9479 19.6808C72.9419 19.7781 72.8639 19.848 72.8249 19.924C72.7829 20 72.7919 20.0729 72.7619 20.1337C72.7349 20.1976 72.7139 20.2614 72.7139 20.2614L72.4229 20.3252C72.4229 20.3252 72.4979 20.2553 72.4859 20.1793C72.4739 20.1003 72.4229 20.0243 72.2969 19.9544C72.1709 19.8845 72.0059 19.8754 71.8679 19.8267C71.7299 19.7781 71.4869 19.6109 71.3429 19.4954C71.1959 19.383 70.8299 19.0973 70.6559 18.9787C70.4849 18.8602 70.2329 18.6565 70.1099 18.5988C69.9839 18.5441 69.7559 18.4954 69.6239 18.4863C69.4919 18.4802 69.3329 18.4924 69.3059 18.4863C69.2789 18.4802 69.2369 18.6353 69.1799 18.5836C69.1229 18.535 69.1019 18.5289 69.0329 18.4863C68.9669 18.4438 68.9609 18.4225 68.9609 18.4225Z" fill="white"/>
<path fill-rule="evenodd" clip-rule="evenodd" d="M70.6975 17.4529C70.6975 17.4529 70.8835 17.4407 70.9255 17.3556C70.9645 17.2705 70.9525 17.0881 70.9645 17.003C70.9795 16.9179 70.9705 16.8693 71.0065 16.8632C71.0395 16.8571 71.1325 16.9179 71.2195 16.927C71.3095 16.9331 71.4205 16.927 71.5675 17.003C71.7145 17.0821 72.3355 17.4103 72.6625 17.5501C72.9865 17.69 73.6375 18.0334 73.8385 18.1124C74.0395 18.1884 74.3695 18.3161 74.4205 18.4073C74.4685 18.4985 74.4955 18.5957 74.4415 18.6869C74.3875 18.7781 74.3455 18.8267 74.3665 18.8905C74.3875 18.9544 74.4415 19.0304 74.3935 19.0668C74.3455 19.1003 74.2285 19.1094 74.1505 19.1367C74.0755 19.1641 73.9915 19.1641 73.9915 19.1641C73.9915 19.1641 74.0605 19.1155 74.0455 19.0364C74.0335 18.9605 73.9645 18.8541 73.8175 18.8206C73.6705 18.7872 73.5055 18.7781 73.3735 18.7447C73.2415 18.7112 73.1245 18.6535 72.9235 18.5349C72.7225 18.4164 72.3145 18.1702 72.0985 18.0577C71.8855 17.9453 71.4895 17.7355 71.3515 17.6444C71.2135 17.5532 71.1655 17.5106 71.0965 17.4894C71.0275 17.4681 70.9375 17.462 70.8895 17.4772C70.8415 17.4893 70.6975 17.4529 70.6975 17.4529Z" fill="white"/>
<path fill-rule="evenodd" clip-rule="evenodd" d="M71.8618 16.316C71.8618 16.316 71.8948 16.2035 71.9158 16.0789C71.9368 15.9512 71.9098 15.8874 71.9518 15.8753C71.9938 15.8631 72.0628 15.8965 72.1528 15.8874C72.2428 15.8813 72.3358 15.8753 72.3958 15.9087C72.4588 15.9421 72.7648 16.0637 72.9148 16.1184C73.0678 16.1762 73.8568 16.4619 74.1208 16.5622C74.3818 16.6594 74.8618 16.8357 75.0688 16.9117C75.2758 16.9907 75.4168 17.009 75.4918 17.0789C75.5668 17.1488 75.6388 17.2491 75.6298 17.3889C75.6238 17.5287 75.6508 17.5713 75.5968 17.6412C75.5398 17.7111 75.5278 17.7263 75.5218 17.7688C75.5158 17.8084 75.5698 17.8874 75.5338 17.9299C75.5008 17.9725 75.4438 17.9786 75.3178 17.9998C75.1918 18.0211 75.1318 18.0333 75.1318 18.0333C75.1318 18.0333 75.2338 17.9208 75.1378 17.8296C75.0418 17.7385 75.0058 17.6807 74.7838 17.5986C74.5618 17.5135 74.2078 17.3676 74.0488 17.3038C73.8898 17.243 73.2028 16.9239 73.0108 16.854C72.8158 16.7841 72.4228 16.629 72.2848 16.5531C72.1468 16.4771 72.0898 16.4467 72.0508 16.392C72.0058 16.3373 71.8618 16.316 71.8618 16.316Z" fill="white"/>
<path fill-rule="evenodd" clip-rule="evenodd" d="M72.7197 15.1515C72.7197 15.1515 72.7077 14.808 72.7527 14.7929C72.8007 14.7777 72.9417 14.8202 73.0017 14.8141C73.0647 14.808 73.2357 14.808 73.3977 14.8506C73.5567 14.8932 74.4357 15.1181 74.7807 15.1941C75.1257 15.27 75.5907 15.3825 75.8817 15.4311C76.1727 15.4798 76.3647 15.4798 76.4277 15.5862C76.4907 15.6925 76.4817 15.9144 76.4757 16.036C76.4697 16.1545 76.5027 16.4068 76.4817 16.4433C76.4607 16.4767 76.3167 16.5405 76.2117 16.5831C76.1097 16.6226 76.0647 16.6439 76.0647 16.6439C76.0647 16.6439 76.1127 16.5162 76.0437 16.4281C75.9747 16.3369 75.7047 16.2244 75.5247 16.1758C75.3447 16.1272 74.8257 15.9509 74.5407 15.8688C74.2557 15.7837 73.7847 15.6226 73.6287 15.5801C73.4667 15.5375 73.2807 15.4889 73.1727 15.419C73.0617 15.3491 72.9447 15.2214 72.8967 15.1941C72.8517 15.1667 72.7197 15.1515 72.7197 15.1515Z" fill="white"/>
<path fill-rule="evenodd" clip-rule="evenodd" d="M73.3563 13.8814L73.3503 13.7476C73.3503 13.7476 73.5093 13.5926 73.5513 13.5926C73.5903 13.5926 73.7043 13.5713 73.8753 13.5865C74.0493 13.6017 74.7873 13.6899 75.0813 13.7415C75.3723 13.7902 76.1493 13.8966 76.3683 13.9239C76.5903 13.9513 76.9323 13.93 77.0403 13.9604C77.2263 14.009 77.1993 14.1762 77.2143 14.2947C77.2263 14.4163 77.2503 14.5956 77.2353 14.6443C77.2203 14.6929 77.1183 14.7932 77.0073 14.8753C76.8963 14.9604 76.7853 15.0242 76.7253 15.0576C76.6623 15.0911 76.7463 14.9117 76.6773 14.8388C76.6353 14.7962 76.5243 14.7415 76.3503 14.7051C76.1763 14.6716 75.9003 14.6048 75.7323 14.5713C75.5673 14.5379 74.9283 14.4102 74.6733 14.3616C74.4183 14.313 74.1273 14.2826 73.9533 14.2005C73.7793 14.1154 73.6713 13.9756 73.5723 13.933C73.4733 13.8966 73.3563 13.8814 73.3563 13.8814Z" fill="white"/>
<path fill-rule="evenodd" clip-rule="evenodd" d="M73.8629 12.9571C73.8629 12.9571 73.8149 12.8173 73.8149 12.7808C73.8149 12.7535 73.8269 12.7109 73.8269 12.7109C73.8269 12.7109 74.1089 12.7231 74.3039 12.6897C74.4989 12.6532 75.0719 12.565 75.4379 12.5073C75.8039 12.4526 76.4969 12.3249 76.7249 12.2824C76.9529 12.2428 77.2319 12.1912 77.3279 12.2337C77.4239 12.2763 77.4959 12.3735 77.5079 12.4708C77.5229 12.5681 77.5979 12.7869 77.6249 12.8781C77.6519 12.9693 77.7239 13.1091 77.7089 13.1517C77.6969 13.1942 77.5769 13.3401 77.4929 13.4191C77.4089 13.4951 77.2079 13.6927 77.2079 13.6927C77.2079 13.6927 77.2349 13.5316 77.1749 13.4343C77.1149 13.334 76.9889 13.2155 76.8299 13.1669C76.6709 13.1182 76.0199 13.0696 75.7889 13.0757C75.5609 13.0817 74.9999 13.0878 74.7359 13.0817C74.4719 13.0757 74.2319 13.027 74.1179 12.9754C74.0069 12.9267 74.0399 12.9419 73.9949 12.9267C73.9169 12.9024 73.8629 12.9571 73.8629 12.9571Z" fill="white"/>
<path fill-rule="evenodd" clip-rule="evenodd" d="M77.6008 13.714C77.6008 13.714 77.8708 13.4192 77.9398 13.3341C78.0088 13.249 78.0778 13.1426 78.1258 13.1304C78.1768 13.1183 78.3538 13.1396 78.4648 13.1031C78.6118 13.0545 79.5448 13.0605 79.7938 13.0545C80.0428 13.0484 81.7678 13.0484 82.1398 13.0484C82.5148 13.0484 84.9508 13.0149 85.3558 13.021C85.7578 13.0271 87.5218 13.021 87.9718 13.0089C88.4218 12.9967 90.5968 13.0089 91.1158 12.9876C91.6348 12.9663 94.3408 12.9541 94.7938 12.939C95.2438 12.9268 97.3348 12.8903 97.7158 12.8842C98.0968 12.8782 98.8498 12.863 99.0868 12.8508C99.3238 12.8356 99.5368 12.8083 99.6268 12.8204C99.7168 12.8326 99.7318 12.9268 99.7588 12.9845C99.7858 13.0393 99.9178 13.4678 99.9808 13.6563C100.041 13.8478 100.092 14.1 100.098 14.2186C100.104 14.3371 100.146 14.486 100.119 14.5134C100.092 14.5408 99.8428 14.6897 99.7918 14.7018C99.7438 14.717 99.6808 14.7292 99.6808 14.7292C99.6808 14.7292 99.7288 14.6471 99.6928 14.5742C99.6598 14.5043 99.5128 14.4009 99.4228 14.3857C99.3328 14.3705 99.2008 14.3979 99.0208 14.4678C98.8408 14.5377 98.3128 14.6927 98.0158 14.7566C97.7188 14.8173 97.5868 14.8629 97.0828 14.8751C96.5788 14.8873 95.4058 14.8812 94.9078 14.8629C94.4098 14.8417 92.9278 14.7991 92.2288 14.7626C91.5298 14.7262 89.7988 14.638 89.1958 14.6076C88.5928 14.5803 86.7388 14.4678 86.2948 14.4405C85.8508 14.4131 83.6848 14.2794 83.2318 14.2429C82.7818 14.2095 80.5168 14.0666 80.1508 14.0332C79.7818 13.9967 78.9958 13.942 78.7528 13.9268C78.5098 13.9146 78.1708 13.8842 78.0478 13.8508C77.9218 13.8174 77.9218 13.7657 77.8258 13.7444C77.7328 13.7201 77.6008 13.714 77.6008 13.714Z" fill="white"/>
<path fill-rule="evenodd" clip-rule="evenodd" d="M76.6799 15.4618C76.6799 15.4618 77.0009 15.2642 77.1359 15.1518C77.2739 15.0393 77.4329 14.936 77.4689 14.8357C77.5019 14.7384 77.5019 14.6807 77.5019 14.6807C77.5019 14.6807 78.4769 14.708 78.6989 14.7293C78.9209 14.7506 79.9949 14.8205 80.2769 14.8418C80.5589 14.863 82.2839 14.9877 82.8239 15.0241C83.3639 15.0606 85.7879 15.2278 86.2709 15.2551C86.7569 15.2825 88.6889 15.4041 89.1659 15.4314C89.6429 15.4588 91.4939 15.55 92.0969 15.5773C92.6999 15.6047 94.8029 15.6624 95.1659 15.6685C95.5259 15.6746 96.7019 15.6898 96.9119 15.6746C97.1189 15.6624 97.3739 15.6411 97.5149 15.6411C97.6529 15.6411 97.8119 15.6563 97.8179 15.8022C97.8269 15.9481 97.7969 16.5651 97.7369 16.7688C97.6739 16.9724 97.5359 17.3098 97.4309 17.401C97.3259 17.4922 97.1669 17.5773 97.1669 17.5773C97.1669 17.5773 97.2269 17.4435 97.1879 17.3676C97.1459 17.2916 97.0019 17.1761 96.8969 17.1852C96.7919 17.1913 96.1769 17.3463 95.8709 17.3828C95.5649 17.4162 95.0609 17.4739 94.6799 17.4679C94.2989 17.4618 93.4199 17.4253 92.9759 17.3919C92.5349 17.3584 91.3289 17.2642 90.7259 17.2034C90.1229 17.1396 88.4819 16.9572 87.7199 16.866C86.9579 16.7749 85.4189 16.5773 84.8819 16.5074C84.3419 16.4375 82.5809 16.1974 82.1099 16.1275C81.6389 16.0575 80.3789 15.8873 80.0339 15.8326C79.6859 15.7779 78.5999 15.6138 78.2879 15.5743C77.9759 15.5348 77.7809 15.4892 77.6429 15.4892C77.5049 15.4892 77.3999 15.477 77.2199 15.4892C77.0399 15.5013 77.0669 15.5013 76.9859 15.5013C76.9079 15.5013 76.8809 15.4952 76.7999 15.4892C76.7219 15.4831 76.6799 15.4618 76.6799 15.4618Z" fill="white"/>
<path fill-rule="evenodd" clip-rule="evenodd" d="M75.8489 17.0453C75.8489 17.0453 76.1099 16.9602 76.2569 16.8903C76.4039 16.8204 76.6379 16.7566 76.7069 16.638C76.7759 16.5195 76.7909 16.4891 76.7819 16.4131C76.7759 16.3371 76.7549 16.2642 76.7549 16.2642C76.7549 16.2642 77.2109 16.2915 77.3909 16.3067C77.5709 16.3219 78.4379 16.4556 78.7079 16.4891C78.9779 16.5256 80.3009 16.7353 80.6609 16.7839C81.0209 16.8325 83.4659 17.176 83.9429 17.2398C84.4199 17.3006 86.5139 17.5772 86.9009 17.6198C87.2879 17.6593 89.6429 17.9298 90.0089 17.9632C90.3749 17.9967 91.6979 18.1243 92.1539 18.1608C92.6099 18.1973 93.5879 18.252 94.0109 18.2581C94.4339 18.2641 94.7369 18.252 94.8479 18.2854C94.9589 18.3219 95.0429 18.3979 95.0219 18.4769C95.0009 18.5529 94.9109 19.2276 94.8689 19.3614C94.8269 19.4951 94.7579 19.7565 94.6949 19.8447C94.6349 19.9358 94.5839 20.0422 94.4819 20.0969C94.3769 20.1516 94.3379 20.1668 94.3379 20.1668C94.3379 20.1668 94.4129 20.0179 94.3709 19.9358C94.3289 19.8538 94.1759 19.7048 94.0859 19.6988C93.9959 19.6927 93.6479 19.7565 93.4199 19.7899C93.1919 19.8234 92.7719 19.8751 92.4839 19.8963C92.2019 19.9176 91.8419 19.945 91.6589 19.9389C91.4789 19.9328 91.1399 19.8963 90.8429 19.8568C90.5459 19.8143 89.4509 19.6592 89.0639 19.5954C88.6769 19.5346 87.4019 19.3097 86.8709 19.2094C86.3369 19.1121 84.4469 18.7261 84.0809 18.641C83.7149 18.559 82.3079 18.2489 81.9539 18.1638C81.5999 18.0818 80.0639 17.714 79.7099 17.6258C79.3559 17.5347 78.3749 17.3037 78.1109 17.2398C77.8469 17.176 77.3099 17.0423 77.1629 17.0149C77.0159 16.9876 76.8509 16.945 76.7249 16.9784C76.5989 17.0149 76.3439 17.0909 76.2629 17.1213C76.1789 17.1486 76.1669 17.1638 76.0409 17.1426C75.9209 17.1183 75.8489 17.0453 75.8489 17.0453Z" fill="white"/>
<path fill-rule="evenodd" clip-rule="evenodd" d="M74.658 18.401C74.658 18.401 74.913 18.3888 75.033 18.3615C75.15 18.3341 75.447 18.2703 75.582 18.2278C75.714 18.1852 75.762 18.1639 75.777 18.094C75.789 18.0241 75.762 17.8357 75.783 17.7566C75.804 17.6807 75.837 17.5864 75.837 17.5864C75.837 17.5864 76.122 17.6503 76.239 17.6563C76.356 17.6624 76.758 17.7475 76.923 17.7901C77.091 17.8326 78.987 18.3159 79.284 18.3949C79.581 18.4709 81.75 19.0059 82.122 19.0819C82.497 19.1578 84.261 19.5499 84.657 19.635C85.053 19.7201 87.675 20.2095 88.113 20.2794C88.551 20.3493 90.045 20.5864 90.399 20.6229C90.753 20.6563 91.266 20.714 91.368 20.7414C91.473 20.7688 91.569 20.8113 91.548 20.939C91.521 21.1153 91.374 21.4648 91.293 21.632C91.212 21.7991 91.08 22.1031 90.933 22.2703C90.786 22.4374 90.69 22.5712 90.594 22.635C90.498 22.6988 90.462 22.7171 90.462 22.7171C90.462 22.7171 90.546 22.5924 90.525 22.5073C90.504 22.4253 90.378 22.3098 90.255 22.2885C90.129 22.2672 89.859 22.2824 89.592 22.2824C89.325 22.2824 88.533 22.2459 87.84 22.1396C87.15 22.0362 86.088 21.8599 85.377 21.6897C84.663 21.5195 83.646 21.2763 82.917 21.0636C82.191 20.8539 80.994 20.5104 80.238 20.252C79.485 19.9907 78.516 19.6685 78.093 19.5135C77.67 19.3584 76.431 18.9177 76.236 18.8387C76.041 18.7627 75.912 18.7323 75.765 18.7202C75.621 18.708 75.441 18.7414 75.288 18.7202C75.135 18.6989 74.949 18.6502 74.865 18.6229C74.781 18.5955 74.721 18.5743 74.685 18.5104C74.646 18.4557 74.658 18.401 74.658 18.401Z" fill="white"/>
<path fill-rule="evenodd" clip-rule="evenodd" d="M73.2176 19.6347C73.2176 19.6347 73.6826 19.5222 73.9166 19.431C74.1146 19.355 74.3726 19.2426 74.5946 19.2639C74.8166 19.2851 75.2936 19.4462 75.5636 19.5496C75.8336 19.656 76.7966 19.9994 77.0516 20.0967C77.3066 20.197 79.5086 20.9447 79.8626 21.0572C80.2166 21.1696 82.1276 21.7441 82.5296 21.8565C82.9316 21.969 84.7736 22.4462 85.2086 22.5374C85.6436 22.6286 86.3636 22.7623 86.5856 22.8049C86.8076 22.8444 87.0146 22.9021 87.0356 23.0085C87.0566 23.1149 87.0416 23.282 87.0026 23.3672C86.9636 23.4523 86.8916 23.7258 86.8286 23.893C86.7656 24.0602 86.6816 24.279 86.5946 24.3763C86.5046 24.4735 86.3036 24.5161 86.3036 24.5161C86.3036 24.5161 86.4086 24.4462 86.3936 24.3398C86.3786 24.2364 86.3456 24.1848 86.2616 24.1301C86.1776 24.0723 86.1296 24.0237 86.0126 24.0176C85.8956 24.0115 85.5896 24.045 85.3556 24.0571C85.1186 24.0723 84.3086 24.0723 83.9906 24.0723C83.6726 24.0723 83.3546 24.0936 83.1176 24.0662C82.8806 24.0389 82.5926 23.9872 82.2236 23.8839C81.8546 23.7805 80.9486 23.4401 80.5466 23.282C80.1446 23.1179 78.9476 22.5799 78.6296 22.434C78.3116 22.2851 77.1206 21.6894 76.7246 21.4857C76.3316 21.2821 75.7706 20.9994 75.4646 20.8322C75.1616 20.6651 74.5016 20.3003 74.3306 20.2152C74.1596 20.1301 73.9706 20.0693 73.8236 20.0389C73.6796 20.0116 73.4696 19.9265 73.4096 19.8991C73.3466 19.8718 73.1936 19.8292 73.1936 19.8292L73.2176 19.6347Z" fill="white"/>
<path fill-rule="evenodd" clip-rule="evenodd" d="M71.6881 20.6959C71.6881 20.6959 72.1801 20.5835 72.3031 20.5348C72.4261 20.4862 72.6991 20.4224 72.8011 20.4437C72.9031 20.4649 73.2631 20.6412 73.4791 20.7598C73.6921 20.8813 74.6431 21.392 74.9491 21.5531C75.2521 21.7172 76.5061 22.3676 76.7911 22.5075C77.0761 22.6473 77.9971 23.1123 78.3271 23.2582C78.6601 23.4071 79.8091 23.9239 80.1361 24.0576C80.4361 24.1822 80.9191 24.3615 81.1951 24.4588C81.4711 24.5561 81.8251 24.6625 81.9901 24.7111C82.1581 24.7597 82.4461 24.8387 82.4671 24.9147C82.4881 24.9938 82.4881 25.1062 82.4341 25.2248C82.3801 25.3433 82.2481 25.7141 82.1851 25.8357C82.1221 25.9542 82.0201 26.1883 81.9301 26.2703C81.8401 26.3524 81.7981 26.398 81.7441 26.4102C81.6901 26.4223 81.6841 26.4162 81.6841 26.4162C81.6841 26.4162 81.7861 26.2916 81.7861 26.2399C81.7861 26.1913 81.7231 26.0211 81.6391 25.9664C81.5581 25.9117 81.4441 25.8539 81.3571 25.8539C81.2671 25.8539 80.9821 25.8539 80.7151 25.8266C80.4451 25.7992 80.0011 25.7415 79.6771 25.6716C79.3501 25.6016 79.1281 25.5652 78.8581 25.4466C78.5881 25.3281 77.9911 25.012 77.6821 24.8296C77.3701 24.6473 76.3801 24.0302 76.0681 23.8175C75.7741 23.6199 74.3521 22.5895 74.1361 22.4376C73.9231 22.2825 73.4101 21.9057 73.2031 21.7446C72.9961 21.5835 72.6991 21.3433 72.5791 21.2886C72.4621 21.2339 72.1141 21.1063 71.9941 21.0576C71.8771 21.009 71.7451 20.9665 71.7121 20.8905C71.6731 20.8084 71.6881 20.6959 71.6881 20.6959Z" fill="white"/>
<path fill-rule="evenodd" clip-rule="evenodd" d="M70.179 21.6201C70.179 21.6201 70.449 21.6322 70.566 21.6079C70.683 21.5806 70.932 21.5076 71.01 21.5076C71.085 21.5076 71.232 21.4802 71.37 21.541C71.508 21.6049 71.862 21.8085 72.042 21.9574C72.222 22.1064 72.975 22.693 73.212 22.8693C73.449 23.0456 74.583 23.8602 74.811 24.0182C75.039 24.1793 76.071 24.8753 76.347 25.0425C76.626 25.2127 77.136 25.5258 77.385 25.6747C77.634 25.8237 77.913 25.9635 77.988 26.0395C78.063 26.1185 78.162 26.1945 78.084 26.3708C78.006 26.544 77.787 26.9027 77.73 26.9878C77.676 27.0729 77.52 27.2248 77.448 27.2796C77.37 27.3373 77.337 27.3495 77.337 27.3495C77.337 27.3495 77.454 27.2157 77.433 27.1245C77.412 27.0334 77.358 26.8996 77.22 26.8236C77.082 26.7477 76.806 26.7173 76.596 26.6686C76.389 26.62 75.618 26.4315 75.321 26.3464C75.021 26.2613 74.772 26.1914 74.586 26.0516C74.4 25.9118 73.908 25.4498 73.674 25.231C73.44 25.0152 72.939 24.538 72.654 24.2766C72.372 24.0182 71.787 23.462 71.58 23.2614C71.373 23.0577 70.803 22.5532 70.707 22.4407C70.611 22.3283 70.377 22.1033 70.305 22.0334C70.236 21.9635 70.182 21.9696 70.14 21.8997C70.098 21.8298 70.119 21.7264 70.134 21.696C70.152 21.6687 70.179 21.6201 70.179 21.6201Z" fill="white"/>
<path fill-rule="evenodd" clip-rule="evenodd" d="M68.4392 22.7932L68.5022 22.5834C68.5232 22.5135 68.5232 22.471 68.5232 22.471C68.5232 22.471 68.7662 22.4831 68.9582 22.4588C69.1532 22.4315 69.2552 22.3828 69.4202 22.395C69.5882 22.4102 69.6632 22.4436 69.7472 22.6138C69.8312 22.784 70.0802 23.0545 70.2512 23.2248C70.4252 23.3919 71.2622 24.1761 71.5202 24.4253C71.7752 24.6715 72.5852 25.4497 72.8702 25.708C73.1522 25.9664 73.5392 26.3098 73.6442 26.4162C73.7492 26.5226 73.9922 26.7597 74.0462 26.8296C74.1002 26.8995 74.0852 27.0393 74.0252 27.1426C73.9652 27.249 73.8302 27.4648 73.7342 27.559C73.6382 27.6502 73.4282 27.7961 73.4282 27.7961C73.4282 27.7961 73.5062 27.6411 73.4852 27.5712C73.4642 27.5013 73.3112 27.3615 73.2002 27.3189C73.0892 27.2794 72.6122 27.1487 72.4052 27.0879C72.1982 27.0241 71.7392 26.8417 71.6162 26.7445C71.4902 26.6472 70.9442 25.9816 70.8182 25.8265C70.6922 25.6715 70.2152 25.0424 70.0502 24.8235C69.8822 24.6077 69.5162 24.088 69.3152 23.8296C69.1142 23.5682 68.8052 23.1549 68.7212 23.0697C68.6372 22.9877 68.6252 22.9421 68.5472 22.8874C68.4752 22.8266 68.4392 22.7932 68.4392 22.7932Z" fill="white"/>
<path fill-rule="evenodd" clip-rule="evenodd" d="M66.7441 23.0181C66.7441 23.0181 67.0471 23.0576 67.2211 23.0576C67.3951 23.0576 67.5541 23.0363 67.6321 23.0515C67.7071 23.0667 67.8061 23.0576 67.8811 23.1488C67.9561 23.2399 67.9981 23.401 68.0341 23.4922C68.0701 23.5834 68.6221 24.3767 68.7121 24.5013C68.8021 24.6259 69.1951 25.1609 69.3691 25.3919C69.5431 25.6229 70.0141 26.2338 70.1491 26.4162C70.2871 26.5986 70.5661 26.8843 70.6351 26.9907C70.7041 27.097 70.8841 27.3554 70.9111 27.4131C70.9411 27.4679 70.8691 27.5469 70.8301 27.6016C70.7881 27.6593 70.7071 27.7566 70.6231 27.8387C70.5391 27.9238 70.4161 28.015 70.3801 28.0271C70.3471 28.0423 70.3951 27.9299 70.4011 27.866C70.4071 27.8022 70.3681 27.7232 70.2631 27.6411C70.1191 27.5286 69.9091 27.4435 69.7501 27.3828C69.5911 27.3189 69.2551 27.2186 69.0301 27.1214C68.8171 27.0302 68.7001 26.9663 68.6131 26.8691C68.5021 26.7414 68.2741 26.3159 68.1421 26.0758C68.0101 25.8387 67.6231 25.1001 67.5241 24.9056C67.4281 24.708 67.3771 24.5895 67.3651 24.4709C67.3501 24.3524 67.3441 23.9177 67.3021 23.8053C67.2601 23.6928 67.1341 23.4953 67.0591 23.4345C66.9811 23.3706 66.9541 23.3646 66.9211 23.3433C66.8851 23.322 66.7681 23.2886 66.7681 23.2886C66.7681 23.2886 66.7531 23.1336 66.7531 23.1001C66.7591 23.0667 66.7441 23.0181 66.7441 23.0181Z" fill="white"/>
<path fill-rule="evenodd" clip-rule="evenodd" d="M66.6388 25.3252C66.6388 25.3252 66.8338 25.6565 66.8998 25.7659C66.9688 25.8784 67.1488 26.1185 67.2388 26.2978C67.3288 26.4802 67.6078 26.9422 67.6828 27.0972C67.7578 27.2522 67.8568 27.392 67.8418 27.5531C67.8268 27.7142 67.6948 27.9057 67.6558 27.9817C67.6138 28.0607 67.6078 28.1458 67.5088 28.2188C67.4128 28.2978 67.2598 28.3252 67.2598 28.3252C67.2598 28.3252 67.3558 28.2279 67.3648 28.1367C67.3708 28.0455 67.2958 27.9118 67.2478 27.848C67.1998 27.7872 67.0888 27.6717 66.9658 27.6109C66.8398 27.5501 66.5908 27.4133 66.5638 27.3373C66.5368 27.2613 66.5278 27.1762 66.5908 27.0212C66.6748 26.8176 66.6598 26.6139 66.6268 26.4528C66.5908 26.2887 66.5638 26.2431 66.5368 26.1854C66.5098 26.1307 66.4468 26.0942 66.4468 26.0942C66.4468 26.0942 66.5428 25.7355 66.5638 25.6443L66.6388 25.3252Z" fill="white"/>
<path fill-rule="evenodd" clip-rule="evenodd" d="M59.2734 32.7901C59.2734 32.7901 59.7384 32.6168 59.9514 32.5165C60.1674 32.4193 60.5814 32.2369 60.8514 32.1092C61.1364 31.9755 61.8774 31.5621 62.1954 31.3585C62.5134 31.1548 62.9214 30.8691 63.2544 30.5865C63.5874 30.3068 64.1214 29.8083 64.3344 29.5956C64.5504 29.3859 65.0544 28.781 65.2074 28.5591C65.3604 28.3342 65.6214 27.9148 65.6214 27.9148L66.2034 28.2096C66.4524 28.3342 66.7224 28.4558 66.9024 28.4831C67.0824 28.5105 67.1994 28.5318 67.3794 28.5166C67.5594 28.5014 67.6284 28.4679 67.7274 28.3555C67.8234 28.243 67.9344 28.0455 67.9764 27.9391C68.0184 27.8357 68.0814 27.6929 68.0814 27.6929C68.0814 27.6929 68.3034 27.7962 68.4414 27.8479L69.1134 28.085C69.2934 28.1458 69.5574 28.1974 69.6594 28.2734C69.7644 28.3494 69.7914 28.4071 69.7854 28.4831C69.7764 28.5622 69.7014 28.7506 69.6324 28.8904C69.5634 29.0333 69.2994 29.5925 69.1944 29.781C69.0894 29.9725 68.6694 30.6655 68.4534 30.9725C68.2404 31.2795 67.5534 32.1518 67.2954 32.398C67.0404 32.6442 66.7284 32.9664 66.5424 33.0636C66.3564 33.1609 66.0594 33.2186 65.8584 33.3433L64.8054 34.0089C64.5294 34.1852 64.1334 34.4223 63.8514 34.5712C63.5664 34.7171 62.8614 35.0758 62.6454 35.1821C62.4294 35.2885 62.1384 35.4131 62.0004 35.477C61.8624 35.5378 61.7514 35.5955 61.6404 35.5894C61.5294 35.5833 61.4544 35.5043 61.4064 35.4131C61.3584 35.322 61.0194 34.7323 60.8934 34.5013C60.7704 34.2703 60.2934 33.4496 60.2034 33.3007C60.1044 33.1457 60.0654 33.0697 59.8494 32.9846C59.7084 32.9299 59.6634 32.9086 59.5944 32.9086C59.5254 32.9086 59.4804 32.9177 59.3784 32.8873C59.3064 32.8752 59.2734 32.7901 59.2734 32.7901Z" fill="white"/>
<path fill-rule="evenodd" clip-rule="evenodd" d="M57.6873 33.246C57.6873 33.246 58.0683 33.1487 58.2543 33.0849C58.4403 33.021 58.6503 32.9451 58.7793 32.9147C58.9113 32.8873 58.9653 32.8812 59.0343 32.9511C59.1033 33.021 59.1663 33.1548 59.2023 33.252C59.2353 33.3493 59.6253 34.0302 59.7543 34.2642C59.8863 34.4952 60.2553 35.1396 60.3663 35.3432C60.4773 35.5468 60.8703 36.1912 60.9543 36.3341C61.0383 36.4739 61.1343 36.6623 61.2033 36.7778C61.2723 36.8903 61.3833 37.1487 61.4313 37.255C61.4793 37.3584 61.5213 37.4435 61.4853 37.5347C61.4523 37.6258 61.2213 38.0392 61.1733 38.1456C61.1253 38.252 60.9093 38.635 60.9093 38.635C60.9093 38.635 60.8883 38.3188 60.8343 38.1638C60.7773 38.0088 60.7173 37.9116 60.6063 37.8356C60.4953 37.7596 60.2793 37.7079 60.1953 37.6471C60.1143 37.5833 60.0363 37.5286 59.9343 37.3158C59.8293 37.1061 59.5503 36.3432 59.4573 36.1031C59.3523 35.8356 59.0073 34.9511 58.8903 34.6593C58.7733 34.3645 58.5783 33.8599 58.4883 33.7414C58.3983 33.6229 58.1643 33.4466 58.0863 33.4405C58.0113 33.4344 57.9063 33.4131 57.8793 33.4192C57.8493 33.4253 57.7623 33.4344 57.7623 33.4344L57.6873 33.246Z" fill="white"/>
<path fill-rule="evenodd" clip-rule="evenodd" d="M70.0892 28.4188C70.0892 28.4188 70.2602 28.4309 70.3442 28.3914C70.4282 28.3488 70.6292 28.1938 70.7612 28.0692C70.8932 27.9446 71.0432 27.7744 71.0942 27.6893C71.1422 27.6042 71.1632 27.5859 71.1632 27.5859C71.1632 27.5859 71.2322 27.6072 71.2322 27.6558C71.2322 27.7045 71.0942 28.1665 71.0492 28.2881C71.0102 28.4096 70.8632 28.8017 70.7672 29.0115C70.6712 29.2212 70.3592 29.8321 70.2482 30.0358C70.1372 30.2394 69.6332 31.0479 69.4232 31.3336C69.2162 31.6224 68.5862 32.4065 68.3912 32.6254C68.1962 32.8442 67.4282 33.6011 67.2422 33.7834C67.0532 33.9658 65.6972 34.8716 65.4362 35.0326C65.1722 35.1937 64.3082 35.7044 64.1042 35.8199C63.9032 35.9323 63.2942 36.2272 63.0872 36.3305C62.8802 36.4369 62.3372 36.6952 62.2082 36.7226C62.0762 36.7499 61.9262 36.7226 61.8062 36.7104C61.6892 36.6952 61.6322 36.6952 61.5932 36.6952C61.5512 36.6952 61.3982 36.7165 61.3982 36.7165L61.3352 36.6132C61.3352 36.6132 61.8392 36.4095 62.0972 36.2849C62.3522 36.1573 63.4532 35.6375 63.7652 35.4551C64.0772 35.2728 64.7282 34.902 65.0612 34.677C65.3942 34.4521 66.1892 33.8625 66.4802 33.6041C66.7712 33.3457 67.6022 32.5251 67.7462 32.3397C67.8932 32.1573 68.5562 31.5342 68.7092 31.3731C68.8622 31.212 69.1382 30.9567 69.3212 30.6862C69.5252 30.3823 69.9632 29.6589 70.0562 29.4461C70.1432 29.2364 70.2482 29.0662 70.2272 28.978C70.2062 28.8868 70.2002 28.8017 70.1732 28.7896C70.1432 28.7774 69.9932 28.7318 69.9932 28.7318L70.0562 28.5434C70.0742 28.4674 70.0892 28.4188 70.0892 28.4188Z" fill="white"/>
<path fill-rule="evenodd" clip-rule="evenodd" d="M56.1838 33.5345C56.1838 33.5345 56.3458 33.5406 56.4898 33.492C56.6368 33.4434 56.9668 33.3035 57.1078 33.2883C57.2458 33.2731 57.4528 33.2731 57.4888 33.3309C57.5218 33.3886 57.5728 33.5285 57.6358 33.7017C57.6988 33.878 58.1068 34.9297 58.2028 35.2093C58.2988 35.4889 58.7578 36.6044 58.8388 36.8354C58.9198 37.0694 59.1358 37.5801 59.1628 37.6865C59.1898 37.7928 59.2858 38.0725 59.2678 38.1545C59.2468 38.2366 59.0818 38.498 58.9828 38.6439C58.8868 38.7928 58.5478 39.2548 58.5478 39.2548C58.5478 39.2548 58.5268 39.0694 58.5628 39.0147C58.5958 38.957 58.6318 38.8384 58.6108 38.7746C58.5898 38.7108 58.5118 38.5162 58.4098 38.4311C58.3048 38.346 58.1098 38.2761 58.0078 38.1789C57.9058 38.0786 57.8548 38.0512 57.7798 37.7412C57.7018 37.4342 57.5098 36.6074 57.4468 36.3613C57.3838 36.1151 57.1348 34.9509 57.0718 34.7199C57.0088 34.4889 56.9548 34.182 56.8618 34.0604C56.7718 33.9388 56.5858 33.7716 56.5078 33.7564C56.4328 33.7443 56.3428 33.7503 56.3128 33.7503C56.2858 33.7503 56.2348 33.7564 56.2348 33.7564L56.1838 33.5345Z" fill="white"/>
<path fill-rule="evenodd" clip-rule="evenodd" d="M54.7441 33.6649C54.7441 33.6649 55.0141 33.6376 55.1191 33.6102C55.2211 33.5798 55.5061 33.519 55.6741 33.519C55.8391 33.519 55.9981 33.5616 56.0281 33.6649C56.0551 33.7713 56.0971 34.0722 56.1181 34.206C56.1391 34.3397 56.4361 35.6284 56.4721 35.8169C56.5051 36.0053 56.8531 37.3944 56.8861 37.598C56.9191 37.8017 57.0391 38.288 57.0301 38.3974C57.0241 38.5099 57.0361 38.6071 57.0181 38.6436C56.9971 38.6801 56.7901 38.9506 56.6851 39.057C56.5801 39.1633 56.2141 39.6345 56.2141 39.6345C56.2141 39.6345 56.1811 39.5007 56.2291 39.4369C56.2771 39.3731 56.3821 39.2819 56.3671 39.1785C56.3521 39.0752 56.2561 38.8776 56.1661 38.7925C56.0761 38.7074 55.8751 38.6041 55.7851 38.5038C55.6951 38.4065 55.6471 38.3275 55.6261 38.0965C55.6051 37.8655 55.5151 36.6436 55.4881 36.2454C55.4611 35.8442 55.3771 34.7288 55.3501 34.5616C55.3231 34.3944 55.2961 34.2303 55.1851 34.1209C55.0741 34.0084 54.9631 33.9506 54.8941 33.9294C54.8251 33.9081 54.7561 33.902 54.7561 33.902L54.7441 33.6649Z" fill="white"/>
<path fill-rule="evenodd" clip-rule="evenodd" d="M53.25 33.68C53.25 33.68 53.526 33.6861 53.589 33.6648C53.649 33.6435 53.922 33.6071 54.114 33.6162C54.309 33.6253 54.519 33.6709 54.531 33.7773C54.543 33.8837 54.552 34.2241 54.558 34.4368C54.564 34.6496 54.648 35.7347 54.654 35.911C54.66 36.0873 54.753 37.3 54.771 37.5949C54.792 37.8897 54.834 38.4581 54.825 38.5705C54.819 38.683 54.819 38.8228 54.819 38.8228C54.819 38.8228 54.501 39.1602 54.396 39.2514C54.291 39.3426 53.919 39.6647 53.919 39.6647C53.919 39.6647 53.973 39.5036 54.03 39.4337C54.084 39.3638 54.135 39.2514 54.093 39.1815C54.051 39.1115 53.766 38.8076 53.676 38.7377C53.586 38.6708 53.469 38.5128 53.454 38.3669C53.442 38.221 53.508 37.2453 53.553 36.838C53.592 36.4307 53.649 35.5128 53.676 35.1967C53.703 34.8806 53.745 34.5037 53.691 34.37C53.634 34.2362 53.532 34.0751 53.448 34.0326C53.364 33.9931 53.241 33.9688 53.241 33.9688L53.25 33.68Z" fill="white"/>
<path fill-rule="evenodd" clip-rule="evenodd" d="M51.7648 33.589C51.7648 33.589 51.9658 33.589 52.0618 33.5829C52.1578 33.5768 52.2478 33.5555 52.4068 33.5616C52.5688 33.5677 52.6918 33.5616 52.8088 33.6011C52.9258 33.6437 53.0158 33.7075 53.0038 33.9051C52.9888 34.0996 52.9408 34.7957 52.9198 34.9932C52.8988 35.1908 52.7818 36.6072 52.7818 36.7409C52.7818 36.8747 52.7398 37.4917 52.7248 37.6953C52.7158 37.8534 52.6558 38.2363 52.6408 38.3822C52.6288 38.5281 52.5508 38.7743 52.5508 38.8047C52.5508 38.8321 52.5298 38.8807 52.5298 38.8807C52.5298 38.8807 52.2748 39.0935 52.1848 39.133C52.0948 39.1755 52.0948 39.0843 52.0378 39.0296C51.9838 38.9719 51.9058 38.9658 51.7738 38.902C51.6418 38.8382 51.4408 38.6406 51.3508 38.5038C51.2608 38.364 51.2308 38.2242 51.2878 37.9932C51.3418 37.7622 51.5368 36.9598 51.5998 36.674C51.6598 36.3853 51.8488 35.5859 51.9088 35.3063C51.9718 35.0267 52.0828 34.5829 52.0828 34.4309C52.0828 34.2759 52.0348 34.13 51.9508 34.051C51.8668 33.975 51.8518 33.9598 51.7978 33.9385C51.7438 33.9172 51.6868 33.902 51.6868 33.902L51.7648 33.589Z" fill="white"/>
<path fill-rule="evenodd" clip-rule="evenodd" d="M50.2619 33.3369C50.2619 33.3369 50.4629 33.3582 50.5589 33.3582C50.6549 33.3582 50.8229 33.3369 51.0089 33.3764C51.1979 33.419 51.4199 33.4555 51.4469 33.5406C51.4739 33.6226 51.5159 33.7169 51.4679 33.8992C51.4199 34.0816 51.0929 35.4494 51.0389 35.6804C50.9819 35.9114 50.7329 36.9995 50.6909 37.1818C50.6489 37.3642 50.5109 37.9903 50.4689 38.1271C50.4269 38.2669 50.3459 38.5344 50.3309 38.5648C50.3189 38.5922 50.1149 38.6985 50.0669 38.7198C50.0189 38.7411 49.9499 38.7745 49.9499 38.7745C49.9499 38.7745 50.0249 38.6621 49.9979 38.5922C49.9709 38.5223 49.8929 38.4463 49.7909 38.4463C49.6889 38.4463 49.5689 38.5314 49.4879 38.501C49.4039 38.4736 49.2749 38.4159 49.1759 38.1849C49.0799 37.9539 49.0709 37.9174 49.1069 37.7442C49.1429 37.5679 49.5719 36.5314 49.6619 36.2852C49.7519 36.042 50.1389 35.0208 50.2379 34.7776C50.3339 34.5314 50.4659 34.2092 50.4599 34.112C50.4539 34.0117 50.3759 33.8506 50.3279 33.802C50.2799 33.7533 50.2109 33.7229 50.1809 33.732C50.1539 33.7412 50.1209 33.7108 50.1209 33.7108L50.2619 33.3369Z" fill="white"/>
<path fill-rule="evenodd" clip-rule="evenodd" d="M48.7888 32.9297C48.7888 32.9297 48.9358 32.9783 49.0798 32.9783C49.2268 32.9783 49.3768 32.9722 49.5418 33.0209C49.7098 33.0695 49.9318 33.2032 49.9648 33.2944C49.9978 33.3856 49.9168 33.5619 49.8178 33.7777C49.7218 33.9935 49.2718 35.2093 49.1668 35.4676C49.0618 35.726 48.6058 36.8901 48.5428 37.0543C48.4798 37.2153 48.2788 37.7047 48.2158 37.8324C48.1558 37.96 48.1048 38.0846 48.1048 38.0846L47.8498 38.1637C47.8498 38.1637 47.9188 38.0573 47.8768 37.9965C47.8378 37.9327 47.7058 37.7989 47.6278 37.7928C47.5528 37.7868 47.4478 37.808 47.3578 37.8415C47.2468 37.884 47.1148 37.884 47.0668 37.7928C47.0188 37.7017 46.8778 37.4403 46.8658 37.3795C46.8538 37.3156 46.8028 37.2245 46.8718 37.0907C46.9408 36.957 47.3908 36.1151 47.4868 35.96C47.5828 35.805 48.1108 34.9084 48.2278 34.6895C48.3448 34.4737 48.6388 33.9753 48.6928 33.8628C48.7468 33.7503 48.7828 33.6592 48.7408 33.5741C48.6988 33.4889 48.6988 33.4464 48.6508 33.4251C48.6028 33.4038 48.5188 33.3886 48.5188 33.3886L48.7888 32.9297Z" fill="white"/>
<path fill-rule="evenodd" clip-rule="evenodd" d="M54.129 29.8568H54.012C52.497 29.8568 50.781 29.4282 50.781 26.9541C50.781 24.4709 52.467 23.9815 54.069 23.9663C55.599 23.9785 57.222 24.5468 57.222 26.9541C57.222 29.1304 55.719 29.8568 54.129 29.8568Z" fill="black"/>
<path fill-rule="evenodd" clip-rule="evenodd" d="M53.8198 33.3977C46.5898 33.3977 41.1238 28.884 41.1238 23.7564C41.1238 18.6289 46.5898 14.1152 53.8198 14.1152C61.0498 14.1152 66.5158 18.6289 66.5158 23.7564C66.5188 28.881 61.0498 33.3977 53.8198 33.3977Z" fill="white"/>
<path fill-rule="evenodd" clip-rule="evenodd" d="M53.8018 17.5771C55.5508 17.5923 56.7268 18.3097 56.7268 20.2701C56.7268 22.3187 55.4938 22.9783 53.8018 22.9905C52.1848 22.9813 50.8738 22.3947 50.8738 20.2701C50.8738 18.3856 52.2028 17.5893 53.8018 17.5771Z" fill="black"/>
<path fill-rule="evenodd" clip-rule="evenodd" d="M58.7489 23.2648C60.4889 22.2648 60.8489 21.2526 60.7169 20.0642C60.4799 17.9214 57.5819 16.3895 53.7419 16.4351C49.1219 16.4898 46.3259 18.8363 46.3259 19.4472C46.3259 20.0612 47.2409 20.2162 47.2409 20.5475V26.9972C47.2499 27.3985 46.3799 27.8422 46.3799 28.289C46.3799 28.751 49.3559 30.9729 54.2789 30.9455C58.6049 30.9212 61.0919 29.0823 61.1129 26.8848C61.1249 25.6964 60.4409 24.0915 58.7459 23.2952V23.2648H58.7489Z" fill="black"/>
<path fill-rule="evenodd" clip-rule="evenodd" d="M53.8258 14.562C61.1338 14.562 66.1048 19.182 66.1048 23.7838C66.1048 28.3886 61.1338 33.0055 53.8258 33.0055C46.5178 33.0055 41.5498 28.3855 41.5498 23.7838C41.5468 19.182 46.5178 14.562 53.8258 14.562Z" fill="black"/>
<path fill-rule="evenodd" clip-rule="evenodd" d="M53.8019 17.5779C55.5509 17.5931 56.7269 18.3104 56.7269 20.2709C56.7269 22.3195 55.4969 22.9791 53.8019 22.9912C52.1849 22.9821 50.8739 22.3955 50.8739 20.2709C50.8739 18.3864 52.2029 17.5901 53.8019 17.5779ZM58.7489 23.2648C60.4889 22.2648 60.8489 21.2526 60.7169 20.0642C60.4799 17.9214 57.5789 16.3895 53.7419 16.4351C49.1219 16.4898 46.3259 18.8363 46.3259 19.4472C46.3259 20.0612 47.2409 20.2162 47.2409 20.5475V26.9972C47.2499 27.3985 46.3799 27.8422 46.3799 28.286C46.3799 28.748 49.3559 30.9698 54.2789 30.9425C58.6049 30.9182 61.0919 29.0793 61.1129 26.8817C61.1249 25.6933 60.4409 24.0885 58.7459 23.2921V23.2648H58.7489ZM54.1289 29.8574H54.0119C52.4969 29.8574 50.7809 29.4288 50.7809 26.9547C50.7809 24.4714 52.4669 23.9821 54.0689 23.9669C55.5989 23.979 57.2219 24.5474 57.2219 26.9547C57.2219 29.131 55.7189 29.8574 54.1289 29.8574Z" fill="white"/>
</svg>
