<svg width="65" height="61" viewBox="0 0 65 61" fill="none" xmlns="http://www.w3.org/2000/svg">
<path d="M53.7897 16.944L52.6687 16.8139L32.5203 14.5044V15.2796L52.5907 17.5784L53.7897 16.944Z" fill="url(#paint0_linear_2_47905)"/>
<path d="M32.5203 15.2798L52.5907 17.5768L49.557 23.1279C49.557 23.1279 49.1862 30.5982 48.9419 33.5314C48.6924 36.4682 48.63 38.767 46.466 39.7186C42.1362 41.6325 36.7894 43.3504 32.5203 44.302V15.2798Z" fill="url(#paint1_linear_2_47905)"/>
<path d="M53.7904 16.9443L52.5914 17.5787L49.5576 23.128L50.3026 23.2421L53.2342 17.953L53.7904 16.9443Z" fill="url(#paint2_linear_2_47905)"/>
<path d="M11.2566 16.944L12.3707 16.8139L32.5226 14.5044V15.2796L12.4538 17.5766L15.4841 23.1277C15.4841 23.1277 15.8567 30.598 16.1079 33.5312C16.3539 36.468 16.4146 38.7668 18.582 39.7184C22.9118 41.6323 28.2552 43.3502 32.5226 44.3018V45.0948C27.9866 44.0755 22.4579 42.2667 18.2858 40.4223C15.8359 39.3406 15.6366 36.9081 15.4062 34.089L15.3663 33.5953C15.1394 30.9383 14.8032 24.3965 14.7443 23.2417L11.8076 17.9544L11.2566 16.944Z" fill="url(#paint3_linear_2_47905)"/>
<path d="M11.2566 16.944L12.3707 16.8139L32.5208 14.5044V15.2796L12.4521 17.5784L11.2566 16.944Z" fill="url(#paint4_linear_2_47905)"/>
<path d="M32.5209 15.2798L12.4521 17.5768L15.4825 23.1279C15.4825 23.1279 15.855 30.5982 16.1062 33.5314C16.3522 36.4682 16.4129 38.767 18.5804 39.7186C22.9101 41.6325 28.2535 43.3504 32.5209 44.302V15.2798Z" fill="url(#paint5_linear_2_47905)"/>
<path d="M11.2566 16.9443L12.4521 17.5787L15.4824 23.128L14.7426 23.2421L11.8041 17.953L11.2566 16.9443Z" fill="url(#paint6_linear_2_47905)"/>
<mask id="mask0_2_47905" style="mask-type:luminance" maskUnits="userSpaceOnUse" x="32" y="23" width="19" height="23">
<path d="M49.557 23.1279C49.557 23.1279 49.1862 30.5982 48.9419 33.5315C48.6924 36.4683 48.63 38.7671 46.466 39.7187C42.1362 41.6326 36.7894 43.3505 32.5203 44.3021V45.0951C37.0545 44.0758 42.5832 42.267 46.7571 40.4226C49.2087 39.3409 49.408 36.9084 49.6401 34.0892L49.68 33.5956C49.9035 30.9386 50.2431 24.3967 50.302 23.242L49.557 23.1279Z" fill="white"/>
</mask>
<g mask="url(#mask0_2_47905)">
<path d="M49.557 23.1279C49.557 23.1279 49.1862 30.5982 48.9419 33.5315C48.6924 36.4683 48.63 38.7671 46.466 39.7187C42.1362 41.6326 36.7894 43.3505 32.5203 44.3021V45.0951C37.0545 44.0758 42.5832 42.267 46.7571 40.4226C49.2087 39.3409 49.408 36.9084 49.6401 34.0892L49.68 33.5956C49.9035 30.9386 50.2431 24.3967 50.302 23.242L49.557 23.1279Z" fill="#8C8F92"/>
<path d="M50.2438 23.2308C50.1901 24.3 49.8488 30.9096 49.6236 33.5916C49.6236 33.6058 49.582 34.0781 49.582 34.0941C49.3533 36.8973 49.1523 39.3012 46.7353 40.3687C42.5528 42.222 37.0379 44.0236 32.521 45.0358L32.4656 44.2535C36.733 43.2948 42.0815 41.5822 46.413 39.6683C48.5753 38.7114 48.6394 36.4357 48.8855 33.5007C49.1367 30.5621 49.5057 23.0972 49.5057 23.0972L50.2438 23.2308Z" fill="#888B8F"/>
<path d="M50.1867 23.2195C50.1364 24.1996 49.7968 30.8822 49.5629 33.5802C49.5629 33.6176 49.5248 34.0632 49.5214 34.097C49.2978 36.8859 49.0951 39.2596 46.7128 40.3128C42.5164 42.1714 37.0154 43.9624 32.521 44.9692L32.4102 44.1905C36.681 43.2353 42.0244 41.5192 46.3524 39.6035C48.5182 38.6483 48.584 36.3958 48.8283 33.459C49.0778 30.5258 49.4469 23.0591 49.4469 23.0591L50.1867 23.2195Z" fill="#83878B"/>
<path d="M50.1308 23.2161C50.0858 24.1017 49.741 30.8539 49.5105 33.5786C49.5053 33.6249 49.469 34.0544 49.4672 34.099C49.242 36.8789 49.041 39.2205 46.6899 40.263C42.4814 42.1217 36.9925 43.9091 32.5206 44.9124L32.3508 44.1372C36.6234 43.182 41.9685 41.4641 46.2983 39.5538C48.464 38.595 48.5282 36.3657 48.7742 33.4289C49.0254 30.4939 49.391 23.0254 49.391 23.0254L50.1308 23.2161Z" fill="#7F8388"/>
<path d="M50.0719 23.2054C50.032 24.0037 49.6855 30.8307 49.4533 33.5733C49.4464 33.6374 49.4135 34.0402 49.41 34.1043C49.1813 36.8647 48.9872 39.1831 46.6708 40.2078C42.4484 42.0736 36.9768 43.8538 32.5223 44.85L32.3005 44.0837C36.5679 43.1268 41.9113 41.416 46.2428 39.4968C48.4051 38.5416 48.4744 36.3319 48.7222 33.3986C48.9682 30.4618 49.339 22.9951 49.339 22.9951L50.0719 23.2054Z" fill="#7A7F85"/>
<path d="M50.0165 23.1967C49.9801 23.9112 49.6266 30.8024 49.3962 33.5717C49.391 33.6483 49.3581 34.0332 49.3512 34.1081C49.1242 36.856 48.9301 39.1477 46.6448 40.1545C42.4104 42.0221 36.9544 43.7952 32.5207 44.7914L32.2417 44.0269C36.5126 43.0699 41.8559 41.3556 46.1822 39.4453C48.3497 38.4847 48.4173 36.2982 48.6633 33.3632C48.9145 30.4299 49.2836 22.9614 49.2836 22.9614L50.0165 23.1967Z" fill="#767B81"/>
<path d="M49.9574 23.184C49.9245 23.8077 49.5728 30.7755 49.3371 33.5626C49.3285 33.6606 49.2973 34.0188 49.2903 34.1097C49.0703 36.8505 48.8745 39.1047 46.6204 40.0991C42.3807 41.9756 36.9317 43.7416 32.5205 44.7271L32.1826 43.9715C36.4552 43.0127 41.8003 41.3038 46.1301 39.3845C48.2941 38.4276 48.3617 36.2624 48.606 33.3274C48.8572 30.3924 49.2297 22.9292 49.2297 22.9292L49.9574 23.184Z" fill="#71787E"/>
<path d="M49.9017 23.179C49.874 23.7136 49.5188 30.7491 49.2797 33.5612C49.2693 33.6699 49.2433 34.0085 49.2312 34.1154C49.0112 36.8383 48.8171 39.0659 46.5994 40.0407C42.3424 41.9278 36.9124 43.6813 32.5203 44.6668L32.127 43.9166C36.3961 42.9596 41.7394 41.2453 46.0727 39.3332C48.2367 38.3744 48.3043 36.2307 48.5555 33.2974C48.7981 30.3606 49.1688 22.8975 49.1688 22.8975L49.9017 23.179Z" fill="#6C747B"/>
<path d="M49.8419 23.1716C49.8228 23.6135 49.4659 30.7256 49.2251 33.5537C49.2129 33.6802 49.187 33.9974 49.1766 34.1151C48.9548 36.8291 48.759 39.0228 46.5794 39.9904C42.3068 41.8776 36.8924 43.6276 32.521 44.6059L32.0706 43.861C36.3414 42.9023 41.6865 41.1897 46.018 39.2758C48.182 38.3207 48.2513 36.2 48.4974 33.265C48.7451 30.3318 49.1142 22.8633 49.1142 22.8633L49.8419 23.1716Z" fill="#687178"/>
<path d="M49.7899 23.165C49.7691 23.5196 49.4087 30.6994 49.1696 33.5507C49.1557 33.6968 49.1297 33.9837 49.1228 34.1227C48.9028 36.8189 48.707 38.9877 46.5586 39.9375C42.2773 41.83 36.875 43.571 32.5227 44.5494L32.0186 43.8081C36.286 42.8511 41.6328 41.1368 45.9625 39.2229C48.1266 38.2659 48.1976 36.1667 48.4454 33.2335C48.6931 30.2967 49.0622 22.8335 49.0622 22.8335L49.7899 23.165Z" fill="#636D75"/>
<path d="M49.7273 23.1556C49.7169 23.4229 49.3531 30.6722 49.1105 33.543C49.0949 33.707 49.0776 33.9761 49.062 34.124C48.842 36.8095 48.6462 38.948 46.5324 39.88C42.2373 41.7778 36.8506 43.5135 32.5191 44.4847L31.9595 43.7488C36.2269 42.7954 41.572 41.0775 45.9035 39.1654C48.0675 38.2066 48.1385 36.1341 48.3863 33.1973C48.6341 30.2605 49.0048 22.7974 49.0048 22.7974L49.7273 23.1556Z" fill="#5E6A72"/>
<path d="M49.6736 23.1437C49.6615 23.3219 49.2994 30.6479 49.0551 33.5419C49.0395 33.7166 49.0187 33.9625 49.0066 34.1318C48.7883 36.7995 48.5925 38.9094 46.5116 39.8289C42.2061 41.7322 36.835 43.4607 32.5226 44.4266L31.9058 43.6942C36.1732 42.739 41.5234 41.0247 45.8498 39.109C48.0138 38.1538 48.0883 36.1045 48.3326 33.1641C48.5838 30.2327 48.9546 22.7642 48.9546 22.7642L49.6736 23.1437Z" fill="#5A666F"/>
<path d="M49.618 23.1395C49.6111 23.2269 49.2455 30.6205 48.9977 33.5377C48.9821 33.7248 48.9631 33.9511 48.9475 34.14C48.7292 36.7935 48.5369 38.8696 46.4872 39.7748C42.1713 41.687 36.8089 43.4066 32.5207 44.3671L31.8467 43.6454C36.1158 42.6867 41.4626 40.9706 45.7941 39.0602C47.9599 38.0979 48.0361 36.0718 48.2804 33.1332C48.5282 30.2 48.8955 22.7314 48.8955 22.7314L49.618 23.1395Z" fill="#55636C"/>
<path d="M31.793 43.5835C36.0586 42.6248 41.4055 40.9158 45.7335 39.0019C47.9027 38.0414 47.9755 36.0348 48.225 33.1016C48.4727 30.1666 48.8401 22.6963 48.8401 22.6963L49.5556 23.1258C49.5556 23.1258 49.1848 30.5961 48.9405 33.5293C48.9215 33.7342 48.9076 33.9374 48.8868 34.137C48.672 36.7797 48.4762 38.8291 46.4647 39.7165C42.1349 41.6304 36.7881 43.3483 32.5189 44.2999L31.793 43.5835Z" fill="#516069"/>
</g>
<mask id="mask1_2_47905" style="mask-type:luminance" maskUnits="userSpaceOnUse" x="14" y="23" width="19" height="23">
<path d="M15.4716 23.1279C15.4716 23.1279 15.8423 30.5982 16.0884 33.5315C16.3344 36.4683 16.4002 38.7671 18.5643 39.7187C22.8958 41.6326 28.2408 43.3505 32.51 44.3021V45.0951C27.9723 44.0758 22.4436 42.267 18.2732 40.4226C15.8181 39.3409 15.6206 36.9084 15.3919 34.0892L15.3503 33.5956C15.1268 30.9386 14.7872 24.3967 14.7283 23.242L15.4716 23.1279Z" fill="white"/>
</mask>
<g mask="url(#mask1_2_47905)">
<path d="M15.4716 23.1279C15.4716 23.1279 15.8423 30.5982 16.0884 33.5315C16.3344 36.4683 16.4002 38.7671 18.5643 39.7187C22.8958 41.6326 28.2408 43.3505 32.51 44.3021V45.0951C27.9723 44.0758 22.4436 42.267 18.2732 40.4226C15.8181 39.3409 15.6206 36.9084 15.3919 34.0892L15.3503 33.5956C15.1268 30.9386 14.7872 24.3967 14.7283 23.242L15.4716 23.1279Z" fill="#8C8F92"/>
<path d="M14.7874 23.2313C14.8393 24.3005 15.1807 30.9101 15.4059 33.5921C15.4094 33.6063 15.4492 34.0786 15.4492 34.0946C15.6744 36.8977 15.8772 39.3017 18.2941 40.3692C22.4766 42.2225 27.995 44.0241 32.5102 45.0363L32.5621 44.254C28.2965 43.2953 22.9496 41.5827 18.6199 39.6688C16.4524 38.7119 16.39 36.4362 16.1423 33.5012C15.8997 30.5626 15.5254 23.0977 15.5254 23.0977L14.7874 23.2313Z" fill="#888B8F"/>
<path d="M14.8428 23.22C14.893 24.2001 15.2361 30.8827 15.4648 33.5807C15.4648 33.6181 15.5029 34.0636 15.5064 34.0975C15.7333 36.8864 15.9343 39.2601 18.3149 40.3132C22.513 42.1719 28.0123 43.9628 32.5101 44.9697L32.621 44.1909C28.3519 43.2358 23.0068 41.5197 18.6788 39.604C16.5095 38.6488 16.4454 36.3963 16.1977 33.4595C15.9516 30.5263 15.5809 23.0596 15.5809 23.0596L14.8428 23.22Z" fill="#83878B"/>
<path d="M14.9019 23.217C14.9452 24.1027 15.2917 30.8549 15.5204 33.5796C15.5256 33.6259 15.5602 34.0554 15.5637 34.0999C15.7924 36.8799 15.9899 39.2215 18.3393 40.264C22.5496 42.1227 28.0367 43.91 32.512 44.9133L32.6784 44.1381C28.4092 43.183 23.0624 41.4651 18.7361 39.5548C16.5669 38.596 16.5045 36.3667 16.255 33.4299C16.0055 30.4949 15.6382 23.0264 15.6382 23.0264L14.9019 23.217Z" fill="#7F8388"/>
<path d="M14.9575 23.2059C14.9991 24.0042 15.3491 30.8312 15.5761 33.5738C15.583 33.6379 15.6159 34.0407 15.6228 34.1048C15.8481 36.8652 16.0456 39.1836 18.3621 40.2083C22.5844 42.0741 28.0595 43.8543 32.5123 44.8505L32.734 44.0842C28.4649 43.1273 23.1215 41.4165 18.79 39.4973C16.6226 38.5421 16.5584 36.3324 16.3089 33.3991C16.0629 30.4623 15.6887 22.9956 15.6887 22.9956L14.9575 23.2059Z" fill="#7A7F85"/>
<path d="M15.0139 23.1971C15.0503 23.9117 15.4037 30.8029 15.6342 33.5722C15.6428 33.6488 15.6758 34.0337 15.6792 34.1085C15.9045 36.8564 16.1055 39.1481 18.3856 40.155C22.6218 42.0226 28.0777 43.7957 32.5115 44.7918L32.7904 44.0274C28.5213 43.0704 23.1779 41.3561 18.8464 39.4457C16.6772 38.4852 16.6131 36.2987 16.3653 33.3637C16.1158 30.4304 15.7451 22.9619 15.7451 22.9619L15.0139 23.1971Z" fill="#767B81"/>
<path d="M15.0696 23.1845C15.1042 23.8082 15.4577 30.776 15.6916 33.5631C15.702 33.6611 15.7297 34.0193 15.7384 34.1102C15.9601 36.851 16.1559 39.1052 18.4048 40.0996C22.6532 41.9761 28.097 43.7421 32.51 44.7276L32.8461 43.972C28.5787 43.0132 23.2284 41.3043 18.9004 39.385C16.7329 38.4281 16.667 36.2629 16.4175 33.3279C16.1715 30.3929 15.8007 22.9297 15.8007 22.9297L15.0696 23.1845Z" fill="#71787E"/>
<path d="M15.1304 23.1795C15.1546 23.7141 15.5098 30.7496 15.7524 33.5617C15.7593 33.6704 15.787 34.0089 15.794 34.1159C16.0192 36.8388 16.2132 39.0664 18.4275 40.0411C22.688 41.9283 28.118 43.6818 32.5118 44.6673L32.9017 43.9171C28.6325 42.9601 23.2892 41.2458 18.9577 39.3337C16.7919 38.3749 16.7209 36.2311 16.4749 33.2979C16.2271 30.3611 15.8581 22.8979 15.8581 22.8979L15.1304 23.1795Z" fill="#6C747B"/>
<path d="M15.1841 23.1721C15.2066 23.614 15.567 30.7261 15.8078 33.5542C15.8182 33.6807 15.8442 33.9979 15.8546 34.1155C16.0764 36.8296 16.2722 39.0233 18.4518 39.9909C22.7226 41.8781 28.1388 43.6281 32.5136 44.6064L32.9623 43.8615C28.6915 42.9028 23.3464 41.1902 19.0166 39.2763C16.8508 38.3212 16.7815 36.2005 16.5338 33.2655C16.2877 30.3323 15.9152 22.8638 15.9152 22.8638L15.1841 23.1721Z" fill="#687178"/>
<path d="M15.2432 23.1654C15.2622 23.5201 15.6226 30.6999 15.8617 33.5511C15.8756 33.6973 15.9016 33.9842 15.9085 34.1232C16.1303 36.8194 16.3278 38.9881 18.4762 39.938C22.754 41.8305 28.1597 43.5715 32.5103 44.5499L33.0127 43.8085C28.7453 42.8516 23.3985 41.1373 19.067 39.2234C16.9013 38.2664 16.832 36.1672 16.5842 33.2339C16.3364 30.2972 15.9657 22.834 15.9657 22.834L15.2432 23.1654Z" fill="#636D75"/>
<path d="M15.3005 23.156C15.3127 23.4233 15.6765 30.6727 15.9208 33.5435C15.9347 33.7075 15.9537 33.9766 15.9676 34.1245C16.1911 36.81 16.3834 38.9484 18.4972 39.8804C22.7906 41.7783 28.1824 43.514 32.5122 44.4852L33.0701 43.7493C28.8027 42.7959 23.4594 41.078 19.1261 39.1659C16.9604 38.2071 16.8893 36.1346 16.6416 33.1978C16.3938 30.261 16.023 22.7979 16.023 22.7979L15.3005 23.156Z" fill="#5E6A72"/>
<path d="M15.3577 23.1442C15.3681 23.3224 15.7319 30.6484 15.9762 33.5424C15.9918 33.717 16.0109 33.963 16.0247 34.1323C16.243 36.8 16.4371 38.9099 18.5179 39.8294C22.8269 41.7326 28.1997 43.4612 32.5104 44.4271L33.1272 43.6947C28.8581 42.7395 23.5113 41.0252 19.1833 39.1095C17.0158 38.1543 16.943 36.105 16.6952 33.1646C16.4457 30.2332 16.0767 22.7646 16.0767 22.7646L15.3577 23.1442Z" fill="#5A666F"/>
<path d="M15.4141 23.14C15.4193 23.2273 15.7866 30.621 16.0309 33.5382C16.0482 33.7253 16.0673 33.9516 16.0811 34.1405C16.2977 36.794 16.4935 38.8701 18.5414 39.7753C22.8591 41.6875 28.2197 43.4071 32.5114 44.3676L33.1836 43.6459C28.9145 42.6872 23.5677 40.9711 19.2379 39.0607C17.0704 38.0984 16.9977 36.0723 16.7499 33.1337C16.5056 30.2004 16.1348 22.7319 16.1348 22.7319L15.4141 23.14Z" fill="#55636C"/>
<path d="M33.2395 43.584C28.9703 42.6253 23.627 40.9163 19.2938 39.0024C17.1315 38.0419 17.0535 36.0353 16.8075 33.1021C16.5597 30.1671 16.1924 22.6968 16.1924 22.6968L15.4751 23.1262C15.4751 23.1262 15.8459 30.5965 16.0919 33.5298C16.1092 33.7347 16.1283 33.9379 16.1422 34.1374C16.3605 36.7802 16.5545 38.8295 18.5661 39.717C22.8976 41.6309 28.2427 43.3488 32.5118 44.3004L33.2395 43.584Z" fill="#516069"/>
</g>
<path d="M32.5191 15.25L12.4486 17.5488L12.4053 17.5524L12.4243 17.5952L15.4564 23.1462L15.4547 23.1302C15.4564 23.2086 15.8272 30.6325 16.0715 33.5355L16.113 34.0273C16.3348 36.72 16.5063 38.8442 18.5664 39.753C22.6952 41.5778 28.0386 43.3331 32.5156 44.3417H32.5225H32.5295C37.0013 43.3349 42.3499 41.5778 46.4787 39.753C48.537 38.8442 48.7103 36.72 48.9303 34.0273L48.9684 33.5355C49.2144 30.6325 49.5852 23.2086 49.5904 23.1302L49.5852 23.1462L52.6138 17.5952L52.6346 17.5524L52.5948 17.5488L32.526 15.25H32.5225H32.5191ZM52.5653 17.5631L49.535 23.1159L49.5315 23.123V23.1302C49.5263 23.205 49.1555 30.6308 48.9112 33.5337L48.8697 34.0237C48.6513 36.6932 48.4798 38.7996 46.4579 39.696C42.3291 41.519 36.9875 43.2761 32.5156 44.2758H32.5295C28.0576 43.2761 22.7143 41.519 18.5889 39.696C16.5653 38.7996 16.3885 36.6932 16.1754 34.0237L16.1321 33.5337C15.8878 30.6308 15.5188 23.2068 15.5136 23.1302V23.123L15.5118 23.1159L12.4798 17.5631L12.459 17.6112L32.5277 15.3124H32.5208L52.5896 17.6112L52.5653 17.5631Z" fill="white"/>
<path d="M24.5402 1.12547C13.1553 4.5452 3.30544 13.2772 3.30544 28.02C3.30544 43.1833 15.9604 56.1013 32.531 56.9834L32.5275 59.9487C17.9581 59.9487 1.17261 47.642 1.17261 28.8183C1.17261 12.6374 10.9289 4.47035 22.5616 0.615807C22.7054 0.587295 22.8596 0.594423 22.9948 0.622936C23.492 0.726294 24.0031 0.836778 24.5402 1.12547Z" fill="#CFCFCF"/>
<mask id="mask2_2_47905" style="mask-type:luminance" maskUnits="userSpaceOnUse" x="1" y="0" width="32" height="60">
<path d="M24.5402 1.12547C13.1553 4.5452 3.30544 13.2772 3.30544 28.02C3.30544 43.1833 15.9604 56.1013 32.531 56.9834L32.5206 59.9487C17.9529 59.9487 1.17261 47.642 1.17261 28.8183C1.17261 12.6374 10.9289 4.47035 22.5616 0.615807C22.7054 0.587295 22.8596 0.594423 22.9948 0.622936C23.492 0.726294 24.0031 0.836778 24.5402 1.12547Z" fill="white"/>
</mask>
<g mask="url(#mask2_2_47905)">
<path d="M32.5482 60.875C13.8534 60.875 0.411865 44.5159 0.411865 28.9694C0.411865 23.2455 4.23399 10.4844 12.6631 10.4844C10.9132 12.2824 6.06362 18.2558 6.06362 26.8043C6.06362 38.5425 13.7772 51.3073 32.5291 53.2515C37.519 53.77 41.9303 60.875 32.5482 60.875Z" fill="#CFCFCF"/>
</g>
<mask id="mask3_2_47905" style="mask-type:luminance" maskUnits="userSpaceOnUse" x="1" y="0" width="32" height="60">
<path d="M24.5402 1.12547C13.1553 4.5452 3.30544 13.2772 3.30544 28.02C3.30544 43.1833 15.9604 56.1013 32.531 56.9834L32.5206 59.9487C17.9529 59.9487 1.17261 47.642 1.17261 28.8183C1.17261 12.6374 10.9289 4.47035 22.5616 0.615807C22.7054 0.587295 22.8596 0.594423 22.9948 0.622936C23.492 0.726294 24.0031 0.836778 24.5402 1.12547Z" fill="white"/>
</mask>
<g mask="url(#mask3_2_47905)">
<path d="M32.3612 53.2942C36.587 53.7076 40.1718 58.724 35.7744 60.2548C34.9168 60.5506 33.7646 60.7235 32.2642 60.711C14.5431 60.5613 1.68199 45.8631 0.60258 30.9955C0.552334 30.3059 0.528076 29.6216 0.528076 28.9409C0.547135 24.3076 2.96932 15.5613 8.01466 12.1273C9.32104 11.2559 10.8128 10.7605 12.5073 10.814C11.1039 12.3412 7.7565 16.5165 6.54021 22.4596C6.24913 23.8941 6.07934 25.4249 6.08974 27.0448C6.15904 38.808 14.0077 51.423 32.3612 53.2942Z" fill="#D9D9D9"/>
<path d="M32.1917 53.3348C36.4643 53.7357 39.8602 58.704 35.4611 60.1368C34.6017 60.4112 33.4582 60.568 31.9803 60.5467C14.3978 60.2526 1.74464 45.7843 0.710279 30.9488C0.663499 30.2699 0.637509 29.5873 0.639242 28.912C0.675626 24.1628 3.14286 15.5841 8.08078 12.2588C9.32305 11.4623 10.7369 11.0417 12.3395 11.1522C10.9552 12.7507 7.6996 16.9171 6.52836 22.7425C6.25461 24.1682 6.09521 25.6883 6.10907 27.2921C6.25634 39.0731 14.235 51.5402 32.1917 53.3348Z" fill="#D5D6D6"/>
<path d="M32.0268 53.3778C36.3375 53.7574 39.548 58.683 35.1524 60.0159C34.2861 60.2743 33.1512 60.4133 31.7028 60.3848C14.2537 59.9411 1.8171 45.7151 0.819119 30.9028C0.772339 30.2292 0.75328 29.552 0.756745 28.8802C0.808723 24.017 3.31753 15.6058 8.15496 12.391C9.32794 11.6711 10.6638 11.32 12.1815 11.4875C10.8128 13.1519 7.65251 17.313 6.52978 23.0244C6.26123 24.4411 6.11742 25.9452 6.13648 27.5312C6.35305 39.3354 14.4651 51.6546 32.0268 53.3778Z" fill="#D2D2D3"/>
<path d="M31.8586 53.4192C36.2161 53.7881 39.236 58.662 34.8404 59.9005C33.9706 60.1322 32.8462 60.2587 31.4151 60.2195C14.1081 59.6278 1.87762 45.6406 0.92642 30.8569C0.883105 30.1868 0.864046 29.5168 0.869244 28.8556C0.936815 23.8784 3.48721 15.624 8.22415 12.5251C9.32955 11.88 10.5857 11.602 12.0185 11.8283C10.6654 13.5622 7.59521 17.7179 6.521 23.3099C6.26804 24.7178 6.13289 26.2129 6.16062 27.7811C6.45343 39.5995 14.6954 51.7708 31.8586 53.4192Z" fill="#CECFD0"/>
<path d="M31.692 53.4583C36.0911 53.8129 38.9239 58.6405 34.53 59.7774C33.6551 59.993 32.541 60.1017 31.1376 60.0536C13.9657 59.3123 1.94667 45.5639 1.04225 30.8051C0.9972 30.1386 0.979874 29.481 0.983339 28.8199C1.0717 23.7304 3.66541 15.6382 8.29666 12.655C9.33449 12.0794 10.5144 11.8745 11.8641 12.1543C10.5213 13.9595 7.54644 18.1098 6.52074 23.586C6.27818 24.9849 6.15343 26.4694 6.18808 28.0162C6.55019 39.8649 14.9256 51.8883 31.692 53.4583Z" fill="#CACCCD"/>
<path d="M31.5229 53.5024C35.9705 53.8321 38.6127 58.6204 34.2205 59.6611C33.3438 59.8554 32.2367 59.948 30.8541 59.891C13.8191 59.0018 2.01664 45.4939 1.1486 30.7618C1.10702 30.1043 1.09316 29.4431 1.10009 28.7909C1.20231 23.5891 3.83934 15.6609 8.36663 12.7847C9.33689 12.2928 10.4406 12.1556 11.6984 12.4942C10.3764 14.3707 7.4882 18.5121 6.51621 23.8689C6.28751 25.2625 6.17315 26.7291 6.213 28.2616C6.64962 40.13 15.155 52.0019 31.5229 53.5024Z" fill="#C7C9CA"/>
<path d="M31.3543 53.5454C35.8435 53.8608 38.3003 58.601 33.9064 59.5401C33.028 59.713 31.9278 59.7896 30.5712 59.7272C13.6748 58.6901 2.08021 45.4193 1.25723 30.7157C1.21911 30.0635 1.20525 29.4095 1.21391 28.7626C1.33519 23.445 4.01207 15.6771 8.4354 12.9167C9.34156 12.4979 10.3673 12.4338 11.5402 12.8258C10.2269 14.7718 7.43916 18.9079 6.51221 24.1507C6.29217 25.5371 6.18822 26.993 6.23673 28.506C6.74785 40.3957 15.3849 52.1215 31.3543 53.5454Z" fill="#C3C5C7"/>
<path d="M31.1882 53.5827C35.7224 53.8856 37.9886 58.5795 33.5999 59.4206C32.7111 59.5774 31.6248 59.6398 30.2907 59.5614C13.5329 58.3799 2.14799 45.3461 1.36832 30.6675C1.32847 30.0188 1.31634 29.3719 1.32847 28.7304C1.46361 23.3023 4.18727 15.6948 8.50665 13.052C9.34523 12.7045 10.2912 12.717 11.3793 13.1625C10.0816 15.1798 7.38565 19.3105 6.50722 24.4321C6.30104 25.8096 6.20228 27.2531 6.26119 28.7518C6.84681 40.6576 15.6173 52.2354 31.1882 53.5827Z" fill="#C0C2C4"/>
<path d="M31.0219 53.6255C35.5977 53.9124 37.6768 58.5582 33.2864 59.2995C32.3958 59.4385 31.3164 59.4795 30.0048 59.3993C13.3874 58.0663 2.21215 45.2731 1.47406 30.6194C1.43767 29.9743 1.42901 29.3364 1.43767 28.702C1.59534 23.1563 4.35711 15.718 8.57426 13.1822C9.34354 12.9131 10.215 12.9987 11.2182 13.4994C9.93783 15.5844 7.33026 19.7098 6.50034 24.7102C6.30282 26.0842 6.22312 27.5133 6.2855 28.9942C6.94389 40.9232 15.846 52.3549 31.0219 53.6255Z" fill="#BDBFC1"/>
<path d="M30.8538 53.6669C35.4764 53.936 37.3667 58.5372 32.9797 59.1823C32.0857 59.2982 31.008 59.3302 29.7259 59.234C13.2488 57.7531 2.27972 45.2005 1.58494 30.5717C1.55376 29.9355 1.54163 29.2994 1.55549 28.6774C1.72875 23.0123 4.53903 15.7327 8.64877 13.3163C9.3522 13.1203 10.1423 13.2753 11.0605 13.8366C9.79228 15.9911 7.28174 20.1094 6.50033 24.9957C6.31668 26.3572 6.24391 27.7739 6.31495 29.2423C7.04091 41.1873 16.0747 52.4712 30.8538 53.6669Z" fill="#B9BCBE"/>
<path d="M30.6871 53.7078C35.353 53.959 37.0544 58.5193 32.6692 59.0628C31.7682 59.159 30.7044 59.1715 29.4431 59.0664C13.1029 57.4394 2.34513 45.1219 1.69541 30.5253C1.66422 29.8909 1.65556 29.2636 1.67115 28.6434C1.86 22.8714 4.71014 15.754 8.71765 13.4427C9.35525 13.3233 10.0708 13.5514 10.8973 14.168C9.64806 16.3902 7.22761 20.5031 6.49645 25.2754C6.31973 26.6297 6.26082 28.0358 6.33359 29.481C7.14098 41.4509 16.3065 52.5887 30.6871 53.7078Z" fill="#B6B9BB"/>
<path d="M30.5156 53.7505C35.2266 53.9857 36.7426 58.4996 32.3574 58.9469C31.4547 59.0164 30.3978 59.0164 29.1607 58.9041C12.9591 57.1275 2.41105 45.0506 1.80637 30.4807C1.77865 29.8516 1.76998 29.2332 1.78385 28.6167C1.99176 22.7288 4.88521 15.7717 8.78876 13.5816C9.36052 13.5335 9.99466 13.8347 10.7379 14.5065C9.5026 16.8 7.17744 20.9076 6.49306 25.5587C6.33366 26.9059 6.27649 28.3012 6.36138 29.7287C7.23808 41.7146 16.537 52.7027 30.5156 53.7505Z" fill="#B3B6B8"/>
<path d="M30.3483 53.7919C35.1043 54.0093 36.4297 58.4804 32.0479 58.8279C31.1418 58.8849 30.0953 58.86 28.879 58.7406C12.8126 56.8142 2.4776 44.9815 1.91624 30.4365C1.89025 29.811 1.88332 29.1944 1.90065 28.585C2.12589 22.5848 5.05918 15.7935 8.86225 13.7139C9.36297 13.7406 9.92433 14.113 10.581 14.8419C9.36124 17.2084 7.12271 21.3089 6.49205 25.8406C6.33611 27.1789 6.29799 28.56 6.39156 29.9749C7.33756 41.9823 16.7647 52.8206 30.3483 53.7919Z" fill="#AFB3B5"/>
<path d="M30.1816 53.8323C34.9809 54.0337 36.1175 58.4549 31.7374 58.708C30.8261 58.7383 29.7865 58.708 28.5962 58.5743C12.6701 56.5018 2.54307 44.9061 2.02328 30.3879C2.00076 29.7677 1.99556 29.1583 2.01462 28.5577C2.25545 22.4418 5.2338 15.8108 8.93118 13.8452C9.36779 13.9486 9.84599 14.3941 10.4195 15.1746C9.21013 17.6124 7.06862 21.7058 6.48474 26.1234C6.34613 27.4546 6.31494 28.8197 6.41197 30.215C7.43594 42.2437 16.9964 52.936 30.1816 53.8323Z" fill="#ACB0B2"/>
<path d="M30.0152 53.875C34.8579 54.0568 35.8073 58.4335 31.4273 58.585C30.509 58.6028 29.4833 58.5529 28.3156 58.4121C12.5281 56.1899 2.60892 44.8312 2.13245 30.3432C2.10819 29.7267 2.10819 29.1243 2.13245 28.5256C2.38541 22.292 5.41054 15.8286 9.00222 13.9717C9.37127 14.1552 9.77323 14.6702 10.2601 15.5114C9.06806 18.0169 7.01666 22.1031 6.48302 26.4014C6.35308 27.7237 6.33575 29.0816 6.44317 30.4537C7.53471 42.5074 17.2252 53.0517 30.0152 53.875Z" fill="#A9ADB0"/>
<path d="M29.8471 53.9181C34.7365 54.0856 35.4902 58.4142 31.1171 58.4676C30.1971 58.4641 29.1766 58.3999 28.0331 58.2467C12.3859 55.8766 2.67466 44.7567 2.24151 30.2937C2.22418 29.6878 2.22418 29.0872 2.24151 28.4956C2.52046 22.1498 5.5837 15.8449 9.0697 14.1074C9.37464 14.3623 9.69691 14.9503 10.0989 15.8431C8.9207 18.4235 6.96632 22.5062 6.47599 26.6815C6.36164 28.0002 6.35298 29.3403 6.4656 30.7C7.63337 42.775 17.4572 53.1697 29.8471 53.9181Z" fill="#A6AAAD"/>
<path d="M29.6771 53.9586C34.6115 54.1083 35.1816 58.3941 30.805 58.3495C29.8815 58.321 28.8697 58.239 27.7504 58.0804C12.2436 55.5642 2.74201 44.6813 2.35564 30.2432C2.33658 29.6427 2.33658 29.0475 2.35737 28.4665C2.65364 22.0102 5.76194 15.8676 9.14398 14.2388C9.37961 14.5702 9.62564 15.2296 9.94271 16.1812C8.7784 18.8275 6.91412 22.903 6.4775 26.9643C6.36835 28.2723 6.37355 29.6035 6.4931 30.9454C7.73018 43.0383 17.6892 53.2832 29.6771 53.9586Z" fill="#A3A7AA"/>
<path d="M29.5106 54.0015C34.4884 54.1351 34.8696 58.3728 30.4965 58.2338C29.5678 58.1857 28.5646 58.0895 27.4696 57.9202C12.0945 55.2542 2.80947 44.6101 2.46295 30.2006C2.44562 29.6018 2.45082 29.0173 2.47335 28.4364C2.78521 21.866 5.93336 15.8873 9.21491 14.3726C9.38297 14.7771 9.5493 15.5077 9.778 16.5181C8.63102 19.2322 6.85857 23.3041 6.46873 27.2478C6.38037 28.5522 6.39077 29.8656 6.51551 31.1914C7.82709 43.3021 17.916 53.4027 29.5106 54.0015Z" fill="#9FA4A7"/>
<path d="M29.3464 54.0385C34.364 54.1561 34.5546 58.3511 30.185 58.1105C29.2529 58.0463 28.2583 57.9323 27.1859 57.7541C11.9545 54.9385 2.87396 44.5349 2.57075 30.1485C2.55689 29.5587 2.56036 28.9777 2.58635 28.4039C2.91208 21.7213 6.10873 15.903 9.28459 14.5005C9.38335 14.9799 9.47518 15.7836 9.61726 16.851C8.4876 19.6345 6.80697 23.6976 6.46565 27.5254C6.38595 28.8209 6.40674 30.1254 6.54188 31.4316C7.92623 43.5673 18.1451 53.5164 29.3464 54.0385Z" fill="#9CA1A4"/>
<path d="M29.1801 54.0814C34.2393 54.1812 34.2445 58.3351 29.8766 57.9912C28.9375 57.9057 27.9534 57.7756 26.9017 57.5867C11.809 54.6285 2.93979 44.462 2.67817 30.1041C2.66778 29.5178 2.67297 28.944 2.69723 28.3756C3.04722 21.5753 6.28198 15.9263 9.35389 14.6343C9.39028 15.1885 9.39894 16.0688 9.45612 17.1879C8.33859 20.0428 6.75672 24.1005 6.46218 27.8089C6.39114 29.0955 6.42579 30.3875 6.56613 31.6777C8.02325 43.8347 18.3773 53.6324 29.1801 54.0814Z" fill="#999EA1"/>
<path d="M29.0104 54.1243C34.1199 54.2117 33.9345 58.3175 29.5649 57.8737C28.6258 57.7686 27.6451 57.6243 26.6212 57.4264C11.6636 54.3168 3.00578 44.3909 2.7892 30.0562C2.77881 29.477 2.78747 28.9085 2.81346 28.349C3.17557 21.4364 6.45539 15.9442 9.42507 14.7681C9.39389 15.3989 9.32458 16.347 9.2986 17.5249C8.19493 20.4492 6.70315 24.5033 6.45712 28.0941C6.39994 29.3719 6.44153 30.6513 6.594 31.9219C8.12389 44.0932 18.6079 53.7501 29.0104 54.1243Z" fill="#969B9E"/>
<path d="M28.8425 54.1661C33.9953 54.232 33.621 58.2951 29.2531 57.7551C28.3106 57.6268 27.3421 57.4646 26.3389 57.2579C11.5217 54.0039 3.07177 44.315 2.90024 30.0124C2.89331 29.435 2.90197 28.8683 2.92796 28.3177C3.3074 21.2911 6.63227 15.9628 9.49973 14.8989C9.39924 15.6064 9.25196 16.6239 9.13761 17.8553C8.04954 20.8491 6.64959 24.8961 6.45208 28.3711C6.4053 29.6435 6.46247 30.9105 6.61667 32.1597C8.2228 44.3595 18.8367 53.8667 28.8425 54.1661Z" fill="#92989B"/>
<path d="M28.6742 54.2099C33.8703 54.2581 33.3106 58.2694 28.9427 57.635C27.995 57.4853 27.0317 57.3071 26.0562 57.0933C11.3776 53.6914 3.13735 44.2395 3.00913 29.96C3.0022 29.3915 3.0126 28.8338 3.04378 28.2849C3.43882 21.1443 6.80353 15.9817 9.56704 15.0283C9.40071 15.8089 9.17893 16.903 8.97795 18.1914C7.90547 21.2565 6.59735 25.2946 6.45008 28.652C6.41197 29.9155 6.48127 31.17 6.64413 32.4067C8.31783 44.6262 19.0669 53.9818 28.6742 54.2099Z" fill="#8F9498"/>
<path d="M28.5079 54.2494C33.7456 54.2833 32.9988 58.2501 28.6326 57.5177C27.6797 57.3537 26.7285 57.1595 25.7756 56.9314C11.2356 53.378 3.20669 44.1685 3.11833 29.9157C3.11659 29.3508 3.12872 28.7966 3.15818 28.2584C3.574 21.0038 6.9803 15.998 9.63811 15.1587C9.40594 16.0159 9.10447 17.1795 8.81859 18.525C7.75997 21.6596 6.54542 25.6923 6.44839 28.932C6.42413 30.1866 6.50037 31.4287 6.66843 32.6458C8.41836 44.892 19.2956 54.1015 28.5079 54.2494Z" fill="#8C9295"/>
<path d="M28.3415 54.2904C33.626 54.3065 32.6852 58.2341 28.3242 57.3983C27.3695 57.2112 26.4253 57.0027 25.4914 56.7674C11.0935 53.0662 3.2725 44.0918 3.23091 29.8712C3.22398 29.3098 3.24304 28.7645 3.27423 28.2299C3.70738 20.8576 7.15699 16.0176 9.70912 15.2959C9.41111 16.2243 9.0334 17.4629 8.65743 18.8618C7.6144 22.0694 6.49341 26.095 6.44489 29.2136C6.43277 30.4628 6.52112 31.6924 6.69612 32.8935C8.51362 45.1503 19.5261 54.2156 28.3415 54.2904Z" fill="#898F92"/>
</g>
<mask id="mask4_2_47905" style="mask-type:luminance" maskUnits="userSpaceOnUse" x="1" y="0" width="32" height="60">
<path d="M24.5402 1.12547C13.1553 4.5452 3.30544 13.2772 3.30544 28.02C3.30544 43.1833 15.9604 56.1013 32.531 56.9834L32.5206 59.9487C17.9529 59.9487 1.17261 47.642 1.17261 28.8183C1.17261 12.6374 10.9289 4.47035 22.5616 0.615807C22.7054 0.587295 22.8596 0.594423 22.9948 0.622936C23.492 0.726294 24.0031 0.836778 24.5402 1.12547Z" fill="white"/>
</mask>
<g mask="url(#mask4_2_47905)">
<path d="M28.0146 57.2787C11.9464 53.8429 3.33887 44.9238 3.33887 29.8228C3.33887 21.3956 7.15579 16.0798 9.78242 15.4258C8.58692 18.6958 6.44023 25.1575 6.44023 29.4985C6.44023 43.6158 18.9444 54.3312 28.1723 54.3312C33.4983 54.3312 32.3721 58.2107 28.0146 57.2787Z" fill="#868C8F"/>
</g>
<path d="M39.3298 2.01074C39.3159 2.02322 39.3073 2.03747 39.2969 2.05351L39.2484 2.1836C48.5507 5.17386 58.9931 13.553 58.9931 26.7935C58.9931 38.2983 51.2068 51.603 32.5276 53.2514L32.5311 54.0195C51.2189 52.3604 59.6117 38.5104 59.6117 27.2123C59.6117 13.9753 50.3977 5.01169 39.3298 2.01074Z" fill="url(#paint7_linear_2_47905)"/>
<path d="M40.5097 1.11815C51.8929 4.53788 61.7757 13.277 61.7757 28.0198C61.7757 43.1831 49.1017 56.1011 32.5293 56.9832L32.5259 59.9485C47.0953 59.9485 63.8808 47.6329 63.8808 28.8074C63.8808 12.6301 54.121 4.46125 42.4866 0.604927C42.3393 0.574633 42.1522 0.594234 42.0205 0.615619C41.8022 0.647696 41.5112 0.717194 41.1768 0.822334C40.9481 0.90609 40.6691 1.03083 40.5097 1.11815Z" fill="#DFE4EB"/>
<path d="M39.3298 2.01114C50.3977 5.01208 59.6117 13.9757 59.6117 27.2145L61.7775 28.0217C61.7775 13.279 51.8947 4.53806 40.5115 1.12012C39.9796 1.37317 39.5533 1.74918 39.3298 2.01114Z" fill="url(#paint8_linear_2_47905)"/>
<path d="M61.7774 28.0198C61.7774 43.1832 49.1173 56.1065 32.5449 56.9886V54.0215C51.2276 52.366 59.6117 38.5125 59.6117 27.2144L61.7774 28.0198Z" fill="url(#paint9_linear_2_47905)"/>
<path d="M25.7236 2.01829C14.6574 5.02102 5.44172 13.9864 5.44172 27.2198C5.44172 38.518 13.8518 52.3608 32.531 54.0199V56.9834C15.9604 56.1013 3.30542 43.1833 3.30542 28.02C3.30542 13.2772 13.157 4.547 24.5402 1.12549C24.9526 1.32329 25.4741 1.71356 25.7236 2.01829Z" fill="url(#paint10_linear_2_47905)"/>
<path d="M6.06168 26.8062C6.06168 13.5639 16.4972 5.18653 25.7995 2.19271L25.7493 2.0644C25.7406 2.0448 25.7337 2.03054 25.7233 2.01807C14.6571 5.0208 5.44141 13.9862 5.44141 27.2196C5.44141 38.5177 13.8515 52.3606 32.5307 54.0197L32.5272 53.2516C13.8567 51.6032 6.06168 38.0972 6.06168 26.8062Z" fill="url(#paint11_linear_2_47905)"/>
<mask id="mask5_2_47905" style="mask-type:luminance" maskUnits="userSpaceOnUse" x="32" y="0" width="32" height="60">
<path d="M32.5415 54.0197L32.5449 56.9832C32.5414 56.9832 32.538 56.9832 32.5311 56.9832L32.5276 59.9485C47.0971 59.9485 63.8825 47.6329 63.8825 28.8074C63.8825 12.6301 54.1228 4.46125 42.4883 0.604927C42.3411 0.574633 42.1539 0.594234 42.0223 0.615619C41.804 0.647696 41.5129 0.717194 41.1785 0.822334C40.9463 0.90609 40.6674 1.03083 40.5097 1.11637C39.9795 1.37299 39.5533 1.74899 39.3298 2.00917C39.3159 2.02165 39.3073 2.0359 39.2969 2.05194L39.2484 2.18203C48.5507 5.17229 58.9931 13.5514 58.9931 26.7919C58.9931 38.2968 51.2068 51.6015 32.5276 53.2498L32.5415 54.0197Z" fill="white"/>
</mask>
<g mask="url(#mask5_2_47905)">
<path d="M39.3159 2.03043C42.0984 2.78601 44.7233 3.90513 47.1195 5.35927C49.5954 6.85975 51.7716 8.68277 53.5769 10.7784C55.4863 12.9757 56.9607 15.4438 57.9708 18.1151C59.0433 20.9539 59.5856 24.0136 59.5856 27.2142C59.5856 30.0832 59.0346 33.0967 57.9864 35.9265C56.855 38.9738 55.1987 41.7645 53.0589 44.2148C50.7285 46.8896 47.8957 49.0708 44.6367 50.6996C41.0537 52.4906 36.9803 53.599 32.531 53.9964L32.5345 54.0409C36.989 53.6471 41.0693 52.5387 44.6558 50.7406C47.9217 49.11 50.7615 46.9235 53.0953 44.2469C55.2368 41.7894 56.8932 38.9952 58.0297 35.9408C59.0797 33.1074 59.6359 30.085 59.6359 27.2142C59.6359 24.0083 59.0884 20.9414 58.0141 18.1008C57.0058 15.4242 55.5244 12.9507 53.6203 10.7499C51.801 8.65069 49.6231 6.82232 47.1455 5.32007C44.7511 3.86593 42.1279 2.74859 39.354 1.99122C39.3419 1.98588 39.3038 2.02508 39.3159 2.03043Z" fill="#E9EEF9"/>
</g>
<mask id="mask6_2_47905" style="mask-type:luminance" maskUnits="userSpaceOnUse" x="32" y="0" width="32" height="60">
<path d="M40.527 1.12547C51.9102 4.5452 61.7618 13.2772 61.7618 28.02C61.7618 43.1833 49.1034 56.1013 32.5311 56.9834L32.5276 59.9487C47.0971 59.9487 63.8947 47.642 63.8947 28.8183C63.8947 12.6374 54.1418 4.47035 42.5039 0.615807C42.3601 0.587295 42.2059 0.594423 42.0725 0.622936C41.5735 0.726294 41.0659 0.836778 40.527 1.12547Z" fill="white"/>
</mask>
<g mask="url(#mask6_2_47905)">
<path d="M32.2695 61.4743C50.9609 61.4743 64.6571 44.5164 64.6571 28.9699C64.6571 23.246 60.8384 10.4849 52.4059 10.4849C54.1558 12.2829 59.0071 18.2563 59.0071 26.8048C59.0071 38.543 51.2901 51.3077 32.5381 53.2519C27.5465 53.7705 22.8823 61.4743 32.2695 61.4743Z" fill="#DFE4EB"/>
</g>
<mask id="mask7_2_47905" style="mask-type:luminance" maskUnits="userSpaceOnUse" x="32" y="0" width="32" height="60">
<path d="M40.527 1.12547C51.9102 4.5452 61.7618 13.2772 61.7618 28.02C61.7618 43.1833 49.1034 56.1013 32.5311 56.9834L32.5276 59.9487C47.0971 59.9487 63.8947 47.642 63.8947 28.8183C63.8947 12.6374 54.1418 4.47035 42.5039 0.615807C42.3601 0.587295 42.2059 0.594423 42.0725 0.622936C41.5735 0.726294 41.0659 0.836778 40.527 1.12547Z" fill="white"/>
</mask>
<g mask="url(#mask7_2_47905)">
<path d="M32.4132 61.3157C50.978 61.1535 64.4473 44.5539 64.4473 29.0306C64.4473 23.1748 60.6321 10.7665 52.4715 10.7397C54.1955 12.6073 58.9237 18.6039 58.9237 26.9491C58.9237 38.805 50.9763 51.47 32.6765 53.3233C27.671 53.8133 23.1195 61.3923 32.4132 61.3157Z" fill="#D9DEE5"/>
<path d="M32.5641 61.1638C51.0025 60.8412 64.2413 44.5873 64.2413 29.0871C64.2413 23.1031 60.4227 11.0511 52.5393 10.9888C54.239 12.9276 58.8338 18.9456 58.8338 27.093C58.8338 39.0612 50.6594 51.6299 32.8153 53.3888C27.7908 53.8574 23.3553 61.3152 32.5641 61.1638Z" fill="#D3D8DF"/>
<path d="M32.7044 61.0091C51.0215 60.5244 64.0333 44.6233 64.0333 29.1463C64.0333 23.0303 60.2112 11.333 52.6051 11.2368C54.277 13.2487 58.7437 19.2881 58.7437 27.2342C58.7437 39.3146 50.3423 51.7835 32.9521 53.455C27.912 53.9005 23.5874 61.2354 32.7044 61.0091Z" fill="#CDD2D8"/>
<path d="M32.8515 60.8504C51.0455 60.2035 63.8218 44.6588 63.8218 29.1978C63.8218 22.9571 60.0031 11.6145 52.6725 11.4897C54.3184 13.5729 58.6551 19.6337 58.6551 27.3837C58.6551 39.5711 50.0285 51.9473 33.0888 53.5244C28.0366 53.9432 23.8263 61.1533 32.8515 60.8504Z" fill="#C7CCD2"/>
<path d="M32.9984 60.696C51.066 59.8888 63.61 44.6987 63.61 29.2556C63.61 22.8883 59.7948 11.8985 52.7431 11.7417C54.3631 13.8908 58.5682 19.9783 58.5682 27.527C58.5682 39.8319 49.7128 52.1084 33.2271 53.591C28.1575 53.9849 24.0599 61.0774 32.9984 60.696Z" fill="#C0C6CC"/>
<path d="M33.1444 60.5407C51.0872 59.5695 63.406 44.7322 63.406 29.3105C63.406 22.8132 59.5856 12.178 52.8146 11.9927C54.4017 14.2149 58.482 20.3255 58.482 27.6675C58.482 40.0918 49.3962 52.2703 33.3679 53.6567C28.2792 54.0309 24.2977 60.9933 33.1444 60.5407Z" fill="#BAC0C5"/>
<path d="M33.2916 60.3868C51.1115 59.2534 63.1912 44.7691 63.1912 29.3705C63.1912 22.7449 59.376 12.4625 52.8787 12.2451C54.445 14.535 58.3953 20.6688 58.3953 27.8148C58.3953 40.346 49.0826 52.43 33.5047 53.7256C28.4005 54.0677 24.5333 60.9161 33.2916 60.3868Z" fill="#B4B9BF"/>
<path d="M33.4388 60.2323C51.1339 58.9332 62.9849 44.7999 62.9849 29.4245C62.9849 22.6705 59.168 12.7446 52.9445 12.4951C54.483 14.8545 58.3069 21.015 58.3069 27.9596C58.3069 40.6032 48.7637 52.5874 33.6416 53.7902C28.52 54.111 24.7689 60.8382 33.4388 60.2323Z" fill="#ADB3B8"/>
<path d="M33.5828 60.0752C51.1566 58.6193 62.7754 44.8352 62.7754 29.483C62.7754 22.599 58.9602 13.0259 53.0122 12.7461C54.5265 15.1786 58.2187 21.3605 58.2187 28.1037C58.2187 40.8613 48.4485 52.7492 33.7786 53.8612C28.6414 54.1553 25.0047 60.7541 33.5828 60.0752Z" fill="#A7ADB1"/>
<path d="M33.7301 59.9208C51.174 58.3027 62.5658 44.8715 62.5658 29.5371C62.5658 22.523 58.7489 13.3081 53.0816 12.998C54.5664 15.4982 58.1321 21.7051 58.1321 28.2434C58.1321 41.1186 48.1315 52.9085 33.9155 53.9278C28.7645 54.1987 25.2421 60.6782 33.7301 59.9208Z" fill="#A1A6AB"/>
<path d="M33.8754 59.7637C51.1963 57.9817 62.3595 44.9069 62.3595 29.5939C62.3595 22.4532 58.5408 13.5912 53.1472 13.249C54.6078 15.8223 58.0435 22.0487 58.0435 28.391C58.0435 41.3785 47.816 53.0686 34.0504 53.9953C28.8838 54.2412 25.4775 60.5959 33.8754 59.7637Z" fill="#9AA0A4"/>
<path d="M34.0247 59.61C51.2173 57.6658 62.1518 44.9456 62.1518 29.6504C62.1518 22.3833 58.3331 13.8705 53.215 13.498C54.6479 16.1408 57.9537 22.3904 57.9537 28.5331C57.9537 41.6328 47.4992 53.2285 34.191 54.0625C29.0054 54.2871 25.7134 60.5135 34.0247 59.61Z" fill="#94999D"/>
<path d="M34.1664 59.4518C51.2429 57.3454 61.94 44.9781 61.94 29.7078C61.94 22.3088 58.1231 14.156 53.2822 13.7515C54.6925 16.4655 57.8684 22.7383 57.8684 28.6814C57.8684 41.8934 47.1869 53.3893 34.3327 54.1306C29.1297 54.3284 25.9486 60.4355 34.1664 59.4518Z" fill="#8D9296"/>
<path d="M34.3174 59.2984C51.264 57.0334 61.7306 45.0118 61.7306 29.7665C61.7306 22.2392 57.912 14.441 53.35 14.0044C54.7326 16.7844 57.782 23.0821 57.782 28.822C57.782 42.1499 46.8684 53.5496 34.4698 54.1982C29.2512 54.3729 26.1845 60.3569 34.3174 59.2984Z" fill="#868B8F"/>
<path d="M34.4628 59.1447C51.2846 56.714 61.5208 45.0506 61.5208 29.8195C61.5208 22.1674 57.7039 14.7221 53.4157 14.2534C54.7706 17.1082 57.6935 23.4273 57.6935 28.9659C57.6935 42.4078 46.5529 53.7077 34.6066 54.2637C29.3724 54.4134 26.4218 60.2745 34.4628 59.1447Z" fill="#7F8588"/>
<path d="M34.608 58.9884C51.3069 56.3973 61.3126 45.085 61.3126 29.8753C61.3126 22.0931 57.4975 15.006 53.4865 14.5088C54.8154 17.4295 57.6049 23.77 57.6049 29.1126C57.6049 42.6632 46.2407 53.8686 34.7449 54.3302C29.4951 54.4549 26.6554 60.1984 34.608 58.9884Z" fill="#797E81"/>
<path d="M34.7537 58.8349C51.3278 56.0816 61.1014 45.1185 61.1014 29.9356C61.1014 22.0216 57.2844 15.289 53.5576 14.7598C54.8553 17.7482 57.5166 24.1172 57.5166 29.2548C57.5166 42.9213 45.9238 54.0287 34.8836 54.3994C29.6182 54.4992 26.8894 60.1161 34.7537 58.8349Z" fill="#727779"/>
<path d="M34.9012 58.6805C51.3523 55.7633 60.8955 45.1566 60.8955 29.9915C60.8955 21.9527 57.0751 15.5713 53.6203 15.0063C54.8955 18.0697 57.4303 24.4618 57.4303 29.3999C57.4303 43.1821 45.607 54.188 35.0173 54.466C29.7398 54.5408 27.127 60.0402 34.9012 58.6805Z" fill="#6B6F72"/>
<path d="M35.0463 58.525C51.3692 55.4457 60.6854 45.1918 60.6854 30.0499C60.6854 21.881 56.8702 15.8542 53.6909 15.2607C54.9366 18.39 57.3415 24.8089 57.3415 29.5455C57.3415 43.4383 45.293 54.3515 35.159 54.5404C29.8589 54.5885 27.364 59.9613 35.0463 58.525Z" fill="#63686A"/>
<path d="M35.194 58.3645C51.3904 55.1283 60.4796 45.2273 60.4796 30.105C60.4796 21.8078 56.661 16.1374 53.7588 15.5137C54.9769 18.7142 57.2535 25.1545 57.2535 29.6916C57.2535 43.6966 44.9745 54.5118 35.2962 54.6044C29.9823 54.6294 27.5983 59.8775 35.194 58.3645Z" fill="#5C6062"/>
</g>
<mask id="mask8_2_47905" style="mask-type:luminance" maskUnits="userSpaceOnUse" x="32" y="0" width="32" height="60">
<path d="M40.527 1.12547C51.9102 4.5452 61.7618 13.2772 61.7618 28.02C61.7618 43.1833 49.1034 56.1013 32.5311 56.9834L32.5276 59.9487C47.0971 59.9487 63.8947 47.642 63.8947 28.8183C63.8947 12.6374 54.1418 4.47035 42.5039 0.615807C42.3601 0.587295 42.2059 0.594423 42.0725 0.622936C41.5735 0.726294 41.0659 0.836778 40.527 1.12547Z" fill="white"/>
</mask>
<g mask="url(#mask8_2_47905)">
<path d="M35.34 58.2129C51.4134 54.811 60.2704 45.2628 60.2704 30.1583C60.2704 21.7328 56.4518 16.4135 53.8251 15.7612C55.0154 19.0348 57.1656 25.4965 57.1656 29.834C57.1656 43.9513 44.6597 54.6684 35.4336 54.6684C30.1041 54.6702 27.8344 59.8007 35.34 58.2129Z" fill="#55585A"/>
</g>
<mask id="mask9_2_47905" style="mask-type:luminance" maskUnits="userSpaceOnUse" x="32" y="0" width="32" height="60">
<path d="M40.527 1.12547C51.9102 4.5452 61.7618 13.2772 61.7618 28.02C61.7618 43.1833 49.1034 56.1013 32.5311 56.9834L32.5276 59.9487C47.0971 59.9487 63.8947 47.642 63.8947 28.8183C63.8947 12.6374 54.1418 4.47035 42.5039 0.615807C42.3601 0.587295 42.2059 0.594423 42.0725 0.622936C41.5735 0.726294 41.0659 0.836778 40.527 1.12547Z" fill="white"/>
</mask>
<g mask="url(#mask9_2_47905)">
<path d="M32.5275 59.9934C36.464 59.9934 40.6188 59.0881 44.5483 57.3738C48.5506 55.6292 52.2515 53.0719 55.2627 49.9765C57.9552 47.2055 60.0707 44.0584 61.5469 40.6226C63.134 36.9142 63.9379 32.9438 63.9379 28.8184C63.9379 24.9211 63.3644 21.3196 62.2278 18.1137C61.1761 15.1324 59.6185 12.4255 57.5983 10.0661C54.0257 5.89966 48.9543 2.70447 42.516 0.569588C42.4935 0.562459 42.4675 0.578497 42.4605 0.599882C42.4519 0.623048 42.4657 0.64978 42.4883 0.656908C48.9128 2.78644 53.9737 5.9745 57.5273 10.1231C59.5405 12.4807 61.0964 15.1787 62.1498 18.1422C63.276 21.3392 63.8478 24.9336 63.8478 28.8184C63.8478 33.3145 62.8897 37.6181 61.0029 41.6027C59.2581 45.2773 56.7822 48.5776 53.6428 51.4075C50.7095 54.0521 47.2235 56.2261 43.5555 57.6874C39.9309 59.1362 36.1157 59.9007 32.5258 59.9007C32.4998 59.9007 32.479 59.9221 32.479 59.9488C32.4825 59.9773 32.5015 59.9934 32.5275 59.9934Z" fill="#E0E0E0"/>
</g>
<path d="M25.7131 1.99121C22.9149 2.74858 20.2727 3.87482 17.8678 5.33609C15.392 6.84013 13.2158 8.66494 11.4087 10.7642C9.50803 12.965 8.03186 15.4331 7.02521 18.1097C5.95273 20.9521 5.40869 24.0172 5.40869 27.2195C5.40869 30.0993 5.96659 33.1163 7.01828 35.9515C8.14794 39.0023 9.81124 41.8001 11.9597 44.2558C16.8941 49.9048 24.0099 53.2925 32.5309 54.048L32.5343 53.9857C24.029 53.2354 16.927 49.8531 12.0064 44.213C9.86322 41.7645 8.20511 38.9756 7.07546 35.9301C6.02376 33.102 5.4728 30.0921 5.4728 27.2177C5.4728 24.0243 6.01337 20.9646 7.07892 18.1311C8.08383 15.4616 9.55655 12.9953 11.452 10.8034C13.2591 8.70949 15.4249 6.88647 17.8956 5.38777C20.2952 3.92829 22.9496 2.80382 25.7443 2.05002L25.7131 1.99121Z" fill="#E9EEF9"/>
<path d="M41.0376 2.38379C43.9293 2.43012 45.707 2.87741 48.5831 4.71113C45.6602 4.60064 43.1704 3.3247 41.0376 2.38379Z" fill="#E0E0E0"/>
<path d="M48.5831 4.71113C45.707 2.87741 43.9276 2.43012 41.0376 2.38379C43.9761 3.04136 45.9062 3.64725 48.5831 4.71113Z" fill="url(#paint12_linear_2_47905)"/>
<path d="M48.7881 3.29248C49.8034 5.14402 51.6781 6.91536 53.9235 8.59047C52.9931 6.27739 52.5582 5.3044 48.7881 3.29248Z" fill="url(#paint13_linear_2_47905)"/>
<path d="M53.9216 8.59047C52.4506 6.70686 50.8999 4.80899 48.7861 3.29248C49.8032 5.14402 51.6761 6.91536 53.9216 8.59047Z" fill="url(#paint14_linear_2_47905)"/>
<path d="M51.6919 8.65479C54.0812 9.32305 55.2853 9.80242 57.212 12.7214C54.3844 11.5274 53.8282 10.975 51.6919 8.65479Z" fill="url(#paint15_linear_2_47905)"/>
<path d="M51.6919 8.65479C53.2668 9.49234 55.2836 10.9233 57.212 12.7214C55.2853 9.80242 54.0812 9.32483 51.6919 8.65479Z" fill="url(#paint16_linear_2_47905)"/>
<path d="M57.144 9.80176C57.397 12.2431 58.3967 14.779 59.9734 17.2186C59.9318 14.7327 60.1588 12.7207 57.144 9.80176Z" fill="url(#paint17_linear_2_47905)"/>
<path d="M56.9968 15.4673C59.6044 17.4756 60.7029 19.1365 61.1655 22.2729C59.672 20.6352 58.4505 19.3111 56.9968 15.4673Z" fill="url(#paint18_linear_2_47905)"/>
<path d="M56.9968 15.4673C58.9963 17.8534 60.0549 19.6782 61.1655 22.2729C60.7029 19.1365 59.6044 17.4756 56.9968 15.4673Z" fill="url(#paint19_linear_2_47905)"/>
<path d="M62.9674 21.2871C62.5741 22.9622 62.134 23.3935 61.9937 24.6855C61.8551 25.9774 61.9018 28.3475 61.8325 29.9728C62.6451 28.2513 64.6376 26.5548 62.9674 21.2871Z" fill="url(#paint20_linear_2_47905)"/>
<path d="M61.9917 24.6855C61.8531 25.9774 61.8999 28.3475 61.8306 29.9728C62.7956 26.6724 63.0954 24.3558 62.9672 21.2871C62.5739 22.9622 62.1338 23.3935 61.9917 24.6855Z" fill="url(#paint21_linear_2_47905)"/>
<path d="M59.8591 27.7065C60.5556 30.025 62.0889 32.1296 60.3442 36.3405C60.2541 34.3535 58.8836 33.1097 59.8591 27.7065Z" fill="url(#paint22_linear_2_47905)"/>
<path d="M60.3445 36.3405C62.0892 32.1296 60.5559 30.025 59.8594 27.7065C60.218 31.2617 60.7863 33.393 60.3445 36.3405Z" fill="url(#paint23_linear_2_47905)"/>
<path d="M63.1552 35.2383C62.0897 36.794 60.3935 37.2805 57.8396 42.2506C61.3013 40.4329 62.3894 38.8024 63.1552 35.2383Z" fill="url(#paint24_linear_2_47905)"/>
<path d="M57.8396 42.2506C60.5944 39.6078 62.0325 37.8882 63.1552 35.2383C62.0897 36.794 60.3952 37.2823 57.8396 42.2506Z" fill="url(#paint25_linear_2_47905)"/>
<path d="M57.7074 37.1489C56.6089 39.2695 56.1307 40.4457 55.9315 41.1371C55.7288 41.8214 55.6127 44.6335 55.4775 45.2269C57.0213 43.4217 57.2587 42.1351 57.4129 41.4187C57.5705 40.6987 57.7888 38.726 57.7074 37.1489Z" fill="url(#paint26_linear_2_47905)"/>
<path d="M55.4775 45.2254C56.3092 43.1654 57.2621 39.5461 57.7074 37.1475C56.6089 39.2681 56.1307 40.4442 55.9315 41.1357C55.7357 41.7968 55.6127 44.632 55.4775 45.2254C55.4793 45.2254 55.4775 45.2272 55.4775 45.2254Z" fill="url(#paint27_linear_2_47905)"/>
<path d="M52.3101 45.1714C50.8564 46.5738 49.9919 47.4364 49.2953 48.5537C48.5971 49.6675 48.3961 50.9701 47.6702 52.0714C51.5685 49.8385 51.6448 47.3063 52.3101 45.1714Z" fill="url(#paint28_linear_2_47905)"/>
<path d="M49.2953 48.5519C48.5971 49.6657 48.3961 50.9684 47.6702 52.0697C49.2694 50.4836 51.0557 47.6894 52.3101 45.1714C50.8564 46.5738 49.9919 47.4346 49.2953 48.5519Z" fill="url(#paint29_linear_2_47905)"/>
<path d="M58.1855 46.1455C56.9709 46.7068 55.7945 46.9064 54.5453 47.4696C53.2926 48.0345 51.7558 49.5902 50.8289 50.2228C54.1555 49.9929 56.5776 48.897 58.1855 46.1455Z" fill="url(#paint30_linear_2_47905)"/>
<path d="M37.7168 56.1294C38.8742 55.0281 39.2346 53.9999 40.3486 53.1124C41.4592 52.2285 43.2958 51.2734 44.4757 50.9116C43.1087 52.6135 41.3795 55.3899 37.7168 56.1294Z" fill="url(#paint31_linear_2_47905)"/>
<path d="M37.7168 56.1294C40.5877 54.5167 41.8577 52.658 44.4757 50.9116C43.2958 51.2734 41.4592 52.2285 40.3486 53.1124C39.2346 54.0017 38.8742 55.0281 37.7168 56.1294Z" fill="url(#paint32_linear_2_47905)"/>
<path d="M45.9396 55.4825C43.4533 55.6518 43.015 55.2081 41.8091 55.1956C45.4302 53.7076 46.0765 53.5935 50.3941 53.8804C48.9803 55.0281 47.6081 55.3471 45.9396 55.4825Z" fill="url(#paint33_linear_2_47905)"/>
<path d="M41.8091 55.1956C44.8481 54.2903 47.6774 54.9586 50.3941 53.8804C46.0765 53.5935 45.4285 53.7076 41.8091 55.1956Z" fill="url(#paint34_linear_2_47905)"/>
<path d="M37.6783 58.6405C35.2734 58.4552 33.7314 57.4483 32.7144 57.042C35.1244 56.8121 37.5189 56.6339 39.028 56.9209C40.5648 57.2131 41.1955 57.9722 42.2991 58.0204C40.4418 58.6922 38.9552 58.7385 37.6783 58.6405Z" fill="url(#paint35_linear_2_47905)"/>
<path d="M32.7144 57.0425C35.8954 57.4221 38.5619 57.9976 42.2991 58.019C41.1955 57.9709 40.5648 57.2118 39.028 56.9195C37.5189 56.6344 35.1244 56.8126 32.7144 57.0425Z" fill="url(#paint36_linear_2_47905)"/>
<path d="M50.8289 50.2215C52.7572 49.1273 55.5935 48.4591 58.1855 46.146C56.9709 46.7073 55.7945 46.9069 54.5453 47.47C53.2926 48.0332 51.7575 49.5889 50.8289 50.2215Z" fill="url(#paint37_linear_2_47905)"/>
<path d="M57.144 9.80176C57.397 12.2431 58.3967 14.779 59.9734 17.2186C59.3375 14.1428 58.5041 12.6405 57.144 9.80176Z" fill="url(#paint38_linear_2_47905)"/>
<path d="M24.045 2.38379C21.155 2.43012 19.3757 2.87741 16.4978 4.71113C19.4207 4.60064 21.9087 3.3247 24.045 2.38379Z" fill="url(#paint39_radial_2_47905)"/>
<path d="M16.4978 4.71113C19.3739 2.87741 21.155 2.43012 24.045 2.38379C21.1602 3.06987 19.1764 3.64725 16.4978 4.71113Z" fill="url(#paint40_linear_2_47905)"/>
<path d="M16.2985 3.29248C15.278 5.14402 13.4085 6.91536 11.1631 8.59047C12.0935 6.27739 12.5249 5.3044 16.2985 3.29248Z" fill="url(#paint41_linear_2_47905)"/>
<path d="M11.1631 8.59047C12.9234 6.61954 13.6286 5.46122 16.2985 3.29248C15.278 5.14402 13.4085 6.91536 11.1631 8.59047Z" fill="url(#paint42_linear_2_47905)"/>
<path d="M13.3911 8.65479C11.0036 9.32305 9.79426 9.80242 7.8728 12.7214C10.7004 11.5274 11.2566 10.975 13.3911 8.65479Z" fill="url(#paint43_radial_2_47905)"/>
<path d="M13.3911 8.65479C11.8145 9.49234 9.82371 10.9999 7.8728 12.7214C9.79426 9.80242 11.0036 9.32483 13.3911 8.65479Z" fill="url(#paint44_linear_2_47905)"/>
<path d="M7.9385 9.80225C7.6838 12.2436 6.83483 14.6708 5.10742 17.2191C5.1542 14.7331 5.09703 12.7854 7.9385 9.80225Z" fill="url(#paint45_linear_2_47905)"/>
<path d="M7.9385 9.80225C7.6838 12.2436 6.66677 14.7759 5.10742 17.2191C5.92175 13.7994 6.82443 12.5109 7.9385 9.80225Z" fill="url(#paint46_linear_2_47905)"/>
<path d="M8.10151 15.4712C5.48008 17.4599 4.36948 19.1083 3.87915 22.2447C5.38825 20.6177 6.61667 19.3044 8.10151 15.4712Z" fill="url(#paint47_radial_2_47905)"/>
<path d="M8.10151 15.4712C6.65478 17.0661 4.21354 21.1292 3.87915 22.2447C4.36948 19.1101 5.48008 17.4599 8.10151 15.4712Z" fill="url(#paint48_linear_2_47905)"/>
<path d="M2.11542 21.2871C2.51219 22.9622 2.95054 23.3935 3.08915 24.6855C3.22776 25.9774 3.18271 28.3475 3.25028 29.9728C2.44289 28.2513 0.710283 26.5976 2.11542 21.2871Z" fill="url(#paint49_radial_2_47905)"/>
<path d="M3.09069 24.6855C3.2293 25.9774 3.18425 28.3475 3.25182 29.9728C2.36473 27.2427 2.26251 24.4021 2.11523 21.2871C2.512 22.9622 2.95035 23.3935 3.09069 24.6855Z" fill="url(#paint50_linear_2_47905)"/>
<path d="M5.22554 27.7065C4.53077 30.025 2.99742 32.1296 4.73868 36.3405C4.83224 34.3535 6.19753 33.1097 5.22554 27.7065Z" fill="url(#paint51_radial_2_47905)"/>
<path d="M4.73868 36.3405C2.99742 32.1296 4.53077 30.025 5.22554 27.7065C5.15451 31.3401 4.17212 33.393 4.73868 36.3405Z" fill="url(#paint52_linear_2_47905)"/>
<path d="M1.92993 35.2383C2.99548 36.794 4.6917 37.2805 7.24556 42.2506C3.78728 40.4329 2.69574 38.8024 1.92993 35.2383Z" fill="url(#paint53_linear_2_47905)"/>
<path d="M7.37322 37.1494C8.47343 39.27 8.95163 40.4462 9.15261 41.1376C9.35186 41.8219 9.47141 44.634 9.60482 45.2274C8.05933 43.4222 7.63831 42.1765 7.48584 41.4548C7.32817 40.7367 7.29872 38.7265 7.37322 37.1494Z" fill="url(#paint54_linear_2_47905)"/>
<path d="M9.60562 45.2254C8.4517 43.4398 8.08093 39.3928 7.37402 37.1475C8.47423 39.2681 8.95243 40.4442 9.15341 41.1357C9.34573 41.7968 9.47047 44.632 9.60562 45.2254Z" fill="url(#paint55_radial_2_47905)"/>
<path d="M12.772 45.1714C14.2274 46.5738 15.0919 47.4364 15.7867 48.5537C16.4815 49.6675 16.6842 50.9701 17.4119 52.0714C13.5135 49.8385 13.4356 47.3063 12.772 45.1714Z" fill="url(#paint56_linear_2_47905)"/>
<path d="M15.7869 48.5519C16.4817 49.6657 16.6844 50.9684 17.4121 52.0697C16.506 51.4549 13.6905 47.0194 12.7739 45.1714C14.2276 46.5738 15.0921 47.4346 15.7869 48.5519Z" fill="url(#paint57_radial_2_47905)"/>
<path d="M6.89526 46.1455C8.11675 46.7015 9.29319 46.8904 10.5441 47.4535C11.7951 48.0095 13.3405 49.5563 14.2744 50.18C10.9478 49.9733 8.52045 48.8898 6.89526 46.1455Z" fill="url(#paint58_linear_2_47905)"/>
<path d="M14.2744 50.1805C12.3374 49.0953 9.69342 48.3468 6.89526 46.146C8.11675 46.702 9.29319 46.8909 10.5441 47.454C11.7968 48.01 13.3405 49.5568 14.2744 50.1805Z" fill="url(#paint59_linear_2_47905)"/>
<path d="M27.3676 56.1294C26.2085 55.0281 25.8481 53.9999 24.7358 53.1124C23.62 52.2285 21.7869 51.2734 20.6035 50.9116C21.9757 52.6135 23.7014 55.3899 27.3676 56.1294Z" fill="url(#paint60_linear_2_47905)"/>
<path d="M27.3676 56.1294C24.8987 54.7323 23.4519 52.7952 20.6018 50.9116C21.7869 51.2734 23.6183 52.2285 24.7341 53.1124C25.8481 54.0017 26.2085 55.0281 27.3676 56.1294Z" fill="url(#paint61_radial_2_47905)"/>
<path d="M19.145 55.4825C21.6278 55.6518 22.0748 55.2081 23.2721 55.1956C19.6544 53.7076 19.0047 53.5935 14.687 53.8804C16.1043 55.0281 17.4748 55.3471 19.145 55.4825Z" fill="url(#paint62_linear_2_47905)"/>
<path d="M23.2721 55.1956C20.0997 54.538 17.4072 54.9586 14.687 53.8804C19.0047 53.5935 19.6544 53.7076 23.2721 55.1956Z" fill="url(#paint63_linear_2_47905)"/>
<path d="M27.4013 58.6405C29.8113 58.4552 31.3516 57.4483 32.3687 57.042C29.9586 56.8121 27.5659 56.6339 26.0585 56.9209C24.52 57.2131 23.8893 57.9722 22.7874 58.0204C24.643 58.6922 26.1295 58.7385 27.4013 58.6405Z" fill="url(#paint64_linear_2_47905)"/>
<path d="M32.3687 57.0425C29.1911 57.4221 26.5211 57.9976 22.7874 58.019C23.8893 57.9709 24.52 57.2118 26.0585 56.9195C27.5641 56.6344 29.9586 56.8126 32.3687 57.0425Z" fill="url(#paint65_linear_2_47905)"/>
<path d="M7.24556 42.2506C5.58746 40.5416 2.97469 38.1341 1.92993 35.2383C2.99722 36.794 4.69344 37.2823 7.24556 42.2506Z" fill="url(#paint66_linear_2_47905)"/>
<path d="M50.3954 53.8588C46.1142 53.5737 45.4679 53.67 41.7982 55.1722C41.7878 55.1811 41.774 55.1989 41.7809 55.215C41.7878 55.2328 41.8052 55.2381 41.819 55.2346C45.4783 53.7359 46.1211 53.6361 50.392 53.9212C50.4076 53.923 50.4197 53.9088 50.4214 53.8909C50.4231 53.8749 50.4093 53.8588 50.3954 53.8588Z" fill="#8E8E8D"/>
<mask id="mask10_2_47905" style="mask-type:luminance" maskUnits="userSpaceOnUse" x="50" y="46" width="9" height="5">
<path d="M50.8289 50.2215C52.8768 49.2075 54.9663 48.9794 58.1855 46.146C56.9709 46.7073 55.7945 46.9069 54.5453 47.47C53.2926 48.0332 51.7575 49.5889 50.8289 50.2215Z" fill="white"/>
</mask>
<g mask="url(#mask10_2_47905)">
<path d="M58.1644 46.0959C57.551 46.3793 56.936 46.5771 56.3417 46.766C55.7509 46.9513 55.1445 47.1438 54.5259 47.4253C53.7116 47.7907 52.7916 48.5623 51.9807 49.243C51.5424 49.6083 51.1317 49.9576 50.8025 50.1786L50.7627 50.2071L50.8164 50.2926L50.858 50.2623C51.1907 50.0378 51.603 49.6903 52.0448 49.325C52.8505 48.6496 53.7636 47.8815 54.564 47.518C55.1739 47.2436 55.782 47.0529 56.3677 46.8658C56.9654 46.6733 57.5822 46.4773 58.2077 46.1922L58.2545 46.1708L58.2094 46.0781L58.1644 46.0959Z" fill="#949494"/>
</g>
<path d="M61.1916 22.2493L61.1708 22.2243C59.6617 20.5759 58.4731 19.2697 57.0247 15.4561C57.0195 15.4383 57.0004 15.4294 56.9848 15.4365C56.964 15.4437 56.9571 15.4633 56.9606 15.4811C58.416 19.3125 59.6097 20.6187 61.1206 22.2742L61.1448 22.2992C61.1552 22.3099 61.1777 22.3099 61.1916 22.2992C61.1985 22.2867 61.1985 22.2653 61.1916 22.2493Z" fill="#D6D6D6"/>
<mask id="mask11_2_47905" style="mask-type:luminance" maskUnits="userSpaceOnUse" x="57" y="9" width="3" height="9">
<path d="M57.144 9.80176C57.397 12.2431 58.3967 14.779 59.9734 17.2186C59.9318 14.7327 60.1588 12.7207 57.144 9.80176Z" fill="white"/>
</mask>
<g mask="url(#mask11_2_47905)">
<path d="M60.0618 17.2185L60.0496 16.6464C60.034 14.3975 60.0098 12.4551 57.2047 9.73926L57.0886 9.86222C59.8435 12.5317 59.8642 14.4385 59.8868 16.6482L59.8954 17.222L60.0618 17.2185Z" fill="#E7EFFA"/>
</g>
<path d="M57.226 12.6894C54.4174 11.5026 53.8647 10.9644 51.7146 8.62996C51.7024 8.61749 51.6834 8.61749 51.6695 8.62996C51.6556 8.64422 51.6539 8.66382 51.6695 8.67808C53.8249 11.025 54.3793 11.5632 57.2034 12.7536C57.2156 12.7625 57.2364 12.7536 57.2433 12.7376C57.2502 12.718 57.2433 12.6983 57.226 12.6894Z" fill="#CACACA"/>
<path d="M14.6922 53.9126C18.963 53.6257 19.6024 53.7237 23.2651 55.2241C23.2772 55.233 23.2945 55.2241 23.3015 55.2099C23.3067 55.1938 23.3015 55.1742 23.2859 55.1671C19.6162 53.6613 18.9717 53.5651 14.6887 53.8484C14.6731 53.852 14.6592 53.8662 14.6644 53.8823C14.661 53.9001 14.6766 53.9126 14.6922 53.9126Z" fill="#9F9F9F"/>
<path d="M22.7885 58.0508C23.3568 58.0258 23.7934 57.8191 24.3011 57.5767C24.7775 57.3469 25.3129 57.0938 26.0649 56.953C27.5878 56.659 30.0117 56.8514 32.3663 57.0706C32.3837 57.0706 32.3975 57.0582 32.3975 57.0439C32.3975 57.0261 32.3889 57.01 32.3715 57.01C30.0135 56.7926 27.5861 56.602 26.0527 56.8889C25.2956 57.0332 24.7515 57.2934 24.2768 57.5215C23.7761 57.7603 23.3429 57.9652 22.7868 57.9937C22.7712 57.9937 22.7573 58.0062 22.7573 58.0205C22.7573 58.0401 22.7712 58.0508 22.7885 58.0508Z" fill="#909090"/>
<path d="M42.3442 58.0503C41.7776 58.0253 41.3393 57.8186 40.8316 57.5762C40.3604 57.3464 39.8215 57.0933 39.0696 56.9525C37.5432 56.6585 35.1175 56.851 32.7664 57.0701C32.7525 57.0701 32.7369 57.0577 32.7369 57.0434C32.7335 57.0256 32.7456 57.0096 32.7612 57.0096C35.1158 56.7922 37.5466 56.6015 39.0817 56.8884C39.8389 57.0327 40.3777 57.2929 40.8576 57.521C41.3584 57.7598 41.7915 57.9647 42.3459 57.9932C42.3615 57.9932 42.3771 58.0057 42.3771 58.02C42.3754 58.0396 42.3615 58.0503 42.3442 58.0503Z" fill="#909090"/>
<path d="M2.08571 21.2927C2.2659 22.0501 2.45303 22.5526 2.61589 22.9964C2.81341 23.5256 2.9832 23.9836 3.0577 24.6893C3.1426 25.4787 3.16166 26.6941 3.17379 27.8578C3.18418 28.592 3.19631 29.3475 3.2223 29.9748C3.2223 29.9944 3.23443 30.0087 3.25176 30.0069C3.26908 30.0069 3.28468 29.9909 3.28468 29.9748C3.25522 29.344 3.24482 28.592 3.23443 27.8578C3.2223 26.6887 3.20498 25.4787 3.11661 24.6822C3.04211 23.9676 2.86712 23.5096 2.67307 22.975C2.50847 22.5366 2.32135 22.0323 2.14635 21.282C2.13942 21.2624 2.12556 21.2553 2.10824 21.2571C2.09091 21.2624 2.08225 21.2767 2.08571 21.2927Z" fill="#9CAABA"/>
<path d="M6.88108 46.1679C7.50135 46.4566 8.12509 46.6472 8.72284 46.8326C9.31019 47.0143 9.91487 47.2032 10.5317 47.4795C11.3339 47.8376 12.2556 48.5986 13.0665 49.2704C13.5066 49.6357 13.9224 49.9814 14.2533 50.2042C14.2654 50.2113 14.288 50.206 14.2949 50.1935C14.3053 50.1792 14.3018 50.1614 14.288 50.1507C13.9588 49.9315 13.5447 49.5876 13.1029 49.2223C12.2903 48.5469 11.3668 47.7824 10.5559 47.4206C9.93739 47.1444 9.33098 46.9573 8.74016 46.772C8.14415 46.5867 7.52388 46.396 6.90534 46.1126C6.89148 46.1055 6.87588 46.1126 6.86549 46.1287C6.86202 46.1483 6.86549 46.1661 6.88108 46.1679Z" fill="#8E8E8D"/>
<path d="M1.90703 35.2588C2.24143 35.7452 2.64339 36.1373 3.10773 36.5828C4.10397 37.5415 5.46927 38.8585 7.21573 42.2657C7.22266 42.2818 7.24172 42.2853 7.25558 42.28C7.27291 42.2711 7.27464 42.2532 7.26944 42.239C5.51605 38.8246 4.14902 37.5041 3.14758 36.5436C2.68497 36.0928 2.28821 35.7096 1.95381 35.2249C1.94515 35.2089 1.92609 35.2089 1.91223 35.216C1.9001 35.2267 1.89664 35.2463 1.90703 35.2588Z" fill="#909090"/>
<path d="M7.91082 9.79804C7.6388 12.3695 6.71532 14.7949 5.08321 17.2006C5.07455 17.2167 5.07628 17.2363 5.09361 17.2452C5.10747 17.2559 5.12306 17.2541 5.13346 17.238C6.77077 14.8216 7.69944 12.3909 7.96973 9.80517C7.96973 9.79092 7.9576 9.77488 7.94201 9.76953C7.92641 9.76953 7.91082 9.78201 7.91082 9.79804Z" fill="#C2C2C2"/>
<path d="M40.5131 1.143C46.5945 2.96602 51.7421 6.14339 55.4014 10.3365C57.4129 12.6389 58.9723 15.2442 60.0344 18.083C61.1709 21.1285 61.7479 24.4716 61.7479 28.0197C61.7479 31.7352 60.9977 35.3634 59.5128 38.8063C58.0713 42.1566 56.0009 45.1914 53.3534 47.8395C47.8975 53.2943 40.5079 56.5322 32.5431 56.9546C32.5275 56.9546 32.5137 56.9688 32.5171 56.9867C32.5171 57.0027 32.5293 57.017 32.5466 57.0134C40.5235 56.5893 47.9269 53.346 53.3933 47.8805C56.0459 45.2288 58.1216 42.1868 59.5648 38.8295C61.0514 35.3759 61.8051 31.7406 61.8051 28.0179C61.8051 24.4609 61.2299 21.1089 60.0863 18.0563C59.0191 15.2122 57.4614 12.5997 55.4447 10.292C51.7785 6.09349 46.6171 2.90899 40.5252 1.08419C40.5114 1.07706 40.4871 1.10379 40.4837 1.12161C40.4785 1.13765 40.4975 1.13765 40.5131 1.143Z" fill="white"/>
<path d="M32.5344 56.9548C24.5713 56.5324 17.1835 53.2945 11.7258 47.8397C9.0853 45.1916 7.00964 42.1585 5.56811 38.8065C4.08674 35.3636 3.33652 31.7336 3.33652 28.0199C3.33652 24.4754 3.91348 21.1377 5.05007 18.0904C6.11042 15.2534 7.66803 12.6498 9.67612 10.3492C13.3302 6.16142 18.476 2.98049 24.5471 1.15568C24.5626 1.14856 24.5921 1.15568 24.5869 1.13786C24.5834 1.12361 24.5141 1.104 24.502 1.104C18.4327 2.93415 13.2903 6.11687 9.6328 10.3082C7.61952 12.616 6.05844 15.2302 4.99635 18.0725C3.8563 21.1216 3.27588 24.4683 3.27588 28.0217C3.27588 31.7461 4.03303 35.3797 5.51613 38.8333C6.95939 42.1906 9.03505 45.2308 11.6825 47.8842C17.154 53.3515 24.5557 56.593 32.5309 57.019C32.5482 57.019 32.5638 57.0047 32.5638 56.9886C32.5638 56.9708 32.55 56.9566 32.5344 56.9548Z" fill="white"/>
<path d="M32.5449 44.3574C36.8141 43.404 42.1609 41.663 46.4889 39.7508C47.0243 39.5156 47.4228 39.1521 47.7451 38.687V35.294L32.5449 31.5713V44.3574Z" fill="url(#paint67_linear_2_47905)"/>
<path d="M40.4976 20.5371H49.2334L50.3648 18.6304H40.1857V23.948H32.713V18.6304H32.4878H32.3925V22.4511H17.1248L17.2356 22.6506C17.2356 22.6506 17.2391 22.6774 17.2391 22.7273H32.3925V25.4271H17.2668C17.2668 25.5179 17.2668 25.6213 17.2668 25.7104H32.3925V29.2941H17.3067C17.3136 29.3832 17.3136 29.4812 17.3136 29.5721H24.7014V34.6972H17.3933C17.3933 34.699 17.3933 34.7043 17.3933 34.7061C17.4158 35.451 17.4886 36.1032 17.6393 36.6628H24.7118V38.4092H18.7274C19.0081 38.6213 19.3442 38.7923 19.741 38.9188C21.3471 39.4232 23.2062 39.9471 24.9752 40.4122V34.9752L32.3925 34.9645V42.0677C32.4254 42.0677 32.4583 42.0748 32.4878 42.082C32.5397 42.0731 32.661 42.0624 32.713 42.0552V36.4899H47.6325C47.6532 36.4044 47.6723 36.2975 47.6844 36.2084H32.7113V33.5318H47.8525C47.8525 33.4427 47.8577 33.3037 47.8594 33.2092H32.713V29.5756H47.9079C47.9114 29.483 47.9149 29.3671 47.9149 29.278H40.4993V24.2171H47.9668C47.9755 23.2619 47.9824 22.6506 47.9824 22.6506L48.2441 22.2087H40.4993V20.5371H40.4976Z" fill="url(#paint68_linear_2_47905)"/>
<path d="M46.9461 37.0649L33.0541 41.6252L32.6331 42.158V42.0564V36.4893V36.4038H32.711H47.6305H47.7362L46.9461 37.0649Z" fill="#73777B"/>
<path d="M33.0551 41.6249L46.9454 37.0664L47.7372 36.4053L47.7112 36.5158C47.4028 37.8505 46.7011 38.6275 45.5004 39.0035C41.5085 40.258 35.8117 41.6641 32.7276 42.1399L32.6323 42.1577L33.0551 41.6249Z" fill="#E1E8F5"/>
<path d="M18.3172 33.758L24.7833 29.4883V29.5756V34.7007V34.7827H24.6984H17.3902H17.3105L18.3172 33.758Z" fill="#E1E8F5"/>
<path d="M18.3166 33.7577L17.31 34.7842L17.3031 34.704C17.284 33.9324 17.2563 32.2074 17.2251 29.5771V29.4897H17.31H24.6978H24.7827L18.3166 33.7577Z" fill="#73777B"/>
<path d="M31.9807 35.4861L32.4779 34.8838V34.9658V42.069V42.1652L32.3844 42.1509C30.6795 41.8943 27.9905 41.2884 25.0052 40.5043L24.9446 40.4829L31.9807 35.4861Z" fill="#E1E8F5"/>
<path d="M31.9807 35.4861L24.9446 40.4847V40.4224V34.9658V34.8838H25.026H32.3913H32.4779L31.9807 35.4861Z" fill="#73777B"/>
<path d="M18.8642 38.0078L24.2855 37.0437L24.7915 36.5786V36.6659V38.4123V38.4996H24.7083H18.7239L18.8642 38.0078Z" fill="#E1E8F5"/>
<path d="M24.2855 37.0437L18.8659 38.0078L18.7256 38.4996H18.6944L18.6753 38.4836C18.1347 38.0702 17.7709 37.4857 17.5543 36.6909L17.5283 36.5786H17.6357H24.7082H24.7914L24.2855 37.0437Z" fill="#73777B"/>
<path d="M32.2001 25.9487L18.0378 28.7019L17.2252 29.3845V29.2954L17.1819 25.7117V25.6279H17.265H32.3907H32.4773L32.2001 25.9487Z" fill="#73777B"/>
<path d="M18.0377 28.7019L32.2 25.9487L32.4772 25.6279V25.7117V29.2954V29.3845H32.3906H17.3031H17.2251L18.0377 28.7019Z" fill="#E1E8F5"/>
<path d="M33.2551 23.427L39.6362 19.2802L40.2686 18.5425V18.6298V23.9474V24.0365H40.1837H32.711H32.6331L33.2551 23.427Z" fill="#E1E8F5"/>
<path d="M39.6362 19.2802L33.2551 23.427L32.6331 24.0365V23.9474V18.6298V18.5425H32.711H40.1837H40.2686L39.6362 19.2802Z" fill="#73777B"/>
<path d="M32.0805 23.0244L32.4773 22.6431V22.7268V25.4266V25.5139H32.3907H17.265H17.1819L32.0805 23.0244Z" fill="#E1E8F5"/>
<path d="M32.0809 23.0244L17.1823 25.5139L17.1788 25.4266L17.1528 22.7268V22.6431H17.2377H32.3911H32.4777L32.0809 23.0244Z" fill="#73777B"/>
<path d="M17.317 22.1226L32.1221 18.9452L32.4773 18.5425V18.6298V22.4505V22.5378H32.3906H17.1212H17.0779L17.317 22.1226Z" fill="#E1E8F5"/>
<path d="M32.1224 18.9452L17.3173 22.1226L17.0782 22.5378L17.0522 22.495L14.7808 18.6744L14.7063 18.5425H14.8536H32.391H32.4776L32.1224 18.9452Z" fill="#73777B"/>
<path d="M47.1039 25.1525L41.1542 28.729L40.4126 29.3634V29.2779V24.2169V24.1313H40.4975H47.965H48.0499L47.1039 25.1525Z" fill="#73777B"/>
<path d="M41.1542 28.729L47.1039 25.1525L48.0499 24.1313V24.2169L47.9927 29.2796V29.3634H47.913H40.4975H40.4126L41.1542 28.729Z" fill="#E1E8F5"/>
<path d="M48.4484 20.9291L40.8717 21.9448L40.4126 22.2977V22.2104V20.537V20.4497H40.4975H49.1276H49.2766L48.4484 20.9291Z" fill="#73777B"/>
<path d="M40.8717 21.9448L48.4484 20.9291L49.2766 20.4497L49.2004 20.5816L48.211 22.2567L48.1851 22.2977H48.1383H40.4975H40.4126L40.8717 21.9448Z" fill="#E1E8F5"/>
<path d="M47.1453 34.0305L33.0645 35.8838L32.6331 36.2901V36.2081V33.5315V33.4478H32.711H47.8523H47.9354L47.1453 34.0305Z" fill="#73777B"/>
<path d="M33.0645 35.8838L47.1453 34.0305L47.9354 33.4478V33.5315L47.9129 34.713C47.8973 35.2957 47.8505 35.7876 47.7674 36.2242L47.7552 36.2919H47.6842H32.711H32.6331L33.0645 35.8838Z" fill="#E1E8F5"/>
<path d="M47.5161 29.9552L33.1442 32.8064L32.6331 33.2947V33.2092V29.5756V29.4883H32.711H47.906H47.9926L47.5161 29.9552Z" fill="#73777B"/>
<path d="M33.1444 32.8064L47.5163 29.9552L47.9928 29.4883L47.9893 29.5756C47.9738 31.0832 47.953 32.3075 47.9408 33.2127L47.9391 33.2965H47.8594H32.713H32.635L33.1444 32.8064Z" fill="#E1E8F5"/>
<path d="M39.8649 26.2108L33.1667 27.3192L32.6331 27.8039V27.7184V25.9452V25.8579H32.711H40.1837H40.2686L39.8649 26.2108Z" fill="#73777B"/>
<path d="M33.1667 27.3192L39.8649 26.2108L40.2686 25.8579V25.9452V27.7184V27.8039H40.1837H32.711H32.6331L33.1667 27.3192Z" fill="#E1E8F5"/>
<path d="M25.2491 32.8165L32.1362 31.6029L32.4776 31.1948V31.2839V33.0535V33.1372H32.3909H25.0187H24.9373L25.2491 32.8165Z" fill="#E1E8F5"/>
<path d="M32.1362 31.6029L25.2491 32.8165L24.9373 33.1372V33.0535V31.2839V31.1948H25.0187H32.3909H32.4776L32.1362 31.6029Z" fill="#73777B"/>
<path d="M32.7107 42.0565C35.5868 41.6146 41.2905 40.2371 45.4765 38.9219C46.7171 38.5352 47.346 37.7297 47.6301 36.4912H32.7107V42.0565Z" fill="url(#paint69_linear_2_47905)"/>
<path d="M24.6976 29.5757H17.3098C17.3358 31.7444 17.3635 33.8098 17.3895 34.7008H24.6976V29.5757Z" fill="url(#paint70_linear_2_47905)"/>
<path d="M25.0256 34.9658V40.4224C27.9225 41.1833 30.6306 41.7999 32.3909 42.069V34.9658H25.0256Z" fill="url(#paint71_linear_2_47905)"/>
<path d="M24.7082 36.666H17.6357C17.835 37.4127 18.1798 37.9936 18.7256 38.4124H24.71V36.666H24.7082Z" fill="url(#paint72_linear_2_47905)"/>
<path d="M32.3905 25.7119H17.2649C17.277 26.8061 17.2926 28.0464 17.3047 29.2956H32.3905V25.7119Z" fill="url(#paint73_linear_2_47905)"/>
<path d="M40.1834 18.6304H32.7107V23.948H40.1834V18.6304Z" fill="url(#paint74_linear_2_47905)"/>
<path d="M32.3909 18.6304H14.8535L17.1215 22.4511H32.3909V18.6304Z" fill="url(#paint75_linear_2_47905)"/>
<path d="M40.4973 29.2783H47.9129C47.9337 27.4071 47.9527 25.511 47.9648 24.2173H40.4973V29.2783Z" fill="url(#paint76_linear_2_47905)"/>
<path d="M40.4973 20.5371V22.2104H48.1381L49.1274 20.5371H40.4973Z" fill="url(#paint77_linear_2_47905)"/>
<path d="M32.7107 36.2084H47.6839C47.767 35.7575 47.8103 35.2585 47.8294 34.7097C47.8346 34.4174 47.8433 34.0467 47.8519 33.5317H32.7107V36.2084Z" fill="black"/>
<path d="M32.7107 33.2093H47.8571C47.871 32.2024 47.8883 30.9104 47.9056 29.5757H32.7107V33.2093Z" fill="url(#paint78_linear_2_47905)"/>
<path d="M32.3888 31.2847H25.0183V33.0542H32.3888V31.2847Z" fill="url(#paint79_linear_2_47905)"/>
<path d="M40.1834 25.9453H32.7107V27.7184H40.1834V25.9453Z" fill="url(#paint80_linear_2_47905)"/>
<path d="M32.3907 22.7271H17.2373C17.239 23.0104 17.2494 24.0582 17.265 25.4268H32.3907V22.7271Z" fill="black"/>
<path d="M47.5215 36.5771C47.2131 37.8014 46.5721 38.4893 45.4511 38.8421C41.5094 40.0788 35.9027 41.4653 32.7961 41.9589V36.5771H47.5215Z" fill="url(#paint81_linear_2_47905)"/>
<path d="M49.1274 20.5371H40.4973V22.2104H40.6134V20.6583H49.1274V20.5371Z" fill="#37445E"/>
<path d="M40.1834 25.9453H32.7107V27.7184H32.8337V26.0647H40.1834V25.9453Z" fill="#37445E"/>
<path d="M40.1834 18.6304H32.7107V23.948H32.8337V18.7533H40.1834V18.6304Z" fill="#A54C45"/>
<path d="M32.3909 18.6304H14.8535L17.1215 22.4511H17.2566L15.077 18.7533H32.3909V18.6304Z" fill="#857655"/>
<path d="M32.3902 25.7119H17.2559L17.2974 29.2956H17.4274L17.3858 25.8384H32.3902V25.7119Z" fill="#857655"/>
<path d="M24.6982 29.5757H17.3018L17.3797 34.7008H17.5166L17.4386 29.6951H24.6982V29.5757Z" fill="#A5524B"/>
<path d="M47.9648 24.2173H40.4973V29.2783H40.6134V24.3402H47.9648V24.2173Z" fill="#A54C45"/>
<path d="M32.3905 31.2847H25.0183V33.0542H25.1379V31.4041H32.3905V31.2847Z" fill="#374E74"/>
<path d="M32.3979 34.9658H25.0256V40.4224L25.1435 40.4563V35.0888H32.3979V34.9658Z" fill="#A5524B"/>
<path d="M47.6163 36.4893H32.7107V42.0688H32.8337V36.6176H47.6163V36.4893Z" fill="#857655"/>
<path d="M47.9056 29.5757H32.7107V33.2093H32.8337V29.6951H47.9056V29.5757Z" fill="#857655"/>
<path d="M17.634 36.666C17.641 36.6927 17.6514 36.7266 17.66 36.7551L17.6722 36.7908C17.8558 37.4198 18.282 38.015 18.7498 38.4124H18.9422C18.4743 38.0578 17.9996 37.4537 17.7952 36.7908H24.7048V36.666H17.634Z" fill="#374E74"/>
<path d="M50.4656 18.5254C49.9891 19.4752 49.1661 20.9169 48.1421 22.5795C48.1092 26.2184 48.0226 32.3772 47.9775 34.6902C47.929 37.1726 47.2187 38.5127 45.6853 39.0188C44.1935 39.5178 35.4837 41.92 32.5574 42.1891L32.6284 42.0893C35.8441 41.715 44.1641 39.3984 45.6472 38.903C47.1234 38.4094 47.8078 37.1085 47.858 34.6885C47.9048 32.3683 47.9931 26.1935 48.0226 22.5581V22.5474L48.0347 22.5296L50.3183 18.6751L50.4656 18.5254Z" fill="#E1E8F5"/>
<path d="M50.4649 18.5254H50.3574H14.768H14.6641L14.7178 18.6181L17.1261 22.6383C17.1555 26.2024 17.2595 32.2827 17.3115 34.7491C17.36 37.1744 18.0461 38.429 19.602 38.9475C21.2445 39.4964 29.431 41.8237 32.5584 42.1873H32.5653H32.5723C35.7897 41.813 44.1287 39.4893 45.6188 38.9903C47.1504 38.4806 47.859 37.1459 47.9145 34.6617C47.9612 32.3469 48.0496 26.1864 48.0773 22.5492L50.4111 18.6127L50.4649 18.5254ZM47.9578 22.5207V22.5368C47.9283 26.1685 47.8365 32.3433 47.7914 34.6635C47.7412 37.0835 47.0603 38.3826 45.5789 38.8762C44.0941 39.3717 35.7741 41.6883 32.5636 42.0643C29.438 41.7008 21.2809 39.3806 19.6384 38.8317C18.1189 38.3238 17.4795 37.1405 17.4293 34.7491C17.3808 32.2756 17.2716 26.1828 17.2439 22.6223V22.608L17.2335 22.592L14.8754 18.6484H50.25L47.9647 22.5011L47.9578 22.5207Z" fill="#717C8C"/>
<defs>
<linearGradient id="paint0_linear_2_47905" x1="43.1262" y1="15.9904" x2="43.0398" y2="16.7512" gradientUnits="userSpaceOnUse">
<stop stop-color="#9DBAE3"/>
<stop offset="1" stop-color="#C8D7F0"/>
</linearGradient>
<linearGradient id="paint1_linear_2_47905" x1="48.7637" y1="32.4807" x2="33.6503" y2="28.936" gradientUnits="userSpaceOnUse">
<stop stop-color="#CFDDF3"/>
<stop offset="1" stop-color="#99B6E0"/>
</linearGradient>
<linearGradient id="paint2_linear_2_47905" x1="51.6734" y1="20.0362" x2="52.3298" y2="20.3967" gradientUnits="userSpaceOnUse">
<stop offset="0.58" stop-color="#545F63"/>
<stop offset="1" stop-color="#6A7175"/>
</linearGradient>
<linearGradient id="paint3_linear_2_47905" x1="23.9863" y1="12.6103" x2="20.3715" y2="42.436" gradientUnits="userSpaceOnUse">
<stop stop-color="#F4F8FD"/>
<stop offset="0.52" stop-color="#6D8196"/>
<stop offset="1" stop-color="#5C6E7E"/>
</linearGradient>
<linearGradient id="paint4_linear_2_47905" x1="21.6971" y1="15.0793" x2="22.2763" y2="16.9219" gradientUnits="userSpaceOnUse">
<stop stop-color="#BECBE1"/>
<stop offset="1" stop-color="#D3E1F5"/>
</linearGradient>
<linearGradient id="paint5_linear_2_47905" x1="30.9055" y1="29.7915" x2="14.1462" y2="29.7915" gradientUnits="userSpaceOnUse">
<stop stop-color="#F2F5FC"/>
<stop offset="1" stop-color="#C5D6F0"/>
</linearGradient>
<linearGradient id="paint6_linear_2_47905" x1="13.7862" y1="19.7942" x2="13.1303" y2="20.1544" gradientUnits="userSpaceOnUse">
<stop offset="0.58" stop-color="#545F63"/>
<stop offset="1" stop-color="#6A7175"/>
</linearGradient>
<linearGradient id="paint7_linear_2_47905" x1="52.0447" y1="7.4584" x2="37.9052" y2="53.0607" gradientUnits="userSpaceOnUse">
<stop stop-color="#4D606C"/>
<stop offset="0.27" stop-color="#4D606C"/>
<stop offset="0.51" stop-color="#C6D3E6"/>
<stop offset="0.91" stop-color="#C6D3E6"/>
<stop offset="1" stop-color="#8BA4C7"/>
</linearGradient>
<linearGradient id="paint8_linear_2_47905" x1="54.3982" y1="30.3796" x2="47.0724" y2="-0.359917" gradientUnits="userSpaceOnUse">
<stop stop-color="#C1D4EF"/>
<stop offset="1" stop-color="#89A3C8"/>
</linearGradient>
<linearGradient id="paint9_linear_2_47905" x1="84.8866" y1="93.8571" x2="46.845" y2="45.1766" gradientUnits="userSpaceOnUse">
<stop stop-color="white"/>
<stop offset="0.92" stop-color="white"/>
<stop offset="0.9224" stop-color="#FBFCFE"/>
<stop offset="0.9402" stop-color="#E2EBF7"/>
<stop offset="0.9588" stop-color="#CFDEF3"/>
<stop offset="0.9782" stop-color="#C5D6F0"/>
<stop offset="1" stop-color="#C1D4EF"/>
</linearGradient>
<linearGradient id="paint10_linear_2_47905" x1="9.63199" y1="6.25861" x2="32.654" y2="57.6165" gradientUnits="userSpaceOnUse">
<stop stop-color="#7796B9"/>
<stop offset="0.48" stop-color="#98B4DD"/>
<stop offset="0.94" stop-color="#D8E6F7"/>
<stop offset="1" stop-color="#F4F8FD"/>
</linearGradient>
<linearGradient id="paint11_linear_2_47905" x1="16.142" y1="2.99181" x2="20.1862" y2="53.3975" gradientUnits="userSpaceOnUse">
<stop stop-color="#4D606C"/>
<stop offset="0.91" stop-color="#A5B9D9"/>
<stop offset="1" stop-color="#8DA8CD"/>
</linearGradient>
<linearGradient id="paint12_linear_2_47905" x1="45.2587" y1="4.03833" x2="46.2264" y2="5.03895" gradientUnits="userSpaceOnUse">
<stop stop-color="#323C40"/>
<stop offset="1" stop-color="#8C9AAB"/>
</linearGradient>
<linearGradient id="paint13_linear_2_47905" x1="43.109" y1="1.04506" x2="52.5057" y2="6.29922" gradientUnits="userSpaceOnUse">
<stop stop-color="#7796B9"/>
<stop offset="0.48" stop-color="#98B4DD"/>
<stop offset="0.94" stop-color="#D8E6F7"/>
<stop offset="1" stop-color="#F4F8FD"/>
</linearGradient>
<linearGradient id="paint14_linear_2_47905" x1="49.0276" y1="3.61632" x2="54.3083" y2="8.76557" gradientUnits="userSpaceOnUse">
<stop stop-color="#323C40"/>
<stop offset="1" stop-color="#8C9AAB"/>
</linearGradient>
<linearGradient id="paint15_linear_2_47905" x1="59.7515" y1="13.402" x2="54.8407" y2="10.8973" gradientUnits="userSpaceOnUse">
<stop stop-color="#9DB3D2"/>
<stop offset="1" stop-color="#EEF3FC"/>
</linearGradient>
<linearGradient id="paint16_linear_2_47905" x1="54.9725" y1="12.2134" x2="54.1572" y2="9.95754" gradientUnits="userSpaceOnUse">
<stop stop-color="#323C40"/>
<stop offset="1" stop-color="#8C9AAB"/>
</linearGradient>
<linearGradient id="paint17_linear_2_47905" x1="58.2612" y1="10.956" x2="58.6392" y2="12.9159" gradientUnits="userSpaceOnUse">
<stop stop-color="#9DB3D2"/>
<stop offset="1" stop-color="#EEF3FC"/>
</linearGradient>
<linearGradient id="paint18_linear_2_47905" x1="58.4772" y1="19.8022" x2="59.0977" y2="18.8972" gradientUnits="userSpaceOnUse">
<stop stop-color="#9DB3D2"/>
<stop offset="1" stop-color="#EEF3FC"/>
</linearGradient>
<linearGradient id="paint19_linear_2_47905" x1="58.9462" y1="17.9453" x2="59.23" y2="19.7847" gradientUnits="userSpaceOnUse">
<stop stop-color="#323C40"/>
<stop offset="1" stop-color="#8C9AAB"/>
</linearGradient>
<linearGradient id="paint20_linear_2_47905" x1="61.854" y1="30.2069" x2="62.6806" y2="26.0208" gradientUnits="userSpaceOnUse">
<stop stop-color="#9DB3D2"/>
<stop offset="1" stop-color="#EEF3FC"/>
</linearGradient>
<linearGradient id="paint21_linear_2_47905" x1="63.2656" y1="25.6607" x2="62.3328" y2="25.6305" gradientUnits="userSpaceOnUse">
<stop stop-color="#323C40"/>
<stop offset="1" stop-color="#8C9AAB"/>
</linearGradient>
<linearGradient id="paint22_linear_2_47905" x1="60.5907" y1="36.4519" x2="60.0705" y2="28.0938" gradientUnits="userSpaceOnUse">
<stop stop-color="#9DB3D2"/>
<stop offset="1" stop-color="#EEF3FC"/>
</linearGradient>
<linearGradient id="paint23_linear_2_47905" x1="60.3734" y1="28.0758" x2="60.9064" y2="36.6159" gradientUnits="userSpaceOnUse">
<stop stop-color="#323C40"/>
<stop offset="1" stop-color="#8C9AAB"/>
</linearGradient>
<linearGradient id="paint24_linear_2_47905" x1="57.5967" y1="41.9631" x2="61.2717" y2="38.6037" gradientUnits="userSpaceOnUse">
<stop stop-color="#9DB3D2"/>
<stop offset="1" stop-color="#EEF3FC"/>
</linearGradient>
<linearGradient id="paint25_linear_2_47905" x1="62.5376" y1="38.5012" x2="59.1942" y2="38.8785" gradientUnits="userSpaceOnUse">
<stop stop-color="#323C40"/>
<stop offset="1" stop-color="#8C9AAB"/>
</linearGradient>
<linearGradient id="paint26_linear_2_47905" x1="57.7699" y1="41.5906" x2="56.7609" y2="41.2636" gradientUnits="userSpaceOnUse">
<stop stop-color="#9DB3D2"/>
<stop offset="1" stop-color="#EEF3FC"/>
</linearGradient>
<linearGradient id="paint27_linear_2_47905" x1="57.1589" y1="41.3574" x2="56.4388" y2="41.1532" gradientUnits="userSpaceOnUse">
<stop stop-color="#323C40"/>
<stop offset="1" stop-color="#8C9AAB"/>
</linearGradient>
<linearGradient id="paint28_linear_2_47905" x1="51.5404" y1="49.5239" x2="50.6259" y2="49.0201" gradientUnits="userSpaceOnUse">
<stop stop-color="#9DB3D2"/>
<stop offset="1" stop-color="#EEF3FC"/>
</linearGradient>
<linearGradient id="paint29_linear_2_47905" x1="49.9594" y1="48.609" x2="48.6493" y2="48.1553" gradientUnits="userSpaceOnUse">
<stop stop-color="#323C40"/>
<stop offset="1" stop-color="#8C9AAB"/>
</linearGradient>
<linearGradient id="paint30_linear_2_47905" x1="52.4342" y1="47.912" x2="55.2403" y2="48.2602" gradientUnits="userSpaceOnUse">
<stop stop-color="#9DB3D2"/>
<stop offset="1" stop-color="#EEF3FC"/>
</linearGradient>
<linearGradient id="paint31_linear_2_47905" x1="41.6132" y1="53.998" x2="41.0051" y2="53.4705" gradientUnits="userSpaceOnUse">
<stop stop-color="#9DB3D2"/>
<stop offset="1" stop-color="#EEF3FC"/>
</linearGradient>
<linearGradient id="paint32_linear_2_47905" x1="40.9963" y1="53.4133" x2="40.253" y2="52.6613" gradientUnits="userSpaceOnUse">
<stop stop-color="#323C40"/>
<stop offset="1" stop-color="#8C9AAB"/>
</linearGradient>
<linearGradient id="paint33_linear_2_47905" x1="42.0511" y1="54.9037" x2="46.6317" y2="54.6278" gradientUnits="userSpaceOnUse">
<stop stop-color="#9DB3D2"/>
<stop offset="1" stop-color="#EEF3FC"/>
</linearGradient>
<linearGradient id="paint34_linear_2_47905" x1="46.0518" y1="54.1466" x2="45.8537" y2="52.6741" gradientUnits="userSpaceOnUse">
<stop stop-color="#323C40"/>
<stop offset="1" stop-color="#8C9AAB"/>
</linearGradient>
<linearGradient id="paint35_linear_2_47905" x1="33.0592" y1="56.9012" x2="36.8739" y2="57.514" gradientUnits="userSpaceOnUse">
<stop stop-color="#9DB3D2"/>
<stop offset="1" stop-color="#EEF3FC"/>
</linearGradient>
<linearGradient id="paint36_linear_2_47905" x1="37.6352" y1="56.8224" x2="37.7339" y2="56.312" gradientUnits="userSpaceOnUse">
<stop stop-color="#323C40"/>
<stop offset="1" stop-color="#8C9AAB"/>
</linearGradient>
<linearGradient id="paint37_linear_2_47905" x1="56.4713" y1="47.5401" x2="51.2891" y2="49.1351" gradientUnits="userSpaceOnUse">
<stop stop-color="#323C40"/>
<stop offset="1" stop-color="#8C9AAB"/>
</linearGradient>
<linearGradient id="paint38_linear_2_47905" x1="58.9136" y1="15.3791" x2="58.41" y2="13.084" gradientUnits="userSpaceOnUse">
<stop stop-color="#323C40"/>
<stop offset="1" stop-color="#8C9AAB"/>
</linearGradient>
<radialGradient id="paint39_radial_2_47905" cx="0" cy="0" r="1" gradientUnits="userSpaceOnUse" gradientTransform="translate(19.1582 0.507242) scale(4.01052 4.12494)">
<stop stop-color="#83A2C5"/>
<stop offset="0.1677" stop-color="#8DA9CA"/>
<stop offset="0.4532" stop-color="#A8BDD8"/>
<stop offset="0.8195" stop-color="#D5DFEF"/>
<stop offset="1" stop-color="#EEF3FC"/>
</radialGradient>
<linearGradient id="paint40_linear_2_47905" x1="21.4888" y1="2.87803" x2="19.5624" y2="3.69746" gradientUnits="userSpaceOnUse">
<stop stop-color="#323C40"/>
<stop offset="1" stop-color="#8C9AAB"/>
</linearGradient>
<linearGradient id="paint41_linear_2_47905" x1="16.2186" y1="3.20554" x2="10.8516" y2="8.11985" gradientUnits="userSpaceOnUse">
<stop stop-color="#323C40"/>
<stop offset="1" stop-color="#8C9AAB"/>
</linearGradient>
<linearGradient id="paint42_linear_2_47905" x1="14.5074" y1="6.53572" x2="13.9098" y2="6.10367" gradientUnits="userSpaceOnUse">
<stop stop-color="#637B97"/>
<stop offset="0.1706" stop-color="#869AB3"/>
<stop offset="0.3747" stop-color="#AEBCD0"/>
<stop offset="0.49" stop-color="#BDC9DB"/>
<stop offset="1" stop-color="#DCE7F7"/>
</linearGradient>
<radialGradient id="paint43_radial_2_47905" cx="0" cy="0" r="1" gradientUnits="userSpaceOnUse" gradientTransform="translate(9.13422 8.30003) scale(4.18478 4.30417)">
<stop stop-color="#83A2C5"/>
<stop offset="0.1677" stop-color="#8DA9CA"/>
<stop offset="0.4532" stop-color="#A8BDD8"/>
<stop offset="0.8195" stop-color="#D5DFEF"/>
<stop offset="1" stop-color="#EEF3FC"/>
</radialGradient>
<linearGradient id="paint44_linear_2_47905" x1="10.7814" y1="10.9042" x2="10.3136" y2="10.2676" gradientUnits="userSpaceOnUse">
<stop stop-color="#323C40"/>
<stop offset="1" stop-color="#8C9AAB"/>
</linearGradient>
<linearGradient id="paint45_linear_2_47905" x1="5.20625" y1="13.0032" x2="6.01986" y2="13.2998" gradientUnits="userSpaceOnUse">
<stop stop-color="#9DB3D2"/>
<stop offset="1" stop-color="#EEF3FC"/>
</linearGradient>
<linearGradient id="paint46_linear_2_47905" x1="6.37879" y1="13.4564" x2="7.15078" y2="13.733" gradientUnits="userSpaceOnUse">
<stop stop-color="#323C40"/>
<stop offset="1" stop-color="#8C9AAB"/>
</linearGradient>
<radialGradient id="paint47_radial_2_47905" cx="0" cy="0" r="1" gradientUnits="userSpaceOnUse" gradientTransform="translate(3.52878 16.2007) scale(4.6258 4.75777)">
<stop stop-color="#83A2C5"/>
<stop offset="0.1677" stop-color="#8DA9CA"/>
<stop offset="0.4532" stop-color="#A8BDD8"/>
<stop offset="0.8195" stop-color="#D5DFEF"/>
<stop offset="1" stop-color="#EEF3FC"/>
</radialGradient>
<linearGradient id="paint48_linear_2_47905" x1="6.6651" y1="18.6273" x2="4.86515" y2="19.2106" gradientUnits="userSpaceOnUse">
<stop stop-color="#323C40"/>
<stop offset="1" stop-color="#8C9AAB"/>
</linearGradient>
<radialGradient id="paint49_radial_2_47905" cx="0" cy="0" r="1" gradientUnits="userSpaceOnUse" gradientTransform="translate(5.5138 25.2175) scale(4.60697 4.73841)">
<stop stop-color="#83A2C5"/>
<stop offset="0.1677" stop-color="#8DA9CA"/>
<stop offset="0.4532" stop-color="#A8BDD8"/>
<stop offset="0.8195" stop-color="#D5DFEF"/>
<stop offset="1" stop-color="#EEF3FC"/>
</radialGradient>
<linearGradient id="paint50_linear_2_47905" x1="2.47885" y1="25.6454" x2="3.40219" y2="25.5842" gradientUnits="userSpaceOnUse">
<stop stop-color="#323C40"/>
<stop offset="1" stop-color="#8C9AAB"/>
</linearGradient>
<radialGradient id="paint51_radial_2_47905" cx="0" cy="0" r="1" gradientUnits="userSpaceOnUse" gradientTransform="translate(2.65336 32.0522) scale(4.12761 4.24537)">
<stop stop-color="#83A2C5"/>
<stop offset="0.1677" stop-color="#8DA9CA"/>
<stop offset="0.4532" stop-color="#A8BDD8"/>
<stop offset="0.8195" stop-color="#D5DFEF"/>
<stop offset="1" stop-color="#EEF3FC"/>
</radialGradient>
<linearGradient id="paint52_linear_2_47905" x1="5.25836" y1="32.011" x2="4.29116" y2="32.0502" gradientUnits="userSpaceOnUse">
<stop stop-color="#323C40"/>
<stop offset="1" stop-color="#8C9AAB"/>
</linearGradient>
<linearGradient id="paint53_linear_2_47905" x1="4.42154" y1="38.895" x2="3.92269" y2="39.3193" gradientUnits="userSpaceOnUse">
<stop stop-color="#9DB3D2"/>
<stop offset="1" stop-color="#EEF3FC"/>
</linearGradient>
<linearGradient id="paint54_linear_2_47905" x1="8.46196" y1="41.1927" x2="7.57895" y2="41.3488" gradientUnits="userSpaceOnUse">
<stop stop-color="#323C40"/>
<stop offset="1" stop-color="#8C9AAB"/>
</linearGradient>
<radialGradient id="paint55_radial_2_47905" cx="0" cy="0" r="1" gradientUnits="userSpaceOnUse" gradientTransform="translate(5.54193 42.5767) scale(4.35685 4.48115)">
<stop stop-color="#83A2C5"/>
<stop offset="0.1677" stop-color="#8DA9CA"/>
<stop offset="0.4532" stop-color="#A8BDD8"/>
<stop offset="0.8195" stop-color="#D5DFEF"/>
<stop offset="1" stop-color="#EEF3FC"/>
</radialGradient>
<linearGradient id="paint56_linear_2_47905" x1="14.9196" y1="48.7468" x2="14.0622" y2="49.3422" gradientUnits="userSpaceOnUse">
<stop stop-color="#323C40"/>
<stop offset="1" stop-color="#8C9AAB"/>
</linearGradient>
<radialGradient id="paint57_radial_2_47905" cx="0" cy="0" r="1" gradientUnits="userSpaceOnUse" gradientTransform="translate(11.1523 51.4763) scale(5.80842 5.97415)">
<stop stop-color="#83A2C5"/>
<stop offset="0.1677" stop-color="#8DA9CA"/>
<stop offset="0.4532" stop-color="#A8BDD8"/>
<stop offset="0.8195" stop-color="#D5DFEF"/>
<stop offset="1" stop-color="#EEF3FC"/>
</radialGradient>
<linearGradient id="paint58_linear_2_47905" x1="10.0412" y1="45.8062" x2="10.9221" y2="49.4155" gradientUnits="userSpaceOnUse">
<stop stop-color="#9DB3D2"/>
<stop offset="1" stop-color="#EEF3FC"/>
</linearGradient>
<linearGradient id="paint59_linear_2_47905" x1="10.4346" y1="48.5705" x2="10.8987" y2="47.381" gradientUnits="userSpaceOnUse">
<stop stop-color="#323C40"/>
<stop offset="1" stop-color="#8C9AAB"/>
</linearGradient>
<linearGradient id="paint60_linear_2_47905" x1="23.2401" y1="53.1554" x2="27.9539" y2="55.8806" gradientUnits="userSpaceOnUse">
<stop stop-color="#323C40"/>
<stop offset="1" stop-color="#8C9AAB"/>
</linearGradient>
<radialGradient id="paint61_radial_2_47905" cx="0" cy="0" r="1" gradientUnits="userSpaceOnUse" gradientTransform="translate(23.025 55.0657) scale(2.42869 2.49798)">
<stop stop-color="#83A2C5"/>
<stop offset="0.1677" stop-color="#8DA9CA"/>
<stop offset="0.4532" stop-color="#A8BDD8"/>
<stop offset="0.8195" stop-color="#D5DFEF"/>
<stop offset="1" stop-color="#EEF3FC"/>
</radialGradient>
<linearGradient id="paint62_linear_2_47905" x1="19.0383" y1="53.4828" x2="18.9092" y2="55.6482" gradientUnits="userSpaceOnUse">
<stop stop-color="#9DB3D2"/>
<stop offset="1" stop-color="#EEF3FC"/>
</linearGradient>
<linearGradient id="paint63_linear_2_47905" x1="18.9387" y1="55.1297" x2="19.0362" y2="53.7707" gradientUnits="userSpaceOnUse">
<stop stop-color="#323C40"/>
<stop offset="1" stop-color="#8C9AAB"/>
</linearGradient>
<linearGradient id="paint64_linear_2_47905" x1="27.5765" y1="57.5211" x2="27.673" y2="58.6473" gradientUnits="userSpaceOnUse">
<stop stop-color="#9DB3D2"/>
<stop offset="1" stop-color="#EEF3FC"/>
</linearGradient>
<linearGradient id="paint65_linear_2_47905" x1="27.6308" y1="58.0825" x2="27.466" y2="56.4802" gradientUnits="userSpaceOnUse">
<stop stop-color="#323C40"/>
<stop offset="1" stop-color="#8C9AAB"/>
</linearGradient>
<linearGradient id="paint66_linear_2_47905" x1="4.23952" y1="39.0192" x2="4.96742" y2="38.478" gradientUnits="userSpaceOnUse">
<stop stop-color="#323C40"/>
<stop offset="1" stop-color="#8C9AAB"/>
</linearGradient>
<linearGradient id="paint67_linear_2_47905" x1="46.6509" y1="41.4405" x2="31.5446" y2="37.8975" gradientUnits="userSpaceOnUse">
<stop stop-color="#CFDDF3"/>
<stop offset="0.48" stop-color="#C6D4EB"/>
<stop offset="0.83" stop-color="#8093A9"/>
</linearGradient>
<linearGradient id="paint68_linear_2_47905" x1="49.4643" y1="21.0227" x2="19.9132" y2="34.7578" gradientUnits="userSpaceOnUse">
<stop stop-color="#B8CAEA"/>
<stop offset="0.44" stop-color="#A4BFE5"/>
<stop offset="0.66" stop-color="#DCE7F7"/>
<stop offset="1" stop-color="#C4D3ED"/>
</linearGradient>
<linearGradient id="paint69_linear_2_47905" x1="40.4582" y1="39.2729" x2="57.3443" y2="39.2729" gradientUnits="userSpaceOnUse">
<stop stop-color="#DCB76D"/>
<stop offset="1" stop-color="#EBD094"/>
</linearGradient>
<linearGradient id="paint70_linear_2_47905" x1="17.1125" y1="32.1378" x2="32.1099" y2="32.1378" gradientUnits="userSpaceOnUse">
<stop stop-color="#E40520"/>
<stop offset="1" stop-color="#DD7A6B"/>
</linearGradient>
<linearGradient id="paint71_linear_2_47905" x1="25.2966" y1="38.518" x2="32.4235" y2="38.518" gradientUnits="userSpaceOnUse">
<stop stop-color="#E40520"/>
<stop offset="1" stop-color="#DD7A6B"/>
</linearGradient>
<linearGradient id="paint72_linear_2_47905" x1="17.0348" y1="37.539" x2="32.0216" y2="37.539" gradientUnits="userSpaceOnUse">
<stop stop-color="#003671"/>
<stop offset="1" stop-color="#517FC1"/>
</linearGradient>
<linearGradient id="paint73_linear_2_47905" x1="16.9889" y1="27.5038" x2="32.1145" y2="27.5038" gradientUnits="userSpaceOnUse">
<stop stop-color="#DCB76D"/>
<stop offset="1" stop-color="#EBD094"/>
</linearGradient>
<linearGradient id="paint74_linear_2_47905" x1="37.2113" y1="21.2898" x2="68.2021" y2="21.2898" gradientUnits="userSpaceOnUse">
<stop stop-color="#E40520"/>
<stop offset="1" stop-color="#DD7A6B"/>
</linearGradient>
<linearGradient id="paint75_linear_2_47905" x1="14.5782" y1="20.5415" x2="32.1149" y2="20.5415" gradientUnits="userSpaceOnUse">
<stop stop-color="#DCB76D"/>
<stop offset="1" stop-color="#EBD094"/>
</linearGradient>
<linearGradient id="paint76_linear_2_47905" x1="37.2145" y1="26.7473" x2="68.1872" y2="26.7473" gradientUnits="userSpaceOnUse">
<stop stop-color="#E40520"/>
<stop offset="1" stop-color="#DD7A6B"/>
</linearGradient>
<linearGradient id="paint77_linear_2_47905" x1="38.2345" y1="21.3734" x2="60.6782" y2="21.3734" gradientUnits="userSpaceOnUse">
<stop stop-color="#003671"/>
<stop offset="1" stop-color="#517FC1"/>
</linearGradient>
<linearGradient id="paint78_linear_2_47905" x1="40.4567" y1="31.3921" x2="57.3412" y2="31.3921" gradientUnits="userSpaceOnUse">
<stop stop-color="#DCB76D"/>
<stop offset="1" stop-color="#EBD094"/>
</linearGradient>
<linearGradient id="paint79_linear_2_47905" x1="17.0351" y1="32.1693" x2="32.0161" y2="32.1693" gradientUnits="userSpaceOnUse">
<stop stop-color="#003671"/>
<stop offset="1" stop-color="#517FC1"/>
</linearGradient>
<linearGradient id="paint80_linear_2_47905" x1="38.2321" y1="26.8316" x2="60.6866" y2="26.8316" gradientUnits="userSpaceOnUse">
<stop stop-color="#003671"/>
<stop offset="1" stop-color="#517FC1"/>
</linearGradient>
<linearGradient id="paint81_linear_2_47905" x1="40.4583" y1="39.2679" x2="57.3424" y2="39.2679" gradientUnits="userSpaceOnUse">
<stop stop-color="#DCB76D"/>
<stop offset="1" stop-color="#EBD094"/>
</linearGradient>
</defs>
</svg>
