<svg width="98" height="71" viewBox="0 0 98 71" fill="none" xmlns="http://www.w3.org/2000/svg">
<g clip-path="url(#clip0_2_44932)">
<path d="M63.2754 60.3042C60.9605 60.3042 58.6455 60.3042 58.5169 60.3042C55.6875 60.3042 53.3726 62.2371 53.3726 64.6853C53.3726 67.1336 55.6875 69.1953 58.5169 69.1953C58.5169 69.1953 60.8319 69.1953 63.2754 69.1953C66.1048 69.1953 68.4198 67.1336 68.4198 64.6853C68.4198 62.3659 66.2335 60.4331 63.2754 60.3042ZM61.7321 67.9067C61.7321 67.9067 60.8319 67.9067 60.1888 67.9067C58.5169 67.9067 56.845 66.6182 56.845 64.6853C56.845 62.7525 58.5169 61.5928 60.1888 61.5928C60.1888 61.5928 60.9605 61.5928 61.7321 61.5928C63.4041 61.5928 65.076 62.7525 65.076 64.6853C65.076 66.747 63.4041 67.9067 61.7321 67.9067Z" fill="#D20824"/>
<path d="M93.4986 69.0665H96.328V64.8142C96.328 62.366 94.1416 60.4331 91.3122 60.4331H83.9815C83.8529 60.4331 83.5957 60.4331 83.5957 60.6908V68.6799C83.5957 68.9376 83.7243 69.0665 83.8529 69.0665H86.9395V62.366C86.9395 62.1082 87.1968 61.9794 87.3254 61.9794H90.6692C91.5695 61.9794 92.9842 62.8814 92.9842 64.6854V68.8088C93.1128 68.6799 93.1128 69.0665 93.4986 69.0665Z" fill="#D20824"/>
<path d="M32.5381 62.1082H37.0394V60.6908C37.0394 60.5619 36.9108 60.3042 36.6536 60.3042H24.0499C23.7927 60.3042 23.6641 60.4331 23.6641 60.6908V62.1082H26.6221C27.7795 62.1082 28.5512 63.139 28.5512 64.041V68.6799C28.5512 68.8087 28.6798 69.0664 28.937 69.0664H32.0236V62.6236C32.0236 62.3659 32.2809 62.1082 32.5381 62.1082Z" fill="#D20824"/>
<path d="M18.6482 68.6799C18.6482 68.8088 18.7768 69.0665 19.034 69.0665H22.1206V60.8197C22.1206 60.6908 21.992 60.4331 21.7348 60.4331H19.034C18.9054 60.4331 18.6482 60.562 18.6482 60.8197V68.6799Z" fill="#D20824"/>
<path d="M48.7427 69.0665H52.0866C51.958 66.8759 49.643 65.9739 49.643 65.9739C51.1863 65.5874 52.0866 64.5565 52.0866 63.2679C52.0866 61.9794 50.8005 60.4331 48.7427 60.4331H40.6404C39.6115 60.4331 38.8398 61.2062 38.8398 62.2371V68.8088C38.8398 68.9376 38.9685 69.1954 39.0971 69.1954H42.1837V66.1028H45.0131C47.5852 65.9739 48.6141 67.9068 48.7427 69.0665ZM42.1837 64.5565V62.8814C42.1837 62.366 42.5695 62.1082 42.9553 62.1082H47.4566C48.0997 62.1082 48.7427 62.6237 48.7427 63.3968C48.7427 64.0411 48.2283 64.6854 47.4566 64.6854H42.1837V64.5565Z" fill="#D20824"/>
<path d="M13.5039 63.3969C13.5039 63.3969 16.5905 63.3969 16.8477 63.3969C16.076 61.5929 14.0183 60.3043 11.9606 60.3043C10.8031 60.3043 8.61673 60.1755 7.33064 60.3043C5.65872 60.4332 4.75846 60.6909 3.72959 61.5929C2.70072 62.4949 2.18628 63.5258 2.18628 64.8143C2.18628 67.2626 4.37263 69.1954 7.33064 69.3243C9.25977 69.4532 9.51699 69.4532 12.0892 69.3243C14.5327 69.1954 16.2047 68.1646 16.9763 66.2317C16.8477 66.2317 13.7611 66.2317 13.7611 66.2317C13.6325 66.2317 13.5039 66.2317 13.5039 66.3606C12.8608 67.3915 11.8319 68.0357 10.5459 68.0357C10.16 68.0357 9.51699 68.0357 9.00255 68.0357C7.33064 68.0357 5.65872 66.876 5.65872 64.8143C5.65872 62.8815 7.33064 61.5929 9.00255 61.5929C9.13116 61.5929 9.90282 61.5929 10.4173 61.5929C11.5747 61.5929 12.8608 62.2372 13.3753 63.268C13.2466 63.268 13.2466 63.3969 13.5039 63.3969Z" fill="#D20824"/>
<path d="M81.7951 67.5202C81.7951 67.5202 81.4093 67.5202 73.8214 67.5202C73.5641 67.5202 73.3069 67.3914 73.3069 67.1336V65.4585H80.2518V63.9122H73.3069V62.366C73.3069 62.366 73.3069 61.9794 73.8214 61.9794H81.6665V60.8197C81.6665 60.4331 81.2807 60.4331 81.2807 60.4331H70.2203C70.2203 60.4331 69.8345 60.4331 69.8345 60.8197V67.3914C69.8345 68.2934 70.4775 69.1954 71.635 69.1954H81.2807C81.5379 69.1954 81.6665 68.9376 81.6665 68.9376V67.5202H81.7951Z" fill="#D20824"/>
<path d="M79.3516 57.3407C79.0944 57.083 78.58 57.083 78.1941 57.083C77.6797 57.083 77.2939 57.2119 77.0367 57.3407C76.7794 57.4696 76.5222 57.8562 76.1364 57.8562C75.7506 57.8562 75.4934 57.5984 75.2361 57.3407C74.8503 57.2119 74.4645 57.083 74.0787 57.083C73.5642 57.083 73.1784 57.2119 72.9212 57.3407C72.5353 57.5984 72.4067 57.7273 72.4067 58.1139C72.4067 58.3716 72.5353 58.6293 72.9212 58.887C73.307 59.1447 73.6928 59.1447 74.0787 59.1447C74.5931 59.1447 74.9789 59.0159 75.2361 58.887C75.4934 58.7581 75.8792 58.3716 76.1364 58.3716C76.5222 58.3716 76.7794 58.6293 77.0367 58.7581C77.2939 58.887 77.8083 59.0159 78.1941 59.0159C78.7086 59.0159 79.0944 58.887 79.3516 58.7581C79.6088 58.5004 79.8661 58.3716 79.8661 57.985C79.8661 57.7273 79.7374 57.5984 79.3516 57.3407Z" fill="#D20824"/>
<path d="M49.1285 15.7205C56.202 15.7205 73.1784 30.4101 75.3647 32.2141C75.4933 32.343 75.7506 32.4718 76.1364 32.4718C76.6508 32.4718 76.6508 31.5698 76.6508 31.5698C76.6508 31.5698 76.7794 29.7658 76.7794 27.833C76.7794 25.5136 74.9789 23.4519 74.9789 23.4519C74.9789 23.4519 55.8162 2.44824 49.1285 2.44824C42.4408 2.44824 23.4067 23.4519 23.4067 23.4519C23.4067 23.4519 21.6062 25.5136 21.6062 27.833C21.6062 29.7658 21.7348 31.5698 21.7348 31.5698C21.7348 31.5698 21.7348 32.343 22.2492 32.4718C22.6351 32.4718 22.7637 32.343 23.0209 32.2141C25.0786 30.4101 42.1836 15.7205 49.1285 15.7205Z" fill="#686868"/>
<path d="M49.1286 35.1775C56.2021 35.1775 73.1784 49.8672 75.3648 51.6712C75.4934 51.8 75.7506 51.9289 76.1364 51.9289C76.6509 51.9289 76.6509 51.0269 76.6509 51.0269C76.6509 51.0269 76.7795 49.2229 76.7795 47.29C76.7795 44.9706 74.979 42.9089 74.979 42.9089C74.979 42.9089 55.9448 21.9053 49.2572 21.9053C42.5695 21.9053 23.5354 42.9089 23.5354 42.9089C23.5354 42.9089 21.7349 44.9706 21.7349 47.29C21.7349 49.2229 21.8635 51.0269 21.8635 51.0269C21.8635 51.0269 21.8635 51.8 22.3779 51.9289C22.7637 51.9289 22.8923 51.8 23.1496 51.6712C25.0787 49.7383 42.1837 35.1775 49.1286 35.1775Z" fill="#686868"/>
<path d="M29.8371 20.2301C25.9788 23.4516 23.0208 26.4153 21.9919 27.4461C21.9919 28.7347 22.1206 31.5695 22.1206 31.5695C22.1206 31.5695 22.1206 32.6004 22.8922 31.9561L23.6639 31.3118C31.3804 24.2247 39.2255 18.0396 45.5274 15.3336C45.9132 15.0759 46.6849 14.947 46.299 14.5604C46.0418 14.3027 45.2702 14.3027 44.8843 14.3027C38.1967 14.6893 30.0943 20.1013 29.8371 20.2301Z" fill="url(#paint0_linear_2_44932)"/>
<path d="M68.5485 20.2301C72.4068 23.4516 75.3648 26.4153 76.3937 27.4461C76.3937 28.7347 76.2651 31.5695 76.2651 31.5695C76.2651 31.5695 76.2651 32.6004 75.4934 31.9561L74.7218 31.3118C67.0052 24.2247 59.1601 18.0396 52.8583 15.3336C52.4724 15.0759 51.7008 14.947 52.0866 14.5604C52.3438 14.3027 53.1155 14.3027 53.5013 14.3027C60.0604 14.6893 68.1627 20.1013 68.5485 20.2301Z" fill="url(#paint1_linear_2_44932)"/>
<path d="M29.8371 39.6877C25.9788 42.9091 23.0208 45.8728 21.9919 46.9036C21.9919 48.1922 22.1206 51.027 22.1206 51.027C22.1206 51.027 22.1206 52.0579 22.8922 51.4136L23.6639 50.7693C31.3804 43.6822 39.2255 37.4971 45.5274 34.7911C45.9132 34.5334 46.6849 34.4045 46.299 34.018C46.0418 33.7603 45.2702 33.7603 44.8843 33.7603C38.1967 34.018 30.0943 39.4299 29.8371 39.6877Z" fill="url(#paint2_linear_2_44932)"/>
<path d="M68.5485 39.6877C72.4068 42.9091 75.3648 45.8728 76.3937 46.9036C76.3937 48.1922 76.2651 51.027 76.2651 51.027C76.2651 51.027 76.2651 52.0579 75.4934 51.4136L74.7218 50.7693C67.0052 43.6822 59.1601 37.4971 52.8583 34.7911C52.4724 34.5334 51.7008 34.4045 52.0866 34.018C52.3438 33.7603 53.1155 33.7603 53.5013 33.7603C60.0604 34.018 68.1627 39.4299 68.5485 39.6877Z" fill="url(#paint3_linear_2_44932)"/>
<path d="M74.593 23.7092C74.4644 23.4515 55.5589 2.83447 49.1284 2.83447C42.698 2.83447 23.9211 23.4515 23.6639 23.7092C23.6639 23.7092 22.1206 25.5132 21.9919 27.5749C23.0208 26.5441 25.9788 23.5804 29.8371 20.359C29.8371 20.359 30.9946 19.3281 32.7951 18.0396C36.6534 15.0759 43.4696 10.5659 49.257 10.5659C54.9158 10.5659 61.8607 15.0759 65.719 18.0396C67.5195 19.3281 68.677 20.359 68.677 20.359C72.5353 23.5804 75.4933 26.5441 76.5221 27.5749C76.2649 25.5132 74.7216 23.7092 74.593 23.7092Z" fill="url(#paint4_linear_2_44932)"/>
<path d="M74.593 43.0379C74.3358 42.7801 55.5589 22.1631 49.1284 22.1631C42.698 22.1631 23.9211 42.7801 23.6639 43.0379C23.6639 43.0379 22.1206 44.8419 21.9919 46.9036C23.0208 45.8727 25.9788 42.909 29.8371 39.6876C29.8371 39.6876 30.9946 38.6567 32.7951 37.3682C36.6534 34.4045 43.4696 29.8945 49.257 29.8945C54.9158 29.8945 61.8607 34.4045 65.719 37.3682C67.5195 38.6567 68.677 39.6876 68.677 39.6876C72.5353 42.909 75.4933 45.8727 76.5221 46.9036C76.2649 44.8419 74.7216 43.0379 74.593 43.0379Z" fill="url(#paint5_linear_2_44932)"/>
<path d="M74.979 24.998C64.4331 12.8855 52.8583 3.60781 49.5144 3.3501C49 3.3501 49 3.73667 49 3.73667C49 7.73122 49.2572 8.37551 51.958 9.53522C52.3438 9.66407 62.6325 12.7566 74.8504 25.2557L74.979 25.3846V24.998Z" fill="url(#paint6_linear_2_44932)"/>
<path d="M74.979 44.3267C64.4331 32.2142 52.8583 22.9365 49.5144 22.8076C49 22.8076 49 23.1942 49 23.1942C49 27.1887 49.2572 27.833 51.958 28.9927C52.3438 29.1216 62.6325 32.2142 74.8504 44.7132L74.979 44.8421V44.3267Z" fill="url(#paint7_linear_2_44932)"/>
</g>
<defs>
<linearGradient id="paint0_linear_2_44932" x1="21.9462" y1="23.2259" x2="76.22" y2="23.2259" gradientUnits="userSpaceOnUse">
<stop stop-color="#BCB8BA"/>
<stop offset="0.0914333" stop-color="#B5B1B3"/>
<stop offset="0.2391" stop-color="#A19C9E"/>
<stop offset="0.4237" stop-color="#807B7D"/>
<stop offset="0.5" stop-color="#6F6A6C"/>
<stop offset="0.6585" stop-color="#9E999C"/>
<stop offset="0.809" stop-color="#C2BEC0"/>
<stop offset="0.9257" stop-color="#D7D4D5"/>
<stop offset="0.9944" stop-color="#DEDCDD"/>
</linearGradient>
<linearGradient id="paint1_linear_2_44932" x1="21.923" y1="23.2259" x2="76.1967" y2="23.2259" gradientUnits="userSpaceOnUse">
<stop stop-color="#BCB8BA"/>
<stop offset="0.0914333" stop-color="#B5B1B3"/>
<stop offset="0.2391" stop-color="#A19C9E"/>
<stop offset="0.4237" stop-color="#807B7D"/>
<stop offset="0.5" stop-color="#6F6A6C"/>
<stop offset="0.6585" stop-color="#9E999C"/>
<stop offset="0.809" stop-color="#C2BEC0"/>
<stop offset="0.9257" stop-color="#D7D4D5"/>
<stop offset="0.9944" stop-color="#DEDCDD"/>
</linearGradient>
<linearGradient id="paint2_linear_2_44932" x1="21.9462" y1="42.5863" x2="76.22" y2="42.5863" gradientUnits="userSpaceOnUse">
<stop stop-color="#BCB8BA"/>
<stop offset="0.0914333" stop-color="#B5B1B3"/>
<stop offset="0.2391" stop-color="#A19C9E"/>
<stop offset="0.4237" stop-color="#807B7D"/>
<stop offset="0.5" stop-color="#6F6A6C"/>
<stop offset="0.6585" stop-color="#9E999C"/>
<stop offset="0.809" stop-color="#C2BEC0"/>
<stop offset="0.9257" stop-color="#D7D4D5"/>
<stop offset="0.9944" stop-color="#DEDCDD"/>
</linearGradient>
<linearGradient id="paint3_linear_2_44932" x1="21.923" y1="42.5863" x2="76.1967" y2="42.5863" gradientUnits="userSpaceOnUse">
<stop stop-color="#BCB8BA"/>
<stop offset="0.0914333" stop-color="#B5B1B3"/>
<stop offset="0.2391" stop-color="#A19C9E"/>
<stop offset="0.4237" stop-color="#807B7D"/>
<stop offset="0.5" stop-color="#6F6A6C"/>
<stop offset="0.6585" stop-color="#9E999C"/>
<stop offset="0.809" stop-color="#C2BEC0"/>
<stop offset="0.9257" stop-color="#D7D4D5"/>
<stop offset="0.9944" stop-color="#DEDCDD"/>
</linearGradient>
<linearGradient id="paint4_linear_2_44932" x1="21.9581" y1="15.1512" x2="76.0683" y2="15.1512" gradientUnits="userSpaceOnUse">
<stop stop-color="#6F6A6C"/>
<stop offset="0.0294305" stop-color="#807C7E"/>
<stop offset="0.1133" stop-color="#AAA5A7"/>
<stop offset="0.1967" stop-color="#CAC6C8"/>
<stop offset="0.2781" stop-color="#E2DFE1"/>
<stop offset="0.357" stop-color="#F2F1F1"/>
<stop offset="0.4323" stop-color="#FCFCFC"/>
<stop offset="0.5" stop-color="white"/>
<stop offset="0.5637" stop-color="#FCFBFB"/>
<stop offset="0.6396" stop-color="#F1F0F0"/>
<stop offset="0.7217" stop-color="#DFDDDE"/>
<stop offset="0.8083" stop-color="#C5C2C3"/>
<stop offset="0.8984" stop-color="#A29EA0"/>
<stop offset="0.9902" stop-color="#747071"/>
<stop offset="1" stop-color="#6F6A6C"/>
</linearGradient>
<linearGradient id="paint5_linear_2_44932" x1="21.9581" y1="34.5117" x2="76.0683" y2="34.5117" gradientUnits="userSpaceOnUse">
<stop stop-color="#6F6A6C"/>
<stop offset="0.0294305" stop-color="#807C7E"/>
<stop offset="0.1133" stop-color="#AAA5A7"/>
<stop offset="0.1967" stop-color="#CAC6C8"/>
<stop offset="0.2781" stop-color="#E2DFE1"/>
<stop offset="0.357" stop-color="#F2F1F1"/>
<stop offset="0.4323" stop-color="#FCFCFC"/>
<stop offset="0.5" stop-color="white"/>
<stop offset="0.5637" stop-color="#FCFBFB"/>
<stop offset="0.6396" stop-color="#F1F0F0"/>
<stop offset="0.7217" stop-color="#DFDDDE"/>
<stop offset="0.8083" stop-color="#C5C2C3"/>
<stop offset="0.8984" stop-color="#A29EA0"/>
<stop offset="0.9902" stop-color="#747071"/>
<stop offset="1" stop-color="#6F6A6C"/>
</linearGradient>
<linearGradient id="paint6_linear_2_44932" x1="49.2927" y1="14.7257" x2="74.8805" y2="14.2086" gradientUnits="userSpaceOnUse">
<stop stop-color="#F2F1F2"/>
<stop offset="0.0306697" stop-color="#DEDCDD"/>
<stop offset="0.0899688" stop-color="#B9B5B7"/>
<stop offset="0.1465" stop-color="#9A9597"/>
<stop offset="0.1987" stop-color="#837E80"/>
<stop offset="0.2451" stop-color="#746F71"/>
<stop offset="0.2809" stop-color="#6F6A6C"/>
<stop offset="0.3717" stop-color="#767173"/>
<stop offset="0.5118" stop-color="#8A8587"/>
<stop offset="0.5899" stop-color="#979294"/>
<stop offset="1" stop-color="#6F6A6C"/>
</linearGradient>
<linearGradient id="paint7_linear_2_44932" x1="49.2927" y1="34.0859" x2="74.8805" y2="33.5688" gradientUnits="userSpaceOnUse">
<stop stop-color="#F2F1F2"/>
<stop offset="0.0306697" stop-color="#DEDCDD"/>
<stop offset="0.0899688" stop-color="#B9B5B7"/>
<stop offset="0.1465" stop-color="#9A9597"/>
<stop offset="0.1987" stop-color="#837E80"/>
<stop offset="0.2451" stop-color="#746F71"/>
<stop offset="0.2809" stop-color="#6F6A6C"/>
<stop offset="0.3717" stop-color="#767173"/>
<stop offset="0.5118" stop-color="#8A8587"/>
<stop offset="0.5899" stop-color="#979294"/>
<stop offset="1" stop-color="#6F6A6C"/>
</linearGradient>
<clipPath id="clip0_2_44932">
<rect width="98" height="71" fill="white"/>
</clipPath>
</defs>
</svg>
