<svg width="80" height="81" viewBox="0 0 80 81" fill="none" xmlns="http://www.w3.org/2000/svg">
<g clip-path="url(#clip0_2_46805)">
<path fill-rule="evenodd" clip-rule="evenodd" d="M61.2057 6.71653C57.7427 6.37395 48.606 5.86426 39.9885 5.86426C31.371 5.86426 22.2342 6.37395 18.7713 6.71653C14.8226 7.1176 12.9844 9.11879 12.9844 13.0209C12.9844 20.4282 13.2566 31.9716 13.7632 38.7522C14.2155 44.7976 14.5714 49.5687 22.1128 54.1392C27.5102 57.4105 32.8742 60.218 39.8628 63.8151L39.9843 63.8819L40.1099 63.8151C47.1111 60.2054 52.4877 57.4021 57.8642 54.1392C65.4097 49.5645 65.7656 44.7976 66.2137 38.7522C66.7245 31.9382 67.0009 20.4115 67.0009 13.0209C66.9967 9.11879 65.1543 7.1176 61.2057 6.71653ZM63.8688 38.5851C63.4375 44.3672 63.1528 48.1941 56.6457 52.138C51.5371 55.2338 47.0316 57.5943 40.223 61.1246L39.9885 61.2374L39.7582 61.1246C33.1631 57.7113 28.4566 55.2422 23.3355 52.138C16.8242 48.1941 16.5352 44.3672 16.1081 38.5809C15.6015 31.8379 15.3335 20.3781 15.3335 13.0209C15.3335 10.3262 16.2589 9.32768 19.0099 9.04359C22.431 8.70518 31.4714 8.19967 39.9926 8.19967C48.518 8.19967 57.5501 8.70518 60.9754 9.04359C63.7264 9.3235 64.6518 10.3262 64.6518 13.0209C64.6476 20.3739 64.3755 31.8254 63.8688 38.5851Z" fill="#E2201A"/>
<path fill-rule="evenodd" clip-rule="evenodd" d="M39.628 23.1894L38.8157 25.9134C35.872 19.914 32.3588 16.7639 28.1087 16.7639C23.511 16.7639 21.2624 19.8346 20.6008 20.8039C21.7817 17.846 24.897 15.2432 29.0509 15.2432C34.7331 15.2432 37.9447 19.726 39.628 23.1894Z" fill="#E2201A"/>
<path fill-rule="evenodd" clip-rule="evenodd" d="M18.3148 29.3394C18.3525 39.3369 21.2669 44.1456 25.6175 44.1456C27.6316 44.1456 29.0804 42.8798 29.0804 40.8201C29.0804 39.0612 28.3142 37.67 28.0043 37.1102C28.1215 37.6867 28.2304 38.3384 28.2304 39.0737C28.2304 40.795 27.0622 41.3507 26.1116 41.3507C23.2182 41.3507 20.3206 35.7356 19.504 29.3394C19.1355 29.3394 18.3023 29.3394 18.3148 29.3394Z" fill="#E2201A"/>
<path fill-rule="evenodd" clip-rule="evenodd" d="M50.9378 15.2432C55.0917 15.2432 58.1987 17.846 59.3879 20.8039C58.7221 19.8346 56.4735 16.7639 51.8716 16.7639C47.6256 16.7639 44.1125 19.914 41.1688 25.9134L40.3564 23.1894C42.0356 19.726 45.2556 15.2432 50.9378 15.2432Z" fill="#E2201A"/>
<path fill-rule="evenodd" clip-rule="evenodd" d="M60.4854 29.3394C59.6689 35.7356 56.7712 41.3507 53.8736 41.3507C52.9231 41.3507 51.759 40.795 51.759 39.0737C51.759 38.3384 51.8637 37.6825 51.9767 37.1102C51.6669 37.67 50.9048 39.0654 50.9048 40.8201C50.9048 42.8798 52.3494 44.1456 54.3677 44.1456C58.7142 44.1456 61.6369 39.3369 61.6662 29.3394C61.6788 29.3394 60.8539 29.3394 60.4854 29.3394Z" fill="#E2201A"/>
<path fill-rule="evenodd" clip-rule="evenodd" d="M54.5729 20.7417C50.8546 20.7417 47.2241 23.6996 45.0467 30.5262L46.4537 31.5038L45.7795 34.8586L43.1499 35.9449L42.6725 39.2412L43.9538 37.6745L45.3273 37.1063L44.9002 39.237L42.5301 40.2188L41.7011 45.9215L42.2789 47.7431L39.9885 48.6497L37.698 47.7431L38.28 45.9215L37.4467 40.2188L35.0767 39.237L34.6538 37.1063L36.023 37.6745L37.3086 39.2412L36.827 35.9449L34.2016 34.8586L33.5232 31.5038L34.9302 30.5262C32.7569 23.6996 29.1265 20.7417 25.404 20.7417C20.8063 20.7417 18.9011 25.095 19.1481 28.6838H20.2577C21.179 33.7557 23.7625 38.0547 25.7097 38.0547C26.3043 38.0547 26.6141 37.6035 26.6141 36.8598C26.6141 35.0717 25.3914 33.2 25.3914 29.7784C25.3914 28.2033 25.9065 27.2132 27.0915 27.2132C27.8996 27.2132 28.5612 28.0613 28.9548 28.9888C28.2346 31.5456 28.3435 33.6847 30.3869 34.5954C31.396 35.0425 32.6146 35.5772 32.6146 35.5772C32.6146 35.5772 33.9126 41.0627 34.0048 41.4554C34.0885 41.8147 34.3146 42.3035 34.4779 42.6085C34.7166 43.0221 36.4167 45.9299 36.4167 45.9299C36.4167 45.9299 36.9945 48.8335 37.1201 49.4476C37.4551 51.1104 38.6401 51.1146 39.9843 51.1104C41.3242 51.1146 42.5134 51.1104 42.8484 49.4476C42.9698 48.8293 43.5519 45.9299 43.5519 45.9299C43.5519 45.9299 45.2519 43.018 45.4948 42.6085C45.6581 42.3077 45.88 41.8147 45.9596 41.4554C46.0517 41.0627 47.354 35.5772 47.354 35.5772C47.354 35.5772 48.5725 35.0425 49.5858 34.5954C51.6292 33.6847 51.7381 31.5456 51.0179 28.9888C51.4115 28.0613 52.0731 27.2132 52.8812 27.2132C54.0662 27.2132 54.5813 28.1991 54.5813 29.7784C54.5813 33.2 53.3586 35.0717 53.3586 36.8598C53.3586 37.6035 53.6684 38.0547 54.263 38.0547C56.2018 38.0547 58.7937 33.7557 59.715 28.6838H60.8204C61.0758 25.095 59.1748 20.7417 54.5729 20.7417ZM31.1909 33.6095C29.7421 32.9953 29.5955 31.2866 30.077 29.0138L31.664 31.4997L32.2545 34.0648C32.2545 34.0607 31.6808 33.8142 31.1909 33.6095ZM48.7902 33.6095C48.2961 33.8184 47.7224 34.0606 47.7224 34.0606L48.3087 31.4955L49.8957 29.0097C50.3814 31.2866 50.239 32.9953 48.7902 33.6095Z" fill="#E2201A"/>
<path fill-rule="evenodd" clip-rule="evenodd" d="M36.8606 71.3517V74.0966C36.8606 74.0966 39.6703 74.0966 40.6083 74.0966C42.681 74.0966 43.4682 73.2694 43.4682 72.1246C43.4682 71.3726 43.0955 70.161 40.6418 70.161C39.7792 70.161 34.3147 70.161 34.3147 70.161V68.6152C34.3147 68.6152 38.6025 68.6152 40.9181 68.6152C45.118 68.6152 46.0978 70.3866 46.0978 72.1246C46.0978 74.2052 44.6867 75.6465 40.9056 75.6465C38.5816 75.6465 34.3147 75.6465 34.3147 75.6465V71.3517H36.8606Z" fill="black"/>
<path fill-rule="evenodd" clip-rule="evenodd" d="M8.87256 71.3517V74.0966C8.87256 74.0966 11.6864 74.0966 12.6202 74.0966C14.6929 74.0966 15.476 73.2694 15.476 72.1246C15.476 71.3726 15.1033 70.161 12.6495 70.161C11.7869 70.161 6.32666 70.161 6.32666 70.161V68.6152C6.32666 68.6152 10.6145 68.6152 12.9259 68.6152C17.13 68.6152 18.1098 70.3866 18.1098 72.1246C18.1098 74.2052 16.6945 75.6465 12.9175 75.6465C10.5935 75.6465 6.32666 75.6465 6.32666 75.6465V71.3517H8.87256Z" fill="black"/>
<path fill-rule="evenodd" clip-rule="evenodd" d="M53.6308 71.3434V72.8975H57.3659V74.0966C57.3659 74.0966 54.5939 74.0966 53.6517 74.0966C51.5413 74.0966 50.7583 73.2694 50.7583 72.1246C50.7583 70.8504 51.8219 70.1652 53.5052 70.1652C54.3636 70.1652 59.9118 70.1652 59.9118 70.1652V68.6152C59.9118 68.6152 55.7203 68.6152 53.4089 68.6152C50.0674 68.6152 48.1328 69.6681 48.1328 72.1246C48.1328 74.5269 50.0045 75.6465 53.3125 75.6465C55.6365 75.6465 59.916 75.6465 59.916 75.6465V71.3434H53.6308Z" fill="black"/>
<path fill-rule="evenodd" clip-rule="evenodd" d="M65.5733 70.1527H73.5962V68.6152H62.8557V75.6465H73.68V74.0966H65.5733V72.8975H73.1649V71.3475H65.5733V70.1527Z" fill="black"/>
<path fill-rule="evenodd" clip-rule="evenodd" d="M26.124 75.7596C21.7776 75.7596 20.1194 74.3392 20.1194 72.1249C20.1194 69.9315 21.832 68.4985 26.124 68.4985C30.416 68.4985 32.1286 69.9315 32.1286 72.1249C32.1245 74.335 30.416 75.7596 26.124 75.7596ZM29.4948 72.1249C29.4948 70.9259 28.3265 70.0443 26.124 70.0443C23.9005 70.0443 22.749 70.9259 22.749 72.1249C22.749 73.2738 23.7833 74.2096 26.124 74.2096C28.494 74.2096 29.4948 73.2738 29.4948 72.1249Z" fill="black"/>
</g>
<defs>
<clipPath id="clip0_2_46805">
<rect width="80" height="81" fill="white"/>
</clipPath>
</defs>
</svg>
