<svg width="101" height="42" viewBox="0 0 101 42" fill="none" xmlns="http://www.w3.org/2000/svg">
<g clip-path="url(#clip0_2_697)">
<path fill-rule="evenodd" clip-rule="evenodd" d="M26.9357 21.9486C26.9357 30.7033 22.9063 34.041 14.8526 34.041C6.68316 34.041 3.11133 29.5504 3.11133 22.6383V18.2635H11.9751V21.8328C11.9751 24.2492 11.9751 26.555 14.6211 26.555C17.1514 26.555 17.0356 23.4437 17.0356 22.0645V1.68066H26.9305V21.9486H26.9357Z" fill="#00559C"/>
<path fill-rule="evenodd" clip-rule="evenodd" d="M35.8006 19.1836C36.1478 16.7672 37.5261 15.3827 39.8301 15.3827C41.9027 15.3827 43.3967 17.1094 43.3967 19.1836H35.8006ZM51.1032 23.79C51.1032 14.8089 47.4209 9.73926 39.1357 9.73926C32.4603 9.73926 28.0889 15.1511 28.0889 21.8316C28.0889 29.5492 33.1547 33.9239 39.8301 33.9239C44.6644 33.9239 49.0358 31.6181 50.6455 26.6696H43.1652C42.4761 27.7067 41.0926 28.2805 39.8301 28.2805C37.2999 28.2805 35.9164 26.4379 35.6849 23.79H51.1032Z" fill="#00559C"/>
<path fill-rule="evenodd" clip-rule="evenodd" d="M59.3879 19.1836C59.7351 16.7672 61.1133 15.3827 63.4174 15.3827C65.49 15.3827 66.984 17.1094 66.984 19.1836H59.3879ZM74.6957 23.79C74.6957 14.8089 71.0134 9.73926 62.7283 9.73926C56.0528 9.73926 51.6814 15.1511 51.6814 21.8316C51.6814 29.5492 56.7472 33.9239 63.4174 33.9239C68.136 33.9239 72.6231 31.6181 74.2381 26.6696H66.7578C66.0687 27.7067 64.6851 28.2805 63.4226 28.2805C60.8924 28.2805 59.5089 26.4379 59.2774 23.79H74.6957Z" fill="#00559C"/>
<path fill-rule="evenodd" clip-rule="evenodd" d="M83.2127 21.8322C83.2127 19.0684 83.7861 16.1887 86.6636 16.1887C89.541 16.1887 90.2301 19.0684 90.2301 21.8322C90.2301 24.4802 89.541 27.4756 86.6636 27.4756C83.7914 27.4756 83.2127 24.4802 83.2127 21.8322ZM75.501 40.7209H83.4442V30.8185H83.5599C84.712 32.7769 86.895 33.9298 89.3148 33.9298C96.3375 33.9298 98.1786 27.3651 98.1786 21.9533C98.1786 16.194 95.4169 9.74512 89.4306 9.74512C85.5168 9.74512 84.249 11.356 83.218 12.8564V10.3242H75.5062V40.7209H75.501Z" fill="#00559C"/>
<path fill-rule="evenodd" clip-rule="evenodd" d="M94.6061 36.6878C94.6061 35.6507 95.2952 34.9611 96.2158 34.9611C97.1364 34.9611 97.8255 35.6507 97.8255 36.6878C97.8255 37.6091 97.1364 38.2987 96.2158 38.2987C95.2952 38.304 94.6061 37.6091 94.6061 36.6878ZM94.1484 36.6878C94.1484 37.7249 95.069 38.6462 96.2211 38.6462C97.2574 38.6462 98.1779 37.7249 98.1779 36.6878C98.1779 35.5349 97.2574 34.7295 96.2211 34.7295C95.069 34.7295 94.1484 35.5402 94.1484 36.6878ZM95.411 37.8407H95.7582V36.8037H96.2211L96.7944 37.8407H97.2574L96.5683 36.8037C96.9155 36.8037 97.1416 36.572 97.1416 36.114C97.1416 35.7666 96.9102 35.5402 96.3368 35.5402H95.4162V37.8407H95.411ZM95.7582 35.7666H96.3315C96.563 35.7666 96.7944 35.8824 96.7944 36.114C96.7944 36.4615 96.4473 36.5773 96.2211 36.5773H95.7582V35.7666Z" fill="#00559C"/>
</g>
<defs>
<clipPath id="clip0_2_697">
<rect width="101" height="42" fill="white"/>
</clipPath>
</defs>
</svg>
