<svg width="153" height="56" viewBox="0 0 153 56" fill="none" xmlns="http://www.w3.org/2000/svg">
<path d="M86.6629 39.4883C86.6629 39.7285 86.7286 39.8596 86.8817 39.8596C86.9911 39.8596 87.0786 39.8159 87.188 39.7504L126.658 14.131C127.358 13.6724 127.992 13.4321 128.933 13.4321H137.619C138.954 13.4321 139.851 14.3276 139.851 15.6599V32.1934C139.851 34.1809 139.413 35.3385 137.619 36.4087L127.095 42.7207C126.964 42.8081 126.833 42.8518 126.745 42.8518C126.614 42.8518 126.505 42.7644 126.505 42.3931V23.0858C126.505 22.8674 126.439 22.7145 126.286 22.7145C126.176 22.7145 126.089 22.7582 125.98 22.8237L97.1211 41.5413C96.3116 42.0655 95.6552 42.2184 94.9113 42.2184H75.7672C74.4325 42.2184 73.5355 41.3229 73.5355 39.9906V16.1841C73.5355 16.0093 73.448 15.8564 73.3167 15.8564C73.2073 15.8564 73.1198 15.9001 73.0104 15.9656L53.9757 27.3884C53.7788 27.4976 53.735 27.6068 53.735 27.6942C53.735 27.7816 53.7569 27.8471 53.91 27.9781L67.4969 41.5413C67.6719 41.716 67.8032 41.8689 67.8032 42C67.8032 42.1529 67.6063 42.2402 67.3656 42.2402H55.0696C54.1069 42.2402 53.3631 42.0873 52.838 41.5632L44.5896 33.3291C44.5021 33.2418 44.4364 33.1981 44.3489 33.1981C44.2833 33.1981 44.1739 33.2418 44.0863 33.2855L30.3026 41.5632C29.4712 42.0655 28.9023 42.2184 28.0709 42.2184H15.3811C14.0465 42.2184 13.1494 41.3229 13.1494 39.9906V23.7628C13.1494 21.7535 13.587 20.6178 15.3811 19.5475L25.9705 13.1919C26.0799 13.1263 26.1674 13.1045 26.2549 13.1045C26.4081 13.1045 26.4956 13.2792 26.4956 13.6287V35.3385C26.4956 35.5569 26.5613 35.6661 26.7144 35.6661C26.8019 35.6661 26.9113 35.6006 27.0207 35.5351L62.7929 14.0655C63.6462 13.5632 64.1713 13.4103 65.1558 13.4103H84.4094C85.744 13.4103 86.641 14.3057 86.641 15.638L86.6629 39.4883Z" fill="#05141F"/>
</svg>
