<svg width="84" height="51" viewBox="0 0 84 51" fill="none" xmlns="http://www.w3.org/2000/svg">
<path fill-rule="evenodd" clip-rule="evenodd" d="M40.8287 6.21751C40.8287 6.27996 40.8287 6.34242 40.8287 6.42048C40.938 8.66881 39.5484 11.6822 37.0035 14.2272C36.4882 14.7424 35.9418 15.2264 35.3953 15.6324C35.3797 15.648 35.3484 15.648 35.3172 15.648C35.2704 15.6324 35.2235 15.5855 35.2392 15.5231L37.7373 1.79892C37.7373 1.75208 37.6905 1.70524 37.6436 1.70524C23.9038 2.34539 13.2399 7.10747 13.2399 12.8688C13.2399 19.0829 25.5901 24.1104 40.8287 24.1104C56.0674 24.1104 68.4176 19.0829 68.4176 12.8688C68.4176 6.65468 56.0674 1.62717 40.8287 1.62717C40.3447 1.62717 39.8607 1.62717 39.3767 1.64279C39.3299 1.64279 39.283 1.67401 39.283 1.72085L38.9864 3.32903C38.9864 3.37587 39.002 3.4071 39.0332 3.43833C40.0949 3.92234 40.8287 4.98405 40.8287 6.21751ZM47.6674 13.9461C47.6518 13.8993 47.6206 13.8681 47.5893 13.8681C46.7462 13.7432 45.8563 13.6339 44.9351 13.5714C44.8882 13.5558 44.8414 13.509 44.8726 13.3997C47.6986 10.4175 48.776 6.62346 47.3551 3.65691C47.3551 3.59446 47.4176 3.56323 47.4644 3.56323C57.2228 4.74985 64.3269 8.46584 64.3269 12.8844C64.3269 18.2398 53.8035 22.5959 40.8287 22.5959C27.854 22.5959 17.3306 18.2554 17.3306 12.8844C17.3306 8.23163 25.2466 4.3439 35.8012 3.39149C35.8481 3.39149 35.8949 3.43833 35.8949 3.51639L33.5998 16.1476C33.5841 16.2413 33.5685 16.335 33.5685 16.4443C33.5685 17.2874 34.2555 17.9744 35.0986 17.9744H35.1767C37.2221 17.8651 39.4235 17.2249 41.5001 16.0227C42.0934 15.6792 42.6711 15.3045 43.202 14.8986C43.2332 14.8673 43.28 14.8673 43.3113 14.8829C43.9983 15.3357 44.4042 15.8822 44.4042 16.4599C44.4042 17.2406 43.6704 17.9588 42.4682 18.5052C41.0629 19.1298 39.0176 19.5357 36.738 19.5357C34.8176 19.5357 33.0533 19.2547 31.6793 18.7707C31.6168 18.7551 31.57 18.8019 31.5544 18.8487L31.367 19.9261C31.367 19.9729 31.3983 20.0197 31.4451 20.0354C34.2243 20.6755 37.425 21.0502 40.8287 21.0502C45.06 21.0502 48.4949 19.6762 48.4949 17.99C48.4949 17.3342 47.9797 16.7253 47.0897 16.2257C46.3247 15.851 45.825 15.3513 45.9499 15.0235C46.0748 14.68 46.8087 14.6331 47.6986 14.8673C47.7455 14.8673 47.7923 14.8361 47.8079 14.758L47.6674 13.9461ZM10.1641 12.8688C10.1641 6.0926 23.8882 0.612305 40.8287 0.612305C57.7693 0.612305 71.4934 6.10822 71.4934 12.8688C71.4934 19.645 57.7693 25.1253 40.8287 25.1253C23.8882 25.1409 10.1641 19.645 10.1641 12.8688Z" fill="#0059A2"/>
<path fill-rule="evenodd" clip-rule="evenodd" d="M12.2569 31.2764V46.2964H20.5945V49.6689H7.10449V31.2764H12.2569Z" fill="#0059A2"/>
<path fill-rule="evenodd" clip-rule="evenodd" d="M33.272 31.2764L40.2668 49.6689H34.9114L33.3656 45.3284H26.6363L25.0906 49.6689H20.7969L27.7292 31.2764H33.272ZM32.3976 42.2213L29.9932 35.5232L27.5887 42.2213H32.3976Z" fill="#0059A2"/>
<path fill-rule="evenodd" clip-rule="evenodd" d="M40.8291 31.2764H48.3704C50.5562 31.2764 53.8507 31.495 56.3956 33.6652C58.441 35.4139 59.409 38.2555 59.409 40.4414C59.409 42.0496 58.8938 45.344 56.0678 47.5767C53.8194 49.3411 51.2901 49.6689 48.9168 49.6689H40.8291V31.2764ZM45.9659 46.2808H48.2767C49.6507 46.2808 51.4774 46.0466 52.664 44.4541C53.8507 42.8771 53.8819 41.0191 53.8819 40.2697C53.8819 39.3016 53.757 37.35 52.3674 35.976C51.0871 34.7425 49.4165 34.6332 48.1674 34.6332H45.9503V46.2808H45.9659Z" fill="#0059A2"/>
<path fill-rule="evenodd" clip-rule="evenodd" d="M69.9321 31.2764L76.9269 49.6689H71.5715L70.0258 45.3284H63.2964L61.7507 49.6689H57.457L64.3894 31.2764H69.9321ZM69.0578 42.2057L66.6533 35.5076L64.2489 42.2057H69.0578Z" fill="#0059A2"/>
</svg>
