<svg width="115" height="62" viewBox="0 0 115 62" fill="none" xmlns="http://www.w3.org/2000/svg">
<path d="M57.1033 1.3623C25.9781 1.3623 0.76123 14.6398 0.76123 31.0002C0.76123 47.3606 25.9781 60.6381 57.1033 60.6381C88.2285 60.6381 113.445 47.3606 113.445 31.0002C113.445 14.6398 88.2285 1.3623 57.1033 1.3623Z" fill="#58595B"/>
<path d="M57.1033 1.3623C25.9781 1.3623 0.76123 14.6398 0.76123 31.0002C0.76123 47.3606 25.9781 60.6381 57.1033 60.6381C88.2285 60.6381 113.445 47.3606 113.445 31.0002C113.445 14.6398 88.2285 1.3623 57.1033 1.3623Z" fill="#595A5C"/>
<path d="M57.1033 1.3623C26.0086 1.3623 0.76123 14.6398 0.76123 31.0002C0.76123 47.3606 25.9781 60.6381 57.1033 60.6381C88.198 60.6381 113.445 47.3606 113.445 31.0002C113.445 14.6398 88.198 1.3623 57.1033 1.3623Z" fill="#5A5B5D"/>
<path d="M57.1031 1.3623C26.0084 1.3623 0.791504 14.6398 0.791504 31.0002C0.791504 47.3606 26.0084 60.6381 57.1031 60.6381C88.1978 60.6381 113.445 47.3606 113.445 31.0002C113.445 14.6398 88.1978 1.3623 57.1031 1.3623Z" fill="#5B5C5E"/>
<path d="M57.1031 1.39258C26.0084 1.39258 0.791504 14.6396 0.791504 31C0.791504 47.3603 26.0084 60.6073 57.1031 60.6073C88.1978 60.6073 113.415 47.3298 113.415 31C113.415 14.6396 88.1978 1.39258 57.1031 1.39258Z" fill="#5C5C5F"/>
<path d="M57.1031 1.39258C26.0084 1.39258 0.791504 14.6396 0.791504 31C0.791504 47.3603 26.0084 60.6073 57.1031 60.6073C88.1978 60.6073 113.415 47.3603 113.415 31C113.415 14.6396 88.1978 1.39258 57.1031 1.39258Z" fill="#5C5D60"/>
<path d="M57.1031 1.39258C26.0084 1.39258 0.791504 14.6396 0.791504 31C0.791504 47.3603 26.0084 60.6073 57.1031 60.6073C88.1978 60.6073 113.415 47.3603 113.415 31C113.415 14.6396 88.1978 1.39258 57.1031 1.39258Z" fill="#5D5E60"/>
<path d="M57.1031 1.39258C26.0084 1.39258 0.791504 14.6396 0.791504 31C0.791504 47.3603 26.0084 60.6073 57.1031 60.6073C88.1978 60.6073 113.415 47.3603 113.415 31C113.415 14.6396 88.1978 1.39258 57.1031 1.39258Z" fill="#5E5F61"/>
<path d="M57.1037 1.39258C26.0089 1.39258 0.82251 14.6396 0.82251 31C0.82251 47.3298 26.0394 60.6073 57.1037 60.6073C88.1984 60.6073 113.415 47.3603 113.415 31C113.415 14.6396 88.1984 1.39258 57.1037 1.39258Z" fill="#5F6062"/>
<path d="M57.1037 1.42383C26.0089 1.42383 0.82251 14.6708 0.82251 31.0312C0.82251 47.3611 26.0089 60.6386 57.1037 60.6386C88.1984 60.6386 113.385 47.3916 113.385 31.0312C113.385 14.6708 88.1984 1.42383 57.1037 1.42383Z" fill="#606163"/>
<path d="M57.1037 1.42383C26.0394 1.42383 0.82251 14.6708 0.82251 31.0007C0.82251 47.3305 26.0089 60.5775 57.1037 60.5775C88.1984 60.5775 113.385 47.3305 113.385 31.0007C113.385 14.6708 88.1984 1.42383 57.1037 1.42383Z" fill="#616264"/>
<path d="M57.1037 1.42383C26.0394 1.42383 0.82251 14.6708 0.82251 31.0007C0.82251 47.3305 26.0089 60.5775 57.1037 60.5775C88.1679 60.5775 113.385 47.3305 113.385 31.0007C113.385 14.6708 88.1984 1.42383 57.1037 1.42383Z" fill="#616365"/>
<path d="M57.1037 1.42383C26.0394 1.42383 0.82251 14.6708 0.82251 31.0007C0.82251 47.3305 26.0089 60.5775 57.1037 60.5775C88.1679 60.5775 113.385 47.3305 113.385 31.0007C113.385 14.6708 88.1984 1.42383 57.1037 1.42383Z" fill="#626366"/>
<path d="M57.1032 1.42383C26.039 1.42383 0.852539 14.6708 0.852539 31.0007C0.852539 47.3305 26.039 60.5775 57.1032 60.5775C88.1675 60.5775 113.354 47.3305 113.354 31.0007C113.384 14.6708 88.1675 1.42383 57.1032 1.42383Z" fill="#636467"/>
<path d="M57.1032 1.42383C26.039 1.42383 0.852539 14.6708 0.852539 31.0007C0.852539 47.3305 26.039 60.5775 57.1032 60.5775C88.1675 60.5775 113.354 47.3305 113.354 31.0007C113.384 14.6708 88.1675 1.42383 57.1032 1.42383Z" fill="#646567"/>
<path d="M57.1032 1.4541C26.039 1.4541 0.852539 14.7011 0.852539 31.031C0.852539 47.3608 26.039 60.5773 57.1032 60.5773C88.1675 60.5773 113.354 47.3303 113.354 31.031C113.354 14.6706 88.1675 1.4541 57.1032 1.4541Z" fill="#656668"/>
<path d="M57.1032 1.4541C26.039 1.4541 0.852539 14.6706 0.852539 31.0004C0.852539 47.3303 26.039 60.5468 57.1032 60.5468C88.1675 60.5468 113.354 47.2998 113.354 31.0004C113.354 14.6706 88.1675 1.4541 57.1032 1.4541Z" fill="#666769"/>
<path d="M57.1032 1.4541C26.039 1.4541 0.852539 14.6706 0.852539 31.0004C0.852539 47.3303 26.039 60.5468 57.1032 60.5468C88.1675 60.5468 113.354 47.3303 113.354 31.0004C113.354 14.7011 88.1675 1.4541 57.1032 1.4541Z" fill="#66686A"/>
<path d="M57.1031 1.4541C26.0388 1.4541 0.882812 14.6706 0.882812 31.0004C0.882812 47.2998 26.0692 60.5468 57.1031 60.5468C88.1673 60.5468 113.323 47.3303 113.323 31.0004C113.354 14.7011 88.1673 1.4541 57.1031 1.4541Z" fill="#67686B"/>
<path d="M57.1031 1.48438C26.0388 1.48438 0.882812 14.7009 0.882812 31.0307C0.882812 47.33 26.0692 60.5771 57.1031 60.5771C88.1369 60.5771 113.323 47.3606 113.323 31.0307C113.354 14.7009 88.1673 1.48438 57.1031 1.48438Z" fill="#68696C"/>
<path d="M57.1031 1.48438C26.0692 1.48438 0.882812 14.7009 0.882812 31.0307C0.882812 47.33 26.0692 60.5465 57.1031 60.5465C88.1369 60.5465 113.323 47.33 113.323 31.0307C113.323 14.7009 88.1673 1.48438 57.1031 1.48438Z" fill="#696A6C"/>
<path d="M57.1031 1.48438C26.0692 1.48438 0.882812 14.7009 0.882812 31.0002C0.882812 47.2995 26.0388 60.516 57.1031 60.516C88.1369 60.516 113.323 47.2995 113.323 31.0002C113.323 14.7009 88.1673 1.48438 57.1031 1.48438Z" fill="#6A6B6D"/>
<path d="M57.1036 1.48438C26.0698 1.48438 0.913818 14.7009 0.913818 31.0002C0.913818 47.2995 26.0698 60.516 57.1036 60.516C88.1374 60.516 113.324 47.2995 113.324 31.0002C113.324 14.7009 88.1679 1.48438 57.1036 1.48438Z" fill="#6A6C6E"/>
<path d="M57.1036 1.48438C26.0698 1.48438 0.913818 14.7009 0.913818 31.0002C0.913818 47.2995 26.0698 60.516 57.1036 60.516C88.1374 60.516 113.293 47.2995 113.293 31.0002C113.324 14.7009 88.1679 1.48438 57.1036 1.48438Z" fill="#6B6C6F"/>
<path d="M57.1036 1.48438C26.0698 1.48438 0.913818 14.7009 0.913818 31.0002C0.913818 47.2995 26.0698 60.516 57.1036 60.516C88.1374 60.516 113.293 47.2995 113.293 31.0002C113.324 14.7009 88.1374 1.48438 57.1036 1.48438Z" fill="#6C6D70"/>
<path d="M57.1036 1.51514C26.0698 1.51514 0.913818 14.7316 0.913818 31.031C0.913818 47.3303 26.0698 60.5163 57.1036 60.5163C88.1374 60.5163 113.293 47.2998 113.293 31.031C113.324 14.7011 88.1374 1.51514 57.1036 1.51514Z" fill="#6D6E70"/>
<path d="M57.1036 1.51514C26.0698 1.51514 0.913818 14.7316 0.913818 31.0004C0.913818 47.2998 26.0698 60.4857 57.1036 60.4857C88.1374 60.4857 113.293 47.2692 113.293 31.0004C113.293 14.7316 88.1374 1.51514 57.1036 1.51514Z" fill="#6D6F71"/>
<path d="M57.1036 1.51514C26.0698 1.51514 0.913818 14.7316 0.913818 31.0004C0.913818 47.2998 26.0698 60.4857 57.1036 60.4857C88.1374 60.4857 113.293 47.2692 113.293 31.0004C113.293 14.7316 88.1374 1.51514 57.1036 1.51514Z" fill="#6E7072"/>
<path d="M57.1335 1.51514C26.0996 1.51514 0.974121 14.7011 0.974121 31.0004C0.974121 47.2692 26.1301 60.4857 57.1335 60.4857C88.1368 60.4857 113.293 47.2998 113.293 31.0004C113.293 14.7316 88.1368 1.51514 57.1335 1.51514Z" fill="#6F7073"/>
<path d="M57.1335 1.51514C26.1301 1.51514 0.974121 14.7011 0.974121 31.0004C0.974121 47.2692 26.1301 60.4857 57.1335 60.4857C88.1368 60.4857 113.293 47.2998 113.293 31.0004C113.293 14.7316 88.1368 1.51514 57.1335 1.51514Z" fill="#707174"/>
<path d="M57.1335 1.54541C26.1301 1.54541 0.974121 14.7314 0.974121 31.0307C0.974121 47.2995 26.1301 60.516 57.1335 60.516C88.1368 60.516 113.293 47.33 113.293 31.0307C113.293 14.7314 88.1368 1.54541 57.1335 1.54541Z" fill="#717275"/>
<path d="M57.1335 1.54541C26.1301 1.54541 0.974121 14.7314 0.974121 31.0002C0.974121 47.269 26.1301 60.4549 57.1335 60.4549C88.1368 60.4549 113.293 47.269 113.293 31.0002C113.262 14.7314 88.1368 1.54541 57.1335 1.54541Z" fill="#717375"/>
<path d="M57.1335 1.54541C26.1301 1.54541 0.974121 14.7314 0.974121 31.0002C0.974121 47.269 26.0996 60.4549 57.1335 60.4549C88.1368 60.4549 113.293 47.269 113.293 31.0002C113.262 14.7314 88.1368 1.54541 57.1335 1.54541Z" fill="#727476"/>
<path d="M57.134 1.54541C26.1306 1.54541 1.00513 14.7314 1.00513 31.0002C1.00513 47.269 26.1306 60.4549 57.134 60.4549C88.1374 60.4549 113.263 47.269 113.263 31.0002C113.263 14.7314 88.1374 1.54541 57.134 1.54541Z" fill="#737477"/>
<path d="M57.134 1.54541C26.1306 1.54541 1.00513 14.7314 1.00513 31.0002C1.00513 47.269 26.1306 60.4549 57.134 60.4549C88.1374 60.4549 113.263 47.269 113.263 31.0002C113.263 14.7314 88.1374 1.54541 57.134 1.54541Z" fill="#747578"/>
<path d="M57.134 1.57568C26.1306 1.57568 1.00513 14.7617 1.00513 31.0305C1.00513 47.2993 26.1306 60.4852 57.134 60.4852C88.1374 60.4852 113.263 47.2993 113.263 31.0305C113.263 14.7617 88.1069 1.57568 57.134 1.57568Z" fill="#747678"/>
<path d="M57.134 1.57568C26.1306 1.57568 1.00513 14.7617 1.00513 31.0305C1.00513 47.2993 26.1306 60.4547 57.134 60.4547C88.1374 60.4547 113.263 47.2687 113.263 31.0305C113.263 14.7617 88.1069 1.57568 57.134 1.57568Z" fill="#757779"/>
<path d="M57.134 1.57568C26.1306 1.57568 1.00513 14.7617 1.00513 30.9999C1.00513 47.2382 26.1306 60.4242 57.134 60.4242C88.1374 60.4242 113.263 47.2382 113.263 30.9999C113.232 14.7617 88.1069 1.57568 57.134 1.57568Z" fill="#76777A"/>
<path d="M57.1338 1.57568C26.1609 1.57568 1.0354 14.7617 1.0354 30.9999C1.0354 47.2382 26.1609 60.4242 57.1338 60.4242C88.1067 60.4242 113.232 47.2382 113.232 30.9999C113.232 14.7617 88.1067 1.57568 57.1338 1.57568Z" fill="#77787B"/>
<path d="M57.1338 1.57568C26.1609 1.57568 1.0354 14.7617 1.0354 30.9999C1.0354 47.2382 26.1609 60.4242 57.1338 60.4242C88.1067 60.4242 113.232 47.2382 113.232 30.9999C113.232 14.7617 88.1067 1.57568 57.1338 1.57568Z" fill="#77797C"/>
<path d="M57.1338 1.60693C26.1609 1.60693 1.0354 14.7624 1.0354 31.0312C1.0354 47.2695 26.1609 60.4554 57.1338 60.4554C88.1067 60.4554 113.232 47.2695 113.232 31.0312C113.232 14.7624 88.1067 1.60693 57.1338 1.60693Z" fill="#787A7C"/>
<path d="M57.1338 1.60693C26.1609 1.60693 1.0354 14.7624 1.0354 31.0312C1.0354 47.2695 26.1609 60.4249 57.1338 60.4249C88.1067 60.4249 113.232 47.2695 113.232 31.0312C113.232 14.7624 88.1067 1.60693 57.1338 1.60693Z" fill="#797B7D"/>
<path d="M57.1336 1.60693C26.1607 1.60693 1.06567 14.7624 1.06567 31.0007C1.06567 47.2389 26.1912 60.3944 57.1641 60.3944C88.137 60.3944 113.263 47.2389 113.263 31.0007C113.202 14.7624 88.1065 1.60693 57.1336 1.60693Z" fill="#7A7B7E"/>
<path d="M57.1337 1.60693C26.1607 1.60693 1.06567 14.7624 1.06567 31.0007C1.06567 47.2389 26.1607 60.3944 57.1337 60.3944C88.1066 60.3944 113.202 47.2389 113.202 31.0007C113.202 14.7624 88.1066 1.60693 57.1337 1.60693Z" fill="#7A7C7F"/>
<path d="M57.1337 1.60693C26.1607 1.60693 1.06567 14.7929 1.06567 31.0007C1.06567 47.2389 26.1607 60.3944 57.1337 60.3944C88.1066 60.3944 113.202 47.2389 113.202 31.0007C113.202 14.7929 88.1066 1.60693 57.1337 1.60693Z" fill="#7B7D7F"/>
<path d="M57.1337 1.63721C26.1607 1.63721 1.06567 14.7927 1.06567 31.0004C1.06567 47.2387 26.1607 60.3941 57.1337 60.3941C88.1066 60.3941 113.202 47.2387 113.202 31.0004C113.202 14.7927 88.1066 1.63721 57.1337 1.63721Z" fill="#7C7E80"/>
<path d="M57.1337 1.63721C26.1607 1.63721 1.06567 14.7927 1.06567 31.0004C1.06567 47.2387 26.1607 60.3636 57.1337 60.3636C88.1066 60.3636 113.202 47.2082 113.202 31.0004C113.202 14.7927 88.0761 1.63721 57.1337 1.63721Z" fill="#7D7E81"/>
<path d="M57.1342 1.63721C26.1917 1.63721 1.09668 14.7927 1.09668 31.0004C1.09668 47.2082 26.1917 60.3636 57.1342 60.3636C88.0767 60.3636 113.202 47.2082 113.202 31.0004C113.202 14.7927 88.0767 1.63721 57.1342 1.63721Z" fill="#7D7F82"/>
<path d="M57.1342 1.63721C26.1917 1.63721 1.09668 14.7927 1.09668 31.0004C1.09668 47.2082 26.1917 60.3636 57.1342 60.3636C88.0767 60.3636 113.172 47.2082 113.172 31.0004C113.172 14.7927 88.0767 1.63721 57.1342 1.63721Z" fill="#7E8082"/>
<path d="M57.1342 1.63721C26.1917 1.63721 1.09668 14.7927 1.09668 31.0004C1.09668 47.2082 26.1917 60.3636 57.1342 60.3636C88.0767 60.3636 113.172 47.2082 113.172 31.0004C113.172 14.7927 88.0767 1.63721 57.1342 1.63721Z" fill="#7F8183"/>
<path d="M57.1342 1.66748C26.1917 1.66748 1.09668 14.8229 1.09668 31.0307C1.09668 47.2384 26.1917 60.3939 57.1342 60.3939C88.0767 60.3939 113.172 47.2384 113.172 31.0307C113.172 14.7924 88.0767 1.66748 57.1342 1.66748Z" fill="#808184"/>
<path d="M57.1342 1.66748C26.1917 1.66748 1.09668 14.8229 1.09668 31.0307C1.09668 47.2384 26.1917 60.3939 57.1342 60.3939C88.0767 60.3939 113.172 47.2384 113.172 31.0307C113.172 14.7924 88.0767 1.66748 57.1342 1.66748Z" fill="#808285"/>
<path d="M57.1342 1.66748C26.1917 1.66748 1.09668 14.7924 1.09668 31.0002C1.09668 47.2079 26.1917 60.3328 57.1342 60.3328C88.0767 60.3328 113.172 47.2079 113.172 31.0002C113.172 14.7924 88.0767 1.66748 57.1342 1.66748Z" fill="#818385"/>
<path d="M57.1338 1.66748C26.1913 1.66748 1.12671 14.7924 1.12671 31.0002C1.12671 47.2079 26.2218 60.3328 57.1338 60.3328C88.0458 60.3328 113.141 47.2079 113.141 31.0002C113.141 14.8229 88.0762 1.66748 57.1338 1.66748Z" fill="#828486"/>
<path d="M57.1338 1.66748C26.1913 1.66748 1.12671 14.7924 1.12671 31.0002C1.12671 47.2079 26.1913 60.3328 57.1338 60.3328C88.0762 60.3328 113.141 47.2079 113.141 31.0002C113.141 14.8229 88.0762 1.66748 57.1338 1.66748Z" fill="#828487"/>
<path d="M57.1338 1.69824C26.1913 1.69824 1.12671 14.8232 1.12671 31.0309C1.12671 47.2387 26.1913 60.3636 57.1338 60.3636C88.0762 60.3636 113.141 47.2387 113.141 31.0309C113.141 14.8232 88.0762 1.69824 57.1338 1.69824Z" fill="#838588"/>
<path d="M57.1338 1.69824C26.2218 1.69824 1.12671 14.8232 1.12671 31.0004C1.12671 47.1776 26.1913 60.3331 57.1338 60.3331C88.0458 60.3331 113.141 47.2081 113.141 31.0004C113.141 14.8232 88.0762 1.69824 57.1338 1.69824Z" fill="#848688"/>
<path d="M57.1336 1.69824C26.2216 1.69824 1.15698 14.8232 1.15698 31.0004C1.15698 47.1776 26.2216 60.3026 57.1336 60.3026C88.0456 60.3026 113.141 47.1776 113.141 31.0004C113.141 14.8232 88.0456 1.69824 57.1336 1.69824Z" fill="#858789"/>
<path d="M57.1336 1.69824C26.2216 1.69824 1.15698 14.8232 1.15698 31.0004C1.15698 47.1776 26.2216 60.3026 57.1336 60.3026C88.0456 60.3026 113.11 47.1776 113.11 31.0004C113.141 14.8232 88.0456 1.69824 57.1336 1.69824Z" fill="#85878A"/>
<path d="M57.1336 1.69824C26.2216 1.69824 1.15698 14.8232 1.15698 31.0004C1.15698 47.1776 26.2216 60.3026 57.1336 60.3026C88.0456 60.3026 113.11 47.1776 113.11 31.0004C113.11 14.8232 88.0456 1.69824 57.1336 1.69824Z" fill="#86888B"/>
<path d="M57.1338 1.72852C26.2218 1.72852 1.15723 14.8534 1.15723 31.0307C1.15723 47.2079 26.2218 60.3328 57.1338 60.3328C88.0458 60.3328 113.11 47.2079 113.11 31.0307C113.11 14.8229 88.0458 1.72852 57.1338 1.72852Z" fill="#87898B"/>
<path d="M57.1338 1.72852C26.2218 1.72852 1.15723 14.8534 1.15723 31.0307C1.15723 47.2079 26.2218 60.3328 57.1338 60.3328C88.0458 60.3328 113.11 47.2079 113.11 31.0307C113.11 14.8229 88.0458 1.72852 57.1338 1.72852Z" fill="#888A8C"/>
<path d="M57.1341 1.72852C26.2221 1.72852 1.18799 14.8534 1.18799 31.0307C1.18799 47.2079 26.2526 60.3023 57.1341 60.3023C88.0461 60.3023 113.111 47.1774 113.111 31.0307C113.111 14.8534 88.0461 1.72852 57.1341 1.72852Z" fill="#888A8D"/>
<path d="M57.1341 1.72852C26.2221 1.72852 1.18799 14.8229 1.18799 31.0001C1.18799 47.1774 26.2526 60.2718 57.1341 60.2718C88.0462 60.2718 113.08 47.1469 113.08 31.0001C113.111 14.8534 88.0462 1.72852 57.1341 1.72852Z" fill="#898B8E"/>
<path d="M57.1341 1.72852C26.2221 1.72852 1.18799 14.8229 1.18799 31.0001C1.18799 47.1774 26.2526 60.2718 57.1341 60.2718C88.0461 60.2718 113.08 47.1774 113.08 31.0001C113.08 14.8534 88.0461 1.72852 57.1341 1.72852Z" fill="#8A8C8E"/>
<path d="M57.1341 1.75879C26.2526 1.75879 1.18799 14.8532 1.18799 31.0304C1.18799 47.2077 26.2221 60.3021 57.1341 60.3021C88.0157 60.3021 113.08 47.2077 113.08 31.0304C113.08 14.8532 88.0461 1.75879 57.1341 1.75879Z" fill="#8B8D8F"/>
<path d="M57.1341 1.75879C26.2526 1.75879 1.18799 14.8532 1.18799 31.0304C1.18799 47.1771 26.2221 60.3021 57.1341 60.3021C88.0157 60.3021 113.08 47.2077 113.08 31.0304C113.08 14.8532 88.0461 1.75879 57.1341 1.75879Z" fill="#8B8D90"/>
<path d="M57.1337 1.75928C26.2522 1.75928 1.21802 14.8537 1.21802 31.0309C1.21802 47.1776 26.2522 60.3025 57.1337 60.3025C88.0153 60.3025 113.08 47.2081 113.08 31.0309C113.08 14.8537 88.0457 1.75928 57.1337 1.75928Z" fill="#8C8E91"/>
<path d="M57.1337 1.75928C26.2522 1.75928 1.21802 14.8537 1.21802 31.0004C1.21802 47.1471 26.2522 60.2415 57.1337 60.2415C88.0153 60.2415 113.049 47.1471 113.049 31.0004C113.08 14.8537 88.0153 1.75928 57.1337 1.75928Z" fill="#8D8F92"/>
<path d="M57.1337 1.75928C26.2522 1.75928 1.21802 14.8537 1.21802 31.0004C1.21802 47.1471 26.2522 60.2415 57.1337 60.2415C88.0153 60.2415 113.049 47.1471 113.049 31.0004C113.08 14.8537 88.0153 1.75928 57.1337 1.75928Z" fill="#8E9092"/>
<path d="M57.134 1.79004C26.2524 1.79004 1.21826 14.8844 1.21826 31.0311C1.21826 47.1779 26.2524 60.2723 57.134 60.2723C88.0155 60.2723 113.05 47.1779 113.05 31.0311C113.05 14.8539 88.0155 1.79004 57.134 1.79004Z" fill="#8E9093"/>
<path d="M57.134 1.79004C26.2524 1.79004 1.21826 14.8844 1.21826 31.0311C1.21826 47.1779 26.2524 60.2723 57.134 60.2723C88.0155 60.2723 113.05 47.1779 113.05 31.0311C113.05 14.8844 88.0155 1.79004 57.134 1.79004Z" fill="#8F9194"/>
<path d="M57.1335 1.79004C26.252 1.79004 1.24829 14.8844 1.24829 31.0311C1.24829 47.1779 26.2824 60.2723 57.1335 60.2723C88.0151 60.2723 113.049 47.1779 113.049 31.0311C113.049 14.8844 88.0151 1.79004 57.1335 1.79004Z" fill="#909295"/>
<path d="M57.1335 1.79004C26.252 1.79004 1.24829 14.8844 1.24829 31.0006C1.24829 47.1473 26.2824 60.2112 57.1335 60.2112C88.0151 60.2112 113.019 47.1168 113.019 31.0006C113.049 14.8844 88.0151 1.79004 57.1335 1.79004Z" fill="#919395"/>
<path d="M57.1335 1.79004C26.2824 1.79004 1.24829 14.8844 1.24829 31.0006C1.24829 47.1473 26.2824 60.2112 57.1335 60.2112C87.9846 60.2112 113.019 47.1168 113.019 31.0006C113.049 14.8844 88.0151 1.79004 57.1335 1.79004Z" fill="#919396"/>
<path d="M57.1338 1.82031C26.2827 1.82031 1.24854 14.8842 1.24854 31.0309C1.24854 47.1471 26.2827 60.2415 57.1338 60.2415C87.9849 60.2415 113.019 47.1471 113.019 31.0309C113.019 14.8842 88.0153 1.82031 57.1338 1.82031Z" fill="#929497"/>
<path d="M57.1338 1.82031C26.2827 1.82031 1.24854 14.8842 1.24854 31.0309C1.24854 47.1471 26.2522 60.2415 57.1338 60.2415C88.0153 60.2415 113.019 47.1776 113.019 31.0309C113.019 14.8842 88.0153 1.82031 57.1338 1.82031Z" fill="#939598"/>
<path d="M57.1338 1.82031C26.2827 1.82031 1.24854 14.8842 1.24854 31.0309C1.24854 47.1471 26.2522 60.2415 57.1338 60.2415C87.9849 60.2415 113.019 47.1776 113.019 31.0309C113.019 14.8842 88.0153 1.82031 57.1338 1.82031Z" fill="#949698"/>
<path d="M57.1334 1.82031C26.2823 1.82031 1.27856 14.8842 1.27856 31.0309C1.27856 47.1471 26.2823 60.211 57.1334 60.211C87.9844 60.211 112.988 47.1471 112.988 31.0309C113.019 14.8842 88.0149 1.82031 57.1334 1.82031Z" fill="#949699"/>
<path d="M57.1641 1.82031C26.313 1.82031 1.30933 14.8842 1.30933 31.0004C1.30933 47.1166 26.313 60.1804 57.1641 60.1804C88.0152 60.1804 113.019 47.1166 113.019 31.0004C113.019 14.8842 87.9847 1.82031 57.1641 1.82031Z" fill="#95979A"/>
<path d="M57.1641 1.85059C26.313 1.85059 1.30933 14.9145 1.30933 31.0307C1.30933 47.1468 26.313 60.2107 57.1641 60.2107C88.0152 60.2107 113.019 47.1468 113.019 31.0307C113.019 14.9145 87.9847 1.85059 57.1641 1.85059Z" fill="#96989B"/>
<path d="M57.1641 1.85059C26.313 1.85059 1.30933 14.9145 1.30933 31.0307C1.30933 47.1468 26.313 60.2107 57.1641 60.2107C88.0152 60.2107 113.019 47.1468 113.019 31.0307C112.988 14.9145 87.9847 1.85059 57.1641 1.85059Z" fill="#97999B"/>
<path d="M57.1642 1.85059C26.3131 1.85059 1.33984 14.9145 1.33984 31.0307C1.33984 47.1468 26.3435 60.2107 57.1642 60.2107C88.0153 60.2107 113.019 47.1468 113.019 31.0307C112.989 14.9145 87.9848 1.85059 57.1642 1.85059Z" fill="#979A9C"/>
<path d="M57.1642 1.85059C26.3435 1.85059 1.33984 14.9145 1.33984 31.0306C1.33984 47.1468 26.3435 60.1802 57.1642 60.1802C87.9848 60.1802 112.989 47.1163 112.989 31.0306C112.989 14.9145 87.9848 1.85059 57.1642 1.85059Z" fill="#989A9D"/>
<path d="M57.1642 1.85059C26.3435 1.85059 1.33984 14.9145 1.33984 31.0001C1.33984 47.1163 26.3435 60.1497 57.1642 60.1497C87.9848 60.1497 112.989 47.0858 112.989 31.0001C112.989 14.9145 87.9848 1.85059 57.1642 1.85059Z" fill="#999B9E"/>
<path d="M57.1642 1.85059C26.3435 1.85059 1.33984 14.9145 1.33984 31.0001C1.33984 47.0858 26.3435 60.1497 57.1642 60.1497C87.9848 60.1497 112.989 47.0858 112.989 31.0001C112.989 14.9145 87.9848 1.85059 57.1642 1.85059Z" fill="#9A9C9E"/>
<path d="M57.1642 1.88086C26.3435 1.88086 1.33984 14.9447 1.33984 31.0304C1.33984 47.1161 26.3435 60.1799 57.1642 60.1799C87.9848 60.1799 112.989 47.1161 112.989 31.0304C112.958 14.9142 87.9848 1.88086 57.1642 1.88086Z" fill="#9B9D9F"/>
<path d="M57.164 1.88086C26.3434 1.88086 1.37012 14.9142 1.37012 31.0304C1.37012 47.1161 26.3434 60.1799 57.164 60.1799C87.9846 60.1799 112.988 47.1161 112.988 31.0304C112.958 14.9142 87.9846 1.88086 57.164 1.88086Z" fill="#9B9DA0"/>
<path d="M57.164 1.88086C26.3434 1.88086 1.37012 14.9142 1.37012 31.0304C1.37012 47.1161 26.3434 60.1799 57.164 60.1799C87.9846 60.1799 112.958 47.1466 112.958 31.0304C112.958 14.9142 87.9846 1.88086 57.164 1.88086Z" fill="#9C9EA1"/>
<path d="M57.164 1.88086C26.3434 1.88086 1.37012 14.9447 1.37012 31.0304C1.37012 47.1161 26.3434 60.1494 57.164 60.1494C87.9846 60.1494 112.958 47.1161 112.958 31.0304C112.958 14.9447 87.9846 1.88086 57.164 1.88086Z" fill="#9D9FA2"/>
<path d="M57.164 1.88086C26.3434 1.88086 1.37012 14.9447 1.37012 31.0304C1.37012 47.1161 26.3434 60.1494 57.164 60.1494C87.9846 60.1494 112.958 47.1161 112.958 31.0304C112.958 14.9447 87.9542 1.88086 57.164 1.88086Z" fill="#9EA0A2"/>
<path d="M57.164 1.91211C26.3434 1.91211 1.37012 14.9455 1.37012 31.0311C1.37012 47.1168 26.3434 60.1501 57.164 60.1501C87.9846 60.1501 112.958 47.1168 112.958 31.0311C112.958 14.9455 87.9542 1.91211 57.164 1.91211Z" fill="#9EA1A3"/>
<path d="M57.164 1.91211C26.3434 1.91211 1.37012 14.9455 1.37012 31.0311C1.37012 47.1168 26.3434 60.1501 57.1335 60.1501C87.9237 60.1501 112.927 47.1168 112.927 31.0311C112.927 14.9455 87.9542 1.91211 57.164 1.91211Z" fill="#9FA1A4"/>
<path d="M57.1643 1.91162C26.3741 1.91162 1.40088 14.945 1.40088 31.0306C1.40088 47.1163 26.3741 60.1497 57.1643 60.1497C87.9545 60.1497 112.928 47.1163 112.928 31.0306C112.928 14.945 87.9545 1.91162 57.1643 1.91162Z" fill="#A0A2A5"/>
<path d="M57.1643 1.91162C26.3741 1.91162 1.40088 14.945 1.40088 31.0001C1.40088 47.0553 26.3741 60.0886 57.1643 60.0886C87.9545 60.0886 112.928 47.0553 112.928 31.0001C112.928 14.945 87.9545 1.91162 57.1643 1.91162Z" fill="#A1A3A5"/>
<path d="M57.1643 1.91162C26.3741 1.91162 1.40088 14.945 1.40088 31.0001C1.40088 47.0553 26.3741 60.0886 57.1643 60.0886C87.9545 60.0886 112.928 47.0553 112.928 31.0001C112.928 14.945 87.9545 1.91162 57.1643 1.91162Z" fill="#A2A4A6"/>
<path d="M57.1643 1.94238C26.3741 1.94238 1.40088 14.9757 1.40088 31.0309C1.40088 47.086 26.3741 60.1194 57.1643 60.1194C87.9545 60.1194 112.928 47.086 112.928 31.0309C112.928 14.9452 87.9545 1.94238 57.1643 1.94238Z" fill="#A2A4A7"/>
<path d="M57.1641 1.94238C26.3739 1.94238 1.43115 14.9757 1.43115 31.0309C1.43115 47.086 26.4044 60.1194 57.1641 60.1194C87.9543 60.1194 112.928 47.086 112.928 31.0309C112.897 14.9452 87.9543 1.94238 57.1641 1.94238Z" fill="#A3A5A8"/>
<path d="M57.1641 1.94238C26.3739 1.94238 1.43115 14.9757 1.43115 31.0309C1.43115 47.086 26.3739 60.1194 57.1641 60.1194C87.9543 60.1194 112.897 47.086 112.897 31.0309C112.897 14.9757 87.9543 1.94238 57.1641 1.94238Z" fill="#A4A6A9"/>
<path d="M57.1641 1.94238C26.3739 1.94238 1.43115 14.9452 1.43115 31.0309C1.43115 47.086 26.3739 60.0888 57.1641 60.0888C87.9543 60.0888 112.897 47.0555 112.897 31.0309C112.897 14.9757 87.9543 1.94238 57.1641 1.94238Z" fill="#A5A7A9"/>
<path d="M57.1641 1.94238C26.3739 1.94238 1.43115 14.9452 1.43115 31.0004C1.43115 47.0555 26.3739 60.0583 57.1641 60.0583C87.9543 60.0583 112.897 47.0555 112.897 31.0004C112.897 14.9757 87.9543 1.94238 57.1641 1.94238Z" fill="#A5A8AA"/>
<path d="M57.1641 1.97266C26.4044 1.97266 1.43115 14.9755 1.43115 31.0306C1.43115 47.0858 26.3739 60.0886 57.1641 60.0886C87.9238 60.0886 112.897 47.0858 112.897 31.0306C112.897 14.9755 87.9238 1.97266 57.1641 1.97266Z" fill="#A6A8AB"/>
<path d="M57.1639 1.97266C26.4042 1.97266 1.46143 14.9755 1.46143 31.0306C1.46143 47.0858 26.4042 60.0886 57.1639 60.0886C87.9237 60.0886 112.897 47.0858 112.897 31.0306C112.897 14.9755 87.9237 1.97266 57.1639 1.97266Z" fill="#A7A9AC"/>
<path d="M57.1639 1.97266C26.4042 1.97266 1.46143 14.9755 1.46143 31.0306C1.46143 47.0858 26.4042 60.0886 57.1639 60.0886C87.9237 60.0886 112.866 47.0858 112.866 31.0306C112.866 14.9755 87.9237 1.97266 57.1639 1.97266Z" fill="#A8AAAD"/>
<path d="M57.1639 1.97266C26.4042 1.97266 1.46143 14.9755 1.46143 31.0306C1.46143 47.0552 26.4042 60.0886 57.1639 60.0886C87.9237 60.0886 112.866 47.0858 112.866 31.0306C112.866 14.9755 87.9237 1.97266 57.1639 1.97266Z" fill="#A9ABAD"/>
<path d="M57.1639 1.97266C26.4042 1.97266 1.46143 14.9755 1.46143 31.0001C1.46143 47.0247 26.4042 60.0276 57.1639 60.0276C87.9237 60.0276 112.866 47.0247 112.866 31.0001C112.866 14.9755 87.9237 1.97266 57.1639 1.97266Z" fill="#A9ACAE"/>
<path d="M57.1639 2.00342C26.4042 2.00342 1.46143 15.0063 1.46143 31.0309C1.46143 47.0555 26.4042 60.0583 57.1639 60.0583C87.9237 60.0583 112.866 47.0555 112.866 31.0309C112.866 14.9757 87.9237 2.00342 57.1639 2.00342Z" fill="#AAACAF"/>
<path d="M57.1645 2.00342C26.4048 2.00342 1.49243 15.0063 1.49243 31.0309C1.49243 47.0555 26.4352 60.0583 57.1645 60.0583C87.9242 60.0583 112.867 47.0555 112.867 31.0309C112.867 15.0063 87.9242 2.00342 57.1645 2.00342Z" fill="#ABADB0"/>
<path d="M57.1645 2.00342C26.4048 2.00342 1.49243 15.0063 1.49243 31.0309C1.49243 47.0555 26.4352 60.0583 57.1645 60.0583C87.9242 60.0583 112.837 47.0555 112.837 31.0309C112.867 15.0063 87.9242 2.00342 57.1645 2.00342Z" fill="#ACAEB0"/>
<path d="M57.1645 2.00342C26.4048 2.00342 1.49243 15.0063 1.49243 31.0309C1.49243 47.0555 26.4352 60.0583 57.1645 60.0583C87.9242 60.0583 112.837 47.0555 112.837 31.0309C112.837 15.0063 87.9242 2.00342 57.1645 2.00342Z" fill="#ADAFB1"/>
<path d="M57.1645 2.00342C26.4352 2.00342 1.49243 14.9757 1.49243 31.0003C1.49243 47.025 26.4048 59.9973 57.1645 59.9973C87.8938 59.9973 112.837 46.9944 112.837 31.0003C112.837 15.0062 87.9242 2.00342 57.1645 2.00342Z" fill="#AEB0B2"/>
<path d="M57.1645 2.03369C26.4352 2.03369 1.49243 15.006 1.49243 31.0306C1.49243 47.0552 26.4048 60.0275 57.1645 60.0275C87.8938 60.0275 112.837 47.0552 112.837 31.0306C112.837 15.006 87.9242 2.03369 57.1645 2.03369Z" fill="#AEB0B3"/>
<path d="M57.1643 2.03369C26.435 2.03369 1.52271 15.006 1.52271 31.0306C1.52271 47.0552 26.435 60.0275 57.1643 60.0275C87.8936 60.0275 112.836 47.0552 112.836 31.0306C112.836 15.006 87.8936 2.03369 57.1643 2.03369Z" fill="#AFB1B4"/>
<path d="M57.1643 2.03369C26.435 2.03369 1.52271 15.006 1.52271 31.0306C1.52271 47.0247 26.435 60.0275 57.1643 60.0275C87.8936 60.0275 112.806 47.0552 112.806 31.0306C112.836 15.006 87.8936 2.03369 57.1643 2.03369Z" fill="#B0B2B4"/>
<path d="M57.1643 2.03369C26.435 2.03369 1.52271 15.006 1.52271 31.0306C1.52271 47.0247 26.435 60.0275 57.1643 60.0275C87.8936 60.0275 112.806 47.0552 112.806 31.0306C112.806 15.006 87.8936 2.03369 57.1643 2.03369Z" fill="#B1B3B5"/>
<path d="M57.1643 2.03369C26.435 2.03369 1.52271 15.006 1.52271 31.0001C1.52271 46.9942 26.435 59.9665 57.1643 59.9665C87.8936 59.9665 112.806 46.9942 112.806 31.0001C112.806 15.006 87.8936 2.03369 57.1643 2.03369Z" fill="#B2B4B6"/>
<path d="M57.1641 2.06396C26.4348 2.06396 1.52246 15.0363 1.52246 31.0304C1.52246 47.0245 26.4348 59.9968 57.1641 59.9968C87.8933 59.9968 112.806 47.0245 112.806 31.0304C112.806 15.0363 87.8933 2.06396 57.1641 2.06396Z" fill="#B2B4B7"/>
<path d="M57.1639 2.06396C26.4346 2.06396 1.55273 15.0363 1.55273 31.0304C1.55273 47.0245 26.4651 59.9968 57.1639 59.9968C87.8932 59.9968 112.805 47.0245 112.805 31.0304C112.805 15.0363 87.8932 2.06396 57.1639 2.06396Z" fill="#B3B5B8"/>
<path d="M57.1639 2.06396C26.4346 2.06396 1.55273 15.0363 1.55273 31.0304C1.55273 47.0245 26.4651 59.9968 57.1639 59.9968C87.8932 59.9968 112.775 47.0245 112.775 31.0304C112.805 15.0363 87.8932 2.06396 57.1639 2.06396Z" fill="#B4B6B8"/>
<path d="M57.1639 2.06396C26.4651 2.06396 1.55273 15.0363 1.55273 31.0304C1.55273 47.0245 26.4651 59.9968 57.1639 59.9968C87.8627 59.9968 112.775 47.0245 112.775 31.0304C112.805 15.0363 87.8932 2.06396 57.1639 2.06396Z" fill="#B5B7B9"/>
<path d="M57.1639 2.06396C26.4651 2.06396 1.55273 15.0363 1.55273 31.0304C1.55273 47.0245 26.4651 59.9968 57.1639 59.9968C87.8627 59.9968 112.775 47.0245 112.775 31.0304C112.775 15.0363 87.8931 2.06396 57.1639 2.06396Z" fill="#B6B8BA"/>
<path d="M57.1639 2.09521C26.4651 2.09521 1.55273 15.0675 1.55273 31.0311C1.55273 47.0252 26.4346 59.967 57.1639 59.967C87.8931 59.967 112.775 46.9947 112.775 31.0311C112.775 15.037 87.8931 2.09521 57.1639 2.09521Z" fill="#B7B9BB"/>
<path d="M57.1644 2.09521C26.4656 2.09521 1.58374 15.037 1.58374 31.0311C1.58374 47.0252 26.4656 59.967 57.1644 59.967C87.8633 59.967 112.776 46.9947 112.776 31.0311C112.776 15.037 87.8937 2.09521 57.1644 2.09521Z" fill="#B7B9BC"/>
<path d="M57.1644 2.09521C26.4656 2.09521 1.58374 15.037 1.58374 31.0311C1.58374 46.9947 26.4656 59.967 57.1644 59.967C87.8632 59.967 112.745 47.0252 112.745 31.0311C112.776 15.037 87.8632 2.09521 57.1644 2.09521Z" fill="#B8BABC"/>
<path d="M57.1644 2.09521C26.4656 2.09521 1.58374 15.037 1.58374 31.0311C1.58374 46.9947 26.4656 59.967 57.1644 59.967C87.8632 59.967 112.745 47.0252 112.745 31.0311C112.776 15.037 87.8632 2.09521 57.1644 2.09521Z" fill="#B9BBBD"/>
<path d="M57.1644 2.09521C26.4656 2.09521 1.58374 15.037 1.58374 31.0311C1.58374 46.9947 26.4656 59.967 57.1644 59.967C87.8633 59.967 112.745 47.0252 112.745 31.0311C112.745 15.0675 87.8633 2.09521 57.1644 2.09521Z" fill="#BABCBE"/>
<path d="M57.1644 2.12549C26.4656 2.12549 1.58374 15.0673 1.58374 31.0308C1.58374 46.9944 26.4656 59.9362 57.1644 59.9362C87.8633 59.9362 112.745 46.9944 112.745 31.0308C112.745 15.0673 87.8633 2.12549 57.1644 2.12549Z" fill="#BBBDBF"/>
<path d="M57.1642 2.12549C26.4654 2.12549 1.61401 15.0673 1.61401 31.0308C1.61401 46.9944 26.4959 59.9362 57.1642 59.9362C87.8631 59.9362 112.745 46.9944 112.745 31.0308C112.745 15.0673 87.8631 2.12549 57.1642 2.12549Z" fill="#BCBDC0"/>
<path d="M57.1642 2.12549C26.4959 2.12549 1.61401 15.0673 1.61401 31.0308C1.61401 46.9944 26.4959 59.9362 57.1642 59.9362C87.8326 59.9362 112.714 46.9944 112.714 31.0308C112.745 15.0673 87.8631 2.12549 57.1642 2.12549Z" fill="#BCBEC0"/>
<path d="M57.1945 2.12549C26.5262 2.12549 1.64429 15.0673 1.64429 31.0308C1.64429 46.9944 26.5262 59.9362 57.1945 59.9362C87.8629 59.9362 112.745 46.9944 112.745 31.0308C112.745 15.0673 87.8629 2.12549 57.1945 2.12549Z" fill="#BDBFC1"/>
<path d="M57.1945 2.12549C26.5262 2.12549 1.64429 15.0673 1.64429 31.0308C1.64429 46.9944 26.5262 59.9362 57.1945 59.9362C87.8629 59.9362 112.745 46.9944 112.745 31.0308C112.745 15.0673 87.8629 2.12549 57.1945 2.12549Z" fill="#BEC0C2"/>
<path d="M57.1945 2.15576C26.5262 2.15576 1.64429 15.0975 1.64429 31.0306C1.64429 46.9942 26.5262 59.9054 57.1945 59.9054C87.8629 59.9054 112.745 46.9636 112.745 31.0306C112.714 15.067 87.8629 2.15576 57.1945 2.15576Z" fill="#BFC1C3"/>
<path d="M57.1948 2.15576C26.5265 2.15576 1.67505 15.0975 1.67505 31.0306C1.67505 46.9636 26.5265 59.9054 57.1948 59.9054C87.8632 59.9054 112.745 46.9636 112.745 31.0306C112.715 15.067 87.8632 2.15576 57.1948 2.15576Z" fill="#C0C2C4"/>
<path d="M57.1948 2.15576C26.5265 2.15576 1.67505 15.0975 1.67505 31.0306C1.67505 46.9636 26.5265 59.9054 57.1948 59.9054C87.8632 59.9054 112.715 46.9636 112.715 31.0306C112.715 15.067 87.8632 2.15576 57.1948 2.15576Z" fill="#C1C2C4"/>
<path d="M57.1948 2.15576C26.5265 2.15576 1.67505 15.0975 1.67505 31.0306C1.67505 46.9636 26.5265 59.9054 57.1948 59.9054C87.8632 59.9054 112.715 46.9636 112.715 31.0306C112.715 15.0975 87.8327 2.15576 57.1948 2.15576Z" fill="#C1C3C5"/>
<path d="M57.1948 2.15576C26.5265 2.15576 1.67505 15.0975 1.67505 31.0306C1.67505 46.9636 26.5265 59.9054 57.1948 59.9054C87.8632 59.9054 112.715 46.9942 112.715 31.0306C112.715 15.0975 87.8327 2.15576 57.1948 2.15576Z" fill="#C2C4C6"/>
<path d="M57.1948 2.18652C26.5265 2.18652 1.67505 15.0978 1.67505 31.0308C1.67505 46.9639 26.5265 59.9057 57.1948 59.9057C87.8632 59.9057 112.715 46.9944 112.715 31.0308C112.684 15.0978 87.8327 2.18652 57.1948 2.18652Z" fill="#C3C5C7"/>
<path d="M57.1948 2.18652C26.5265 2.18652 1.67505 15.0978 1.67505 31.0308C1.67505 46.9639 26.5265 59.8751 57.1644 59.8751C87.8327 59.8751 112.684 46.9639 112.684 31.0308C112.684 15.0978 87.8327 2.18652 57.1948 2.18652Z" fill="#C4C6C8"/>
<path d="M57.1948 2.18652C26.5265 2.18652 1.67505 15.0978 1.67505 31.0308C1.67505 46.9639 26.5265 59.8751 57.1644 59.8751C87.8023 59.8751 112.654 46.9639 112.654 31.0308C112.684 15.0978 87.8327 2.18652 57.1948 2.18652Z" fill="#C5C6C8"/>
<path d="M57.1946 2.18652C26.5567 2.18652 1.70532 15.0978 1.70532 31.0308C1.70532 46.9639 26.5567 59.8751 57.1946 59.8751C87.8326 59.8751 112.684 46.9639 112.684 31.0308C112.684 15.0978 87.8326 2.18652 57.1946 2.18652Z" fill="#C5C7C9"/>
<path d="M57.1946 2.18652C26.5567 2.18652 1.70532 15.0978 1.70532 31.0308C1.70532 46.9639 26.5567 59.8751 57.1946 59.8751C87.8326 59.8751 112.684 46.9639 112.684 31.0308C112.684 15.0978 87.8326 2.18652 57.1946 2.18652Z" fill="#C5C7C9"/>
<path d="M57.1946 2.2168C26.5567 2.2168 1.70532 15.1281 1.70532 31.0611C1.70532 46.9942 26.5567 59.9054 57.1946 59.9054C87.8326 59.9054 112.684 46.9942 112.684 31.0611C112.684 15.0975 87.8326 2.2168 57.1946 2.2168Z" fill="#C7C9CB"/>
<path d="M57.1945 2.2168C26.5566 2.2168 1.7356 15.1281 1.7356 31.0306C1.7356 46.9331 26.587 59.8444 57.1945 59.8444C87.8324 59.8444 112.684 46.9331 112.684 31.0306C112.653 15.0975 87.8324 2.2168 57.1945 2.2168Z" fill="#C8CACC"/>
<path d="M57.1945 2.2168C26.5566 2.2168 1.7356 15.1281 1.7356 31.0306C1.7356 46.9331 26.5566 59.8444 57.1945 59.8444C87.8324 59.8444 112.653 46.9331 112.653 31.0306C112.653 15.1281 87.8324 2.2168 57.1945 2.2168Z" fill="#C9CBCC"/>
<path d="M57.1945 2.2168C26.5566 2.2168 1.7356 15.1281 1.7356 31.0306C1.7356 46.9331 26.5566 59.8444 57.1945 59.8444C87.8324 59.8444 112.653 46.9331 112.653 31.0306C112.653 15.1281 87.8019 2.2168 57.1945 2.2168Z" fill="#CACBCD"/>
<path d="M57.1945 2.2168C26.5566 2.2168 1.7356 15.1281 1.7356 31.0306C1.7356 46.9331 26.5566 59.8444 57.1945 59.8444C87.8324 59.8444 112.653 46.9331 112.653 31.0306C112.653 15.1281 87.8019 2.2168 57.1945 2.2168Z" fill="#CBCCCE"/>
<path d="M57.1945 2.24707C26.587 2.24707 1.7356 15.1278 1.7356 31.0609C1.7356 46.9634 26.5566 59.8746 57.1945 59.8746C87.8019 59.8746 112.653 46.9634 112.653 31.0609C112.653 15.1278 87.8019 2.24707 57.1945 2.24707Z" fill="#CBCDCF"/>
<path d="M57.195 2.24707C26.5876 2.24707 1.7666 15.1278 1.7666 31.0303C1.7666 46.9328 26.5876 59.8136 57.195 59.8136C87.8025 59.8136 112.654 46.9328 112.654 31.0303C112.623 15.1278 87.8025 2.24707 57.195 2.24707Z" fill="#CCCED0"/>
<path d="M57.195 2.24707C26.5876 2.24707 1.7666 15.1278 1.7666 31.0303C1.7666 46.9328 26.5876 59.8136 57.195 59.8136C87.8025 59.8136 112.623 46.9328 112.623 31.0303C112.623 15.1278 87.8025 2.24707 57.195 2.24707Z" fill="#CDCFD0"/>
<path d="M57.195 2.24707C26.5876 2.24707 1.7666 15.1278 1.7666 31.0303C1.7666 46.9328 26.5876 59.8136 57.195 59.8136C87.8025 59.8136 112.623 46.9328 112.623 31.0303C112.623 15.1278 87.8025 2.24707 57.195 2.24707Z" fill="#CECFD1"/>
<path d="M57.195 2.24707C26.5876 2.24707 1.7666 15.1278 1.7666 31.0303C1.7666 46.9328 26.5876 59.8136 57.195 59.8136C87.8025 59.8136 112.623 46.9328 112.623 31.0303C112.623 15.1278 87.8025 2.24707 57.195 2.24707Z" fill="#CFD0D2"/>
<path d="M57.195 2.27832C26.5876 2.27832 1.7666 15.1591 1.7666 31.0616C1.7666 46.9641 26.5876 59.8448 57.195 59.8448C87.8025 59.8448 112.623 46.9641 112.623 31.0616C112.623 15.1591 87.8025 2.27832 57.195 2.27832Z" fill="#CFD0D2"/>
<path d="M57.1948 2.27832C26.5874 2.27832 1.79688 15.1591 1.79688 31.0311C1.79688 46.9031 26.6178 59.7838 57.1948 59.7838C87.8023 59.7838 112.623 46.9031 112.623 31.0311C112.623 15.1591 87.8023 2.27832 57.1948 2.27832Z" fill="#D0D1D3"/>
<path d="M57.1948 2.27832C26.5874 2.27832 1.79688 15.1591 1.79688 31.0311C1.79688 46.9031 26.6178 59.7838 57.1948 59.7838C87.8023 59.7838 112.593 46.9031 112.593 31.0311C112.593 15.1591 87.8023 2.27832 57.1948 2.27832Z" fill="#D0D2D3"/>
<path d="M57.1948 2.27832C26.5874 2.27832 1.79688 15.1591 1.79688 31.0311C1.79688 46.9031 26.5874 59.7838 57.1948 59.7838C87.8023 59.7838 112.593 46.9031 112.593 31.0311C112.593 15.1591 87.8023 2.27832 57.1948 2.27832Z" fill="#D2D3D5"/>
<path d="M57.1948 2.27832C26.6178 2.27832 1.79688 15.1591 1.79688 31.0311C1.79688 46.9031 26.5874 59.7838 57.1948 59.7838C87.7718 59.7838 112.593 46.9031 112.593 31.0311C112.593 15.1591 87.8023 2.27832 57.1948 2.27832Z" fill="#D3D4D6"/>
<path d="M57.1948 2.27832C26.6178 2.27832 1.79688 15.1591 1.79688 31.0311C1.79688 46.9031 26.5874 59.7838 57.1948 59.7838C87.7718 59.7838 112.593 46.9031 112.593 31.0311C112.593 15.1591 87.7718 2.27832 57.1948 2.27832Z" fill="#D4D5D7"/>
<path d="M57.1944 2.30859C26.6174 2.30859 1.8269 15.1588 1.8269 31.0308C1.8269 46.9028 26.6174 59.7836 57.1944 59.7836C87.7714 59.7836 112.592 46.9028 112.592 31.0308C112.592 15.1588 87.7714 2.30859 57.1944 2.30859Z" fill="#D5D6D7"/>
<path d="M57.1944 2.30859C26.6174 2.30859 1.8269 15.1588 1.8269 31.0308C1.8269 46.9028 26.6174 59.753 57.1944 59.753C87.7714 59.753 112.562 46.8723 112.562 31.0308C112.562 15.1588 87.7714 2.30859 57.1944 2.30859Z" fill="#D5D7D8"/>
<path d="M57.1944 2.30859C26.6174 2.30859 1.8269 15.1588 1.8269 31.0308C1.8269 46.9028 26.6174 59.753 57.1944 59.753C87.7714 59.753 112.562 46.9028 112.562 31.0308C112.562 15.1588 87.7714 2.30859 57.1944 2.30859Z" fill="#D6D7D9"/>
<path d="M57.1944 2.30859C26.6174 2.30859 1.8269 15.1588 1.8269 31.0308C1.8269 46.9028 26.6174 59.753 57.1944 59.753C87.7714 59.753 112.562 46.9028 112.562 31.0308C112.562 15.1893 87.7714 2.30859 57.1944 2.30859Z" fill="#D7D8DA"/>
<path d="M57.1944 2.33887C26.6174 2.33887 1.8269 15.1891 1.8269 31.0611C1.8269 46.9331 26.6174 59.7833 57.1944 59.7833C87.7714 59.7833 112.562 46.9331 112.562 31.0611C112.562 15.1891 87.7714 2.33887 57.1944 2.33887Z" fill="#D8D9DB"/>
<path d="M57.195 2.33887C26.618 2.33887 1.85791 15.1891 1.85791 31.0611C1.85791 46.9026 26.6484 59.7833 57.195 59.7833C87.772 59.7833 112.562 46.9331 112.562 31.0611C112.562 15.1891 87.772 2.33887 57.195 2.33887Z" fill="#D8D9DB"/>
<path d="M57.195 2.33887C26.618 2.33887 1.85791 15.1891 1.85791 31.0306C1.85791 46.872 26.6484 59.7223 57.195 59.7223C87.772 59.7223 112.532 46.872 112.532 31.0306C112.562 15.1891 87.772 2.33887 57.195 2.33887Z" fill="#D9DADB"/>
<path d="M57.195 2.33887C26.6484 2.33887 1.85791 15.1891 1.85791 31.0306C1.85791 46.872 26.6484 59.7223 57.195 59.7223C87.7719 59.7223 112.532 46.872 112.532 31.0306C112.532 15.1891 87.7719 2.33887 57.195 2.33887Z" fill="#D9DBDC"/>
<path d="M57.195 2.33887C26.6484 2.33887 1.85791 15.1891 1.85791 31.0306C1.85791 46.872 26.618 59.7223 57.195 59.7223C87.7415 59.7223 112.532 46.872 112.532 31.0306C112.532 15.1891 87.7719 2.33887 57.195 2.33887Z" fill="#DADCDD"/>
<path d="M57.195 2.33887C26.6484 2.33887 1.85791 15.1891 1.85791 31.0306C1.85791 46.872 26.618 59.7223 57.195 59.7223C87.7415 59.7223 112.532 46.872 112.532 31.0306C112.532 15.1891 87.7719 2.33887 57.195 2.33887Z" fill="#DBDCDE"/>
<path d="M57.1948 2.36963C26.6482 2.36963 1.88818 15.2198 1.88818 31.0613C1.88818 46.9028 26.6482 59.753 57.1948 59.753C87.7413 59.753 112.532 46.9028 112.532 31.0613C112.532 15.1893 87.7413 2.36963 57.1948 2.36963Z" fill="#DDDEDF"/>
<path d="M57.1948 2.36963C26.6482 2.36963 1.88818 15.2198 1.88818 31.0308C1.88818 46.8723 26.6482 59.692 57.1948 59.692C87.7413 59.692 112.501 46.8418 112.501 31.0308C112.532 15.1893 87.7413 2.36963 57.1948 2.36963Z" fill="#DEDFE0"/>
<path d="M57.1948 2.36963C26.6482 2.36963 1.88818 15.1893 1.88818 31.0308C1.88818 46.8723 26.6482 59.692 57.1948 59.692C87.7413 59.692 112.501 46.8418 112.501 31.0308C112.501 15.2198 87.7413 2.36963 57.1948 2.36963Z" fill="#DEE0E1"/>
<path d="M57.1948 2.36963C26.6482 2.36963 1.88818 15.1893 1.88818 31.0308C1.88818 46.8723 26.6482 59.692 57.1948 59.692C87.7413 59.692 112.501 46.8723 112.501 31.0308C112.501 15.2198 87.7413 2.36963 57.1948 2.36963Z" fill="#DFE0E2"/>
<path d="M57.1948 2.36963C26.6482 2.36963 1.88818 15.1893 1.88818 31.0308C1.88818 46.8418 26.6482 59.692 57.1948 59.692C87.7413 59.692 112.501 46.8723 112.501 31.0308C112.501 15.2198 87.7413 2.36963 57.1948 2.36963Z" fill="#E0E1E2"/>
<path d="M57.1946 2.3999C26.6481 2.3999 1.91846 15.2196 1.91846 31.0611C1.91846 46.872 26.6785 59.7222 57.1946 59.7222C87.7411 59.7222 112.501 46.9025 112.501 31.0611C112.501 15.2196 87.7411 2.3999 57.1946 2.3999Z" fill="#E1E2E3"/>
<path d="M57.1946 2.3999C26.6785 2.3999 1.91846 15.2196 1.91846 31.0306C1.91846 46.8415 26.6785 59.6612 57.1946 59.6612C87.7107 59.6612 112.471 46.8415 112.471 31.0306C112.501 15.2196 87.7411 2.3999 57.1946 2.3999Z" fill="#E1E2E3"/>
<path d="M57.1946 2.3999C26.6785 2.3999 1.91846 15.2196 1.91846 31.0306C1.91846 46.8415 26.6785 59.6612 57.1946 59.6612C87.7107 59.6612 112.471 46.8415 112.471 31.0306C112.501 15.2196 87.7411 2.3999 57.1946 2.3999Z" fill="#E2E3E4"/>
<path d="M57.1946 2.3999C26.6785 2.3999 1.91846 15.2196 1.91846 31.0306C1.91846 46.8415 26.6785 59.6612 57.1946 59.6612C87.7107 59.6612 112.471 46.8415 112.471 31.0306C112.471 15.2196 87.7411 2.3999 57.1946 2.3999Z" fill="#E3E4E5"/>
<path d="M57.1946 2.3999C26.6785 2.3999 1.91846 15.2196 1.91846 31.0306C1.91846 46.8415 26.6481 59.6612 57.1946 59.6612C87.7107 59.6612 112.471 46.8415 112.471 31.0306C112.471 15.2196 87.7411 2.3999 57.1946 2.3999Z" fill="#E3E4E5"/>
<path d="M57.1949 2.43018C26.6788 2.43018 1.94922 15.2499 1.94922 31.0608C1.94922 46.8718 26.6788 59.6915 57.1949 59.6915C87.711 59.6915 112.471 46.8718 112.471 31.0608C112.471 15.2193 87.7414 2.43018 57.1949 2.43018Z" fill="#E4E5E6"/>
<path d="M57.1949 2.43018C26.6788 2.43018 1.94922 15.2499 1.94922 31.0608C1.94922 46.8718 26.6788 59.6915 57.1949 59.6915C87.711 59.6915 112.441 46.8718 112.441 31.0608C112.471 15.2499 87.711 2.43018 57.1949 2.43018Z" fill="#E5E6E7"/>
<path d="M57.1949 2.43018C26.6788 2.43018 1.94922 15.2499 1.94922 31.0303C1.94922 46.8413 26.6788 59.6304 57.1949 59.6304C87.711 59.6304 112.441 46.8107 112.441 31.0303C112.471 15.2499 87.711 2.43018 57.1949 2.43018Z" fill="#E7E8E9"/>
<mask id="mask0_2_815" style="mask-type:luminance" maskUnits="userSpaceOnUse" x="2" y="3" width="110" height="56">
<path d="M2.98413 30.9998C2.98413 46.0782 27.2264 58.3179 57.103 58.3179C87.0099 58.3179 111.252 46.0782 111.252 30.9998C111.252 15.9214 87.0099 3.68164 57.103 3.68164C27.196 3.68164 2.98413 15.9214 2.98413 30.9998Z" fill="white"/>
</mask>
<g mask="url(#mask0_2_815)">
<path d="M91.8824 -37.8604L132.114 48.5505L22.2924 99.8598L-17.9084 13.4489L91.8824 -37.8604Z" fill="url(#paint0_linear_2_815)"/>
</g>
<path d="M57.1036 55.9073C28.9326 55.9073 6.03027 44.858 6.03027 31.2752C6.03027 17.6924 28.9326 6.64307 57.1036 6.64307C85.2746 6.64307 108.177 17.6924 108.177 31.2752C108.177 44.8274 85.2746 55.9073 57.1036 55.9073ZM57.1036 7.31457C29.3285 7.31457 6.73074 18.0587 6.73074 31.2447C6.73074 44.4612 29.3285 55.1748 57.1036 55.1748C84.8787 55.1748 107.476 44.4306 107.476 31.2447C107.476 18.0587 84.8787 7.31457 57.1036 7.31457Z" fill="#004E25"/>
<path d="M57.1033 57.2194C28.0186 57.2194 4.35498 45.468 4.35498 31.0611C4.35498 16.6237 28.0186 4.90283 57.1033 4.90283C86.188 4.90283 109.852 16.6542 109.852 31.0611C109.852 45.468 86.188 57.2194 57.1033 57.2194ZM57.1033 6.1848C28.7496 6.1848 5.66455 17.3257 5.66455 31.0306C5.66455 44.7355 28.7496 55.8764 57.1033 55.8764C85.4571 55.8764 108.542 44.7355 108.542 31.0306C108.542 17.3257 85.4571 6.1848 57.1033 6.1848Z" fill="#F5F0CC"/>
<mask id="mask1_2_815" style="mask-type:luminance" maskUnits="userSpaceOnUse" x="78" y="20" width="12" height="7">
<path d="M80.6451 20.3174L79.6096 23.4002H85.122L78.8178 25.6894L78.4219 26.9409L88.0762 23.6139L89.1421 20.3174H80.6451Z" fill="white"/>
</mask>
<g mask="url(#mask1_2_815)">
<path d="M87.2235 16.1973L91.7005 25.7815L80.3407 31.0925L75.8638 21.5083L87.2235 16.1973Z" fill="url(#paint1_linear_2_815)"/>
</g>
<mask id="mask2_2_815" style="mask-type:luminance" maskUnits="userSpaceOnUse" x="26" y="14" width="10" height="15">
<path d="M30.8206 14.9751C31.4297 15.2803 30.8815 16.4402 30.8815 16.4402C30.8815 16.4402 27.0442 27.6422 26.7701 28.1916C26.496 28.741 26.3132 28.8326 26.3132 28.8326H34.597L35.7543 25.5361C35.6325 25.8413 34.8711 25.7497 34.8711 25.7497H31.3993C31.3993 25.7497 34.597 16.776 34.8711 16.1045C35.2366 15.1277 35.5107 15.0056 35.5716 14.9751H30.8206ZM35.5716 14.9751C35.6021 14.9751 35.6021 14.9751 35.5716 14.9751C35.5716 14.9751 35.6021 14.9751 35.5716 14.9751Z" fill="white"/>
</mask>
<g mask="url(#mask2_2_815)">
<path d="M34.0792 11.3433L41.0534 26.3606L27.9881 32.4652L21.0139 17.4479L34.0792 11.3433Z" fill="url(#paint2_linear_2_815)"/>
</g>
<mask id="mask3_2_815" style="mask-type:luminance" maskUnits="userSpaceOnUse" x="49" y="15" width="17" height="14">
<path d="M61.276 15.7999C61.1541 16.1662 58.9918 22.1487 58.9918 22.1487L58.1695 15.0063H54.119C54.119 15.0063 54.3322 15.3726 54.1799 15.7389C54.0581 16.0441 49.8857 28.0702 49.8857 28.0702C49.8857 28.0702 49.6116 28.8333 49.3984 28.8333H53.2967C53.2967 28.8333 53.0226 28.406 53.2053 27.9787C53.4185 27.3377 55.5199 21.4467 55.5199 21.4467L56.4336 28.8638H59.9664L64.5956 15.6779C64.5956 15.6779 64.7783 15.0674 65.0524 15.0674H61.3064C61.3064 15.0063 61.3978 15.4642 61.276 15.7999Z" fill="white"/>
</mask>
<g mask="url(#mask3_2_815)">
<path d="M62.2502 8.99365L70.3513 26.3613L52.2 34.8162L44.1294 17.4791L62.2502 8.99365Z" fill="url(#paint3_linear_2_815)"/>
</g>
<mask id="mask4_2_815" style="mask-type:luminance" maskUnits="userSpaceOnUse" x="62" y="15" width="15" height="14">
<path d="M70.4426 17.9976H71.4477C71.4477 17.9976 74.0364 17.845 72.1786 22.5761C71.0518 25.4758 69.3767 25.6589 68.4631 25.6589C67.854 25.6589 67.854 25.6589 67.854 25.6589L70.4426 17.9976ZM71.7218 15.0063H67.2753C67.2753 15.0063 67.6103 15.5558 67.1839 16.8683C66.7576 18.1502 63.3466 27.7955 63.3466 27.7955C63.3466 27.7955 63.0725 28.7112 62.707 28.8638H68.0367C68.0367 28.8638 74.5236 29.108 76.5337 21.9961C76.5337 21.9961 79.031 15.0369 71.8436 15.0369C71.7827 15.0063 71.7522 15.0063 71.7218 15.0063Z" fill="white"/>
</mask>
<g mask="url(#mask4_2_815)">
<path d="M76.1377 8.74902L84.4215 26.605L65.6307 35.3651L57.3164 17.5397L76.1377 8.74902Z" fill="url(#paint4_linear_2_815)"/>
</g>
<mask id="mask5_2_815" style="mask-type:luminance" maskUnits="userSpaceOnUse" x="20" y="33" width="12" height="8">
<path d="M21.4402 36.6776L20.3743 40.0046H28.9017L29.9372 36.8913H24.4248L30.6986 34.602L31.1249 33.3506L21.4402 36.6776Z" fill="white"/>
</mask>
<g mask="url(#mask5_2_815)">
<path d="M29.206 29.2305L33.6524 38.8147L22.2926 44.1257L17.8462 34.5415L29.206 29.2305Z" fill="url(#paint5_linear_2_815)"/>
</g>
<mask id="mask6_2_815" style="mask-type:luminance" maskUnits="userSpaceOnUse" x="30" y="31" width="15" height="15">
<path d="M38.6173 35.0594C38.6173 35.0594 39.1046 35.0594 39.531 35.0594C41.5106 35.0594 40.8101 36.6466 40.8101 36.6466C40.201 38.0202 38.5564 37.8675 38.5564 37.8675H37.7037L38.6173 35.0594ZM40.8101 31.8545H35.2977C35.6936 32.3123 35.3891 33.3196 35.3891 33.3196C35.3891 33.3196 31.9476 43.5753 31.704 44.3689C31.4299 45.1625 30.9426 45.712 30.9426 45.712H35.2977C35.1759 45.712 35.1759 45.2541 35.1759 45.2541L36.7291 40.9198C36.7291 40.9198 38.6782 44.9184 38.8001 45.1931C38.9219 45.4678 38.861 45.712 38.861 45.712H43.5206C43.0638 45.712 42.607 44.8268 42.607 44.8268L40.2924 40.462C43.5815 40.462 44.617 37.1045 44.617 37.1045C46.1398 32.0071 41.3278 31.885 40.871 31.885C40.8406 31.8545 40.8101 31.8545 40.8101 31.8545Z" fill="white"/>
</mask>
<g mask="url(#mask6_2_815)">
<path d="M43.4291 26.0249L51.4388 43.2399L33.653 51.5727L25.6433 34.3577L43.4291 26.0249Z" fill="url(#paint6_linear_2_815)"/>
</g>
<mask id="mask7_2_815" style="mask-type:luminance" maskUnits="userSpaceOnUse" x="79" y="31" width="15" height="15">
<path d="M83.5998 45.7737C83.5693 45.7737 83.5693 45.7737 83.5998 45.7737V45.7737ZM86.828 35.1517H88.0462C88.0462 35.1517 89.5081 35.1212 88.9294 36.7084C88.4421 38.0514 86.7976 37.9293 86.7976 37.9293H85.9448L86.828 35.1517ZM89.0512 31.9163H83.5693C83.9652 32.3741 83.6607 33.3509 83.6607 33.3509C83.6607 33.3509 80.0974 43.6677 79.8233 44.4613C79.5492 45.2549 79.0315 45.7737 79.0315 45.7737H83.5693C83.2648 45.7737 83.478 44.9191 83.478 44.9191L84.8789 40.9511C84.8789 40.9511 86.7671 44.9496 86.8889 45.2243C87.0107 45.499 86.9498 45.7432 86.9498 45.7432H91.7922C91.3354 45.7432 90.8481 44.858 90.8481 44.858L88.5335 40.4933C91.7922 40.4933 92.7668 37.2273 92.7668 37.2273C94.32 32.0994 89.9344 31.8857 89.1426 31.8857C89.0817 31.9163 89.0512 31.9163 89.0512 31.9163Z" fill="white"/>
</mask>
<g mask="url(#mask7_2_815)">
<path d="M91.6094 26.0562L99.6191 43.3017L81.7723 51.665L73.7322 34.389L91.6094 26.0562Z" fill="url(#paint7_linear_2_815)"/>
</g>
<mask id="mask8_2_815" style="mask-type:luminance" maskUnits="userSpaceOnUse" x="45" y="31" width="14" height="16">
<path d="M50.6773 42.7826C49.0327 42.4773 49.3372 39.8218 49.5809 38.6009C50.1595 35.9149 51.5909 34.6329 52.6568 34.755C53.0223 34.7855 54.941 34.8465 53.875 39.2113C53.2659 41.8058 52.1086 42.8131 51.0123 42.8131C50.9209 42.8436 50.7991 42.8131 50.6773 42.7826ZM45.4999 39.1198C44.8299 42.9962 46.9313 46.079 50.3727 46.079C55.1846 46.079 58.0474 41.1343 58.0474 37.5631C58.0474 33.8393 56.5856 31.5195 53.2355 31.5195C49.0022 31.5195 46.2308 34.9076 45.4999 39.1198Z" fill="white"/>
</mask>
<g mask="url(#mask8_2_815)">
<path d="M55.7027 26.4531L63.621 43.485L47.2057 51.1463L39.2874 34.1144L55.7027 26.4531Z" fill="url(#paint8_linear_2_815)"/>
</g>
<mask id="mask9_2_815" style="mask-type:luminance" maskUnits="userSpaceOnUse" x="59" y="31" width="15" height="15">
<path d="M59.2046 31.9163C59.2046 31.9163 59.5396 32.0994 59.5396 32.9846V44.9801C59.5396 44.9801 59.4787 45.6516 59.2655 45.7737H62.8592C62.8592 45.7737 62.8592 45.499 63.2247 45.0107C63.5901 44.5528 71.0212 34.0834 71.0212 34.0834C71.0212 34.0834 72.7267 31.8857 73.1531 31.8857H68.0366C68.0366 31.8857 68.4325 32.1605 68.128 32.6793C67.8234 33.1982 63.2551 40.3406 63.2551 40.3406L63.316 33.1372C63.316 33.1372 63.316 31.9773 63.7424 31.8857L59.2046 31.9163Z" fill="white"/>
</mask>
<g mask="url(#mask9_2_815)">
<path d="M70.6556 26.5747L78.4217 43.3013L61.7018 51.1153L53.9053 34.3886L70.6556 26.5747Z" fill="url(#paint9_linear_2_815)"/>
</g>
<mask id="mask10_2_815" style="mask-type:luminance" maskUnits="userSpaceOnUse" x="68" y="31" width="14" height="15">
<path d="M73.3363 31.916C73.3363 31.916 73.6409 32.1907 73.245 33.3811C72.849 34.541 69.3163 44.4915 69.3163 44.4915C69.3163 44.4915 68.6767 45.804 68.5244 45.804H77.4782L78.5442 42.5075C78.5442 42.5075 78.4223 42.6907 77.5696 42.6907H73.7932L74.585 40.4625H77.5087C77.5087 40.4625 78.1178 40.4014 78.2701 40.5846L79.4578 37.0439C79.4274 37.0744 79.3055 37.3491 78.5746 37.3491H75.7118L76.5646 34.8768H80.1583C80.1583 34.8768 80.6456 34.8157 80.8283 35.2125L81.9856 31.9465L73.3363 31.916Z" fill="white"/>
</mask>
<g mask="url(#mask10_2_815)">
<path d="M79.61 26.7271L87.3151 43.3011L70.9303 50.9624L63.2251 34.3883L79.61 26.7271Z" fill="url(#paint10_linear_2_815)"/>
</g>
<mask id="mask11_2_815" style="mask-type:luminance" maskUnits="userSpaceOnUse" x="35" y="14" width="14" height="15">
<path d="M44.8905 19.7062L44.921 23.7657H42.515L44.8905 19.7062ZM44.1291 15.0056C44.1291 15.0056 44.4337 15.4024 43.855 16.2571C43.2764 17.1422 36.0585 28.3747 36.0585 28.3747C36.0585 28.3747 35.9062 28.6494 35.5408 28.8326H39.835C39.835 28.8326 39.835 28.4968 39.9263 28.2526C40.1395 27.8558 40.6572 26.8791 40.6572 26.8791H44.9819V28.1C44.9819 28.1 45.0123 28.5273 44.6773 28.8326H48.941C48.941 28.8326 48.6365 28.6494 48.5756 28.1L48.0274 15.9213C48.0274 15.9213 47.9969 15.1277 48.3624 14.9751H44.1291V15.0056Z" fill="white"/>
</mask>
<g mask="url(#mask11_2_815)">
<path d="M46.5652 9.84717L54.2704 26.3602L37.9464 33.9909L30.2717 17.4779L46.5652 9.84717Z" fill="url(#paint11_linear_2_815)"/>
</g>
<path d="M88.35 19.4316H79.8531L78.8176 22.545H84.33L78.0257 24.8342L77.5994 26.0857L87.2841 22.7587L88.35 19.4316Z" fill="#F5F0CC"/>
<path d="M34.9621 24.6512L33.8048 27.9782H25.521C25.521 27.9782 25.7037 27.9171 25.9778 27.3372C26.2519 26.7878 30.0893 15.5858 30.0893 15.5858C30.0893 15.5858 30.607 14.4259 30.0284 14.1207H34.8098C34.8098 14.1207 34.5357 14.0291 34.0789 15.2501C33.8048 15.9216 30.607 24.8953 30.607 24.8953H34.0789C34.0789 24.8953 34.8707 24.9564 34.9621 24.6512Z" fill="#F5F0CC"/>
<path d="M48.6372 27.948H52.5355C52.5355 27.948 52.2614 27.5207 52.4441 27.0934C52.6573 26.4524 54.7587 20.5615 54.7587 20.5615L55.6724 27.9786H59.2052L63.8343 14.7926C63.8343 14.7926 64.0171 14.1821 64.2912 14.1821H60.5452C60.5452 14.1821 60.667 14.64 60.5147 14.9757C60.3929 15.342 58.2306 21.3245 58.2306 21.3245L57.4083 14.1821H53.3578C53.3578 14.1821 53.5709 14.5484 53.4187 14.9147C53.2968 15.2199 49.1245 27.246 49.1245 27.246C49.1245 27.246 48.8504 27.948 48.6372 27.948Z" fill="#F5F0CC"/>
<path d="M70.93 14.1518H66.4836C66.4836 14.1518 66.8186 14.7012 66.3922 16.0137C65.9658 17.2956 62.5548 26.9409 62.5548 26.9409C62.5548 26.9409 62.2807 27.8566 61.9153 28.0092H67.2449C67.2449 28.0092 73.7319 28.2534 75.7419 21.1415C75.7419 21.111 78.2697 14.0602 70.93 14.1518ZM71.3868 21.691C70.26 24.5907 68.585 24.7738 67.6713 24.7738C67.0622 24.7738 67.0622 24.7738 67.0622 24.7738L69.6814 17.082H70.6864C70.6559 17.1125 73.2446 16.9599 71.3868 21.691Z" fill="#F5F0CC"/>
<path d="M19.5828 39.1194H28.1102L29.1152 36.006H23.6333L29.9071 33.7473L30.3334 32.4653L20.6487 35.7924L19.5828 39.1194Z" fill="#F5F0CC"/>
<path d="M43.8245 36.2199C45.4386 30.8478 40.0176 31.0004 40.0176 31.0004H34.5052C34.9012 31.4583 34.5966 32.4655 34.5966 32.4655C34.5966 32.4655 31.1552 42.7213 30.9115 43.5149C30.6374 44.3085 30.1501 44.8579 30.1501 44.8579H34.5052C34.3834 44.8579 34.3834 44.4001 34.3834 44.4001L35.9366 40.0658C35.9366 40.0658 37.8858 44.0643 38.038 44.3695C38.1599 44.6443 38.0989 44.8884 38.0989 44.8884H42.7586C42.3018 44.8884 41.8449 44.0033 41.8449 44.0033L39.5303 39.6385C42.7586 39.6079 43.8245 36.2199 43.8245 36.2199ZM40.0176 35.762C39.4085 37.1356 37.7639 36.983 37.7639 36.983H36.9112L37.8248 34.2054C37.8248 34.2054 38.3121 34.2054 38.7385 34.2054C40.7181 34.1748 40.0176 35.762 40.0176 35.762Z" fill="#F5F0CC"/>
<path d="M91.9745 36.4028C93.68 30.7866 88.259 31.0613 88.259 31.0613H82.7771C83.173 31.5191 82.8684 32.4958 82.8684 32.4958C82.8684 32.4958 79.3052 42.8126 79.0311 43.6062C78.757 44.3998 78.2393 44.9187 78.2393 44.9187H82.7771C82.4421 44.9187 82.6857 44.0641 82.6857 44.0641L84.0867 40.0961C84.0867 40.0961 85.9749 44.0946 86.0967 44.3693C86.2185 44.644 86.1576 44.8882 86.1576 44.8882H91C90.5431 44.8882 90.0559 44.003 90.0559 44.003L87.7413 39.6382C91 39.6382 91.9745 36.4028 91.9745 36.4028ZM88.1067 35.8229C87.6194 37.1659 85.9749 37.0438 85.9749 37.0438H85.1221L86.0053 34.2967H87.2235C87.2235 34.2662 88.7158 34.2357 88.1067 35.8229Z" fill="#F5F0CC"/>
<path d="M52.4742 30.6338C48.2105 30.6338 45.439 34.0219 44.7081 38.234C44.0381 42.1105 46.1395 45.1933 49.581 45.1933C54.3929 45.1933 57.2557 40.2486 57.2557 36.6774C57.2557 32.9535 55.7938 30.6338 52.4742 30.6338ZM53.1137 38.3561C52.4133 41.2558 51.1037 42.141 49.916 41.9273C48.2714 41.6221 48.5455 38.9666 48.8196 37.7457C49.3982 35.0596 50.8296 33.7777 51.8955 33.8998C52.2305 33.9303 54.1492 33.9608 53.1137 38.3561Z" fill="#F5F0CC"/>
<path d="M58.4131 31.0618C58.4131 31.0618 58.7481 31.2449 58.7481 32.1301V44.1256C58.7481 44.1256 58.6872 44.7972 58.474 44.9192H62.0677C62.0677 44.9192 62.0677 44.6445 62.4332 44.1562C62.7986 43.6983 70.2297 33.2289 70.2297 33.2289C70.2297 33.2289 71.9352 31.0312 72.3616 31.0312H67.2451C67.2451 31.0312 67.641 31.306 67.3365 31.8248C67.0319 32.3437 62.4636 39.4861 62.4636 39.4861L62.5245 32.2827C62.5245 32.2827 62.5245 31.1228 62.9509 31.0312L58.4131 31.0618Z" fill="#F5F0CC"/>
<path d="M80.0665 34.327L81.2238 31.061H72.5441C72.5441 31.061 72.8486 31.3357 72.4527 32.5261C72.0568 33.686 68.524 43.6365 68.524 43.6365C68.524 43.6365 67.8845 44.949 67.7322 44.949H76.686L77.7519 41.6525C77.7519 41.6525 77.6301 41.8357 76.7774 41.8357H73.0009L73.7928 39.6075H76.7165C76.7165 39.6075 77.3256 39.5465 77.4778 39.7296L78.6656 36.1889C78.6656 36.1889 78.5742 36.5247 77.7824 36.5247H74.9196L75.7723 34.0523H79.3661C79.3965 33.9913 79.8838 33.9302 80.0665 34.327Z" fill="#F5F0CC"/>
<path d="M48.1798 27.9781C48.1798 27.9781 47.8753 27.7949 47.8144 27.2455L47.2662 15.0668C47.2662 15.0668 47.2357 14.2732 47.6012 14.1206H43.3679C43.3679 14.1206 43.6725 14.4869 43.0938 15.3721C42.5152 16.2572 35.2973 27.4897 35.2973 27.4897C35.2973 27.4897 35.145 27.7644 34.7795 27.9476H39.0737C39.0737 27.9476 39.0433 27.6118 39.1651 27.3676C39.3783 26.9708 39.896 25.9941 39.896 25.9941H44.2206V27.215C44.2206 27.215 44.2511 27.6423 43.9161 27.9476H48.1798V27.9781ZM41.7233 22.8807L44.0988 18.8212L44.1293 22.8807H41.7233Z" fill="#F5F0CC"/>
<defs>
<linearGradient id="paint0_linear_2_815" x1="42.8751" y1="0.419676" x2="71.4347" y2="61.5298" gradientUnits="userSpaceOnUse">
<stop stop-color="#008948"/>
<stop offset="0.3764" stop-color="#008948"/>
<stop offset="0.5955" stop-color="#004E25"/>
<stop offset="1"/>
</linearGradient>
<linearGradient id="paint1_linear_2_815" x1="76.1783" y1="7.29103" x2="98.314" y2="54.6556" gradientUnits="userSpaceOnUse">
<stop stop-color="#004E25"/>
<stop offset="1"/>
</linearGradient>
<linearGradient id="paint2_linear_2_815" x1="45.9836" y1="54.0322" x2="88.6645" y2="145.358" gradientUnits="userSpaceOnUse">
<stop stop-color="#004E25"/>
<stop offset="1"/>
</linearGradient>
<linearGradient id="paint3_linear_2_815" x1="58.3907" y1="24.3936" x2="96.4824" y2="105.9" gradientUnits="userSpaceOnUse">
<stop stop-color="#004E25"/>
<stop offset="1"/>
</linearGradient>
<linearGradient id="paint4_linear_2_815" x1="65.6746" y1="10.8792" x2="99.9608" y2="84.2425" gradientUnits="userSpaceOnUse">
<stop stop-color="#004E25"/>
<stop offset="1"/>
</linearGradient>
<linearGradient id="paint5_linear_2_815" x1="33.6317" y1="53.6176" x2="55.7675" y2="100.982" gradientUnits="userSpaceOnUse">
<stop stop-color="#004E25"/>
<stop offset="1"/>
</linearGradient>
<linearGradient id="paint6_linear_2_815" x1="43.7161" y1="49.9313" x2="78.0574" y2="123.413" gradientUnits="userSpaceOnUse">
<stop stop-color="#004E25"/>
<stop offset="1"/>
</linearGradient>
<linearGradient id="paint7_linear_2_815" x1="70.5986" y1="4.27963" x2="104.96" y2="77.8044" gradientUnits="userSpaceOnUse">
<stop stop-color="#004E25"/>
<stop offset="1"/>
</linearGradient>
<linearGradient id="paint8_linear_2_815" x1="51.1165" y1="38.0546" x2="83.7309" y2="107.841" gradientUnits="userSpaceOnUse">
<stop stop-color="#004E25"/>
<stop offset="1"/>
</linearGradient>
<linearGradient id="paint9_linear_2_815" x1="60.1989" y1="26.0187" x2="93.4893" y2="97.2513" gradientUnits="userSpaceOnUse">
<stop stop-color="#004E25"/>
<stop offset="1"/>
</linearGradient>
<linearGradient id="paint10_linear_2_815" x1="62.0911" y1="10.534" x2="103.887" y2="99.9672" gradientUnits="userSpaceOnUse">
<stop stop-color="#004E25"/>
<stop offset="1"/>
</linearGradient>
<linearGradient id="paint11_linear_2_815" x1="49.2941" y1="37.039" x2="85.0631" y2="113.575" gradientUnits="userSpaceOnUse">
<stop stop-color="#004E25"/>
<stop offset="1"/>
</linearGradient>
</defs>
</svg>
