<svg width="135" height="63" viewBox="0 0 135 63" fill="none" xmlns="http://www.w3.org/2000/svg">
<g clip-path="url(#clip0_2_8092)">
<path d="M66.2174 1.27507C62.3622 1.43903 58.7847 2.28199 55.4 3.81745C54.0693 4.42315 52.4435 5.32783 51.1552 6.18236C48.2624 8.10168 45.8266 10.3971 43.7669 13.1459C43.3715 13.6706 43.061 14.1123 42.7486 14.5869L42.4863 14.9881L21.2373 14.9919L-0.00976562 14.9977L0.915949 15.9333C1.42509 16.4483 2.24859 17.2816 2.74809 17.7851C3.24566 18.2885 3.77988 18.8287 3.93416 18.9868L4.21188 19.2704H22.2382H40.2646L40.1682 19.4864C39.553 20.8772 39.0014 22.5593 38.6851 24.0099L38.6427 24.2085L23.9026 24.2124L9.16445 24.2182L10.58 25.6167C11.3592 26.3863 12.3177 27.3335 12.713 27.7231L13.4324 28.431L25.6962 28.433H37.9599L37.9464 28.6008C37.8365 30.0919 37.8365 31.88 37.9464 33.2207L37.9599 33.3711H28.1358H18.3117L18.5334 33.5891C18.6549 33.7068 19.4707 34.5131 20.3463 35.3773C21.2219 36.2414 22.0859 37.094 22.2652 37.2715L22.595 37.5956H30.6217C37.0285 37.5956 38.6504 37.6013 38.6562 37.6187C38.66 37.6322 38.7082 37.8386 38.7622 38.0778C39.0997 39.5766 39.5819 41.0118 40.2415 42.4893L40.2685 42.553H33.9215C29.6767 42.553 27.5765 42.5588 27.5823 42.5723C27.5862 42.5839 28.5254 43.5426 29.6709 44.7038L31.7538 46.816H37.1191H42.4863L42.7794 47.2558C44.8257 50.3248 47.3463 52.9328 50.326 55.0623C52.2005 56.401 54.4049 57.6201 56.4607 58.4535C59.3478 59.6243 62.1886 60.2763 65.4267 60.5097C66.3948 60.5811 68.4699 60.5869 69.4285 60.5232C72.9886 60.286 76.2055 59.5086 79.2931 58.139C80.6778 57.5237 81.7482 56.9566 83.0692 56.1348C85.073 54.8887 86.7046 53.6098 88.3362 52.0049C89.7845 50.5794 91.042 49.0478 92.2107 47.2828L92.5212 46.816H97.8884H103.258L104.959 45.1243C105.894 44.1926 106.854 43.2378 107.093 43.0024L107.527 42.5723H101.148H94.7699L94.8065 42.499C94.9126 42.2907 95.3099 41.3185 95.4738 40.8652C95.8036 39.9624 96.1527 38.7472 96.3648 37.7692L96.4015 37.6052L104.438 37.5956L112.474 37.5859L114.567 35.493C115.718 34.3414 116.659 33.3943 116.659 33.3866C116.659 33.3769 112.243 33.3711 106.845 33.3711H97.0282L97.0379 33.2689C97.061 33.0143 97.1054 32.1462 97.1247 31.5695C97.142 31.0834 97.142 30.7786 97.1247 30.2674C97.1035 29.6386 97.0572 28.7281 97.0379 28.5236L97.0282 28.433H109.327H121.625L123.724 26.3343C124.877 25.1807 125.82 24.2317 125.82 24.222C125.82 24.2143 119.201 24.2085 111.109 24.2085H96.3995L96.3532 24.0002C96.0485 22.594 95.4777 20.8521 94.8875 19.5212C94.8335 19.3996 94.7892 19.2935 94.7892 19.2858C94.7892 19.2781 102.889 19.2704 112.789 19.2704H130.788L131.403 18.6473C131.743 18.3059 132.346 17.6964 132.743 17.2932C133.141 16.89 133.814 16.2091 134.238 15.779L135.01 14.9977L113.759 14.9881L92.5096 14.9784L92.1297 14.4171C91.5993 13.632 91.3004 13.2173 90.7912 12.5672C90.3631 12.0233 89.7189 11.2613 89.3699 10.889C88.477 9.93613 87.8772 9.34779 87.181 8.73824C85.7152 7.45162 84.4405 6.51607 82.8031 5.52266C81.8928 4.97097 81.3335 4.66426 80.3634 4.18781C78.3674 3.2079 76.3115 2.47682 74.2017 1.99651C72.3811 1.58178 70.6801 1.35609 68.7149 1.27314C68.2173 1.25193 66.7304 1.25193 66.2174 1.27507ZM68.6088 5.57474C71.0812 5.67504 73.4977 6.14185 75.8564 6.97517C78.08 7.76218 80.3538 8.93499 82.2824 10.2891C84.1261 11.5854 85.9332 13.281 87.2909 14.9881C88.7065 16.7666 89.8096 18.5933 90.7777 20.7557C91.9194 23.3077 92.606 25.9639 92.8413 28.7416C92.9107 29.5537 92.9262 29.9954 92.9262 30.9503C92.9262 31.8646 92.9146 32.2137 92.851 32.995C92.5617 36.5366 91.5202 39.918 89.7055 43.2127C88.8087 44.8408 87.6959 46.4225 86.506 47.7612C86.2109 48.0949 85.4221 48.9302 85.3083 49.0324C85.2659 49.069 85.1116 49.2156 84.9631 49.3584C83.4685 50.7955 81.4994 52.2055 79.5149 53.2588C76.7474 54.7286 73.9278 55.6526 70.9559 56.0654C69.7717 56.2294 68.7708 56.293 67.442 56.293C66.5568 56.293 66.1846 56.2776 65.3592 56.2101C63.5405 56.0596 61.7913 55.7201 60.0652 55.1781C59.8743 55.1183 59.6757 55.0546 59.6217 55.0392C59.4886 54.9987 58.9544 54.8058 58.561 54.6534C56.0114 53.6735 53.564 52.2769 51.541 50.6469C50.0714 49.4645 48.6674 48.039 47.5469 46.5942C46.3647 45.0684 45.3734 43.4461 44.521 41.6367C42.7293 37.8367 41.9425 33.8669 42.1411 29.6386C42.2838 26.5908 42.9877 23.626 44.2471 20.7653C45.4968 17.9259 47.1303 15.4645 49.1553 13.3697C50.8987 11.568 52.8292 10.0827 55.0606 8.83469C55.8571 8.3891 57.128 7.77568 57.9824 7.42461C60.4104 6.4312 62.8848 5.83515 65.4267 5.63261C66.5105 5.5458 67.4575 5.53037 68.6088 5.57474Z" fill="black"/>
<path d="M47.2307 30.9022V37.5957H48.5518H49.8729L49.8767 32.6518L49.8825 27.7078L50.4032 29.3397C50.6886 30.2367 50.9625 31.0951 51.0126 31.2494C51.0628 31.4037 51.1611 31.7066 51.2286 31.9245C51.4234 32.536 52.0849 34.6097 52.1582 34.8373C52.1949 34.9492 52.3896 35.5606 52.5921 36.1972C52.7946 36.8338 52.9779 37.4086 52.9991 37.4742L53.0396 37.5957H54.5381H56.0366L56.5746 35.8924C56.8697 34.9569 57.1706 34.004 57.2419 33.7764C57.3596 33.4002 57.7125 32.2853 57.9536 31.5195C58.0056 31.3555 58.1484 30.9041 58.2699 30.5164C58.3933 30.1287 58.6382 29.3513 58.8156 28.788L59.1396 27.7618L59.1454 32.6788L59.1493 37.5957H60.4993H61.8493V30.9022V24.2087H59.9053H57.9613L57.6373 25.2349C56.9796 27.3085 56.8543 27.7059 56.6132 28.4621C56.4782 28.8864 56.3394 29.3243 56.3046 29.4362C55.2497 32.7675 54.5882 34.8373 54.5786 34.8373C54.5689 34.8373 53.9576 32.9527 52.6481 28.8864C52.5729 28.653 52.4263 28.1978 52.3221 27.8737C52.1447 27.3278 51.2074 24.4132 51.1631 24.2704L51.1419 24.2087H49.1863H47.2307V30.9022Z" fill="black"/>
<path d="M64.8579 30.9022V37.5957H66.2561H67.6543V30.9022V24.2087H66.2561H64.8579V30.9022Z" fill="black"/>
<path d="M70.6821 30.9022V37.5957H72.0321H73.3821L73.386 32.8099L73.3918 28.0242L73.9684 29.062C74.9751 30.879 77.2798 35.0321 78.0011 36.3322L78.6973 37.5861L80.3308 37.5918L81.9643 37.5957V30.9022V24.2087H80.6336H79.3028V29.0446V33.8824L79.0888 33.4967C78.9731 33.2845 78.8188 33.0067 78.7493 32.8794C78.6799 32.7521 78.5546 32.5264 78.4736 32.3779C78.3926 32.2293 78.2672 32.0036 78.1978 31.8763C78.1283 31.749 77.895 31.3227 77.679 30.9311C77.463 30.5376 76.545 28.8652 75.6386 27.214L73.9896 24.2106L72.3368 24.2087H70.6821V30.9022Z" fill="black"/>
<path d="M85.0115 30.9022V37.5957H86.3904H87.7693V30.9022V24.2087H86.3904H85.0115V30.9022Z" fill="black"/>
</g>
<defs>
<clipPath id="clip0_2_8092">
<rect width="135" height="63" fill="white"/>
</clipPath>
</defs>
</svg>
