<svg width="63" height="66" viewBox="0 0 63 66" fill="none" xmlns="http://www.w3.org/2000/svg">
<path fill-rule="evenodd" clip-rule="evenodd" d="M31.3693 33.3921H13.0379L3.95386 49.3366H22.318L31.3693 33.3921Z" fill="#E30613"/>
<path fill-rule="evenodd" clip-rule="evenodd" d="M40.682 17.023L31.4999 0.915039L22.3179 17.023L31.4999 33.1636L40.682 17.023Z" fill="#E30613"/>
<path fill-rule="evenodd" clip-rule="evenodd" d="M40.6493 49.3366H59.0461L49.962 33.3921H31.6306L40.6493 49.3366Z" fill="#E30613"/>
<path fill-rule="evenodd" clip-rule="evenodd" d="M39.8325 61.8178H41.2049V54.499H39.8325V61.8178Z" fill="black"/>
<path fill-rule="evenodd" clip-rule="evenodd" d="M55.2231 61.8178H56.5956V54.499H55.2231V61.8178Z" fill="black"/>
<path fill-rule="evenodd" clip-rule="evenodd" d="M14.0508 61.8178H15.4232V54.499H14.0508V61.8178Z" fill="black"/>
<path fill-rule="evenodd" clip-rule="evenodd" d="M20.6842 54.499H16.4363V55.7406H17.8414V61.8178H19.2464V55.7406H20.6842V54.499Z" fill="black"/>
<path fill-rule="evenodd" clip-rule="evenodd" d="M52.4782 57.2763H49.4066V54.499H48.0342V61.8178H49.4066V58.5178H52.4782V61.8178H53.8506V54.499H52.4782V57.2763Z" fill="black"/>
<path fill-rule="evenodd" clip-rule="evenodd" d="M9.63943 57.7664L8.33238 54.499H6.76392V61.8178H8.13632V57.2763L9.63943 60.9357L11.0772 57.2436V61.8178H12.4496V54.499H10.9138L9.63943 57.7664Z" fill="black"/>
<path fill-rule="evenodd" clip-rule="evenodd" d="M32.2842 54.499H30.9118V59.7267C30.9118 60.2822 30.2583 60.7723 29.7028 60.7723C29.1473 60.7723 28.4937 60.3149 28.4937 59.7267V54.499H27.1213L27.154 59.6614C27.154 60.9683 28.3957 62.0465 29.7354 62.0465C31.0425 62.0465 32.3169 60.9683 32.3169 59.6614L32.2842 54.499Z" fill="black"/>
<path fill-rule="evenodd" clip-rule="evenodd" d="M37.5779 57.8644C37.7739 57.7337 38.4928 57.3089 38.4928 56.3941C38.4928 55.1198 37.4798 54.5317 36.7936 54.499H33.624V61.8178H36.4342C37.5452 61.8178 38.7542 61.2951 38.7542 59.8574C38.7542 58.6485 38.166 58.1911 37.5779 57.8644ZM36.4995 60.5762H34.9964V55.7406H36.4342C36.8263 55.7406 37.1204 56.0673 37.1204 56.4594C37.1204 56.8515 36.957 57.3089 36.4669 57.3089H35.8787V58.5505H36.5322C36.9243 58.5505 37.4472 58.9099 37.4472 59.6614C37.3818 60.2822 36.859 60.5762 36.4995 60.5762Z" fill="black"/>
<path fill-rule="evenodd" clip-rule="evenodd" d="M21.207 59.4324C21.207 59.4978 21.207 59.5958 21.207 59.7265C21.207 61.0008 22.22 61.9483 23.4944 61.9483C24.7688 61.9483 25.7817 61.0988 25.7817 59.8245C25.7817 59.1711 25.5203 58.6483 25.0628 58.2235C24.7034 57.8968 23.6251 57.374 23.233 57.1126C22.8408 56.8839 22.6775 56.6879 22.6448 56.3612C22.6448 55.8711 22.9716 55.5116 23.4944 55.5116C24.0172 55.5116 24.4093 55.9037 24.4093 56.4265C24.4093 56.5572 24.4093 56.6879 24.4093 56.7532H25.6183V56.4265C25.6183 55.2503 24.8668 54.3027 23.4944 54.3027C22.318 54.3027 21.3704 55.1196 21.3704 56.4265C21.3704 57.0146 21.6318 57.5701 22.318 57.9948C23.0369 58.4522 23.9192 58.8116 24.2133 59.1057C24.4093 59.3017 24.5073 59.5305 24.5073 59.8245C24.5073 60.38 24.0499 60.772 23.4944 60.772C22.9389 60.772 22.4814 60.2819 22.4161 59.8245C22.4161 59.6938 22.3507 59.4978 22.3834 59.4324H21.207Z" fill="black"/>
<path fill-rule="evenodd" clip-rule="evenodd" d="M44.3746 57.1453C43.9824 56.9166 43.8191 56.7206 43.7864 56.3939C43.7864 55.9038 44.1132 55.5444 44.636 55.5444C45.1261 55.5444 45.5509 55.9364 45.5509 56.4592C45.5509 56.5899 45.5509 56.7206 45.5509 56.7859H46.7599V56.4592C46.7599 55.283 46.0084 54.3354 44.636 54.3354C43.4596 54.3354 42.512 55.1523 42.512 56.4592C42.512 57.0473 42.7734 57.6028 43.4596 58.0275C44.1785 58.485 45.0608 58.8444 45.3549 59.1384C45.5509 59.3345 45.6489 59.5632 45.6489 59.8572C45.6489 60.4127 45.1915 60.8048 44.636 60.8048C44.0805 60.8048 43.623 60.3147 43.5577 59.8572C43.5577 59.7265 43.4923 59.5305 43.525 59.4652H42.3486C42.3486 59.5305 42.3486 59.6285 42.3486 59.7592C42.3486 61.0335 43.3616 61.981 44.636 61.981C45.9104 61.981 46.9233 61.1315 46.9233 59.8572C46.9233 59.2038 46.6619 58.681 46.2044 58.2562C45.845 57.9295 44.7994 57.4067 44.3746 57.1453Z" fill="black"/>
</svg>
