<svg width="95" height="68" viewBox="0 0 95 68" fill="none" xmlns="http://www.w3.org/2000/svg">
<path d="M64.4531 43.3006C63.695 41.0067 60.6308 35.2479 58.2209 32.009C57.7022 31.3063 57.8937 30.9428 58.173 30.7086C58.4523 30.4825 59.346 29.699 60.4073 28.4713C61.4766 27.2355 61.74 25.8301 60.9819 23.8028C60.2318 21.7916 57.7421 17.0182 57.2154 15.4431C56.6169 13.6177 56.5531 12.8101 56.9122 11.8166C57.3431 10.6454 57.9575 10.597 58.4283 10.605C58.6757 10.6131 58.8672 10.8797 58.8672 11.0008C58.8832 11.5177 58.9071 12.1558 59.4019 13.4885C60.1999 15.6128 62.2347 16.9939 62.8731 17.2766C63.32 17.4705 63.3998 17.1232 63.3599 16.9535C63.32 16.7839 62.6577 14.1589 62.1629 12.18C61.6442 10.1123 61.3809 9.66003 60.9181 9.22388C60.1759 8.5131 59.0587 8.13348 58.1091 8.17387C55.9945 8.25464 55.0608 10.3223 54.9411 10.5162C54.8374 10.6858 54.7975 10.807 54.5821 10.6616C53.9756 10.2335 52.212 8.73926 52.0524 7.80233C51.9567 7.2531 51.8609 7.17233 51.3183 6.96232C49.1957 6.12232 47.3603 5.38732 45.3254 5.02385C44.5115 4.87847 44.4636 4.80577 43.514 4.98347C41.8941 5.29039 40.9046 5.67001 39.6917 6.30809C39.0214 6.66348 38.9416 6.90579 38.8139 7.0754C38.7102 7.20463 38.6064 7.36617 38.359 7.44694C37.9521 7.57617 36.4519 8.14156 35.9411 8.44849C35.622 8.64233 35.4464 8.83618 35.606 9.20772C35.8933 9.85388 36.7551 11.2027 37.1301 11.542C37.3616 11.7439 37.9361 11.8893 38.0718 11.9135C38.2074 11.9458 38.3032 11.9862 38.359 11.8812C38.4149 11.7681 38.4388 11.6066 38.7022 11.4127C39.1012 11.13 39.8513 10.9281 40.2503 10.8958C40.5535 10.8716 40.745 10.8635 40.8966 10.9766C41.0562 11.0897 41.4153 11.4854 41.543 11.8731C41.6707 12.2689 41.5909 12.4143 41.3754 12.5031C41.16 12.592 40.5056 12.7454 39.7555 12.802C39.0054 12.8666 38.79 12.6566 38.7341 12.6081C38.6942 12.5677 38.5984 12.5031 38.5186 12.6C38.391 12.7777 38.1994 12.8908 37.9122 13.0443C37.7446 13.1251 37.6568 13.3027 37.8164 13.5854C38.2952 14.4254 38.9256 15.3624 39.5081 15.5401C39.971 15.6855 40.2183 15.532 40.745 15.1524C41.2158 14.8131 41.5191 14.8131 41.6467 14.9101C41.7904 15.0151 42.0697 15.2574 41.9978 15.4997C41.8702 15.9197 41.0323 16.9212 40.8727 17.1312C40.7211 17.3251 40.5774 17.4301 40.3061 17.3008C39.9071 17.107 33.8983 13.957 33.1003 13.6339C32.2225 13.2947 31.648 13.2139 30.7862 13.1735C30.0919 13.1412 29.1583 13.2139 28.5758 13.3189C28.1528 13.3997 27.9134 13.6016 27.5144 13.9731C26.9718 14.482 26.3973 15.1362 26.3414 15.6774C26.3015 16.0651 26.7324 16.8647 26.7803 16.9212C26.8282 16.9778 26.908 17.0908 27.1394 17.0666C27.3788 17.0424 27.9693 16.7274 28.6795 16.8485C29.3259 16.9616 29.3817 17.4705 29.4216 17.8662C29.4216 17.9308 29.5094 18.0843 29.685 18.0843C29.9403 18.0843 30.3393 18.0924 30.8021 18.3105C31.3687 18.5851 32.5018 19.4655 32.6774 19.6674C32.821 19.8289 32.8051 19.9743 32.5417 19.9986C31.1054 20.1278 28.9269 20.5559 27.9214 20.8951C27.2032 21.1293 26.3574 21.4605 26.0621 21.9855C25.727 22.5832 25.296 23.5363 25.1763 24.2147C25.0566 24.8932 25.7669 25.7332 25.9663 25.919C26.094 26.0482 26.1818 26.129 26.4132 25.9997C26.7643 25.7978 27.6102 25.2647 28.4241 25.2163C28.9189 25.184 29.1104 25.6524 29.2301 25.8301C29.3498 25.9997 29.4615 25.8786 29.9004 25.7574C30.6824 25.5474 35.0394 25.6282 36.5795 25.7009C37.2818 25.7332 38.2633 25.8382 38.9815 26.2421C39.6997 26.6378 40.9924 27.8817 40.9924 27.8817C40.9924 27.8817 39.2687 30.8055 38.3431 32.5421C37.4813 34.1413 36.8588 35.3448 36.5476 36.0394C36.2603 36.6775 36.0289 37.5821 36.0848 38.2929C36.1646 39.3348 36.1885 39.8679 36.1726 40.3364C36.1646 40.7483 35.7816 40.7967 35.2389 40.9341C34.4888 41.1279 33.0046 41.2652 31.7996 41.5641C30.6984 41.8387 30.2914 42.1052 30.0919 42.9614C29.9403 43.6318 29.7089 45.2875 29.685 46.0629C29.669 46.3779 29.669 46.5233 30.052 46.4425C30.2755 46.3941 30.9218 46.3052 31.7438 46.2406C32.7652 46.1599 33.8664 46.176 34.7202 46.176C36.2843 46.1679 40.9206 46.4426 41.2318 46.4749C41.6308 46.5152 41.7106 46.4668 41.6787 46.1841C41.6388 45.8125 41.5749 44.6333 41.559 43.9387C41.543 43.236 41.4313 42.5171 42.0617 41.8387C42.6841 41.1521 47.4002 35.8294 47.6635 35.5548C47.8949 35.3206 48.0466 35.0783 48.3977 35.4013C48.7488 35.7325 52.635 38.5675 53.425 39.141C54.215 39.7225 54.9491 39.9164 55.8509 39.9325C56.4892 39.9406 56.6728 41.0794 56.1222 41.1844C55.5636 41.2975 54.7097 41.4671 54.1192 41.6044C53.2015 41.8225 52.9223 42.1294 52.643 42.7514C52.4115 43.2845 52.1482 45.8852 52.1402 46.1033C52.1322 46.2649 52.1243 46.4991 52.3716 46.4425C53.5048 46.2083 55.3002 46.1437 57.2234 46.2083C59.4338 46.2729 61.5724 46.4587 61.8756 46.4829C62.1948 46.5072 62.2267 46.4587 62.3943 46.2002C62.6736 45.756 63.5035 44.7868 64.2217 44.1891C64.5888 43.866 64.6047 43.7448 64.4531 43.3006ZM55.9785 27.5667C55.4199 27.7524 55.0529 27.5909 54.7816 27.3324C54.5102 27.0659 52.2839 24.3601 51.5657 23.5282C51.2066 23.1082 50.9353 22.1551 52.0205 21.7513C52.9143 21.4282 54.5102 20.9032 54.9491 20.6689C55.388 20.4347 55.6274 20.1843 55.6673 19.732C55.6992 19.2716 55.7072 18.7547 55.7072 18.577C55.7072 18.3993 55.9307 18.262 56.0503 18.472C56.1301 18.6174 56.5291 19.4089 57.0159 20.3216C57.7421 21.6947 58.6598 23.407 58.963 24.142C59.2423 24.8447 59.1066 25.3859 58.6757 25.919C58.0932 26.6378 56.3855 27.4294 55.9785 27.5667Z" fill="black"/>
<path d="M58.2688 8.57766C58.2609 8.57766 58.2609 8.57766 58.2449 8.57766C56.5053 8.56958 54.7497 10.605 55.0849 13.65C55.2924 15.5077 55.5717 16.3558 56.1223 17.5592C56.3936 18.1569 59.3541 23.8674 59.4977 24.4731C59.6813 25.3374 59.5217 25.8785 58.8593 26.4843C58.1332 27.1466 56.9362 27.8978 56.1223 28.1805C55.9307 28.2451 55.7552 28.2774 55.5956 28.2774C55.4121 28.2774 54.9572 28.2128 54.0874 27.1305L57.9177 32.3078C57.431 31.6455 57.1756 31.1447 57.2634 30.7086C57.3512 30.2805 58.0454 29.8039 58.8514 29.1659C59.6573 28.5359 60.5431 27.7362 60.9501 26.6539C61.0698 26.347 61.1176 26.0239 61.1176 25.6928C61.1176 24.6589 60.6229 23.4958 60.0324 22.2277C59.2663 20.58 57.0958 17.0019 56.4335 14.4819C56.2739 13.8681 56.2021 13.3108 56.2021 12.8181C56.2021 11.3965 56.8005 10.4919 57.5347 10.185C57.8858 10.0396 58.197 9.99113 58.4604 9.99113C58.8593 9.99113 59.1386 10.1042 59.2583 10.1688C59.4658 10.29 59.4898 10.5323 59.4898 10.7261C59.4898 10.7423 59.4898 10.7504 59.4898 10.7665C59.4898 10.815 59.4818 10.92 59.4818 11.0734C59.4818 11.6631 59.5616 12.9473 60.2319 14.1992C61.0857 15.7904 62.5141 16.6708 63.0727 16.9131C63.1206 16.9373 61.756 11.8165 61.5087 10.8473C61.2533 9.73267 60.4633 8.60189 58.2688 8.57766Z" fill="url(#paint0_linear_2_9745)"/>
<path d="M34.4091 19.9501C34.7443 20.2894 34.1618 20.2732 32.3982 20.4267C30.6027 20.5882 28.7913 20.9517 27.8417 21.3151C27.1475 21.5817 26.7245 21.7675 26.4532 22.4136C26.4532 22.4136 25.8787 23.6817 25.7989 24.1825C25.759 24.4167 25.7749 24.554 25.8946 24.7559C25.9665 24.8609 26.1261 21.4524 30.4751 21.2263C34.3213 21.0244 35.2709 20.6205 34.5129 19.8774L34.4091 19.9501Z" fill="url(#paint1_linear_2_9745)"/>
<path d="M56.4333 12.9553C56.4333 12.9553 56.5131 12.0668 56.6727 11.6468C57.0637 10.508 57.7739 10.2738 58.2686 10.2738C58.6038 10.2738 58.7474 10.3545 58.8911 10.508C59.0028 10.6291 59.0746 10.7422 59.0826 10.9118C59.0985 11.4207 59.1145 12.0022 59.6013 13.3107C59.6332 13.3915 59.6571 13.4722 59.697 13.5449C59.2821 12.4869 59.2342 11.5015 59.2342 10.9926C59.2342 10.8311 59.2422 10.6453 59.2422 10.6453C59.2422 10.2576 58.8272 10.1445 58.4522 10.1445C58.2128 10.1445 57.9335 10.1849 57.6143 10.3222C57.0078 10.5726 56.4492 11.3399 56.4253 12.6484L56.4333 12.9553Z" fill="url(#paint2_linear_2_9745)"/>
<path d="M34.5607 20.0952C34.6884 20.4587 34.1697 20.3699 32.4061 20.5233C30.6107 20.6849 28.7913 21.0322 27.8496 21.3956C27.1554 21.6622 26.7404 21.8479 26.4611 22.4941C26.4611 22.4941 25.8866 23.7622 25.8068 24.2629C25.7669 24.4972 25.8307 24.6345 25.9504 24.8364C26.134 25.1353 26.2537 25.1918 26.525 25.0383C26.7404 24.9091 27.706 24.3599 28.3364 24.3518C28.911 24.3356 29.1663 24.691 29.2461 24.998C29.294 25.1837 29.5493 25.0868 29.5972 25.0787C29.8526 25.0141 30.092 24.9414 30.9937 24.8687C32.063 24.788 36.2285 24.8283 37.7606 24.8606C39.1331 24.893 44.5514 29.198 44.6312 29.2141L44.9026 28.6568C43.0592 27.1141 36.2205 21.6299 34.5687 19.9902L34.5607 20.0952Z" fill="url(#paint3_linear_2_9745)"/>
<path d="M50.1691 23.496C50.991 24.4976 53.4488 27.5183 55.5555 30.2403C58.8352 34.4888 60.8541 37.8165 62.9847 42.7273C63.2002 43.22 63.0326 43.2684 62.6975 43.5431C62.0431 44.0761 62.1788 44.2942 61.7 45.1423C61.6441 45.2392 61.5164 45.4008 61.3648 45.3846C60.9179 45.3523 57.4308 45.0534 55.1405 45.1342C53.776 45.1827 53.4249 45.2796 53.1296 45.3523C52.8902 45.4088 52.8025 45.3846 52.8104 45.0696C52.8184 44.9484 53.0738 43.4946 53.2653 42.9615C53.4648 42.4284 53.768 42.2265 54.2229 42.0973C54.6777 41.968 55.9704 41.7257 56.4971 41.5965C57.0238 41.4673 57.0477 40.9584 56.9998 40.5788C56.952 40.1992 56.6487 39.6823 56.3056 39.6257C55.8507 39.545 55.5395 39.4803 55.0368 39.2542C54.5421 39.028 47.424 33.2288 46.7697 32.6876C46.6021 32.5503 46.4744 32.4453 46.4266 32.5099C46.3707 32.5745 46.5064 32.7442 46.5702 32.8088C46.6899 32.938 47.7672 34.0607 47.9986 34.2868C48.1662 34.4565 48.0784 34.5372 47.9986 34.618C47.8709 34.7311 44.5034 38.0992 43.1069 39.5611C41.7105 41.023 40.705 41.8792 40.721 43.0504C40.7369 44.2215 40.7848 45.1342 40.7848 45.3361C40.7848 45.5138 40.6093 45.5058 40.4576 45.4977C40.0267 45.4573 36.6832 45.1261 34.8079 45.0858C32.9327 45.0534 31.5761 45.2311 30.6903 45.4573C30.4828 45.5058 30.419 45.3846 30.435 45.2069C30.4509 44.9161 30.6584 43.7046 30.9138 42.9211C31.0893 42.38 31.4803 42.17 31.9431 42.0569C32.5496 41.9034 34.9516 41.4673 36.0368 41.2977C36.6273 41.2007 36.747 40.9988 36.739 40.498C36.7311 39.9892 36.6752 38.8988 36.6433 38.3496C36.6193 37.8084 36.7869 37.2026 36.9864 36.718C37.8403 34.6988 39.931 30.4261 41.7504 27.8818C41.9579 27.591 42.1733 27.5345 42.3728 27.591C42.6122 27.6476 43.7054 28.5199 43.7932 28.5603C43.9847 28.6572 44.2401 28.5684 44.1204 28.4553C43.482 27.8091 41.5589 26.6299 40.3858 25.6849C38.0637 23.811 35.6458 21.0891 33.7067 19.2718C32.7012 18.3348 31.624 17.6483 30.826 17.4706C30.5387 17.406 30.2754 17.406 30.028 17.3737C29.9083 17.3575 29.8923 17.2525 29.8844 17.196C29.8764 17.0748 29.8923 16.8325 29.645 16.5418C29.4614 16.3317 29.0544 16.2591 28.7752 16.251C28.3841 16.2348 27.7378 16.3237 27.3707 16.4287C27.1951 16.4771 27.1074 16.4448 27.0435 16.3641C26.9877 16.2914 26.8839 16.0571 26.844 15.831C26.8201 15.6694 26.868 15.5483 26.9557 15.3787C27.1951 14.9183 27.8016 14.474 28.1527 14.1429C28.5118 13.8037 28.7432 13.7875 29.0784 13.7471C29.9003 13.6502 30.9856 13.5775 32.0868 13.836C32.8928 14.0217 33.5311 14.3448 34.3211 14.7406C35.1111 15.1364 39.6836 17.511 40.2661 17.7856L50.1691 23.496Z" fill="url(#paint4_linear_2_9745)"/>
<path d="M42.5725 15.0718C42.6602 15.6452 42.2932 16.0248 42.0777 16.3802C41.8623 16.7275 41.4154 17.2525 41.184 17.5352C40.8967 17.9068 40.3381 17.7937 40.3381 17.7937C40.3381 17.7937 42.9715 19.1506 44.4876 19.9179C45.0861 20.2249 46.0277 19.9422 46.6741 18.7306C46.8257 18.4479 47.7673 16.4206 48.0067 15.8148C48.2461 15.2091 48.5813 14.5468 48.0387 13.3917C47.496 12.2448 45.8123 10.1206 45.142 9.3048C44.7909 8.87672 44.3759 8.61826 43.4901 8.56979C42.6124 8.52133 41.5271 8.65056 40.1227 9.03018C38.7022 9.41788 36.8828 10.169 36.811 10.2094C36.7711 10.2336 36.7791 10.274 36.7951 10.3144C36.811 10.3548 37.0025 10.686 37.0025 10.686C37.0025 10.686 37.0983 10.9121 37.3696 11.0656C37.6409 11.219 37.9122 11.2837 37.9761 11.2998C38.0479 11.316 38.0798 11.2837 38.1038 11.2513C38.1277 11.219 38.391 10.7021 39.3805 10.4437C39.9152 10.3063 40.2503 10.2902 40.4179 10.2902C40.6733 10.2983 41.0723 10.4275 41.2957 10.6456C41.6548 11.009 41.974 11.5987 42.0219 11.8894C42.0777 12.164 42.0378 12.5114 41.7585 12.6567C41.4872 12.794 40.6892 12.9879 40.1945 13.0364C39.6758 13.0848 39.1731 13.0606 38.8778 12.891C38.8299 12.8667 38.798 12.8587 38.7501 12.899C38.6384 12.996 38.5666 13.0687 38.3511 13.206C38.3032 13.2383 38.2713 13.2948 38.3192 13.3917C38.3671 13.4887 38.9895 14.5387 39.3646 14.8214C39.7396 15.1041 39.9391 14.9829 40.394 14.7244C40.8488 14.4741 41.152 14.1591 41.6229 14.1752C42.0937 14.1833 42.4927 14.5952 42.5725 15.0718Z" fill="url(#paint5_radial_2_9745)"/>
<path opacity="0.85" d="M41.7266 12.7617C41.4632 12.891 40.6812 13.0686 40.1944 13.1171C39.6837 13.1656 39.1969 13.1413 38.9017 12.9798C38.8538 12.9556 38.8219 12.9556 38.774 12.9879C38.6623 13.0767 38.5985 13.1494 38.383 13.2706C38.3351 13.2948 38.3032 13.3594 38.3511 13.4483C38.399 13.5371 38.9575 14.4983 39.3406 14.7729C39.7236 15.0556 39.9311 14.9263 40.3859 14.676C40.8488 14.4256 41.152 14.1267 41.6308 14.1429L41.7266 12.7617Z" fill="url(#paint6_radial_2_9745)"/>
<path opacity="0.85" d="M40.0427 9.19141C38.6861 9.54679 36.9625 10.2253 36.8987 10.2576C36.8588 10.2818 36.8667 10.3545 36.8827 10.3949C36.8987 10.4272 37.0822 10.7341 37.0822 10.7341C37.0822 10.7341 37.17 10.936 37.4333 11.0814C37.6887 11.2187 37.9041 11.2914 37.9759 11.3076C38.0478 11.3237 38.0797 11.2914 38.1036 11.2591C38.1276 11.2268 38.3909 10.7099 39.3804 10.4514C39.915 10.3141 40.2502 10.298 40.4178 10.298L40.0427 9.19141Z" fill="url(#paint7_radial_2_9745)"/>
<path opacity="0.85" d="M42.5803 15.1523C42.6681 15.7258 42.301 16.1458 42.0856 16.5012C41.8701 16.8485 41.4153 17.3735 41.1918 17.6643C40.8966 18.0358 40.4736 17.8743 40.4736 17.8743C40.4736 17.8743 42.9633 19.1585 44.4795 19.9258C45.078 20.2328 45.9877 20.0228 46.6261 18.8112C46.7777 18.5285 47.7273 16.5012 47.9587 15.8954L42.5803 15.1523Z" fill="url(#paint8_radial_2_9745)"/>
<path d="M30.1637 24.6432C30.044 24.5947 30.044 24.4574 30.2036 24.2878C30.2914 24.1909 30.9856 23.6255 31.4006 23.5205C31.8315 23.4236 33.3237 23.2863 33.9621 23.2459C34.1456 23.2378 36.4598 23.0278 36.6752 23.0359C36.8827 23.0439 37.4174 23.884 38.0398 24.5705C37.968 24.5786 35.9491 24.5301 34.2334 24.5382C32.6135 24.5382 31.1851 24.5866 30.6584 24.6351C30.4829 24.6513 30.2594 24.6836 30.1637 24.6432Z" fill="url(#paint9_linear_2_9745)"/>
<path d="M30.1477 24.6753C30.0838 24.6511 30.0439 24.5945 30.0439 24.5299C30.0439 24.4492 30.0918 24.3684 30.1716 24.2795C30.2674 24.1745 30.9536 23.6091 31.3846 23.5041C31.8155 23.4072 33.3157 23.2618 33.9541 23.2295C34.1296 23.2215 36.348 23.0195 36.6513 23.0195C36.6592 23.0195 36.6672 23.0195 36.6672 23.0195C36.739 23.0276 36.8109 23.0841 36.9066 23.173C36.9944 23.2618 37.1061 23.3911 37.2178 23.5445C37.4572 23.8434 37.7445 24.223 38.0557 24.5622L38.1036 24.6107L38.0397 24.6188C38.0318 24.6188 38.0238 24.6188 38.0078 24.6188C37.7445 24.6188 36.0208 24.5784 34.4648 24.5784C34.385 24.5784 34.3132 24.5784 34.2334 24.5784C32.6135 24.5784 31.1851 24.6268 30.6584 24.6672C30.5467 24.6753 30.411 24.6995 30.2993 24.6995C30.2434 24.6995 30.1956 24.6915 30.1477 24.6753ZM30.2993 24.6349C30.403 24.6349 30.5387 24.6188 30.6504 24.6107C31.1771 24.5622 32.6055 24.5218 34.2254 24.5138C34.2972 24.5138 34.377 24.5138 34.4568 24.5138C35.949 24.5138 37.6009 24.5461 37.9599 24.5461C37.5131 24.0453 37.1141 23.4718 36.8587 23.2134C36.771 23.1245 36.6991 23.0761 36.6672 23.0761C36.6672 23.0761 36.6592 23.0761 36.6513 23.0761C36.356 23.0761 34.1376 23.278 33.962 23.2861C33.3237 23.3265 31.8235 23.4638 31.4085 23.5607C31.0095 23.6495 30.3153 24.223 30.2275 24.3199C30.1477 24.4007 30.1158 24.4815 30.1158 24.5299C30.1158 24.5784 30.1397 24.6026 30.1796 24.6188C30.2035 24.6268 30.2434 24.6349 30.2993 24.6349Z" fill="#7F7F7E"/>
<path d="M63.5514 42.9291C62.8492 41.1441 60.8702 37.2672 58.1571 33.2368C55.4998 29.271 50.9832 23.8998 50.3607 23.0113C49.7463 22.139 49.5069 21.1536 50.7837 20.7498C51.6136 20.4832 53.6165 20.0632 54.4305 19.829C55.2285 19.6109 55.2843 19.3444 55.3481 18.7224C55.42 18.052 55.2364 14.7809 54.8374 12.8263C54.7576 12.4224 54.4863 12.0832 54.1671 11.857C53.8878 11.6551 52.7866 10.6859 52.1802 9.98316C51.4859 9.17546 51.1667 8.41623 51.055 7.83468C51.055 7.83468 51.039 7.70545 50.8954 7.57622C50.8475 7.52776 50.8076 7.49545 50.7198 7.44699C49.5229 6.70391 45.2936 5.53275 44.4317 5.46005C43.8412 5.40352 41.7505 5.67813 39.8433 6.83314C39.2847 7.17237 39.2608 7.60045 38.8698 7.82661C38.4788 8.06084 37.585 8.26276 36.6434 8.69084C36.1247 8.92507 36.1247 8.96546 36.2444 9.25623C36.2923 9.37738 36.6354 10.0074 36.803 10.0074C36.9706 10.0155 37.1781 9.92662 37.3855 9.83777C37.6648 9.72469 39.5241 8.99777 40.9924 8.68277C42.6363 8.32738 44.3998 8.29507 45.0302 8.96546C45.9878 9.98316 47.6636 12.277 48.1663 13.2705C48.661 14.2559 48.6132 14.7324 48.286 15.742C47.9828 16.6709 46.8257 19.094 46.4825 19.5948C46.1394 20.0955 45.7245 20.3782 44.735 19.9663C43.6736 19.5221 39.7635 17.4947 38.9097 17.0586C38.3351 16.7678 35.9172 15.524 34.0899 14.5951C33.4116 14.2478 32.853 14.0055 32.2465 13.8439C30.9059 13.4966 29.4536 13.6501 28.7912 13.7632C28.488 13.8116 28.2965 14.3124 28.3124 14.5063C28.3284 14.7566 29.0386 14.579 29.6291 14.6193C30.1079 14.6516 31.7358 14.8293 32.6774 15.217C33.6669 15.6209 38.6463 18.3347 39.8992 19.0213C49.475 24.3117 53.5686 27.704 60.966 40.2879C61.2931 40.8533 61.4527 41.5399 60.934 41.7014C60.176 41.9276 57.0239 42.5333 56.0663 42.8483C55.2604 43.1149 55.1566 43.1795 55.0369 43.5833C54.9093 44.0437 54.7018 44.9484 54.7497 45.1341C54.7736 45.2068 54.7098 45.3037 54.8694 45.3037C55.7551 45.3037 58.9391 45.3118 61.3889 45.5461C61.6841 45.5784 61.7001 45.5703 61.8836 45.2795C62.0991 44.9484 62.945 43.963 63.5035 43.543C63.7509 43.3653 63.5913 43.0341 63.5514 42.9291Z" fill="url(#paint10_linear_2_9745)"/>
<path d="M61.3012 41.0631C61.2533 40.5543 60.7904 39.795 59.9685 38.4866C59.1386 37.17 58.1012 35.3769 56.7127 33.3981C54.255 29.8765 51.8291 27.1223 48.8207 24.7153C46.6023 22.9384 44.2642 21.5088 42.5565 20.4992C40.8488 19.4895 33.6271 15.4914 32.5099 15.136C31.4885 14.813 30.6825 14.708 29.9563 14.6353C29.4616 14.5868 29.0546 14.6191 28.6157 14.6191C28.2008 14.6191 28.3444 14.2799 28.4082 14.1426C28.3683 14.2395 28.121 14.708 28.5279 14.708C28.8232 14.708 29.5174 14.6837 29.9803 14.7403C30.874 14.8372 31.9992 15.0876 32.7014 15.3622C33.7069 15.758 38.415 18.6011 39.6359 19.2876C43.3066 21.3957 46.0996 23.3261 48.7169 25.4665C52.7228 28.7296 56.1781 32.5177 60.5111 40.1989C60.6787 40.4977 60.7745 40.7239 60.7745 41.0066C60.7904 41.4347 60.4234 41.5881 60.3037 41.6285C59.5615 41.8547 56.4973 42.5493 55.5956 42.8643C54.8295 43.1389 54.6859 43.3085 54.5741 43.672C54.5342 43.8254 54.4066 44.5524 54.255 44.7462C54.1033 44.9481 53.7522 44.9885 53.3772 44.9885C53.1458 44.9885 53.034 45.0047 53.058 44.7381C53.0819 44.4797 53.2335 43.777 53.3213 43.3731C53.4091 42.9693 53.5767 42.6624 53.9358 42.4443C54.3028 42.2181 55.5716 42.0162 56.2818 41.8304C56.992 41.6527 57.0319 41.3216 57.024 40.7723C57.024 41.3539 56.8245 41.4912 56.1063 41.6527C55.3801 41.8143 54.1592 41.9758 53.7522 42.2504C53.3612 42.517 53.2096 42.8966 53.1458 43.1954C52.8984 44.2212 52.7388 44.9724 52.7627 45.2228C52.7867 45.4489 52.8744 45.4812 53.1218 45.4489C53.3692 45.4166 53.9836 45.3358 54.9093 45.2954C55.1806 45.2954 55.1647 44.9643 55.1567 44.5927C55.1567 44.4554 55.1647 44.0597 55.2365 43.8658C55.3003 43.672 55.4519 43.4943 55.6833 43.4216C56.1941 43.26 59.0349 42.4847 60.4872 42.0485C61.0937 41.8547 61.357 41.6447 61.3012 41.0631Z" fill="url(#paint11_linear_2_9745)"/>
<path d="M42.333 27.5828C42.5325 27.6474 42.8916 27.9059 43.1709 28.1159C43.3943 28.2855 43.5779 28.4228 43.5779 28.4228C41.6627 30.8459 38.8219 35.0297 37.9122 36.7905C37.4414 37.7113 37.4493 38.0909 37.4653 38.939C37.4813 39.7548 37.577 40.7482 37.5212 41.2167C37.4733 41.6852 37.1701 41.8871 36.7072 42.0163C36.2444 42.1456 33.4913 42.5979 32.8769 42.7756C32.2704 42.9533 32.1268 43.3006 32.031 43.7448C31.9273 44.189 31.8954 44.4798 31.8395 44.6494C31.7837 44.8433 31.8236 44.9725 31.64 44.9886C31.4645 44.9967 31.0415 45.0371 30.85 45.0694C30.6505 45.0936 30.6186 45.0533 30.6266 44.8352C30.6346 44.6171 30.8341 43.6479 30.9697 43.1309C31.1054 42.614 31.3208 42.2748 32.0071 42.0971C32.6934 41.9275 35.4943 41.4509 36.021 41.354C36.6434 41.2409 36.795 40.9744 36.7631 40.3686C36.7312 39.7386 36.6434 38.8582 36.6274 38.3251C36.6115 37.784 36.6434 37.3398 36.8189 36.8551C37.0105 36.3301 38.0079 34.1413 38.8378 32.5986C39.9869 30.4743 41.3994 28.1966 41.6787 27.8574C41.9021 27.607 42.0617 27.4939 42.333 27.5828Z" fill="url(#paint12_linear_2_9745)"/>
<path d="M40.7132 43.1473C40.6892 42.6465 40.8728 42.1862 41.184 41.7258C41.6069 41.1119 42.2613 40.4819 43.0672 39.6419C44.4717 38.1638 47.895 34.7715 48.0227 34.6503C48.1025 34.5696 48.1903 34.4646 48.0067 34.2788C47.6636 33.9477 47.488 33.7377 46.9534 33.1965C46.6262 32.8653 46.4028 32.6634 46.4108 32.5503C46.4108 32.5342 42.5884 36.8877 41.3276 40.1104C40.8089 41.2573 40.6653 41.9115 40.6653 42.485C40.6653 42.9696 40.7132 43.1473 40.7132 43.1473Z" fill="url(#paint13_linear_2_9745)"/>
<path d="M28.5757 14.7C29.1103 14.692 29.6051 14.6839 30.0679 14.7404C30.9776 14.8535 32.0868 15.0958 32.789 15.3947C33.1561 15.5481 34.0179 16.0247 35.0314 16.6062C36.779 17.6078 38.9654 18.9081 39.7395 19.3524C42.4446 20.9112 44.671 22.3732 46.7059 23.8997C47.44 24.4489 48.1423 25.0143 48.8365 25.5878C52.8504 28.8751 56.154 32.5098 60.5589 40.296C60.7265 40.5948 60.7823 40.8371 60.7584 41.1037C60.7424 41.3379 60.5429 41.5721 60.2237 41.6448L28.5757 14.7Z" fill="url(#paint14_linear_2_9745)"/>
<path d="M54.8055 11.0493H54.7895C54.6379 11.0493 54.5262 10.9847 54.4384 10.9201C53.8 10.4436 52.0285 9.03816 51.7731 7.85085C51.6135 7.29354 51.813 7.552 51.2464 7.25315C51.0869 7.18854 50.9352 7.12392 50.7756 7.06738C50.8315 7.09969 50.8794 7.12392 50.9273 7.15623C51.015 7.20469 51.0868 7.26123 51.1507 7.32585C51.3661 7.52777 51.414 7.72969 51.414 7.77008C51.5178 8.29508 51.805 8.99778 52.4674 9.76509C53.0339 10.4274 54.2149 11.4128 54.4543 11.5824C54.606 11.6874 54.7656 11.8005 54.8932 11.9459C54.9651 11.5501 55.0927 11.1059 55.2683 10.6778C55.2364 10.7262 55.2124 10.7828 55.1566 10.8555C55.1007 10.9362 54.981 11.0413 54.8055 11.0493Z" fill="url(#paint15_linear_2_9745)"/>
<path d="M50.9194 21.0647C50.3289 21.2827 50.2491 21.4685 50.2332 21.7674C50.2332 22.042 50.3608 22.4781 50.6242 22.8497C50.9354 23.2939 52.4276 25.0143 54.0874 27.1305C54.2789 27.3647 54.3587 27.4535 54.5183 27.6232C54.4545 27.5424 52.1084 24.5378 51.3902 23.7058C51.1828 23.4635 50.9513 23.1324 50.9434 22.7043C50.9434 22.2762 51.2626 21.6623 51.9329 21.4362C52.8266 21.105 54.4545 20.572 54.8216 20.37C55.1807 20.16 55.2924 20.0712 55.3403 19.8208C55.1567 19.9743 54.9173 20.0712 54.6141 20.16C53.7762 20.3943 51.7174 20.8143 50.9194 21.0647Z" fill="url(#paint16_linear_2_9745)"/>
<path d="M55.3003 11.2108C55.6195 10.0719 56.6489 8.72306 58.2688 8.72306C60.3356 8.72306 61.2054 9.51461 61.4926 10.6938C61.1256 9.02191 59.6732 8.49691 58.2688 8.53729C56.6728 8.5696 55.6115 9.93461 55.3003 11.2108Z" fill="url(#paint17_linear_2_9745)"/>
<path d="M41.8223 41.588C42.0936 41.2892 43.1709 40.0857 44.304 38.8096C43.929 39.1892 43.5938 39.5365 43.3305 39.8111C41.7265 41.4669 41.0004 41.9838 41.0323 43.0177C41.0482 43.6234 41.0961 45.1258 41.1041 45.3519C41.1041 45.5054 41.1201 45.6508 40.8647 45.78C40.737 45.8446 40.5295 45.8446 40.4178 45.8446C39.9789 45.8446 35.7576 45.4246 34.2734 45.4246C32.7891 45.4246 31.5203 45.5942 30.7542 45.7881C30.6266 45.8204 30.3074 45.7961 30.1797 45.6023C30.1159 45.4973 30.0919 45.4004 30.0839 45.3115C30.052 45.6023 30.0281 45.9415 30.0281 46.095C30.2914 46.0385 30.9218 45.9577 31.7358 45.8931C32.7731 45.8123 33.9462 45.8285 34.7282 45.8285C35.5102 45.8285 41.3275 46.1354 41.3515 46.1354C41.3116 45.6831 41.2557 44.6088 41.2398 43.9304C41.2318 43.7608 41.2318 43.7608 41.2238 43.2761C41.2078 42.7511 41.3116 42.1373 41.8223 41.588Z" fill="url(#paint18_linear_2_9745)"/>
<path d="M53.6245 38.8504C53.9517 39.0927 54.2629 39.2542 54.5821 39.3673C54.3188 39.1815 53.9198 38.8746 53.4091 38.4788C52.659 37.8892 51.7014 37.13 50.7438 36.3546C49.9299 35.7004 49.1159 35.038 48.4217 34.4727C48.4057 34.723 48.2541 34.8523 48.1982 34.8927C48.3578 34.9169 48.5015 35.0138 48.6292 35.1269C48.9244 35.4096 52.8425 38.285 53.6245 38.8504Z" fill="url(#paint19_linear_2_9745)"/>
<path d="M64.0141 43.9065C64.1498 43.8015 64.1976 43.8015 64.1976 43.7046C64.1976 43.6319 64.1578 43.4946 64.0939 43.3088C63.3039 41.015 60.2875 35.3611 57.9415 32.2111C57.718 31.9122 57.5664 31.5084 57.5664 31.2257C57.5664 30.8622 57.7579 30.5957 57.9494 30.4503C58.117 30.313 58.508 29.9737 59.0347 29.4487C58.2287 30.0626 57.6622 30.5553 57.5903 30.7734C57.5504 30.8784 57.4946 31.0157 57.4946 31.2176C57.4946 31.468 57.5744 31.8072 57.8856 32.2595C58.0691 32.5261 58.2527 32.7926 58.4282 33.043C61.1494 37.0976 63.0486 41.023 63.7667 42.8565C63.9263 43.3007 63.8944 43.5188 63.7508 43.7207C63.7508 43.7207 62.3304 45.1907 62.1628 45.4654C62.091 45.5784 62.0351 45.6673 61.9394 45.7561C61.8436 45.845 61.5962 45.9015 61.3568 45.8854C59.2661 45.6834 56.9919 45.6027 55.8507 45.6027C54.3665 45.6027 53.5047 45.7481 53.0099 45.7642C52.7466 45.7723 52.5551 45.7077 52.5231 45.6673C52.5231 45.6592 52.5152 45.6511 52.5072 45.6511C52.4832 45.8611 52.4753 46.0227 52.4673 46.0873C53.369 45.9257 54.574 45.8531 55.9146 45.8531C56.3375 45.8531 56.7764 45.8611 57.2313 45.8692C59.4417 45.9419 62.0112 46.1438 62.0192 46.1438C62.0271 46.1277 63.248 44.5446 64.0141 43.9065Z" fill="url(#paint20_linear_2_9745)"/>
<path d="M41.6228 27.3327C40.9605 26.8561 40.2503 26.3796 39.6199 25.9838C38.782 25.4507 37.984 25.0792 37.7446 25.0873C35.1911 25.0469 35.1911 25.0469 33.6829 25.0469C32.5098 25.0469 31.3927 25.0953 30.9538 25.1276C30.06 25.1923 29.6291 25.3053 29.5413 25.3215C29.4536 25.3457 29.4057 25.3376 29.3977 25.3376C29.4216 25.37 29.4536 25.4426 29.4695 25.4669C29.4935 25.4588 29.5254 25.4426 29.5972 25.4265C30.1319 25.273 31.3288 25.2003 32.8211 25.1923C34.2494 25.1923 35.7975 25.2003 36.6035 25.2407C37.3217 25.2811 38.3431 25.378 39.1571 25.8223C39.9072 26.2584 41.543 27.4053 41.6228 27.3327Z" fill="url(#paint21_linear_2_9745)"/>
<path d="M33.9064 19.8288C32.9408 18.9161 31.4726 17.8661 30.7783 17.7207C30.5389 17.6642 30.1958 17.64 29.9165 17.6238C29.701 17.6077 29.717 17.3654 29.6611 17.3169C29.6691 17.3573 29.6771 17.7369 29.8127 17.745C29.9883 17.7611 30.523 17.6804 31.0017 17.9146C31.6481 18.2377 33.3079 19.4734 33.5553 19.7481C33.8745 20.1034 34.1857 20.0711 33.9064 19.8288Z" fill="url(#paint22_linear_2_9745)"/>
<path d="M28.3923 24.78C28.5918 24.78 28.6556 24.788 28.8072 24.8527C28.7115 24.683 28.5997 24.6104 28.2885 24.6104C27.8337 24.6184 26.6766 25.2 26.501 25.3211C26.2297 25.4746 26.118 25.4746 25.9504 25.2888C26.0302 25.4746 26.1579 25.5957 26.2776 25.5554C26.3893 25.515 27.7778 24.78 28.3923 24.78Z" fill="url(#paint23_linear_2_9745)"/>
<path d="M41.8462 6.96254C42.0617 6.93023 42.2372 6.88177 42.2612 7.05947C42.2691 7.14831 42.2612 7.25331 42.2292 7.33408C42.2053 7.38254 42.1734 7.43101 42.0776 7.46331C41.8622 7.53601 40.6093 7.99639 40.3939 8.08524C40.2343 8.14986 40.1385 8.07716 40.1066 7.97216C40.0747 7.87524 40.1066 7.61678 40.1784 7.5037C40.2502 7.39062 40.3061 7.35024 40.4178 7.31793C40.5216 7.28562 41.535 7.011 41.8462 6.96254Z" fill="url(#paint24_linear_2_9745)"/>
<path d="M41.8144 7.06719C41.9501 7.04296 42.0219 7.05104 42.0299 7.13181C42.0379 7.21258 42.0299 7.26104 42.0219 7.29335C42.0139 7.33373 41.998 7.35797 41.9261 7.3822C41.7825 7.43066 40.8728 7.76181 40.6494 7.85874C40.4499 7.94758 40.3461 7.89912 40.3302 7.81028C40.3142 7.72143 40.3461 7.58412 40.3781 7.52758C40.41 7.46297 40.4658 7.42258 40.5376 7.39835C40.7052 7.34181 41.5511 7.11566 41.8144 7.06719Z" fill="black"/>
<path d="M46.9055 19.1183C47.0572 18.8356 48.0706 16.679 48.31 16.0571C48.4696 15.6694 48.6452 15.2817 48.6452 14.7809C48.6452 14.4579 48.5574 13.9571 48.3339 13.4967C47.7754 12.3094 46.0198 10.0559 45.3176 9.20784C44.7191 8.49707 44.1844 8.38399 43.171 8.40822C40.5855 8.48091 38.3352 9.58746 37.0664 10.1044C37.9681 9.78938 40.1546 8.88476 42.6044 8.7313C43.945 8.65053 44.4877 8.76361 44.9744 9.32092C45.6846 10.1205 47.3524 12.374 47.9429 13.5209C48.1743 13.9732 48.2781 14.3852 48.2462 14.7325C48.1983 15.2575 48.0147 15.6452 47.8631 15.9925C47.6078 16.5902 46.6582 18.5448 46.4906 18.8275C45.7963 20.0391 45.134 19.9987 44.4318 19.8371C44.4717 19.8614 44.7909 20.0148 45.0861 20.136C45.916 20.4833 46.4347 20.0067 46.9055 19.1183Z" fill="url(#paint25_linear_2_9745)"/>
<path d="M43.7852 28.5684C43.7533 28.5523 43.6336 28.4634 43.474 28.3423C43.083 28.7865 41.3434 30.9915 40.1225 32.9542C39.2048 34.4323 37.8802 36.6373 37.6727 37.122C37.4812 37.5662 37.4173 37.97 37.4094 38.495C37.4094 38.5031 37.4812 40.8777 37.4812 40.8939C37.4812 41.1847 37.4413 41.427 37.2817 41.6127C37.1221 41.7985 36.8827 41.8874 36.5555 41.9358C36.0129 42.0166 33.4434 42.4204 32.7411 42.5658C32.0549 42.7193 31.7756 43.0343 31.616 43.4947C31.5043 43.8258 31.3766 44.3912 31.3766 44.6335C31.3766 44.6335 31.3686 44.7708 31.3766 44.7708C31.3606 45.0374 31.4484 45.0212 31.4484 45.0212C31.4484 45.0212 34.4169 44.787 36.1884 44.9001C37.96 45.0051 40.4018 45.2393 40.4018 45.2393C40.4018 45.2393 37.8323 44.7547 36.0847 44.6416C34.3371 44.5366 32.023 44.7305 31.999 44.6255C31.9831 44.5528 31.9432 44.4397 31.9591 44.2216C31.991 44.0843 32.023 43.9228 32.0708 43.7531C32.1826 43.317 32.39 42.9293 33.0683 42.7678C33.7147 42.5981 36.2124 42.1862 36.6832 42.0651C37.154 41.9439 37.4572 41.7662 37.5211 41.3866C37.537 41.2654 37.553 40.9989 37.553 40.7566C37.553 40.2477 37.4652 38.8989 37.4652 38.8181C37.4812 37.9862 37.5211 37.55 38.0557 36.6535C38.8856 35.2562 42.0057 30.4504 43.5618 28.7865C43.6576 28.6815 43.7054 28.5927 43.881 28.6169C43.8491 28.5927 43.8172 28.5846 43.7852 28.5684Z" fill="url(#paint26_linear_2_9745)"/>
<path d="M6.44775 56.0942V63.105H8.35494V60.9485H10.0626C13.7254 60.9485 15.5927 59.7612 15.5927 58.4446C15.5927 57.0312 13.5897 56.0942 10.2222 56.0942H6.44775ZM8.36292 60.1893V56.8777H9.86313C11.4112 56.8777 13.462 57.1442 13.462 58.4446C13.462 59.325 12.7997 60.1893 9.61575 60.1893H8.36292Z" fill="#192753"/>
<path d="M26.4771 63.1053V62.2249H21.777C20.7715 62.2249 20.4763 61.7645 20.4763 60.981V59.9553H25.9983V59.0749H20.4763V56.9829H26.2457V56.1025H18.5691V61.0295C18.5691 62.346 19.1117 63.1214 20.8673 63.1214H26.4771V63.1053Z" fill="#192753"/>
<path d="M38.6862 56.0942H36.779V62.0147C36.2524 62.2004 35.5502 62.37 34.5287 62.37C33.0604 62.37 31.6081 61.9904 31.6081 60.69V56.1023H29.7009V60.8193C29.7009 62.7497 31.6081 63.3231 33.7068 63.3231C35.7097 63.3231 37.3456 62.9031 38.6862 62.3297V56.0942Z" fill="#192753"/>
<path d="M43.9928 59.6159C43.9928 57.6693 45.6287 56.7566 47.6156 56.7566C49.2435 56.7566 50.5043 57.2332 51.6933 57.637V56.4578C50.4325 56.0782 49.2435 55.8682 47.6156 55.8682C44.4237 55.8682 41.8223 57.3543 41.8223 59.6078C41.8223 61.9905 44.4237 63.3151 47.6156 63.3151C49.2116 63.3151 50.8794 62.984 51.9088 62.7174V59.939H50.0255V62.0309C49.3313 62.2651 48.8365 62.4509 47.7593 62.4509C45.5808 62.4509 43.9928 61.3524 43.9928 59.6159Z" fill="#192753"/>
<path d="M63.2881 63.1053V62.2249H58.588C57.5826 62.2249 57.2873 61.7645 57.2873 60.981V59.9553H62.8094V59.0749H57.2873V56.9829H63.0567V56.1025H55.3801V61.0295C55.3801 62.346 55.9148 63.1214 57.6783 63.1214H63.2881V63.1053Z" fill="#192753"/>
<path d="M71.5713 55.8843C68.3794 55.8843 65.762 57.3947 65.762 59.6562C65.762 62.0308 68.3714 63.3312 71.5713 63.3312C74.7632 63.3312 77.3647 62.0308 77.3647 59.6562C77.3647 57.3947 74.7632 55.8843 71.5713 55.8843ZM71.5713 62.5478C69.4008 62.5478 67.9325 61.417 67.9325 59.6562C67.9325 57.7258 69.5684 56.7647 71.5713 56.7647C73.5663 56.7647 75.1941 57.7339 75.1941 59.6562C75.1941 61.4089 73.7258 62.5478 71.5713 62.5478Z" fill="#192753"/>
<path d="M78.9287 57.0958H82.7351V63.105H84.6423V57.0958H88.4487V56.0942H78.9287V57.0958Z" fill="#192753"/>
<defs>
<linearGradient id="paint0_linear_2_9745" x1="63.789" y1="10.4715" x2="51.3171" y2="29.3439" gradientUnits="userSpaceOnUse">
<stop offset="0.2033" stop-color="#B5B3B3"/>
<stop offset="0.219" stop-color="#9A9696"/>
<stop offset="0.2517" stop-color="#6D6969"/>
<stop offset="0.2838" stop-color="#4F4C4C"/>
<stop offset="0.3144" stop-color="#3C3A3A"/>
<stop offset="0.3432" stop-color="#31302F"/>
<stop offset="0.3681" stop-color="#2E2C2C"/>
<stop offset="0.4428" stop-color="#323130"/>
<stop offset="0.542" stop-color="#3F3D3D"/>
<stop offset="0.6549" stop-color="#565453"/>
<stop offset="0.7772" stop-color="#7B7878"/>
<stop offset="0.8132" stop-color="#898686"/>
<stop offset="1"/>
</linearGradient>
<linearGradient id="paint1_linear_2_9745" x1="29.3457" y1="24.2718" x2="31.6133" y2="19.1407" gradientUnits="userSpaceOnUse">
<stop offset="0.031035" stop-color="#8C8888"/>
<stop offset="0.2" stop-color="#8C8888"/>
<stop offset="0.9897" stop-color="#403E3D"/>
</linearGradient>
<linearGradient id="paint2_linear_2_9745" x1="59.6862" y1="11.8987" x2="56.9485" y2="11.6428" gradientUnits="userSpaceOnUse">
<stop offset="0.1966" stop-color="#2E2C2C"/>
<stop offset="0.261" stop-color="#2F2E2D"/>
<stop offset="0.2843" stop-color="#343332"/>
<stop offset="0.3008" stop-color="#3E3C3B"/>
<stop offset="0.3142" stop-color="#4B4948"/>
<stop offset="0.3257" stop-color="#5E5C5B"/>
<stop offset="0.3358" stop-color="#797676"/>
<stop offset="0.345" stop-color="#9E9B9B"/>
<stop offset="0.3532" stop-color="#CDCBCB"/>
<stop offset="0.3586" stop-color="white"/>
<stop offset="0.8241" stop-color="#2E2C2C"/>
<stop offset="1" stop-color="#1A1A1A"/>
</linearGradient>
<linearGradient id="paint3_linear_2_9745" x1="35.0606" y1="26.992" x2="37.3587" y2="21.7919" gradientUnits="userSpaceOnUse">
<stop stop-color="#B5B3B3"/>
<stop offset="0.1072" stop-color="#A29F9F"/>
<stop offset="0.2468" stop-color="#918E8E"/>
<stop offset="0.3681" stop-color="#8C8888"/>
<stop offset="0.9897"/>
</linearGradient>
<linearGradient id="paint4_linear_2_9745" x1="56.9674" y1="51.6016" x2="16.2436" y2="10.6707" gradientUnits="userSpaceOnUse">
<stop offset="0.076923" stop-color="#676464"/>
<stop offset="0.1209" stop-color="#73706F"/>
<stop offset="0.1703" stop-color="#53504F"/>
<stop offset="0.3077" stop-color="#676464"/>
<stop offset="0.4725" stop-color="#E6E5E5"/>
<stop offset="0.6978" stop-color="#E6E5E5"/>
<stop offset="0.723" stop-color="#CFCDCD"/>
<stop offset="0.7716" stop-color="#9C9898"/>
<stop offset="0.8384" stop-color="#595655"/>
<stop offset="0.8407" stop-color="#575453"/>
<stop offset="0.9615" stop-color="#2E2C2C"/>
</linearGradient>
<radialGradient id="paint5_radial_2_9745" cx="0" cy="0" r="1" gradientUnits="userSpaceOnUse" gradientTransform="translate(39.5596 15.5827) scale(9.17421 9.28587)">
<stop offset="0.035714" stop-color="white"/>
<stop offset="0.467" stop-color="white"/>
<stop offset="0.5207" stop-color="#F3F3F2"/>
<stop offset="0.5763" stop-color="#DEDDDC"/>
<stop offset="0.6328" stop-color="#C1BEBE"/>
<stop offset="0.69" stop-color="#9C9999"/>
<stop offset="0.7473" stop-color="#73706F"/>
<stop offset="0.8462" stop-color="#53504F"/>
<stop offset="1" stop-color="#2E2C2C"/>
</radialGradient>
<radialGradient id="paint6_radial_2_9745" cx="0" cy="0" r="1" gradientUnits="userSpaceOnUse" gradientTransform="translate(41.6184 13.7087) scale(3.23912 3.15921)">
<stop offset="0.035714" stop-color="white"/>
<stop offset="0.2276" stop-color="white"/>
<stop offset="0.2984" stop-color="#EAE8E8"/>
<stop offset="0.416" stop-color="#C4C2C2"/>
<stop offset="0.5658" stop-color="#918E8D"/>
<stop offset="0.7421" stop-color="#565453"/>
<stop offset="0.9385" stop-color="#1B1B1B"/>
<stop offset="1"/>
</radialGradient>
<radialGradient id="paint7_radial_2_9745" cx="0" cy="0" r="1" gradientUnits="userSpaceOnUse" gradientTransform="translate(39.5932 8.56059) scale(3.80912 3.85548)">
<stop offset="0.2308" stop-color="white"/>
<stop offset="0.5714" stop-color="#EAE9E8"/>
<stop offset="0.8626"/>
</radialGradient>
<radialGradient id="paint8_radial_2_9745" cx="0" cy="0" r="1" gradientUnits="userSpaceOnUse" gradientTransform="translate(45.9771 16.0839) scale(12.8325 12.9887)">
<stop offset="0.035714" stop-color="white"/>
<stop offset="0.2527" stop-color="white"/>
<stop offset="0.2718" stop-color="#F3F3F2"/>
<stop offset="0.2915" stop-color="#DEDDDC"/>
<stop offset="0.3115" stop-color="#C1BEBE"/>
<stop offset="0.3316" stop-color="#9C9999"/>
<stop offset="0.3462" stop-color="#7F7C7C"/>
<stop offset="0.4121" stop-color="#53504F"/>
<stop offset="0.4725" stop-color="#2E2C2C"/>
<stop offset="0.8571" stop-color="#2E2C2C"/>
</radialGradient>
<linearGradient id="paint9_linear_2_9745" x1="37.0132" y1="23.4735" x2="30.722" y2="25.0274" gradientUnits="userSpaceOnUse">
<stop stop-color="#E6E5E5"/>
<stop offset="0.0624426" stop-color="#D0CECE"/>
<stop offset="0.2582" stop-color="#999696"/>
<stop offset="0.2882" stop-color="#A9A6A6"/>
<stop offset="0.3483" stop-color="#C2C0C0"/>
<stop offset="0.4172" stop-color="#D6D4D4"/>
<stop offset="0.5019" stop-color="#E2E1E1"/>
<stop offset="0.6484" stop-color="#E6E5E5"/>
<stop offset="0.8956" stop-color="white"/>
</linearGradient>
<linearGradient id="paint10_linear_2_9745" x1="36.703" y1="7.48822" x2="65.895" y2="42.627" gradientUnits="userSpaceOnUse">
<stop stop-color="white"/>
<stop offset="0.068966" stop-color="#CBC9C9"/>
<stop offset="0.1565" stop-color="white"/>
<stop offset="0.2033" stop-color="white"/>
<stop offset="0.2737" stop-color="#CDCBCB"/>
<stop offset="0.3297" stop-color="#B5B3B3"/>
<stop offset="0.3301" stop-color="#B6B3B3"/>
<stop offset="0.3601" stop-color="#D1CFCF"/>
<stop offset="0.394" stop-color="#E7E6E5"/>
<stop offset="0.435" stop-color="#F7F7F7"/>
<stop offset="0.502" stop-color="white"/>
<stop offset="0.8852" stop-color="white"/>
<stop offset="0.9797" stop-color="#969393"/>
</linearGradient>
<linearGradient id="paint11_linear_2_9745" x1="29.4014" y1="14.3747" x2="59.1476" y2="42.2876" gradientUnits="userSpaceOnUse">
<stop stop-color="#C5C2C2"/>
<stop offset="0.011039" stop-color="#BEBBBB"/>
<stop offset="0.133" stop-color="#807D7D"/>
<stop offset="0.2476" stop-color="#595655"/>
<stop offset="0.3516" stop-color="#403E3E"/>
<stop offset="0.4414" stop-color="#323130"/>
<stop offset="0.5069" stop-color="#2E2C2C"/>
<stop offset="0.5767" stop-color="#31302F"/>
<stop offset="0.6595" stop-color="#3D3B3A"/>
<stop offset="0.7489" stop-color="#504E4D"/>
<stop offset="0.8431" stop-color="#6F6C6C"/>
<stop offset="0.94" stop-color="#9E9B9B"/>
<stop offset="1" stop-color="#C5C2C2"/>
</linearGradient>
<linearGradient id="paint12_linear_2_9745" x1="43.5745" y1="28.0564" x2="31.9224" y2="45.2667" gradientUnits="userSpaceOnUse">
<stop stop-color="#A7A4A4"/>
<stop offset="0.1" stop-color="white"/>
<stop offset="0.3492" stop-color="#DFDDDD"/>
<stop offset="0.4136" stop-color="#EAE9E8"/>
<stop offset="0.5385" stop-color="white"/>
<stop offset="0.5709" stop-color="#AAA7A7"/>
<stop offset="0.6069" stop-color="#6E6A6A"/>
<stop offset="0.6405" stop-color="#474545"/>
<stop offset="0.6706" stop-color="#2F2E2D"/>
<stop offset="0.6962" stop-color="#201F1F"/>
<stop offset="0.7143" stop-color="#1A1A1A"/>
<stop offset="0.7166" stop-color="#202020"/>
<stop offset="0.7344" stop-color="#4B4848"/>
<stop offset="0.7525" stop-color="#747171"/>
<stop offset="0.7705" stop-color="#9D9A9A"/>
<stop offset="0.7885" stop-color="#C2BFBF"/>
<stop offset="0.8063" stop-color="#DFDDDD"/>
<stop offset="0.824" stop-color="#F4F3F3"/>
<stop offset="0.8414" stop-color="white"/>
<stop offset="0.8505" stop-color="#F2F2F1"/>
<stop offset="0.8608" stop-color="#DCDADA"/>
<stop offset="0.8717" stop-color="#BCBABA"/>
<stop offset="0.8829" stop-color="#959292"/>
<stop offset="0.8944" stop-color="#6A6666"/>
<stop offset="0.9061" stop-color="#3F3D3C"/>
<stop offset="0.9103" stop-color="#2F2E2D"/>
<stop offset="0.9451" stop-color="#2F2E2D"/>
<stop offset="1" stop-color="#5D5A59"/>
</linearGradient>
<linearGradient id="paint13_linear_2_9745" x1="42.2954" y1="37.0888" x2="45.339" y2="38.8601" gradientUnits="userSpaceOnUse">
<stop offset="0.2" stop-color="white"/>
<stop offset="0.3237" stop-color="#F7F7F7"/>
<stop offset="0.3966" stop-color="#E7E6E6"/>
<stop offset="0.4564" stop-color="#D2D0D0"/>
<stop offset="0.5088" stop-color="#B7B4B4"/>
<stop offset="0.5207" stop-color="#AFADAD"/>
<stop offset="0.8352" stop-color="#2E2C2C"/>
<stop offset="0.9482" stop-color="#212120"/>
<stop offset="1" stop-color="#1A1A1A"/>
</linearGradient>
<linearGradient id="paint14_linear_2_9745" x1="43.9922" y1="28.7972" x2="47.2193" y2="24.98" gradientUnits="userSpaceOnUse">
<stop offset="0.021978" stop-color="white"/>
<stop offset="0.1828" stop-color="white"/>
<stop offset="0.2088" stop-color="white"/>
<stop offset="0.3109" stop-color="#ECEBEB"/>
<stop offset="0.4672" stop-color="#CCCACA"/>
<stop offset="0.5" stop-color="#C5C2C2"/>
<stop offset="0.5655" stop-color="#B5B2B2"/>
<stop offset="0.8161" stop-color="#848080"/>
<stop offset="0.9451" stop-color="#73706F"/>
<stop offset="1" stop-color="#6C6969"/>
</linearGradient>
<linearGradient id="paint15_linear_2_9745" x1="51.0151" y1="7.27943" x2="55.2109" y2="11.5201" gradientUnits="userSpaceOnUse">
<stop/>
<stop offset="0.0449" stop-color="#030303"/>
<stop offset="0.0706196" stop-color="#0E0E0D"/>
<stop offset="0.0915032" stop-color="#1C1B1B"/>
<stop offset="0.1098" stop-color="#2C2B2B"/>
<stop offset="0.1264" stop-color="#413E3E"/>
<stop offset="0.1417" stop-color="#5B5858"/>
<stop offset="0.1562" stop-color="#817D7D"/>
<stop offset="0.1695" stop-color="#B3B0B0"/>
<stop offset="0.1793" stop-color="#E6E5E5"/>
<stop offset="0.2297" stop-color="#A8A6A5"/>
<stop offset="0.2857" stop-color="#787575"/>
<stop offset="0.3428" stop-color="#565453"/>
<stop offset="0.4004" stop-color="#403E3D"/>
<stop offset="0.4586" stop-color="#312F2F"/>
<stop offset="0.5177" stop-color="#272626"/>
<stop offset="0.5793" stop-color="#242323"/>
<stop offset="0.7233" stop-color="#1E1D1D"/>
<stop offset="0.9352" stop-color="#0A0A09"/>
<stop offset="1"/>
</linearGradient>
<linearGradient id="paint16_linear_2_9745" x1="51.5118" y1="25.1109" x2="56.2625" y2="22.0293" gradientUnits="userSpaceOnUse">
<stop/>
<stop offset="0.0449" stop-color="#030303"/>
<stop offset="0.0706196" stop-color="#0E0E0D"/>
<stop offset="0.0915032" stop-color="#1C1B1B"/>
<stop offset="0.1098" stop-color="#2C2B2B"/>
<stop offset="0.1264" stop-color="#413E3E"/>
<stop offset="0.1417" stop-color="#5B5858"/>
<stop offset="0.1562" stop-color="#817D7D"/>
<stop offset="0.1695" stop-color="#B3B0B0"/>
<stop offset="0.1793" stop-color="#E6E5E5"/>
<stop offset="0.2297" stop-color="#A8A6A5"/>
<stop offset="0.2857" stop-color="#787575"/>
<stop offset="0.3428" stop-color="#565453"/>
<stop offset="0.4004" stop-color="#403E3D"/>
<stop offset="0.4586" stop-color="#312F2F"/>
<stop offset="0.5177" stop-color="#272626"/>
<stop offset="0.5793" stop-color="#242323"/>
<stop offset="0.7233" stop-color="#1E1D1D"/>
<stop offset="0.9352" stop-color="#0A0A09"/>
<stop offset="1"/>
</linearGradient>
<linearGradient id="paint17_linear_2_9745" x1="55.2967" y1="9.87239" x2="61.49" y2="9.87239" gradientUnits="userSpaceOnUse">
<stop stop-color="#403E3D"/>
<stop offset="0.2857" stop-color="#B5B3B3"/>
<stop offset="0.3396" stop-color="#858181"/>
<stop offset="0.3928" stop-color="#636160"/>
<stop offset="0.4437" stop-color="#4F4C4C"/>
<stop offset="0.4915" stop-color="#434141"/>
<stop offset="0.533" stop-color="#403E3D"/>
<stop offset="0.7582" stop-color="#1A1A1A"/>
<stop offset="1"/>
</linearGradient>
<linearGradient id="paint18_linear_2_9745" x1="30.0202" y1="42.4688" x2="44.3008" y2="42.4688" gradientUnits="userSpaceOnUse">
<stop/>
<stop offset="0.0528424" stop-color="#030303"/>
<stop offset="0.0831088" stop-color="#0E0E0D"/>
<stop offset="0.1077" stop-color="#1C1B1B"/>
<stop offset="0.1292" stop-color="#2C2B2B"/>
<stop offset="0.1487" stop-color="#413E3E"/>
<stop offset="0.1665" stop-color="#5B5857"/>
<stop offset="0.1793" stop-color="#757272"/>
<stop offset="0.2534" stop-color="#565353"/>
<stop offset="0.3324" stop-color="#403E3D"/>
<stop offset="0.4126" stop-color="#312F2F"/>
<stop offset="0.4943" stop-color="#272626"/>
<stop offset="0.5793" stop-color="#242323"/>
<stop offset="0.7233" stop-color="#1E1D1D"/>
<stop offset="0.9352" stop-color="#0A0A09"/>
<stop offset="1"/>
</linearGradient>
<linearGradient id="paint19_linear_2_9745" x1="48.1903" y1="36.9222" x2="54.5775" y2="36.9222" gradientUnits="userSpaceOnUse">
<stop/>
<stop offset="0.0528424" stop-color="#030303"/>
<stop offset="0.0831088" stop-color="#0E0E0D"/>
<stop offset="0.1077" stop-color="#1C1B1B"/>
<stop offset="0.1292" stop-color="#2C2B2B"/>
<stop offset="0.1487" stop-color="#413E3E"/>
<stop offset="0.1665" stop-color="#5B5857"/>
<stop offset="0.1793" stop-color="#757272"/>
<stop offset="0.2534" stop-color="#565353"/>
<stop offset="0.3324" stop-color="#403E3D"/>
<stop offset="0.4126" stop-color="#312F2F"/>
<stop offset="0.4943" stop-color="#272626"/>
<stop offset="0.5793" stop-color="#242323"/>
<stop offset="0.7233" stop-color="#1E1D1D"/>
<stop offset="0.9352" stop-color="#0A0A09"/>
<stop offset="1"/>
</linearGradient>
<linearGradient id="paint20_linear_2_9745" x1="52.4667" y1="37.7908" x2="64.1983" y2="37.7908" gradientUnits="userSpaceOnUse">
<stop/>
<stop offset="0.0528424" stop-color="#030303"/>
<stop offset="0.0831088" stop-color="#0E0E0D"/>
<stop offset="0.1077" stop-color="#1C1B1B"/>
<stop offset="0.1292" stop-color="#2C2B2B"/>
<stop offset="0.1487" stop-color="#413E3E"/>
<stop offset="0.1665" stop-color="#5B5857"/>
<stop offset="0.1793" stop-color="#757272"/>
<stop offset="0.2534" stop-color="#565353"/>
<stop offset="0.3324" stop-color="#403E3D"/>
<stop offset="0.4126" stop-color="#312F2F"/>
<stop offset="0.4943" stop-color="#272626"/>
<stop offset="0.5793" stop-color="#242323"/>
<stop offset="0.7233" stop-color="#1E1D1D"/>
<stop offset="0.9352" stop-color="#0A0A09"/>
<stop offset="1"/>
</linearGradient>
<linearGradient id="paint21_linear_2_9745" x1="29.3932" y1="26.1946" x2="41.6215" y2="26.1946" gradientUnits="userSpaceOnUse">
<stop stop-color="#53504F"/>
<stop offset="0.0586122" stop-color="#555251"/>
<stop offset="0.0921758" stop-color="#5C5959"/>
<stop offset="0.1194" stop-color="#696666"/>
<stop offset="0.1433" stop-color="#7D7A7A"/>
<stop offset="0.1647" stop-color="#9A9797"/>
<stop offset="0.1793" stop-color="#B5B3B3"/>
<stop offset="0.2826" stop-color="#807D7D"/>
<stop offset="0.3976" stop-color="#575454"/>
<stop offset="0.5148" stop-color="#3A3838"/>
<stop offset="0.633" stop-color="#242423"/>
<stop offset="0.7524" stop-color="#131312"/>
<stop offset="0.8737" stop-color="#050505"/>
<stop offset="1"/>
</linearGradient>
<linearGradient id="paint22_linear_2_9745" x1="29.6636" y1="18.662" x2="34.0155" y2="18.662" gradientUnits="userSpaceOnUse">
<stop stop-color="#242323"/>
<stop offset="0.0504722" stop-color="#262525"/>
<stop offset="0.079384" stop-color="#2D2C2B"/>
<stop offset="0.1029" stop-color="#383635"/>
<stop offset="0.1234" stop-color="#484545"/>
<stop offset="0.142" stop-color="#5E5B5A"/>
<stop offset="0.1593" stop-color="#7D7A7A"/>
<stop offset="0.1752" stop-color="#A8A5A5"/>
<stop offset="0.1793" stop-color="#B5B3B3"/>
<stop offset="0.2826" stop-color="#807D7D"/>
<stop offset="0.3976" stop-color="#575454"/>
<stop offset="0.5148" stop-color="#3A3838"/>
<stop offset="0.633" stop-color="#242423"/>
<stop offset="0.7524" stop-color="#131312"/>
<stop offset="0.8737" stop-color="#050505"/>
<stop offset="1"/>
</linearGradient>
<linearGradient id="paint23_linear_2_9745" x1="25.9453" y1="25.0859" x2="28.8096" y2="25.0859" gradientUnits="userSpaceOnUse">
<stop stop-color="#53504F"/>
<stop offset="0.0640478" stop-color="#555251"/>
<stop offset="0.1007" stop-color="#5C5959"/>
<stop offset="0.1305" stop-color="#696666"/>
<stop offset="0.1564" stop-color="#7D7A7A"/>
<stop offset="0.1793" stop-color="#999696"/>
<stop offset="0.2797" stop-color="#787474"/>
<stop offset="0.4188" stop-color="#565453"/>
<stop offset="0.5603" stop-color="#403E3D"/>
<stop offset="0.7032" stop-color="#312F2F"/>
<stop offset="0.8486" stop-color="#272626"/>
<stop offset="1" stop-color="#242323"/>
</linearGradient>
<linearGradient id="paint24_linear_2_9745" x1="41.0077" y1="7.11406" x2="41.3286" y2="7.81144" gradientUnits="userSpaceOnUse">
<stop stop-color="white"/>
<stop offset="0.1154" stop-color="#DCDADA"/>
<stop offset="0.9066" stop-color="#373534"/>
</linearGradient>
<linearGradient id="paint25_linear_2_9745" x1="37.0702" y1="14.3266" x2="48.641" y2="14.3266" gradientUnits="userSpaceOnUse">
<stop offset="0.6868" stop-color="white"/>
<stop offset="0.7177" stop-color="#F1F0F0"/>
<stop offset="0.7562" stop-color="#D8D6D6"/>
<stop offset="0.7989" stop-color="#B5B2B2"/>
<stop offset="0.8446" stop-color="#8A8787"/>
<stop offset="0.8926" stop-color="#5C5958"/>
<stop offset="0.9418" stop-color="#2F2D2D"/>
<stop offset="0.9797"/>
</linearGradient>
<linearGradient id="paint26_linear_2_9745" x1="36.3104" y1="43.319" x2="40.6971" y2="27.9915" gradientUnits="userSpaceOnUse">
<stop stop-color="#D5D3D3"/>
<stop offset="0.065934" stop-color="#373534"/>
<stop offset="0.2502" stop-color="#585554"/>
<stop offset="0.3517" stop-color="#676464"/>
<stop offset="0.4798" stop-color="#7E7B7B"/>
<stop offset="0.6044" stop-color="#918E8E"/>
<stop offset="0.7098" stop-color="#757171"/>
<stop offset="0.8713" stop-color="#545151"/>
<stop offset="0.9586" stop-color="#494646"/>
<stop offset="1" stop-color="#8C8888"/>
</linearGradient>
</defs>
</svg>
