<svg width="64" height="64" viewBox="0 0 64 64" fill="none" xmlns="http://www.w3.org/2000/svg">
<g clip-path="url(#clip0_2_44039)">
<path fill-rule="evenodd" clip-rule="evenodd" d="M63.4285 32.1077C63.4285 14.7281 49.3927 0.609375 32.0356 0.609375C14.7142 0.609375 0.678467 14.7281 0.678467 32.1077C0.678467 49.4873 14.7142 63.606 32.0713 63.606C49.3928 63.606 63.4285 49.4873 63.4285 32.1077Z" fill="#002E62"/>
<path fill-rule="evenodd" clip-rule="evenodd" d="M32.0713 2.90283C48.0713 2.90283 61.1785 15.9823 61.1785 32.1078C61.1785 48.1615 48.0713 61.3127 32.0713 61.3127C15.9999 61.3127 2.96418 48.1615 2.96418 32.1078C2.92847 15.9823 15.9999 2.90283 32.0713 2.90283Z" fill="#E3E3E3"/>
<path fill-rule="evenodd" clip-rule="evenodd" d="M60.1071 32.1079C60.1071 16.52 47.5356 3.97803 32.0714 3.97803C16.6071 3.97803 4.03564 16.52 4.03564 32.1079C4.03564 47.6242 16.6071 60.2378 32.0714 60.2378C47.4999 60.2378 60.1071 47.6242 60.1071 32.1079Z" fill="#002E62"/>
<path fill-rule="evenodd" clip-rule="evenodd" d="M17 20.4258C17.6071 20.9633 18.5357 21.9667 19.9286 21.9667C21.3929 21.9667 22.4643 21.4291 23.4643 21.4291C24.2143 21.4291 25.4643 21.8233 26.0714 23.1134C25.75 22.8625 25.0714 22.5042 23.9286 22.5042C23.1429 22.5042 21.7143 23.2925 20.5 23.2925C18.6786 23.2925 17.6071 21.7516 17 20.4258Z" fill="#E3E3E3"/>
<path fill-rule="evenodd" clip-rule="evenodd" d="M27.1784 15.1222L23.8213 7.34619C25.2141 7.34619 26.6427 7.95537 26.6427 9.10207C26.6427 9.42458 26.4999 9.85459 26.2499 10.2488C26.2499 10.3204 26.2499 10.3204 26.3213 10.3204C26.5713 10.0696 26.9284 9.85459 27.3213 9.85459C28.0713 9.85459 28.607 10.4638 28.607 11.1805C28.607 11.8613 28.0713 12.4705 27.3213 12.4705C27.2499 12.4705 27.107 12.4705 27.0713 12.4705C27.1427 12.7213 28.0713 13.2588 29.1427 13.2588C29.9284 13.2588 30.8927 12.9363 31.4284 11.8613C31.2141 12.0763 30.8927 12.1121 30.6427 12.1121C29.8927 12.1121 29.3213 11.5746 29.3213 10.8221C29.3213 10.0696 29.9284 9.49625 30.6427 9.49625C30.8927 9.49625 31.1784 9.56792 31.3927 9.71125C31.1427 9.49625 30.9284 9.17374 30.9284 8.77956C30.9284 8.09871 31.5356 7.48953 32.2499 7.48953C32.9999 7.48953 33.5713 8.09871 33.5713 8.77956C33.5713 9.10207 33.4284 9.46041 33.1784 9.63958C33.3927 9.56792 33.5713 9.49625 33.7856 9.49625C34.5356 9.49625 35.107 10.1054 35.107 10.8221C35.107 11.5388 34.4999 12.1121 33.7856 12.1121C33.4641 12.1121 33.1784 11.9688 32.9284 11.8613C33.1427 12.3988 34.1427 13.3305 35.3213 13.3305C35.9999 13.3305 36.7141 13.0797 37.3927 12.4705C37.3213 12.4705 37.2499 12.4705 37.1784 12.4705C36.3927 12.4705 35.7856 11.8613 35.7856 11.1805C35.7856 10.4279 36.3927 9.85459 37.1784 9.85459C37.4999 9.85459 37.857 10.0696 38.107 10.3204C38.107 10.3204 38.107 10.3204 38.1784 10.3204C38.1784 10.3204 38.2499 10.3204 38.2499 10.2488C37.9284 9.85459 37.7856 9.46041 37.7856 9.10207C37.7856 7.95537 39.1784 7.34619 40.5356 7.34619L37.3213 15.0506H27.5713C27.4284 15.0506 27.3213 15.0506 27.1784 15.1222Z" fill="#E9B528"/>
<path fill-rule="evenodd" clip-rule="evenodd" d="M26.1785 16.8067C26.3214 16.0183 26.9285 15.0508 27.5714 15.0508H37.2856C37.4999 15.2658 37.6785 15.5166 37.8928 15.8033C38.5714 15.5525 39.2142 15.4808 39.7499 15.4808C40.2142 15.4808 40.5356 15.5525 40.6071 15.5525C40.6071 15.5525 40.9999 15.6241 41.0714 15.7675C40.6071 16.8425 40.2856 17.4517 39.8571 17.9892C41.5356 19.7451 42.2142 21.8951 41.8571 24.6185C41.3928 24.3677 40.4642 23.9377 39.9285 23.8302C40.7856 25.156 41.0714 26.3744 41.0714 27.7361C41.0714 28.6678 40.8571 29.6712 40.4642 30.6387L40.1785 31.3912C39.6428 30.6387 39.2499 30.1012 38.6428 29.6353C38.7856 30.1012 38.9642 31.1045 38.9642 31.7854C38.9642 33.6129 38.2142 35.2255 36.5714 36.3005C36.2499 35.4405 35.5714 34.1504 34.8928 33.3621C34.9642 35.0463 34.8928 36.9814 34.2142 38.2714C32.9285 39.9556 31.2142 40.959 28.4642 41.6398C28.9285 40.4931 29.3214 37.483 29.1428 33.8638C28.6071 34.6521 27.9999 36.2288 27.8214 38.1639C27.1428 37.6264 25.1428 36.1572 25.1428 33.5413C25.1428 32.4662 25.5356 31.3912 26.2142 30.3162C25.2856 30.7104 24.6071 31.3195 23.9285 32.6812C23.7142 30.8179 24.0714 28.7753 24.9999 27.3061C22.6071 27.2344 21.9285 25.8369 22.0714 23.6868C22.7499 24.296 23.4642 24.6902 24.4642 24.6902C25.4642 24.6902 26.7499 24.296 27.9999 22.6118C27.3928 22.2893 26.8571 22.0743 26.4642 21.931C25.9999 21.7876 25.2499 21.6801 24.5356 20.7126C24.2856 20.3901 23.7856 20.3184 23.2499 20.3184C22.5714 20.3184 21.5714 20.4618 20.0356 21.2501C20.2856 17.2008 22.1428 15.9825 23.6071 15.9825C24.3571 15.9825 25.2142 16.2691 26.1785 16.8067Z" fill="#E3E3E3"/>
<path fill-rule="evenodd" clip-rule="evenodd" d="M18.1428 42.894C20.6071 42.894 22.8928 43.2882 22.8928 45.3666H19.5356C19.5356 44.5066 18.9285 44.3633 18.1428 44.3633C17.3928 44.3633 16.8571 44.5783 16.8571 45.1158C16.8571 45.6533 17.3214 45.9041 18.5356 45.9041C21.5356 45.9041 22.8928 46.4416 23.1428 47.8392L25.0714 43.0015H29.4285L31.4999 48.1617L33.6428 43.0015H37.9285L40.3571 48.735V43.0374H47.2499C48.9999 43.0374 49.3928 44.2557 49.3928 44.9724C49.3928 45.6533 49.1428 46.585 47.7856 46.8C49.3214 46.9433 49.6428 48.09 49.6428 48.735C49.6428 49.5234 49.0356 50.8134 47.5714 50.8134H38.2142L37.7499 49.595H33.9285L33.3928 50.8134H29.7142L29.1785 49.595H25.3571L24.8214 50.8134H21.8928L22.1428 50.1684C21.6785 50.5626 20.8571 51.0284 18.1785 51.0284C15.6428 51.0284 13.3571 50.4909 13.2856 48.4125H16.7142C16.7142 48.8784 17.0356 49.4159 18.1071 49.4159C19.4285 49.4159 19.5714 49.0217 19.5714 48.6634C19.5714 48.1975 19.2499 47.8033 17.6428 47.8033C15.2856 47.8033 13.6428 47.4092 13.6428 45.5099C13.6428 43.3957 16.1428 42.894 18.1428 42.894ZM34.6785 47.8033H37.0356L35.8214 44.9008L34.6785 47.8033ZM26.1071 47.8033H28.4642L27.2499 44.9008L26.1071 47.8033ZM45.6428 46.0833C45.8928 46.0833 46.1785 45.8325 46.1785 45.4741C46.1785 45.2233 45.8928 44.9366 45.6428 44.9366H43.1785V46.0833H45.6428ZM43.1785 48.8067H45.7856C46.1071 48.8067 46.3928 48.5559 46.3928 48.2692C46.3928 47.9467 46.1071 47.7317 45.7856 47.7317H43.1785V48.8067Z" fill="#E3E3E3"/>
<path fill-rule="evenodd" clip-rule="evenodd" d="M29.0358 17.9888C29.0358 18.2396 28.7143 18.6696 28.1072 18.6696C27.5715 18.6696 27.3215 18.3471 27.25 18.0604C27.1072 18.0604 27 18.0604 26.8572 17.9888C26.8572 18.9205 27.5358 19.2071 28.1786 19.2071C28.6429 19.2071 29.3929 19.0638 29.5715 17.9888C29.4286 17.9888 29.25 17.9888 29.0358 17.9888Z" fill="#CA0538"/>
<path fill-rule="evenodd" clip-rule="evenodd" d="M26.107 17.7384C25.1784 17.2009 24.2856 16.8425 23.607 16.8425C21.9999 16.8425 21.3213 18.6701 21.0713 19.6734C21.9284 19.4226 22.6784 19.2793 23.2856 19.2793C24.1427 19.2793 24.7499 19.4943 25.2141 20.0318C25.6784 20.7126 26.2856 20.8201 26.4999 20.8201C27.357 21.071 28.8927 21.6085 28.8927 22.361C28.8927 22.5043 28.8927 22.6835 28.6784 22.8985C27.1427 24.8336 25.7499 25.3711 24.5356 25.3711C23.9284 25.3711 23.4641 25.2277 23.0713 25.1202C23.3927 26.0519 24.357 26.2669 25.0713 26.2669C25.6784 26.2669 26.2141 26.1953 27.357 25.9444C26.1427 26.8761 25.1427 28.0945 24.8927 29.9579C25.9641 29.1695 27.107 28.9545 28.3213 28.9545C26.9284 30.4237 26.107 31.8929 26.107 33.398C26.107 34.9388 26.7856 35.7989 27.2499 36.3364C27.7856 33.8638 29.0713 32.3229 29.857 31.4987C30.3213 34.9747 30.0713 38.7373 29.7856 40.2423C31.2499 39.7048 32.5356 39.0239 33.5356 37.6981C34.1427 36.6947 34.2141 33.7205 33.9999 31.3196C35.2856 32.1079 36.3927 33.613 36.9284 34.7955C37.6784 34.043 38.0713 33.0396 38.0713 31.7137C38.0713 30.2445 37.607 28.8828 37.1427 27.8795C38.2141 28.202 39.1427 28.6678 39.8927 29.5637C40.107 28.8828 40.2141 28.2737 40.2141 27.6286C40.2141 25.2636 38.9284 23.6152 38.0713 22.7193C39.4641 22.7193 40.2856 22.9702 41.0713 23.2569C41.1427 21.7877 40.7499 20.0318 39.3927 18.6342C38.1784 20.0318 37.0356 20.856 34.7856 21.6443C36.7856 23.1852 36.1784 25.5503 34.3213 27.8795C34.107 26.8761 33.857 26.0161 33.1784 25.2636C33.3213 26.5536 32.9641 28.8828 30.357 30.1729C30.4284 29.1695 30.2856 28.3095 30.107 27.4136C29.8927 27.6286 29.5713 27.8795 29.2499 28.1662C29.1784 27.9153 29.107 27.4136 29.1784 27.0911C29.6427 26.6969 30.0356 26.1594 30.4999 25.6219C30.8927 26.6253 31.107 27.987 31.1784 28.5603C32.107 27.7003 32.857 26.0878 31.9284 23.1852C33.3213 23.9377 34.0713 24.6544 34.607 25.8728C36.0713 23.4002 34.5356 22.1102 32.2499 21.2501C34.9284 20.9276 38.2141 19.7093 39.8927 16.3408C38.7499 16.2692 36.9999 16.6634 35.357 18.8134C35.1427 18.6701 34.8927 18.4909 34.8213 18.2759C35.4999 17.3442 36.2856 16.5917 37.1784 16.1258C37.107 15.9825 37.0356 15.875 36.9641 15.875H27.6784C27.357 15.875 26.9999 16.4842 26.8927 17.165C27.107 17.2367 27.4284 17.2367 27.7499 17.2367C28.0713 17.2367 28.4284 17.2367 28.8213 17.2367C29.4999 17.2367 30.4999 17.3084 31.107 17.7025C30.9999 17.9176 30.857 18.1326 30.7141 18.2759C30.5713 18.2042 30.4641 18.2042 30.3213 18.1326C29.9999 19.6734 28.9284 19.9959 28.1784 19.9959C26.2856 20.0318 25.9641 18.5267 26.107 17.7384Z" fill="#CA0538"/>
</g>
<defs>
<clipPath id="clip0_2_44039">
<rect width="64" height="64" fill="white"/>
</clipPath>
</defs>
</svg>
