<svg width="117" height="82" viewBox="0 0 117 82" fill="none" xmlns="http://www.w3.org/2000/svg">
<g clip-path="url(#clip0_2_44955)">
<path fill-rule="evenodd" clip-rule="evenodd" d="M18.1447 69.4877C17.902 67.3617 12.1976 64.8106 12.1976 64.8106C10.7412 63.8995 11.348 62.7454 11.348 62.7454C12.2583 60.741 17.0524 62.624 17.0524 62.624L17.9627 60.4373C15.4139 58.4936 12.1976 58.9188 12.1976 58.9188C8.19242 59.4047 7.64626 62.0773 7.64626 62.0773C6.73599 66.2077 9.89159 67.1795 9.89159 67.1795C12.8045 68.5158 13.654 69.1232 13.654 69.1232C16.0207 70.6417 13.9575 71.6743 13.9575 71.6743C11.348 72.8891 8.13174 71.1884 8.13174 71.1884L7.1001 73.5573C9.77022 75.3795 13.9575 74.5899 13.9575 74.5899C19.1763 73.861 18.1447 69.4877 18.1447 69.4877Z" fill="#003671"/>
<path fill-rule="evenodd" clip-rule="evenodd" d="M26.6406 70.3381C26.4586 68.6373 21.8465 66.5721 21.8465 66.5721C20.6328 65.8432 21.179 64.9321 21.179 64.9321C21.9072 63.2921 25.791 64.8107 25.791 64.8107L26.5192 63.0492C24.456 61.5307 21.8465 61.8344 21.8465 61.8344C18.6302 62.1988 18.1448 64.3855 18.1448 64.3855C17.4165 67.7262 19.9653 68.5158 19.9653 68.5158C22.332 69.6092 22.9995 70.0951 22.9995 70.0951C24.9414 71.3707 23.2423 72.1603 23.2423 72.1603C21.179 73.1321 18.5089 71.7958 18.5089 71.7958L17.72 73.7395C19.9046 75.1973 23.2423 74.5899 23.2423 74.5899C27.4902 73.861 26.6406 70.3381 26.6406 70.3381Z" fill="#003671"/>
<path fill-rule="evenodd" clip-rule="evenodd" d="M30.5245 62.0771L25.9731 74.3468L28.5826 74.4075L29.7963 71.7349H35.3186L36.5323 74.1646H39.081L34.3476 62.1379H30.5245V62.0771ZM30.6459 69.5483L32.4057 65.2964L34.2869 69.5483H30.6459Z" fill="#003671"/>
<path fill-rule="evenodd" clip-rule="evenodd" d="M47.4553 70.1558L42.3578 62.1987H38.9595V74.1039L41.4475 74.1647V66.3291L46.9092 74.5291H50.0041V62.2595H47.4553V70.1558Z" fill="#003671"/>
<path fill-rule="evenodd" clip-rule="evenodd" d="M61.1094 67.6046H56.9222V69.4876H59.7744V72.3424C57.8325 73.0713 55.8299 72.2817 55.8299 72.2817C51.8247 69.6091 54.0093 66.2683 54.0093 66.2683C56.4974 62.3809 62.3838 64.8105 62.3838 64.8105V62.5631C55.223 60.255 52.1281 64.1424 52.1281 64.1424C48.0622 69.7305 53.0991 73.4357 53.0991 73.4357C58.0752 76.5335 62.8086 73.8002 62.8086 73.8002V69.3661C62.6872 67.4224 61.1094 67.6046 61.1094 67.6046Z" fill="#003671"/>
<path fill-rule="evenodd" clip-rule="evenodd" d="M108.201 67.6046H104.013V69.4876H106.805V72.3424C104.863 73.0713 102.86 72.2817 102.86 72.2817C98.8552 69.6091 101.04 66.2683 101.04 66.2683C103.528 62.3809 109.414 64.8105 109.414 64.8105V62.5631C102.254 60.255 99.1586 64.1424 99.1586 64.1424C95.0928 69.7305 100.13 73.4357 100.13 73.4357C105.106 76.5335 109.839 73.8002 109.839 73.8002V69.3661C109.778 67.4224 108.201 67.6046 108.201 67.6046Z" fill="#003671"/>
<path fill-rule="evenodd" clip-rule="evenodd" d="M72.2754 59.4653L68.4523 65.7824L64.6292 59.5868H61.2915L66.9959 68.8801L63.8403 74.8327H66.8745L75.6131 59.4653H72.2754Z" fill="#003671"/>
<path fill-rule="evenodd" clip-rule="evenodd" d="M78.7081 61.895C75.1277 61.895 72.2148 64.8106 72.2148 68.3943C72.2148 71.978 75.1277 74.8935 78.7081 74.8935C82.2885 74.8935 85.2014 71.978 85.2014 68.3943C85.2014 64.8106 82.2885 61.895 78.7081 61.895ZM78.7081 72.4032C76.5235 72.4032 74.7636 70.6417 74.7636 68.455C74.7636 66.2684 76.5235 64.5069 78.7081 64.5069C80.8927 64.5069 82.6526 66.2684 82.6526 68.455C82.6526 70.6417 80.8927 72.4032 78.7081 72.4032Z" fill="#003671"/>
<path fill-rule="evenodd" clip-rule="evenodd" d="M94.6073 70.0342L89.5098 62.1379H86.0508V74.4075L88.6602 74.3468V66.3897L94.0612 74.4683H97.2774V62.0771H94.6073V70.0342Z" fill="#003671"/>
<path fill-rule="evenodd" clip-rule="evenodd" d="M91.6338 21.6238C89.7526 14.6386 80.6499 11.0549 80.6499 11.0549C78.2225 10.1438 79.1934 11.5408 79.1934 11.5408C79.1934 11.5408 89.6312 16.4 89.6312 23.0815C89.6312 31.3423 78.2832 33.8326 78.2832 33.8326C88.5995 30.5526 88.6602 23.5067 88.6602 23.5067C88.4782 16.4608 79.1934 11.5408 79.1934 11.5408C75.613 9.53635 73.6711 8.98968 73.6711 8.98968C68.9984 7.41042 70.5155 9.23264 70.5155 9.23264C70.5155 9.23264 84.5337 13.6667 84.5337 23.446C84.5337 33.4075 64.9932 36.6267 64.9932 36.6267C83.3807 33.2252 83.3807 23.5067 83.3807 23.5067C83.3807 14.7601 70.5155 9.23264 70.5155 9.23264C68.5736 8.20005 65.2966 7.34968 65.2966 7.34968C62.2624 6.68153 63.9616 8.01783 63.9616 8.01783C76.2806 15.246 76.2806 23.203 76.2806 23.203C76.2806 32.0712 68.1488 34.2578 68.1488 34.2578C65.7821 35.1689 61.2308 35.8978 61.2308 35.8978C60.5026 36.1408 59.9564 36.6267 59.9564 37.2341C59.9564 37.4771 60.0171 37.72 60.1991 37.9023C60.6239 38.3882 62.141 39.4815 62.141 39.4815C62.6872 39.9675 62.9906 40.6356 62.9906 41.3038C62.9906 42.9438 61.1094 44.3408 58.682 44.3408H58.5C56.1333 44.28 54.1913 42.9438 54.1913 41.3038C54.1913 40.6356 54.4948 40.0282 55.0409 39.4815C55.0409 39.4815 56.5581 38.3882 56.9828 37.9023C57.1649 37.72 57.2256 37.4771 57.2256 37.2341C57.2256 36.6267 56.6794 36.1408 55.9512 35.8978C55.9512 35.8978 51.3999 35.1689 49.0332 34.2578C49.0332 34.2578 40.9014 32.0712 40.9014 23.203C40.9014 23.203 40.9014 15.246 53.2204 8.01783C53.2204 8.01783 54.9196 6.68153 51.8853 7.34968C51.8853 7.34968 48.6084 8.20005 46.6665 9.23264C46.6665 9.23264 33.8013 14.7601 33.8013 23.5067C33.8013 23.5067 33.8013 33.1645 52.1888 36.6267C52.1888 36.6267 32.6483 33.4075 32.6483 23.446C32.6483 13.6667 46.6665 9.23264 46.6665 9.23264C46.6665 9.23264 48.1836 7.41042 43.5108 8.98968C43.5108 8.98968 41.5689 9.4756 37.9885 11.5408C37.9885 11.5408 28.7645 16.4608 28.5824 23.5067C28.5824 23.5067 28.5824 30.5526 38.9595 33.8326C38.9595 33.8326 27.6115 31.3423 27.6115 23.0815C27.8542 16.4 38.292 11.5408 38.292 11.5408C38.292 11.5408 39.2629 10.1438 36.8355 11.0549C36.8355 11.0549 27.7935 14.5778 25.8516 21.6238C25.8516 21.6238 25.3055 24.2356 26.0944 26.1793C27.126 28.5482 29.7961 32.4356 36.5928 34.6223C36.5928 34.6223 39.6877 35.8978 52.0067 38.3275L52.7349 38.5097C52.7349 38.5097 53.2811 38.7526 52.8563 39.1778L51.1571 40.6356C51.1571 40.6356 48.669 42.5793 52.2494 44.1586C52.2494 44.1586 54.4341 44.8875 55.9512 46.5275C55.9512 46.5275 56.9222 47.4386 58.6213 47.4993H58.7427H58.8034H58.8641C60.5632 47.4386 61.5342 46.5275 61.5342 46.5275C63.0513 44.8875 65.236 44.1586 65.236 44.1586C68.8163 42.5186 66.3283 40.6356 66.3283 40.6356L64.6291 39.1778C64.265 38.7526 64.7505 38.5097 64.7505 38.5097L65.4787 38.3275C77.7977 35.8371 80.8926 34.6223 80.8926 34.6223C87.6893 32.4356 90.2987 28.5482 91.3304 26.1793C92.1799 24.2356 91.6338 21.6238 91.6338 21.6238Z" fill="#003671"/>
</g>
<defs>
<clipPath id="clip0_2_44955">
<rect width="117" height="82" fill="white"/>
</clipPath>
</defs>
</svg>
