<svg width="84" height="68" viewBox="0 0 84 68" fill="none" xmlns="http://www.w3.org/2000/svg">
<path d="M41.9855 60.7562C41.9855 56.7764 45.2375 53.541 49.3025 53.541C53.2804 53.541 56.5614 56.7764 56.6195 60.7562C56.5324 64.7073 53.2804 67.9141 49.3025 67.9713C45.2375 67.9427 41.9565 64.7073 41.9855 60.7562ZM49.3025 65.3372C51.5092 65.3086 53.3385 63.2758 53.3385 60.7848C53.3094 58.2366 51.4802 56.2038 49.3025 56.2324C47.0087 56.2038 45.1795 58.2652 45.2666 60.7848C45.1795 63.2471 47.0087 65.3086 49.3025 65.3372Z" fill="#E4032E"/>
<path d="M64.9238 56.5761V67.5992H61.817V56.5761H57.4036V54.1138H69.163V56.5761H64.9238Z" fill="#E4032E"/>
<path d="M72.8214 64.5643L71.66 67.5992H68.0015L73.7796 54.1138H77.6413L83.2452 67.5992H79.5576L78.3962 64.5643H72.8214ZM75.6959 62.2738H77.6122L75.6959 57.3205L73.7796 62.2738H75.6959Z" fill="#E4032E"/>
<path d="M8.24617 56.5761V67.5992H5.1684V56.5761H0.929199V54.1138H12.4854V56.5761H8.24617Z" fill="#E4032E"/>
<path d="M13.2693 60.7562C13.2693 56.7764 16.5503 53.541 20.5863 53.541C24.5932 53.541 27.8452 56.7764 27.9032 60.7562C27.8452 64.7073 24.5932 67.9141 20.5863 67.9713C16.5213 67.9427 13.2693 64.7073 13.2693 60.7562ZM20.5863 65.3372C22.822 65.3086 24.6222 63.2758 24.6222 60.7848C24.6222 58.2366 22.793 56.2038 20.5863 56.2324C18.3215 56.2038 16.4922 58.2652 16.5503 60.7848C16.4922 63.2471 18.2924 65.3086 20.5863 65.3372Z" fill="#E4032E"/>
<path d="M34.8428 67.5992H36.3817V62.4742L41.7823 54.1138H38.3271L34.8428 59.8115L31.5618 54.1138H27.9033L33.3039 62.4742V67.5992H34.8428Z" fill="#E4032E"/>
<path d="M3.80371 24.423C3.80371 37.0781 20.6153 47.3855 41.2596 47.3855C61.9039 47.3855 78.7156 37.0781 78.7156 24.423C78.7156 11.7678 61.9039 1.46045 41.2596 1.46045C20.6153 1.46045 3.80371 11.7678 3.80371 24.423ZM4.18117 24.423C4.18117 11.9682 20.8186 1.83266 41.2596 1.83266C61.7007 1.83266 78.3381 11.9682 78.3381 24.423C78.3381 36.8777 61.7007 47.0133 41.2596 47.0133C20.7895 47.0133 4.18117 36.8777 4.18117 24.423Z" fill="#C1C1C1"/>
<path d="M37.6882 5.69758C29.1227 6.21295 22.6768 8.47484 21.6606 11.338C21.5735 11.6243 21.5154 11.882 21.5154 12.1683C21.5154 12.6264 21.6315 13.0559 21.8928 13.4854C23.0543 15.4609 26.7708 17.0929 32.0843 17.9805L32.2586 18.0092L32.2876 17.8374C33.1877 12.3687 35.2202 8.074 37.8044 6.01252L38.2399 5.66895L37.6882 5.69758ZM22.2122 13.3136C21.98 12.9414 21.8638 12.5692 21.8638 12.1683C21.8638 11.9393 21.8928 11.7102 21.98 11.4525C22.9091 8.81842 29.1517 6.64242 37.1946 6.09842C34.7556 8.27442 32.8683 12.426 31.9682 17.6083C26.945 16.7207 23.2866 15.146 22.2122 13.3136Z" fill="#C1C1C1"/>
<path d="M36.4397 18.2955L36.4106 18.4959L36.6139 18.5245C38.1237 18.639 39.6917 18.6963 41.2596 18.6963C42.8275 18.6963 44.3954 18.639 45.9053 18.5245L46.1085 18.4959L46.0795 18.2955C45.2665 13.743 43.4082 10.8799 41.2886 10.8799C39.111 10.9085 37.2817 13.743 36.4397 18.2955ZM41.2596 11.2521C43.1759 11.2521 44.86 13.8862 45.673 18.1523C44.2503 18.2668 42.7694 18.3241 41.2596 18.3241C39.7788 18.3241 38.298 18.2668 36.8462 18.1523C37.6592 13.9148 39.3432 11.2521 41.2596 11.2521Z" fill="#C1C1C1"/>
<path d="M44.6858 6.01252C47.2699 8.074 49.3024 12.3687 50.2025 17.8374L50.2316 18.0092L50.4058 17.9805C55.7193 17.0929 59.4358 15.4609 60.5973 13.4854C61.0038 12.7696 61.0909 12.0538 60.8296 11.338C59.8133 8.47484 53.3674 6.21295 44.8019 5.69758L44.2212 5.66895L44.6858 6.01252ZM45.2955 6.09842C53.3384 6.67105 59.552 8.84705 60.5102 11.4525C60.5973 11.6816 60.6263 11.9106 60.6263 12.1683C60.6263 12.5405 60.5102 12.9414 60.2779 13.3136C59.2036 15.146 55.5451 16.7207 50.4929 17.6083C49.6218 12.426 47.7345 8.27442 45.2955 6.09842Z" fill="#C1C1C1"/>
<path d="M15.9406 13.7717C12.0498 16.9784 9.98828 20.7864 9.98828 24.7662C9.98828 34.2147 21.7767 42.2029 37.3979 43.3481L37.9496 43.3768L37.5431 43.0332C34.0007 40.0269 31.794 32.9835 31.794 24.6231L31.8231 22.9911L31.6779 22.9624C23.0543 21.445 17.1601 17.9519 16.26 13.8576L16.2019 13.5713L15.9406 13.7717ZM10.3657 24.7662C10.3657 20.9582 12.3111 17.322 15.9696 14.2298C17.073 18.2955 22.9382 21.7599 31.4456 23.2774C31.4456 23.5351 31.4166 24.6231 31.4166 24.6231C31.4166 32.7831 33.5071 39.7119 36.9043 42.9473C21.7477 41.6589 10.3657 33.8997 10.3657 24.7662Z" fill="#C1C1C1"/>
<path d="M35.9751 23.7356V23.936C35.9751 31.2657 38.2979 36.992 41.2596 36.992C44.2212 36.992 46.5441 31.2657 46.5441 23.936V23.5352L46.3408 23.5638C44.6858 23.7069 42.9727 23.7928 41.2596 23.7928C39.5465 23.7928 37.8334 23.7069 36.1783 23.5638L35.9751 23.5352V23.7356ZM36.3526 23.936C37.9495 24.0505 39.6045 24.1364 41.2596 24.1364C42.9146 24.1364 44.5696 24.0792 46.1666 23.936V23.9646C46.1666 31.0939 44.018 36.6771 41.2596 36.6771C38.5012 36.6484 36.3526 31.0653 36.3526 23.936Z" fill="#C1C1C1"/>
<path d="M66.2592 13.8576C65.3591 17.9519 59.4648 21.4163 50.8413 22.9624L50.6961 22.9911L50.7251 24.6231C50.7251 32.9835 48.5184 40.0269 44.9761 43.0332L44.5696 43.3768L45.1213 43.3481C60.7424 42.2029 72.5309 34.2147 72.5309 24.7662C72.5309 20.7864 70.4693 16.9784 66.5786 13.7717L66.3463 13.5713L66.2592 13.8576ZM66.5495 14.2298C70.208 17.322 72.1534 20.9582 72.1534 24.7662C72.1534 33.9283 60.7715 41.6589 45.6149 42.9473C49.012 39.7119 51.1026 32.7831 51.1026 24.6231C51.1026 24.6231 51.0736 23.5351 51.0736 23.2774C59.552 21.7599 65.4171 18.2955 66.5495 14.2298Z" fill="#C1C1C1"/>
<path d="M66.2884 10.8226C66.3464 10.9657 66.4045 11.1089 66.4335 11.2807C66.6658 12.1396 66.6077 12.9699 66.3174 13.8003C70.092 16.8638 72.3278 20.6718 72.3278 24.7662C72.3278 35.0163 58.4197 43.3194 41.2597 43.3194C24.0996 43.3194 10.1916 35.0163 10.1916 24.7662C10.1916 20.6718 12.4273 16.8638 16.2019 13.8003C15.9116 12.9699 15.8825 12.1396 16.0858 11.2807C16.1148 11.1375 16.2019 10.9657 16.26 10.7939C11.0917 14.4302 7.98486 19.1544 7.98486 24.3653C7.98486 35.7034 22.8801 44.9228 41.2597 44.9228C59.6392 44.9228 74.5345 35.732 74.5345 24.3653C74.5345 19.183 71.4277 14.4302 66.2884 10.8226Z" fill="url(#paint0_linear_2_44980)"/>
<path d="M36.6139 18.3528L35.6558 19.04C36.4397 13.1418 38.6464 9.39111 41.2306 9.39111C43.8148 9.39111 46.0215 13.1705 46.8054 19.04L45.8473 18.3528C45.0343 13.8863 43.2631 11.109 41.2306 11.109C39.1981 11.0804 37.4269 13.8863 36.6139 18.3528Z" fill="url(#paint1_linear_2_44980)"/>
<path d="M47.1249 22.3325L46.3409 23.7355C46.3409 23.7927 46.3409 23.8786 46.3409 23.9359C46.3409 31.2656 44.0471 36.8201 41.2597 36.8201C38.4433 36.8201 36.1785 31.2656 36.1785 23.9359C36.1785 23.85 36.1785 23.7641 36.1785 23.7068L35.3945 22.3612C35.3655 22.8765 35.3655 23.4205 35.3655 23.9645C35.3655 32.2677 38.0077 38.5666 41.2597 38.5666C44.5117 38.5666 47.1539 32.2677 47.1539 23.9645C47.1539 23.3919 47.1539 22.8479 47.1249 22.3325Z" fill="url(#paint2_linear_2_44980)"/>
<path d="M45.8761 18.353C44.3953 18.4675 42.8564 18.5248 41.2595 18.5248C39.6625 18.5248 38.0946 18.4675 36.6428 18.353L35.6846 19.0401C37.4558 19.1833 39.3141 19.2692 41.2595 19.2692C43.2049 19.2692 45.0631 19.1833 46.8343 19.0401L45.8761 18.353ZM62.862 11.1378C61.7005 7.32982 52.0607 4.52393 41.2304 4.52393C30.4002 4.52393 20.7894 7.32982 19.5989 11.1378C18.5827 14.4305 24.1285 17.494 32.8391 18.6966L32.0842 17.7803C25.0286 16.6065 20.8184 14.0582 21.7766 11.3669C22.938 8.10287 31.4745 5.72645 41.2014 5.72645C50.9283 5.72645 59.4358 8.10287 60.6262 11.3669C61.5844 14.0582 57.4033 16.5778 50.3186 17.7803L49.5637 18.6966C58.3614 17.494 63.8782 14.4591 62.862 11.1378Z" fill="url(#paint3_linear_2_44980)"/>
<path d="M66.3173 13.8004C67.7691 14.9743 68.9886 16.2628 69.9178 17.6084C69.5693 15.4038 68.6983 13.371 67.3626 11.6531C67.0142 11.3668 66.6367 11.1091 66.2593 10.8228C66.3173 10.9659 66.3754 11.1091 66.4045 11.2809C66.6658 12.1398 66.6077 12.9701 66.3173 13.8004Z" fill="#3C3C3B"/>
<path d="M16.1729 13.8003C15.8826 12.9699 15.8535 12.1396 16.0568 11.2807C16.0858 11.1375 16.1729 10.9657 16.231 10.7939C15.8245 11.0803 15.447 11.3666 15.0986 11.6529C13.792 13.3708 12.8919 15.4036 12.5435 17.6083C13.5307 16.2626 14.7502 14.9742 16.1729 13.8003Z" fill="#3C3C3B"/>
<path d="M3.97778 24.4226C3.97778 11.8533 20.6733 1.63184 41.2595 1.63184C61.8457 1.63184 78.5122 11.8247 78.5122 24.4226C78.5122 36.9918 61.8167 47.2133 41.2595 47.2133C20.6733 47.1847 3.97778 36.9918 3.97778 24.4226ZM41.2595 44.8942C59.639 44.8942 74.5343 35.7034 74.5343 24.3367C74.5343 12.9986 59.639 3.7792 41.2595 3.7792C22.88 3.7792 7.9847 12.9699 7.9847 24.3367C7.9847 35.7034 22.88 44.8942 41.2595 44.8942Z" fill="url(#paint4_linear_2_44980)"/>
<path d="M7.75244 24.3653C7.75244 35.8179 22.7929 45.1232 41.2595 45.1232C59.7262 45.1232 74.7666 35.8179 74.7666 24.3653C74.7666 12.9127 59.7262 3.60742 41.2595 3.60742C22.7929 3.60742 7.75244 12.9127 7.75244 24.3653ZM8.18798 24.3653C8.18798 13.1417 23.0252 4.0369 41.2595 4.0369C59.4939 4.0369 74.3311 13.1704 74.3311 24.3653C74.3311 35.5889 59.4939 44.6937 41.2595 44.6937C23.0252 44.6937 8.18798 35.5603 8.18798 24.3653Z" fill="white"/>
<path d="M32.4907 24.623C32.4907 13.6571 36.4105 4.55225 41.2304 4.55225C46.0503 4.55225 49.9702 13.6571 49.9702 24.623C49.9702 35.7034 46.0503 44.6937 41.2304 44.6937C36.4105 44.6937 32.4907 35.7034 32.4907 24.623ZM41.2595 38.5379C44.5115 38.5379 47.1537 32.239 47.1537 23.9358C47.1537 15.3177 44.5115 9.39098 41.2595 9.39098C38.0075 9.39098 35.3652 15.3177 35.3652 23.9358C35.3652 32.239 38.0075 38.5379 41.2595 38.5379Z" fill="url(#paint5_linear_2_44980)"/>
<path d="M16.0858 11.2809C17.044 7.53016 28.6583 2.06152 41.2597 2.06152C53.8612 2.06152 65.0689 5.95542 66.4336 11.2809C67.9434 17.2363 56.7647 22.619 41.2597 22.619C25.7547 22.619 14.547 17.2363 16.0858 11.2809ZM41.2597 4.55247C30.4294 4.55247 20.8186 7.35837 19.6282 11.1664C18.3216 15.4325 27.9324 19.2977 41.2597 19.2977C54.5871 19.2977 64.1978 15.4325 62.8912 11.1664C61.7008 7.32973 52.061 4.55247 41.2597 4.55247Z" fill="url(#paint6_linear_2_44980)"/>
<path d="M35.3654 22.3327L36.1784 23.7357C37.8043 23.8788 39.4884 23.9647 41.2596 23.9647C43.0308 23.9647 44.7148 23.8788 46.3408 23.7357L47.1248 22.3613C45.2665 22.5331 43.2921 22.619 41.2596 22.619C39.1981 22.619 37.2527 22.5045 35.3654 22.3327ZM66.5786 12.5693C66.3754 16.8354 59.7553 20.5862 49.9412 22.0178L50.8994 23.1344C60.4812 21.4451 66.7819 17.2649 66.5786 12.5693ZM15.9405 12.5693C15.7083 17.2649 22.009 21.4451 31.6198 23.1344L32.5779 22.0178C22.7639 20.5862 16.1438 16.8068 15.9405 12.5693Z" fill="url(#paint7_linear_2_44980)"/>
<path d="M49.6218 18.7249L50.3767 17.8087C49.0701 9.87772 45.4697 4.55225 41.2595 4.55225C45.1793 4.55225 48.5184 10.5649 49.6218 18.7249Z" fill="url(#paint8_linear_2_44980)"/>
<path d="M32.8973 18.7249C34.0006 10.5649 37.3397 4.55225 41.2595 4.55225C37.0494 4.55225 33.4489 9.87772 32.1423 17.8087L32.8973 18.7249Z" fill="url(#paint9_linear_2_44980)"/>
<path d="M32.4909 24.6231C32.4909 23.7355 32.52 22.8765 32.578 22.0176L31.6199 23.1342C31.5908 23.6209 31.5908 24.1077 31.5908 24.6231C31.5908 36.362 35.83 44.6938 41.2597 44.6938C36.4107 44.6938 32.4909 35.7035 32.4909 24.6231Z" fill="url(#paint10_linear_2_44980)"/>
<path d="M50.8994 23.1342L49.9412 22.0176C49.9993 22.8765 50.0283 23.7355 50.0283 24.6231C50.0283 35.7035 46.1085 44.6938 41.2886 44.6938C46.7182 44.6938 50.9574 36.362 50.9574 24.6231C50.9284 24.1077 50.8994 23.6209 50.8994 23.1342Z" fill="url(#paint11_linear_2_44980)"/>
<defs>
<linearGradient id="paint0_linear_2_44980" x1="41.2536" y1="42.3697" x2="41.2536" y2="16.415" gradientUnits="userSpaceOnUse">
<stop stop-color="#DADADA"/>
<stop offset="0.1575" stop-color="#F6F6F6"/>
<stop offset="0.1753" stop-color="#F4F4F4"/>
<stop offset="0.2667" stop-color="#EEEEEE"/>
<stop offset="0.44" stop-color="#EDEDED"/>
<stop offset="0.5376" stop-color="#DCDCDC"/>
<stop offset="0.7429" stop-color="#ADADAD"/>
<stop offset="1" stop-color="#646363"/>
</linearGradient>
<linearGradient id="paint1_linear_2_44980" x1="46.0018" y1="20.0111" x2="37.173" y2="12.4984" gradientUnits="userSpaceOnUse">
<stop stop-color="#EDEDED"/>
<stop offset="0.44" stop-color="#EDEDED"/>
<stop offset="0.5376" stop-color="#DCDCDC"/>
<stop offset="0.7429" stop-color="#ADADAD"/>
<stop offset="1" stop-color="#646363"/>
</linearGradient>
<linearGradient id="paint2_linear_2_44980" x1="46.8626" y1="32.1526" x2="34.035" y2="24.6421" gradientUnits="userSpaceOnUse">
<stop stop-color="#EDEDED"/>
<stop offset="0.44" stop-color="#EDEDED"/>
<stop offset="0.5376" stop-color="#DCDCDC"/>
<stop offset="0.7429" stop-color="#ADADAD"/>
<stop offset="1" stop-color="#646363"/>
</linearGradient>
<linearGradient id="paint3_linear_2_44980" x1="41.2528" y1="22.5921" x2="41.2528" y2="8.52808" gradientUnits="userSpaceOnUse">
<stop stop-color="#EDEDED"/>
<stop offset="0.44" stop-color="#EDEDED"/>
<stop offset="0.5376" stop-color="#DCDCDC"/>
<stop offset="0.7429" stop-color="#ADADAD"/>
<stop offset="1" stop-color="#646363"/>
</linearGradient>
<linearGradient id="paint4_linear_2_44980" x1="41.2528" y1="1.6396" x2="41.2528" y2="47.1972" gradientUnits="userSpaceOnUse">
<stop stop-color="#D0D0D0"/>
<stop offset="0.0562547" stop-color="#DFDFDF"/>
<stop offset="0.12" stop-color="#EDEDED"/>
<stop offset="0.1268" stop-color="#F0F0F0"/>
<stop offset="0.1488" stop-color="#F5F5F5"/>
<stop offset="0.21" stop-color="#F6F6F6"/>
<stop offset="0.545" stop-color="#F6F6F6"/>
<stop offset="0.581" stop-color="#E3E3E3"/>
<stop offset="0.6533" stop-color="#C0C0BF"/>
<stop offset="0.7257" stop-color="#A1A0A0"/>
<stop offset="0.7972" stop-color="#878787"/>
<stop offset="0.8674" stop-color="#747373"/>
<stop offset="0.9357" stop-color="#686767"/>
<stop offset="1" stop-color="#646363"/>
</linearGradient>
<linearGradient id="paint5_linear_2_44980" x1="41.2534" y1="1.63775" x2="41.2534" y2="47.1945" gradientUnits="userSpaceOnUse">
<stop stop-color="#D0D0D0"/>
<stop offset="0.0562547" stop-color="#DFDFDF"/>
<stop offset="0.12" stop-color="#EDEDED"/>
<stop offset="0.1268" stop-color="#F0F0F0"/>
<stop offset="0.1488" stop-color="#F5F5F5"/>
<stop offset="0.21" stop-color="#F6F6F6"/>
<stop offset="0.545" stop-color="#F6F6F6"/>
<stop offset="0.581" stop-color="#E3E3E3"/>
<stop offset="0.6533" stop-color="#C0C0BF"/>
<stop offset="0.7257" stop-color="#A1A0A0"/>
<stop offset="0.7972" stop-color="#878787"/>
<stop offset="0.8674" stop-color="#747373"/>
<stop offset="0.9357" stop-color="#686767"/>
<stop offset="1" stop-color="#646363"/>
</linearGradient>
<linearGradient id="paint6_linear_2_44980" x1="41.2531" y1="1.64107" x2="41.2531" y2="47.1992" gradientUnits="userSpaceOnUse">
<stop stop-color="#D0D0D0"/>
<stop offset="0.0562547" stop-color="#DFDFDF"/>
<stop offset="0.12" stop-color="#EDEDED"/>
<stop offset="0.1268" stop-color="#F0F0F0"/>
<stop offset="0.1488" stop-color="#F5F5F5"/>
<stop offset="0.21" stop-color="#F6F6F6"/>
<stop offset="0.545" stop-color="#F6F6F6"/>
<stop offset="0.581" stop-color="#E3E3E3"/>
<stop offset="0.6533" stop-color="#C0C0BF"/>
<stop offset="0.7257" stop-color="#A1A0A0"/>
<stop offset="0.7972" stop-color="#878787"/>
<stop offset="0.8674" stop-color="#747373"/>
<stop offset="0.9357" stop-color="#686767"/>
<stop offset="1" stop-color="#646363"/>
</linearGradient>
<linearGradient id="paint7_linear_2_44980" x1="41.2535" y1="11.0862" x2="41.2535" y2="24.0709" gradientUnits="userSpaceOnUse">
<stop offset="0.005618" stop-color="#EDEDED"/>
<stop offset="1" stop-color="#706F6F"/>
</linearGradient>
<linearGradient id="paint8_linear_2_44980" x1="45.8141" y1="1.63907" x2="45.8141" y2="23.9426" gradientUnits="userSpaceOnUse">
<stop stop-color="#EDEDED"/>
<stop offset="0.44" stop-color="#EDEDED"/>
<stop offset="0.5376" stop-color="#DCDCDC"/>
<stop offset="0.7429" stop-color="#ADADAD"/>
<stop offset="1" stop-color="#646363"/>
</linearGradient>
<linearGradient id="paint9_linear_2_44980" x1="36.6922" y1="1.63907" x2="36.6922" y2="23.9426" gradientUnits="userSpaceOnUse">
<stop stop-color="#EDEDED"/>
<stop offset="0.44" stop-color="#EDEDED"/>
<stop offset="0.5376" stop-color="#DCDCDC"/>
<stop offset="0.7429" stop-color="#ADADAD"/>
<stop offset="1" stop-color="#646363"/>
</linearGradient>
<linearGradient id="paint10_linear_2_44980" x1="36.4213" y1="1.63902" x2="36.4213" y2="38.5241" gradientUnits="userSpaceOnUse">
<stop stop-color="#EDEDED"/>
<stop offset="0.44" stop-color="#EDEDED"/>
<stop offset="0.5376" stop-color="#DCDCDC"/>
<stop offset="0.7429" stop-color="#ADADAD"/>
<stop offset="1" stop-color="#646363"/>
</linearGradient>
<linearGradient id="paint11_linear_2_44980" x1="46.0858" y1="1.63902" x2="46.0858" y2="38.5241" gradientUnits="userSpaceOnUse">
<stop stop-color="#EDEDED"/>
<stop offset="0.44" stop-color="#EDEDED"/>
<stop offset="0.5376" stop-color="#DCDCDC"/>
<stop offset="0.7429" stop-color="#ADADAD"/>
<stop offset="1" stop-color="#646363"/>
</linearGradient>
</defs>
</svg>
