<svg width="68" height="69" viewBox="0 0 68 69" fill="none" xmlns="http://www.w3.org/2000/svg">
<path d="M34.0831 68.0898C52.3755 68.0898 67.2043 53.1317 67.2043 34.6799C67.2043 16.2281 52.3755 1.27002 34.0831 1.27002C15.7908 1.27002 0.961914 16.2281 0.961914 34.6799C0.961914 53.1317 15.7908 68.0898 34.0831 68.0898Z" fill="url(#paint0_radial_2_45011)"/>
<path fill-rule="evenodd" clip-rule="evenodd" d="M35.5676 7.104C51.291 7.104 64.1167 20.0415 64.1167 35.9019C64.1167 51.7623 51.291 64.6998 35.5676 64.6998C19.8443 64.6998 7.01855 51.7623 7.01855 35.9019C7.01855 20.0415 19.8443 7.104 35.5676 7.104ZM23.1101 15.154C20.343 16.855 17.9442 19.0951 16.0559 21.7425L27.0647 47.953L31.9931 36.9321H35.5676H39.1422L44.0706 47.953L55.0675 21.7425C53.1792 19.1071 50.7803 16.855 48.0133 15.154L39.1422 35.267H35.5676H31.9931L23.1101 15.154ZM42.4674 12.6623C40.2823 12.0035 37.9665 11.6441 35.5676 11.6441C33.1687 11.6441 30.853 12.0035 28.6679 12.6623L35.5676 28.2472L42.4674 12.6623ZM12.5407 28.8821C11.8757 31.1103 11.5076 33.4701 11.5076 35.9019C11.5076 45.629 17.2316 54.0504 25.4496 57.9076C20.8656 48.3363 16.6022 38.6451 12.5407 28.8821ZM28.5966 59.1295C30.8055 59.8123 33.145 60.1717 35.5676 60.1717C37.9903 60.1717 40.3298 59.8004 42.5386 59.1295L35.5676 43.8561L28.5966 59.1295ZM45.6738 57.9076C53.8918 54.0504 59.6158 45.629 59.6158 35.9019C59.6158 33.4582 59.2596 31.1103 58.5827 28.8821C54.5331 38.6451 50.2697 48.3363 45.6738 57.9076Z" fill="url(#paint1_linear_2_45011)"/>
<path fill-rule="evenodd" clip-rule="evenodd" d="M35.14 5.9181C49.4858 6.01393 62.3946 18.5801 62.3946 34.4405C62.3946 50.3009 49.5689 63.2384 33.8455 63.2384C18.1222 63.2384 5.60522 50.4447 5.60522 34.5842C5.60522 18.7238 19.3929 6.01393 33.5605 5.82227L35.14 5.9181ZM21.6374 13.8124C18.8703 15.5134 16.4714 17.7535 14.5832 20.4009L25.592 46.6113L30.5203 35.5905H37.6695L42.5979 46.6113L53.5947 20.4009C51.7065 17.7655 49.3076 15.5134 46.5406 13.8124L37.6695 33.9254H30.5085L21.6374 13.8124ZM40.9828 11.3207C38.7977 10.6618 36.4819 10.3025 34.083 10.3025C31.6842 10.3025 29.3684 10.6618 27.1833 11.3207L34.083 26.9056L40.9828 11.3207ZM10.8305 27.4207C10.1655 29.6488 9.79733 32.0087 9.79733 34.4405C9.79733 44.1676 15.5214 52.5889 23.7393 56.4462L10.8305 27.4207ZM26.8864 57.6681C29.0953 58.3509 31.4348 58.7103 33.8574 58.7103C36.28 58.7103 38.6195 58.3389 40.8284 57.6681L33.8455 42.3947L26.8864 57.6681ZM43.9636 56.4462C52.1815 52.577 57.9056 44.1676 57.9056 34.4405C57.9056 31.9967 57.5493 29.6488 56.8724 27.4207L43.9636 56.4462Z" fill="url(#paint2_linear_2_45011)"/>
<path fill-rule="evenodd" clip-rule="evenodd" d="M34.083 5.88184C49.8064 5.88184 62.6321 18.8193 62.6321 34.6798C62.6321 50.5402 49.8064 63.4777 34.083 63.4777C18.3596 63.4777 5.53394 50.5402 5.53394 34.6798C5.53394 18.8193 18.3596 5.88184 34.083 5.88184ZM21.6373 13.9318C18.8703 15.6329 16.4714 17.873 14.5832 20.5204L25.5919 46.7308L30.5203 35.71H37.6695L42.5979 46.7308L53.5947 20.5204C51.7065 17.885 49.3076 15.6329 46.5406 13.9318L37.6695 34.0449H30.5084L21.6373 13.9318ZM40.9828 11.4402C38.7976 10.7813 36.4819 10.4219 34.083 10.4219C31.6841 10.4219 29.3684 10.7813 27.1833 11.4402L34.083 27.0251L40.9828 11.4402ZM11.068 27.66C10.403 29.8881 10.0348 32.248 10.0348 34.6798C10.0348 44.4068 15.7589 52.8282 23.9768 56.6855L11.068 27.66ZM27.1239 57.9074C29.3327 58.5902 31.6723 58.9495 34.0949 58.9495C36.5175 58.9495 38.857 58.5782 41.0659 57.9074L34.083 42.6339L27.1239 57.9074ZM44.2011 56.6855C52.419 52.8162 58.1431 44.4068 58.1431 34.6798C58.1431 32.236 57.7868 29.8881 57.1099 27.66L44.2011 56.6855Z" fill="url(#paint3_linear_2_45011)"/>
<defs>
<radialGradient id="paint0_radial_2_45011" cx="0" cy="0" r="1" gradientUnits="userSpaceOnUse" gradientTransform="translate(15.3356 13.7112) scale(70.9123 71.5304)">
<stop stop-color="#1EBCEF"/>
<stop offset="0.1455" stop-color="#769ED3"/>
<stop offset="0.36" stop-color="#3B75BB"/>
<stop offset="0.6121" stop-color="#133C7B"/>
<stop offset="0.8242" stop-color="#212B59"/>
</radialGradient>
<linearGradient id="paint1_linear_2_45011" x1="64.0891" y1="64.6778" x2="6.54549" y2="7.63134" gradientUnits="userSpaceOnUse">
<stop stop-color="#23254F"/>
<stop offset="1" stop-color="#353B72"/>
</linearGradient>
<linearGradient id="paint2_linear_2_45011" x1="35.2752" y1="37.3315" x2="44.9091" y2="57.7973" gradientUnits="userSpaceOnUse">
<stop stop-color="#B6BCBA"/>
<stop offset="0.18" stop-color="#A7ACAF"/>
<stop offset="0.34" stop-color="#D3D6D9"/>
<stop offset="0.54" stop-color="#E6E7E9"/>
<stop offset="0.67" stop-color="#F2F1F2"/>
<stop offset="0.8" stop-color="#F5F6F6"/>
<stop offset="0.93" stop-color="#F8F6F6"/>
<stop offset="1" stop-color="#F9F9FA"/>
</linearGradient>
<linearGradient id="paint3_linear_2_45011" x1="52.6824" y1="59.1025" x2="24.9667" y2="23.3289" gradientUnits="userSpaceOnUse">
<stop stop-color="#B6BCBA"/>
<stop offset="0.18" stop-color="#A7ACAF"/>
<stop offset="0.34" stop-color="#D3D6D9"/>
<stop offset="0.54" stop-color="#E6E7E9"/>
<stop offset="0.67" stop-color="#F2F1F2"/>
<stop offset="0.8" stop-color="#F5F6F6"/>
<stop offset="0.93" stop-color="#F8F6F6"/>
<stop offset="1" stop-color="#F9F9FA"/>
</linearGradient>
</defs>
</svg>
