<svg width="71" height="67" viewBox="0 0 71 67" fill="none" xmlns="http://www.w3.org/2000/svg">
<path fill-rule="evenodd" clip-rule="evenodd" d="M35.5787 12.3184C41.7184 12.3184 47.071 14.7219 51.1641 18.4776C55.2572 22.2332 57.6186 27.491 57.6186 33.3498C57.6186 39.0583 55.2572 44.3161 51.1641 48.2219C47.2284 51.9776 41.7184 54.3811 35.5787 54.3811C29.439 54.3811 24.0865 51.9776 19.9934 48.2219C16.0577 44.4663 13.5388 39.2085 13.5388 33.3498C13.5388 27.491 16.0577 22.2332 19.9934 18.4776C24.0865 14.7219 29.439 12.3184 35.5787 12.3184ZM35.5787 12.769C29.5965 12.769 24.0865 15.1726 20.3082 18.778C16.3725 22.5336 13.8537 27.7915 13.8537 33.5C13.8537 39.2085 16.3725 44.4663 20.3082 48.0717C24.0865 51.8273 29.5965 54.0807 35.5787 54.0807C41.561 54.0807 47.071 51.8273 50.8492 48.0717C54.7849 44.4663 57.1464 39.2085 57.1464 33.5C57.1464 27.7915 54.7849 22.5336 50.8492 18.778C47.071 15.0224 41.561 12.769 35.5787 12.769Z" fill="#C6C5C0"/>
<path fill-rule="evenodd" clip-rule="evenodd" d="M35.5787 1.20166C43.2927 1.20166 50.377 3.75547 56.0444 7.81152L59.8226 4.20614L66.4346 10.5156L62.6563 14.1209C66.9069 19.529 69.2683 26.1389 69.2683 33.1994C69.2683 50.9259 54.1552 65.4976 35.5787 65.4976C17.0022 65.4976 1.88916 51.0761 1.88916 33.3496C1.88916 15.6232 17.0022 1.20166 35.5787 1.20166ZM35.5787 8.86309C21.4102 8.86309 9.91799 19.8295 9.91799 33.3496C9.91799 47.02 21.4102 57.8362 35.5787 57.8362C49.7473 57.8362 61.2395 46.8698 61.2395 33.3496C61.2395 19.8295 49.7473 8.86309 35.5787 8.86309Z" fill="url(#paint0_radial_2_50402)"/>
<path fill-rule="evenodd" clip-rule="evenodd" d="M35.5786 8.71289C42.6629 8.71289 49.1174 11.4169 53.9977 15.9237C58.7206 20.4304 61.5543 26.5896 61.5543 33.4999C61.5543 40.26 58.5631 46.4192 53.9977 51.0761C49.2749 55.5828 42.8203 58.2869 35.5786 58.2869C28.4944 58.2869 21.8824 55.4326 17.1596 51.0761C12.4367 46.5694 9.60303 40.4102 9.60303 33.4999C9.60303 26.5896 12.5942 20.4304 17.1596 15.9237C21.8824 11.4169 28.4944 8.71289 35.5786 8.71289ZM35.5786 9.01334C28.4944 9.01334 22.0398 11.7174 17.4744 16.2241C12.7516 20.7308 9.91788 26.7398 9.91788 33.4999C9.91788 40.26 12.7516 46.4192 17.4744 50.7757C22.1973 55.1322 28.6518 57.9864 35.5786 57.9864C42.6629 57.9864 49.1174 55.1322 53.6829 50.7757C58.4057 46.2689 61.2394 40.1098 61.2394 33.4999C61.2394 26.7398 58.4057 20.5806 53.6829 16.2241C49.1174 11.7174 42.6629 9.01334 35.5786 9.01334Z" fill="url(#paint1_linear_2_50402)"/>
<path fill-rule="evenodd" clip-rule="evenodd" d="M35.5787 1.05176C43.2927 1.05176 50.5344 3.60557 56.2018 7.81185L56.0443 7.96207C50.3769 3.90602 43.2927 1.35221 35.5787 1.35221C17.0022 1.35221 1.88912 15.7737 1.88912 33.5002C1.88912 51.2266 17.0022 65.7984 35.5787 65.7984C54.1552 65.7984 69.2683 51.0764 69.2683 33.35C69.2683 26.1392 66.9069 19.6796 62.6563 14.2715L62.8137 14.1213C67.0643 19.5293 69.4257 26.1392 69.4257 33.35C69.4257 42.3634 65.6474 50.4755 59.5077 56.3343C53.3681 62.193 45.0244 65.7984 35.5787 65.7984C26.2904 65.7984 17.7893 62.193 11.6497 56.3343C5.50996 50.3253 1.73169 42.3634 1.73169 33.35C1.73169 24.4867 5.50996 16.3746 11.6497 10.5159C17.7893 4.65714 26.133 1.05176 35.5787 1.05176Z" fill="url(#paint2_radial_2_50402)"/>
<path fill-rule="evenodd" clip-rule="evenodd" d="M35.5787 8.86328C49.7472 8.86328 61.2395 19.8297 61.2395 33.3498C61.2395 46.87 49.7472 57.8364 35.5787 57.8364C21.4102 57.8364 9.91797 47.0202 9.91797 33.5001C9.91797 19.8296 21.4102 8.86328 35.5787 8.86328ZM35.5787 12.3184C23.4568 12.3184 13.5388 21.7826 13.5388 33.3498C13.5388 44.9171 23.4568 54.3812 35.5787 54.3812C47.7007 54.3812 57.6186 44.9171 57.6186 33.3498C57.6186 21.7826 47.7007 12.3184 35.5787 12.3184Z" fill="url(#paint3_radial_2_50402)"/>
<path opacity="0.67" fill-rule="evenodd" clip-rule="evenodd" d="M4.88037 41.1615C4.88037 41.3117 4.88037 41.3117 4.88037 41.1615C5.0378 41.3117 5.0378 41.3117 5.0378 41.3117V41.0112C5.0378 41.0112 4.88037 41.0112 4.88037 41.1615Z" fill="url(#paint4_linear_2_50402)"/>
<path opacity="0.67" d="M9.76046 40.5605H9.60303V40.7112H9.76046V40.5605Z" fill="url(#paint5_linear_2_50402)"/>
<path opacity="0.67" d="M9.76046 40.7104H9.60303V40.8611H9.76046V40.7104Z" fill="url(#paint6_linear_2_50402)"/>
<path opacity="0.67" fill-rule="evenodd" clip-rule="evenodd" d="M6.45459 41.1615C6.45459 41.3117 6.45459 41.3117 6.45459 41.1615C6.61202 41.3117 6.61202 41.3117 6.61202 41.3117V41.0112C6.61202 41.0112 6.45459 41.0112 6.45459 41.1615Z" fill="url(#paint7_linear_2_50402)"/>
<path opacity="0.67" d="M10.7052 40.7104H10.2329V40.8611H10.7052V40.7104Z" fill="url(#paint8_linear_2_50402)"/>
<path opacity="0.67" fill-rule="evenodd" clip-rule="evenodd" d="M14.6408 39.9595H2.67627C2.99113 41.3115 3.46341 42.6635 3.77827 43.8653H16.5299C15.7428 42.6635 15.1131 41.4617 14.6408 39.9595ZM9.6031 40.2599V40.4101H9.76053V40.5604V40.7106C9.76053 40.8608 9.76053 40.8608 9.76053 40.8608H9.6031V41.011H9.76053V41.1613H9.6031V41.3115H9.76053V41.4617H9.6031V41.6119C9.6031 41.4617 9.6031 41.4617 9.6031 41.4617H9.44567H9.76053V41.3115H9.44567H9.6031V41.1613V41.011H9.44567H9.76053V40.5604H9.44567H9.6031C9.6031 40.4101 9.6031 40.2599 9.6031 40.2599ZM4.56541 41.3115H4.25055H4.40798V40.5604H4.25055L4.56541 41.3115C4.40798 41.3115 4.40798 41.3115 4.56541 41.3115ZM5.19512 41.3115C5.03769 41.3115 5.03769 41.3115 5.19512 41.3115C5.03769 41.3115 5.03769 41.3115 5.03769 41.3115C5.03769 41.3115 5.03769 41.3115 4.88026 41.3115H4.72283C4.72283 41.3115 4.72283 41.3115 4.72283 41.1613V41.011C4.72283 41.011 4.88026 41.011 5.03769 40.8608C5.03769 40.8608 5.03769 40.8608 5.03769 40.7106C5.03769 40.7106 5.03769 40.7106 4.88026 40.7106H4.72283C4.72283 40.7106 4.72283 40.7106 4.72283 40.5604H4.88026H5.03769C5.03769 40.5604 5.03769 40.5604 5.03769 40.7106L5.19512 41.3115ZM5.6674 41.3115L5.50997 40.8608C5.50997 40.8608 5.50997 40.8608 5.50997 40.7106C5.50997 40.7106 5.50997 40.7106 5.50997 40.8608V41.1613H5.19512V40.7106V40.8608C5.19512 40.8608 5.19512 40.8608 5.19512 40.7106H5.35254V40.8608L5.6674 41.3115ZM6.13968 41.3115C5.98226 41.3115 5.98226 41.3115 5.98226 41.3115V41.1613V40.8608H5.82483C5.82483 40.8608 5.82483 40.8608 5.98226 40.8608C5.98226 40.8608 5.98226 40.8608 5.98226 40.7106V40.8608V41.1613C5.98226 41.1613 5.98226 41.3115 6.13968 41.3115C6.13968 41.1613 6.13968 41.1613 6.13968 41.3115ZM6.7694 41.3115C6.61197 41.3115 6.61197 41.3115 6.7694 41.3115C6.61197 41.3115 6.61197 41.3115 6.61197 41.3115C6.61197 41.3115 6.61197 41.3115 6.45454 41.3115H6.29711C6.29711 41.3115 6.29711 41.3115 6.29711 41.1613V41.011C6.29711 41.011 6.45454 41.011 6.61197 40.8608C6.61197 40.8608 6.61197 40.8608 6.61197 40.7106C6.61197 40.7106 6.61197 40.7106 6.45454 40.7106H6.29711C6.29711 40.7106 6.29711 40.7106 6.29711 40.5604H6.45454H6.61197C6.61197 40.5604 6.61197 40.5604 6.61197 40.7106L6.7694 41.3115ZM7.24168 40.8608C7.08425 40.7106 7.08425 40.8608 7.08425 40.8608C7.08425 40.8608 7.08425 41.011 6.92682 41.011V41.3115H7.08425V40.8608H6.92682V41.011C6.92682 41.011 6.92682 40.8608 7.08425 40.8608C7.24168 40.7106 7.24168 40.7106 7.24168 40.8608C7.24168 40.7106 7.24168 40.7106 7.24168 40.8608ZM8.5011 41.3115C8.5011 41.3115 8.5011 41.4617 8.34368 41.4617C8.34368 41.4617 8.34368 41.3115 8.18625 41.3115H8.34368L8.5011 41.1613H8.02882C8.02882 41.1613 8.02882 41.1613 7.87139 41.1613H8.5011L8.65853 40.8608V41.011C8.65853 40.8608 8.65853 40.8608 8.5011 41.1613H8.81596L8.97339 41.3115H8.5011ZM8.97339 40.8608C8.81596 40.8608 8.81596 40.8608 8.97339 40.8608C8.65853 40.8608 8.65853 40.7106 8.5011 40.5604C8.34368 40.7106 8.18625 40.8608 8.02882 41.011C8.18625 40.8608 8.34368 40.7106 8.34368 40.5604H8.02882C8.02882 40.5604 8.02882 40.5604 7.87139 40.5604H8.34368V40.4101H8.5011V40.5604H8.81596V40.7106H8.5011C8.5011 40.7106 8.65853 40.7106 8.97339 40.8608ZM9.91796 41.3115C9.91796 41.4617 9.91796 41.4617 9.91796 41.3115C9.76053 41.4617 9.6031 41.4617 9.6031 41.4617C9.44567 41.4617 9.44567 41.4617 9.28824 41.4617C9.28824 41.4617 9.13082 41.4617 9.13082 41.3115L8.97339 41.4617C8.97339 41.4617 9.13082 41.3115 9.13082 41.1613C9.13082 41.011 9.13082 41.011 8.97339 40.8608C8.97339 41.011 8.97339 41.011 9.13082 41.011C9.13082 40.8608 9.13082 40.8608 9.13082 40.7106C9.13082 40.5604 9.28824 40.5604 9.28824 40.4101V40.5604C9.28824 40.7106 9.13082 40.7106 9.13082 40.8608H9.28824C9.28824 41.011 9.28824 41.1613 9.28824 41.1613C9.28824 41.1613 9.44567 41.1613 9.44567 41.3115H9.6031C9.76053 41.3115 9.76053 41.3115 9.91796 41.3115ZM11.02 41.3115C10.8625 41.3115 10.8625 41.3115 10.7051 41.3115L10.5477 41.1613C10.5477 41.1613 10.3902 41.011 10.3902 40.8608H10.2328V41.3115L10.3902 41.1613C10.2328 41.3115 10.2328 41.3115 10.0754 41.3115V41.1613V40.5604V40.4101H10.2328V40.2599C10.2328 40.2599 10.3902 40.2599 10.3902 40.4101C10.3902 40.4101 10.3902 40.4101 10.3902 40.5604H10.5477V40.8608V41.011H10.3902C10.3902 41.1613 10.3902 41.1613 10.5477 41.1613C10.7051 41.1613 10.7051 41.011 10.8625 41.011V41.1613C10.7051 41.1613 10.7051 41.3115 10.5477 41.3115L10.7051 41.4617C10.8625 41.3115 10.8625 41.3115 11.02 41.3115Z" fill="url(#paint9_linear_2_50402)"/>
<path opacity="0.67" d="M10.7052 40.5605H10.2329V40.7112H10.7052V40.5605Z" fill="url(#paint10_linear_2_50402)"/>
<path opacity="0.86" fill-rule="evenodd" clip-rule="evenodd" d="M56.5166 39.9595H68.6386C68.3237 41.3115 67.8514 42.6635 67.5366 43.8653H54.7849C55.4146 42.6635 56.0443 41.4617 56.5166 39.9595Z" fill="url(#paint11_linear_2_50402)"/>
<path fill-rule="evenodd" clip-rule="evenodd" d="M69.111 25.2378C69.8981 27.7916 70.213 30.4956 70.213 33.3499C70.213 36.2042 69.7407 39.0584 69.111 41.7625H2.2041V41.6122H69.111C69.8981 38.9082 70.213 36.0539 70.213 33.1997C70.213 30.4956 69.7407 27.7916 69.111 25.2378Z" fill="black"/>
<path fill-rule="evenodd" clip-rule="evenodd" d="M2.04658 25.0874H69.1109C69.7406 27.6412 70.0555 30.3452 70.0555 33.1995C70.0555 36.0538 69.7406 38.908 68.9535 41.6121H2.204C1.41686 38.908 0.94458 36.0538 0.94458 33.1995C0.94458 30.4955 1.41686 27.7914 2.04658 25.0874Z" fill="url(#paint12_radial_2_50402)"/>
<path fill-rule="evenodd" clip-rule="evenodd" d="M61.2396 2.10303L68.6387 9.31379L63.1287 14.5716L63.4436 15.0223L59.5079 18.0268L58.2484 18.4775L66.4347 10.5156L59.8227 4.20617L51.6365 12.0178L51.9513 10.9663L61.2396 2.10303Z" fill="url(#paint13_linear_2_50402)"/>
<path fill-rule="evenodd" clip-rule="evenodd" d="M53.6829 1.35205C60.2948 4.65698 65.6474 9.91483 69.2682 16.074V1.35205H53.6829Z" fill="url(#paint14_radial_2_50402)"/>
<path d="M53.6829 1.35205C60.2948 4.65698 65.6474 9.91483 69.2682 16.074" stroke="#B2B1A7" stroke-width="0.3402" stroke-linecap="round"/>
<path d="M53.6829 1.35205C60.1374 4.65698 65.6474 9.91483 69.1108 16.074" stroke="#CCCBC3" stroke-width="0.2361" stroke-linecap="round"/>
<path d="M53.5254 1.35205C60.1374 4.65698 65.4899 9.91483 69.1108 16.2242" stroke="#E7E6E1" stroke-width="0.1324" stroke-linecap="round"/>
<path d="M53.5254 1.35205C59.9799 4.80721 65.4899 9.91483 68.9533 16.2242" stroke="white" stroke-width="0.0283" stroke-linecap="round"/>
<path fill-rule="evenodd" clip-rule="evenodd" d="M69.2682 1.05176C69.4256 1.05176 69.4256 1.20198 69.4256 1.35221H53.6828H53.5254C53.5254 1.20198 53.6828 1.05176 53.6828 1.05176H69.2682Z" fill="url(#paint15_linear_2_50402)"/>
<path fill-rule="evenodd" clip-rule="evenodd" d="M69.4257 16.0742C69.4257 16.2244 69.2683 16.3746 69.2683 16.3746L69.1108 16.2244V1.05176C69.1108 1.05176 69.1108 1.05176 69.2683 1.05176C69.4257 1.05176 69.4257 1.20198 69.4257 1.35221V16.0742Z" fill="url(#paint16_linear_2_50402)"/>
<path fill-rule="evenodd" clip-rule="evenodd" d="M54.3127 33.5002C54.3127 35.6034 56.8316 37.4061 59.8227 37.4061C61.2395 37.4061 62.6564 36.9554 63.7584 36.2043C64.8604 35.4531 65.3327 34.4016 65.3327 33.35C65.3327 32.2984 64.703 31.2469 63.7584 30.4957C62.6564 29.7446 61.2395 29.2939 59.8227 29.2939C56.8316 29.5944 54.3127 31.2469 54.3127 33.5002ZM57.9336 33.5002C57.9336 31.8478 58.7207 30.7962 59.8227 30.7962C60.295 30.7962 60.7673 31.0966 61.0821 31.5473C61.397 31.998 61.7118 32.7491 61.7118 33.5002C61.7118 34.2513 61.5544 34.8522 61.0821 35.4531C60.7673 35.9038 60.295 36.2043 59.8227 36.2043C58.7207 36.2043 57.9336 35.0025 57.9336 33.5002ZM19.836 33.5002C19.836 35.6034 22.3548 37.4061 25.346 37.4061C28.4945 37.4061 31.0134 35.6034 31.0134 33.5002C31.0134 31.3971 28.4945 29.7446 25.346 29.7446C22.3548 29.5944 19.836 31.3971 19.836 33.5002ZM23.4568 33.5002C23.4568 31.998 24.244 30.7962 25.346 30.7962C25.8183 30.7962 26.2905 31.0966 26.6054 31.5473C26.9203 31.998 27.2351 32.7491 27.2351 33.5002C27.2351 34.2513 27.0777 34.8522 26.6054 35.4531C26.2905 35.9038 25.8183 36.2043 25.346 36.2043C24.244 36.2043 23.4568 35.0025 23.4568 33.5002ZM49.7473 29.8948V30.9464H51.1642L48.8027 35.3029L46.1265 30.7962H48.0156V29.7446H40.3016V30.7962H42.1908L45.6542 37.1056H49.9047L53.5256 30.7962H55.2573V29.7446L49.7473 29.8948ZM31.3282 29.8948V30.9464H33.2174V36.054H31.4857V37.2558H33.3748H42.3482V33.8007H41.2462C41.0888 35.6034 39.5145 35.9038 38.8848 35.9038H36.9956V30.7962H38.7273V29.7446L31.3282 29.8948ZM15.2706 29.8948V30.9464H16.8449L14.1686 35.3029L11.4923 30.7962H13.3814V29.7446H5.66748V30.7962H7.55662L11.02 37.2558H15.2706L18.8914 30.9464H20.6231V29.8948H15.2706Z" fill="white"/>
<path d="M59.8227 29.4443C56.8316 29.4443 54.3127 31.247 54.3127 33.5004C54.3127 35.7538 56.8316 37.5564 59.8227 37.5564C61.397 37.5564 62.8138 37.1058 63.7584 36.3547C64.8604 35.6035 65.4901 34.552 65.4901 33.5004C65.4901 32.4488 64.8604 31.3972 63.7584 30.6461C62.8138 29.895 61.397 29.4443 59.8227 29.4443ZM54.4701 33.5004C54.4701 31.3972 56.989 29.5946 59.9801 29.5946C62.9713 29.5946 65.4901 31.3972 65.4901 33.5004C65.4901 35.6035 62.9713 37.4062 59.9801 37.4062C56.8316 37.4062 54.4701 35.6035 54.4701 33.5004ZM59.8227 30.6461C58.7207 30.6461 57.9336 31.8479 57.9336 33.5004C57.9336 35.0026 58.7207 36.2044 59.8227 36.2044C60.7673 36.2044 61.7118 35.0026 61.7118 33.5004C61.7118 31.8479 60.9247 30.6461 59.8227 30.6461ZM59.8227 36.0542C58.7207 36.0542 57.9336 35.0026 57.9336 33.5004C57.9336 31.9981 58.7207 30.7964 59.8227 30.7964C60.7673 30.7964 61.7118 31.9981 61.7118 33.5004C61.7118 34.8524 60.7673 36.0542 59.8227 36.0542ZM25.346 29.5946C22.3548 29.5946 19.836 31.3972 19.836 33.5004C19.836 35.7538 22.3548 37.5564 25.346 37.5564C26.9203 37.5564 28.3371 37.1058 29.2817 36.3547C30.3837 35.6035 31.0134 34.552 31.0134 33.5004C31.0134 32.4488 30.3837 31.5475 29.2817 30.7964C28.3371 30.0452 26.9203 29.5946 25.346 29.5946ZM19.9934 33.5004C19.9934 31.3972 22.5123 29.7448 25.5034 29.7448C28.4945 29.7448 31.0134 31.5475 31.0134 33.5004C31.0134 35.6035 28.4945 37.4062 25.5034 37.4062C22.3548 37.4062 19.9934 35.6035 19.9934 33.5004ZM25.346 30.7964C24.244 30.7964 23.4568 31.9981 23.4568 33.5004C23.4568 35.0026 24.244 36.2044 25.346 36.2044C26.2905 36.2044 27.2351 35.0026 27.2351 33.5004C27.2351 31.9981 26.448 30.7964 25.346 30.7964ZM25.346 36.0542C24.244 36.0542 23.4568 35.0026 23.4568 33.5004C23.4568 31.9981 24.244 30.9466 25.346 30.9466C26.2905 30.9466 27.2351 32.1484 27.2351 33.5004C27.2351 34.8524 26.448 36.0542 25.346 36.0542ZM55.0999 29.895H49.7473H49.5899V30.0452V30.9466V31.0968H49.7473H51.0067L48.8027 35.3031L46.2839 31.0968H48.0156H48.173V30.9466V30.0452V29.895H48.0156H40.3016H40.1442V30.0452V30.9466V31.0968H40.3016H42.0333L45.4968 37.256H49.7473L53.2107 31.0968H55.0999V30.9466V29.895ZM49.7473 29.895H55.0999V30.7964H53.2107L49.7473 37.1058H45.4968L42.0333 30.7964H40.1442V29.895H47.8582V30.7964H45.969V30.9466L48.6453 35.1529L50.8493 30.9466V30.7964H49.4325V29.895H49.7473ZM38.5699 29.895H31.3282H31.1708V30.0452V30.9466V31.0968H31.3282H33.0599V36.0542H31.3282H31.1708V36.2044V37.4062V37.5564H31.3282H33.2174H42.1908H42.3482V37.4062V34.1013V33.9511H42.1908H41.0888H40.9313V34.1013C40.7739 35.7538 39.1996 36.2044 38.5699 36.2044H36.6808V31.247H38.4125H38.5699V31.0968V29.895ZM31.3282 29.895H38.4125V30.7964H36.5234V30.9466V35.904V36.0542C36.5234 36.0542 36.5234 36.0542 36.6808 36.0542C36.9956 36.0542 37.9402 36.0542 38.5699 36.0542C39.1996 36.0542 40.7739 35.6035 40.9313 33.9511C41.8759 33.9511 42.0333 33.9511 42.0333 33.9511V37.256H33.0599H31.1708V36.0542H33.0599H33.2174V30.9466H31.3282V29.895ZM20.7806 29.895H15.2706V30.0452V30.9466V31.0968H15.428H16.6874L14.326 35.3031L11.8072 31.0968H13.5389H13.6963V30.9466V30.0452V29.895H13.5389H5.82491H5.66748V30.0452V30.9466V31.0968H5.82491H7.55662L11.02 37.256H15.2706L18.734 31.0968H20.4657H20.6231V30.9466V29.895H20.7806ZM15.2706 29.895H20.6231V30.7964H18.734L15.2706 37.1058H11.02L7.55662 30.7964H5.82491V29.895H13.5389V30.7964H11.4923V30.9466L14.1686 35.3031L16.53 31.0968V30.9466H15.2706V29.895Z" fill="#323230"/>
<path d="M2.20405 25.2378C1.57433 27.7916 1.10205 30.4956 1.10205 33.3499C1.10205 33.6504 1.25948 35.0024 1.25948 35.1526L1.41691 37.2557C1.41691 37.1055 1.25948 33.6503 1.25948 33.5001C1.25948 30.6459 1.73176 28.0921 2.36147 25.5382H26.1331L36.3659 25.388H2.20405V25.2378Z" fill="url(#paint17_linear_2_50402)"/>
<defs>
<radialGradient id="paint0_radial_2_50402" cx="0" cy="0" r="1" gradientUnits="userSpaceOnUse" gradientTransform="translate(11.5091 27.0372) scale(70.316 67.0984)">
<stop stop-color="white"/>
<stop offset="0.0409532" stop-color="#FDFDFC"/>
<stop offset="0.2247" stop-color="#FCFBFA"/>
<stop offset="0.2867" stop-color="#E2E2DF"/>
<stop offset="0.4133" stop-color="#AFAEAB"/>
<stop offset="0.5197" stop-color="#858581"/>
<stop offset="0.6004" stop-color="#696965"/>
<stop offset="0.6461" stop-color="#5F5E5B"/>
<stop offset="0.7394" stop-color="#555450"/>
<stop offset="0.8995" stop-color="#373632"/>
<stop offset="1"/>
</radialGradient>
<linearGradient id="paint1_linear_2_50402" x1="22.2925" y1="29.1052" x2="47.2432" y2="38.1084" gradientUnits="userSpaceOnUse">
<stop stop-color="#E4E2DC"/>
<stop offset="1" stop-color="white"/>
</linearGradient>
<radialGradient id="paint2_radial_2_50402" cx="0" cy="0" r="1" gradientUnits="userSpaceOnUse" gradientTransform="translate(55.5886 54.0784) scale(77.1683 73.6372)">
<stop stop-color="#C6C6C1"/>
<stop offset="1" stop-color="#87867E"/>
</radialGradient>
<radialGradient id="paint3_radial_2_50402" cx="0" cy="0" r="1" gradientUnits="userSpaceOnUse" gradientTransform="translate(47.7186 45.0657) scale(54.1911 51.7114)">
<stop stop-color="white"/>
<stop offset="0.1572" stop-color="#F6F6F6"/>
<stop offset="0.2978" stop-color="#EBEBEB"/>
<stop offset="0.335" stop-color="#D8D8D6"/>
<stop offset="0.3996" stop-color="#BAB9B7"/>
<stop offset="0.4637" stop-color="#A0A09C"/>
<stop offset="0.526" stop-color="#8E8D89"/>
<stop offset="0.5858" stop-color="#82827E"/>
<stop offset="0.6404" stop-color="#7E7D7A"/>
<stop offset="0.7377" stop-color="#5D5D59"/>
<stop offset="0.8456" stop-color="#3D3C38"/>
<stop offset="0.9369" stop-color="#191816"/>
<stop offset="1"/>
</radialGradient>
<linearGradient id="paint4_linear_2_50402" x1="4.94539" y1="41.3058" x2="4.94539" y2="41.1242" gradientUnits="userSpaceOnUse">
<stop stop-color="white"/>
<stop offset="0.17" stop-color="#FCFBFA"/>
<stop offset="0.427" stop-color="#BCBCB6"/>
<stop offset="0.4352" stop-color="#B9B8B3"/>
<stop offset="0.5344" stop-color="#92918B"/>
<stop offset="0.6334" stop-color="#6E6D67"/>
<stop offset="0.7305" stop-color="#50504A"/>
<stop offset="0.8252" stop-color="#393834"/>
<stop offset="0.9163" stop-color="#201F1C"/>
<stop offset="1" stop-color="#131311"/>
</linearGradient>
<linearGradient id="paint5_linear_2_50402" x1="9.69874" y1="40.6196" x2="9.69874" y2="40.5449" gradientUnits="userSpaceOnUse">
<stop stop-color="white"/>
<stop offset="0.17" stop-color="#FCFBFA"/>
<stop offset="0.427" stop-color="#BCBCB6"/>
<stop offset="0.4352" stop-color="#B9B8B3"/>
<stop offset="0.5344" stop-color="#92918B"/>
<stop offset="0.6334" stop-color="#6E6D67"/>
<stop offset="0.7305" stop-color="#50504A"/>
<stop offset="0.8252" stop-color="#393834"/>
<stop offset="0.9163" stop-color="#201F1C"/>
<stop offset="1" stop-color="#131311"/>
</linearGradient>
<linearGradient id="paint6_linear_2_50402" x1="9.69874" y1="40.7758" x2="9.69874" y2="40.6985" gradientUnits="userSpaceOnUse">
<stop stop-color="white"/>
<stop offset="0.17" stop-color="#FCFBFA"/>
<stop offset="0.427" stop-color="#BCBCB6"/>
<stop offset="0.4352" stop-color="#B9B8B3"/>
<stop offset="0.5344" stop-color="#92918B"/>
<stop offset="0.6334" stop-color="#6E6D67"/>
<stop offset="0.7305" stop-color="#50504A"/>
<stop offset="0.8252" stop-color="#393834"/>
<stop offset="0.9163" stop-color="#201F1C"/>
<stop offset="1" stop-color="#131311"/>
</linearGradient>
<linearGradient id="paint7_linear_2_50402" x1="6.5396" y1="41.3058" x2="6.5396" y2="41.1242" gradientUnits="userSpaceOnUse">
<stop stop-color="white"/>
<stop offset="0.17" stop-color="#FCFBFA"/>
<stop offset="0.427" stop-color="#BCBCB6"/>
<stop offset="0.4352" stop-color="#B9B8B3"/>
<stop offset="0.5344" stop-color="#92918B"/>
<stop offset="0.6334" stop-color="#6E6D67"/>
<stop offset="0.7305" stop-color="#50504A"/>
<stop offset="0.8252" stop-color="#393834"/>
<stop offset="0.9163" stop-color="#201F1C"/>
<stop offset="1" stop-color="#131311"/>
</linearGradient>
<linearGradient id="paint8_linear_2_50402" x1="10.5268" y1="40.9165" x2="10.5268" y2="40.8002" gradientUnits="userSpaceOnUse">
<stop stop-color="white"/>
<stop offset="0.17" stop-color="#FCFBFA"/>
<stop offset="0.427" stop-color="#BCBCB6"/>
<stop offset="0.4352" stop-color="#B9B8B3"/>
<stop offset="0.5344" stop-color="#92918B"/>
<stop offset="0.6334" stop-color="#6E6D67"/>
<stop offset="0.7305" stop-color="#50504A"/>
<stop offset="0.8252" stop-color="#393834"/>
<stop offset="0.9163" stop-color="#201F1C"/>
<stop offset="1" stop-color="#131311"/>
</linearGradient>
<linearGradient id="paint9_linear_2_50402" x1="9.60436" y1="44.1597" x2="9.60436" y2="41.844" gradientUnits="userSpaceOnUse">
<stop stop-color="white"/>
<stop offset="0.17" stop-color="#FCFBFA"/>
<stop offset="0.427" stop-color="#BCBCB6"/>
<stop offset="0.4352" stop-color="#B9B8B3"/>
<stop offset="0.5344" stop-color="#92918B"/>
<stop offset="0.6334" stop-color="#6E6D67"/>
<stop offset="0.7305" stop-color="#50504A"/>
<stop offset="0.8252" stop-color="#393834"/>
<stop offset="0.9163" stop-color="#201F1C"/>
<stop offset="1" stop-color="#131311"/>
</linearGradient>
<linearGradient id="paint10_linear_2_50402" x1="10.5268" y1="40.6925" x2="10.5268" y2="40.5884" gradientUnits="userSpaceOnUse">
<stop stop-color="white"/>
<stop offset="0.17" stop-color="#FCFBFA"/>
<stop offset="0.427" stop-color="#BCBCB6"/>
<stop offset="0.4352" stop-color="#B9B8B3"/>
<stop offset="0.5344" stop-color="#92918B"/>
<stop offset="0.6334" stop-color="#6E6D67"/>
<stop offset="0.7305" stop-color="#50504A"/>
<stop offset="0.8252" stop-color="#393834"/>
<stop offset="0.9163" stop-color="#201F1C"/>
<stop offset="1" stop-color="#131311"/>
</linearGradient>
<linearGradient id="paint11_linear_2_50402" x1="61.571" y1="44.1597" x2="61.571" y2="41.844" gradientUnits="userSpaceOnUse">
<stop stop-color="white"/>
<stop offset="0.17" stop-color="#FCFBFA"/>
<stop offset="0.427" stop-color="#BCBCB6"/>
<stop offset="0.4352" stop-color="#B9B8B3"/>
<stop offset="0.5344" stop-color="#92918B"/>
<stop offset="0.6334" stop-color="#6E6D67"/>
<stop offset="0.7305" stop-color="#50504A"/>
<stop offset="0.8252" stop-color="#393834"/>
<stop offset="0.9163" stop-color="#201F1C"/>
<stop offset="1" stop-color="#131311"/>
</linearGradient>
<radialGradient id="paint12_radial_2_50402" cx="0" cy="0" r="1" gradientUnits="userSpaceOnUse" gradientTransform="translate(4.0341 27.0403) scale(43.7469 41.7451)">
<stop stop-color="#0069B4"/>
<stop offset="0.0821741" stop-color="#0063AA"/>
<stop offset="0.1658" stop-color="#005FA3"/>
<stop offset="0.2416" stop-color="#005EA1"/>
<stop offset="0.3915" stop-color="#005998"/>
<stop offset="0.6854" stop-color="#004B81"/>
<stop offset="0.8371" stop-color="#004273"/>
<stop offset="0.9335" stop-color="#004272"/>
<stop offset="0.9682" stop-color="#004071"/>
<stop offset="0.9929" stop-color="#003C6F"/>
<stop offset="1" stop-color="#003B6E"/>
</radialGradient>
<linearGradient id="paint13_linear_2_50402" x1="68.0135" y1="18.1929" x2="51.763" y2="1.16313" gradientUnits="userSpaceOnUse">
<stop offset="0.005618" stop-color="#0A0A04"/>
<stop offset="0.6461" stop-color="#3F3E3A"/>
<stop offset="0.6504" stop-color="#43433F"/>
<stop offset="0.655" stop-color="#51504C"/>
<stop offset="0.6596" stop-color="#656460"/>
<stop offset="0.6642" stop-color="#81807B"/>
<stop offset="0.6689" stop-color="#A1A09B"/>
<stop offset="0.6736" stop-color="#C6C5C1"/>
<stop offset="0.6783" stop-color="#EEEDEA"/>
<stop offset="0.68" stop-color="#FDFDFA"/>
<stop offset="0.6824" stop-color="#FCFBF8"/>
<stop offset="0.6839" stop-color="#F5F5F1"/>
<stop offset="0.6852" stop-color="#EBEAE6"/>
<stop offset="0.6864" stop-color="#DBDAD5"/>
<stop offset="0.6874" stop-color="#C6C5BF"/>
<stop offset="0.6885" stop-color="#ACABA4"/>
<stop offset="0.6894" stop-color="#8B8A83"/>
<stop offset="0.69" stop-color="#6F6E68"/>
<stop offset="0.7057" stop-color="#5F5E59"/>
<stop offset="0.7315" stop-color="#494946"/>
<stop offset="0.7621" stop-color="#373635"/>
<stop offset="0.7999" stop-color="#1E1D1D"/>
<stop offset="0.8529" stop-color="#070707"/>
<stop offset="1"/>
</linearGradient>
<radialGradient id="paint14_radial_2_50402" cx="0" cy="0" r="1" gradientUnits="userSpaceOnUse" gradientTransform="translate(66.6116 3.00377) scale(18.2824 17.4458)">
<stop stop-color="#55544F"/>
<stop offset="1" stop-color="#4F4F4A"/>
</radialGradient>
<linearGradient id="paint15_linear_2_50402" x1="53.4886" y1="1.19582" x2="69.4703" y2="1.19582" gradientUnits="userSpaceOnUse">
<stop stop-color="#5C5C5B"/>
<stop offset="0.0191961" stop-color="#5A5958"/>
<stop offset="0.2048" stop-color="#434340"/>
<stop offset="0.4097" stop-color="#31302D"/>
<stop offset="0.6486" stop-color="#1B1B19"/>
<stop offset="1" stop-color="#131311"/>
</linearGradient>
<linearGradient id="paint16_linear_2_50402" x1="69.3005" y1="16.3928" x2="69.3005" y2="1.03373" gradientUnits="userSpaceOnUse">
<stop stop-color="#5C5C5B"/>
<stop offset="0.3855" stop-color="#40403D"/>
<stop offset="0.7416" stop-color="#242421"/>
<stop offset="1" stop-color="#131311"/>
</linearGradient>
<linearGradient id="paint17_linear_2_50402" x1="10.1612" y1="20.0959" x2="19.7837" y2="33.7347" gradientUnits="userSpaceOnUse">
<stop stop-color="white"/>
<stop offset="0.1091" stop-color="#DEE5F6"/>
<stop offset="0.3376" stop-color="#98B5E0"/>
<stop offset="0.5419" stop-color="#5491CD"/>
<stop offset="0.7143" stop-color="#007AC0"/>
<stop offset="0.8481" stop-color="#006EB7"/>
<stop offset="0.927" stop-color="#0069B4"/>
<stop offset="0.9468" stop-color="#0075BC"/>
<stop offset="0.9667" stop-color="#377FC2"/>
<stop offset="0.985" stop-color="#4D86C5"/>
<stop offset="1" stop-color="#5488C7"/>
</linearGradient>
</defs>
</svg>
